<?xml version="1.0" encoding="utf-8"?>
<!-- Generator: Adobe Illustrator 26.3.1, SVG Export Plug-In . SVG Version: 6.00 Build 0)  -->
<svg version="1.1" id="Calque_1" xmlns="http://www.w3.org/2000/svg" xmlns:xlink="http://www.w3.org/1999/xlink" x="0px" y="0px"
	 viewBox="0 0 841.9 595.3" style="enable-background:new 0 0 841.9 595.3;" xml:space="preserve">
<style type="text/css">
	.st0{fill:#FFFFFF;}
	.st1{fill:#FFFFFF;}
</style>
<g>
	<g id="Groupes_TotalEnergies__x26__EDF">
		<path class="st0" d="M288.4,447.1v-2.6l9.2,0v8.1c-1.4,1.1-2.9,2-4.4,2.5c-1.5,0.6-3,0.9-4.6,0.9c-2.1,0-4.1-0.5-5.8-1.4
			s-3.1-2.2-4-4s-1.3-3.7-1.3-5.8c0-2.1,0.4-4.1,1.3-5.9c0.9-1.8,2.2-3.2,3.8-4.1c1.7-0.9,3.6-1.3,5.7-1.3c1.6,0,3,0.3,4.3,0.8
			s2.3,1.2,3,2.1c0.7,0.9,1.3,2.1,1.6,3.6l-2.6,0.7c-0.3-1.1-0.7-2-1.2-2.6c-0.5-0.6-1.2-1.1-2.1-1.5s-1.9-0.6-3-0.6
			c-1.3,0-2.5,0.2-3.4,0.6c-1,0.4-1.7,0.9-2.3,1.6c-0.6,0.7-1,1.4-1.4,2.2c-0.6,1.3-0.8,2.8-0.8,4.4c0,1.9,0.3,3.6,1,4.9
			s1.6,2.3,2.9,2.9c1.3,0.6,2.6,1,4.1,1c1.2,0,2.5-0.2,3.7-0.7c1.2-0.5,2.1-1,2.7-1.5v-4.1H288.4z"/>
		<path class="st0" d="M302.7,455.7v-21.8h9.6c1.9,0,3.4,0.2,4.4,0.6c1,0.4,1.8,1.1,2.4,2.1c0.6,1,0.9,2.1,0.9,3.3
			c0,1.5-0.5,2.8-1.5,3.9c-1,1.1-2.5,1.7-4.6,2c0.8,0.4,1.3,0.7,1.7,1.1c0.8,0.8,1.6,1.7,2.4,2.9l3.8,5.9h-3.6l-2.9-4.5
			c-0.8-1.3-1.5-2.3-2.1-3c-0.5-0.7-1-1.2-1.5-1.5c-0.4-0.3-0.9-0.5-1.3-0.6c-0.3-0.1-0.9-0.1-1.6-0.1h-3.3v9.7H302.7z M305.6,443.5
			h6.2c1.3,0,2.3-0.1,3.1-0.4c0.7-0.3,1.3-0.7,1.7-1.3c0.4-0.6,0.6-1.2,0.6-2c0-1-0.4-1.9-1.1-2.5s-1.9-1-3.5-1h-6.9V443.5z"/>
		<path class="st0" d="M324.5,445.1c0-3.6,1-6.4,2.9-8.5c1.9-2,4.4-3.1,7.5-3.1c2,0,3.8,0.5,5.4,1.4c1.6,1,2.8,2.3,3.7,4
			s1.3,3.7,1.3,5.8c0,2.2-0.4,4.2-1.3,5.9c-0.9,1.7-2.2,3.1-3.8,4c-1.6,0.9-3.4,1.3-5.3,1.3c-2,0-3.9-0.5-5.5-1.5
			c-1.6-1-2.8-2.3-3.7-4.1C324.9,448.8,324.5,447,324.5,445.1z M327.5,445.1c0,2.6,0.7,4.7,2.1,6.2s3.2,2.3,5.3,2.3
			c2.2,0,4-0.8,5.4-2.3c1.4-1.5,2.1-3.7,2.1-6.5c0-1.8-0.3-3.3-0.9-4.6c-0.6-1.3-1.5-2.3-2.6-3.1s-2.4-1.1-3.9-1.1
			c-2,0-3.8,0.7-5.3,2.1S327.5,441.9,327.5,445.1z"/>
		<path class="st0" d="M364.1,433.9h2.9v12.6c0,2.2-0.2,3.9-0.7,5.2c-0.5,1.3-1.4,2.3-2.7,3.1c-1.3,0.8-3,1.2-5.1,1.2
			c-2,0-3.7-0.4-5-1.1c-1.3-0.7-2.2-1.7-2.8-3.1s-0.8-3.1-0.8-5.5v-12.6h2.9v12.6c0,1.9,0.2,3.3,0.5,4.2s1,1.6,1.8,2.1
			c0.9,0.5,1.9,0.7,3.1,0.7c2.1,0,3.6-0.5,4.5-1.4c0.9-1,1.4-2.8,1.4-5.5V433.9z"/>
		<path class="st0" d="M372.5,455.7v-21.8h8.2c1.4,0,2.5,0.1,3.3,0.2c1.1,0.2,2,0.5,2.7,1c0.7,0.5,1.3,1.2,1.7,2.1s0.7,1.9,0.7,3
			c0,1.9-0.6,3.4-1.8,4.7c-1.2,1.3-3.3,1.9-6.4,1.9h-5.6v8.8H372.5z M375.4,444.3h5.6c1.9,0,3.2-0.3,4-1c0.8-0.7,1.2-1.7,1.2-2.9
			c0-0.9-0.2-1.7-0.7-2.3c-0.5-0.6-1.1-1.1-1.8-1.3c-0.5-0.1-1.4-0.2-2.7-0.2h-5.6V444.3z"/>
		<path class="st0" d="M393.6,455.7v-21.8h15.7v2.6h-12.9v6.7h12v2.6h-12v7.4h13.4v2.6H393.6z"/>
		<path class="st0" d="M413.6,448.7l2.7-0.2c0.1,1.1,0.4,2,0.9,2.7c0.5,0.7,1.2,1.3,2.2,1.7s2.1,0.6,3.3,0.6c1.1,0,2.1-0.2,2.9-0.5
			c0.8-0.3,1.5-0.8,1.9-1.3c0.4-0.6,0.6-1.2,0.6-1.9c0-0.7-0.2-1.3-0.6-1.8s-1-0.9-2-1.3c-0.6-0.2-1.9-0.6-3.9-1.1
			c-2-0.5-3.4-0.9-4.2-1.4c-1-0.5-1.8-1.2-2.3-2c-0.5-0.8-0.8-1.7-0.8-2.7c0-1.1,0.3-2.1,0.9-3.1c0.6-1,1.5-1.7,2.7-2.2
			s2.5-0.7,4-0.7c1.6,0,3,0.3,4.3,0.8c1.2,0.5,2.2,1.3,2.8,2.3c0.7,1,1,2.2,1.1,3.4l-2.8,0.2c-0.1-1.4-0.7-2.4-1.5-3.1
			c-0.9-0.7-2.1-1.1-3.8-1.1c-1.7,0-3,0.3-3.8,1c-0.8,0.6-1.2,1.4-1.2,2.3c0,0.8,0.3,1.4,0.8,1.9c0.6,0.5,2,1,4.3,1.6
			c2.3,0.5,3.9,1,4.8,1.4c1.3,0.6,2.2,1.3,2.8,2.2s0.9,1.9,0.9,3.1c0,1.2-0.3,2.2-1,3.3s-1.6,1.8-2.9,2.4s-2.6,0.9-4.2,0.9
			c-2,0-3.6-0.3-5-0.9c-1.3-0.6-2.4-1.4-3.1-2.6C414,451.5,413.6,450.1,413.6,448.7z"/>
		<path class="st0" d="M449.6,455.7v-18.1h-6.5v-3.7h17.3v3.7H454v18.1H449.6z"/>
		<path class="st0" d="M460.8,447.6c0-1.4,0.3-2.7,1-4c0.7-1.3,1.7-2.3,2.9-3c1.3-0.7,2.6-1,4.2-1c2.4,0,4.3,0.8,5.9,2.3
			c1.5,1.5,2.3,3.5,2.3,5.9c0,2.4-0.8,4.4-2.3,5.9c-1.5,1.6-3.5,2.4-5.8,2.4c-1.4,0-2.8-0.3-4.1-1c-1.3-0.7-2.3-1.6-3-2.9
			S460.8,449.4,460.8,447.6z M465,447.8c0,1.6,0.4,2.8,1.1,3.6s1.7,1.2,2.7,1.2c1.1,0,2-0.4,2.7-1.2s1.1-2,1.1-3.6
			c0-1.5-0.4-2.7-1.1-3.6c-0.7-0.8-1.7-1.2-2.7-1.2c-1.1,0-2,0.4-2.7,1.2C465.4,445,465,446.2,465,447.8z"/>
		<path class="st0" d="M488.3,439.9v3.3h-2.9v6.4c0,1.3,0,2,0.1,2.2c0.1,0.2,0.2,0.4,0.4,0.5c0.2,0.1,0.4,0.2,0.7,0.2
			c0.4,0,0.9-0.1,1.7-0.4l0.4,3.2c-1,0.4-2.1,0.6-3.3,0.6c-0.8,0-1.4-0.1-2-0.4c-0.6-0.3-1-0.6-1.3-1s-0.5-0.9-0.6-1.6
			c-0.1-0.5-0.1-1.5-0.1-2.9v-6.9h-1.9v-3.3h1.9v-3.1l4.2-2.4v5.6H488.3z"/>
		<path class="st0" d="M495.1,444.7l-3.8-0.7c0.4-1.5,1.2-2.7,2.2-3.4s2.6-1.1,4.6-1.1c1.9,0,3.2,0.2,4.2,0.7s1.6,1,1.9,1.7
			s0.6,1.9,0.6,3.7l0,4.9c0,1.4,0.1,2.4,0.2,3.1s0.4,1.4,0.8,2.1h-4.1c-0.1-0.3-0.2-0.7-0.4-1.2c-0.1-0.2-0.1-0.4-0.1-0.5
			c-0.7,0.7-1.5,1.2-2.3,1.6c-0.8,0.3-1.7,0.5-2.6,0.5c-1.6,0-2.9-0.4-3.8-1.3c-0.9-0.9-1.4-2-1.4-3.3c0-0.9,0.2-1.7,0.6-2.4
			c0.4-0.7,1-1.2,1.8-1.6c0.8-0.4,1.9-0.7,3.3-1c1.9-0.4,3.3-0.7,4.1-1V445c0-0.8-0.2-1.4-0.6-1.7c-0.4-0.3-1.1-0.5-2.2-0.5
			c-0.7,0-1.3,0.1-1.7,0.4C495.6,443.5,495.3,444,495.1,444.7z M500.6,448.1c-0.5,0.2-1.4,0.4-2.5,0.6c-1.2,0.2-1.9,0.5-2.3,0.7
			c-0.5,0.4-0.8,0.9-0.8,1.5c0,0.6,0.2,1.1,0.7,1.5c0.4,0.4,1,0.6,1.7,0.6c0.8,0,1.5-0.2,2.2-0.7c0.5-0.4,0.8-0.8,1-1.4
			c0.1-0.4,0.2-1,0.2-2V448.1z"/>
		<path class="st0" d="M509.6,455.7v-21.8h4.2v21.8H509.6z"/>
		<path class="st0" d="M518.8,455.7v-21.8H535v3.7h-11.7v4.8h10.9v3.7h-10.9v5.9h12.2v3.7H518.8z"/>
		<path class="st0" d="M554.2,455.7H550v-8c0-1.7-0.1-2.8-0.3-3.3c-0.2-0.5-0.5-0.9-0.9-1.2c-0.4-0.3-0.9-0.4-1.4-0.4
			c-0.7,0-1.4,0.2-1.9,0.6c-0.6,0.4-1,0.9-1.2,1.6s-0.3,1.9-0.3,3.6v7.1h-4.2v-15.8h3.9v2.3c1.4-1.8,3.1-2.7,5.2-2.7
			c0.9,0,1.8,0.2,2.5,0.5c0.8,0.3,1.3,0.8,1.7,1.3s0.7,1.1,0.8,1.8s0.2,1.6,0.2,2.8V455.7z"/>
		<path class="st0" d="M568.3,450.7l4.2,0.7c-0.5,1.5-1.4,2.7-2.5,3.5c-1.2,0.8-2.6,1.2-4.3,1.2c-2.7,0-4.8-0.9-6.1-2.7
			c-1-1.4-1.6-3.2-1.6-5.4c0-2.6,0.7-4.7,2-6.1c1.4-1.5,3.1-2.2,5.2-2.2c2.3,0,4.2,0.8,5.6,2.3s2,3.9,1.9,7.1h-10.5
			c0,1.2,0.4,2.2,1,2.9c0.6,0.7,1.4,1,2.4,1c0.7,0,1.2-0.2,1.6-0.5C567.7,452,568.1,451.5,568.3,450.7z M568.5,446.5
			c0-1.2-0.3-2.1-0.9-2.8c-0.6-0.6-1.3-0.9-2.2-0.9c-0.9,0-1.7,0.3-2.3,1s-0.9,1.6-0.9,2.7H568.5z"/>
		<path class="st0" d="M580.8,455.7h-4.2v-15.8h3.9v2.2c0.7-1.1,1.3-1.8,1.8-2.1c0.5-0.3,1.1-0.5,1.8-0.5c1,0,1.9,0.3,2.7,0.8
			l-1.3,3.6c-0.7-0.5-1.4-0.7-2-0.7c-0.6,0-1.1,0.2-1.5,0.5c-0.4,0.3-0.7,0.9-1,1.7c-0.2,0.8-0.3,2.6-0.3,5.3V455.7z"/>
		<path class="st0" d="M589,456.7l4.8,0.6c0.1,0.6,0.3,0.9,0.5,1.1c0.4,0.3,1,0.4,1.9,0.4c1.1,0,1.9-0.2,2.4-0.5
			c0.4-0.2,0.6-0.6,0.8-1.1c0.1-0.3,0.2-1,0.2-1.9v-2.3c-1.2,1.7-2.8,2.6-4.7,2.6c-2.1,0-3.8-0.9-5-2.7c-1-1.4-1.5-3.2-1.5-5.3
			c0-2.6,0.6-4.7,1.9-6.1s2.9-2.1,4.7-2.1c1.9,0,3.6,0.9,4.8,2.6v-2.2h3.9v14.1c0,1.9-0.2,3.3-0.5,4.2c-0.3,0.9-0.7,1.6-1.3,2.2
			c-0.6,0.5-1.3,0.9-2.2,1.2c-0.9,0.3-2.1,0.4-3.5,0.4c-2.7,0-4.6-0.5-5.7-1.4s-1.7-2.1-1.7-3.5C589,457.1,589,456.9,589,456.7z
			 M592.8,447.5c0,1.7,0.3,2.9,1,3.7c0.6,0.8,1.4,1.2,2.4,1.2c1,0,1.9-0.4,2.6-1.2c0.7-0.8,1.1-2,1.1-3.5c0-1.6-0.3-2.8-1-3.6
			s-1.5-1.2-2.6-1.2c-1,0-1.8,0.4-2.5,1.2C593.1,444.7,592.8,445.9,592.8,447.5z"/>
		<path class="st0" d="M608.8,437.8v-3.9h4.2v3.9H608.8z M608.8,455.7v-15.8h4.2v15.8H608.8z"/>
		<path class="st0" d="M627.1,450.7l4.2,0.7c-0.5,1.5-1.4,2.7-2.5,3.5c-1.2,0.8-2.6,1.2-4.3,1.2c-2.7,0-4.8-0.9-6.1-2.7
			c-1-1.4-1.6-3.2-1.6-5.4c0-2.6,0.7-4.7,2-6.1c1.4-1.5,3.1-2.2,5.2-2.2c2.3,0,4.2,0.8,5.6,2.3c1.4,1.5,2,3.9,1.9,7.1H621
			c0,1.2,0.4,2.2,1,2.9c0.6,0.7,1.4,1,2.4,1c0.7,0,1.2-0.2,1.6-0.5C626.5,452,626.9,451.5,627.1,450.7z M627.3,446.5
			c0-1.2-0.3-2.1-0.9-2.8c-0.6-0.6-1.3-0.9-2.2-0.9c-0.9,0-1.7,0.3-2.3,1s-0.9,1.6-0.9,2.7H627.3z"/>
		<path class="st0" d="M634.2,451.2l4.2-0.6c0.2,0.8,0.5,1.4,1.1,1.8c0.5,0.4,1.3,0.6,2.3,0.6c1.1,0,1.9-0.2,2.4-0.6
			c0.4-0.3,0.5-0.6,0.5-1.1c0-0.3-0.1-0.6-0.3-0.8c-0.2-0.2-0.7-0.4-1.4-0.5c-3.4-0.7-5.5-1.4-6.4-2c-1.2-0.9-1.9-2-1.9-3.5
			c0-1.4,0.5-2.5,1.6-3.4c1.1-0.9,2.8-1.4,5-1.4c2.2,0,3.8,0.4,4.8,1.1c1,0.7,1.8,1.7,2.2,3.1l-3.9,0.7c-0.2-0.6-0.5-1.1-1-1.4
			c-0.5-0.3-1.1-0.5-2-0.5c-1.1,0-1.9,0.2-2.4,0.5c-0.3,0.2-0.5,0.5-0.5,0.8c0,0.3,0.1,0.5,0.4,0.8c0.4,0.3,1.7,0.7,3.9,1.2
			s3.8,1.1,4.7,1.9c0.9,0.7,1.3,1.8,1.3,3.1c0,1.4-0.6,2.7-1.8,3.7c-1.2,1-3,1.6-5.4,1.6c-2.1,0-3.8-0.4-5.1-1.3
			C635.4,453.9,634.6,452.7,634.2,451.2z"/>
		<path class="st0" d="M674.8,453.1c-0.9,1-1.8,1.7-2.9,2.2c-1,0.5-2.2,0.7-3.4,0.7c-2.2,0-4-0.8-5.3-2.3c-1.1-1.2-1.6-2.6-1.6-4.1
			c0-1.3,0.4-2.6,1.3-3.6c0.9-1.1,2.2-2,3.9-2.9c-1-1.1-1.6-2-2-2.7c-0.3-0.7-0.5-1.4-0.5-2c0-1.3,0.5-2.4,1.5-3.4
			c1-1,2.3-1.4,3.9-1.4c1.5,0,2.7,0.5,3.6,1.4c0.9,0.9,1.4,2,1.4,3.3c0,2.1-1.4,3.8-4.1,5.3l3.9,5c0.4-0.9,0.8-1.9,1-3l2.8,0.6
			c-0.5,1.9-1.1,3.5-1.9,4.7c1,1.3,2.1,2.4,3.4,3.3l-1.8,2.1C677,455.5,675.9,454.5,674.8,453.1z M673.1,451l-4.9-6.1
			c-1.4,0.9-2.4,1.7-2.9,2.4c-0.5,0.7-0.8,1.5-0.8,2.2c0,0.9,0.4,1.8,1.1,2.7c0.7,1,1.7,1.4,3,1.4c0.8,0,1.6-0.2,2.5-0.7
			C671.9,452.4,672.6,451.8,673.1,451z M669.3,441.8c1.2-0.7,1.9-1.3,2.2-1.8c0.3-0.5,0.5-1.1,0.5-1.7c0-0.7-0.2-1.3-0.7-1.8
			c-0.5-0.5-1.1-0.7-1.8-0.7c-0.7,0-1.3,0.2-1.8,0.7c-0.5,0.5-0.7,1-0.7,1.7c0,0.3,0.1,0.7,0.3,1.1s0.4,0.8,0.8,1.2L669.3,441.8z"/>
		<path class="st0" d="M692.8,455.7v-21.8h16.1v3.7h-11.7v4.8h10.9v3.7h-10.9v5.9h12.2v3.7H692.8z"/>
		<path class="st0" d="M713.8,433.9h8c1.8,0,3.2,0.1,4.1,0.4c1.3,0.4,2.4,1,3.3,2c0.9,1,1.6,2.1,2.1,3.5c0.5,1.4,0.7,3.1,0.7,5.1
			c0,1.8-0.2,3.3-0.7,4.6c-0.5,1.6-1.3,2.9-2.3,3.8c-0.8,0.7-1.8,1.3-3.1,1.7c-1,0.3-2.3,0.5-3.9,0.5h-8.3V433.9z M718.2,437.6V452
			h3.3c1.2,0,2.1-0.1,2.7-0.2c0.7-0.2,1.3-0.5,1.8-0.9c0.5-0.4,0.9-1.1,1.2-2.1s0.4-2.3,0.4-4c0-1.7-0.1-3-0.4-3.9
			c-0.3-0.9-0.7-1.6-1.2-2.1c-0.5-0.5-1.2-0.8-2-1c-0.6-0.1-1.8-0.2-3.6-0.2H718.2z"/>
		<path class="st0" d="M736.6,455.7v-21.8h14.9v3.7H741v5.2h9.1v3.7H741v9.2H736.6z"/>
	</g>
	<path id="Sunzil" class="st0" d="M357.4,314.7c-7.5-5.8-18.3-8.8-31.3-8.8c-13,0-23.8,3-31.3,8.8c-7.5,5.8-11.8,14.3-11.9,25.7v73
		h25.7v-63.3c0-5.7,1.5-10.4,4.5-13.6c3-3.2,7.5-4.9,12.9-4.9h0c5.4,0,9.8,1.7,12.9,4.9c3,3.2,4.5,7.9,4.5,13.6v63.3h25.7v-73
		C369.2,329,364.9,320.5,357.4,314.7L357.4,314.7z M741.9,394.4c-1.1-1.1-4.3-0.4-10.6,2.4c0,0-0.1,0-0.1,0c-14.6,6-29,8.3-37.3,8
		c-39.5,0-57.5-23.9-64.8-53.4c4.9-7,10.9-16.6,17-27.4c0.6-1,1.2-1.9,1.7-2.9c1.4-2.5,2.6-4.7,3.6-6.9
		c12.7-23.8,25.1-51.4,29.4-71.5c0.1-0.5,0.2-1.1,0.3-1.6c-5.7-3.9-11.3-7.5-17-10.7c-0.9,5.3-2,11.1-3.4,17.6
		c-7,32.6-23.6,68.5-34.5,87.5c-2.9-23.3-0.7-48,2-65.9c6.9-45.7,24.1-77.9,32.2-76.1c5,1.1,6.9,7.5,5.9,20.6
		c5.9,3.5,11.7,7.2,17.2,11.2c2.5-30.3-6.7-51.7-19.6-51.2c-15.3,0.5-31.1,15.5-48,58.5c-19.4,49.2-8.6,108.6-5.3,122.6
		c0.3,1.3,0.3,1,0.8,2.7c-6.2,9.4-37.8,42-49.5,39.8c-8.1-1.5-9.5-13.4-9.1-29.2c0.4-15.8,3.6-48.1,5-55.3c1-5.5-2.3-7.4-8.8-9.1
		c-2-0.6-7.3-1.1-10.8,3.4c-0.5,0.5-1.1,1.4-1.7,2.9c-12.8,32.5-41.3,73-118.8,84.6c-2.6,0.4-6.3,0.6-1.7-5.4
		c2-2.6,43.9-47.1,52.6-58.9c3.8-4.4,13.1-16.5,3.7-21.2c-4.1-2-44.2-14.2-87.8,3.7c-8,3.7-7.3,10.2,0.5,8.5
		c10.6-2.3,36.2-3.9,43.2-4.1c12.5-0.3,25.1,0.5,17.2,15.1c-7.9,14.6-50,56.3-57.3,67.7c-5.1,8.1-7.2,15.3,13.2,15.9
		c19.7,0.5,87.7-0.8,132-79.2c-1.1,9.6-1.2,12.7-0.4,31.4c1.4,34.3,4.5,47.3,19.2,47.3c8.9,0,19.5-3.8,30.6-11.6
		c7.9-4.9,17.5-12.3,33.5-34c8.8,18.8,28.7,44.5,69.8,44.5c21.4,0,38.3-5.5,51.2-12.6C740.5,400,743.2,395.7,741.9,394.4
		L741.9,394.4z M159,340.4c-8.8-8.2-19.9-15.5-29-21.9c-6.1-4.3-11.3-8.1-14.4-11.8c-1.8-2.1-2.9-4.2-2.9-6.4c0-3.4,0.9-6.7,3.1-9.1
		c2.1-2.4,5.4-3.9,9.7-3.9h42.9v-26.2h-50.5c-8.4,0-17.8,3-24.9,9.5c-7.2,6.5-12.2,16.3-12.3,30.4c0,12.3,6.4,22.3,15.1,30.9
		c8.8,8.6,19.9,15.6,29,21.9c6.1,4.2,11.3,8,14.4,11.9c1.8,2.2,2.9,4.5,2.9,7c0,3.6-1.2,6.7-3.3,8.9c-2.1,2.2-5,3.4-8.2,3.4H81.1
		v28.4h50.5c16.7,0,27.2-6.1,33.6-14.8c6.5-8.7,8.9-20.2,8.9-30.8c0-5-1.6-9.8-4.3-14.4C167.1,348.9,163.4,344.5,159,340.4
		L159,340.4z M548.7,268.1c5.4,2.4,12.7,2,16.4-4.3c3.7-6.3,1.5-17-4.5-19c-6-2.1-14.3-1-16.9,7.2
		C541.1,260.1,544,266.1,548.7,268.1L548.7,268.1z M246.1,371.8c0,5.7-1.5,10.4-4.5,13.6c-3,3.2-7.4,4.9-12.9,4.9
		c-5.4,0-9.9-1.6-12.9-4.9c-3-3.2-4.5-7.9-4.5-13.6v-63.3h-25.8v73c0,11.4,4.3,19.9,11.9,25.7c7.5,5.8,18.3,8.8,31.3,8.8
		c13,0,23.8-3.1,31.3-8.8c7.5-5.8,11.8-14.3,11.9-25.7v-73h-25.7V371.8L246.1,371.8z"/>
	<path id="Rayon" class="st1" d="M343.7,269.5c44.1-32.5,136.7-86.5,237.3-68.7c13.1,2,26.9,5.4,42,10.8c1.3-3.5,5.6-11.4,7.4-14.8
		C547.9,165.1,442.6,178.1,343.7,269.5L343.7,269.5z M652,206.3c-1.2,1.7-6,10.1-7.4,14.1c45.5,21.1,93.5,60,126.4,128
		C753.3,287.3,709.6,235.4,652,206.3L652,206.3z"/>
</g>
</svg>
