<?xml version="1.0" encoding="utf-8"?>
<!-- Generator: Adobe Illustrator 25.1.0, SVG Export Plug-In . SVG Version: 6.00 Build 0)  -->
<svg version="1.1" id="Calque_1" xmlns="http://www.w3.org/2000/svg" xmlns:xlink="http://www.w3.org/1999/xlink" x="0px" y="0px"
	 width="110px" height="110px" viewBox="0 0 110 110" style="enable-background:new 0 0 110 110;" xml:space="preserve">
<style type="text/css">
	.st0{fill:#3655A2;}
	.st1{fill:#3C61AB;}
	.st2{fill:#EBEBEB;}
	.st3{fill:#FFFFFF;}
</style>
<polygon id="polygon2989" class="st0" points="55.3,110 15.7,99 6.9,0 103.8,0 95,99 "/>
<polygon id="polygon2991" class="st1" points="87.4,92.7 95,8.1 55.4,8.1 55.4,101.6 "/>
<polygon id="polygon2993" class="st2" points="27.1,44.8 28.2,57 55.4,57 55.4,44.8 "/>
<polygon id="polygon2995" class="st2" points="24.9,20.3 26,32.4 55.4,32.4 55.4,20.3 55.3,20.3 "/>
<polygon id="polygon2997" class="st2" points="55.4,76.3 55.3,76.3 41.8,72.7 40.9,63 34.4,63 28.8,63 30.4,82.1 55.3,89 55.4,89 
	"/>
<polygon id="polygon3005" class="st3" points="83.5,44.8 85.7,20.3 55.3,20.3 55.3,32.4 72.4,32.4 71.3,44.8 55.3,44.8 55.3,57 
	70.3,57 68.9,72.7 55.3,76.3 55.3,89 80.2,82.1 80.4,80 83.3,48.1 "/>
</svg>
