<svg version="1.1" id="Layer_1" xmlns="http://www.w3.org/2000/svg" xmlns:xlink="http://www.w3.org/1999/xlink" x="0px" y="0px"
	 width="100%" viewBox="0 0 1191 842" enable-background="new 0 0 1191 842" xml:space="preserve">

<path fill="#FFFFFF" opacity="1.000000" stroke="none"
	d="
M110.967072,333.008514
	C106.621834,315.581604 115.601990,304.216034 133.622772,305.419617
	C179.475037,308.482025 214.043457,330.143768 233.715286,371.699463
	C253.525345,413.547241 249.120605,454.615753 221.400528,491.899048
	C199.316330,521.602112 168.727432,536.543640 131.723846,537.855347
	C115.445366,538.432312 106.528297,526.553101 111.291275,510.277069
	C116.015884,502.338409 122.454422,499.153656 131.040970,498.857697
	C137.051208,498.650543 143.011047,496.981201 149.372025,495.970337
	C193.831787,482.695007 216.875412,437.926727 201.077759,394.727692
	C192.124512,370.244843 174.563934,354.195801 148.780960,347.162140
	C143.146072,346.037415 137.788666,344.302521 132.456436,344.376740
	C122.942932,344.509216 115.932938,340.956085 110.967072,333.008514
z"/>
<path fill="#FFFFFF" opacity="1.000000" stroke="none"
	d="
M322.015381,320.996765
	C322.036713,379.669250 322.058014,438.341705 322.067383,497.917786
	C322.024536,503.109741 321.689789,507.421844 322.023224,511.681671
	C322.827698,521.959351 319.662659,530.144409 310.467072,535.487488
	C302.008148,537.859619 294.278748,537.079834 287.958435,530.258545
	C284.243927,526.249634 282.876343,521.463501 282.880035,516.055359
	C282.923401,452.397980 282.897217,388.740601 282.920929,325.083221
	C282.924988,314.198334 289.083618,306.230347 298.736542,304.376709
	C308.579010,302.486603 317.178619,307.771301 321.306274,318.823669
	C321.576355,319.953583 321.795868,320.475189 322.015381,320.996765
z"/>
<path fill="#FFFFFF" opacity="1.000000" stroke="none"
	d="
M786.707886,345.740753
	C794.320984,344.411377 798.094543,347.513794 798.192322,355.215424
	C798.308533,364.375671 798.241882,373.541901 798.567566,382.694397
	C798.749084,387.796356 796.630615,391.095032 792.457520,393.793884
	C775.181274,404.966949 754.652832,404.340363 737.796997,391.918854
	C721.674622,380.037872 714.597046,359.007294 720.285278,339.884277
	C726.019409,320.606781 743.237549,306.764923 763.117981,305.500732
	C764.767334,305.395844 766.512817,305.277649 768.078796,305.684448
	C772.021301,306.708649 774.510681,309.264496 774.484314,313.516602
	C774.458069,317.750244 772.030884,320.335083 768.014954,321.259369
	C765.923767,321.740662 763.699158,321.610779 761.574036,321.981628
	C748.971497,324.181091 740.171936,331.339294 736.245972,343.400146
	C732.200623,355.827667 734.896667,367.297913 744.526001,376.375732
	C753.952576,385.262451 765.163696,387.186737 777.485291,383.232117
	C780.954041,382.118774 782.706848,380.376343 782.346741,376.420135
	C781.940430,371.955841 782.169373,367.433746 782.127930,362.025818
	C782.084961,355.521973 781.076172,349.643555 786.707886,345.740753
z"/>
<path fill="#FFFFFF" opacity="1.000000" stroke="none"
	d="
M896.534485,481.415375
	C901.617188,480.149414 905.956238,480.701630 908.315125,487.000366
	C908.581177,494.523376 908.798462,501.260132 909.015747,507.996857
	C908.980713,511.159821 908.652039,514.353088 908.974243,517.479248
	C909.570801,523.267090 906.877014,526.735229 902.146362,529.632141
	C882.101807,541.906921 855.728149,537.986145 840.269409,520.216248
	C825.068665,502.742889 824.440918,476.466705 839.382751,458.612335
	C848.369507,447.873779 859.984436,441.344849 874.323364,440.518097
	C880.552612,440.158905 884.659912,443.265076 884.883118,448.477966
	C885.099243,453.523987 881.745178,456.564636 875.437561,457.060852
	C862.281921,458.095673 852.630676,464.535309 847.602478,476.674255
	C842.751892,488.384735 844.471313,499.723969 852.808350,509.422852
	C861.418396,519.439392 872.517822,522.601440 885.320129,519.416199
	C892.425171,517.648376 892.653259,517.204895 892.576111,509.966522
	C892.554810,507.967194 892.522583,505.967987 892.632446,503.151337
	C892.747070,499.217346 892.840759,496.094482 892.674194,492.985596
	C892.438477,488.585754 892.723511,484.432312 896.534485,481.415375
z"/>
<path fill="#FFFFFF" opacity="1.000000" stroke="none"
	d="
M952.901489,376.954163
	C950.052551,383.144501 947.178528,389.323517 944.362183,395.528656
	C941.948547,400.846436 937.710815,402.939606 933.263000,400.931763
	C928.805603,398.919586 927.161621,394.299927 929.472412,389.078918
	C940.992981,363.049713 952.502625,337.013702 964.387939,311.151001
	C965.540588,308.642853 969.016846,306.312225 971.819153,305.673065
	C975.499756,304.833466 978.184875,307.583252 979.794556,311.126038
	C991.567566,337.037476 1003.432190,362.907318 1015.188904,388.826141
	C1017.634827,394.218353 1015.954285,399.143402 1011.363708,401.049255
	C1006.955505,402.879425 1002.873474,400.767426 1000.371216,395.328247
	C997.659180,389.432922 994.971680,383.526276 992.020020,376.988586
	C989.201233,370.894531 986.636108,365.436462 984.000061,359.624207
	C980.139832,350.929535 976.350586,342.589050 971.951416,332.906189
	C967.588989,343.166992 963.797791,352.084106 959.739014,361.225220
	C957.281433,366.617554 955.091492,371.785858 952.901489,376.954163
z"/>
<path fill="#FFFFFF" opacity="1.000000" stroke="none"
	d="
M758.898499,512.957031
	C756.195740,518.850037 753.505920,524.749084 750.786377,530.634338
	C748.317627,535.976990 744.132751,538.013855 739.681885,536.078857
	C735.126465,534.098450 733.595154,529.657166 735.958435,524.312927
	C747.466919,498.289062 759.065186,472.304993 770.603516,446.294342
	C772.169006,442.765289 774.718262,440.563873 778.613403,440.591248
	C782.571838,440.619019 784.806396,443.085022 786.385925,446.587524
	C797.470581,471.166931 808.652527,495.702484 819.797180,520.254822
	C820.553833,521.921875 821.329895,523.585327 821.977051,525.295776
	C823.710938,529.878601 821.950684,534.388672 817.809570,536.139038
	C813.875305,537.802002 809.421021,536.188232 807.330627,531.921631
	C804.329590,525.796082 801.626770,519.524353 798.515686,512.692505
	C795.835510,507.044128 793.436279,502.018372 791.026001,496.623291
	C787.057007,487.412567 783.099182,478.571167 779.141296,469.729767
	C778.685425,469.719666 778.229614,469.709534 777.773743,469.699432
	C773.956055,478.768555 770.138367,487.837708 766.062622,497.104309
	C763.502502,502.520203 761.200500,507.738617 758.898499,512.957031
z"/>
<path fill="#FFFFFF" opacity="1.000000" stroke="none"
	d="
M712.150024,520.552246
	C716.693787,522.272278 718.858948,525.563721 717.747437,530.312622
	C716.677124,534.885010 713.191650,536.507202 708.702942,536.493713
	C695.723999,536.454712 682.744385,536.548767 669.766113,536.447937
	C663.536072,536.399536 660.464539,533.394348 660.447266,527.244690
	C660.374268,501.286804 660.364258,475.328430 660.453552,449.370667
	C660.474609,443.238373 663.650635,440.235931 669.815552,440.200531
	C682.794128,440.126038 695.773682,440.142181 708.752441,440.197479
	C713.992065,440.219818 717.238037,442.580231 717.866028,446.872925
	C718.565247,451.653107 716.576233,454.933228 711.080688,456.393555
	C700.286987,456.313843 690.294800,456.334137 680.305176,456.185303
	C677.353394,456.141327 676.147522,457.103607 676.163452,460.204468
	C676.260437,479.023224 676.254761,497.842896 676.167603,516.661743
	C676.153809,519.636536 677.112244,520.846375 680.189941,520.794495
	C690.841675,520.614990 701.496399,520.618469 712.150024,520.552246
z"/>
<path fill="#FFFFFF" opacity="1.000000" stroke="none"
	d="
M1043.191528,497.061798
	C1043.132568,504.048767 1043.073486,511.035736 1043.097046,518.875122
	C1043.897339,520.040710 1044.615845,520.628113 1045.332642,520.626221
	C1056.264282,520.597778 1067.195679,520.492310 1078.127197,520.404907
	C1082.563110,522.035522 1085.078003,524.977539 1084.259888,529.918396
	C1083.545776,534.230408 1080.206421,536.445740 1074.472534,536.464966
	C1061.812500,536.507507 1049.152100,536.525208 1036.492310,536.458374
	C1029.946045,536.423828 1026.929443,533.473938 1026.917358,527.025146
	C1026.868896,501.205292 1026.864868,475.385193 1026.923340,449.565338
	C1026.937500,443.295807 1029.926636,440.248474 1036.046509,440.208710
	C1049.039307,440.124207 1062.033081,440.203644 1075.026245,440.168060
	C1079.746094,440.155151 1083.152954,441.931061 1084.236450,446.800110
	C1085.236084,451.292389 1083.107300,454.401154 1077.040771,456.471252
	C1066.326050,456.395905 1056.411255,456.293915 1046.498169,456.381287
	C1045.379517,456.391174 1044.270386,457.469910 1043.156860,458.053040
	C1043.112671,465.042908 1043.068481,472.032776 1042.999023,479.941925
	C1043.046509,486.261414 1043.119019,491.661621 1043.191528,497.061798
z"/>
<path fill="#FFFFFF" opacity="1.000000" stroke="none"
	d="
M601.739380,317.292236
	C600.324829,308.786163 603.751709,304.920898 612.216736,305.474579
	C637.045288,307.098602 656.645142,327.663696 656.989624,352.452515
	C657.340881,377.727142 638.077026,399.342743 613.229065,401.555359
	C605.971619,402.201569 603.394287,400.818115 601.342285,394.705780
	C600.914062,393.430206 601.477661,391.821686 601.875366,389.802673
	C605.026550,387.863434 607.817810,386.308838 610.770752,385.175568
	C612.742920,384.418671 614.945251,384.261292 617.408875,383.865021
	C619.330872,383.338135 620.938721,382.891968 622.438232,382.208130
	C634.674072,376.628174 642.397095,363.145966 640.784973,350.268982
	C639.031555,336.264282 629.670898,325.499695 616.703491,322.680725
	C611.349731,321.170380 605.335266,322.681152 601.739380,317.292236
z"/>
<path fill="#FFFFFF" opacity="1.000000" stroke="none"
	d="
M902.225403,321.525299
	C902.116272,343.490784 902.006714,365.456268 901.898621,387.421753
	C901.889648,389.252716 901.966980,391.087708 901.872559,392.914001
	C901.605957,398.068878 898.548706,401.459534 894.084106,401.649567
	C889.546326,401.842743 886.074280,398.315857 885.658386,393.009003
	C885.541687,391.519165 885.599487,390.014648 885.599304,388.516846
	C885.596802,367.876251 885.503296,347.234833 885.682190,326.595795
	C885.716187,322.670685 884.622925,321.233490 880.628174,321.496246
	C876.155884,321.790436 871.632812,321.720581 867.156494,321.429504
	C862.734375,321.141998 859.483093,317.686615 859.578857,313.630890
	C859.683167,309.215179 862.161682,305.810455 866.392090,305.708160
	C876.827942,305.455902 887.283447,306.011810 898.275269,306.663147
	C903.443787,311.074585 901.133972,316.700989 902.225403,321.525299
z"/>
<path fill="#FFFFFF" opacity="1.000000" stroke="none"
	d="
M605.635010,535.739319
	C597.325500,537.494568 593.555176,534.561340 593.542297,526.134216
	C593.503723,500.976227 593.526428,475.818176 593.532227,450.660156
	C593.532471,449.662048 593.532837,448.654938 593.656067,447.667358
	C594.211243,443.217316 597.413330,440.231354 601.592834,440.210876
	C605.776978,440.190369 609.052673,443.113068 609.539368,447.647247
	C609.822449,450.284912 609.678284,452.971252 609.680786,455.635742
	C609.700500,476.794983 609.709412,497.954224 609.720581,520.020996
	C609.629272,526.216064 610.770447,531.843201 605.635010,535.739319
z"/>
<path fill="#FFFFFF" opacity="1.000000" stroke="none"
	d="
M1038.881348,401.490295
	C1034.398438,399.677338 1032.925659,396.203156 1032.939453,391.563568
	C1033.015137,366.093079 1032.952515,340.622223 1032.992920,315.151550
	C1033.002563,309.009857 1036.286255,305.262909 1041.250610,305.423035
	C1046.083740,305.578918 1049.084961,309.147003 1049.102661,315.063568
	C1049.172119,338.202759 1049.180420,361.342102 1049.192139,385.252594
	C1048.880981,391.318604 1050.154175,397.050171 1044.997070,400.987305
	C1044.567871,401.079895 1044.138794,401.172455 1043.008789,401.293091
	C1041.165649,401.377533 1040.023560,401.433929 1038.881348,401.490295
z"/>
<path fill="#FFFFFF" opacity="1.000000" stroke="none"
	d="
M939.895752,525.405212
	C930.197205,519.458923 927.018921,509.752167 926.605469,499.448334
	C925.931641,482.656891 926.319336,465.819031 926.433350,449.001953
	C926.470459,443.525055 929.870300,440.156616 934.613037,440.203522
	C939.328247,440.250122 942.619873,443.653473 942.681519,449.134674
	C942.816345,461.122375 942.950317,473.117920 942.664734,485.100220
	C942.408081,495.869110 942.464905,506.423462 949.789429,516.040161
	C948.432434,523.228210 946.986023,524.490723 939.895752,525.405212
z"/>
<path fill="#FFFFFF" opacity="1.000000" stroke="none"
	d="
M981.991638,515.997314
	C982.670837,514.691345 983.113647,513.170898 984.070007,512.116394
	C988.241455,507.517120 989.605469,502.028961 989.604004,496.030701
	C989.600403,481.390778 989.598816,466.750824 989.612366,452.110901
	C989.613953,450.450073 989.516663,448.752808 989.811340,447.135559
	C990.600525,442.805023 993.325134,440.298035 997.716736,440.278961
	C1002.148376,440.259705 1004.941467,442.834381 1005.554443,447.158661
	C1005.994446,450.262299 1005.783813,453.464508 1005.786255,456.622772
	C1005.796875,470.430878 1006.013428,484.244324 1005.695923,498.045319
	C1005.454590,508.533997 1002.239136,517.972900 992.937378,524.956543
	C985.653809,524.861389 983.887756,523.297058 981.991638,515.997314
z"/>
<path fill="#FFFFFF" opacity="1.000000" stroke="none"
	d="
M310.859619,535.749817
	C319.662659,530.144409 322.827698,521.959351 322.023224,511.681671
	C321.689789,507.421844 322.024536,503.109741 322.196625,498.363953
	C335.475647,498.046326 348.613434,498.186127 361.988770,498.755188
	C356.428864,502.082550 352.366058,506.419556 350.919586,512.896606
	C348.674591,522.949036 353.568054,529.722717 361.214264,535.220642
	C359.968201,535.797180 358.726044,536.865051 357.475403,536.875061
	C343.172211,536.989868 328.867676,536.964050 314.563812,536.900269
	C313.458618,536.895386 312.355988,536.321533 310.859619,535.749817
z"/>
<path fill="#FFFFFF" opacity="1.000000" stroke="none"
	d="
M111.070786,413.406281
	C116.995720,404.857758 124.281975,400.094543 134.825760,402.996735
	C140.658829,404.602264 144.456406,408.547852 147.559784,414.286224
	C147.872223,419.577759 147.866013,424.265503 147.859818,428.953247
	C143.383896,436.604370 137.257278,441.592651 127.863770,440.989075
	C120.473801,440.514252 115.205368,436.651245 111.333366,430.146393
	C108.489059,424.601044 107.783318,419.202026 111.070786,413.406281
z"/>
<path fill="#FFFFFF" opacity="1.000000" stroke="none"
	d="
M361.623779,535.344849
	C353.568054,529.722717 348.674591,522.949036 350.919586,512.896606
	C352.366058,506.419556 356.428864,502.082550 362.468140,498.951233
	C368.076294,499.101471 373.879425,498.319031 378.710815,500.129639
	C386.832520,503.173340 390.763275,512.323792 389.151855,520.741211
	C387.492401,529.409607 380.360107,536.068604 371.562775,536.596863
	C368.420197,536.785522 365.211731,535.876831 361.623779,535.344849
z"/>
<path fill="#FFFFFF" opacity="1.000000" stroke="none"
	d="
M839.255798,332.684937
	C839.452026,334.496979 839.814392,336.308624 839.818726,338.121124
	C839.861694,355.923126 839.869324,373.725311 839.832581,391.527313
	C839.819519,397.859375 836.903870,401.516327 831.956116,401.659088
	C826.928894,401.804138 823.654846,397.927338 823.632935,391.441101
	C823.572815,373.639191 823.568176,355.836761 823.670837,338.035248
	C823.682922,335.947479 824.502319,333.864410 825.414062,331.323059
	C831.881775,327.175171 833.930969,327.453705 839.255798,332.684937
z"/>
<path fill="#FFFFFF" opacity="1.000000" stroke="none"
	d="
M695.697998,332.434845
	C695.915527,337.246277 696.295227,342.056885 696.320679,346.869324
	C696.400879,362.031036 696.419983,377.193970 696.315491,392.355408
	C696.265930,399.550873 690.275879,403.992035 684.898071,400.539734
	C682.656006,399.100464 680.523499,395.554016 680.482300,392.932068
	C680.175842,373.447174 680.407715,353.953827 680.754272,333.789001
	C685.610107,327.199768 689.514282,327.018677 695.697998,332.434845
z"/>
<path fill="#FFFFFF" opacity="1.000000" stroke="none"
	d="
M981.616760,515.976257
	C983.887756,523.297058 985.653809,524.861389 992.650818,525.143005
	C989.775879,530.854736 978.612000,536.363525 972.264160,534.747437
	C975.297668,528.105591 974.682007,525.535828 969.006897,520.923218
	C973.085205,519.267212 977.163574,517.611206 981.616760,515.976257
z"/>
<path fill="#FFFFFF" opacity="1.000000" stroke="none"
	d="
M1043.647705,497.037140
	C1043.119019,491.661621 1043.046509,486.261414 1043.082397,480.399902
	C1049.349854,479.672424 1055.507690,479.363129 1061.669067,479.182220
	C1062.711670,479.151672 1063.770508,479.673889 1064.525635,480.351990
	C1057.362549,480.958313 1053.696655,484.194763 1055.041138,489.653015
	C1055.638916,492.079803 1058.073730,494.054169 1059.674683,496.233887
	C1054.484497,496.493408 1049.294189,496.752960 1043.647705,497.037140
z"/>
<path fill="#FFFFFF" opacity="1.000000" stroke="none"
	d="
M1045.289551,401.283203
	C1050.154175,397.050171 1048.880981,391.318604 1049.292114,385.668701
	C1054.210693,385.359283 1059.009888,385.404877 1064.068604,385.929443
	C1059.279541,391.785034 1059.454468,395.634918 1064.994507,401.074158
	C1058.523682,401.242493 1052.052856,401.410797 1045.289551,401.283203
z"/>
<path fill="#FFFFFF" opacity="1.000000" stroke="none"
	d="
M939.954346,525.725830
	C946.986023,524.490723 948.432434,523.228210 949.999756,516.326172
	C954.247437,517.446411 958.374817,518.931763 962.537354,520.951538
	C957.320374,525.700256 956.933594,527.741882 960.066956,534.710571
	C959.253601,535.112305 958.290955,536.024597 957.649963,535.837097
	C951.051086,533.907043 944.228088,532.291992 939.954346,525.725830
z"/>
<path fill="#FFFFFF" opacity="1.000000" stroke="none"
	d="
M786.220276,345.530670
	C781.076172,349.643555 782.084961,355.521973 782.045898,361.564453
	C777.156433,361.844635 772.354980,361.675201 767.442749,360.902649
	C772.838501,354.888763 772.576599,351.017487 766.342407,345.673340
	C772.805847,345.555756 779.269226,345.438171 786.220276,345.530670
z"/>
<path fill="#FFFFFF" opacity="1.000000" stroke="none"
	d="
M606.065552,535.866089
	C610.770447,531.843201 609.629272,526.216064 609.802856,520.486633
	C614.848999,520.157715 619.811768,520.270752 625.024353,520.822510
	C619.862671,526.291992 619.722961,529.374207 624.633057,535.400940
	C618.587402,535.598267 612.541748,535.795593 606.065552,535.866089
z"/>
<path fill="#FFFFFF" opacity="1.000000" stroke="none"
	d="
M896.039734,481.279205
	C892.723511,484.432312 892.438477,488.585754 892.674194,492.985596
	C892.840759,496.094482 892.747070,499.217346 892.571899,502.692749
	C891.712219,501.279022 891.050293,499.506500 890.197205,497.221832
	C886.497620,497.054382 882.398254,496.868835 878.020630,496.228394
	C882.928589,490.600861 883.036682,487.968628 878.319458,481.721161
	C884.061279,481.528442 889.803162,481.335724 896.039734,481.279205
z"/>
<path fill="#FFFFFF" opacity="1.000000" stroke="none"
	d="
M902.743652,321.646667
	C901.133972,316.700989 903.443787,311.074585 898.652466,306.771881
	C904.224731,306.294495 909.964172,306.128693 915.921021,306.497559
	C911.907227,312.332764 911.842041,314.851379 915.744080,319.432404
	C916.348083,320.141541 916.776306,321.000366 917.285889,321.789917
	C912.611206,321.782623 907.936523,321.775299 902.743652,321.646667
z"/>
<path fill="#FFFFFF" opacity="1.000000" stroke="none"
	d="
M877.988831,481.621338
	C883.036682,487.968628 882.928589,490.600861 877.543823,496.047668
	C869.661499,497.882538 863.835144,492.864319 865.824829,486.399261
	C867.265015,481.719666 871.362061,480.030853 877.988831,481.621338
z"/>
<path fill="#FFFFFF" opacity="1.000000" stroke="none"
	d="
M825.230835,318.940796
	C825.146606,315.654510 824.081360,311.966553 825.221680,309.181732
	C826.712219,305.541687 830.684143,304.414856 834.558105,305.987976
	C839.321472,307.922302 840.576660,311.754242 839.049927,317.134277
	C833.960999,322.458954 831.746155,322.661255 825.230835,318.940796
z"/>
<path fill="#FFFFFF" opacity="1.000000" stroke="none"
	d="
M1065.322510,401.115173
	C1059.454468,395.634918 1059.279541,391.785034 1064.543701,386.141296
	C1070.759033,384.596558 1074.288696,385.860626 1076.104126,389.937134
	C1077.971313,394.129669 1076.464722,397.977417 1071.003906,401.175171
	C1069.132935,401.399841 1067.997070,401.534637 1066.861328,401.669434
	C1066.457764,401.498352 1066.054077,401.327271 1065.322510,401.115173
z"/>
<path fill="#FFFFFF" opacity="1.000000" stroke="none"
	d="
M625.024414,535.531616
	C619.722961,529.374207 619.862671,526.291992 625.504761,521.012695
	C628.940369,521.532227 632.670410,521.531799 635.212769,523.269287
	C638.171265,525.291138 638.149231,529.150940 636.272827,532.331482
	C633.741760,536.621704 629.825439,537.121094 625.024414,535.531616
z"/>
<path fill="#FFFFFF" opacity="1.000000" stroke="none"
	d="
M680.224426,317.665649
	C680.079590,314.186646 678.840820,310.527557 682.429993,307.806244
	C685.961731,305.128479 689.617981,304.279480 693.254395,307.184418
	C697.041565,310.209778 697.185608,314.131348 694.608276,318.726959
	C688.984863,323.353516 684.575317,320.779846 680.224426,317.665649
z"/>
<path fill="#FFFFFF" opacity="1.000000" stroke="none"
	d="
M782.950623,511.791687
	C779.933594,511.764893 776.916565,511.738098 773.478943,511.164978
	C768.862854,506.457886 769.855042,502.291412 773.430298,497.993713
	C776.761414,497.661316 779.706787,497.457672 782.849365,497.541046
	C787.876038,503.083496 787.856384,505.949280 782.950623,511.791687
z"/>
<path fill="#FFFFFF" opacity="1.000000" stroke="none"
	d="
M601.677124,350.094299
	C607.116516,344.160065 609.423462,343.835907 615.627136,348.327454
	C615.988953,352.189789 615.885559,355.557617 615.782227,358.925476
	C609.239624,362.644348 607.128540,362.454712 602.004639,357.484192
	C601.706970,354.995575 601.657898,352.733002 601.677124,350.094299
z"/>
<path fill="#FFFFFF" opacity="1.000000" stroke="none"
	d="
M765.976501,345.581940
	C772.576599,351.017487 772.838501,354.888763 767.160034,360.596130
	C764.398254,360.751709 761.511047,361.290558 759.285217,360.317108
	C755.534180,358.676636 754.278625,355.138489 755.369446,351.130951
	C756.487427,347.023682 760.307739,345.018250 765.976501,345.581940
z"/>
<path fill="#FFFFFF" opacity="1.000000" stroke="none"
	d="
M976.371826,376.424011
	C973.723938,376.478943 971.076111,376.533905 967.850342,376.199585
	C962.830688,370.615814 962.796997,368.256195 967.455261,362.132233
	C970.864502,362.082794 973.897156,362.140808 977.074341,362.518188
	C981.288269,368.351257 981.139221,370.742462 976.371826,376.424011
z"/>
<path fill="#FFFFFF" opacity="1.000000" stroke="none"
	d="
M917.691284,321.847595
	C916.776306,321.000366 916.348083,320.141541 915.744080,319.432404
	C911.842041,314.851379 911.907227,312.332764 916.315186,306.725891
	C917.469727,306.289368 918.444153,306.092133 919.426208,306.039917
	C925.587646,305.712463 928.875122,308.153534 929.075073,313.163727
	C929.274780,318.166382 925.068298,322.095001 919.572266,322.027802
	C919.079956,322.021820 918.588501,321.947693 917.691284,321.847595
z"/>
<path fill="#FFFFFF" opacity="1.000000" stroke="none"
	d="
M693.889221,496.352722
	C687.086548,491.350159 686.576050,487.378326 691.843201,481.539490
	C692.829407,481.169220 693.643738,481.043335 694.461853,481.008820
	C700.920471,480.736084 704.326538,483.288757 704.329163,488.382385
	C704.331726,493.481781 700.359924,496.656006 693.889221,496.352722
z"/>
<path fill="#FFFFFF" opacity="1.000000" stroke="none"
	d="
M1060.033203,496.310303
	C1058.073730,494.054169 1055.638916,492.079803 1055.041138,489.653015
	C1053.696655,484.194763 1057.362549,480.958313 1064.650879,480.695312
	C1069.273682,482.609070 1071.651123,485.677704 1070.414307,490.497467
	C1069.319946,494.762634 1065.688354,496.774261 1060.033203,496.310303
z"/>
<path fill="#FFFFFF" opacity="1.000000" stroke="none"
	d="
M960.403137,534.872314
	C956.933594,527.741882 957.320374,525.700256 962.784241,521.216003
	C964.713074,520.928894 966.430176,520.911743 968.577148,520.908936
	C974.682007,525.535828 975.297668,528.105591 972.062134,534.419189
	C968.278076,537.098083 964.547119,537.664734 960.403137,534.872314
z"/>
<path fill="#FFFFFF" opacity="1.000000" stroke="none"
	d="
M680.182556,318.154846
	C684.575317,320.779846 688.984863,323.353516 694.483032,319.065857
	C695.196899,323.126648 695.554626,327.295227 695.805176,331.949310
	C689.514282,327.018677 685.610107,327.199768 680.793640,333.362732
	C680.413147,328.621735 680.276917,323.632874 680.182556,318.154846
z"/>
<path fill="#FFFFFF" opacity="1.000000" stroke="none"
	d="
M783.222168,512.118042
	C787.856384,505.949280 787.876038,503.083496 783.315430,497.454376
	C786.068665,497.051361 788.552856,497.021973 791.037109,496.992615
	C793.436279,502.018372 795.835510,507.044128 798.272522,512.438477
	C793.371460,512.686157 788.432617,512.565247 783.222168,512.118042
z"/>
<path fill="#FFFFFF" opacity="1.000000" stroke="none"
	d="
M976.861206,376.598358
	C981.139221,370.742462 981.288269,368.351257 977.304443,362.210022
	C979.617004,361.047791 981.843994,360.513092 984.070923,359.978394
	C986.636108,365.436462 989.201233,370.894531 991.788208,376.711792
	C986.990234,376.971558 982.170410,376.872131 976.861206,376.598358
z"/>
<path fill="#FFFFFF" opacity="1.000000" stroke="none"
	d="
M824.880615,319.184448
	C831.746155,322.661255 833.960999,322.458954 838.973389,317.512268
	C839.380615,322.112610 839.524536,326.910492 839.462158,332.196655
	C833.930969,327.453705 831.881775,327.175171 825.549072,330.961182
	C824.988281,327.179657 824.759277,323.303864 824.880615,319.184448
z"/>
<path fill="#FFFFFF" opacity="1.000000" stroke="none"
	d="
M773.044556,498.122559
	C769.855042,502.291412 768.862854,506.457886 773.156006,510.919678
	C770.737610,511.797821 768.244568,512.536560 765.697876,512.899048
	C763.782349,513.171753 761.798157,512.961792 759.371460,512.961853
	C761.200500,507.738617 763.502502,502.520203 766.527954,497.126892
	C769.182434,497.342163 771.113464,497.732361 773.044556,498.122559
z"/>
<path fill="#FFFFFF" opacity="1.000000" stroke="none"
	d="
M967.078674,362.239685
	C962.796997,368.256195 962.830688,370.615814 967.460327,376.103149
	C963.049194,376.593567 958.450378,376.791168 953.376526,376.971466
	C955.091492,371.785858 957.281433,366.617554 960.165405,361.229279
	C962.932495,361.419434 965.005554,361.829559 967.078674,362.239685
z"/>
<path fill="#FFFFFF" opacity="1.000000" stroke="none"
	d="
M1077.941162,520.076050
	C1067.195679,520.492310 1056.264282,520.597778 1045.332642,520.626221
	C1044.615845,520.628113 1043.897339,520.040710 1043.182861,519.332642
	C1053.113892,518.978027 1063.042114,518.988647 1072.969604,519.088318
	C1074.566772,519.104370 1076.160156,519.517578 1077.941162,520.076050
z"/>
<path fill="#FFFFFF" opacity="1.000000" stroke="none"
	d="
M1043.614014,458.027283
	C1044.270386,457.469910 1045.379517,456.391174 1046.498169,456.381287
	C1056.411255,456.293915 1066.326050,456.395905 1076.688721,456.616364
	C1075.441162,457.166992 1073.749390,457.845123 1072.048340,457.869293
	C1062.723877,458.001923 1053.397217,457.974213 1043.614014,458.027283
z"/>
<path fill="#FFFFFF" opacity="1.000000" stroke="none"
	d="
M909.307983,507.701294
	C908.798462,501.260132 908.581177,494.523376 908.496704,487.325989
	C909.064514,488.979279 909.823486,491.086365 909.868408,493.208557
	C909.968445,497.936920 909.711609,502.672852 909.307983,507.701294
z"/>
<path fill="#FFFFFF" opacity="1.000000" stroke="none"
	d="
M1066.998291,401.937622
	C1067.997070,401.534637 1069.132935,401.399841 1070.692139,401.355164
	C1069.788696,401.698792 1068.461914,401.952271 1066.998291,401.937622
z"/>
<path fill="#FFFFFF" opacity="1.000000" stroke="none"
	d="
M1038.985352,401.779236
	C1040.023560,401.433929 1041.165649,401.377533 1042.718994,401.452576
	C1041.783325,401.745392 1040.436279,401.906769 1038.985352,401.779236
z"/>
<path fill="#FFFFFF" opacity="1.000000" stroke="none"
	d="
M322.237671,320.872925
	C321.795868,320.475189 321.576355,319.953583 321.477356,319.156647
	C321.885254,319.503906 322.172607,320.126495 322.237671,320.872925
z"/>
</svg>
