<svg height="41" viewBox="0 0 181 41" width="181" xmlns="http://www.w3.org/2000/svg"><path d="m26.1261261 2.03603604c-.7612597-1.26341454-2.1285671-2.03588652-3.6036036-2.03588652-1.4750364 0-2.8423439.77247198-3.6036036 2.03588652l-5.9279279 10.15315316c9.2151017 4.6007066 15.3009129 13.7414236 15.990991 24.018018h-4.1621622c-.6887628-8.8084235-5.9870602-16.5947959-13.9279279-20.4684685l-5.48648649 9.4864865c4.45847277 1.9995586 7.59218349 6.1314393 8.31531529 10.963964h-9.55855854c-.23029139-.0162897-.43686672-.1475387-.54944778-.3490951s-.11600643-.4462765-.00911078-.6509049l2.64864865-4.5045045c-.89735472-.7486973-1.92292409-1.3286324-3.02702702-1.7117117l-2.62162163 4.5045045c-.55129079.9456017-.70056251 2.0727177-.4144249 3.1292258.28613762 1.0565081.9838068 1.9542443 1.93694743 2.4923958.62170877.3502925 1.32244727.5363293 2.03603603.5405405h13.09009014c.4944751-6.1016774-2.2395025-12.0173215-7.2072073-15.5945946l2.0810811-3.6036036c6.2714114 4.3073576 9.8000612 11.6078941 9.2792793 19.1981982h11.0900901c.5255751-11.500884-5.1056298-22.4132738-14.7837838-28.6486486l4.2072072-7.20720722c.1951305-.32693886.6173083-.43549885.945946-.24324324.4774774.26126126 18.2792792 31.32432436 18.6126126 31.68468466.1195323.2143325.1152119.4762468-.0113243.6865203-.1265363.2102735-.3559338.3367432-.6012883.3314977h-4.2882883c.054054 1.1471472.054054 2.2912913 0 3.4325212h4.3063063c1.1045113.007141 2.1660092-.4278095 2.9478791-1.207987s1.2191195-1.8407305 1.2143227-2.9452549c.0004966-.7222729-.1923677-1.4315159-.5585982-2.054054zm85.8738739 23.44144146-13.2972973-17.17117119h-3.3153153v23.01801799h3.3603603v-17.6396396l13.6756753 17.6396396h2.936937v-23.01801799h-3.36036zm-33.4864865-4.2702703h11.9189189v-2.990991h-11.9279279v-6.9279279h13.4504505v-2.990991h-16.8738739v23.027027h17.045045v-2.990991h-13.6216216zm-14.018018-2.9189189c-4.6396396-1.1171171-5.9369369-2-5.9369369-4.1441442 0-1.9279279 1.7027027-3.2342342 4.2432432-3.2342342 2.3136268.0677607 4.5451521.8726249 6.3693694 2.2972973l1.8018018-2.5495495c-2.3094027-1.81037377-5.1743618-2.76536012-8.1081081-2.70270275-4.5585586 0-7.7387388 2.70270275-7.7387388 6.54954955 0 4.1441441 2.7027027 5.5765766 7.6216216 6.7747748 4.3783784 1.009009 5.7207208 1.9459459 5.7207208 4.045045s-1.8018018 3.3963964-4.5855856 3.3963964c-2.7714433-.0126956-5.438206-1.0601229-7.4774775-2.9369369l-2.027027 2.4234234c2.6120112 2.2443641 5.9435921 3.4753225 9.3873874 3.4684969 4.9369369 0 8.1081081-2.6576861 8.1081081-6.7657942-.0270271-3.4774775-2.0810811-5.3423423-7.3783784-6.6216216zm111.8108105-9.98198199-6.927928 10.81081079-6.882883-10.81081079h-4.018018l9.090091 13.91891889v9.1081081h3.459459v-9.2162162l9.153153-13.81081079zm-58.225225 3.11711709h7.540541v19.9099099h3.459459v-19.9099099h7.540541v-3.11711709h-18.531532zm34.540541 10.9189189c3.477477-.9639639 5.405405-3.3963964 5.405405-6.8738738 0-4.4234235-3.234234-7.20720724-8.45045-7.20720724h-10.234235v23.05405404h3.423424v-8.2702703h5.810811l5.837837 8.2882883h4l-6.306306-8.8468468zm-9.864865-2.2522522v-8.7387387h6.459459c3.36937 0 5.297298 1.5945945 5.297298 4.3603603s-2.063064 4.3783784-5.261262 4.3783784z" fill="#362d59" transform="translate(0 .711836)"/></svg>