<?xml version="1.0" encoding="utf-8"?>
<!-- Generator: Adobe Illustrator 25.2.0, SVG Export Plug-In . SVG Version: 6.00 Build 0)  -->
<svg version="1.1" id="Calque_1" xmlns="http://www.w3.org/2000/svg" xmlns:xlink="http://www.w3.org/1999/xlink" x="0px" y="0px"
	 width="289px" height="265px" viewBox="0 0 289 265" style="enable-background:new 0 0 289 265;" xml:space="preserve">
<style type="text/css">
	.st0{fill-rule:evenodd;clip-rule:evenodd;fill:#1E7695;}
	.st1{fill-rule:evenodd;clip-rule:evenodd;fill:#0D3A5A;}
	.st2{fill-rule:evenodd;clip-rule:evenodd;fill:#2ECCCB;}
</style>
<g id="Home">
	<g id="valeurs" transform="translate(-380.000000, -5029.000000)">
		<rect id="Rectangle-Copy" x="380" y="5029" class="st0" width="289" height="265"/>
	</g>
</g>
<g id="Home_1_">
	<g id="valeurs_1_" transform="translate(-439.000000, -5077.000000)">
		<circle id="Oval" class="st1" cx="583" cy="5209" r="84.5"/>
	</g>
</g>
<g id="Home_2_">
	<g id="valeurs_2_" transform="translate(-487.000000, -5111.000000)">
		<path id="Combined-Shape" class="st2" d="M664.4,5219.1c1.3-0.4,2.7,0.4,3.1,1.8s-0.4,2.7-1.8,3.1l0,0l-28.2,7.4
			c-2.3,0.6-4,2.7-4,5.2l0,0v15.8l17.2,36.3c0.6,1.2,0.1,2.7-1.2,3.3c-1.2,0.6-2.7,0.1-3.3-1.2l0,0l-15.2-32.1l-15.2,32.1
			c-0.6,1.2-2.1,1.8-3.3,1.2c-1.2-0.6-1.8-2.1-1.2-3.3l0,0l17.2-36.3v-15.8c0-2.4-1.6-4.5-4-5.2l0,0l-28.1-7.4
			c-1.3-0.4-2.1-1.7-1.8-3.1s1.7-2.1,3.1-1.8l0,0l28.2,7.4c2.1,0.6,3.9,1.8,5.2,3.3c1.3-1.6,3.1-2.8,5.2-3.3l0,0L664.4,5219.1z
			 M631.8,5193.5c6.2,0,11.2,5,11.2,11.2c0,6.2-5,11.2-11.2,11.2c-6.2,0-11.2-5-11.2-11.2C620.6,5198.5,625.6,5193.5,631.8,5193.5z
			 M631.8,5198.5c-1.7,0-3.2,0.7-4.4,1.8c-1.1,1.1-1.8,2.7-1.8,4.4c0,1.7,0.7,3.2,1.8,4.4c1.1,1.1,2.7,1.8,4.4,1.8
			c1.7,0,3.2-0.7,4.4-1.8c1.1-1.1,1.8-2.7,1.8-4.4c0-1.7-0.7-3.2-1.8-4.4C635,5199.2,633.5,5198.5,631.8,5198.5z"/>
	</g>
</g>
</svg>
