<svg version="1.2" baseProfile="tiny-ps" xmlns="http://www.w3.org/2000/svg" viewBox="0 0 1552 552" width="1552" height="552">
	<title>Engie_logo-svg</title>
	<style>
		tspan { white-space:pre }
		.shp0 { fill: #ffffff } 
	</style>
	<path id="path4315" fill-rule="evenodd" class="shp0" d="M1551.93 223.05C1344.03 84.37 1072.88 0.47 776.23 0.47C479.58 0.47 208.41 84.37 0.48 223.05C207.25 154.37 448.98 111.74 776.23 111.74C1103.47 111.74 1345.18 154.37 1551.93 223.05Z" />
	<path id="path4317" class="shp0" d="M190.89 289.07C88.65 289.07 14.69 339.95 14.69 423.13C14.69 541.1 188.41 577.1 315.67 533.25C327.73 529.12 338.7 520.45 335.2 506.97C332.12 495.03 322.35 490.48 307.71 493.67C204.66 515.83 86.78 492.16 86.78 419.31C86.78 364.26 137.84 341.87 178.12 338.61C220.32 335.25 253.33 344.11 270.35 361.71C280.97 372.74 278 387.73 257.17 388.98C237.98 390.11 201.97 391.27 172.01 392.42C154.98 393.03 145.92 402.11 145.92 414.36C145.92 424.04 153.18 435.19 172.76 435.28C200.8 435.46 272.08 435.82 307.44 435.93C330.78 435.93 342.27 422.91 342.27 396.07C342.27 353.55 303.7 289.07 190.89 289.07L190.89 289.07ZM904.78 289.07C798.78 289.07 713.79 339.63 713.79 421.32C713.79 508.53 798.47 551.19 904.03 551.19C1021.93 551.19 1079.34 487.09 1079.34 431.05C1079.34 402.51 1064.82 391.61 1040.34 391.61C1017 391.61 945.02 392.16 898.9 392.29C876.55 392.29 870.97 404.35 870.97 414.26C870.97 422.91 876.97 434.11 897.85 435.18C929.64 436.87 970.05 438.72 988.71 439.68C1013.85 440.98 1014.15 453.88 1005.65 464.93C988.6 487.1 947.09 501.65 904.06 501.65C847.76 501.65 785.84 469.64 785.84 418.94C785.84 371.37 838.84 318.95 996.36 341.07C1010.17 343.01 1023.79 340.51 1027.2 327.73C1030.8 314.1 1021.96 305.36 1004.08 300.67C968.39 291.28 935.88 289.07 904.78 289.07L904.78 289.07ZM1143.26 289.07C1112.47 289.07 1103.49 313.16 1103.86 327.9C1103.86 330.65 1104.21 338.29 1104.64 347.72C1104.64 349.89 1106.68 351.88 1109.25 351.58L1179.26 340.22C1181.49 339.78 1182.56 338.13 1182.67 336.36C1182.85 333.09 1182.93 329.7 1182.99 328.1C1183.39 313.86 1174.22 289.07 1143.27 289.07L1143.26 289.07ZM1386.36 289.07C1284.13 289.07 1210.16 339.95 1210.16 423.13C1210.16 541.1 1383.89 577.1 1511.17 533.25C1523.23 529.12 1534.16 520.45 1530.67 506.97C1527.61 495.03 1517.82 490.48 1503.18 493.67C1400.14 515.83 1282.24 492.16 1282.24 419.31C1282.24 364.26 1333.33 341.87 1373.59 338.61C1415.79 335.25 1448.82 344.11 1465.82 361.71C1476.42 372.74 1473.49 387.73 1452.64 388.98C1433.43 390.11 1397.46 391.27 1367.48 392.42C1350.47 393.03 1341.35 402.11 1341.35 414.36C1341.35 424.04 1348.7 435.19 1368.26 435.28C1396.3 435.46 1467.54 435.82 1502.91 435.93C1526.25 435.93 1537.77 422.91 1537.77 396.07C1537.77 353.55 1499.19 289.07 1386.36 289.07L1386.36 289.07ZM414.8 295.11C394.95 295.11 375.9 307.38 375.9 337.45L375.9 523.8C375.9 538.32 386.17 547.58 398.4 547.58C411.91 547.58 420.66 538.6 422.58 525.5C422.58 525.5 437.01 436.71 438.8 426.82C440.83 415.31 442.66 406.28 453.76 402.83C463.83 399.71 473.31 405.54 487.5 417.95C501.46 430.13 619.75 536.86 619.75 536.86C628.8 544.51 635.39 547.58 648.19 547.58C659.8 547.58 680.91 542.81 680.91 507.35L680.91 321.76C680.91 304.5 670.25 295.11 657.24 295.11C641.99 295.11 634.19 307.51 632.18 322.58C629.93 339.26 621.15 397.12 619.2 411.84C618.03 420.64 617.38 429.83 608.86 433.61C600.31 437.39 589.91 431.61 581.06 424.06C572.16 416.52 440.82 304.8 440.82 304.8C433.3 298.2 423.82 295.11 414.8 295.11L414.8 295.11ZM1176.22 365.43L1109.15 376.28C1107.18 376.7 1105.75 378.33 1105.84 380.28C1108.07 444.57 1114.16 497.92 1115.84 516.6C1118.05 540.73 1130.55 547.58 1143.09 547.58C1155.09 547.58 1167.85 541.3 1170.03 516.8C1171.89 496.18 1177.99 432.55 1180.96 369.63C1181.14 366.33 1178.82 364.95 1176.22 365.43L1176.22 365.43Z" />
</svg>