<svg version="1.1" id="Layer_1" xmlns="http://www.w3.org/2000/svg" xmlns:xlink="http://www.w3.org/1999/xlink" x="0px" y="0px"
	 width="100%" viewBox="0 0 500 142" enable-background="new 0 0 500 142" xml:space="preserve">
<path fill="" opacity="0" stroke="none"
	d="
M501.000000,72.000000
	C501.000000,95.645309 501.000000,119.290619 501.000000,143.000000
	C363.312439,143.000000 225.624878,143.000000 87.177170,142.662109
	C87.071732,141.890259 87.673927,141.211502 88.388840,141.058136
	C106.448380,137.183197 119.927956,126.636047 129.966614,111.653984
	C139.809769,96.963669 143.462997,80.752441 141.130081,62.971439
	C139.012436,46.831242 132.170746,33.069656 121.011414,21.811108
	C111.202499,11.914997 99.169548,5.118409 84.998169,2.923667
	C84.250740,2.807911 83.662399,1.664823 83.000000,1.000000
	C222.333344,1.000000 361.666687,1.000000 501.000000,1.000000
	C501.000000,13.085808 501.000000,25.074245 500.690216,37.823105
	C496.757629,30.741545 490.467804,28.164206 482.166901,28.930510
	C477.883545,29.325930 473.533600,29.000000 469.213745,29.000000
	C463.852844,29.000000 458.491913,29.000000 454.107666,29.000000
	C454.826569,32.277702 455.745209,34.930645 455.923981,37.632538
	C456.208527,41.933567 456.326874,46.297329 455.932343,50.580841
	C455.096588,59.654690 458.644135,69.154556 452.923706,78.000000
	C461.831757,78.000000 470.300293,78.108353 478.764160,77.955391
	C483.152924,77.876083 487.665253,77.868477 491.874817,76.828682
	C495.116333,76.028015 497.972504,73.667122 501.000000,72.000000
M208.498291,67.000801
	C212.470734,59.195179 216.443176,51.389565 220.415634,43.583946
	C220.943756,43.811802 221.471878,44.039658 222.000000,44.267513
	C222.000000,52.549519 222.097748,60.833317 221.945496,69.112526
	C221.894135,71.905106 221.208664,74.686020 220.797958,77.578140
	C223.744705,77.578140 227.323486,77.578140 231.150543,77.578140
	C228.190094,72.825104 228.143829,34.723625 230.973007,29.275425
	C226.630737,29.275425 222.427292,29.275425 218.192184,29.275425
	C219.499237,34.201180 206.216278,61.088352 201.660156,62.457790
	C197.433090,53.843964 193.111816,45.223545 188.989517,36.509010
	C187.944077,34.298916 187.532150,31.789152 186.775009,29.234497
	C183.369659,29.234497 179.273361,29.234497 175.153015,29.234497
	C178.763153,37.346542 176.810501,45.678921 176.834518,53.768257
	C176.858063,61.695354 178.808151,69.873077 174.901901,77.715584
	C178.426285,77.715584 181.635941,77.715584 183.613495,77.715584
	C182.327591,66.057739 183.323486,54.580959 182.969055,43.143955
	C183.429138,43.041649 183.889221,42.939342 184.349304,42.837036
	C190.272232,54.580887 196.195160,66.324730 202.542755,78.910622
	C204.676193,74.524200 206.355728,71.071030 208.498291,67.000801
M430.041107,56.696445
	C432.691193,46.055897 425.202515,33.687275 414.891876,30.072206
	C407.240570,27.389521 399.264069,26.792503 391.403839,29.050583
	C379.769745,32.392818 374.201111,37.894913 372.175079,49.367767
	C370.391083,59.470306 374.211670,68.263618 382.891724,73.877563
	C393.746735,80.898201 405.455566,80.677803 417.016327,75.432915
	C424.596497,71.993965 429.133606,66.027153 430.041107,56.696445
M282.005524,50.487900
	C287.200104,43.468456 292.394714,36.449009 297.692810,29.289692
	C293.956299,29.289692 290.104828,29.289692 287.190521,29.289692
	C286.384613,31.622025 286.051758,33.715054 285.013763,35.364288
	C282.521698,39.323891 279.474060,42.941242 277.080933,46.953369
	C275.201050,50.104992 273.455200,49.425037 271.814606,47.239105
	C268.722626,43.119381 265.784760,38.871120 263.026367,34.521820
	C262.208679,33.232567 262.206207,31.426277 261.744171,29.497993
	C258.165131,29.497993 253.586609,29.497993 248.504745,29.497993
	C250.706436,31.502893 252.600143,32.824448 253.977097,34.556774
	C258.105438,39.750576 262.058350,45.085102 266.024811,50.405663
	C267.750305,52.720165 270.692963,55.110264 270.736176,57.508339
	C270.857391,64.229668 272.624084,71.210999 269.210876,77.634476
	C272.843018,77.634476 276.363617,77.634476 280.096161,77.634476
	C275.168915,70.038826 275.855988,58.876507 282.005524,50.487900
M312.530701,75.944214
	C314.765198,76.183929 317.014954,76.328423 319.230988,76.683411
	C323.670105,77.394524 328.108124,78.955894 332.515686,78.852234
	C342.908661,78.607826 347.998840,72.828079 347.999908,62.393017
	C348.000397,57.896729 347.750336,53.383221 348.059052,48.908230
	C348.511383,42.352146 346.285309,35.572853 349.880005,29.407269
	C346.089722,29.407269 342.586670,29.407269 339.136902,29.407269
	C339.856262,31.079294 340.906860,32.401989 340.923859,33.737858
	C341.059570,44.393993 341.109283,55.055008 340.877899,65.707848
	C340.844177,67.261635 339.518524,69.635361 338.209290,70.149582
	C334.709106,71.524315 330.708405,73.236931 327.251038,72.679329
	C323.376160,72.054405 319.879303,69.085648 315.557098,66.784943
	C314.678406,68.918304 313.359894,72.119469 312.530701,75.944214
M306.507538,104.004211
	C304.798706,101.468513 303.089844,98.932823 301.381012,96.397125
	C301.093323,96.670135 300.805664,96.943146 300.518005,97.216156
	C300.518005,103.792885 300.518005,110.369614 300.518005,116.946335
	C300.926941,116.962349 301.335876,116.978355 301.744781,116.994362
	C301.896027,113.712944 302.047272,110.431526 302.198547,107.150108
	C302.635498,106.897209 303.072479,106.644310 303.509430,106.391403
	C305.014740,108.692833 306.481018,111.021240 308.043610,113.283089
	C308.716003,114.256386 309.588104,115.091736 310.369476,115.989754
	C311.218231,115.175346 312.238525,114.476921 312.882660,113.524193
	C314.621735,110.951965 316.200653,108.271484 317.843140,105.633957
	C319.005157,109.979530 318.928223,113.631363 319.082855,117.273369
	C319.107880,117.862801 320.161469,118.408562 320.739624,118.974510
	C321.157471,118.415413 321.931793,117.860794 321.938873,117.296555
	C322.023132,110.580612 321.993195,103.863243 321.993195,97.146255
	C321.432861,96.858612 320.872528,96.570976 320.312164,96.283340
	C318.238892,99.052238 315.970276,101.698189 314.133667,104.616058
	C310.499359,110.390068 310.598053,110.452194 306.507538,104.004211
M403.509125,109.005859
	C399.213165,105.383125 397.644135,98.822487 391.263092,96.560875
	C391.263092,104.665314 391.263092,111.777962 391.263092,118.890602
	C391.788757,118.995132 392.314392,119.099663 392.840057,119.204193
	C395.722687,115.023491 392.669464,109.386780 394.580170,104.906754
	C401.437042,108.173195 402.282654,117.820564 411.000000,119.373642
	C411.000000,112.951141 411.107269,107.130493 410.924438,101.318970
	C410.878876,99.870865 409.897003,98.452232 409.345490,97.020058
	C408.897003,98.389130 408.125732,99.743294 408.061676,101.130119
	C407.883759,104.982689 408.000000,108.848839 408.000000,114.033745
	C405.881012,111.636581 404.951324,110.584854 403.509125,109.005859
M289.741791,105.210922
	C287.290283,99.310944 283.275879,96.161430 276.494171,96.927895
	C272.337189,97.397713 267.257874,100.766052 266.126434,104.583862
	C264.603546,109.722473 266.617126,115.505875 270.890198,117.979851
	C275.414093,120.599068 279.905853,121.047829 284.609009,118.104904
	C289.238708,115.207954 290.055908,110.855354 289.741791,105.210922
M238.464706,107.025955
	C240.741333,100.044220 247.627090,97.700409 254.130096,101.526978
	C255.120361,102.109688 256.635101,101.801140 257.907257,101.904816
	C257.949799,101.338554 257.992340,100.772285 258.034882,100.206024
	C256.348907,99.296829 254.732452,98.212830 252.964523,97.509666
	C246.422928,94.907852 239.523911,97.159279 236.852753,102.644073
	C234.270966,107.945328 235.285004,114.792877 239.064194,117.577530
	C243.707520,120.998917 252.199982,120.872826 256.261322,117.059135
	C257.050354,116.318207 256.907684,114.585098 257.194794,113.309647
	C248.565567,119.990990 239.362488,117.405525 238.464706,107.025955
M342.355286,97.000000
	C339.275513,97.000000 336.195740,97.000000 333.264618,97.000000
	C333.264618,104.746811 333.264618,111.833359 333.264618,118.959145
	C334.024048,118.959145 334.933502,119.042923 334.952850,118.946968
	C335.535828,116.059891 336.030945,113.155067 336.584198,110.000000
	C339.667480,110.000000 342.819244,109.773338 345.924927,110.054756
	C350.249817,110.446648 351.819580,108.321938 352.012268,104.404152
	C352.290741,98.741638 350.279694,97.003830 342.355286,97.000000
M366.036713,103.603966
	C363.656555,108.572441 361.276367,113.540909 358.896179,118.509377
	C359.302338,118.845406 359.708466,119.181435 360.114594,119.517464
	C361.162720,118.446785 362.659607,117.555405 363.172852,116.270988
	C364.575592,112.760651 366.784607,111.285591 370.571198,111.952797
	C372.176941,112.235741 373.874115,112.000000 375.147675,112.000000
	C377.708496,114.219460 376.851105,119.162292 382.771149,118.925583
	C379.973724,113.184135 377.598999,108.016663 374.943573,102.997711
	C373.803558,100.842987 372.080383,98.996796 370.622162,97.010422
	C369.252289,99.003769 367.882416,100.997124 366.036713,103.603966
M440.965759,98.158348
	C439.570557,98.317482 437.700714,97.963455 436.869415,98.732300
	C434.411530,101.005470 432.363983,103.722328 430.217621,106.194542
	C425.903503,103.581703 425.608002,96.635056 418.916534,97.086372
	C419.152893,97.991333 419.142365,98.552849 419.411713,98.892334
	C423.860504,104.500320 430.538574,108.937622 429.092926,117.634827
	C429.033539,117.992256 430.067444,118.531410 430.591980,118.985909
	C431.060638,118.305328 431.817139,117.675209 431.946869,116.935219
	C432.444061,114.098511 432.019318,110.845619 433.281311,108.457672
	C435.139862,104.941017 438.147400,102.031609 440.965759,98.158348
z"/>
<path fill="#FFFFFF" opacity="1.000000" stroke="none"
	d="
M82.531364,1.000000
	C83.662399,1.664823 84.250740,2.807911 84.998169,2.923667
	C99.169548,5.118409 111.202499,11.914997 121.011414,21.811108
	C132.170746,33.069656 139.012436,46.831242 141.130081,62.971439
	C143.462997,80.752441 139.809769,96.963669 129.966614,111.653984
	C119.927956,126.636047 106.448380,137.183197 88.388840,141.058136
	C87.673927,141.211502 87.071732,141.890259 86.708511,142.662109
	C76.645775,143.000000 66.291542,143.000000 55.458969,142.599640
	C54.873505,141.906448 54.823074,141.396378 54.651257,141.351547
	C28.671085,134.572983 11.675351,118.330376 3.341247,92.862190
	C2.983758,91.769737 1.799250,90.947899 1.000001,90.000000
	C1.000000,78.645775 1.000000,67.291542 1.395878,55.459877
	C2.463674,53.818710 3.373111,52.730835 3.772530,51.480091
	C12.206126,25.070993 30.103571,9.099471 57.003975,2.932765
	C57.776413,2.755689 58.339367,1.664801 59.000000,1.000000
	C66.687576,1.000000 74.375153,1.000000 82.531364,1.000000
M25.006363,119.508408
	C38.320763,131.528336 53.459404,138.364197 71.881950,138.165039
	C87.846062,137.992477 101.924637,132.998245 113.489250,122.699318
	C131.091263,107.023773 139.570175,87.317337 136.069138,63.187538
	C133.362061,44.529709 124.370811,29.761471 109.262131,18.890865
	C93.458336,7.520132 75.780411,3.329200 56.651714,8.086140
	C41.921707,11.749208 29.352015,19.061935 19.936562,31.460747
	C9.277677,45.496983 4.139798,60.779068 5.831551,78.646049
	C7.333852,94.512177 14.265347,107.400711 25.006363,119.508408
z"/>
<path fill="#FFFFFF" opacity="1.000000" stroke="none"
	d="
M501.000000,71.533134
	C497.972504,73.667122 495.116333,76.028015 491.874817,76.828682
	C487.665253,77.868477 483.152924,77.876083 478.764160,77.955391
	C470.300293,78.108353 461.831757,78.000000 452.923706,78.000000
	C458.644135,69.154556 455.096588,59.654690 455.932343,50.580841
	C456.326874,46.297329 456.208527,41.933567 455.923981,37.632538
	C455.745209,34.930645 454.826569,32.277702 454.107666,29.000000
	C458.491913,29.000000 463.852844,29.000000 469.213745,29.000000
	C473.533600,29.000000 477.883545,29.325930 482.166901,28.930510
	C490.467804,28.164206 496.757629,30.741545 500.690216,38.291763
	C501.000000,40.370556 501.000000,42.741116 500.620544,45.558006
	C498.514771,48.072910 496.788391,50.141483 494.663788,52.687267
	C496.833160,53.821476 498.916595,54.910732 501.000000,55.999996
	C501.000000,61.022091 501.000000,66.044182 501.000000,71.533134
M462.000000,68.356163
	C461.890808,70.401505 461.626862,72.186134 464.856812,72.075699
	C471.998474,71.831505 479.155701,72.087395 486.303741,71.968292
	C490.904846,71.891624 494.614868,68.888626 494.983429,65.159996
	C495.453735,60.401997 493.281372,56.697113 488.707092,56.164238
	C479.966614,55.146027 471.118805,55.049438 462.000000,54.553154
	C462.000000,59.465225 462.000000,63.426788 462.000000,68.356163
M493.449097,43.036053
	C493.401886,38.773693 491.669891,35.484245 487.191528,35.079720
	C478.918976,34.332462 470.603790,34.057137 462.245178,33.581722
	C462.245178,39.581661 462.245178,44.642811 462.245178,50.398285
	C470.862549,49.919262 479.242157,49.769928 487.518066,48.765923
	C489.531036,48.521717 491.203003,45.466740 493.449097,43.036053
z"/>
<path fill="" opacity="0" stroke="none"
	d="
M58.531342,1.000000
	C58.339367,1.664801 57.776413,2.755689 57.003975,2.932765
	C30.103571,9.099471 12.206126,25.070993 3.772530,51.480091
	C3.373111,52.730835 2.463674,53.818710 1.395878,54.991219
	C1.000000,37.070599 1.000000,19.141195 1.000000,1.000000
	C20.020370,1.000000 39.041527,1.000000 58.531342,1.000000
z"/>
<path fill="" opacity="0" stroke="none"
	d="
M1.000001,90.468658
	C1.799250,90.947899 2.983758,91.769737 3.341247,92.862190
	C11.675351,118.330376 28.671085,134.572983 54.651257,141.351547
	C54.823074,141.396378 54.873505,141.906448 54.990311,142.599640
	C37.073914,143.000000 19.147827,143.000000 1.000000,143.000000
	C1.000000,125.646400 1.000000,108.291862 1.000001,90.468658
z"/>
<path fill="" opacity="0" stroke="none"
	d="
M501.000000,55.545887
	C498.916595,54.910732 496.833160,53.821476 494.663788,52.687267
	C496.788391,50.141483 498.514771,48.072910 500.620544,46.002167
	C501.000000,49.030594 501.000000,52.061188 501.000000,55.545887
z"/>
<path fill="#FFFFFF" opacity="1.000000" stroke="none"
	d="
M208.266785,67.309334
	C206.355728,71.071030 204.676193,74.524200 202.542755,78.910622
	C196.195160,66.324730 190.272232,54.580887 184.349304,42.837036
	C183.889221,42.939342 183.429138,43.041649 182.969055,43.143955
	C183.323486,54.580959 182.327591,66.057739 183.613495,77.715584
	C181.635941,77.715584 178.426285,77.715584 174.901901,77.715584
	C178.808151,69.873077 176.858063,61.695354 176.834518,53.768257
	C176.810501,45.678921 178.763153,37.346542 175.153015,29.234497
	C179.273361,29.234497 183.369659,29.234497 186.775009,29.234497
	C187.532150,31.789152 187.944077,34.298916 188.989517,36.509010
	C193.111816,45.223545 197.433090,53.843964 201.660156,62.457790
	C206.216278,61.088352 219.499237,34.201180 218.192184,29.275425
	C222.427292,29.275425 226.630737,29.275425 230.973007,29.275425
	C228.143829,34.723625 228.190094,72.825104 231.150543,77.578140
	C227.323486,77.578140 223.744705,77.578140 220.797958,77.578140
	C221.208664,74.686020 221.894135,71.905106 221.945496,69.112526
	C222.097748,60.833317 222.000000,52.549519 222.000000,44.267513
	C221.471878,44.039658 220.943756,43.811802 220.415634,43.583946
	C216.443176,51.389565 212.470734,59.195179 208.266785,67.309334
z"/>
<path fill="#FFFFFF" opacity="1.000000" stroke="none"
	d="
M430.022095,57.125763
	C429.133606,66.027153 424.596497,71.993965 417.016327,75.432915
	C405.455566,80.677803 393.746735,80.898201 382.891724,73.877563
	C374.211670,68.263618 370.391083,59.470306 372.175079,49.367767
	C374.201111,37.894913 379.769745,32.392818 391.403839,29.050583
	C399.264069,26.792503 407.240570,27.389521 414.891876,30.072206
	C425.202515,33.687275 432.691193,46.055897 430.022095,57.125763
M397.884155,72.998566
	C402.502808,72.329483 407.380920,72.384216 411.686249,70.840996
	C420.716827,67.604019 427.952026,55.242031 421.214905,43.542332
	C415.621613,33.828995 399.520172,31.799448 390.814606,35.710770
	C384.008301,38.768761 379.472473,43.807659 379.058167,51.519279
	C378.603973,59.972866 381.477539,66.818207 389.833923,70.335426
	C392.176605,71.321449 394.605255,72.103287 397.884155,72.998566
z"/>
<path fill="#FFFFFF" opacity="1.000000" stroke="none"
	d="
M281.740234,50.752388
	C275.855988,58.876507 275.168915,70.038826 280.096161,77.634476
	C276.363617,77.634476 272.843018,77.634476 269.210876,77.634476
	C272.624084,71.210999 270.857391,64.229668 270.736176,57.508339
	C270.692963,55.110264 267.750305,52.720165 266.024811,50.405663
	C262.058350,45.085102 258.105438,39.750576 253.977097,34.556774
	C252.600143,32.824448 250.706436,31.502893 248.504745,29.497993
	C253.586609,29.497993 258.165131,29.497993 261.744171,29.497993
	C262.206207,31.426277 262.208679,33.232567 263.026367,34.521820
	C265.784760,38.871120 268.722626,43.119381 271.814606,47.239105
	C273.455200,49.425037 275.201050,50.104992 277.080933,46.953369
	C279.474060,42.941242 282.521698,39.323891 285.013763,35.364288
	C286.051758,33.715054 286.384613,31.622025 287.190521,29.289692
	C290.104828,29.289692 293.956299,29.289692 297.692810,29.289692
	C292.394714,36.449009 287.200104,43.468456 281.740234,50.752388
z"/>
<path fill="#FFFFFF" opacity="1.000000" stroke="none"
	d="
M312.286011,75.632416
	C313.359894,72.119469 314.678406,68.918304 315.557098,66.784943
	C319.879303,69.085648 323.376160,72.054405 327.251038,72.679329
	C330.708405,73.236931 334.709106,71.524315 338.209290,70.149582
	C339.518524,69.635361 340.844177,67.261635 340.877899,65.707848
	C341.109283,55.055008 341.059570,44.393993 340.923859,33.737858
	C340.906860,32.401989 339.856262,31.079294 339.136902,29.407269
	C342.586670,29.407269 346.089722,29.407269 349.880005,29.407269
	C346.285309,35.572853 348.511383,42.352146 348.059052,48.908230
	C347.750336,53.383221 348.000397,57.896729 347.999908,62.393017
	C347.998840,72.828079 342.908661,78.607826 332.515686,78.852234
	C328.108124,78.955894 323.670105,77.394524 319.230988,76.683411
	C317.014954,76.328423 314.765198,76.183929 312.286011,75.632416
z"/>
<path fill="#FFFFFF" opacity="1.000000" stroke="none"
	d="
M306.736816,104.314484
	C310.598053,110.452194 310.499359,110.390068 314.133667,104.616058
	C315.970276,101.698189 318.238892,99.052238 320.312164,96.283340
	C320.872528,96.570976 321.432861,96.858612 321.993195,97.146255
	C321.993195,103.863243 322.023132,110.580612 321.938873,117.296555
	C321.931793,117.860794 321.157471,118.415413 320.739624,118.974510
	C320.161469,118.408562 319.107880,117.862801 319.082855,117.273369
	C318.928223,113.631363 319.005157,109.979530 317.843140,105.633957
	C316.200653,108.271484 314.621735,110.951965 312.882660,113.524193
	C312.238525,114.476921 311.218231,115.175346 310.369476,115.989761
	C309.588104,115.091736 308.716003,114.256386 308.043610,113.283089
	C306.481018,111.021240 305.014740,108.692833 303.509430,106.391403
	C303.072479,106.644310 302.635498,106.897209 302.198547,107.150108
	C302.047272,110.431526 301.896027,113.712944 301.744781,116.994362
	C301.335876,116.978355 300.926941,116.962349 300.518005,116.946335
	C300.518005,110.369614 300.518005,103.792885 300.518005,97.216156
	C300.805664,96.943146 301.093323,96.670135 301.381012,96.397125
	C303.089844,98.932823 304.798706,101.468513 306.736816,104.314484
z"/>
<path fill="#FFFFFF" opacity="1.000000" stroke="none"
	d="
M403.765381,109.269493
	C404.951324,110.584854 405.881012,111.636581 408.000000,114.033745
	C408.000000,108.848839 407.883759,104.982689 408.061676,101.130119
	C408.125732,99.743294 408.897003,98.389130 409.345490,97.020058
	C409.897003,98.452232 410.878876,99.870865 410.924438,101.318970
	C411.107269,107.130493 411.000000,112.951141 411.000000,119.373642
	C402.282654,117.820564 401.437042,108.173195 394.580170,104.906754
	C392.669464,109.386780 395.722687,115.023491 392.840057,119.204193
	C392.314392,119.099663 391.788757,118.995132 391.263092,118.890602
	C391.263092,111.777962 391.263092,104.665314 391.263092,96.560875
	C397.644135,98.822487 399.213165,105.383125 403.765381,109.269493
z"/>
<path fill="#FFFFFF" opacity="1.000000" stroke="none"
	d="
M289.861877,105.602592
	C290.055908,110.855354 289.238708,115.207954 284.609009,118.104904
	C279.905853,121.047829 275.414093,120.599068 270.890198,117.979851
	C266.617126,115.505875 264.603546,109.722473 266.126434,104.583862
	C267.257874,100.766052 272.337189,97.397713 276.494171,96.927895
	C283.275879,96.161430 287.290283,99.310944 289.861877,105.602592
M272.117828,101.355682
	C267.729065,106.485336 267.817657,110.915848 272.388031,114.868141
	C276.162537,118.132195 281.093231,117.891121 284.453369,113.995888
	C286.893311,111.167397 288.042542,107.905128 285.744568,104.347397
	C282.984283,100.073914 278.348602,98.895622 272.117828,101.355682
z"/>
<path fill="#FFFFFF" opacity="1.000000" stroke="none"
	d="
M238.249908,107.355026
	C239.362488,117.405525 248.565567,119.990990 257.194794,113.309647
	C256.907684,114.585098 257.050354,116.318207 256.261322,117.059135
	C252.199982,120.872826 243.707520,120.998917 239.064194,117.577530
	C235.285004,114.792877 234.270966,107.945328 236.852753,102.644073
	C239.523911,97.159279 246.422928,94.907852 252.964523,97.509666
	C254.732452,98.212830 256.348907,99.296829 258.034882,100.206024
	C257.992340,100.772285 257.949799,101.338554 257.907257,101.904816
	C256.635101,101.801140 255.120361,102.109688 254.130096,101.526978
	C247.627090,97.700409 240.741333,100.044220 238.249908,107.355026
z"/>
<path fill="#FFFFFF" opacity="1.000000" stroke="none"
	d="
M342.821411,97.000000
	C350.279694,97.003830 352.290741,98.741638 352.012268,104.404152
	C351.819580,108.321938 350.249817,110.446648 345.924927,110.054756
	C342.819244,109.773338 339.667480,110.000000 336.584198,110.000000
	C336.030945,113.155067 335.535828,116.059891 334.952850,118.946968
	C334.933502,119.042923 334.024048,118.959145 333.264618,118.959145
	C333.264618,111.833359 333.264618,104.746811 333.264618,97.000000
	C336.195740,97.000000 339.275513,97.000000 342.821411,97.000000
M348.450836,106.019424
	C349.537689,99.932793 346.972595,98.776581 336.253113,100.520775
	C336.253113,102.589432 336.253113,104.658081 336.253113,106.678123
	C340.286133,106.678123 344.065033,106.678123 348.450836,106.019424
z"/>
<path fill="#FFFFFF" opacity="1.000000" stroke="none"
	d="
M366.274628,103.297218
	C367.882416,100.997124 369.252289,99.003769 370.622162,97.010422
	C372.080383,98.996796 373.803558,100.842987 374.943573,102.997711
	C377.598999,108.016663 379.973724,113.184135 382.771149,118.925583
	C376.851105,119.162292 377.708496,114.219460 375.147675,112.000000
	C373.874115,112.000000 372.176941,112.235741 370.571198,111.952797
	C366.784607,111.285591 364.575592,112.760651 363.172852,116.270988
	C362.659607,117.555405 361.162720,118.446785 360.114594,119.517464
	C359.708466,119.181435 359.302338,118.845406 358.896179,118.509377
	C361.276367,113.540909 363.656555,108.572441 366.274628,103.297218
M373.650269,107.124985
	C372.819092,105.690437 371.987915,104.255882 370.725830,102.077606
	C369.315155,104.758904 368.288177,106.710815 366.659302,109.806801
	C369.890533,108.950226 371.926056,108.410614 373.650269,107.124985
z"/>
<path fill="#FFFFFF" opacity="1.000000" stroke="none"
	d="
M440.815674,98.510948
	C438.147400,102.031609 435.139862,104.941017 433.281311,108.457672
	C432.019318,110.845619 432.444061,114.098511 431.946869,116.935219
	C431.817139,117.675209 431.060638,118.305328 430.591980,118.985901
	C430.067444,118.531410 429.033539,117.992256 429.092926,117.634827
	C430.538574,108.937622 423.860504,104.500320 419.411713,98.892334
	C419.142365,98.552849 419.152893,97.991333 418.916534,97.086372
	C425.608002,96.635056 425.903503,103.581703 430.217621,106.194542
	C432.363983,103.722328 434.411530,101.005470 436.869415,98.732300
	C437.700714,97.963455 439.570557,98.317482 440.815674,98.510948
z"/>
<path fill="#000000" opacity="0" stroke="none"
	d="
M24.749233,119.251404
	C14.265347,107.400711 7.333852,94.512177 5.831551,78.646049
	C4.139798,60.779068 9.277677,45.496983 19.936562,31.460747
	C29.352015,19.061935 41.921707,11.749208 56.651714,8.086140
	C75.780411,3.329200 93.458336,7.520132 109.262131,18.890865
	C124.370811,29.761471 133.362061,44.529709 136.069138,63.187538
	C139.570175,87.317337 131.091263,107.023773 113.489250,122.699318
	C101.924637,132.998245 87.846062,137.992477 71.881950,138.165039
	C53.459404,138.364197 38.320763,131.528336 24.749233,119.251404
M25.921114,100.408783
	C27.271677,99.659233 29.203306,99.252106 29.879284,98.105026
	C34.561214,90.160164 38.929794,82.031601 43.501976,74.020805
	C47.546089,66.935211 51.723511,59.925713 56.075161,52.484039
	C60.223560,59.689747 64.077080,66.383247 68.106941,73.383064
	C63.959946,80.494774 59.813042,87.814293 55.443161,94.998177
	C53.688686,97.882439 53.910423,99.750801 57.415398,101.065331
	C58.250290,100.125542 59.303547,99.269470 59.936153,98.171127
	C62.758781,93.270432 65.476540,88.308937 68.201576,83.352577
	C69.908615,80.247772 71.673584,79.710754 73.633247,83.120956
	C74.437027,84.519676 75.221558,85.929916 76.048729,87.314674
	C78.835625,91.980164 81.637741,96.636559 84.619270,101.605125
	C87.850494,99.054489 87.457954,96.691704 86.039940,94.228264
	C82.972527,88.899452 79.769592,83.645531 76.833359,78.246086
	C75.861916,76.459709 74.453262,73.809280 75.103577,72.431175
	C78.117561,66.044037 81.785126,59.965332 85.560875,53.159267
	C87.055969,54.775810 88.239433,55.682011 88.935265,56.873081
	C91.789146,61.758183 94.078072,67.029602 97.360985,71.593391
	C101.369202,77.165466 102.664444,82.255196 97.709167,87.787361
	C97.293915,88.250946 97.140671,88.953629 96.881828,89.552200
	C94.326897,95.460526 98.475502,101.918808 104.875191,101.999542
	C111.671021,102.085274 116.140854,95.019081 112.911758,88.848282
	C110.288742,83.835701 106.241928,79.230721 111.650467,73.546844
	C112.157448,73.014053 111.390030,71.268600 111.214302,70.086182
	C109.999619,70.368767 108.646606,70.407661 107.606628,70.998016
	C106.411057,71.676689 105.492516,72.843399 104.517822,73.739159
	C98.420967,63.246162 92.455231,52.978836 86.225838,42.257740
	C80.964020,51.084862 76.164871,59.135830 70.975273,67.841797
	C66.639206,60.335175 63.139313,54.138569 59.476280,48.039948
	C58.651348,46.666512 57.257294,45.634911 56.125225,44.445942
	C54.903584,45.644352 53.364380,46.653030 52.515343,48.074070
	C48.863430,54.186287 45.439404,60.434116 41.885372,66.605492
	C36.309917,76.286957 30.631617,85.910378 25.189154,95.665649
	C24.573767,96.768692 25.196976,98.562744 25.921114,100.408783
z"/>
<path fill="#000000" opacity="0" stroke="none"
	d="
M462.000000,67.872253
	C462.000000,63.426788 462.000000,59.465225 462.000000,54.553154
	C471.118805,55.049438 479.966614,55.146027 488.707092,56.164238
	C493.281372,56.697113 495.453735,60.401997 494.983429,65.159996
	C494.614868,68.888626 490.904846,71.891624 486.303741,71.968292
	C479.155701,72.087395 471.998474,71.831505 464.856812,72.075699
	C461.626862,72.186134 461.890808,70.401505 462.000000,67.872253
z"/>
<path fill="#000000" opacity="0" stroke="none"
	d="
M493.240448,43.370110
	C491.203003,45.466740 489.531036,48.521717 487.518066,48.765923
	C479.242157,49.769928 470.862549,49.919262 462.245178,50.398285
	C462.245178,44.642811 462.245178,39.581661 462.245178,33.581722
	C470.603790,34.057137 478.918976,34.332462 487.191528,35.079720
	C491.669891,35.484245 493.401886,38.773693 493.240448,43.370110
z"/>
<path fill="#000000" opacity="0" stroke="none"
	d="
M397.439301,72.988678
	C394.605255,72.103287 392.176605,71.321449 389.833923,70.335426
	C381.477539,66.818207 378.603973,59.972866 379.058167,51.519279
	C379.472473,43.807659 384.008301,38.768761 390.814606,35.710770
	C399.520172,31.799448 415.621613,33.828995 421.214905,43.542332
	C427.952026,55.242031 420.716827,67.604019 411.686249,70.840996
	C407.380920,72.384216 402.502808,72.329483 397.439301,72.988678
z"/>
<path fill="#000000" opacity="0" stroke="none"
	d="
M272.488800,101.185074
	C278.348602,98.895622 282.984283,100.073914 285.744568,104.347397
	C288.042542,107.905128 286.893311,111.167397 284.453369,113.995888
	C281.093231,117.891121 276.162537,118.132195 272.388031,114.868141
	C267.817657,110.915848 267.729065,106.485336 272.488800,101.185074
z"/>
<path fill="#000000" opacity="0" stroke="none"
	d="
M348.147369,106.348770
	C344.065033,106.678123 340.286133,106.678123 336.253113,106.678123
	C336.253113,104.658081 336.253113,102.589432 336.247803,100.518631
	C346.972595,98.776581 349.537689,99.932793 348.147369,106.348770
z"/>
<path fill="#000000" opacity="0" stroke="none"
	d="
M373.805939,107.498001
	C371.926056,108.410614 369.890533,108.950226 366.659302,109.806801
	C368.288177,106.710815 369.315155,104.758904 370.725830,102.077606
	C371.987915,104.255882 372.819092,105.690437 373.805939,107.498001
z"/>
<path fill="#FFFFFF" opacity="1.000000" stroke="none"
	d="
M25.583477,100.222580
	C25.196976,98.562744 24.573767,96.768692 25.189154,95.665649
	C30.631617,85.910378 36.309917,76.286957 41.885372,66.605492
	C45.439404,60.434116 48.863430,54.186287 52.515343,48.074070
	C53.364380,46.653030 54.903584,45.644352 56.125229,44.445946
	C57.257294,45.634911 58.651348,46.666512 59.476280,48.039948
	C63.139313,54.138569 66.639206,60.335175 70.975273,67.841797
	C76.164871,59.135830 80.964020,51.084862 86.225838,42.257740
	C92.455231,52.978836 98.420967,63.246162 104.517822,73.739159
	C105.492516,72.843399 106.411057,71.676689 107.606628,70.998016
	C108.646606,70.407661 109.999619,70.368767 111.214302,70.086182
	C111.390030,71.268600 112.157448,73.014053 111.650467,73.546844
	C106.241928,79.230721 110.288742,83.835701 112.911758,88.848282
	C116.140854,95.019081 111.671021,102.085274 104.875191,101.999542
	C98.475502,101.918808 94.326897,95.460526 96.881828,89.552200
	C97.140671,88.953629 97.293915,88.250946 97.709167,87.787361
	C102.664444,82.255196 101.369202,77.165466 97.360985,71.593391
	C94.078072,67.029602 91.789146,61.758183 88.935265,56.873081
	C88.239433,55.682011 87.055969,54.775810 85.560875,53.159267
	C81.785126,59.965332 78.117561,66.044037 75.103577,72.431175
	C74.453262,73.809280 75.861916,76.459709 76.833359,78.246086
	C79.769592,83.645531 82.972527,88.899452 86.039940,94.228264
	C87.457954,96.691704 87.850494,99.054489 84.619270,101.605125
	C81.637741,96.636559 78.835625,91.980164 76.048729,87.314674
	C75.221558,85.929916 74.437027,84.519676 73.633247,83.120956
	C71.673584,79.710754 69.908615,80.247772 68.201576,83.352577
	C65.476540,88.308937 62.758781,93.270432 59.936153,98.171127
	C59.303547,99.269470 58.250290,100.125542 57.415398,101.065331
	C53.910423,99.750801 53.688686,97.882439 55.443161,94.998177
	C59.813042,87.814293 63.959946,80.494774 68.106941,73.383064
	C64.077080,66.383247 60.223560,59.689747 56.075161,52.484039
	C51.723511,59.925713 47.546089,66.935211 43.501976,74.020805
	C38.929794,82.031601 34.561214,90.160164 29.879284,98.105026
	C29.203306,99.252106 27.271677,99.659233 25.583477,100.222580
M108.018944,90.528755
	C106.582054,88.747337 105.179413,85.772186 102.923370,89.525238
	C101.985435,91.085556 101.409515,93.413803 101.871490,95.054169
	C102.138771,96.003220 105.880409,97.112778 106.192963,96.708359
	C107.397728,95.149521 107.850731,93.009682 108.018944,90.528755
z"/>
<path fill="#000000" opacity="0" stroke="none"
	d="
M108.301453,90.807587
	C107.850731,93.009682 107.397728,95.149521 106.192963,96.708359
	C105.880409,97.112778 102.138771,96.003220 101.871490,95.054169
	C101.409515,93.413803 101.985435,91.085556 102.923370,89.525238
	C105.179413,85.772186 106.582054,88.747337 108.301453,90.807587
z"/>
</svg>
