<svg version="1.1" id="Layer_1" xmlns="http://www.w3.org/2000/svg" xmlns:xlink="http://www.w3.org/1999/xlink" x="0px" y="0px"
	 width="100%" viewBox="0 0 2000 816" enable-background="new 0 0 2000 816" xml:space="preserve">
<path fill="#000000" opacity="0" stroke="none"
	d="
M1279.000000,817.000000
	C852.666748,817.000000 426.833496,817.000000 1.000171,817.000000
	C1.000114,545.000122 1.000114,273.000244 1.000057,1.000281
	C667.666443,1.000187 1334.332886,1.000187 2000.999512,1.000094
	C2000.999634,272.999725 2000.999634,544.999451 2000.999756,816.999573
	C1760.500000,817.000000 1520.000000,817.000000 1279.000000,817.000000
M369.216064,143.022110
	C292.228729,143.014679 215.241379,142.987762 138.254105,143.052139
	C134.004761,143.055695 129.664597,143.397308 125.523140,144.299576
	C109.155098,147.865646 95.052727,155.273438 84.579498,168.858734
	C75.768295,180.288147 70.110184,192.994995 70.085541,207.456573
	C69.920868,304.105804 69.965523,400.755463 70.033562,497.404907
	C70.045059,513.727905 76.096481,528.057739 86.761185,540.085632
	C100.514511,555.596985 118.312683,562.846252 138.985962,562.983032
	C152.482986,563.072388 166.003128,563.479553 179.472198,562.859558
	C191.950226,562.285339 201.638596,567.035339 210.130844,575.587891
	C228.799194,594.388916 247.792770,612.872620 266.204346,631.920105
	C272.950958,638.899658 286.041992,638.888733 292.788971,631.926208
	C312.152283,611.944214 331.956757,592.386230 351.757599,572.833618
	C358.212646,566.459412 366.045776,562.871826 375.426727,562.959351
	C391.255859,563.107178 407.088501,563.101501 422.917145,562.930054
	C426.975647,562.886169 431.104065,562.323792 435.064301,561.410034
	C450.935120,557.747864 464.389160,550.164124 474.537781,537.037598
	C483.165222,525.878601 488.806488,513.388855 488.859192,499.382355
	C489.152435,421.397308 489.005524,343.410583 488.959015,265.424469
	C488.958099,263.901123 488.344574,262.378174 488.358185,260.236176
	C489.152313,260.047974 490.089264,260.069611 490.719513,259.640656
	C503.458984,250.969940 513.794250,240.032684 520.368103,226.044968
	C527.681763,210.483292 530.534180,194.174988 528.131592,176.849655
	C525.695374,159.281509 518.999451,143.707123 507.124023,130.847977
	C490.123535,112.439156 468.977692,102.854103 443.462006,102.886703
	C419.345154,102.917519 399.032654,111.361389 382.250854,128.381973
	C377.801086,132.895096 374.170898,138.216324 369.216064,143.022110
M1673.538818,350.000214
	C1689.622803,350.000214 1705.706909,350.000214 1721.638184,350.000214
	C1721.638184,294.602478 1721.638184,239.889633 1721.638184,185.218491
	C1702.338013,185.218491 1683.400635,185.218491 1663.882812,185.218491
	C1663.882812,192.070297 1663.882812,198.725571 1663.882812,204.111649
	C1657.391724,199.189621 1651.166260,193.162048 1643.823730,189.210068
	C1633.007690,183.388596 1621.078735,182.488297 1608.698486,183.837189
	C1589.668701,185.910599 1574.663086,194.619873 1563.273193,209.508896
	C1551.396118,225.035049 1546.917480,243.317398 1546.100830,262.464630
	C1545.455566,277.592255 1547.388550,292.524841 1553.058838,306.709534
	C1558.164062,319.480988 1565.497681,330.825104 1576.858643,338.914978
	C1590.725586,348.789246 1606.002686,353.125031 1623.312988,351.213074
	C1633.992310,350.033539 1643.656372,347.157074 1652.227173,340.893524
	C1656.537598,337.743500 1660.379639,333.952515 1664.123413,330.719116
	C1664.123413,336.332520 1664.123413,343.035919 1664.123413,350.000214
	C1667.265747,350.000214 1669.908569,350.000214 1673.538818,350.000214
M939.000000,314.500000
	C939.000000,271.411926 939.000000,228.323837 939.000000,185.370819
	C919.274170,185.370819 900.213623,185.370819 880.812622,185.370819
	C880.812622,191.968872 880.812622,198.198349 880.812622,205.192673
	C874.729492,197.162735 867.813660,191.372421 859.144897,188.007339
	C848.348572,183.816360 837.355774,182.292099 825.607239,183.797684
	C811.817871,185.564835 799.812073,190.675430 789.755981,199.888977
	C772.968140,215.270126 765.656738,235.365051 764.238037,257.453278
	C763.536194,268.380524 764.636353,279.566193 766.166931,290.459930
	C768.341492,305.936920 774.999390,319.809692 785.797302,331.126984
	C800.767822,346.817657 819.204590,353.324219 841.083252,351.167145
	C857.259827,349.572266 870.215820,342.959778 880.984619,329.945984
	C880.984619,336.915710 880.984619,343.273682 880.984619,349.705841
	C900.569702,349.705841 919.628906,349.705841 939.000000,349.705841
	C939.000000,338.109375 939.000000,326.804688 939.000000,314.500000
M1197.000000,615.499878
	C1197.000000,601.398987 1197.000000,587.298096 1197.000000,571.998779
	C1198.497803,574.094482 1199.345581,575.226624 1200.137329,576.396606
	C1212.903564,595.259766 1225.735840,614.079102 1238.344238,633.047180
	C1240.229004,635.882568 1242.113403,637.095276 1245.542358,637.071228
	C1266.203003,636.926086 1286.865234,637.003662 1307.526855,636.988037
	C1308.747925,636.987061 1309.968872,636.824097 1311.778687,636.694214
	C1310.323486,634.656494 1309.349731,633.150146 1308.235718,631.755859
	C1299.072510,620.286377 1289.902100,608.822510 1280.696777,597.386780
	C1270.658569,584.916321 1260.859497,572.234985 1250.354614,560.169373
	C1247.092651,556.422791 1246.971924,554.229736 1249.816895,550.656433
	C1266.256958,530.008484 1282.592896,509.277405 1298.918945,488.538879
	C1302.710815,483.722198 1306.326904,478.766968 1310.268555,473.551666
	C1308.931641,473.251556 1308.460449,473.053772 1307.989014,473.053162
	C1286.661133,473.026123 1265.332153,472.915833 1244.007446,473.169983
	C1242.015137,473.193756 1239.438110,475.096222 1238.170044,476.868713
	C1228.577393,490.277924 1219.283203,503.900177 1209.810913,517.396362
	C1205.872192,523.008423 1201.726074,528.475098 1196.751465,535.267944
	C1196.751465,496.311523 1196.751465,458.813202 1196.751465,421.413940
	C1177.192993,421.413940 1158.292969,421.413940 1139.362793,421.413940
	C1139.362793,493.384888 1139.362793,564.941223 1139.362793,636.674316
	C1158.625366,636.674316 1177.524048,636.674316 1197.000000,636.674316
	C1197.000000,629.742493 1197.000000,623.121155 1197.000000,615.499878
M588.000122,168.500000
	C588.000122,228.922653 588.000122,289.345306 588.000122,349.625305
	C607.731506,349.625305 626.792725,349.625305 646.162598,349.625305
	C646.162598,326.308075 646.162598,303.364380 646.162598,280.000000
	C648.262878,280.000000 650.055054,280.037079 651.845337,279.994049
	C665.270203,279.671509 678.749146,279.971191 692.104919,278.831055
	C707.277039,277.535828 720.784302,271.098846 731.713440,260.595367
	C750.638794,242.407013 754.203125,219.484100 749.323242,194.880966
	C744.425110,170.185608 728.556824,154.746124 704.994995,147.793701
	C694.632507,144.736023 683.459351,143.469040 672.610291,143.206680
	C646.292480,142.570251 619.948914,142.999756 593.615723,142.999756
	C591.845886,142.999756 590.076111,142.999756 588.000122,142.999756
	C588.000122,151.556213 588.000122,159.528107 588.000122,168.500000
M616.500000,431.000000
	C607.090881,431.000000 597.681763,431.000000 588.400146,431.000000
	C588.400146,500.142303 588.400146,568.357239 588.400146,636.641235
	C607.698669,636.641235 626.595215,636.641235 646.059387,636.641235
	C646.059387,613.723206 646.059387,591.155396 646.059387,568.000366
	C655.067017,568.000366 663.516663,568.043213 671.965759,567.990601
	C685.598267,567.905640 699.027649,566.401367 711.664917,560.928528
	C726.918579,554.322632 738.490784,543.912720 745.393616,528.406067
	C751.933533,513.714783 752.677917,498.429749 749.695068,483.172943
	C746.485168,466.754913 738.092468,453.144531 723.580139,443.769684
	C710.712952,435.457642 696.529785,431.438385 681.470215,431.115936
	C660.155762,430.659576 638.824219,431.000061 616.500000,431.000000
M1046.225586,233.286911
	C1048.797607,232.858185 1051.354614,232.215668 1053.943970,232.035599
	C1070.022095,230.917648 1081.965942,243.152313 1081.988647,259.152740
	C1082.029053,287.650391 1082.000000,316.148163 1082.000000,344.645874
	C1082.000000,346.390320 1082.000000,348.134735 1082.000000,349.751648
	C1101.714478,349.751648 1120.656128,349.751648 1140.000000,349.751648
	C1140.000000,343.217010 1140.054321,336.922516 1139.990967,330.629181
	C1139.677979,299.540131 1140.104736,268.416107 1138.682129,237.377213
	C1137.950806,221.421005 1130.394531,207.665375 1117.652100,196.979233
	C1103.339111,184.976013 1086.562866,182.422531 1069.142822,184.286469
	C1053.204834,185.991837 1039.604980,193.563828 1028.863403,207.258743
	C1028.863403,199.261200 1028.863403,192.335358 1028.863403,185.280106
	C1009.458557,185.280106 990.399780,185.280106 971.316650,185.280106
	C971.316650,240.284561 971.316650,295.008057 971.316650,349.644318
	C990.695068,349.644318 1009.754883,349.644318 1029.000000,349.644318
	C1029.000000,347.467590 1029.000000,345.645996 1029.000000,343.824432
	C1029.000000,315.993317 1028.716797,288.157959 1029.134644,260.333099
	C1029.310547,248.629013 1033.578369,238.586029 1046.225586,233.286911
M1171.000000,333.498169
	C1171.000000,338.925201 1171.000000,344.352234 1171.000000,349.635132
	C1190.721680,349.635132 1209.777954,349.635132 1229.000000,349.635132
	C1229.000000,319.790131 1228.967773,290.309845 1229.045532,260.829865
	C1229.054077,257.582367 1229.302368,254.235382 1230.112793,251.109039
	C1232.468140,242.021957 1238.462524,235.795944 1247.267822,233.166519
	C1256.869385,230.299347 1266.030518,231.759201 1273.611450,239.106262
	C1279.776733,245.081451 1281.869751,252.755249 1281.926147,260.888977
	C1282.119019,288.710938 1282.000000,316.535065 1282.000000,344.358368
	C1282.000000,346.130249 1282.000000,347.902130 1282.000000,349.682739
	C1301.624390,349.682739 1320.679688,349.682739 1340.000000,349.682739
	C1340.000000,347.556427 1340.000000,345.745605 1340.000000,343.934784
	C1340.000000,316.278076 1340.162964,288.619904 1339.908203,260.965546
	C1339.823608,251.780441 1339.381470,242.483292 1337.842407,233.452194
	C1335.079956,217.243988 1327.153076,203.835419 1313.580444,194.055756
	C1306.005249,188.597427 1297.547485,185.775146 1288.342651,184.654526
	C1276.284058,183.186493 1264.180908,183.032440 1253.224243,188.597015
	C1244.637451,192.958038 1236.942993,199.076538 1228.962280,204.341614
	C1228.962280,198.725815 1228.962280,192.023788 1228.962280,185.311707
	C1209.386475,185.311707 1190.331177,185.311707 1171.000000,185.311707
	C1171.000000,234.581635 1171.000000,283.540131 1171.000000,333.498169
M1820.725464,297.954102
	C1813.042847,291.911560 1810.089478,283.618896 1810.046143,274.250519
	C1809.917114,246.420380 1810.000000,218.589249 1810.000000,190.758514
	C1810.000000,188.975098 1810.000000,187.191681 1810.000000,185.281479
	C1790.454590,185.281479 1771.395874,185.281479 1752.000000,185.281479
	C1752.000000,187.361649 1752.000000,189.163696 1752.000000,190.965744
	C1752.000000,219.963043 1751.765381,248.963364 1752.138062,277.955872
	C1752.255005,287.069916 1753.177490,296.350037 1755.187378,305.224335
	C1758.686035,320.672028 1766.665405,333.442596 1780.471069,342.206543
	C1791.261230,349.056213 1803.000854,351.164307 1815.497070,351.042145
	C1832.117920,350.879608 1846.517700,345.640167 1858.097168,333.417450
	C1859.478882,331.959137 1860.968994,330.603790 1863.203857,328.426147
	C1863.203857,336.391296 1863.203857,343.004272 1863.203857,349.707001
	C1882.568359,349.707001 1901.627075,349.707001 1920.671387,349.707001
	C1920.671387,294.690094 1920.671387,239.967041 1920.671387,185.367554
	C1901.280884,185.367554 1882.221069,185.367554 1863.000000,185.367554
	C1863.000000,215.057159 1863.031616,244.379349 1862.955444,273.701263
	C1862.947021,276.949677 1862.701294,280.290100 1861.923340,283.428680
	C1857.347290,301.891907 1835.854858,308.478210 1820.725464,297.954102
M764.009277,545.813904
	C764.664001,555.875122 764.269287,566.141113 766.183716,575.956604
	C770.688171,599.050842 783.202271,616.912231 804.309509,628.069580
	C830.238464,641.775757 857.152832,642.527710 884.430237,632.935425
	C907.373474,624.867371 922.703613,608.673828 931.010925,586.023438
	C937.197571,569.155396 937.629150,551.699402 933.942139,534.228516
	C927.609924,504.224396 909.137268,484.640564 880.438904,475.220734
	C860.872070,468.798218 840.761292,469.018951 820.847107,474.889465
	C799.869629,481.073486 784.000549,493.487915 773.548157,512.834595
	C768.114746,522.891541 765.656616,533.739990 764.009277,545.813904
M1432.500000,566.999634
	C1445.906738,566.999634 1459.313477,566.999634 1473.485229,566.999634
	C1472.967529,555.941956 1473.229004,545.745728 1471.877686,535.767822
	C1468.470581,510.612122 1455.198486,491.718933 1432.728760,480.048218
	C1412.543335,469.563965 1390.828735,468.672516 1368.876587,473.038818
	C1345.825195,477.623749 1328.052002,490.077301 1317.123535,510.995789
	C1305.422363,533.393188 1304.214844,557.315674 1310.398071,581.408936
	C1315.961914,603.088196 1328.998413,619.687561 1349.048340,629.864624
	C1365.982178,638.460144 1384.159668,640.583191 1403.072144,638.124695
	C1424.903687,635.286743 1443.144531,626.284546 1456.689819,608.717468
	C1463.145142,600.345520 1468.010864,591.111572 1469.698364,580.017883
	C1449.604858,580.017883 1429.955200,579.979309 1410.306885,580.115723
	C1409.153442,580.123657 1407.685913,581.303345 1406.913452,582.344910
	C1401.248657,589.983398 1393.755859,593.089844 1384.367188,591.994507
	C1373.770264,590.758179 1364.037354,579.556396 1365.696655,566.999634
	C1387.580322,566.999634 1409.540161,566.999634 1432.500000,566.999634
M1359.000000,269.463989
	C1359.668213,275.976532 1359.855835,282.582184 1361.096191,288.983887
	C1364.644287,307.295563 1373.492554,322.931213 1388.136597,334.386749
	C1408.267334,350.134521 1431.912842,354.168030 1456.661133,350.801361
	C1476.134277,348.152283 1493.048950,339.603851 1506.069336,324.394531
	C1514.054199,315.067596 1519.555542,304.503082 1521.811157,292.002136
	C1501.773193,292.002136 1482.126099,291.957397 1462.480469,292.108978
	C1461.250610,292.118439 1459.596924,293.395355 1458.887329,294.544037
	C1456.288330,298.751617 1452.727905,301.507782 1448.187866,303.406708
	C1439.889282,306.877655 1432.292847,304.860077 1425.669922,299.921082
	C1418.991821,294.940979 1416.785767,287.525940 1417.137207,278.782227
	C1453.364014,278.782227 1489.081787,278.782227 1524.880493,278.782227
	C1525.201416,262.208679 1525.439575,246.276627 1519.154175,230.816147
	C1510.911621,210.541656 1496.671753,196.659973 1476.489990,189.123093
	C1459.679321,182.845108 1442.317383,181.579285 1424.424316,184.856384
	C1398.650757,189.576813 1379.294678,202.701111 1367.473022,226.163483
	C1360.807251,239.393036 1358.659912,253.740845 1359.000000,269.463989
M1005.332520,634.159729
	C1019.686584,639.052002 1034.317383,640.022339 1049.352051,638.086731
	C1079.419678,634.215820 1100.169922,618.343079 1111.660889,590.438721
	C1113.850830,585.120605 1114.945068,579.351379 1116.628906,573.498047
	C1114.672241,573.211426 1114.029297,573.035583 1113.386230,573.034851
	C1095.055176,573.013428 1076.723267,573.098145 1058.393799,572.921814
	C1055.066040,572.889832 1054.407593,574.767761 1053.311401,577.137634
	C1050.127319,584.021667 1045.194824,588.523071 1037.078369,589.066895
	C1027.949585,589.678467 1021.142273,586.247864 1017.118164,578.159302
	C1010.611694,565.081116 1010.570862,551.251953 1014.420227,537.575439
	C1017.091431,528.084961 1023.402649,520.944458 1033.841919,520.215149
	C1043.207031,519.560852 1049.521484,524.995056 1053.825928,533.189331
	C1054.609375,534.680908 1057.443848,535.857300 1059.346924,535.879700
	C1076.675781,536.083618 1094.008057,536.007019 1111.339355,535.985474
	C1112.784424,535.983643 1114.229248,535.785706 1115.754395,535.672974
	C1115.819702,534.281494 1116.102417,533.236816 1115.877808,532.315857
	C1111.000854,512.322205 1101.174194,495.497986 1083.730103,483.954010
	C1061.570312,469.289246 1037.109863,467.980042 1012.141113,473.592651
	C988.494873,478.907959 971.143799,492.900452 960.977051,515.161438
	C952.070740,534.662903 950.932617,555.080383 955.022034,575.821838
	C960.648071,604.356628 976.963135,624.042542 1005.332520,634.159729
M1549.140991,635.588867
	C1563.634399,636.249573 1578.127686,636.910278 1592.592773,637.569641
	C1592.592773,619.874329 1592.592773,603.639160 1592.592773,587.539062
	C1591.877563,587.303833 1591.568604,587.115906 1591.257812,587.112854
	C1586.093628,587.061340 1580.929443,587.017151 1575.765137,587.002991
	C1566.135742,586.976562 1563.024658,583.886536 1563.007568,574.145752
	C1562.979492,558.148010 1562.991455,542.150146 1563.013916,526.152344
	C1563.016113,524.556091 1563.206055,522.960144 1563.343750,520.822021
	C1573.393433,520.822021 1582.974365,520.822021 1592.655762,520.822021
	C1592.655762,504.672760 1592.655762,489.105438 1592.655762,472.961090
	C1582.749146,472.961090 1573.170532,472.961090 1562.852783,472.961090
	C1562.852783,459.366089 1562.852783,446.329895 1562.852783,433.416412
	C1543.192383,433.416412 1524.290894,433.416412 1504.817383,433.416412
	C1504.817383,446.732574 1504.817383,459.642487 1504.817383,473.113953
	C1498.007812,473.113953 1491.761719,473.113953 1485.311523,473.113953
	C1485.311523,489.262024 1485.311523,504.829193 1485.311523,521.151855
	C1491.970825,521.151855 1498.347656,521.151855 1505.000000,521.151855
	C1505.000000,529.558716 1504.895508,537.214294 1505.022217,544.866089
	C1505.272583,559.981018 1504.782104,575.174255 1506.172974,590.189270
	C1508.445801,614.723022 1524.224365,630.851013 1549.140991,635.588867
M346.153992,682.062561
	C333.558441,681.041504 320.968414,679.244568 308.366211,679.154541
	C278.430817,678.940613 248.404160,677.570679 218.636093,682.076294
	C205.838364,684.013306 193.125687,686.602539 180.470505,689.339783
	C176.276108,690.247070 171.112793,692.044373 171.239853,697.298950
	C171.363724,702.421509 176.660950,703.602173 180.684189,704.955322
	C202.571701,712.317017 225.457458,713.363831 248.190170,714.847534
	C261.119720,715.691528 274.151123,715.127014 287.133606,714.959900
	C297.553802,714.825684 308.005768,714.768921 318.378448,713.899841
	C333.510132,712.632019 348.675598,711.226562 363.642487,708.761536
	C371.106506,707.532227 378.300415,704.140137 385.339539,701.087585
	C388.570892,699.686218 389.454865,696.442871 386.145752,693.739990
	C384.305847,692.237183 382.223480,690.619751 379.999023,690.068848
	C369.034119,687.353027 357.985046,684.976807 346.153992,682.062561
z"/>
<path fill="#FFFFFF" opacity="1.000000" stroke="none"
	d="
M488.016876,260.855042
	C488.344574,262.378174 488.958099,263.901123 488.959015,265.424469
	C489.005524,343.410583 489.152435,421.397308 488.859192,499.382355
	C488.806488,513.388855 483.165222,525.878601 474.537781,537.037598
	C464.389160,550.164124 450.935120,557.747864 435.064301,561.410034
	C431.104065,562.323792 426.975647,562.886169 422.917145,562.930054
	C407.088501,563.101501 391.255859,563.107178 375.426727,562.959351
	C366.045776,562.871826 358.212646,566.459412 351.757599,572.833618
	C331.956757,592.386230 312.152283,611.944214 292.788971,631.926208
	C286.041992,638.888733 272.950958,638.899658 266.204346,631.920105
	C247.792770,612.872620 228.799194,594.388916 210.130844,575.587891
	C201.638596,567.035339 191.950226,562.285339 179.472198,562.859558
	C166.003128,563.479553 152.482986,563.072388 138.985962,562.983032
	C118.312683,562.846252 100.514511,555.596985 86.761185,540.085632
	C76.096481,528.057739 70.045059,513.727905 70.033562,497.404907
	C69.965523,400.755463 69.920868,304.105804 70.085541,207.456573
	C70.110184,192.994995 75.768295,180.288147 84.579498,168.858734
	C95.052727,155.273438 109.155098,147.865646 125.523140,144.299576
	C129.664597,143.397308 134.004761,143.055695 138.254105,143.052139
	C215.241379,142.987762 292.228729,143.014679 369.677063,143.460892
	C367.250122,150.576202 363.889313,157.093399 361.574371,163.963028
	C356.999542,177.539078 356.953918,191.422791 359.746246,205.455994
	C362.024445,216.905441 367.137878,227.068161 372.407654,237.015106
	C305.132294,237.002380 238.316895,237.000778 171.501480,237.000610
	C163.551331,237.000595 162.000702,238.548737 162.000580,246.486664
	C161.999588,318.134125 161.999664,389.781555 162.000473,461.429016
	C162.000565,469.440674 163.532608,470.999176 171.417160,470.999329
	C243.231232,471.000488 315.045288,471.000153 386.859375,470.999878
	C395.671082,470.999847 396.998566,469.646545 396.999115,460.625061
	C397.003326,393.809662 397.005066,326.994263 397.354065,260.213623
	C427.683289,278.714203 457.796631,277.743073 488.016876,260.855042
z"/>
<path fill="#FFFFFF" opacity="1.000000" stroke="none"
	d="
M1673.045044,350.000214
	C1669.908569,350.000214 1667.265747,350.000214 1664.123413,350.000214
	C1664.123413,343.035919 1664.123413,336.332520 1664.123413,330.719116
	C1660.379639,333.952515 1656.537598,337.743500 1652.227173,340.893524
	C1643.656372,347.157074 1633.992310,350.033539 1623.312988,351.213074
	C1606.002686,353.125031 1590.725586,348.789246 1576.858643,338.914978
	C1565.497681,330.825104 1558.164062,319.480988 1553.058838,306.709534
	C1547.388550,292.524841 1545.455566,277.592255 1546.100830,262.464630
	C1546.917480,243.317398 1551.396118,225.035049 1563.273193,209.508896
	C1574.663086,194.619873 1589.668701,185.910599 1608.698486,183.837189
	C1621.078735,182.488297 1633.007690,183.388596 1643.823730,189.210068
	C1651.166260,193.162048 1657.391724,199.189621 1663.882812,204.111649
	C1663.882812,198.725571 1663.882812,192.070297 1663.882812,185.218491
	C1683.400635,185.218491 1702.338013,185.218491 1721.638184,185.218491
	C1721.638184,239.889633 1721.638184,294.602478 1721.638184,350.000214
	C1705.706909,350.000214 1689.622803,350.000214 1673.045044,350.000214
M1655.942017,291.356720
	C1658.133057,286.908478 1661.213989,282.675140 1662.349976,277.972076
	C1665.889404,263.319183 1664.204590,249.787369 1651.259766,239.767410
	C1636.102783,228.035080 1614.074219,235.492050 1607.937988,252.565002
	C1605.337769,259.799927 1605.240601,267.125000 1606.049927,274.525299
	C1607.126953,284.373230 1614.769531,295.673248 1625.531128,299.269470
	C1637.334595,303.213837 1646.784668,299.544098 1655.942017,291.356720
z"/>
<path fill="#FFFFFF" opacity="1.000000" stroke="none"
	d="
M939.000000,315.000000
	C939.000000,326.804688 939.000000,338.109375 939.000000,349.705841
	C919.628906,349.705841 900.569702,349.705841 880.984619,349.705841
	C880.984619,343.273682 880.984619,336.915710 880.984619,329.945984
	C870.215820,342.959778 857.259827,349.572266 841.083252,351.167145
	C819.204590,353.324219 800.767822,346.817657 785.797302,331.126984
	C774.999390,319.809692 768.341492,305.936920 766.166931,290.459930
	C764.636353,279.566193 763.536194,268.380524 764.238037,257.453278
	C765.656738,235.365051 772.968140,215.270126 789.755981,199.888977
	C799.812073,190.675430 811.817871,185.564835 825.607239,183.797684
	C837.355774,182.292099 848.348572,183.816360 859.144897,188.007339
	C867.813660,191.372421 874.729492,197.162735 880.812622,205.192673
	C880.812622,198.198349 880.812622,191.968872 880.812622,185.370819
	C900.213623,185.370819 919.274170,185.370819 939.000000,185.370819
	C939.000000,228.323837 939.000000,271.411926 939.000000,315.000000
M823.000000,268.396393
	C824.667114,274.596802 825.415649,281.250427 828.202087,286.898651
	C833.240112,297.110840 842.837585,301.195679 853.719727,300.833588
	C864.173523,300.485748 872.325073,295.187927 877.024780,285.585754
	C883.162109,273.046326 883.447815,260.151123 876.397339,248.095840
	C867.327759,232.587906 847.931213,229.002029 833.497803,241.097916
	C825.381409,247.899750 823.200562,257.362427 823.000000,268.396393
z"/>
<path fill="#FFFFFF" opacity="1.000000" stroke="none"
	d="
M1197.000000,615.999817
	C1197.000000,623.121155 1197.000000,629.742493 1197.000000,636.674316
	C1177.524048,636.674316 1158.625366,636.674316 1139.362793,636.674316
	C1139.362793,564.941223 1139.362793,493.384888 1139.362793,421.413940
	C1158.292969,421.413940 1177.192993,421.413940 1196.751465,421.413940
	C1196.751465,458.813202 1196.751465,496.311523 1196.751465,535.267944
	C1201.726074,528.475098 1205.872192,523.008423 1209.810913,517.396362
	C1219.283203,503.900177 1228.577393,490.277924 1238.170044,476.868713
	C1239.438110,475.096222 1242.015137,473.193756 1244.007446,473.169983
	C1265.332153,472.915833 1286.661133,473.026123 1307.989014,473.053162
	C1308.460449,473.053772 1308.931641,473.251556 1310.268555,473.551666
	C1306.326904,478.766968 1302.710815,483.722198 1298.918945,488.538879
	C1282.592896,509.277405 1266.256958,530.008484 1249.816895,550.656433
	C1246.971924,554.229736 1247.092651,556.422791 1250.354614,560.169373
	C1260.859497,572.234985 1270.658569,584.916321 1280.696777,597.386780
	C1289.902100,608.822510 1299.072510,620.286377 1308.235718,631.755859
	C1309.349731,633.150146 1310.323486,634.656494 1311.778687,636.694214
	C1309.968872,636.824097 1308.747925,636.987061 1307.526855,636.988037
	C1286.865234,637.003662 1266.203003,636.926086 1245.542358,637.071228
	C1242.113403,637.095276 1240.229004,635.882568 1238.344238,633.047180
	C1225.735840,614.079102 1212.903564,595.259766 1200.137329,576.396606
	C1199.345581,575.226624 1198.497803,574.094482 1197.000000,571.998779
	C1197.000000,587.298096 1197.000000,601.398987 1197.000000,615.999817
z"/>
<path fill="#FFFFFF" opacity="1.000000" stroke="none"
	d="
M588.000122,168.000000
	C588.000122,159.528107 588.000122,151.556213 588.000122,142.999756
	C590.076111,142.999756 591.845886,142.999756 593.615723,142.999756
	C619.948914,142.999756 646.292480,142.570251 672.610291,143.206680
	C683.459351,143.469040 694.632507,144.736023 704.994995,147.793701
	C728.556824,154.746124 744.425110,170.185608 749.323242,194.880966
	C754.203125,219.484100 750.638794,242.407013 731.713440,260.595367
	C720.784302,271.098846 707.277039,277.535828 692.104919,278.831055
	C678.749146,279.971191 665.270203,279.671509 651.845337,279.994049
	C650.055054,280.037079 648.262878,280.000000 646.162598,280.000000
	C646.162598,303.364380 646.162598,326.308075 646.162598,349.625305
	C626.792725,349.625305 607.731506,349.625305 588.000122,349.625305
	C588.000122,289.345306 588.000122,228.922653 588.000122,168.000000
M668.184082,190.000870
	C660.922424,190.000870 653.660767,190.000870 646.244019,190.000870
	C646.244019,204.858765 646.244019,219.222397 646.244019,233.995697
	C654.916992,233.995697 663.429321,234.713593 671.766785,233.812958
	C682.062927,232.700729 688.903931,230.107864 691.485840,217.854538
	C693.743286,207.140762 690.613708,196.715973 679.514465,192.310425
	C676.256531,191.017288 672.592957,190.746246 668.184082,190.000870
z"/>
<path fill="#FFFFFF" opacity="1.000000" stroke="none"
	d="
M617.000000,431.000000
	C638.824219,431.000061 660.155762,430.659576 681.470215,431.115936
	C696.529785,431.438385 710.712952,435.457642 723.580139,443.769684
	C738.092468,453.144531 746.485168,466.754913 749.695068,483.172943
	C752.677917,498.429749 751.933533,513.714783 745.393616,528.406067
	C738.490784,543.912720 726.918579,554.322632 711.664917,560.928528
	C699.027649,566.401367 685.598267,567.905640 671.965759,567.990601
	C663.516663,568.043213 655.067017,568.000366 646.059387,568.000366
	C646.059387,591.155396 646.059387,613.723206 646.059387,636.641235
	C626.595215,636.641235 607.698669,636.641235 588.400146,636.641235
	C588.400146,568.357239 588.400146,500.142303 588.400146,431.000000
	C597.681763,431.000000 607.090881,431.000000 617.000000,431.000000
M689.170105,487.528137
	C685.913635,484.931580 682.928833,480.627686 679.349854,480.058197
	C668.559998,478.341492 657.539124,478.077179 646.450684,477.234558
	C646.450684,492.694855 646.450684,506.687073 646.450684,520.976501
	C655.859741,520.976501 664.860474,521.465027 673.765503,520.754211
	C677.747375,520.436401 682.176025,518.486755 685.286987,515.924194
	C692.788940,509.744720 694.120605,498.789734 689.170105,487.528137
z"/>
<path fill="#FFFFFF" opacity="1.000000" stroke="none"
	d="
M1045.927734,233.564728
	C1033.578369,238.586029 1029.310547,248.629013 1029.134644,260.333099
	C1028.716797,288.157959 1029.000000,315.993317 1029.000000,343.824432
	C1029.000000,345.645996 1029.000000,347.467590 1029.000000,349.644318
	C1009.754883,349.644318 990.695068,349.644318 971.316650,349.644318
	C971.316650,295.008057 971.316650,240.284561 971.316650,185.280106
	C990.399780,185.280106 1009.458557,185.280106 1028.863403,185.280106
	C1028.863403,192.335358 1028.863403,199.261200 1028.863403,207.258743
	C1039.604980,193.563828 1053.204834,185.991837 1069.142822,184.286469
	C1086.562866,182.422531 1103.339111,184.976013 1117.652100,196.979233
	C1130.394531,207.665375 1137.950806,221.421005 1138.682129,237.377213
	C1140.104736,268.416107 1139.677979,299.540131 1139.990967,330.629181
	C1140.054321,336.922516 1140.000000,343.217010 1140.000000,349.751648
	C1120.656128,349.751648 1101.714478,349.751648 1082.000000,349.751648
	C1082.000000,348.134735 1082.000000,346.390320 1082.000000,344.645874
	C1082.000000,316.148163 1082.029053,287.650391 1081.988647,259.152740
	C1081.965942,243.152313 1070.022095,230.917648 1053.943970,232.035599
	C1051.354614,232.215668 1048.797607,232.858185 1045.927734,233.564728
z"/>
<path fill="#FFFFFF" opacity="1.000000" stroke="none"
	d="
M1171.000000,332.998413
	C1171.000000,283.540131 1171.000000,234.581635 1171.000000,185.311707
	C1190.331177,185.311707 1209.386475,185.311707 1228.962280,185.311707
	C1228.962280,192.023788 1228.962280,198.725815 1228.962280,204.341614
	C1236.942993,199.076538 1244.637451,192.958038 1253.224243,188.597015
	C1264.180908,183.032440 1276.284058,183.186493 1288.342651,184.654526
	C1297.547485,185.775146 1306.005249,188.597427 1313.580444,194.055756
	C1327.153076,203.835419 1335.079956,217.243988 1337.842407,233.452194
	C1339.381470,242.483292 1339.823608,251.780441 1339.908203,260.965546
	C1340.162964,288.619904 1340.000000,316.278076 1340.000000,343.934784
	C1340.000000,345.745605 1340.000000,347.556427 1340.000000,349.682739
	C1320.679688,349.682739 1301.624390,349.682739 1282.000000,349.682739
	C1282.000000,347.902130 1282.000000,346.130249 1282.000000,344.358368
	C1282.000000,316.535065 1282.119019,288.710938 1281.926147,260.888977
	C1281.869751,252.755249 1279.776733,245.081451 1273.611450,239.106262
	C1266.030518,231.759201 1256.869385,230.299347 1247.267822,233.166519
	C1238.462524,235.795944 1232.468140,242.021957 1230.112793,251.109039
	C1229.302368,254.235382 1229.054077,257.582367 1229.045532,260.829865
	C1228.967773,290.309845 1229.000000,319.790131 1229.000000,349.635132
	C1209.777954,349.635132 1190.721680,349.635132 1171.000000,349.635132
	C1171.000000,344.352234 1171.000000,338.925201 1171.000000,332.998413
z"/>
<path fill="#FFFFFF" opacity="1.000000" stroke="none"
	d="
M1821.094482,298.015564
	C1835.854858,308.478210 1857.347290,301.891907 1861.923340,283.428680
	C1862.701294,280.290100 1862.947021,276.949677 1862.955444,273.701263
	C1863.031616,244.379349 1863.000000,215.057159 1863.000000,185.367554
	C1882.221069,185.367554 1901.280884,185.367554 1920.671387,185.367554
	C1920.671387,239.967041 1920.671387,294.690094 1920.671387,349.707001
	C1901.627075,349.707001 1882.568359,349.707001 1863.203857,349.707001
	C1863.203857,343.004272 1863.203857,336.391296 1863.203857,328.426147
	C1860.968994,330.603790 1859.478882,331.959137 1858.097168,333.417450
	C1846.517700,345.640167 1832.117920,350.879608 1815.497070,351.042145
	C1803.000854,351.164307 1791.261230,349.056213 1780.471069,342.206543
	C1766.665405,333.442596 1758.686035,320.672028 1755.187378,305.224335
	C1753.177490,296.350037 1752.255005,287.069916 1752.138062,277.955872
	C1751.765381,248.963364 1752.000000,219.963043 1752.000000,190.965744
	C1752.000000,189.163696 1752.000000,187.361649 1752.000000,185.281479
	C1771.395874,185.281479 1790.454590,185.281479 1810.000000,185.281479
	C1810.000000,187.191681 1810.000000,188.975098 1810.000000,190.758514
	C1810.000000,218.589249 1809.917114,246.420380 1810.046143,274.250519
	C1810.089478,283.618896 1813.042847,291.911560 1821.094482,298.015564
z"/>
<path fill="#FFFFFF" opacity="1.000000" stroke="none"
	d="
M488.187531,260.545593
	C457.796631,277.743073 427.683289,278.714203 397.037567,260.057617
	C387.173126,253.659149 379.260803,246.124603 372.867554,237.026672
	C367.137878,227.068161 362.024445,216.905441 359.746246,205.455994
	C356.953918,191.422791 356.999542,177.539078 361.574371,163.963028
	C363.889313,157.093399 367.250122,150.576202 370.151245,143.533081
	C374.170898,138.216324 377.801086,132.895096 382.250854,128.381973
	C399.032654,111.361389 419.345154,102.917519 443.462006,102.886703
	C468.977692,102.854103 490.123535,112.439156 507.124023,130.847977
	C518.999451,143.707123 525.695374,159.281509 528.131592,176.849655
	C530.534180,194.174988 527.681763,210.483292 520.368103,226.044968
	C513.794250,240.032684 503.458984,250.969940 490.719513,259.640656
	C490.089264,260.069611 489.152313,260.047974 488.187531,260.545593
M455.999939,163.500122
	C455.999939,156.395020 455.999939,149.289932 455.999939,142.229858
	C443.676117,142.229858 431.966827,142.229858 420.001678,142.229858
	C420.001678,148.101349 420.114105,153.582581 419.958313,159.056152
	C419.868927,162.197250 421.270630,163.175659 424.175842,163.028946
	C426.954742,162.888626 429.746277,162.998672 433.000061,162.998672
	C433.000061,175.241226 433.000061,187.021393 433.000061,198.801559
	C433.000061,210.737411 433.000061,222.673264 433.000061,234.999832
	C439.171326,234.999832 444.814880,234.741638 450.422058,235.082428
	C454.817627,235.349594 456.136963,233.877213 456.094391,229.456345
	C455.885834,207.805954 455.999908,186.152451 455.999939,163.500122
z"/>
<path fill="#FFFFFF" opacity="1.000000" stroke="none"
	d="
M764.023376,545.347839
	C765.656616,533.739990 768.114746,522.891541 773.548157,512.834595
	C784.000549,493.487915 799.869629,481.073486 820.847107,474.889465
	C840.761292,469.018951 860.872070,468.798218 880.438904,475.220734
	C909.137268,484.640564 927.609924,504.224396 933.942139,534.228516
	C937.629150,551.699402 937.197571,569.155396 931.010925,586.023438
	C922.703613,608.673828 907.373474,624.867371 884.430237,632.935425
	C857.152832,642.527710 830.238464,641.775757 804.309509,628.069580
	C783.202271,616.912231 770.688171,599.050842 766.183716,575.956604
	C764.269287,566.141113 764.664001,555.875122 764.023376,545.347839
M823.944885,563.510925
	C824.305969,565.450439 824.434753,567.469299 825.066284,569.316406
	C828.829407,580.321838 834.915405,586.719543 848.687561,588.774841
	C856.237244,589.901489 868.215637,583.306152 872.096375,575.465393
	C879.706116,560.090515 879.843018,544.471130 869.461914,530.538147
	C862.689819,521.448914 850.098083,518.094666 838.265991,524.061584
	C824.656982,530.924683 821.106262,550.977051 823.944885,563.510925
z"/>
<path fill="#FFFFFF" opacity="1.000000" stroke="none"
	d="
M1432.000000,566.999634
	C1409.540161,566.999634 1387.580322,566.999634 1365.696655,566.999634
	C1364.037354,579.556396 1373.770264,590.758179 1384.367188,591.994507
	C1393.755859,593.089844 1401.248657,589.983398 1406.913452,582.344910
	C1407.685913,581.303345 1409.153442,580.123657 1410.306885,580.115723
	C1429.955200,579.979309 1449.604858,580.017883 1469.698364,580.017883
	C1468.010864,591.111572 1463.145142,600.345520 1456.689819,608.717468
	C1443.144531,626.284546 1424.903687,635.286743 1403.072144,638.124695
	C1384.159668,640.583191 1365.982178,638.460144 1349.048340,629.864624
	C1328.998413,619.687561 1315.961914,603.088196 1310.398071,581.408936
	C1304.214844,557.315674 1305.422363,533.393188 1317.123535,510.995789
	C1328.052002,490.077301 1345.825195,477.623749 1368.876587,473.038818
	C1390.828735,468.672516 1412.543335,469.563965 1432.728760,480.048218
	C1455.198486,491.718933 1468.470581,510.612122 1471.877686,535.767822
	C1473.229004,545.745728 1472.967529,555.941956 1473.485229,566.999634
	C1459.313477,566.999634 1445.906738,566.999634 1432.000000,566.999634
M1400.450928,518.820984
	C1383.459473,512.112366 1366.638184,523.089233 1365.965332,537.668457
	C1381.846802,537.668457 1397.728271,537.668457 1413.971069,537.668457
	C1413.607178,528.435486 1409.139282,522.571045 1400.450928,518.820984
z"/>
<path fill="#FFFFFF" opacity="1.000000" stroke="none"
	d="
M1359.000000,268.973022
	C1358.659912,253.740845 1360.807251,239.393036 1367.473022,226.163483
	C1379.294678,202.701111 1398.650757,189.576813 1424.424316,184.856384
	C1442.317383,181.579285 1459.679321,182.845108 1476.489990,189.123093
	C1496.671753,196.659973 1510.911621,210.541656 1519.154175,230.816147
	C1525.439575,246.276627 1525.201416,262.208679 1524.880493,278.782227
	C1489.081787,278.782227 1453.364014,278.782227 1417.137207,278.782227
	C1416.785767,287.525940 1418.991821,294.940979 1425.669922,299.921082
	C1432.292847,304.860077 1439.889282,306.877655 1448.187866,303.406708
	C1452.727905,301.507782 1456.288330,298.751617 1458.887329,294.544037
	C1459.596924,293.395355 1461.250610,292.118439 1462.480469,292.108978
	C1482.126099,291.957397 1501.773193,292.002136 1521.811157,292.002136
	C1519.555542,304.503082 1514.054199,315.067596 1506.069336,324.394531
	C1493.048950,339.603851 1476.134277,348.152283 1456.661133,350.801361
	C1431.912842,354.168030 1408.267334,350.134521 1388.136597,334.386749
	C1373.492554,322.931213 1364.644287,307.295563 1361.096191,288.983887
	C1359.855835,282.582184 1359.668213,275.976532 1359.000000,268.973022
M1465.976807,249.602249
	C1465.971924,248.770950 1466.151611,247.887878 1465.934814,247.116089
	C1462.287476,234.122787 1451.954590,227.983475 1438.901245,230.044968
	C1425.381958,232.180023 1418.961426,238.628204 1417.144775,251.000000
	C1424.974609,251.000000 1432.741211,251.065674 1440.505981,250.982285
	C1448.951172,250.891602 1457.394897,250.662445 1465.976807,249.602249
z"/>
<path fill="#FFFFFF" opacity="1.000000" stroke="none"
	d="
M1004.941467,634.084106
	C976.963135,624.042542 960.648071,604.356628 955.022034,575.821838
	C950.932617,555.080383 952.070740,534.662903 960.977051,515.161438
	C971.143799,492.900452 988.494873,478.907959 1012.141113,473.592651
	C1037.109863,467.980042 1061.570312,469.289246 1083.730103,483.954010
	C1101.174194,495.497986 1111.000854,512.322205 1115.877808,532.315857
	C1116.102417,533.236816 1115.819702,534.281494 1115.754395,535.672974
	C1114.229248,535.785706 1112.784424,535.983643 1111.339355,535.985474
	C1094.008057,536.007019 1076.675781,536.083618 1059.346924,535.879700
	C1057.443848,535.857300 1054.609375,534.680908 1053.825928,533.189331
	C1049.521484,524.995056 1043.207031,519.560852 1033.841919,520.215149
	C1023.402649,520.944458 1017.091431,528.084961 1014.420227,537.575439
	C1010.570862,551.251953 1010.611694,565.081116 1017.118164,578.159302
	C1021.142273,586.247864 1027.949585,589.678467 1037.078369,589.066895
	C1045.194824,588.523071 1050.127319,584.021667 1053.311401,577.137634
	C1054.407593,574.767761 1055.066040,572.889832 1058.393799,572.921814
	C1076.723267,573.098145 1095.055176,573.013428 1113.386230,573.034851
	C1114.029297,573.035583 1114.672241,573.211426 1116.628906,573.498047
	C1114.945068,579.351379 1113.850830,585.120605 1111.660889,590.438721
	C1100.169922,618.343079 1079.419678,634.215820 1049.352051,638.086731
	C1034.317383,640.022339 1019.686584,639.052002 1004.941467,634.084106
z"/>
<path fill="#FFFFFF" opacity="1.000000" stroke="none"
	d="
M1548.756470,635.389404
	C1524.224365,630.851013 1508.445801,614.723022 1506.172974,590.189270
	C1504.782104,575.174255 1505.272583,559.981018 1505.022217,544.866089
	C1504.895508,537.214294 1505.000000,529.558716 1505.000000,521.151855
	C1498.347656,521.151855 1491.970825,521.151855 1485.311523,521.151855
	C1485.311523,504.829193 1485.311523,489.262024 1485.311523,473.113953
	C1491.761719,473.113953 1498.007812,473.113953 1504.817383,473.113953
	C1504.817383,459.642487 1504.817383,446.732574 1504.817383,433.416412
	C1524.290894,433.416412 1543.192383,433.416412 1562.852783,433.416412
	C1562.852783,446.329895 1562.852783,459.366089 1562.852783,472.961090
	C1573.170532,472.961090 1582.749146,472.961090 1592.655762,472.961090
	C1592.655762,489.105438 1592.655762,504.672760 1592.655762,520.822021
	C1582.974365,520.822021 1573.393433,520.822021 1563.343750,520.822021
	C1563.206055,522.960144 1563.016113,524.556091 1563.013916,526.152344
	C1562.991455,542.150146 1562.979492,558.148010 1563.007568,574.145752
	C1563.024658,583.886536 1566.135742,586.976562 1575.765137,587.002991
	C1580.929443,587.017151 1586.093628,587.061340 1591.257812,587.112854
	C1591.568604,587.115906 1591.877563,587.303833 1592.592773,587.539062
	C1592.592773,603.639160 1592.592773,619.874329 1592.592773,637.569641
	C1578.127686,636.910278 1563.634399,636.249573 1548.756470,635.389404
z"/>
<path fill="#FFFFFF" opacity="1.000000" stroke="none"
	d="
M346.559845,682.271667
	C357.985046,684.976807 369.034119,687.353027 379.999023,690.068848
	C382.223480,690.619751 384.305847,692.237183 386.145752,693.739990
	C389.454865,696.442871 388.570892,699.686218 385.339539,701.087585
	C378.300415,704.140137 371.106506,707.532227 363.642487,708.761536
	C348.675598,711.226562 333.510132,712.632019 318.378448,713.899841
	C308.005768,714.768921 297.553802,714.825684 287.133606,714.959900
	C274.151123,715.127014 261.119720,715.691528 248.190170,714.847534
	C225.457458,713.363831 202.571701,712.317017 180.684189,704.955322
	C176.660950,703.602173 171.363724,702.421509 171.239853,697.298950
	C171.112793,692.044373 176.276108,690.247070 180.470505,689.339783
	C193.125687,686.602539 205.838364,684.013306 218.636093,682.076294
	C248.404160,677.570679 278.430817,678.940613 308.366211,679.154541
	C320.968414,679.244568 333.558441,681.041504 346.559845,682.271667
z"/>
<path fill="#000000" opacity="0" stroke="none"
	d="
M372.407654,237.015106
	C379.260803,246.124603 387.173126,253.659149 396.691101,260.022858
	C397.005066,326.994263 397.003326,393.809662 396.999115,460.625061
	C396.998566,469.646545 395.671082,470.999847 386.859375,470.999878
	C315.045288,471.000153 243.231232,471.000488 171.417160,470.999329
	C163.532608,470.999176 162.000565,469.440674 162.000473,461.429016
	C161.999664,389.781555 161.999588,318.134125 162.000580,246.486664
	C162.000702,238.548737 163.551331,237.000595 171.501480,237.000610
	C238.316895,237.000778 305.132294,237.002380 372.407654,237.015106
M370.506653,381.991394
	C378.635406,368.469543 384.950439,354.524078 383.147064,338.028687
	C382.631897,333.316376 380.446350,330.982727 376.441467,330.130219
	C369.341766,328.618896 364.632477,330.264893 363.272705,334.748047
	C362.280457,338.019623 362.190918,341.554108 361.522736,344.936615
	C357.277374,366.428314 344.360077,383.023682 329.853851,398.225861
	C322.435028,406.000702 313.266876,412.409790 304.072968,418.122253
	C286.591339,428.984070 268.027649,434.116516 247.001083,428.357147
	C229.372437,423.528503 215.742157,413.165741 202.799164,401.257965
	C194.602814,393.717163 187.234421,385.520569 182.876511,374.993622
	C182.231064,373.434418 180.274170,372.418060 178.924011,371.150574
	C177.575638,372.766907 175.372787,374.219360 175.026001,376.027740
	C173.477676,384.101807 175.795425,391.924622 179.596725,398.690277
	C184.407608,407.252777 190.425934,415.210907 196.511337,422.968597
	C211.191101,441.682343 231.141953,450.523956 254.440628,451.831268
	C261.925720,452.251251 269.513123,450.292328 277.069794,450.117523
	C289.585846,449.828003 300.535400,444.470978 311.151367,439.120209
	C328.252380,430.500763 343.159729,418.632202 355.026367,403.375275
	C360.274719,396.627441 365.102692,389.552612 370.506653,381.991394
M288.026917,282.830597
	C286.300690,293.376343 286.302521,303.865234 289.014984,314.274261
	C289.717865,316.971558 290.774933,319.671936 290.888367,322.403290
	C291.029358,325.799042 292.237549,328.040192 295.614471,328.184357
	C300.483307,328.392212 305.384888,328.269470 310.243866,327.905823
	C311.217651,327.832977 312.596039,326.182343 312.884521,325.032562
	C315.370148,315.126190 314.848389,305.243744 312.297180,295.400238
	C311.979370,294.174194 312.230225,292.788422 312.287415,291.479736
	C312.489075,286.864288 313.007690,282.237457 312.803345,277.641754
	C312.719421,275.753784 311.587830,273.246674 310.102081,272.196747
	C301.613953,266.198425 293.411011,268.714508 289.375183,278.252533
	C288.862946,279.463043 288.528900,280.748932 288.026917,282.830597
M213.010147,317.287170
	C214.058945,322.267303 214.664444,327.394196 216.253632,332.195465
	C219.107147,340.816620 223.431458,342.552368 231.692352,339.152618
	C237.273804,336.855591 238.860474,333.667816 237.460419,327.867371
	C235.493195,319.716980 233.560165,311.557831 231.691864,303.384277
	C230.341370,297.476044 229.205765,291.517975 227.806152,285.622040
	C227.060760,282.482086 224.712006,281.752991 221.687561,281.971863
	C214.907089,282.462616 212.024689,285.559357 212.066437,293.578003
	C212.106003,301.180267 212.669342,308.779785 213.010147,317.287170
z"/>
<path fill="#000000" opacity="0" stroke="none"
	d="
M1655.733521,291.659607
	C1646.784668,299.544098 1637.334595,303.213837 1625.531128,299.269470
	C1614.769531,295.673248 1607.126953,284.373230 1606.049927,274.525299
	C1605.240601,267.125000 1605.337769,259.799927 1607.937988,252.565002
	C1614.074219,235.492050 1636.102783,228.035080 1651.259766,239.767410
	C1664.204590,249.787369 1665.889404,263.319183 1662.349976,277.972076
	C1661.213989,282.675140 1658.133057,286.908478 1655.733521,291.659607
z"/>
<path fill="#000000" opacity="0" stroke="none"
	d="
M823.000000,267.932739
	C823.200562,257.362427 825.381409,247.899750 833.497803,241.097916
	C847.931213,229.002029 867.327759,232.587906 876.397339,248.095840
	C883.447815,260.151123 883.162109,273.046326 877.024780,285.585754
	C872.325073,295.187927 864.173523,300.485748 853.719727,300.833588
	C842.837585,301.195679 833.240112,297.110840 828.202087,286.898651
	C825.415649,281.250427 824.667114,274.596802 823.000000,267.932739
z"/>
<path fill="#000000" opacity="0" stroke="none"
	d="
M668.649658,190.003815
	C672.592957,190.746246 676.256531,191.017288 679.514465,192.310425
	C690.613708,196.715973 693.743286,207.140762 691.485840,217.854538
	C688.903931,230.107864 682.062927,232.700729 671.766785,233.812958
	C663.429321,234.713593 654.916992,233.995697 646.244019,233.995697
	C646.244019,219.222397 646.244019,204.858765 646.244019,190.000870
	C653.660767,190.000870 660.922424,190.000870 668.649658,190.003815
z"/>
<path fill="#000000" opacity="0" stroke="none"
	d="
M689.388367,487.842194
	C694.120605,498.789734 692.788940,509.744720 685.286987,515.924194
	C682.176025,518.486755 677.747375,520.436401 673.765503,520.754211
	C664.860474,521.465027 655.859741,520.976501 646.450684,520.976501
	C646.450684,506.687073 646.450684,492.694855 646.450684,477.234558
	C657.539124,478.077179 668.559998,478.341492 679.349854,480.058197
	C682.928833,480.627686 685.913635,484.931580 689.388367,487.842194
z"/>
<path fill="#FFFFFF" opacity="0" stroke="none"
	d="
M455.999939,164.000092
	C455.999908,186.152451 455.885834,207.805954 456.094391,229.456345
	C456.136963,233.877213 454.817627,235.349594 450.422058,235.082428
	C444.814880,234.741638 439.171326,234.999832 433.000061,234.999832
	C433.000061,222.673264 433.000061,210.737411 433.000061,198.801559
	C433.000061,187.021393 433.000061,175.241226 433.000061,162.998672
	C429.746277,162.998672 426.954742,162.888626 424.175842,163.028946
	C421.270630,163.175659 419.868927,162.197250 419.958313,159.056152
	C420.114105,153.582581 420.001678,148.101349 420.001678,142.229858
	C431.966827,142.229858 443.676117,142.229858 455.999939,142.229858
	C455.999939,149.289932 455.999939,156.395020 455.999939,164.000092
z"/>
<path fill="#000000" opacity="0" stroke="none"
	d="
M823.876587,563.076050
	C821.106262,550.977051 824.656982,530.924683 838.265991,524.061584
	C850.098083,518.094666 862.689819,521.448914 869.461914,530.538147
	C879.843018,544.471130 879.706116,560.090515 872.096375,575.465393
	C868.215637,583.306152 856.237244,589.901489 848.687561,588.774841
	C834.915405,586.719543 828.829407,580.321838 825.066284,569.316406
	C824.434753,567.469299 824.305969,565.450439 823.876587,563.076050
z"/>
<path fill="#000000" opacity="0" stroke="none"
	d="
M1400.822510,518.945190
	C1409.139282,522.571045 1413.607178,528.435486 1413.971069,537.668457
	C1397.728271,537.668457 1381.846802,537.668457 1365.964111,537.675293
	C1366.638184,523.089233 1383.459473,512.112366 1400.822510,518.945190
z"/>
<path fill="#000000" opacity="0" stroke="none"
	d="
M1465.907959,250.047974
	C1457.394897,250.662445 1448.951172,250.891602 1440.505981,250.982285
	C1432.741211,251.065674 1424.974609,251.000000 1417.144775,251.000000
	C1418.961426,238.628204 1425.381958,232.180023 1438.901245,230.044968
	C1451.954590,227.983475 1462.287476,234.122787 1465.934814,247.116089
	C1466.151611,247.887878 1465.971924,248.770950 1465.907959,250.047974
z"/>
<path fill="#FFFFFF" opacity="1.000000" stroke="none"
	d="
M370.314087,382.308807
	C365.102692,389.552612 360.274719,396.627441 355.026367,403.375275
	C343.159729,418.632202 328.252380,430.500763 311.151367,439.120209
	C300.535400,444.470978 289.585846,449.828003 277.069794,450.117523
	C269.513123,450.292328 261.925720,452.251251 254.440628,451.831268
	C231.141953,450.523956 211.191101,441.682343 196.511337,422.968597
	C190.425934,415.210907 184.407608,407.252777 179.596725,398.690277
	C175.795425,391.924622 173.477676,384.101807 175.026001,376.027740
	C175.372787,374.219360 177.575638,372.766907 178.924011,371.150574
	C180.274170,372.418060 182.231064,373.434418 182.876511,374.993622
	C187.234421,385.520569 194.602814,393.717163 202.799164,401.257965
	C215.742157,413.165741 229.372437,423.528503 247.001083,428.357147
	C268.027649,434.116516 286.591339,428.984070 304.072968,418.122253
	C313.266876,412.409790 322.435028,406.000702 329.853851,398.225861
	C344.360077,383.023682 357.277374,366.428314 361.522736,344.936615
	C362.190918,341.554108 362.280457,338.019623 363.272705,334.748047
	C364.632477,330.264893 369.341766,328.618896 376.441467,330.130219
	C380.446350,330.982727 382.631897,333.316376 383.147064,338.028687
	C384.950439,354.524078 378.635406,368.469543 370.314087,382.308807
z"/>
<path fill="#FFFFFF" opacity="1.000000" stroke="none"
	d="
M288.069641,282.415253
	C288.528900,280.748932 288.862946,279.463043 289.375183,278.252533
	C293.411011,268.714508 301.613953,266.198425 310.102081,272.196747
	C311.587830,273.246674 312.719421,275.753784 312.803345,277.641754
	C313.007690,282.237457 312.489075,286.864288 312.287415,291.479736
	C312.230225,292.788422 311.979370,294.174194 312.297180,295.400238
	C314.848389,305.243744 315.370148,315.126190 312.884521,325.032562
	C312.596039,326.182343 311.217651,327.832977 310.243866,327.905823
	C305.384888,328.269470 300.483307,328.392212 295.614471,328.184357
	C292.237549,328.040192 291.029358,325.799042 290.888367,322.403290
	C290.774933,319.671936 289.717865,316.971558 289.014984,314.274261
	C286.302521,303.865234 286.300690,293.376343 288.069641,282.415253
z"/>
<path fill="#FFFFFF" opacity="1.000000" stroke="none"
	d="
M213.006256,316.833862
	C212.669342,308.779785 212.106003,301.180267 212.066437,293.578003
	C212.024689,285.559357 214.907089,282.462616 221.687561,281.971863
	C224.712006,281.752991 227.060760,282.482086 227.806152,285.622040
	C229.205765,291.517975 230.341370,297.476044 231.691864,303.384277
	C233.560165,311.557831 235.493195,319.716980 237.460419,327.867371
	C238.860474,333.667816 237.273804,336.855591 231.692352,339.152618
	C223.431458,342.552368 219.107147,340.816620 216.253632,332.195465
	C214.664444,327.394196 214.058945,322.267303 213.006256,316.833862
z"/>
</svg>
