<svg width="52" height="42" viewBox="0 0 52 42" fill="none" xmlns="http://www.w3.org/2000/svg">
<path opacity="0.1" d="M36.5802 0.00634766H30.2176C29.1718 0.00634766 28.2424 0.740091 27.9083 1.82945L22.3715 19.8834L16.8347 37.9374C16.302 39.674 17.4769 41.4726 19.144 41.4726H22.6508C23.7089 41.4726 24.6456 40.7222 24.9704 39.6157C25.8308 36.6818 26.9774 32.7719 27.8379 29.8379C28.6709 26.9973 29.5054 24.1573 30.337 21.3167C31.42 17.6162 32.0862 17.852 35.6214 17.9684L40.4005 34.7202L40.4274 34.7227L41.8313 39.6006C42.1517 40.7154 43.0919 41.4731 44.1553 41.4731H47.7003C49.3683 41.4731 50.5438 39.672 50.0086 37.9345L44.4483 19.8805L38.888 1.82652C38.5535 0.738623 37.625 0.00634766 36.5802 0.00634766Z" fill="#6249D6"/>
<path opacity="0.2" d="M34.721 0.0126953H28.3594C27.3136 0.0126953 26.3847 0.746438 26.0506 1.8358L20.5147 19.8869L14.9789 37.9379C14.4462 39.674 15.6212 41.4726 17.2877 41.4726H20.794C21.8516 41.4726 22.7888 40.7222 23.1132 39.6157C23.8777 37.008 25.2156 32.4471 25.9801 29.8393C26.8132 26.9993 27.6472 24.1597 28.4788 21.3191C29.5618 17.6191 30.2275 17.8549 33.7622 17.9713L38.5404 34.7207L38.5653 34.7256L39.9712 39.6006C40.2911 40.7149 41.2317 41.4726 42.2947 41.4726H45.8391C47.5072 41.4726 48.6822 39.6715 48.147 37.935L42.5877 19.8839L37.0284 1.83287C36.6943 0.744482 35.7658 0.0126953 34.721 0.0126953Z" fill="#745DDA"/>
<path opacity="0.3" d="M32.8621 0.0185547H26.5015C25.4557 0.0185547 24.5267 0.751809 24.1926 1.84117L18.6578 19.8898L13.1229 37.9384C12.5907 39.6744 13.7652 41.4726 15.4318 41.4726H18.9376C19.9952 41.4726 20.9319 40.7227 21.2562 39.6162C21.9254 37.3343 23.4535 32.1232 24.1227 29.8413C24.9553 27.0017 25.7898 24.1626 26.6208 21.3225C27.7039 17.623 28.3696 17.8588 31.9038 17.9752L36.6814 34.7222L36.7039 34.73L38.1118 39.6015C38.4317 40.7159 39.3718 41.4736 40.4348 41.4736H43.9788C45.6463 41.4736 46.8213 39.673 46.2866 37.9364L40.7283 19.8878L35.1699 1.83922C34.8349 0.751809 33.9069 0.019533 32.8621 0.019533V0.0185547Z" fill="#8572DF"/>
<path opacity="0.4" d="M31.0028 0.0249023H24.6427C23.5974 0.0249023 22.6684 0.758156 22.3343 1.84752L16.8 19.8932L11.2656 37.9389C10.7334 39.6744 11.9079 41.4726 13.5739 41.4726H17.0793C18.1368 41.4726 19.0731 40.7227 19.3979 39.6162C19.9717 37.6605 21.6906 31.7984 22.2639 29.8428C23.0965 27.0037 23.9305 24.1646 24.7616 21.325C25.8446 17.6259 26.5098 17.8617 30.0435 17.9781L34.8202 34.7226L34.8407 34.7329L36.2505 39.601C36.5704 40.7154 37.5106 41.4726 38.5735 41.4726H42.117C43.7846 41.4726 44.9591 39.672 44.4244 37.9359L38.867 19.8903L33.3097 1.84458C32.9746 0.757178 32.0467 0.0253915 31.0023 0.0253915L31.0028 0.0249023Z" fill="#9786E3"/>
<path opacity="0.49" d="M29.144 0.0307617H22.7849C21.7395 0.0307617 20.8106 0.764015 20.477 1.85289L14.9436 19.8961L9.41019 37.9393C8.87798 39.6749 10.052 41.4726 11.7181 41.4726H15.2229C16.28 41.4726 17.2167 40.7227 17.541 39.6167C18.0189 37.9868 19.9286 31.4746 20.4065 29.8447C21.2391 27.0061 22.0731 24.1675 22.9042 21.3284C23.9867 17.6298 24.6525 17.8656 28.1857 17.982L32.9619 34.7241L32.98 34.7368L34.3917 39.602C34.7116 40.7158 35.6518 41.4731 36.7142 41.4731H40.2572C41.9243 41.4731 43.0988 39.6729 42.5641 37.9369L37.0072 19.8937L31.4504 1.85044C31.1153 0.763037 30.1873 0.03174 29.1435 0.03174L29.144 0.0307617Z" fill="#A89AE8"/>
<path opacity="0.59" d="M27.2847 0.0371094H20.9266C19.8813 0.0371094 18.9528 0.770363 18.6187 1.85924L13.0863 19.8995L7.55389 37.9398C7.02168 39.6749 8.19567 41.4725 9.86176 41.4725H13.3661C14.4232 41.4725 15.3594 40.7227 15.6838 39.6167C16.0663 38.3126 18.1667 31.1503 18.5493 29.8461C19.3818 27.0075 20.2154 24.1699 21.0464 21.3308C22.129 17.6328 22.7942 17.8685 26.327 17.985L31.1021 34.7241L31.1183 34.7392L32.532 39.601C32.8519 40.7148 33.7916 41.4721 34.854 41.4721H38.3965C40.0636 41.4721 41.2376 39.6719 40.7029 37.9364L35.147 19.8961L29.5911 1.85581C29.2565 0.768896 28.3286 0.0371094 27.2847 0.0371094Z" fill="#B9AEED"/>
<path opacity="0.69" d="M25.4255 0.0429696H19.0683C18.0235 0.0429696 17.095 0.776223 16.7609 1.86461L11.229 19.9025L5.69708 37.9403C5.16488 39.6754 6.33886 41.472 8.00446 41.472H11.5083C12.5654 41.472 13.5017 40.7227 13.826 39.6167C14.1126 38.6388 16.4039 30.8254 16.691 29.8476C17.5231 27.0095 18.3571 24.1723 19.1877 21.3337C20.2702 17.6362 20.9355 17.8719 24.4672 17.9884L29.2419 34.725L29.2561 34.7426L30.6717 39.601C30.9916 40.7148 31.9313 41.4716 32.9938 41.4716H36.5358C38.2024 41.4716 39.3764 39.6719 38.8422 37.9364L33.2873 19.8985L27.7324 1.8607C27.3978 0.773777 26.4698 0.0424805 25.426 0.0424805L25.4255 0.0429696Z" fill="#CBC2F1"/>
<path opacity="0.79" d="M23.5666 0.0493173H17.2104C16.1656 0.0493173 15.2372 0.782082 14.9036 1.87047L9.3726 19.9059L3.84165 37.9413C3.30944 39.6758 4.48343 41.4725 6.14854 41.4725H9.65191C10.7085 41.4725 11.6448 40.7231 11.9691 39.6171C12.1603 38.9651 14.6423 30.5016 14.8336 29.8496C15.6657 27.0119 16.4992 24.1748 17.3298 21.3367C18.4118 17.6401 19.0771 17.8754 22.6088 17.9918L27.3831 34.726L27.3948 34.7466L28.8124 39.602C29.1323 40.7153 30.072 41.4725 31.1339 41.4725H34.6755C36.3421 41.4725 37.516 39.6734 36.9814 37.9378L31.427 19.9024L25.8725 1.86704C25.5379 0.780125 24.6105 0.0488281 23.5666 0.0488281V0.0493173Z" fill="#DCD7F6"/>
<path opacity="0.89" d="M21.7074 0.0551758H15.3522C14.3073 0.0551758 13.3794 0.78794 13.0458 1.87633L7.5158 19.9088L1.98583 37.9413C1.45411 39.6758 2.62761 41.472 4.29223 41.472H7.79512C8.85171 41.472 9.78747 40.7226 10.1118 39.6171C10.2072 39.2913 12.8804 30.1768 12.9758 29.851C13.8079 27.0139 14.6414 24.1772 15.472 21.3396C16.554 17.6435 17.2193 17.8788 20.7501 17.9952L25.5233 34.727L25.5331 34.75L26.9527 39.602C27.2726 40.7153 28.2118 41.472 29.2737 41.472H32.8148C34.4809 41.472 35.6548 39.6729 35.1202 37.9378L29.5667 19.9054L24.0128 1.87339C23.6782 0.786962 22.7508 0.0556649 21.7074 0.0556649V0.0551758Z" fill="#EEEBFA"/>
<path opacity="0.99" d="M23.6635 34.7284L25.0928 39.6024C25.4127 40.7158 26.3519 41.4725 27.4139 41.4725H30.9539C32.62 41.4725 33.7935 39.6739 33.2593 37.9388L27.7069 19.9088L22.1534 1.87876C21.8188 0.792332 20.8914 0.0610352 19.848 0.0610352H13.4938C12.4494 0.0610352 11.521 0.7938 11.1874 1.8817L5.65789 19.9117L0.129383 37.9417C-0.402336 39.6758 0.771164 41.472 2.43578 41.472H5.93818C6.99477 41.472 7.93054 40.7226 8.25436 39.6176L11.1179 29.853C11.95 27.0163 12.783 24.1801 13.6136 21.343C14.6956 17.6474 15.3604 17.8827 18.8912 17.9991L23.6639 34.7284H23.6635Z" fill="white"/>
</svg>
