<svg version="1.1" id="Layer_1" xmlns="http://www.w3.org/2000/svg" xmlns:xlink="http://www.w3.org/1999/xlink" x="0px" y="0px"
	 width="100%" viewBox="0 0 614 346" enable-background="new 0 0 614 346" xml:space="preserve">
<path fill="#000000" opacity="0" stroke="none"
	d="
M615.000000,183.000000
	C615.000000,237.628860 615.000000,292.257721 615.000000,347.000000
	C458.979126,347.000000 302.958221,347.000000 146.595520,346.689880
	C147.846863,344.943115 149.280563,343.261475 151.056503,342.105682
	C193.052612,314.773254 235.011795,287.382324 277.195648,260.342072
	C283.158875,256.519592 285.157684,252.255539 285.138916,245.319321
	C284.918701,163.880020 284.998962,82.439903 285.000000,1.000000
	C394.905579,1.000000 504.811157,1.000000 615.000000,1.000000
	C615.000000,60.687263 615.000000,120.374969 614.692871,180.399704
	C613.169312,179.387344 611.785278,178.153458 610.762695,176.670364
	C602.541016,164.746185 594.494873,152.699249 586.146179,140.865463
	C583.715210,137.419769 583.908691,134.780899 586.257751,131.457474
	C594.040649,120.446571 601.615295,109.287903 609.211426,98.146111
	C610.256104,96.613846 610.970703,94.856590 612.469055,92.001152
	C608.591736,92.001152 605.915588,92.401375 603.401978,91.931625
	C592.720154,89.935341 586.256226,94.625824 581.744751,104.030548
	C579.142822,109.454468 575.149841,114.211105 571.084290,120.317444
	C567.345154,114.658012 564.355408,110.150124 561.383057,105.630791
	C552.123352,91.551598 552.124634,91.511429 535.204468,92.073616
	C533.540527,92.128891 531.904663,93.027679 530.255737,93.534943
	C530.863403,95.026711 531.232605,96.679825 532.115906,97.985008
	C539.767761,109.291077 547.417419,120.601379 555.286316,131.756241
	C557.663513,135.126129 557.721313,137.800247 555.323486,141.194550
	C547.543274,152.208023 539.998047,163.387970 532.406860,174.534119
	C530.867004,176.795166 529.521423,179.188614 527.187195,182.982193
	C534.194397,182.982193 539.757568,182.824631 545.306763,183.035110
	C549.305420,183.186768 551.794617,181.450928 553.841614,178.175400
	C558.075745,171.400116 562.537537,164.766251 566.957703,158.108688
	C567.917725,156.662781 569.096191,155.361862 570.570984,153.490509
	C572.025391,155.388519 573.087280,156.614853 573.973022,157.957443
	C578.098755,164.211594 582.401367,170.365295 586.193115,176.817947
	C588.852356,181.343216 592.160095,183.447998 597.517151,183.085266
	C603.320129,182.692307 609.170349,182.998642 615.000000,183.000000
M483.848358,148.737595
	C483.858673,149.083450 483.868988,149.429291 483.778290,150.131805
	C483.812256,150.496185 483.846222,150.860580 483.843872,151.863220
	C483.853149,152.502182 483.862457,153.141159 483.573456,154.588913
	C483.690948,163.751801 483.808441,172.914703 484.691864,182.407883
	C489.170898,182.595825 493.651520,182.753113 498.128540,182.980469
	C502.441803,183.199539 504.056519,181.064575 504.011536,176.912079
	C503.906891,167.252075 503.997711,157.590042 503.997559,147.928833
	C503.997314,131.438095 503.900940,114.946640 504.037689,98.457092
	C504.076843,93.734413 502.196808,91.749603 497.502533,91.977921
	C493.014435,92.196205 488.511475,92.108551 483.709198,92.890503
	C483.763428,98.333618 483.817657,103.776733 483.847626,109.738182
	C483.858185,110.083839 483.868744,110.429497 483.778320,111.131805
	C483.812286,111.496193 483.846252,111.860580 483.849762,112.741798
	C483.856232,113.086777 483.862671,113.431755 483.673157,114.335144
	C483.738586,115.297867 483.804016,116.260582 483.836853,117.862381
	C483.848938,118.501930 483.861053,119.141479 483.590332,120.588890
	C483.683990,125.465981 483.777649,130.343079 483.844849,135.739899
	C483.853668,136.086594 483.862488,136.433289 483.577240,137.561447
	C483.675842,141.113968 483.774475,144.666473 483.848358,148.737595
M450.504242,102.033997
	C444.201202,94.965790 436.054474,92.128601 426.855713,92.040855
	C414.193604,91.920074 401.529480,91.981483 388.866333,92.012672
	C381.498962,92.030815 381.019043,92.521767 381.011230,100.087288
	C380.987732,122.914421 380.942108,145.741791 381.020233,168.568680
	C381.074463,184.414871 378.995850,182.931686 396.022400,183.010254
	C400.257874,183.029785 402.093964,181.249496 402.008820,177.016251
	C401.891571,171.187439 402.068146,165.353333 402.017639,159.522369
	C401.985352,155.794571 403.676422,154.301758 407.421478,153.949615
	C413.674011,153.361725 418.458984,154.833252 421.381836,160.897629
	C422.743286,163.722382 424.804047,166.211533 426.560699,168.844193
	C436.426300,183.629471 436.428894,183.658005 454.118805,182.930679
	C455.647461,182.867828 457.145996,182.070847 458.658508,181.614853
	C458.116730,180.113998 457.845612,178.433487 456.988434,177.141937
	C452.108887,169.789795 447.154114,162.485168 442.087402,155.260818
	C439.915894,152.164612 439.478027,150.261810 443.428406,147.811722
	C459.225922,138.013748 462.483978,117.527939 450.504242,102.033997
z"/>
<path fill="#FFFFFF" opacity="0" stroke="none"
	d="
M284.531342,1.000000
	C284.998962,82.439903 284.918701,163.880020 285.138916,245.319321
	C285.157684,252.255539 283.158875,256.519592 277.195648,260.342072
	C235.011795,287.382324 193.052612,314.773254 151.056503,342.105682
	C149.280563,343.261475 147.846863,344.943115 146.126862,346.689880
	C144.933334,347.000000 143.866653,347.000000 142.449463,346.586914
	C142.353577,344.697388 142.690384,343.229858 142.850693,341.743286
	C145.972366,312.793549 149.069305,283.841156 152.182251,254.890488
	C152.810211,249.050201 152.169525,248.380844 146.583496,249.367310
	C115.760223,254.810547 84.938049,260.260040 54.117912,265.721039
	C47.155804,266.954651 46.474102,266.171631 48.809307,259.166840
	C68.458824,200.224976 88.122406,141.287811 107.803131,82.356369
	C108.247650,81.025299 108.943901,79.778305 109.840179,77.786690
	C110.758156,79.331757 111.459213,80.081619 111.684135,80.954216
	C115.633316,96.274963 119.501160,111.616669 123.445152,126.938774
	C124.365692,130.515015 122.811150,132.503769 119.772804,134.131683
	C109.939323,139.400360 100.246780,144.933289 90.387039,150.151062
	C86.835648,152.030457 86.409729,153.894638 88.753143,157.131302
	C108.870911,184.917603 128.946060,212.735153 148.903549,240.636642
	C152.024765,245.000244 155.930374,247.703644 161.123581,248.469421
	C176.767334,250.776230 192.407318,253.134354 208.099060,255.063263
	C210.529053,255.361969 213.905136,254.228226 215.682678,252.536789
	C225.935577,242.780594 224.552307,245.655548 219.217758,234.468369
	C218.931107,233.867249 218.540009,233.308075 218.315079,232.686829
	C217.662323,230.883896 217.069458,229.059311 216.453094,227.243210
	C218.488464,226.877960 220.513016,226.411118 222.564011,226.192291
	C223.522079,226.090073 224.525864,226.530945 225.518326,226.616837
	C230.057266,227.009583 234.599564,227.363754 239.140640,227.731796
	C238.410461,225.198044 237.217239,223.708099 235.863571,222.381958
	C221.349350,208.163223 206.687927,194.090912 192.400497,179.648407
	C190.094635,177.317505 188.356155,173.427353 188.182709,170.160934
	C187.501511,157.332123 185.883148,144.988525 177.189850,134.693878
	C176.023331,133.312469 175.399780,131.485413 174.316681,130.018387
	C170.679749,125.092392 170.184036,119.654144 171.294464,113.839836
	C173.012207,104.845573 174.661621,95.837837 176.263062,86.822151
	C176.562027,85.139084 176.499252,83.391754 176.664047,80.674194
	C173.313919,81.947289 170.851120,82.774025 168.476700,83.804405
	C158.242371,88.245605 147.897552,92.466278 137.873886,97.344452
	C132.896240,99.766891 130.847260,98.241661 128.802460,93.772346
	C125.061577,85.595940 120.894791,77.612305 116.822601,69.590408
	C114.524712,65.063728 113.612221,64.969452 109.986076,68.538567
	C109.274315,69.239128 108.609299,69.987732 107.932518,70.723183
	C89.338104,90.929459 70.736458,111.129089 52.154984,131.347260
	C42.021011,142.373856 31.993013,153.498795 21.781477,164.452835
	C14.978253,171.750748 7.935531,178.825409 0.999998,186.000000
	C1.000000,124.390900 1.000000,62.781796 1.000000,1.000000
	C95.354156,1.000000 189.708420,1.000000 284.531342,1.000000
z"/>
<path fill="#FFFFFF" opacity="1.000000" stroke="none"
	d="
M0.999998,186.468658
	C7.935531,178.825409 14.978253,171.750748 21.781477,164.452835
	C31.993013,153.498795 42.021011,142.373856 52.154984,131.347260
	C70.736458,111.129089 89.338104,90.929459 107.932518,70.723183
	C108.609299,69.987732 109.274315,69.239128 109.986076,68.538567
	C113.612221,64.969452 114.524712,65.063728 116.822601,69.590408
	C120.894791,77.612305 125.061577,85.595940 128.802460,93.772346
	C130.847260,98.241661 132.896240,99.766891 137.873886,97.344452
	C147.897552,92.466278 158.242371,88.245605 168.476700,83.804405
	C170.851120,82.774025 173.313919,81.947289 176.664047,80.674194
	C176.499252,83.391754 176.562027,85.139084 176.263062,86.822151
	C174.661621,95.837837 173.012207,104.845573 171.294464,113.839836
	C170.184036,119.654144 170.679749,125.092392 174.316681,130.018387
	C175.399780,131.485413 176.023331,133.312469 177.189850,134.693878
	C185.883148,144.988525 187.501511,157.332123 188.182709,170.160934
	C188.356155,173.427353 190.094635,177.317505 192.400497,179.648407
	C206.687927,194.090912 221.349350,208.163223 235.863571,222.381958
	C237.217239,223.708099 238.410461,225.198044 239.140640,227.731796
	C234.599564,227.363754 230.057266,227.009583 225.518326,226.616837
	C224.525864,226.530945 223.522079,226.090073 222.564011,226.192291
	C220.513016,226.411118 218.488464,226.877960 216.453094,227.243210
	C217.069458,229.059311 217.662323,230.883896 218.315079,232.686829
	C218.540009,233.308075 218.931107,233.867249 219.217758,234.468369
	C224.552307,245.655548 225.935577,242.780594 215.682678,252.536789
	C213.905136,254.228226 210.529053,255.361969 208.099060,255.063263
	C192.407318,253.134354 176.767334,250.776230 161.123581,248.469421
	C155.930374,247.703644 152.024765,245.000244 148.903549,240.636642
	C128.946060,212.735153 108.870911,184.917603 88.753143,157.131302
	C86.409729,153.894638 86.835648,152.030457 90.387039,150.151062
	C100.246780,144.933289 109.939323,139.400360 119.772804,134.131683
	C122.811150,132.503769 124.365692,130.515015 123.445152,126.938774
	C119.501160,111.616669 115.633316,96.274963 111.684135,80.954216
	C111.459213,80.081619 110.758156,79.331757 109.840179,77.786690
	C108.943901,79.778305 108.247650,81.025299 107.803131,82.356369
	C88.122406,141.287811 68.458824,200.224976 48.809307,259.166840
	C46.474102,266.171631 47.155804,266.954651 54.117912,265.721039
	C84.938049,260.260040 115.760223,254.810547 146.583496,249.367310
	C152.169525,248.380844 152.810211,249.050201 152.182251,254.890488
	C149.069305,283.841156 145.972366,312.793549 142.850693,341.743286
	C142.690384,343.229858 142.353577,344.697388 142.049469,346.586914
	C95.068161,347.000000 48.136322,347.000000 1.000000,347.000000
	C1.000000,293.645935 1.000000,240.291626 0.999998,186.468658
M139.287247,163.199936
	C143.467285,166.188400 147.565079,169.301682 151.852737,172.126816
	C155.442886,174.492355 164.442276,173.108109 167.136261,169.986069
	C167.526779,169.533508 167.839630,168.828674 167.829208,168.247025
	C167.780624,165.534027 158.604828,156.333374 155.633820,156.136276
	C148.860550,155.686966 142.079712,155.334915 135.297516,155.048920
	C133.786438,154.985199 132.257004,155.356750 130.736038,155.527893
	C130.637665,155.925781 130.539291,156.323669 130.440903,156.721558
	C133.187866,158.754852 135.934830,160.788147 139.287247,163.199936
z"/>
<path fill="#FFFFFF" opacity="1.000000" stroke="none"
	d="
M615.000000,182.666672
	C609.170349,182.998642 603.320129,182.692307 597.517151,183.085266
	C592.160095,183.447998 588.852356,181.343216 586.193115,176.817947
	C582.401367,170.365295 578.098755,164.211594 573.973022,157.957443
	C573.087280,156.614853 572.025391,155.388519 570.570984,153.490509
	C569.096191,155.361862 567.917725,156.662781 566.957703,158.108688
	C562.537537,164.766251 558.075745,171.400116 553.841614,178.175400
	C551.794617,181.450928 549.305420,183.186768 545.306763,183.035110
	C539.757568,182.824631 534.194397,182.982193 527.187195,182.982193
	C529.521423,179.188614 530.867004,176.795166 532.406860,174.534119
	C539.998047,163.387970 547.543274,152.208023 555.323486,141.194550
	C557.721313,137.800247 557.663513,135.126129 555.286316,131.756241
	C547.417419,120.601379 539.767761,109.291077 532.115906,97.985008
	C531.232605,96.679825 530.863403,95.026711 530.255737,93.534943
	C531.904663,93.027679 533.540527,92.128891 535.204468,92.073616
	C552.124634,91.511429 552.123352,91.551598 561.383057,105.630791
	C564.355408,110.150124 567.345154,114.658012 571.084290,120.317444
	C575.149841,114.211105 579.142822,109.454468 581.744751,104.030548
	C586.256226,94.625824 592.720154,89.935341 603.401978,91.931625
	C605.915588,92.401375 608.591736,92.001152 612.469055,92.001152
	C610.970703,94.856590 610.256104,96.613846 609.211426,98.146111
	C601.615295,109.287903 594.040649,120.446571 586.257751,131.457474
	C583.908691,134.780899 583.715210,137.419769 586.146179,140.865463
	C594.494873,152.699249 602.541016,164.746185 610.762695,176.670364
	C611.785278,178.153458 613.169312,179.387344 614.692871,180.868362
	C615.000000,181.444443 615.000000,181.888901 615.000000,182.666672
z"/>
<path fill="#FFFFFF" opacity="1.000000" stroke="none"
	d="
M450.750000,102.294601
	C462.483978,117.527939 459.225922,138.013748 443.428406,147.811722
	C439.478027,150.261810 439.915894,152.164612 442.087402,155.260818
	C447.154114,162.485168 452.108887,169.789795 456.988434,177.141937
	C457.845612,178.433487 458.116730,180.113998 458.658508,181.614868
	C457.145996,182.070847 455.647461,182.867828 454.118805,182.930679
	C436.428894,183.658005 436.426300,183.629471 426.560699,168.844193
	C424.804047,166.211533 422.743286,163.722382 421.381836,160.897629
	C418.458984,154.833252 413.674011,153.361725 407.421478,153.949615
	C403.676422,154.301758 401.985352,155.794571 402.017639,159.522369
	C402.068146,165.353333 401.891571,171.187439 402.008820,177.016251
	C402.093964,181.249496 400.257874,183.029785 396.022400,183.010254
	C378.995850,182.931686 381.074463,184.414871 381.020233,168.568680
	C380.942108,145.741791 380.987732,122.914421 381.011230,100.087288
	C381.019043,92.521767 381.498962,92.030815 388.866333,92.012672
	C401.529480,91.981483 414.193604,91.920074 426.855713,92.040855
	C436.054474,92.128601 444.201202,94.965790 450.750000,102.294601
M428.373199,111.803055
	C421.285645,111.220154 414.203278,110.559792 407.108398,110.086983
	C403.550781,109.849899 402.010162,111.875092 402.035400,115.327240
	C402.073090,120.480339 402.071472,125.634056 402.040527,130.787231
	C402.019440,134.302826 403.718567,136.088364 407.224060,135.934341
	C413.185974,135.672394 419.175110,135.589005 425.094238,134.915863
	C431.264465,134.214188 434.881195,130.913528 435.787079,126.102493
	C437.039398,119.451759 435.210266,115.622711 428.373199,111.803055
z"/>
<path fill="#FFFFFF" opacity="1.000000" stroke="none"
	d="
M483.879272,149.775146
	C483.868988,149.429291 483.858673,149.083450 483.881226,147.995911
	C483.899872,143.762802 483.885590,140.271393 483.871277,136.779984
	C483.862488,136.433289 483.853668,136.086594 483.878235,134.991241
	C483.898804,129.422058 483.885956,124.601540 483.873108,119.781029
	C483.861053,119.141479 483.848938,118.501930 483.863739,117.110611
	C483.883453,115.498131 483.876282,114.637436 483.869110,113.776733
	C483.862671,113.431755 483.856232,113.086777 483.865662,112.119995
	C483.880829,111.257179 483.880035,111.016167 483.879272,110.775154
	C483.868744,110.429497 483.858185,110.083839 483.880371,108.989288
	C483.947083,102.878716 483.981049,97.517044 484.015015,92.155373
	C488.511475,92.108551 493.014435,92.196205 497.502533,91.977921
	C502.196808,91.749603 504.076843,93.734413 504.037689,98.457092
	C503.900940,114.946640 503.997314,131.438095 503.997559,147.928833
	C503.997711,157.590042 503.906891,167.252075 504.011536,176.912079
	C504.056519,181.064575 502.441803,183.199539 498.128540,182.980469
	C493.651520,182.753113 489.170898,182.595825 484.320679,181.766998
	C483.923553,172.010788 483.897644,162.895447 483.871765,153.780121
	C483.862457,153.141159 483.853149,152.502182 483.862732,151.180710
	C483.880829,150.257187 483.880035,150.016159 483.879272,149.775146
z"/>
<path fill="#FFFFFF" opacity="1.000000" stroke="none"
	d="
M483.722595,154.184509
	C483.897644,162.895447 483.923553,172.010788 483.937683,181.601852
	C483.808441,172.914703 483.690948,163.751801 483.722595,154.184509
z"/>
<path fill="#FFFFFF" opacity="1.000000" stroke="none"
	d="
M483.862122,92.522934
	C483.981049,97.517044 483.947083,102.878716 483.892487,108.730118
	C483.817657,103.776733 483.763428,98.333618 483.862122,92.522934
z"/>
<path fill="#FFFFFF" opacity="1.000000" stroke="none"
	d="
M483.731720,120.184959
	C483.885956,124.601540 483.898804,129.422058 483.891479,134.731369
	C483.777649,130.343079 483.683990,125.465981 483.731720,120.184959
z"/>
<path fill="#FFFFFF" opacity="1.000000" stroke="none"
	d="
M483.724274,137.170715
	C483.885590,140.271393 483.899872,143.762802 483.893616,147.736603
	C483.774475,144.666473 483.675842,141.113968 483.724274,137.170715
z"/>
<path fill="#FFFFFF" opacity="1.000000" stroke="none"
	d="
M483.771118,114.055939
	C483.876282,114.637436 483.883453,115.498131 483.880035,116.791069
	C483.804016,116.260582 483.738586,115.297867 483.771118,114.055939
z"/>
<path fill="#FFFFFF" opacity="1.000000" stroke="none"
	d="
M483.828796,110.953476
	C483.880035,111.016167 483.880829,111.257179 483.880920,111.861588
	C483.846252,111.860580 483.812286,111.496193 483.828796,110.953476
z"/>
<path fill="#FFFFFF" opacity="1.000000" stroke="none"
	d="
M483.828796,149.953476
	C483.880035,150.016159 483.880829,150.257187 483.880890,150.861572
	C483.846222,150.860580 483.812256,150.496185 483.828796,149.953476
z"/>
<path fill="#FFFFFF" opacity="0" stroke="none"
	d="
M138.984528,163.010681
	C135.934830,160.788147 133.187866,158.754852 130.440903,156.721558
	C130.539291,156.323669 130.637665,155.925781 130.736038,155.527893
	C132.257004,155.356750 133.786438,154.985199 135.297516,155.048920
	C142.079712,155.334915 148.860550,155.686966 155.633820,156.136276
	C158.604828,156.333374 167.780624,165.534027 167.829208,168.247025
	C167.839630,168.828674 167.526779,169.533508 167.136261,169.986069
	C164.442276,173.108109 155.442886,174.492355 151.852737,172.126816
	C147.565079,169.301682 143.467285,166.188400 138.984528,163.010681
z"/>
<path fill="" opacity="0" stroke="none"
	d="
M428.735474,111.951172
	C435.210266,115.622711 437.039398,119.451759 435.787079,126.102493
	C434.881195,130.913528 431.264465,134.214188 425.094238,134.915863
	C419.175110,135.589005 413.185974,135.672394 407.224060,135.934341
	C403.718567,136.088364 402.019440,134.302826 402.040527,130.787231
	C402.071472,125.634056 402.073090,120.480339 402.035400,115.327240
	C402.010162,111.875092 403.550781,109.849899 407.108398,110.086983
	C414.203278,110.559792 421.285645,111.220154 428.735474,111.951172
z"/>
</svg>
