<?xml version="1.0" encoding="utf-8"?>
<!-- Generator: Adobe Illustrator 25.1.0, SVG Export Plug-In . SVG Version: 6.00 Build 0)  -->
<svg version="1.1" id="Calque_1" xmlns="http://www.w3.org/2000/svg" xmlns:xlink="http://www.w3.org/1999/xlink" x="0px" y="0px"
	 width="110px" height="110px" viewBox="0 0 110 110" style="enable-background:new 0 0 110 110;" xml:space="preserve">
<style type="text/css">
	.st0{fill:#FFFFFF;}
	.st1{fill:#4E61AA;}
</style>
<path class="st0" d="M55.1-0.1"/>
<path class="st0" d="M55.1,110"/>
<path class="st1" d="M14.5-0.1h81.1c8,0,14.5,6.5,14.5,14.5v81.1c0,8-6.5,14.5-14.5,14.5H14.5C6.5,110,0,103.5,0,95.5V14.4
	C0,6.4,6.4-0.1,14.5-0.1"/>
<path class="st0" d="M66.5,24.5v-3.8c0-2.6-2.1-4.8-4.8-4.8H50.6c-2.6,0-4.8,2.1-4.8,4.8v3.9c0,0.4,0.4,0.7,0.8,0.6
	c3.1-0.9,6.4-1.4,9.7-1.4c3.2,0,6.3,0.4,9.4,1.3C66.1,25.2,66.5,25,66.5,24.5 M36,29.4l-1.9-1.9c-1.9-1.9-4.9-1.9-6.7,0l0,0
	l-2.3,2.3c-1.9,1.9-1.9,4.9,0,6.7l0,0l1.9,1.9c0.3,0.3,0.7,0.2,1-0.1c1.1-1.5,2.3-2.9,3.6-4.3c1.3-1.3,2.8-2.6,4.3-3.7
	C36.2,30.2,36.2,29.7,36,29.4 M56.3,41.4v16.3c0,0.4,0.5,0.8,0.9,0.6l14.5-7.5c0.3-0.2,0.4-0.6,0.3-0.9c-3-5.3-8.6-8.9-15-9.1
	C56.6,40.8,56.3,41,56.3,41.4 M56.3,80.7c-12.1,0-21.9-9.8-21.9-21.9S44.1,37,56.3,37s21.9,9.8,21.9,21.9S68.5,80.7,56.3,80.7
	 M56.3,27.8c-17.1,0-31.1,13.9-31.1,31.1s13.9,31.1,31.1,31.1S87.5,76,87.5,58.9S73.5,27.8,56.3,27.8"/>
</svg>
