<?xml version="1.0" encoding="UTF-8"?><svg id="a" xmlns="http://www.w3.org/2000/svg" viewBox="0 0 280 364.32"><defs><style>.b{fill:#ee4f38;}.c{fill:#fff;}.d{fill:#009eff;}.e{fill:#c6c6c6;}.f{fill:#28348a;}</style></defs><g><path class="f" d="M65.44,159.92c.52,.91,1.18,1.84,1.61,2.86,1.67,3.97,4.17,7.4,7.13,10.45,3.13,3.22,6.41,6.29,9.75,9.28,6.2,5.56,13.35,9.43,21.42,11.5,1.78,.46,3.68,.44,5.44,.92,4.1,1.12,8.25,.41,12.23-.14,3.59-.5,6.99-2.36,10.44-3.69,1.14-.44,2.2-1.11,3.3-1.68,4.55-2.37,8.61-5.42,12.64-8.6,9.12-7.21,15.7-16.34,21.08-26.48,2.01-3.78,2.92-7.81,3.49-12.03,.29-2.08,.02-4.64,2.19-6.17,.35-.24,.73-.6,1.11-.61,1.57-.07,3.14-.08,4.71-.02,1.86,.07,3.67,1.46,3.9,3.34,.27,2.22,.24,4.5,.2,6.74-.03,1.44-.22,2.9-.52,4.32-.29,1.37-.72,2.72-1.25,4.02-.87,2.15-1.67,4.37-2.87,6.34-2.27,3.73-3.87,7.86-6.71,11.24-.51,.6-.9,1.3-1.4,1.9-3.06,3.62-5.99,7.37-9.26,10.79-3.61,3.78-7.49,7.29-12.02,10.03-3.12,1.89-6.03,4.16-9.23,5.89-2.44,1.32-5.2,2.07-7.82,3.05-2.53,.95-5.05,1.91-7.6,2.79-.74,.26-1.6,.5-2.34,.37-1.92-.33-3.71,.13-5.43,.75-1.59,.58-3.19-.19-4.58,.18-1.7,.45-3.32,.35-4.95,.3-5.81-.17-11.33-1.77-16.67-3.96-6.03-2.47-11.33-5.94-15.82-10.78-4.41-4.76-8.27-9.81-11.48-15.47-2.11-3.72-2.95-7.7-3.75-11.75-.17-.85-.06-1.77,.03-2.65,.16-1.67,.95-2.81,3.02-3.02Z"/><path class="f" d="M132.78,133.44c-.85-1.33-1.54-2.67-1.17-4.32,.08-.38-.04-.84-.19-1.22-1.57-3.83-2.1-7.82-1.9-11.94,.08-1.66-.27-3.35-.12-4.99,.42-4.37,1.54-8.47,5.12-11.46,.89-.74,1.75-.85,2.82-.4,1,.42,2.07,.75,3.13,.94,2.07,.38,3.35,1.48,3.52,3.61,.13,1.76,.19,3.53,.12,5.29-.11,2.81-.69,5.62,.3,8.39,.14,.4,.16,.84,.22,1.26,.24,1.9,0,3.82,.66,5.72,.29,.82,.32,1.86-.29,2.91-.58,1-.54,2.4-.62,3.64-.13,2-.67,2.69-2.65,3.1-2.34,.48-4.66,.16-6.99-.1-.67-.07-1.32-.27-1.96-.41Z"/><path class="f" d="M95.16,116.96c.38,1.75,.72,3.5,1.14,5.23,1.05,4.34,2.13,8.67,3.19,13.01,.4,1.64-.98,4.01-2.57,4.6-.95,.35-1.89,.77-2.75,1.29-1.59,.95-2.97,.55-4.15-.63-1.43-1.43-2.43-3-3.03-5.09-1.42-4.87-1.97-9.79-2.13-14.8-.07-2.2-.28-4.41-.18-6.6,.07-1.57,.44-3.16,.88-4.68,.21-.75,.66-1.52,1.71-1.64,.73-.08,1.44-.4,2.13-.69,1.63-.7,3.28-.23,3.98,1.42,.62,1.45,1.02,3,1.38,4.54,.31,1.31,.45,2.66,.66,3.99l-.25,.06Z"/></g><path class="d" d="M208.92,24.25H40.19C17.99,24.25,0,42.25,0,64.45V233.18c0,22.2,17.99,40.19,40.19,40.19h27.31c5.24,0,10.27,2.08,13.98,5.79l35.68,35.68c4.09,4.09,10.71,4.09,14.8,0l35.68-35.68c3.71-3.71,8.74-5.79,13.98-5.79h27.31c22.2,0,40.19-17.99,40.19-40.19V64.45c0-22.2-17.99-40.19-40.19-40.19Zm-17.48,194.86H57.67c-1.76,0-3.18-1.42-3.18-3.18V82.59c0-1.76,1.42-3.18,3.18-3.18H191.44c1.76,0,3.18,1.42,3.18,3.18V215.93c0,1.76-1.42,3.18-3.18,3.18Z"/><ellipse class="e" cx="124.56" cy="353.66" rx="64.33" ry="10.66"/><g><circle class="b" cx="222.19" cy="50.62" r="50.62"/><path class="c" d="M208.64,35.09v-12.03h20.95v55.23h-13.46V35.09h-7.49Z"/></g></svg>
