<?xml version="1.0" encoding="UTF-8"?>
<svg id="Calque_2" data-name="Calque 2" xmlns="http://www.w3.org/2000/svg" width="367.68" height="243.13" viewBox="0 0 367.68 243.13">
  <g id="Calque_1-2" data-name="Calque 1">
    <g>
      <g>
        <path d="m138.51,162.74c7.16,0,12.79-4.58,12.79-12.91s-5.63-12.91-12.79-12.91h-6.16v25.81h6.16Zm0-33.44c11.56,0,20.88,8.62,20.88,20.53s-9.33,20.53-20.88,20.53h-14.26v-41.07h14.26Z" style="fill: #FFFFFF;"/>
        <g>
          <rect x="275.12" y="74.78" width="8.1" height="41.07" style="fill: #FFFFFF;"/>
          <polygon points="323.8 115.85 304.38 89.98 304.38 115.85 296.29 115.85 296.29 74.78 301.04 74.78 320.51 100.65 320.51 74.78 328.61 74.78 328.61 115.85 323.8 115.85" style="fill: #FFFFFF;"/>
          <polygon points="366.21 91.38 366.21 99.01 348.44 99.01 348.44 108.22 367.68 108.22 367.68 115.85 340.34 115.85 340.34 74.78 367.68 74.78 367.68 82.41 348.44 82.41 348.44 91.38 366.21 91.38" style="fill: #FFFFFF;"/>
          <g>
            <g>
              <polygon points="124.26 61.33 124.26 20.26 132.35 20.26 132.35 53.7 150.83 53.7 150.83 61.33 124.26 61.33" style="fill: #FFFFFF;"/>
              <path d="m172.26,46.13h8.86l-4.4-11.21-4.46,11.21Zm-5.75,15.19h-8.98l16.9-41.07h4.75l16.66,41.07h-8.98l-2.93-7.51h-14.49l-2.93,7.51Z" style="fill: #FFFFFF;"/>
              <path d="m236.06,217.21h9.74c4.4,0,5.87-2.35,5.87-4.99s-1.64-4.99-5.87-4.99h-9.74v9.97Zm0-16.95h8.62c4.34,0,5.4-2.46,5.4-4.4s-.82-4.4-5.4-4.4h-8.62v8.8Zm7.74-16.43c11.91,0,13.9,6.86,13.9,10.91,0,4.58-2.23,7.45-5.4,8.74,4.28,1,6.98,4.75,6.98,9.62,0,6.51-3.64,11.79-15.19,11.79h-16.13v-41.07h15.84Z" style="fill: #FFFFFF;"/>
              <g>
                <polygon points="161.98 224.89 152.01 200.19 141.98 224.89 137.22 224.89 120.62 183.83 129.6 183.83 139.51 209.99 149.6 183.83 154.35 183.83 164.44 209.99 174.36 183.83 183.33 183.83 166.79 224.89 161.98 224.89" style="fill: #FFFFFF;"/>
                <polygon points="216.56 200.43 216.56 208.06 198.79 208.06 198.79 217.27 218.03 217.27 218.03 224.89 190.69 224.89 190.69 183.83 218.03 183.83 218.03 191.45 198.79 191.45 198.79 200.43 216.56 200.43" style="fill: #FFFFFF;"/>
              </g>
              <path d="m157.87,81.18l-5.28,4.87c-2.64-2.58-6.22-4.05-10.21-4.05-7.16,0-12.79,5.46-12.79,13.32s5.63,13.32,12.79,13.32c3.99,0,7.57-1.41,10.21-4.05l5.28,4.87c-3.87,4.17-9.39,6.81-15.49,6.81-11.56,0-20.88-9.39-20.88-20.94s9.33-20.94,20.88-20.94c6.1,0,11.62,2.64,15.49,6.81" style="fill: #FFFFFF;"/>
              <path d="m200.13,98.6c0,11.85-8.04,17.66-16.66,17.66s-16.66-5.81-16.66-17.66v-23.82h8.1v23.64c0,7.69,4.28,10.21,8.57,10.21s8.57-2.52,8.57-10.21v-23.64h8.1v23.82Z" style="fill: #FFFFFF;"/>
              <path d="m200.13,152.92c0,11.85-8.04,17.66-16.66,17.66s-16.66-5.81-16.66-17.66v-23.82h8.1v23.64c0,7.69,4.28,10.21,8.57,10.21s8.57-2.52,8.57-10.21v-23.64h8.1v23.82Z" style="fill: #FFFFFF;"/>
              <rect x="211.86" y="74.78" width="8.1" height="41.07" style="fill: #FFFFFF;"/>
            </g>
            <path d="m247.5,74.37c5.81,0,11.62,2.82,15.84,6.81l-5.28,4.87c-3.05-2.46-7.57-4.05-10.56-4.05h-.47c-2.7,0-7.1,1-7.1,4.58,0,2.76,3.17,3.58,6.86,4.05l3.29.35c8.33,1,14.55,4.11,14.55,12.61,0,7.8-6.86,12.61-15.96,12.67h-.35c-8.21,0-14.2-3.87-17.42-8.27l5.28-4.87c1.82,2.58,6.04,5.51,12.14,5.51h.35c4.75-.06,7.86-1.94,7.86-5.05,0-3.58-3.34-4.58-7.57-5.1l-3.23-.35c-7.86-.94-13.9-4.05-13.9-11.26,0-7.69,6.69-12.38,15.19-12.5h.47Z" style="fill: #FFFFFF;"/>
          </g>
        </g>
      </g>
      <path d="m64.71,104.77c-5.94,4.36-9.66,10.55-9.66,19.02v1.42c0,22.51,8.02,69.7,8.02,69.7,1.59,9.19-4.15,17.83-11.84,17.83s-13.43-8.65-11.84-17.83c0,0,8.02-47.2,8.02-69.7v-1.42c0-8.47-3.72-14.66-9.66-19.02-6.11-4.47-10.33-13.6-10.33-22.94,0-12.46,2.43-36.55,3.32-44.96.18-1.71,1.47-2.98,3.01-2.98,1.68,0,3.03,1.52,3.03,3.39v38.69c0,2.34,1.9,4.24,4.24,4.24h2.68c2.34,0,4.24-1.9,4.24-4.24v-38.69c0-1.87,1.62-3.39,3.29-3.39h.29c1.68,0,3.03,1.52,3.03,3.39v38.62c0,2.37,1.94,4.27,4.3,4.24h2.65c2.31-.04,4.17-1.97,4.17-4.29v-38.57c0-1.87,1.36-3.39,3.03-3.39,1.54,0,2.83,1.28,3.01,2.98.89,8.41,3.32,32.5,3.32,44.96,0,9.34-4.23,18.47-10.33,22.94" style="fill: #fff;"/>
    </g>
  </g>
</svg>
