<svg version="1.1" id="Layer_1" xmlns="http://www.w3.org/2000/svg" xmlns:xlink="http://www.w3.org/1999/xlink" x="0px" y="0px"
	 width="100%" viewBox="0 0 1448 474" enable-background="new 0 0 1448 474" xml:space="preserve">
<path fill="#FFFFFF" opacity="0" stroke="none"
	d="
M1048.000000,475.000000
	C698.711975,475.000000 349.923981,475.000000 1.067990,475.000000
	C1.067990,317.065887 1.067990,159.131729 1.067990,1.098786
	C483.666656,1.098786 966.333313,1.098786 1448.973633,1.098786
	C1448.973633,159.076141 1448.973633,317.038086 1448.973633,475.000000
	C1315.464966,475.000000 1181.982422,475.000000 1048.000000,475.000000
M158.206970,253.499924
	C158.206970,269.431213 158.206970,285.362488 158.206970,301.217743
	C159.290344,301.477509 159.760406,301.688599 160.230560,301.688873
	C183.057922,301.700989 205.886993,301.864288 228.712112,301.636536
	C246.499466,301.459106 261.457855,295.074799 272.265320,280.344635
	C283.824341,264.590179 284.913879,232.694916 262.369019,218.126434
	C261.176331,217.355743 260.077576,216.439651 259.796661,216.231033
	C263.686462,210.252792 268.392822,205.017258 270.864288,198.881500
	C282.641174,169.643463 261.579498,137.358398 229.638596,136.154160
	C206.509476,135.282120 183.325623,135.857101 160.166138,135.816162
	C159.574356,135.815109 158.981934,136.156555 158.207001,136.394379
	C158.207001,175.225281 158.207001,213.862595 158.206970,253.499924
M1128.308838,302.967529
	C1137.172607,300.686768 1144.310669,295.553009 1151.354004,287.994781
	C1151.354004,293.391571 1151.354004,297.431641 1151.354004,301.333832
	C1161.808472,301.333832 1171.711670,301.333832 1181.560303,301.333832
	C1181.560303,246.021912 1181.560303,191.099396 1181.560303,136.033600
	C1171.371948,136.033600 1161.461548,136.033600 1150.930420,136.033600
	C1150.930420,156.097183 1150.930420,175.905670 1150.930420,196.438187
	C1133.243042,175.400330 1101.023682,176.968445 1083.576660,188.074402
	C1054.002808,206.899658 1045.561890,251.098297 1066.609497,280.218079
	C1081.400757,300.682037 1104.478027,309.357910 1128.308838,302.967529
M1246.504883,254.968842
	C1270.962769,254.968842 1295.420654,254.968842 1319.784546,254.968842
	C1328.044800,215.323715 1298.755981,170.286606 1245.806519,181.561295
	C1221.169556,186.807312 1205.688721,203.009079 1200.487183,227.427216
	C1195.108521,252.677460 1200.928589,275.374084 1222.092896,291.871460
	C1240.387451,306.131836 1261.522583,307.488190 1283.349121,302.331329
	C1296.872192,299.136353 1307.219238,291.162415 1315.296875,279.574677
	C1306.958862,274.773376 1298.935791,270.153381 1290.999023,265.583099
	C1278.605225,278.735229 1263.852905,279.383850 1248.323242,274.584412
	C1238.997559,271.702301 1233.508911,264.752472 1231.013916,255.220261
	C1231.855591,255.086609 1232.182861,254.990433 1232.510254,254.989319
	C1236.842651,254.974686 1241.174927,254.973434 1246.504883,254.968842
M454.010437,204.530243
	C437.892334,182.319763 415.605988,176.100250 389.996094,181.614243
	C365.422272,186.905151 350.025604,202.973465 344.732422,227.451569
	C339.384094,252.184921 345.046753,274.293762 365.112427,290.937195
	C382.569366,305.416809 403.189636,307.179382 424.618011,303.075348
	C439.341522,300.255463 450.725739,292.148407 459.516510,279.582520
	C451.176788,274.771790 443.180481,270.159149 435.277008,265.600037
	C422.818207,279.167053 406.098175,278.944580 393.051208,274.802704
	C383.511261,271.774231 377.800232,264.918549 375.126099,254.856750
	C405.072021,254.856750 434.514557,254.856750 464.331055,254.856750
	C467.016815,236.885010 464.830902,220.208084 454.010437,204.530243
M773.965820,227.461273
	C773.965820,220.523788 773.965820,213.586319 773.965820,206.213989
	C752.328186,206.213989 731.253967,206.213989 710.076172,206.213989
	C710.076172,192.919586 710.076172,180.071976 710.076172,166.794678
	C732.162170,166.794678 753.897095,166.794678 775.610718,166.794678
	C775.610718,156.276566 775.610718,146.195312 775.610718,136.104279
	C742.619812,136.104279 709.916199,136.104279 677.367493,136.104279
	C677.367493,191.461517 677.367493,246.483200 677.367493,301.326721
	C688.331543,301.326721 698.895264,301.326721 709.832642,301.326721
	C709.832642,280.009033 709.832642,259.083954 709.832642,237.542465
	C731.401672,237.542465 752.591553,237.542465 773.965820,237.542465
	C773.965820,234.096252 773.965820,231.269913 773.965820,227.461273
M871.074890,301.660767
	C899.093323,290.892242 915.840393,264.522949 912.509766,236.419022
	C908.877869,205.773941 888.167908,184.475830 857.973450,180.334106
	C832.372253,176.822433 807.672302,189.150101 794.930664,211.798553
	C782.771301,233.412109 785.325623,262.985321 801.326355,282.054077
	C819.806458,304.077576 843.419861,308.838806 871.074890,301.660767
M958.238953,183.060654
	C948.803162,183.060654 939.367371,183.060654 929.811768,183.060654
	C929.811768,222.803574 929.811768,262.032928 929.811768,301.407593
	C939.989929,301.407593 949.877991,301.407593 960.039551,301.407593
	C960.039551,299.280457 960.039185,297.463165 960.039490,295.645874
	C960.042419,275.659973 959.857483,255.671768 960.102417,235.688828
	C960.337646,216.504349 972.923645,205.830719 991.301453,208.758911
	C1002.985474,210.620575 1009.505249,219.061371 1009.576355,232.905182
	C1009.684082,253.889832 1009.603943,274.875458 1009.603577,295.860657
	C1009.603516,297.653778 1009.603577,299.446930 1009.603577,301.412842
	C1020.006287,301.412842 1029.890503,301.412842 1039.890015,301.412842
	C1039.890015,274.644745 1040.154785,248.177750 1039.731567,221.721756
	C1039.601318,213.586227 1036.962280,205.715424 1032.209839,198.776169
	C1021.223267,182.733887 1001.707458,176.160751 981.340027,181.484314
	C972.906677,183.688583 966.232361,188.433884 960.529358,195.208206
	C960.038452,190.784225 959.613647,186.955582 958.238953,183.060654
M510.039215,301.722351
	C513.808289,301.815735 512.613464,298.942841 512.626404,297.083649
	C512.777344,275.433502 512.370544,253.767212 513.085144,232.137375
	C513.588440,216.904175 524.594360,207.612808 539.459961,208.231659
	C554.204712,208.845490 562.018311,217.566406 562.036987,233.514252
	C562.061340,254.334869 562.043213,275.155518 562.043335,295.976166
	C562.043335,297.750824 562.043335,299.525482 562.043335,301.416504
	C572.495544,301.416504 582.389648,301.416504 592.285583,301.416504
	C592.477600,300.660339 592.699768,300.193146 592.700012,299.725830
	C592.712158,275.074432 593.064514,250.415848 592.571960,225.774200
	C592.255493,209.944656 586.643982,196.364792 572.887268,186.874435
	C557.202026,176.053574 525.823792,177.199112 513.773438,194.512787
	C513.685303,194.639389 513.199219,194.488998 512.392883,194.432449
	C512.392883,190.717392 512.392883,186.976532 512.392883,183.409500
	C501.978058,183.409500 492.073578,183.409500 482.360657,183.409500
	C482.360657,222.989639 482.360657,262.208557 482.360657,301.724731
	C491.508392,301.724731 500.313385,301.724731 510.039215,301.722351
M295.341187,204.500076
	C295.341187,236.767746 295.341187,269.035431 295.341187,301.432373
	C305.884216,301.432373 315.786224,301.432373 325.734497,301.432373
	C325.734497,261.890900 325.734497,222.647659 325.734497,183.046814
	C320.512268,183.046814 315.547211,183.046829 310.582153,183.046829
	C305.640594,183.046829 300.699036,183.046814 295.341278,183.046814
	C295.341278,190.235687 295.341278,196.867935 295.341187,204.500076
M1246.213867,145.959747
	C1246.004150,146.935989 1245.718384,147.902878 1245.597046,148.889999
	C1244.801514,155.363647 1248.718384,162.112320 1254.684204,164.609695
	C1260.942383,167.229492 1268.372192,165.124985 1272.479980,159.569031
	C1276.654663,153.922699 1276.405029,147.284286 1272.220459,141.577454
	C1266.399414,133.638885 1251.950439,133.035645 1246.213867,145.959747
M313.718109,136.746292
	C307.321259,135.385941 302.291595,137.557510 298.540894,142.772995
	C295.005554,147.689056 294.638153,152.957016 297.520569,158.253876
	C300.960571,164.575439 307.678162,167.436081 314.445435,165.727188
	C320.552612,164.184982 325.467651,158.266159 325.800781,152.052795
	C326.157776,145.394547 321.705078,139.408127 313.718109,136.746292
M627.852844,229.106354
	C626.037354,230.790207 623.891113,232.234650 622.467163,234.201904
	C617.833679,240.603043 619.316833,249.202530 625.656494,254.216263
	C631.703491,258.998505 640.899841,258.127869 645.955383,252.294540
	C650.716309,246.801178 651.197998,240.311829 647.284973,234.384048
	C642.992493,227.881439 636.863647,226.056503 627.852844,229.106354
z"/>
<path fill="#FFFFFF" opacity="1.000000" stroke="none"
	d="
M158.206985,252.999908
	C158.207001,213.862595 158.207001,175.225281 158.207001,136.394379
	C158.981934,136.156555 159.574356,135.815109 160.166138,135.816162
	C183.325623,135.857101 206.509476,135.282120 229.638596,136.154160
	C261.579498,137.358398 282.641174,169.643463 270.864288,198.881500
	C268.392822,205.017258 263.686462,210.252792 259.796661,216.231033
	C260.077576,216.439651 261.176331,217.355743 262.369019,218.126434
	C284.913879,232.694916 283.824341,264.590179 272.265320,280.344635
	C261.457855,295.074799 246.499466,301.459106 228.712112,301.636536
	C205.886993,301.864288 183.057922,301.700989 160.230560,301.688873
	C159.760406,301.688599 159.290344,301.477509 158.206970,301.217743
	C158.206970,285.362488 158.206970,269.431213 158.206985,252.999908
M190.998734,235.653564
	C190.998734,247.387375 190.998734,259.121185 190.998734,270.976929
	C204.436279,270.976929 217.232208,271.207733 230.015381,270.903503
	C240.152130,270.662262 247.782806,262.207001 247.904419,251.856354
	C248.029968,241.171738 240.517670,232.419556 230.243317,232.112518
	C218.113953,231.750015 205.965775,231.929230 193.828537,232.086578
	C192.874451,232.098953 191.941971,233.778656 190.998734,235.653564
M236.228394,171.279388
	C233.489075,169.801254 230.794601,167.153961 228.002716,167.046906
	C215.774765,166.578033 203.518600,166.844971 191.298798,166.844971
	C191.298798,178.724121 191.298798,190.635956 191.298798,202.860931
	C201.403290,202.860931 211.207336,202.747284 221.007401,202.896118
	C229.167847,203.020035 235.894440,200.522598 239.545441,192.812515
	C243.077026,185.354614 241.946426,178.245590 236.228394,171.279388
z"/>
<path fill="#FFFFFF" opacity="1.000000" stroke="none"
	d="
M1127.902222,303.037781
	C1104.478027,309.357910 1081.400757,300.682037 1066.609497,280.218079
	C1045.561890,251.098297 1054.002808,206.899658 1083.576660,188.074402
	C1101.023682,176.968445 1133.243042,175.400330 1150.930420,196.438187
	C1150.930420,175.905670 1150.930420,156.097183 1150.930420,136.033600
	C1161.461548,136.033600 1171.371948,136.033600 1181.560303,136.033600
	C1181.560303,191.099396 1181.560303,246.021912 1181.560303,301.333832
	C1171.711670,301.333832 1161.808472,301.333832 1151.354004,301.333832
	C1151.354004,297.431641 1151.354004,293.391571 1151.354004,287.994781
	C1144.310669,295.553009 1137.172607,300.686768 1127.902222,303.037781
M1144.276001,263.726471
	C1153.215820,251.398926 1153.591797,233.875595 1145.166992,222.192322
	C1136.895264,210.721085 1122.080322,206.104828 1107.789917,210.545593
	C1094.710449,214.610046 1086.284668,226.042099 1085.689087,240.531815
	C1085.052856,256.009735 1092.446777,268.185181 1105.719482,273.516357
	C1118.909668,278.814392 1134.265015,275.105499 1144.276001,263.726471
z"/>
<path fill="#FFFFFF" opacity="1.000000" stroke="none"
	d="
M1246.006104,254.968842
	C1241.174927,254.973434 1236.842651,254.974686 1232.510254,254.989319
	C1232.182861,254.990433 1231.855591,255.086609 1231.013916,255.220261
	C1233.508911,264.752472 1238.997559,271.702301 1248.323242,274.584412
	C1263.852905,279.383850 1278.605225,278.735229 1290.999023,265.583099
	C1298.935791,270.153381 1306.958862,274.773376 1315.296875,279.574677
	C1307.219238,291.162415 1296.872192,299.136353 1283.349121,302.331329
	C1261.522583,307.488190 1240.387451,306.131836 1222.092896,291.871460
	C1200.928589,275.374084 1195.108521,252.677460 1200.487183,227.427216
	C1205.688721,203.009079 1221.169556,186.807312 1245.806519,181.561295
	C1298.755981,170.286606 1328.044800,215.323715 1319.784546,254.968842
	C1295.420654,254.968842 1270.962769,254.968842 1246.006104,254.968842
M1283.299194,216.217194
	C1272.628052,206.194336 1260.285767,205.083862 1247.209351,210.077057
	C1237.858521,213.647675 1232.755859,221.039642 1230.542480,230.816132
	C1250.760864,230.816132 1270.434937,230.816132 1291.692505,230.816132
	C1288.713013,225.503799 1286.254517,221.120407 1283.299194,216.217194
z"/>
<path fill="#FFFFFF" opacity="1.000000" stroke="none"
	d="
M454.219482,204.821960
	C464.830902,220.208084 467.016815,236.885010 464.331055,254.856750
	C434.514557,254.856750 405.072021,254.856750 375.126099,254.856750
	C377.800232,264.918549 383.511261,271.774231 393.051208,274.802704
	C406.098175,278.944580 422.818207,279.167053 435.277008,265.600037
	C443.180481,270.159149 451.176788,274.771790 459.516510,279.582520
	C450.725739,292.148407 439.341522,300.255463 424.618011,303.075348
	C403.189636,307.179382 382.569366,305.416809 365.112427,290.937195
	C345.046753,274.293762 339.384094,252.184921 344.732422,227.451569
	C350.025604,202.973465 365.422272,186.905151 389.996094,181.614243
	C415.605988,176.100250 437.892334,182.319763 454.219482,204.821960
M419.737000,210.601685
	C399.573700,201.839005 377.391571,211.840851 375.102112,230.931488
	C394.900940,230.931488 414.674530,230.931488 434.728851,230.931488
	C432.883972,221.983383 428.520508,215.137482 419.737000,210.601685
z"/>
<path fill="#FFFFFF" opacity="1.000000" stroke="none"
	d="
M773.965820,227.952423
	C773.965820,231.269913 773.965820,234.096252 773.965820,237.542465
	C752.591553,237.542465 731.401672,237.542465 709.832642,237.542465
	C709.832642,259.083954 709.832642,280.009033 709.832642,301.326721
	C698.895264,301.326721 688.331543,301.326721 677.367493,301.326721
	C677.367493,246.483200 677.367493,191.461517 677.367493,136.104279
	C709.916199,136.104279 742.619812,136.104279 775.610718,136.104279
	C775.610718,146.195312 775.610718,156.276566 775.610718,166.794678
	C753.897095,166.794678 732.162170,166.794678 710.076172,166.794678
	C710.076172,180.071976 710.076172,192.919586 710.076172,206.213989
	C731.253967,206.213989 752.328186,206.213989 773.965820,206.213989
	C773.965820,213.586319 773.965820,220.523788 773.965820,227.952423
z"/>
<path fill="#FFFFFF" opacity="1.000000" stroke="none"
	d="
M870.695801,301.783447
	C843.419861,308.838806 819.806458,304.077576 801.326355,282.054077
	C785.325623,262.985321 782.771301,233.412109 794.930664,211.798553
	C807.672302,189.150101 832.372253,176.822433 857.973450,180.334106
	C888.167908,184.475830 908.877869,205.773941 912.509766,236.419022
	C915.840393,264.522949 899.093323,290.892242 870.695801,301.783447
M869.510559,215.916306
	C863.359009,211.469849 856.505676,209.541611 848.910950,209.781464
	C835.540527,210.203690 824.347046,217.896027 820.074585,229.831924
	C815.205933,243.433304 818.618347,258.343994 828.675842,267.415131
	C837.757019,275.605652 853.447876,277.487579 864.715576,271.737762
	C885.627075,261.066772 888.404968,232.535553 869.510559,215.916306
z"/>
<path fill="#FFFFFF" opacity="1.000000" stroke="none"
	d="
M958.713867,183.093781
	C959.613647,186.955582 960.038452,190.784225 960.529358,195.208206
	C966.232361,188.433884 972.906677,183.688583 981.340027,181.484314
	C1001.707458,176.160751 1021.223267,182.733887 1032.209839,198.776169
	C1036.962280,205.715424 1039.601318,213.586227 1039.731567,221.721756
	C1040.154785,248.177750 1039.890015,274.644745 1039.890015,301.412842
	C1029.890503,301.412842 1020.006287,301.412842 1009.603577,301.412842
	C1009.603577,299.446930 1009.603516,297.653778 1009.603577,295.860657
	C1009.603943,274.875458 1009.684082,253.889832 1009.576355,232.905182
	C1009.505249,219.061371 1002.985474,210.620575 991.301453,208.758911
	C972.923645,205.830719 960.337646,216.504349 960.102417,235.688828
	C959.857483,255.671768 960.042419,275.659973 960.039490,295.645874
	C960.039185,297.463165 960.039551,299.280457 960.039551,301.407593
	C949.877991,301.407593 939.989929,301.407593 929.811768,301.407593
	C929.811768,262.032928 929.811768,222.803574 929.811768,183.060654
	C939.367371,183.060654 948.803162,183.060654 958.713867,183.093781
z"/>
<path fill="#FFFFFF" opacity="1.000000" stroke="none"
	d="
M509.578796,301.723541
	C500.313385,301.724731 491.508392,301.724731 482.360657,301.724731
	C482.360657,262.208557 482.360657,222.989639 482.360657,183.409500
	C492.073578,183.409500 501.978058,183.409500 512.392883,183.409500
	C512.392883,186.976532 512.392883,190.717392 512.392883,194.432449
	C513.199219,194.488998 513.685303,194.639389 513.773438,194.512787
	C525.823792,177.199112 557.202026,176.053574 572.887268,186.874435
	C586.643982,196.364792 592.255493,209.944656 592.571960,225.774200
	C593.064514,250.415848 592.712158,275.074432 592.700012,299.725830
	C592.699768,300.193146 592.477600,300.660339 592.285583,301.416504
	C582.389648,301.416504 572.495544,301.416504 562.043335,301.416504
	C562.043335,299.525482 562.043335,297.750824 562.043335,295.976166
	C562.043213,275.155518 562.061340,254.334869 562.036987,233.514252
	C562.018311,217.566406 554.204712,208.845490 539.459961,208.231659
	C524.594360,207.612808 513.588440,216.904175 513.085144,232.137375
	C512.370544,253.767212 512.777344,275.433502 512.626404,297.083649
	C512.613464,298.942841 513.808289,301.815735 509.578796,301.723541
z"/>
<path fill="#FFFFFF" opacity="1.000000" stroke="none"
	d="
M295.341248,204.000137
	C295.341278,196.867935 295.341278,190.235687 295.341278,183.046814
	C300.699036,183.046814 305.640594,183.046829 310.582153,183.046829
	C315.547211,183.046829 320.512268,183.046814 325.734497,183.046814
	C325.734497,222.647659 325.734497,261.890900 325.734497,301.432373
	C315.786224,301.432373 305.884216,301.432373 295.341187,301.432373
	C295.341187,269.035431 295.341187,236.767746 295.341248,204.000137
z"/>
<path fill="#FFFFFF" opacity="1.000000" stroke="none"
	d="
M1246.390625,145.621353
	C1251.950439,133.035645 1266.399414,133.638885 1272.220459,141.577454
	C1276.405029,147.284286 1276.654663,153.922699 1272.479980,159.569031
	C1268.372192,165.124985 1260.942383,167.229492 1254.684204,164.609695
	C1248.718384,162.112320 1244.801514,155.363647 1245.597046,148.889999
	C1245.718384,147.902878 1246.004150,146.935989 1246.390625,145.621353
z"/>
<path fill="#FFFFFF" opacity="1.000000" stroke="none"
	d="
M314.109253,136.803146
	C321.705078,139.408127 326.157776,145.394547 325.800781,152.052795
	C325.467651,158.266159 320.552612,164.184982 314.445435,165.727188
	C307.678162,167.436081 300.960571,164.575439 297.520569,158.253876
	C294.638153,152.957016 295.005554,147.689056 298.540894,142.772995
	C302.291595,137.557510 307.321259,135.385941 314.109253,136.803146
z"/>
<path fill="#FFFFFF" opacity="1.000000" stroke="none"
	d="
M628.197998,228.954865
	C636.863647,226.056503 642.992493,227.881439 647.284973,234.384048
	C651.197998,240.311829 650.716309,246.801178 645.955383,252.294540
	C640.899841,258.127869 631.703491,258.998505 625.656494,254.216263
	C619.316833,249.202530 617.833679,240.603043 622.467163,234.201904
	C623.891113,232.234650 626.037354,230.790207 628.197998,228.954865
z"/>
<path fill="#FEFEFE" opacity="0" stroke="none"
	d="
M190.999084,235.168518
	C191.941971,233.778656 192.874451,232.098953 193.828537,232.086578
	C205.965775,231.929230 218.113953,231.750015 230.243317,232.112518
	C240.517670,232.419556 248.029968,241.171738 247.904419,251.856354
	C247.782806,262.207001 240.152130,270.662262 230.015381,270.903503
	C217.232208,271.207733 204.436279,270.976929 190.998734,270.976929
	C190.998734,259.121185 190.998734,247.387375 190.999084,235.168518
z"/>
<path fill="#FCFCFC" opacity="0" stroke="none"
	d="
M236.478943,171.550659
	C241.946426,178.245590 243.077026,185.354614 239.545441,192.812515
	C235.894440,200.522598 229.167847,203.020035 221.007401,202.896118
	C211.207336,202.747284 201.403290,202.860931 191.298798,202.860931
	C191.298798,190.635956 191.298798,178.724121 191.298798,166.844971
	C203.518600,166.844971 215.774765,166.578033 228.002716,167.046906
	C230.794601,167.153961 233.489075,169.801254 236.478943,171.550659
z"/>
<path fill="#FEFEFE" opacity="0" stroke="none"
	d="
M1144.062866,264.016449
	C1134.265015,275.105499 1118.909668,278.814392 1105.719482,273.516357
	C1092.446777,268.185181 1085.052856,256.009735 1085.689087,240.531815
	C1086.284668,226.042099 1094.710449,214.610046 1107.789917,210.545593
	C1122.080322,206.104828 1136.895264,210.721085 1145.166992,222.192322
	C1153.591797,233.875595 1153.215820,251.398926 1144.062866,264.016449
z"/>
<path fill="#FDFDFD" opacity="0" stroke="none"
	d="
M1283.547607,216.477097
	C1286.254517,221.120407 1288.713013,225.503799 1291.692505,230.816132
	C1270.434937,230.816132 1250.760864,230.816132 1230.542480,230.816132
	C1232.755859,221.039642 1237.858521,213.647675 1247.209351,210.077057
	C1260.285767,205.083862 1272.628052,206.194336 1283.547607,216.477097
z"/>
<path fill="#FDFDFD" opacity="0" stroke="none"
	d="
M420.079651,210.764343
	C428.520508,215.137482 432.883972,221.983383 434.728851,230.931488
	C414.674530,230.931488 394.900940,230.931488 375.102112,230.931488
	C377.391571,211.840851 399.573700,201.839005 420.079651,210.764343
z"/>
<path fill="#FEFEFE" opacity="0" stroke="none"
	d="
M869.810913,216.118500
	C888.404968,232.535553 885.627075,261.066772 864.715576,271.737762
	C853.447876,277.487579 837.757019,275.605652 828.675842,267.415131
	C818.618347,258.343994 815.205933,243.433304 820.074585,229.831924
	C824.347046,217.896027 835.540527,210.203690 848.910950,209.781464
	C856.505676,209.541611 863.359009,211.469849 869.810913,216.118500
z"/>
</svg>
