<?xml version="1.0" encoding="utf-8"?>
<!-- Generator: Adobe Illustrator 25.1.0, SVG Export Plug-In . SVG Version: 6.00 Build 0)  -->
<svg version="1.1" id="Calque_1" xmlns="http://www.w3.org/2000/svg" xmlns:xlink="http://www.w3.org/1999/xlink" x="0px" y="0px"
	 width="110px" height="110px" viewBox="0 0 110 110" style="enable-background:new 0 0 110 110;" xml:space="preserve">
<style type="text/css">
	.st0{fill:#FFFFFF;}
</style>
<path class="st0" d="M55,0C24.6,0,0,24.6,0,55s24.6,55,55,55s55-24.6,55-55S85.4,0,55,0z M84.8,31.7c-2.6,0.1-4.3-1.4-4.4-3.7
	c0-0.9,0.2-1.6,0.8-2.5c0.6-1.1,0.7-1.2,0.7-1.7c-0.1-1.5-2.3-1.5-2.9-1.5c-8.3,0.3-10.4,11.4-12.2,20.5l-0.9,4.8
	c4.7,0.7,8.1-0.2,10-1.4c2.7-1.7-0.7-3.4-0.3-5.4c0.4-2,2.3-3,3.7-3c2,0,3.4,2.1,3.4,4.2c-0.1,3.5-4.8,8.3-14.1,8.1
	c-1.2,0-2.2-0.1-3.2-0.2l-1.8,9.7C62.1,67,60,77,52.5,85.7c-6.5,7.6-13,8.8-15.9,8.9c-5.4,0.2-9.1-2.7-9.2-6.6
	c-0.1-3.8,3.2-5.8,5.4-5.9c2.9,0,4.9,2.1,5,4.5c0.1,2.1-1,2.7-1.7,3.1c-0.5,0.4-1.2,0.8-1.2,1.6c0,0.4,0.4,1.2,1.6,1.2
	c2.3-0.1,3.8-1.2,4.9-2c5.4-4.4,7.4-12.1,10.1-26.2l0.6-3.4c0.9-4.6,1.9-9.7,3.6-14.7c-3.8-2.8-6-6.3-11.1-7.7
	c-3.5-1-5.6-0.2-7.1,1.7c-1.8,2.2-1.2,5.1,0.5,6.8l2.9,3c3.4,4,5.3,7,4.6,11.2c-1.1,6.7-9,11.8-18.4,8.9c-8-2.4-9.5-8.1-8.5-11.2
	c0.9-2.7,3.1-3.3,5.2-2.6c2.3,0.7,3.2,3.5,2.5,5.6c0,0.2-0.2,0.6-0.4,1.1c-0.3,0.6-0.8,1.1-1,1.8c-0.5,1.6,1.8,2.8,3.4,3.3
	c3.5,1.1,7-0.8,7.9-3.7c0.8-2.6-0.9-4.5-1.6-5.2l-3.4-3.6c-1.6-1.7-5-6.5-3.3-11.9c0.6-2,1.9-4.2,3.9-5.7c4.1-3.1,8.6-3.6,12.9-2.4
	c5.5,1.6,8.2,5.3,11.6,8.1c1.9-5.7,4.6-11.2,8.6-15.9c3.6-4.2,8.5-7.3,14.1-7.5c5.6-0.1,9.8,2.4,10.1,6.3
	C89.2,28.3,88.2,31.6,84.8,31.7z"/>
</svg>
