<svg xmlns="http://www.w3.org/2000/svg" version="1.1" viewBox="211 64 246 247">
  <defs>
    <style>
      .cls-1 {
      fill: #03566b;
      stroke: #03566b;
      }

      .cls-1, .cls-2, .cls-3, .cls-4 {
      stroke-miterlimit: 10;
      }

      .cls-2 {
      stroke: #fffcfd;
      }

      .cls-2, .cls-5, .cls-3, .cls-4 {
      fill: #fff;
      }

      .cls-3 {
      stroke: #b2dee9;
      stroke-width: .2px;
      }

      .cls-4 {
      stroke: #fff;
      }
    </style>
  </defs>
  <g>
    <g id="Calque_1">
      <g id="Calque_1-2" data-name="Calque_1">
        <path class="cls-1" d="M334,64.5c67.6,0,122.5,55,122.5,123s-54.9,123-122.5,123-122.5-55.1-122.5-123,54.9-123,122.5-123"/>
        <polygon class="cls-3" points="316.1 147 351.8 147 335.7 228.1 316.1 147"/>
        <path class="cls-4" d="M265.4,149.3c0-6.8,5.5-12.4,12.4-12.4s12.4,5.5,12.4,12.4-5.5,12.4-12.4,12.4-12.4-5.5-12.4-12.4,5.5-12.4,12.4-12.4"/>
        <path class="cls-4" d="M403.8,148.5c0,6.8-5.5,12.4-12.4,12.4s-12.4-5.5-12.4-12.4,5.5-12.4,12.4-12.4,12.4,5.5,12.4,12.4Z"/>
        <path class="cls-4" d="M334.4,99c6.8,0,12.4,5.5,12.4,12.4s-5.5,12.4-12.4,12.4-12.4-5.5-12.4-12.4,5.5-12.4,12.4-12.4"/>
        <path class="cls-2" d="M377.6,177.8c-.7,11.6-2,24.9-4.7,35.9-2.6,10.7-6.8,22.4-14.1,24.9-10.3,3.5-19.3-8.7-23.3-12.3,8.4,21.2,23.9,23.1,27.5,23.8,4.3.8,18.3,3.7,25.6-6,12.8-18.2,15.8-45.5,16-66.2h-27Z"/>
        <path class="cls-5" d="M335.1,271.3c18.3,0,32.7-6.5,44.7-17.4,1.2-1.1,5.6-5.7,8.2-9.1-.5,0-1.7,3.6-11.8,4-7.6.3-14.8-1.9-18.9-3.9-9.4-4.7-21.8-18.9-21.8-18.9,0,0-7.3,17.7-18,14.5-3.7-1.1-5.8-2.5-8.5-5.3-13-13-16.6-37.4-17.6-57.4h-26.5"/>
        <path class="cls-5" d="M265.4,177.8c1.1,24.9,5.8,56.4,25.4,76.1,11.6,11.6,26.6,17.4,44.7,17.4"/>
      </g>
    </g>
  </g>
</svg>