<svg version="1.1" id="Layer_1" xmlns="http://www.w3.org/2000/svg" xmlns:xlink="http://www.w3.org/1999/xlink" x="0px" y="0px"
	 width="100%" viewBox="0 0 888 392" enable-background="new 0 0 888 392" xml:space="preserve">
<path fill="#FFFFFF" opacity="1.000000" stroke="none"
	d="
M147.000000,1.000000
	C164.687561,1.000000 182.375122,1.000000 200.598892,1.383944
	C201.786255,4.431150 203.002029,7.093562 203.006042,9.757799
	C203.109421,78.415413 203.086533,147.073212 203.085327,215.730972
	C203.085312,216.730835 203.027908,217.734207 203.091461,218.729935
	C203.298477,221.972885 201.730301,223.220825 198.582184,223.127930
	C195.423233,223.034698 192.256607,223.199524 189.093384,223.254761
	C175.629044,223.489868 162.165298,223.810852 148.699997,223.899567
	C145.549149,223.920319 143.859985,222.377823 143.780258,218.591782
	C143.666733,213.201019 143.183899,207.656708 141.744125,202.488525
	C138.680923,191.492935 132.479233,183.310349 121.077530,178.950104
	C100.005379,170.891693 79.725456,179.144379 71.557228,199.970657
	C67.856728,209.405685 70.228615,217.839813 76.092819,225.470825
	C83.030296,234.498459 93.669357,237.815536 103.597847,241.648285
	C113.525490,245.480728 124.111404,247.581223 134.337555,250.676239
	C141.701813,252.905106 149.270538,254.842377 156.175919,258.116394
	C167.452637,263.462982 179.116638,268.639923 189.056381,275.997162
	C201.789902,285.422333 212.363525,297.199615 219.162231,312.220917
	C224.847153,324.781342 227.722092,337.759155 229.047363,351.232300
	C230.360382,364.581146 227.876312,377.691345 225.464111,390.862061
	C204.023834,390.885315 183.045349,390.862244 162.034927,390.466064
	C162.240219,389.313568 162.344376,388.459320 162.734573,387.766083
	C168.460892,377.592468 169.644409,366.301483 167.537491,355.420929
	C164.513855,339.806274 152.703278,330.085876 139.292542,323.632294
	C125.802124,317.140350 111.171165,313.053925 97.182709,307.550629
	C85.394089,302.912811 73.835800,297.692596 62.122162,292.859589
	C57.801525,291.076935 53.328255,289.664215 48.957508,288.048645
	C48.990414,288.014496 48.920986,288.088104 48.933113,287.733826
	C47.838535,286.212280 46.808624,284.958923 45.612194,283.892334
	C39.549633,278.487793 32.664936,273.786163 27.498131,267.636871
	C11.523955,248.625214 7.489104,226.188980 9.775863,201.944672
	C11.440077,184.300598 18.316473,168.934769 29.183966,155.496429
	C42.941738,138.484100 60.986355,127.574356 82.439766,123.121078
	C99.499809,119.579773 116.713936,120.057785 133.758194,123.925995
	C140.640854,125.488022 141.927902,124.490997 141.929108,117.212616
	C141.934845,82.550735 141.916046,47.888832 141.957458,13.226998
	C141.962875,8.689080 140.285889,3.320132 146.871033,1.466989
	C146.951462,1.444355 146.958633,1.161429 147.000000,1.000000
z"/>
<path fill="#FFFFFF" opacity="1.000000" stroke="none"
	d="
M706.000061,374.896851
	C700.335327,374.901031 695.170593,374.907288 690.005798,374.908508
	C682.134460,374.910370 682.006470,374.787567 681.998108,366.674011
	C681.988098,357.010864 681.998169,347.347748 681.998230,337.684601
	C681.998657,277.539948 682.057617,217.395096 681.889709,157.250900
	C681.875916,152.304657 683.002930,150.749847 688.188721,150.748779
	C721.485474,150.741913 754.784058,150.057953 788.078125,150.255753
	C801.961670,150.338226 816.129211,150.607666 829.636597,153.379593
	C845.132751,156.559616 858.708374,164.524597 867.170715,178.991226
	C882.163025,204.621155 880.728882,229.501770 863.800476,253.692886
	C863.435242,254.214844 863.240051,254.855759 862.837952,255.713028
	C870.745300,262.688782 877.551636,270.485077 881.797852,280.232544
	C888.593323,295.831879 888.727478,311.734497 884.052246,327.869232
	C879.558655,343.376831 869.464355,354.528168 856.105530,362.841919
	C846.725464,368.679474 836.292480,372.002319 825.276672,373.062500
	C785.738037,376.867767 746.089172,374.033966 706.000061,374.896851
M750.500000,282.074677
	C744.008728,282.075317 737.513733,282.210876 731.027588,282.028717
	C726.773621,281.909241 725.021912,283.561676 725.078735,287.894684
	C725.237976,300.042908 725.124878,312.194519 725.152283,324.344696
	C725.165710,330.288940 725.775757,330.903107 731.791260,330.909607
	C754.427368,330.934113 777.065247,331.091309 799.698608,330.845337
	C807.788513,330.757416 815.908875,329.988617 823.941895,328.958527
	C836.507263,327.347260 843.313049,319.783051 843.890320,307.559082
	C844.467041,295.349213 838.290649,286.713989 826.164795,284.160339
	C819.565186,282.770508 812.688599,282.265137 805.925232,282.167114
	C787.786865,281.904205 769.642151,282.075806 750.500000,282.074677
M776.500000,194.070465
	C761.354248,194.069794 746.207886,194.147827 731.063232,194.017670
	C726.845093,193.981415 725.013550,195.486969 725.076111,199.850037
	C725.236023,210.998962 725.210510,222.152695 725.081543,233.302475
	C725.034363,237.377991 726.725891,238.942490 730.751099,238.930130
	C757.214233,238.848846 783.681213,239.126465 810.139404,238.754807
	C819.991272,238.616409 828.506042,234.758438 831.840393,224.432571
	C833.021606,220.774399 832.963257,216.625916 832.980408,212.699127
	C833.027344,201.953156 826.606140,195.313461 815.859070,194.971848
	C803.076111,194.565506 790.286621,194.362030 776.500000,194.070465
z"/>
<path fill="#FFFFFF" opacity="1.000000" stroke="none"
	d="
M475.034363,301.000000
	C475.034943,252.683868 475.129181,204.867279 474.902985,157.052216
	C474.878143,151.798737 476.449646,150.753540 481.357117,150.768356
	C536.003662,150.933548 590.650818,150.871231 645.297852,150.870285
	C646.630737,150.870255 647.963562,150.871994 649.296448,150.869980
	C660.989990,150.852219 660.990051,150.852020 660.986450,162.935852
	C660.983948,171.266190 660.739929,179.606140 661.071228,187.923172
	C661.262939,192.735992 659.669006,194.191391 654.839539,194.173157
	C612.022217,194.011414 569.204041,194.080780 526.386108,194.088287
	C519.029968,194.089569 519.013000,194.103485 518.994019,201.478531
	C518.970459,210.641846 518.973511,219.805237 518.974792,228.968597
	C518.975708,235.945969 518.982422,235.951080 525.781006,235.951202
	C564.100525,235.951904 602.420105,235.948029 640.739624,235.950592
	C647.936462,235.951065 647.942505,235.961212 647.947266,243.073593
	C647.953918,253.069992 647.963135,263.066437 647.947021,273.062805
	C647.936951,279.309540 647.351562,279.904755 641.058533,279.906738
	C602.405762,279.918884 563.752625,279.992249 525.100708,279.814728
	C520.417236,279.793243 518.732971,280.852051 518.863342,285.829285
	C519.207886,298.982239 519.135071,312.152832 518.899353,325.310516
	C518.820557,329.711243 520.267334,331.011078 524.635010,330.997620
	C569.285217,330.859863 613.935974,330.909302 658.586609,330.910736
	C666.882690,330.911011 666.976074,330.921417 666.846069,339.437775
	C666.696350,349.244415 666.084473,359.052002 666.220093,368.851624
	C666.288818,373.819855 664.462280,375.005096 659.805969,374.992798
	C609.157898,374.858887 558.509277,374.908356 507.860840,374.907257
	C498.697479,374.907074 489.529419,374.731873 480.372803,374.979645
	C476.164948,375.093506 474.931396,373.571259 474.959290,369.473053
	C475.113556,346.816254 475.033844,324.157837 475.034363,301.000000
z"/>
<path fill="#FFFFFF" opacity="1.000000" stroke="none"
	d="
M414.862366,159.081055
	C425.322083,165.199478 435.416473,171.214981 445.513184,177.226608
	C447.835632,178.609421 448.215424,180.324097 446.642334,182.587479
	C439.830200,192.389008 433.105865,202.251846 426.252472,212.024277
	C423.995056,215.243210 421.639557,213.046936 419.360779,211.804428
	C410.068268,206.737671 400.951080,201.304642 391.426300,196.718979
	C376.607086,189.584335 360.640625,189.091629 344.634277,190.385681
	C333.889832,191.254333 323.326416,193.281540 313.811981,198.898239
	C308.249481,202.181976 303.629791,206.109863 301.853424,212.759293
	C298.774445,224.284836 303.371063,230.437225 314.840973,232.786896
	C323.538086,234.568558 332.645905,234.474258 341.585754,234.914352
	C358.345917,235.739410 375.215363,235.451263 391.856995,237.282990
	C410.551971,239.340714 427.996796,245.747955 442.222778,258.812134
	C452.945038,268.658722 457.875702,281.308197 460.080414,295.497467
	C464.558411,324.317566 449.665741,351.253448 423.419952,362.996918
	C413.797089,367.302551 403.935425,371.277893 393.846619,374.271088
	C386.454407,376.464264 378.531952,376.949097 370.813904,377.949280
	C352.315704,380.346466 333.909882,378.934570 315.877594,374.777740
	C296.160217,370.232452 277.775391,362.192749 261.954742,349.271271
	C254.662552,343.315521 247.984268,336.608032 241.368607,330.553436
	C249.785477,321.796204 257.956268,313.536743 265.827057,305.000641
	C269.574554,300.936340 272.098969,301.048248 276.746704,304.498932
	C287.070129,312.163483 297.879395,319.352264 309.167786,325.489471
	C321.074738,331.963013 334.467865,334.171143 347.957489,334.915436
	C363.505554,335.773315 378.917816,334.580078 393.550629,328.947632
	C399.283325,326.741028 405.139038,323.729218 409.631500,319.645935
	C421.024841,309.290192 418.757935,292.097534 404.873199,285.244385
	C398.051758,281.877502 390.076660,279.720947 382.487488,279.260376
	C364.064362,278.142242 345.558990,278.436401 327.091675,277.968323
	C315.616730,277.677490 304.406891,276.067535 293.681458,271.437927
	C267.857147,260.290924 254.301331,237.445877 257.353973,210.199203
	C259.357025,192.320694 268.748077,177.967987 283.501953,167.315262
	C296.745911,157.752731 311.320496,151.613419 327.455536,148.807953
	C340.784393,146.490433 354.021820,145.607208 367.571869,146.757904
	C380.958099,147.894684 393.703827,151.089722 406.229034,155.589279
	C409.029541,156.595337 411.743866,157.841248 414.862366,159.081055
z"/>
<path fill="#FFFFFF" opacity="1.000000" stroke="none"
	d="
M369.077209,47.000137
	C369.075836,40.504318 369.172089,34.506172 369.032959,28.513493
	C368.957916,25.280819 370.264221,24.038418 373.468445,24.102562
	C391.926910,24.472071 410.466583,23.795914 428.824066,25.327568
	C446.151123,26.773252 456.477112,38.623226 453.413452,57.351345
	C451.686920,67.905548 446.407745,74.932198 435.904480,77.857796
	C431.190979,79.170708 430.939026,80.511398 433.528503,85.020294
	C438.889648,94.355347 444.156891,103.744522 449.427338,113.131294
	C450.054596,114.248405 450.461670,115.489113 450.970459,116.671738
	C443.990387,119.678482 439.332184,118.380966 436.009064,112.505547
	C430.550781,102.854919 425.059021,93.218178 419.876099,83.419685
	C418.157562,80.170776 416.106598,78.871155 412.444702,78.964325
	C403.789612,79.184540 395.117340,79.251297 386.467560,78.943329
	C381.936829,78.782021 380.749329,80.509636 380.871368,84.761604
	C381.129303,93.747971 380.725952,102.754662 381.037506,111.737617
	C381.201691,116.472290 379.780945,118.140495 374.865295,118.110641
	C370.128601,118.081856 368.948364,116.434013 368.988434,111.954865
	C369.180542,90.471397 369.075928,68.985275 369.077209,47.000137
M438.557831,63.089981
	C443.567993,58.169659 444.158783,52.235336 441.836884,46.061512
	C439.323914,39.379585 433.583282,36.415134 426.955627,36.098293
	C413.182037,35.439827 399.377747,35.446613 385.589874,35.048862
	C382.126282,34.948944 380.847382,36.269962 380.914429,39.721008
	C381.066467,47.544197 381.077606,55.375572 380.891449,63.197556
	C380.800385,67.025208 382.502655,68.046112 386.021606,68.005173
	C397.509735,67.871513 409.020996,68.361824 420.481415,67.782158
	C426.419006,67.481842 432.951141,68.196335 438.557831,63.089981
z"/>
<path fill="#FFFFFF" opacity="1.000000" stroke="none"
	d="
M332.998291,66.947960
	C337.829529,66.945671 342.179535,66.721489 346.481049,67.079727
	C347.717804,67.182732 349.815613,68.963097 349.818329,69.978996
	C349.841675,78.614067 349.748108,87.269669 349.141235,95.880478
	C348.558197,104.153175 342.984741,109.196899 336.273804,112.990227
	C325.350098,119.164810 313.623688,120.315750 301.203156,119.246284
	C287.877258,118.098862 276.975098,112.814087 267.934601,103.284866
	C261.772552,96.789711 258.423309,88.614113 257.282684,80.085449
	C255.018921,63.158489 258.623749,47.587257 271.974518,35.720726
	C280.567078,28.083418 290.499420,23.698931 302.345306,22.703299
	C315.315033,21.613207 327.037720,23.772810 337.810059,30.992962
	C339.458466,32.097813 340.898346,33.508987 342.478790,34.720959
	C348.333984,39.211102 348.513916,40.692001 342.937317,45.197334
	C341.880066,46.051517 339.373749,46.076542 338.023712,45.443748
	C330.574677,41.952244 323.638947,36.413250 315.854858,34.779202
	C297.349152,30.894459 277.153351,39.217587 270.511139,58.365059
	C262.815674,80.548759 274.723358,104.448845 301.428772,108.111267
	C310.596436,109.368530 319.236115,108.126793 327.687683,104.698265
	C336.803925,101.000099 342.163391,89.341423 338.654968,80.200531
	C338.222229,79.073006 335.827759,78.125710 334.314209,78.082550
	C326.823303,77.868935 319.307922,77.700058 311.831451,78.092606
	C307.095734,78.341255 306.908020,76.004723 306.817444,72.369675
	C306.719452,68.437187 307.596283,66.634392 312.012268,66.864151
	C318.824066,67.218582 325.668213,66.951187 332.998291,66.947960
z"/>
<path fill="#FFFFFF" opacity="1.000000" stroke="none"
	d="
M820.163757,106.960716
	C837.800720,106.964844 854.960815,107.099098 872.116333,106.879524
	C876.322632,106.825691 877.088440,108.466415 877.033997,112.161423
	C876.979431,115.862671 876.524658,118.056541 871.936829,118.018028
	C850.282166,117.836212 828.624512,117.861000 806.969299,118.006889
	C802.763489,118.035233 801.187988,116.105370 801.183838,112.355049
	C801.153076,84.535172 801.170349,56.715237 801.151550,28.895336
	C801.149292,25.527279 802.838257,24.091461 806.102844,24.094622
	C828.092224,24.115904 850.081787,24.152122 872.070984,24.086096
	C878.031555,24.068199 876.843201,28.232523 876.920715,31.767906
	C877.011414,35.907955 874.485779,35.274792 871.543762,35.242348
	C853.388428,35.042110 835.229858,35.138721 817.072571,35.077305
	C814.434509,35.068382 812.995178,35.942623 813.018555,38.796143
	C813.075928,45.792259 813.134949,52.791206 812.993042,59.784950
	C812.918274,63.469341 815.301086,63.138870 817.671509,63.137974
	C835.163086,63.131371 852.654663,63.123119 870.146240,63.139557
	C876.118591,63.145168 879.494263,68.365280 876.560486,73.493431
	C875.957336,74.547783 873.452576,74.909531 871.820312,74.919006
	C854.329346,75.020538 836.834290,75.172890 819.347839,74.875443
	C814.214600,74.788124 812.610168,76.375877 812.930176,81.405876
	C813.331299,87.710693 813.021423,94.060333 813.030640,100.390610
	C813.040161,106.899094 813.046570,106.899086 820.163757,106.960716
z"/>
<path fill="#FFFFFF" opacity="1.000000" stroke="none"
	d="
M477.800507,41.881550
	C485.178253,33.502968 493.211487,26.966984 504.065948,24.123255
	C532.563416,16.657314 562.489014,32.478107 567.945679,63.272793
	C572.120728,86.834518 557.398071,110.284332 534.247559,117.106270
	C507.093353,125.108017 482.734528,113.823143 471.833221,89.668030
	C467.193756,79.387985 466.030457,67.898338 470.578857,56.817787
	C472.631866,51.816319 475.222046,47.035347 477.800507,41.881550
M514.711121,108.114899
	C519.819885,107.703178 525.138000,108.065750 530.002380,106.750313
	C555.759216,99.785080 565.988220,67.651360 548.851074,47.712154
	C537.684387,34.719566 523.246460,31.120516 507.031036,35.494404
	C488.296814,40.547680 479.117310,55.644196 479.257690,72.326462
	C479.413086,90.790001 494.904816,106.103065 514.711121,108.114899
z"/>
<path fill="#FFFFFF" opacity="1.000000" stroke="none"
	d="
M776.565247,69.518265
	C769.675171,75.745346 761.697144,77.953827 752.959351,77.963188
	C741.637878,77.975319 730.316467,77.959442 718.994995,77.982292
	C712.673462,77.995049 712.036621,78.612991 712.020935,84.767883
	C711.997681,93.924881 711.834045,103.087227 712.097351,112.236748
	C712.222473,116.588577 710.778931,118.082878 706.383179,118.059906
	C702.211121,118.038109 700.924683,116.637405 700.944397,112.529205
	C701.077942,84.725723 701.075317,56.920948 700.937256,29.117479
	C700.917053,25.049662 702.498596,24.004248 706.263611,24.043318
	C720.746887,24.193613 735.240601,23.818907 749.714417,24.219698
	C758.788025,24.470949 768.136475,24.865494 775.051453,32.278030
	C783.776733,41.631126 784.498962,57.576168 776.565247,69.518265
M722.558289,35.085766
	C720.395325,35.080837 718.230286,35.133057 716.069885,35.056355
	C713.437744,34.962910 711.996277,35.955833 712.012146,38.789215
	C712.057739,46.941788 711.896118,55.099052 712.162842,63.243118
	C712.203918,64.497787 714.081238,66.760330 715.098999,66.754463
	C729.875488,66.669479 744.699951,66.901726 759.407471,65.732079
	C768.779724,64.986732 773.696289,53.898975 770.026001,44.972183
	C766.627747,36.707115 759.368286,35.514030 751.988342,35.189434
	C742.522644,34.773102 733.024841,35.087257 722.558289,35.085766
z"/>
<path fill="#FFFFFF" opacity="1.000000" stroke="none"
	d="
M588.989441,71.998672
	C588.995544,57.673798 589.109436,43.847240 588.940796,30.024128
	C588.891663,25.992922 589.629211,23.867851 594.363831,23.976458
	C598.991821,24.082619 600.957825,25.491133 600.916016,30.369293
	C600.756470,49.023323 600.890381,67.679848 600.911560,86.335442
	C600.923828,97.164230 608.113831,104.559471 618.471191,107.343231
	C627.417480,109.747749 636.069275,109.200867 644.496094,106.729774
	C653.026123,104.228409 659.989014,97.463120 660.074585,84.367821
	C660.191040,66.545670 660.122864,48.722343 660.151062,30.899544
	C660.160645,24.808071 661.657654,23.228930 667.520813,24.290691
	C669.175232,24.590290 671.704102,27.019053 671.701294,28.467148
	C671.660461,49.593441 672.223267,70.794777 670.574524,91.816048
	C669.604370,104.185333 661.799805,113.429245 648.911011,117.024620
	C634.410339,121.069595 620.049866,121.104370 606.171875,114.934990
	C597.573914,111.112801 592.444214,103.967773 591.021667,94.708595
	C589.894836,87.374222 589.634583,79.906700 588.989441,71.998672
z"/>
<path fill="#FFFFFF" opacity="1.000000" stroke="none"
	d="
M32.788551,324.740326
	C34.770622,323.190613 36.774845,322.122437 38.147560,320.514954
	C41.701351,316.353363 44.608345,317.055908 48.473186,320.448639
	C56.713188,327.682098 65.300728,334.531342 73.925446,341.309479
	C77.619202,344.212402 79.282280,347.376556 79.132042,352.280945
	C78.745338,364.903900 79.002693,377.546570 79.002693,390.558197
	C55.127270,390.558197 31.606199,390.558197 7.631262,390.558197
	C7.631262,376.025452 7.544796,361.740143 7.761541,347.459412
	C7.783853,345.989349 9.358015,344.243286 10.651801,343.141754
	C17.867300,336.998596 25.218307,331.014557 32.788551,324.740326
z"/>
</svg>
