<?xml version="1.0" encoding="UTF-8"?>
<svg id="Calque_2" data-name="Calque 2" xmlns="http://www.w3.org/2000/svg" viewBox="0 0 213.79 159.18">
  <g id="Calque_1-2" data-name="Calque 1">
    <g>
      <circle class="cls-1" cx="173.64" cy="145.12" r="8.86"/>
      <path class="cls-1" d="m58.32,87.47c-4.48,0-8.12-3.81-8.12-8.52v-16.05c0-4.71,3.64-8.52,8.12-8.52s8.12,3.81,8.12,8.52v16.05c0,4.71-3.64,8.52-8.12,8.52Z"/>
      <path class="cls-1" d="m102.26,87.47c-4.48,0-8.12-3.81-8.12-8.52v-16.05c0-4.71,3.64-8.52,8.12-8.52s8.12,3.81,8.12,8.52v16.05c0,4.71-3.64,8.52-8.12,8.52Z"/>
      <path class="cls-1" d="m145.2,156.42c3.82-2.43,6.1-5.85,6.96-10.45.87-4.6-.06-8.57-2.85-12.16-2.79-3.59-5.99-5.65-10.99-6.53l-1.18-.19s7.9-6.64,12.08-13.44c24-39.07,8.93-92.62-35.56-108.22C75.65-7.88,24.13,2.78,6.64,42.49c-9.54,21.65-5.68,43.9,5.85,63.72-1.77.42-3.44,1.14-5.07,2.13-3.93,2.41-6.25,5.83-7.11,10.4-.87,4.6.06,8.57,2.83,12.16,2.81,3.61,6.61,5.78,11.61,6.67l117.91,21.23c1.39.25,2.45.38,3.74.38,3.5,0,5.99-.98,8.79-2.75Zm-63.82-43.35c-7.22-.24-14.36-1.45-20.69-3.35-14.42-4.33-27.04-14.18-29.44-30.09-2.03-13.49.68-28.32,11.59-37.46,10.45-8.76,28.71-11.25,41.97-10.62,9.67.46,19.43,2.39,27.92,7.05,19.29,10.59,23.9,37.43,11.73,56.48-9.09,14.23-27.18,18.51-43.07,17.99Z"/>
      <circle class="cls-1" cx="198.15" cy="122.79" r="15.64"/>
    </g>
  </g>
</svg>
