<svg height="252" preserveAspectRatio="xMidYMid" viewBox="0 0 256 252" width="256" xmlns="http://www.w3.org/2000/svg"><g fill="#8e75ff"><path d="m249.868148 0h-168.2551808v84.3619834h82.7895968c2.949446 0 5.342209 2.392763 5.342209 5.3422095v81.6469301h85.465593v-165.9991472c.002585-1.41853342-.559109-2.77985564-1.561248-3.78382753-1.00214-1.00397189-2.362434-1.56814827-3.78097-1.56814827z"/><path d="m81.6032009 0v84.3619834h-78.93187666c-1.08463152-.0019235-2.06082653-.6583733-2.4717543-1.6621499-.41092776-1.0037767-.17530271-2.1563234.5966095-2.9182819zm92.6927051 251.220572c-.768442.754769-1.914507.975244-2.908135.559455-.993629-.415789-1.641117-1.386785-1.642998-2.463899v-77.965005h85.465584l-80.914451 79.859683z" opacity=".405"/><path d="m81.6032009 84.3619834h85.4753511c1.464956 0 2.666221 1.1914983 2.666221 2.6662216v84.322918h-82.7895963c-2.9504208 0-5.3422095-2.391789-5.3422095-5.34221v-81.6469296z" opacity=".405"/></g></svg>