<?xml version="1.0" encoding="utf-8"?>
<!-- Generator: Adobe Illustrator 25.1.0, SVG Export Plug-In . SVG Version: 6.00 Build 0)  -->
<svg version="1.1" id="Calque_1" xmlns="http://www.w3.org/2000/svg" xmlns:xlink="http://www.w3.org/1999/xlink" x="0px" y="0px"
	 width="110px" height="110px" viewBox="0 0 110 110" style="enable-background:new 0 0 110 110;" xml:space="preserve">
<style type="text/css">
	.st0{fill:#FF9900;}
	.st1{fill:#FFB13B;}
	.st2{fill:#DE8500;}
	.st3{fill:#FFFFFF;}
	.st4{fill:#3F3F3F;}
	.st5{fill:#FFFFFF;stroke:#000000;stroke-width:1.007;stroke-miterlimit:8;}
</style>
<a xlink:href="http://www.w3.org/Graphics/SVG/" >
	<path id="background" class="st0" d="M4.4,0h101.2c2.4,0,4.4,2,4.4,4.4v101.2c0,2.4-2,4.4-4.4,4.4H4.4C2,110,0,108,0,105.6V4.4
		C0,2,2,0,4.4,0z"/>
	<path id="top-left" class="st1" d="M4.4,0h46.2C53,0,55,2,55,4.4v46.2c0,2.4-2,4.4-4.4,4.4H4.4C2,55,0,53,0,50.6V4.4C0,2,2,0,4.4,0
		z"/>
	<path id="bottom-right" class="st2" d="M59.4,55h46.2c2.4,0,4.4,2,4.4,4.4v46.2c0,2.4-2,4.4-4.4,4.4H59.4c-2.4,0-4.4-2-4.4-4.4
		V59.4C55,57,57,55,59.4,55z"/>
	<g id="circles">
		<circle id="n" class="st0" cx="55" cy="20.2" r="20.2"/>
		<circle id="ne" class="st0" cx="79.6" cy="30.4" r="20.2"/>
		<circle id="e" class="st0" cx="89.8" cy="55" r="20.2"/>
		<circle id="se" class="st0" cx="79.6" cy="79.6" r="20.2"/>
		<circle id="s" class="st0" cx="55" cy="89.8" r="20.2"/>
		<circle id="sw" class="st0" cx="30.4" cy="79.6" r="20.2"/>
		<circle id="w" class="st0" cx="20.2" cy="55" r="20.2"/>
		<circle id="nw" class="st0" cx="30.4" cy="30.4" r="20.2"/>
	</g>
	<g id="stars">
		<path id="black-star" d="M69.4,20.2c0-7.9-6.4-14.4-14.4-14.4c-8,0-14.4,6.4-14.4,14.4c-5.6-5.6-14.7-5.6-20.3,0
			c-5.6,5.6-5.6,14.7,0,20.4c-8,0-14.4,6.4-14.4,14.4c0,8,6.5,14.4,14.4,14.4c-5.6,5.6-5.6,14.7,0,20.4c5.6,5.6,14.7,5.6,20.3,0
			c0,8,6.4,14.4,14.4,14.4c8,0,14.4-6.4,14.4-14.4c5.6,5.6,14.8,5.6,20.4,0c5.6-5.6,5.6-14.8,0-20.4c7.9,0,14.4-6.5,14.4-14.4
			c0-7.9-6.5-14.4-14.4-14.4c5.6-5.6,5.6-14.7,0-20.4C84.2,14.6,75,14.6,69.4,20.2z"/>
		<path id="white-star" class="st3" d="M60.5,25.7v15.9l11.3-11.3c0-2,0.8-4,2.3-5.5c3.1-3,8-3,11,0c3,3,3,8,0,11
			c-1.5,1.5-3.5,2.3-5.5,2.3L68.3,49.5h15.9c1.4-1.4,3.4-2.3,5.5-2.3c4.3,0,7.8,3.5,7.8,7.8c0,4.3-3.5,7.8-7.8,7.8
			c-2.2,0-4.1-0.9-5.5-2.3H68.3l11.3,11.3c2,0,4,0.8,5.5,2.3c3.1,3,3.1,8,0,11c-3,3.1-8,3.1-11,0c-1.5-1.5-2.3-3.5-2.3-5.5
			L60.5,68.3v15.9c1.4,1.4,2.3,3.4,2.3,5.5c0,4.3-3.5,7.8-7.8,7.8c-4.3,0-7.8-3.5-7.8-7.8c0-2.2,0.9-4.1,2.3-5.5V68.3L38.2,79.6
			c0,2-0.8,4-2.3,5.5c-3,3-8,3-11,0c-3.1-3-3.1-8,0-11c1.5-1.5,3.5-2.3,5.5-2.3l11.3-11.3H25.8c-1.4,1.4-3.4,2.3-5.5,2.3
			c-4.3,0-7.8-3.5-7.8-7.8s3.5-7.8,7.8-7.8c2.1,0,4.1,0.9,5.5,2.3h15.9L30.4,38.2c-2,0-4-0.8-5.5-2.3c-3.1-3-3.1-8,0-11
			c3.1-3,8-3,11,0c1.5,1.5,2.3,3.5,2.3,5.5l11.3,11.3V25.7c-1.4-1.4-2.3-3.4-2.3-5.5c0-4.3,3.5-7.8,7.8-7.8c4.3,0,7.8,3.5,7.8,7.8
			C62.8,22.4,61.9,24.3,60.5,25.7z"/>
	</g>
	<g id="svg-textbox">
		<path id="text-backdrop" d="M5.8,55h98.3v44c0,3.7-1.8,5.5-5.5,5.5H11.3c-3.7,0-5.5-1.8-5.5-5.5V55z"/>
		<path id="shine" class="st4" d="M16.1,59.6h78.5c3.2,0,5.8,2.6,5.8,5.8v19.7c-30.3-3.7-60.4-8.9-90.2-8.5V65.5
			C10.3,62.3,12.9,59.6,16.1,59.6L16.1,59.6z"/>
		<g id="svg-text">
			<path id="S" class="st5" d="M20.1,80.2c-2.3-2.3-3.7-5.5-3.7-9.1c0-7.1,5.7-12.8,12.8-12.8c7.1,0,12.8,5.7,12.8,12.8h-7.5
				c0-2.9-2.4-5.3-5.3-5.3c-2.9,0-5.3,2.4-5.3,5.3c0,1.5,0.6,2.8,1.6,3.8l0,0c1,1,2.3,1.5,3.8,1.5v0c3.6,0,6.8,1.4,9.1,3.8l0,0
				c2.3,2.3,3.8,5.5,3.8,9.1c0,7.1-5.7,12.8-12.8,12.8c-7.1,0-12.8-5.7-12.8-12.8h7.5c0,2.9,2.4,5.3,5.3,5.3c2.9,0,5.3-2.4,5.3-5.3
				c0-1.5-0.6-2.8-1.6-3.7l0,0c-1-1-2.3-1.6-3.7-1.6l0,0C25.7,84,22.5,82.5,20.1,80.2L20.1,80.2L20.1,80.2z"/>
			<polygon id="V" class="st5" points="67.7,58.3 58.7,102.1 51.1,102.1 42.1,58.3 49.6,58.3 54.9,84 60.2,58.3 			"/>
			<path id="G" class="st5" d="M80.6,76.5h12.9v12.8l0,0c0,7.1-5.7,12.8-12.8,12.8c-7.1,0-12.8-5.7-12.8-12.8l0,0V71.1h0
				c0-7.1,5.8-12.8,12.8-12.8c7.1,0,12.9,5.7,12.9,12.8h-7.5c0-2.9-2.4-5.3-5.3-5.3c-2.9,0-5.3,2.4-5.3,5.3v18.2l0,0
				c0,2.9,2.4,5.3,5.3,5.3c3,0,5.3-2.4,5.3-5.3v0V84h-5.3L80.6,76.5L80.6,76.5z"/>
		</g>
	</g>
</a>
</svg>
