<?xml version="1.0" encoding="utf-8"?>
<!-- Generator: Adobe Illustrator 24.3.0, SVG Export Plug-In . SVG Version: 6.00 Build 0)  -->
<svg version="1.1" id="Calque_1" xmlns="http://www.w3.org/2000/svg" xmlns:xlink="http://www.w3.org/1999/xlink" x="0px" y="0px"
	 width="110px" height="110px" viewBox="0 0 110 110" enable-background="new 0 0 110 110" xml:space="preserve">
<g id="fond">
</g>
<g id="compacte">
</g>
<g id="rectangle">
</g>
<g id="carré">
	<g>
		<g>
			<path d="M110,55c0,30.4-24.6,55-55,55S0,85.4,0,55S24.6,0,55,0S110,24.6,110,55z"/>
			<path fill="#FFFFFF" d="M79,20.3c-5.6,0.2-10.5,3.3-14.1,7.5c-4,4.7-6.7,10.2-8.6,15.9c-3.4-2.8-6.1-6.5-11.6-8.1
				c-4.3-1.2-8.8-0.7-12.9,2.4c-2,1.5-3.3,3.7-3.9,5.7c-1.7,5.4,1.7,10.2,3.3,11.9l3.4,3.6c0.7,0.7,2.4,2.6,1.6,5.2
				c-0.9,2.9-4.4,4.8-7.9,3.7c-1.6-0.5-3.9-1.7-3.4-3.3c0.2-0.7,0.7-1.2,1-1.8c0.2-0.5,0.4-0.9,0.4-1.1c0.7-2.1-0.2-4.9-2.5-5.6
				c-2.1-0.7-4.3-0.1-5.2,2.6c-1,3.1,0.5,8.8,8.5,11.2c9.4,2.9,17.3-2.2,18.4-8.9C46.2,57,44.3,54,40.9,50L38,47
				c-1.7-1.7-2.3-4.6-0.5-6.8c1.5-1.9,3.6-2.7,7.1-1.7c5.1,1.4,7.3,4.9,11.1,7.7c-1.7,5-2.7,10.1-3.6,14.7l-0.6,3.4
				c-2.7,14.1-4.7,21.8-10.1,26.2c-1.1,0.8-2.6,1.9-4.9,2c-1.2,0-1.6-0.8-1.6-1.2c0-0.8,0.7-1.2,1.2-1.6c0.7-0.4,1.8-1,1.7-3.1
				c-0.1-2.4-2.1-4.5-5-4.5c-2.2,0.1-5.5,2.1-5.4,5.9c0.1,3.9,3.8,6.8,9.2,6.6c2.9-0.1,9.4-1.3,15.9-8.9C60,77,62.1,67,63.6,59.6
				l1.8-9.7c1,0.1,2,0.2,3.2,0.2c9.3,0.2,14-4.6,14.1-8.1c0-2.1-1.4-4.2-3.4-4.2c-1.4,0-3.3,1-3.7,3c-0.4,2,3,3.7,0.3,5.4
				c-1.9,1.2-5.3,2.1-10,1.4l0.9-4.8c1.8-9.1,3.9-20.2,12.2-20.5c0.6,0,2.8,0,2.9,1.5c0,0.5-0.1,0.6-0.7,1.7
				c-0.6,0.9-0.8,1.6-0.8,2.5c0.1,2.3,1.8,3.8,4.4,3.7c3.4-0.1,4.4-3.4,4.3-5.1C88.8,22.7,84.6,20.2,79,20.3z"/>
		</g>
	</g>
</g>
</svg>
