<?xml version="1.0" encoding="UTF-8"?>
<svg width="400px" height="418px" viewBox="0 0 400 418" version="1.1" xmlns="http://www.w3.org/2000/svg" xmlns:xlink="http://www.w3.org/1999/xlink">
    <title>Group 4</title>
    <defs>
        <polygon id="path-1" points="0 219.037151 233.998015 219.037151 233.998015 0.231936142 0 0.231936142"></polygon>
    </defs>
    <g id="Home" stroke="none" stroke-width="1" fill="none" fill-rule="evenodd">
        <g id="services" transform="translate(-160.000000, -3519.000000)">
            <g id="Group-4" transform="translate(160.000000, 3519.025820)">
                <rect id="Rectangle-Copy-6" fill="#0D3A5A" x="0" y="0" width="400" height="417"></rect>
                <g id="Group-25" transform="translate(48.000000, 74.500000)">
                    <polygon id="Fill-1" fill="#00CBCB" points="128.033368 0.371241304 0.271570468 267.43089 56.9802882 267.43089 184.740283 0.371241304"></polygon>
                    <polygon id="Fill-2" fill="#00CBCB" points="233.191349 0.371241304 105.429552 267.43089 158.625181 267.43089 286.386978 0.371241304"></polygon>
                    <g id="Group-24" transform="translate(26.329825, 47.430890)">
                        <path d="M231.917076,174.251855 L231.917076,98.8701514 C231.917076,97.0716635 230.459122,95.6122348 228.660634,95.6122348 L87.7697466,95.6122348 C85.9712587,95.6122348 84.51183,97.0716635 84.51183,98.8701514 L84.51183,174.957982" id="Fill-3" fill="#04002C"></path>
                        <mask id="mask-2" fill="white">
                            <use xlink:href="#path-1"></use>
                        </mask>
                        <g id="Clip-6"></g>
                        <polygon id="Fill-5" fill="#AF9DAA" mask="url(#mask-2)" points="139.347431 211.632393 177.080296 211.632393 177.080296 194.352168 139.347431 194.352168"></polygon>
                        <path d="M186.778568,211.632246 L129.650043,211.632246 C125.560694,211.632246 122.245285,214.947655 122.245285,219.037004 L194.183326,219.037004 C194.183326,214.947655 190.867917,211.632246 186.778568,211.632246" id="Fill-7" fill="#CCBECD" mask="url(#mask-2)"></path>
                        <polygon id="Fill-8" fill="#FFFFFF" mask="url(#mask-2)" points="225.854845 180.247158 225.854845 101.617858 90.5746506 101.08863 90.5746506 180.247158"></polygon>
                        <path d="M84.5122723,174.957245 L84.5122723,191.094988 C84.5122723,192.893476 85.9702268,194.352905 87.7687147,194.352905 L228.659602,194.352905 C230.45809,194.352905 231.917518,192.893476 231.917518,191.094988 L231.917518,174.251117" id="Fill-9" fill="#CFBED0" mask="url(#mask-2)"></path>
                        <path d="M162.798828,183.420752 C162.798828,185.951903 160.746783,188.005422 158.214158,188.005422 C155.683008,188.005422 153.629488,185.951903 153.629488,183.420752 C153.629488,180.889602 155.683008,178.836082 158.214158,178.836082 C160.746783,178.836082 162.798828,180.889602 162.798828,183.420752" id="Fill-10" fill="#04002C" mask="url(#mask-2)"></path>
                        <polygon id="Fill-11" fill="#020128" mask="url(#mask-2)" points="139.347431 199.995292 177.080296 199.995292 177.080296 194.352168 139.347431 194.352168"></polygon>
                        <path d="M16.9077025,40.9530924 L16.9077025,35.2244662 C16.9077025,30.4024549 20.8157282,26.4944291 25.6362654,26.4944291 L119.613154,26.4944291 C124.433691,26.4944291 128.343191,30.4024549 128.343191,35.2244662 L128.343191,40.9530924 L16.9077025,40.9530924 Z" id="Fill-12" fill="#04002C" mask="url(#mask-2)"></path>
                        <path d="M128.342896,40.9530924 L128.342896,136.253786 C128.342896,141.074323 124.43487,144.982349 119.612859,144.982349 L25.6374447,144.982349 C20.8154334,144.982349 16.9074077,141.074323 16.9074077,136.253786 L16.9074077,40.9530924 L128.342896,40.9530924 Z" id="Fill-13" fill="#FFE4E4" mask="url(#mask-2)"></path>
                        <polygon id="Fill-14" fill="#95006C" mask="url(#mask-2)" points="26.6043531 57.5285169 77.9143279 57.5285169 77.9143279 51.7099663 26.6043531 51.7099663"></polygon>
                        <polygon id="Fill-15" fill="#007695" mask="url(#mask-2)" points="37.7137012 70.0471719 62.5755849 70.0471719 62.5755849 64.2286213 37.7137012 64.2286213"></polygon>
                        <polygon id="Fill-16" fill="#FF4345" mask="url(#mask-2)" points="49.8800295 82.5643527 85.8497871 82.5643527 85.8497871 76.7458021 49.8800295 76.7458021"></polygon>
                        <polygon id="Fill-17" fill="#95006C" mask="url(#mask-2)" points="49.8785553 95.0844818 101.18853 95.0844818 101.18853 89.2659313 49.8785553 89.2659313"></polygon>
                        <polygon id="Fill-18" fill="#007695" mask="url(#mask-2)" points="37.712227 107.603137 65.7479996 107.603137 65.7479996 101.784586 37.712227 101.784586"></polygon>
                        <polygon id="Fill-19" fill="#FF4345" mask="url(#mask-2)" points="26.6043531 120.121792 77.9143279 120.121792 77.9143279 114.303241 26.6043531 114.303241"></polygon>
                        <polygon id="Fill-20" fill="#95006C" mask="url(#mask-2)" points="26.6058273 132.640447 65.2202466 132.640447 65.2202466 126.821896 26.6058273 126.821896"></polygon>
                        <path d="M29.2503416,34.2531353 C29.2503416,35.7140382 28.0665827,36.897797 26.6056799,36.897797 C25.144777,36.897797 23.9610182,35.7140382 23.9610182,34.2531353 C23.9610182,32.7922325 25.144777,31.6084737 26.6056799,31.6084737 C28.0665827,31.6084737 29.2503416,32.7922325 29.2503416,34.2531353" id="Fill-21" fill="#FFFFFF" mask="url(#mask-2)"></path>
                        <path d="M38.2421913,34.2531353 C38.2421913,35.7140382 37.0584325,36.897797 35.5975296,36.897797 C34.1366267,36.897797 32.9528679,35.7140382 32.9528679,34.2531353 C32.9528679,32.7922325 34.1366267,31.6084737 35.5975296,31.6084737 C37.0584325,31.6084737 38.2421913,32.7922325 38.2421913,34.2531353" id="Fill-22" fill="#FFFFFF" mask="url(#mask-2)"></path>
                        <path d="M47.2347781,34.2531353 C47.2347781,35.7140382 46.0510193,36.897797 44.5901164,36.897797 C43.1292136,36.897797 41.9454547,35.7140382 41.9454547,34.2531353 C41.9454547,32.7922325 43.1292136,31.6084737 44.5901164,31.6084737 C46.0510193,31.6084737 47.2347781,32.7922325 47.2347781,34.2531353" id="Fill-23" fill="#FFFFFF" mask="url(#mask-2)"></path>
                    </g>
                </g>
            </g>
        </g>
    </g>
</svg>