<?xml version="1.0" encoding="UTF-8"?>
<svg width="400px" height="479px" viewBox="0 0 400 479" version="1.1" xmlns="http://www.w3.org/2000/svg" xmlns:xlink="http://www.w3.org/1999/xlink">
    <title>Group 6</title>
    <defs>
        <polygon id="path-1" points="0.000334146342 0.0425365854 126.293951 0.0425365854 126.293951 16.4289061 0.000334146342 16.4289061"></polygon>
        <polygon id="path-3" points="0.636230469 134.957296 126.930182 134.957296 126.930182 0.670564634 0.636230469 0.670564634"></polygon>
        <polygon id="path-5" points="0.000334146342 0.0425365854 126.293951 0.0425365854 126.293951 16.4289061 0.000334146342 16.4289061"></polygon>
        <polygon id="path-7" points="0 134.957463 126.293951 134.957463 126.293951 0.670731707 0 0.670731707"></polygon>
    </defs>
    <g id="Home" stroke="none" stroke-width="1" fill="none" fill-rule="evenodd">
        <g id="services" transform="translate(-160.000000, -4937.000000)">
            <g id="Group-6" transform="translate(160.000000, 4937.017185)">
                <rect id="Rectangle-Copy-4" fill="#F4756D" x="0" y="0" width="400" height="478"></rect>
                <path d="M128.748442,378.611309 L95,378.611309 L95,334.287093 L128.748442,334.287093 C129.432326,334.287093 129.994088,333.725332 129.994088,333.041448 L129.994088,279.515332 C129.994088,265.208728 134.933927,251.665387 143.995386,240.827051 C134.933927,229.988714 129.994088,216.439267 129.994088,202.138769 L129.994088,146.915156 C129.994088,146.225166 129.432326,145.669511 128.748442,145.669511 L95,145.669511 L95,101.345295 L128.748442,101.345295 C153.875064,101.345295 174.32441,121.782428 174.32441,146.915156 L174.32441,202.138769 C174.32441,206.437467 175.991376,210.479709 179.032217,213.520549 L206.332612,240.827051 L179.032217,268.12134 C175.991376,271.168286 174.32441,275.210528 174.32441,279.515332 L174.32441,333.041448 C174.32441,358.16807 153.875064,378.611309 128.748442,378.611309" id="Fill-1" fill="#7F1A55" transform="translate(150.666306, 239.978302) rotate(-360.000000) translate(-150.666306, -239.978302) "></path>
                <path d="M206.332612,378.611309 L206.332612,334.287093 L240.081054,334.287093 C240.764938,334.287093 241.3267,333.725332 241.3267,333.041448 L241.3267,279.515332 C241.3267,265.208728 246.266539,251.665387 255.327998,240.827051 C246.266539,229.988714 241.3267,216.439267 241.3267,202.138769 L241.3267,146.915156 C241.3267,146.225166 240.764938,145.669511 240.081054,145.669511 L206.332612,145.669511 L206.332612,101.345295 L240.081054,101.345295 C265.207676,101.345295 285.657022,121.782428 285.657022,146.915156 L285.657022,202.138769 C285.657022,206.437467 287.323989,210.479709 290.364829,213.520549 L317.665224,240.827051 L290.364829,268.12134 C287.323989,271.168286 285.657022,275.210528 285.657022,279.515332 L285.657022,333.041448 C285.657022,358.16807 265.207676,378.611309 240.081054,378.611309 L206.332612,378.611309 Z" id="Fill-1" fill="#7F1A55" transform="translate(261.998918, 239.978302) rotate(-360.000000) translate(-261.998918, -239.978302) "></path>
                <g id="Group-17" transform="translate(61.500000, 169.982815)">
                    <g id="Group-3" transform="translate(0.000000, 0.628195)">
                        <mask id="mask-2" fill="white">
                            <use xlink:href="#path-1"></use>
                        </mask>
                        <g id="Clip-2"></g>
                        <path d="M0.000334146342,16.4289061 L0.000334146342,9.93644268 C0.000334146342,4.47147927 4.4294439,0.0423695122 9.89273659,0.0423695122 L116.400212,0.0423695122 C121.863505,0.0423695122 126.294285,4.47147927 126.294285,9.93644268 L126.294285,16.4289061 L0.000334146342,16.4289061 Z" id="Fill-1" fill="#04002C" mask="url(#mask-2)"></path>
                    </g>
                    <path d="M126.293951,17.0571012 L126.293951,125.064894 C126.293951,130.528187 121.864841,134.957296 116.399878,134.957296 L9.89407317,134.957296 C4.42910976,134.957296 0,130.528187 0,125.064894 L0,17.0571012 L126.293951,17.0571012 Z" id="Fill-4" fill="#FFE4E4"></path>
                    <mask id="mask-4" fill="white">
                        <use xlink:href="#path-3"></use>
                    </mask>
                    <g id="Clip-7"></g>
                    <polygon id="Fill-6" fill="#95006C" mask="url(#mask-4)" points="10.9884024 35.8429756 69.1398902 35.8429756 69.1398902 29.2485976 10.9884024 29.2485976"></polygon>
                    <polygon id="Fill-8" fill="#007695" mask="url(#mask-4)" points="23.5807073 50.0308293 51.7575976 50.0308293 51.7575976 43.4364512 23.5807073 43.4364512"></polygon>
                    <polygon id="Fill-9" fill="#FF4345" mask="url(#mask-4)" points="37.3692561 64.2170122 78.1351098 64.2170122 78.1351098 57.6226341 37.3692561 57.6226341"></polygon>
                    <polygon id="Fill-10" fill="#2ECCCB" mask="url(#mask-4)" points="37.3675854 78.4065366 95.5190732 78.4065366 95.5190732 71.8121585 37.3675854 71.8121585"></polygon>
                    <polygon id="Fill-11" fill="#007695" mask="url(#mask-4)" points="23.5790366 92.5927195 55.3530122 92.5927195 55.3530122 85.9983415 23.5790366 85.9983415"></polygon>
                    <polygon id="Fill-12" fill="#FF4345" mask="url(#mask-4)" points="10.9884024 106.782244 69.1398902 106.782244 69.1398902 100.187866 10.9884024 100.187866"></polygon>
                    <polygon id="Fill-13" fill="#95006C" mask="url(#mask-4)" points="10.9917439 120.970098 54.7548902 120.970098 54.7548902 114.37572 10.9917439 114.37572"></polygon>
                    <path d="M13.9887024,9.46379268 C13.9887024,11.1194878 12.6471049,12.4610854 10.9914098,12.4610854 C9.33571463,12.4610854 7.99411707,11.1194878 7.99411707,9.46379268 C7.99411707,7.80809756 9.33571463,6.4665 10.9914098,6.4665 C12.6471049,6.4665 13.9887024,7.80809756 13.9887024,9.46379268" id="Fill-14" fill="#FFFFFF" mask="url(#mask-4)"></path>
                    <path d="M24.1794976,9.46379268 C24.1794976,11.1194878 22.8379,12.4610854 21.1822049,12.4610854 C19.5265098,12.4610854 18.1849122,11.1194878 18.1849122,9.46379268 C18.1849122,7.80809756 19.5265098,6.4665 21.1822049,6.4665 C22.8379,6.4665 24.1794976,7.80809756 24.1794976,9.46379268" id="Fill-15" fill="#FFFFFF" mask="url(#mask-4)"></path>
                    <path d="M34.371128,9.46379268 C34.371128,11.1194878 33.0295305,12.4610854 31.3738354,12.4610854 C29.7181402,12.4610854 28.3765427,11.1194878 28.3765427,9.46379268 C28.3765427,7.80809756 29.7181402,6.4665 31.3738354,6.4665 C33.0295305,6.4665 34.371128,7.80809756 34.371128,9.46379268" id="Fill-16" fill="#FFFFFF" mask="url(#mask-4)"></path>
                </g>
                <path d="M154.849051,255.647807 L187.805176,255.647807 L187.805176,255.647807 L187.805176,304.982815 L142.849051,304.982815 L142.849051,267.647807 C142.849051,261.02039 148.221634,255.647807 154.849051,255.647807 Z" id="Rectangle" fill="#E8D2C9"></path>
                <g id="Group-17-Copy" transform="translate(149.000000, 260.961620)">
                    <g id="Group-3" transform="translate(0.000000, 0.628195)">
                        <mask id="mask-6" fill="white">
                            <use xlink:href="#path-5"></use>
                        </mask>
                        <g id="Clip-2"></g>
                        <path d="M0.000334146342,16.4289061 L0.000334146342,9.93644268 C0.000334146342,4.47147927 4.4294439,0.0423695122 9.89273659,0.0423695122 L116.400212,0.0423695122 C121.863505,0.0423695122 126.294285,4.47147927 126.294285,9.93644268 L126.294285,16.4289061 L0.000334146342,16.4289061 Z" id="Fill-1" fill="#04002C" mask="url(#mask-6)"></path>
                    </g>
                    <path d="M126.293951,17.0571012 L126.293951,125.064894 C126.293951,130.528187 121.864841,134.957296 116.399878,134.957296 L9.89407317,134.957296 C4.42910976,134.957296 0,130.528187 0,125.064894 L0,17.0571012 L126.293951,17.0571012 Z" id="Fill-4" fill="#FFE4E4"></path>
                    <mask id="mask-8" fill="white">
                        <use xlink:href="#path-7"></use>
                    </mask>
                    <g id="Clip-7"></g>
                    <polygon id="Fill-6" fill="#95006C" mask="url(#mask-8)" points="10.9884024 35.8429756 69.1398902 35.8429756 69.1398902 29.2485976 10.9884024 29.2485976"></polygon>
                    <polygon id="Fill-8" fill="#007695" mask="url(#mask-8)" points="23.5807073 50.0308293 51.7575976 50.0308293 51.7575976 43.4364512 23.5807073 43.4364512"></polygon>
                    <polygon id="Fill-9" fill="#FF4345" mask="url(#mask-8)" points="37.3692561 64.2170122 78.1351098 64.2170122 78.1351098 57.6226341 37.3692561 57.6226341"></polygon>
                    <polygon id="Fill-10" fill="#2ECCCB" mask="url(#mask-8)" points="37.3675854 78.4065366 95.5190732 78.4065366 95.5190732 71.8121585 37.3675854 71.8121585"></polygon>
                    <polygon id="Fill-11" fill="#007695" mask="url(#mask-8)" points="23.5790366 92.5927195 55.3530122 92.5927195 55.3530122 85.9983415 23.5790366 85.9983415"></polygon>
                    <polygon id="Fill-12" fill="#FF4345" mask="url(#mask-8)" points="10.9884024 106.782244 69.1398902 106.782244 69.1398902 100.187866 10.9884024 100.187866"></polygon>
                    <polygon id="Fill-13" fill="#95006C" mask="url(#mask-8)" points="10.9917439 120.970098 54.7548902 120.970098 54.7548902 114.37572 10.9917439 114.37572"></polygon>
                    <path d="M13.9887024,9.46379268 C13.9887024,11.1194878 12.6471049,12.4610854 10.9914098,12.4610854 C9.33571463,12.4610854 7.99411707,11.1194878 7.99411707,9.46379268 C7.99411707,7.80809756 9.33571463,6.4665 10.9914098,6.4665 C12.6471049,6.4665 13.9887024,7.80809756 13.9887024,9.46379268" id="Fill-14" fill="#FFFFFF" mask="url(#mask-8)"></path>
                    <path d="M24.1794976,9.46379268 C24.1794976,11.1194878 22.8379,12.4610854 21.1822049,12.4610854 C19.5265098,12.4610854 18.1849122,11.1194878 18.1849122,9.46379268 C18.1849122,7.80809756 19.5265098,6.4665 21.1822049,6.4665 C22.8379,6.4665 24.1794976,7.80809756 24.1794976,9.46379268" id="Fill-15" fill="#FFFFFF" mask="url(#mask-8)"></path>
                    <path d="M34.371128,9.46379268 C34.371128,11.1194878 33.0295305,12.4610854 31.3738354,12.4610854 C29.7181402,12.4610854 28.3765427,11.1194878 28.3765427,9.46379268 C28.3765427,7.80809756 29.7181402,6.4665 31.3738354,6.4665 C33.0295305,6.4665 34.371128,7.80809756 34.371128,9.46379268" id="Fill-16" fill="#FFFFFF" mask="url(#mask-8)"></path>
                </g>
                <text id=";" font-family="AntikorText-Regular, Antikor Text" font-size="140" font-weight="normal" fill="#FA4244">
                    <tspan x="285.165224" y="358.46162">;</tspan>
                </text>
            </g>
        </g>
    </g>
</svg>