<svg height="42" viewBox="0 0 110 42" width="110" xmlns="http://www.w3.org/2000/svg" xmlns:xlink="http://www.w3.org/1999/xlink"><linearGradient id="a" x1="50.004526%" x2="50.004526%" y1="122.495827%" y2="31.117204%"><stop offset="0" stop-color="#fff200"/><stop offset="1" stop-color="#f05928"/></linearGradient><mask id="b" fill="#fff"><path d="m.18970577.04646539h9.30954007v9.32851448h-9.30954007z" fill="#fff" fill-rule="evenodd"/></mask><mask id="c" fill="#fff"><path d="m15.9891292 4.48901513h.0002829s-.0141405.05656165-.0316746.15271645c-.1623319.04666336-.3246638.09191268-.4872786.14479782-.2251153.06843959-.4462714.15073679-.6711039.23077152-.221156.0859737-.4462714.17223021-.6657306.27036467-.4423121.18948152-.8806648.40300174-1.3094021.64367155-.4148797.23303398-.8241032.48954105-1.2214488.76725874-.0565616-.0274324-.101811-.04694617-.101811-.04694617-4.05744972-1.55007194-7.66070946.31504838-7.66070946.31504838-.32890598 4.31593651 1.62049119 7.03683451 2.00624163 7.53005211-.095872.2661225-.18580501.5362044-.26838502.8082659-.29921111.9787993-.52432647 1.9824858-.66346812 3.0201092-.01923096.1487571-.03704788.2994939-.05458199.4502307-3.74834036 1.8512627-4.86005954 5.646832-4.86005954 5.646832 3.12955594 3.5993005 6.778065 3.8224362 6.778065 3.8224362.00395931-.0019797.00622178-.0056562.00989828-.0079187.46380551.8280625 1.00000993 1.6168147 1.60521955 2.3509849.25198214.3071297.5183875.604644.79412553.8925428-1.14056562 3.2627586.16063508 5.9777177.16063508 5.9777177 3.48419746.1309402 5.77239886-1.524902 6.25373856-1.9064103.3464401.1173654.6988191.221156 1.0531778.3130687 1.0704292.275738 2.1665939.4383527 3.2627587.4852989.2737583.0115951.5477995.0175341.819861.0158373h.1332027l.0862565-.0019797.1722302-.005939.1702506-.0079186.0036765.005939c1.5687373 2.2384272 4.2774746 2.6388836 4.5110742 2.6697097h.0180997c2.051491-2.1640486 2.1688564-4.3099975 2.1688564-4.7740858v-.0308261c0-.0393103-.0016969-.0647631-.0016969-.0647631-.0022624-.0333714-.0022624-.0647631-.005939-.1001141.430717-.3011908.8413546-.6261374 1.2310643-.9745572.8221235-.7437856 1.5404565-1.5890995 2.135485-2.5031357.0568444-.0862565.1114264-.172513.1643116-.2607492 2.3232696.1332027 3.9615777-1.4386455 3.9615777-1.4386455-.3854676-2.4211213-1.765289-3.6012801-2.0531877-3.8244157-.0528852-.0410072-.0868222-.0673084-.1069016-.0828629.0135748-.1436665.0268668-.2856363.0345026-.4278888.0175342-.2601836.0234731-.5226296.0254528-.7811164l-.0019797-.1934408-.0019796-.0981345v-.0489258c0-.0667427-.0016969-.04129-.0016969-.0667427l-.0079186-.162332-.011878-.2191763c-.0036765-.0763583-.0098982-.1408385-.0158372-.2092781-.0056562-.06646-.0115952-.1351824-.0195138-.2016423l-.0234731-.2016423-.0274324-.1996626c-.0390275-.2661225-.089933-.5302654-.1507368-.7907318-.2426494-1.0432796-.6496105-2.0336741-1.1880774-2.9242372-.538184-.8905631-1.2075911-1.6793153-1.9609923-2.3430662-.7534011-.665165-1.5989977-1.1996726-2.4858844-1.598715-.8866038-.3993252-1.8181741-.6561151-2.7460679-.7734805-.4640883-.0608038-.9256314-.0839941-1.3837807-.0783379l-.1702506.0042421-.0429868.0016969c-.011878 0-.0647631.0019796-.0588242.0019796l-.070702.0042422-.1702506.0115951c-.0641974.0039593-.1309402.0096155-.1877846.0155545-.2350137.023473-.4677649.0545819-.6985364.0978516-.9199752.1722302-1.7893277.5050955-2.5546068.962962-.7652791.4578666-1.4307269 1.0314017-1.9728702 1.681295-.5401638.6479137-.9609824 1.3662466-1.2505781 2.1100323-.2898784.7437856-.4524931 1.5110444-.4974596 2.2568097-.0115952.185805-.0155545.3718928-.0115952.556001 0 .0449665.0019797.0916298.0039593.1368792l.005939.1487571c.0056562.0902158.0135748.1778864.0214934.2661225.0370479.3778319.1057703.7398264.2075813 1.0902258.2016422.6988191.5263061 1.3308956.9256313 1.8673828.3993253.5381841.8769884.9827586 1.3837807 1.3289159.5067924.3464401 1.0489358.5953113 1.5857058.7534011.5379013.1586554 1.0724088.227095 1.5755247.2253982.0625006 0 .1250012-.0019797.1877847-.0039593.0333713 0 .0667427-.0039593.0998313-.0039593l.0998313-.005939c.0526023-.0056562.1077499-.0098983.1603522-.0155545.011878 0 .0296949-.0039593.0452494-.0059389l.048643-.005939c.0333714-.0036765.0647631-.0098983.0981344-.0135748.06646-.0079186.1230216-.0214934.1818457-.0313917.0588242-.011878.1176483-.0234731.1761896-.0390276.1156685-.0257355.227095-.0608037.3388042-.0941751.2191764-.0721161.4244952-.1603523.616522-.2582039.191744-.0978517.3679335-.2092781.5322451-.3252295.0469462-.0330886.0919127-.0684396.137162-.1035078.1761895-.1368792.2036219-.3953659.0625006-.5675961-.1233044-.1507368-.3345621-.1897644-.5031158-.095872-.0410072.0234731-.0839941.0449665-.1269809.0667427-.1467775.0701365-.2997768.1368792-.4621087.1897643-.1623319.0506227-.3306028.0938924-.5067924.1252841-.0882361.0115951-.1761895.0254527-.2664053.0330886-.0449665.0059389-.089933.0079186-.1368792.0079186-.0449665.0019796-.0938923.0056561-.1348995.0039593-.0432697 0-.0862565-.0019797-.1312231-.0019797-.0548648-.0019796-.1097296-.0059389-.1643115-.0079186s-.0274324 0-.0062218-.0019796l-.0175341-.0016969-.0370479-.0042421c-.0254528-.0016969-.0489258-.0036765-.0743786-.0076358-.0492086-.005939-.0978516-.0115952-.1467775-.0195138-.3933862-.0551476-.7927114-.1702506-1.1764822-.3447433-.3854676-.173927-.7534012-.4129-1.0862665-.7123939-.3328652-.2972315-.6224609-.6575291-.8492731-1.064773-.227095-.4049814-.3857504-.8571918-.460129-1.3308956-.0373307-.2369933-.0528851-.4813396-.0469462-.7203125.0039594-.06646.0056562-.1312231.0096155-.197683 0 .0175341.0022625-.0098983.0022625-.0115951l.0016968-.0234731.0039594-.0489258c.0019796-.0333714.0059389-.0647631.0098982-.0978517.0135748-.1292434.0333714-.2604664.0568445-.3874473.1818457-1.0316844.6985363-2.0379161 1.4971868-2.8031952.1996626-.1897643.4148797-.3679335.6439544-.5246093.2287918-.156393.4737038-.2975143.7279484-.4148797.2545274-.1173654.5209327-.2132374.7929943-.287616.2720615-.0723989.5517588-.1213247.8354155-.1467774.1411213-.011878.2839395-.0175341.4270404-.0175341.0370479 0 .06646.0019796.095872.0019796l.1153858.0036765.0723989.0019797c.029412 0 0 0 .0138576.0019796l.0291292.0019797.1156686.0079186c.3071297.02517.6145423.0684396.9160159.1368792.6049268.1348995 1.1920367.3560556 1.7398362.6595088 1.0961648.6069065 2.0297148 1.5562937 2.6032499 2.7011015.2898784.5695758.489541 1.1844009.591352 1.8184569.0231903.1583727.0429868.3190077.0565616.4796428l.0098983.1213247.005939.1213248c.0016968.04129.0016968.0800347.0036765.1213247 0 .0393104.0022625.0842769.0022625.1134061v.1037906l-.0022625.1173655c-.0036765.0786206-.0096155.2056015-.0135748.2839394-.0138576.1742099-.0274324.3501166-.0509055.5246093-.0214934.1719474-.0506227.3444604-.0822972.5166907-.0350682.1702505-.0701364.3405011-.1153857.508772-.0839941.3388042-.1937237.6696899-.3209874.9943537-.2565071.6498934-.5989878 1.2664153-1.0118879 1.8359911-.8277797 1.1371719-1.9573158 2.0670454-3.2412651 2.650196-.6419747.2895956-1.3193005.502833-2.01614.6185016-.3481369.0588241-.700516.0938923-1.052895.1057703l-.0644803.0016968h-.0568445l-.1134061.0022625h-.1744926-.0862566c.0492087 0-.0076358 0-.0056561-.0022625l-.0353511-.0016968c-.1897643-.0039593-.3775489-.0135748-.5656164-.0274324-.753684-.0568445-1.4991665-.1897644-2.2214587-.4010221-.7222923-.2098437-1.4230911-.4895411-2.0865592-.8419201-1.3249566-.7084347-2.5090747-1.6793153-3.4372513-2.8498586-.4657852-.5831506-.8727462-1.2095708-1.209288-1.8693625-.3365418-.659226-.6009675-1.3504093-.7966708-2.0568643-.1937236-.7067377-.3153312-1.4307268-.3619945-2.158958l-.0079187-.1368792-.0019796-.0333714v-.0294121l-.0019797-.0608037-.0039593-.1193451-.0019797-.0294121v-.0410072-.083994l-.0016968-.1705334v-.0330885-.011878-.0664599c0-.0879534.0036765-.1781692.0056561-.2661226.0138577-.3602977.0429869-.7302108.0899331-1.100124.0469461-.3699132.1080327-.741806.1841081-1.1117192.0763583-.3679335.1662913-.7341702.2681022-1.0922054.2056016-.7183329.4621087-1.4151724.7655619-2.0727015.6083205-1.3173208 1.4072538-2.4779658 2.3662565-3.4134955.2386902-.2350136.4872786-.4561696.7457654-.6637509.2582039-.2072984.5263061-.3993252.8023269-.5791913.2740412-.18212846.5579807-.34672285.849556-.49915649.1450806-.07833788.2935549-.14677748.4423121-.21945919.0746613-.03308857.1507367-.06645994.2251153-.09983131.0743786-.03337137.150454-.06645994.2268122-.09558919.3034532-.12924336.6168048-.2369933.9298735-.33880426.0803175-.02347309.1586554-.04892583.2369933-.07239891.0780551-.02516993.1603523-.04326966.2386901-.06645994.1586555-.04524931.3209874-.08229719.4816225-.12330439.0803175-.02149342.1623319-.03535103.2426494-.05288514.0820144-.01753411.162332-.03506822.2446292-.05090548.0822972-.01555445.1643115-.02941206.2446291-.04496651l.1233044-.02149343.1235872-.01951376c.0817316-.01187795.1643116-.02545274.246326-.03733069.0919126-.01583726.1860878-.02347308.2780004-.03704788.0763583-.00989829.1996627-.02375589.2760209-.03337137.0588241-.00593897.1156686-.01159514.1742099-.01753411l.1153857-.01187795.0585413-.00565616.0687224-.00424213c.0938924-.00565616.185805-.01159513.2796974-.01753411l.1394244-.00989829s.0506227-.00169684.0053734-.00169684l.0296949-.00197966.0585413-.00197966c.0803175-.00395932.1586554-.00791863.2389729-.01187795.317028-.00961548.6323592-.00961548.9431655 0 .6244406.02545275 1.2370032.09389234 1.8320317.20362193 1.1920368.22115604 2.313937.60492682 3.3275217 1.10606302 1.0158472.49689407 1.9259241 1.10775985 2.7169388 1.77122795.0489258.04129.0975688.0842769.1464946.1252841.0489259.0432696.0961548.083994.143101.1269809.0955892.0842768.1877847.172513.2799802.2567899.0919126.0859737.179866.173927.2700818.2599007.0859737.088519.1739271.1744927.2582039.2647085.3345622.3537931.6459341.7140908.9259142 1.0763682.5616572.7222922 1.0099082 1.4502406 1.3679434 2.1391615.0237559.0429868.0452494.0859737.0667428.1292433.0217762.0432697.0429868.0862566.0625006.1292434.0410072.0842769.0842769.1682709.1216076.252265.0390275.0842768.078055.166574.1151029.2488712.035351.0820144.0707021.1643116.1060531.2426495.1329199.322967.2542446.6283999.3540759.9199752.1645944.467482.2836567.8905631.3778318 1.2562341.0373307.1470603.1761895.244912.3269263.2313372.156393-.0138576.2757381-.1428182.2799802-.2997767.0079186-.3931035-.0019797-.8571918-.047229-1.3854776-.0588241-.6535698-.1702506-1.4112131-.3914066-2.2432349-.2174795-.8317391-.5401637-1.741816-1.0099082-2.6872439-.4717241-.9434483-1.0862664-1.9262069-1.8851997-2.87531132-.3108063-.37161003-.6515902-.73982635-1.0195237-1.09814439.5480824-2.18016869-.6674274-4.07130736-.6674274-4.07130736-2.0981543-.13094022-3.4330092.65187298-3.9282064 1.01047382-.0822972-.03563383-.1665741-.07098486-.2505681-.10605308-.3580353-.14479782-.7242719-.27998016-1.1021037-.39932523-.3778318-.11934508-.7632995-.22907468-1.1566857-.32098735-.3953659-.09191268-.7966708-.17025056-1.2058943-.23275118-.0721161-.00989829-.1428182-.01979658-.2149343-.03139171-.9123394-2.92423717-3.5410419-4.1476656-3.5410419-4.1476656-2.931873 1.84984868-3.4898537 4.45111883-3.4898537 4.45111883m17.4142 20.54375587c-.0155545-.0118779-.0274324-.0195137-.0274324-.0195137-.0138576-.0096155-.0313917-.0217763-.0509055-.0333714.0002828-.0028281.0005656-.0056562.0008484-.0082015.0082015.0065046.017817.0138576.0271496.0212107.0260184.0200793.0517539.0404415.0511883.0404415s-.0002828-.0002828-.0008484-.0005656" fill="#fff" fill-rule="evenodd"/></mask><g fill="none" fill-rule="evenodd"><g fill="#414042" transform="translate(42.986852 13.407946)"><path d="m13.2457197 7.34040089c-.1422526 3.66802281-3.0356636 6.52523441-6.63128755 6.52523441-3.79472091 0-6.61573307-3.0724287-6.61573307-6.77636812 0-3.74042173 3.05404614-6.81285041 6.77636815-6.81285041 1.68129496 0 3.32610767.72285785 4.71724137 2.02321012l-1.085418 1.33655173c-1.06731829-.92195485-2.34957083-1.55403126-3.63182337-1.55403126-2.73023071 0-4.97092037 2.24068965-4.97092037 5.00711982 0 2.80008435 2.11399157 4.97063752 4.80774002 4.97063752 2.42196973 0 4.32074422-1.7717936 4.69885882-4.04839986h-5.49157031v-1.60861325h7.42937241v.9375093z"/><path d="m19.5533897 6.45453237h-1.0130191c-1.1187894 0-2.0229273.90668321-2.0229273 2.02292732v5.27663611h-1.807993v-9.03770285h1.4816323v.75905731c.4869958-.48699578 1.2641528-.75905731 2.1318085-.75905731h1.9505284z"/><path d="m27.5523944 9.88677797c.4273233-1.83655668-.9635276-3.50484247-2.776894-3.50484247-1.5724138 0-2.8365666 1.28225254-2.8365666 2.83656661 0 1.75878439 1.5463954 3.11880919 3.3444902 2.81309349 1.1057802-.1891987 2.0152915-1.0489357 2.2689704-2.14481763zm1.8492831 3.86994793h-1.5359315v-1.1397172c-1.1889259 1.1603622-3.0619648 1.7174944-4.9607393.8832101-1.4061226-.6190672-2.4527958-1.9013198-2.732776-3.414061-.5384669-2.92169191 1.7098586-5.51476063 4.5823419-5.51476063 1.2098536 0 2.2952716.48699578 3.0905284 1.28225254v-1.14h1.5540312v9.04307619z"/><path d="m33.0439648 4.21389928v.50509551h2.8724832v1.59051352h-2.8724832v7.44718929h-1.7898934v-9.48849914c0-1.98927313 1.4273332-3.1626445 3.2172265-3.1626445h2.168008l-.7228579 1.69911188h-1.4426048c-.7952567 0-1.4298784.63207641-1.4298784 1.40923344"/><path d="m43.648708 9.88677797c.4276061-1.83655668-.9635276-3.50484247-2.7766112-3.50484247-1.5726967 0-2.8368495 1.28225254-2.8368495 2.83656661 0 1.75878439 1.5466783 3.11880919 3.3444902 2.81309349 1.103235-.1891987 2.0152915-1.0489357 2.2689705-2.14481763zm1.8467378 3.86994793h-1.5356487v-1.1397172c-1.1889259 1.1603622-3.0622476 1.7174944-4.9607393.8832101-1.4064054-.6190672-2.4530786-1.9013198-2.732776-3.414061-.5390325-2.92169191 1.7095758-5.51476063 4.5823419-5.51476063 1.2095708 0 2.2949888.48699578 3.0902456 1.28225254v-1.14h1.5540312v9.04307619z"/><path d="m55.1499534 8.40506078v5.34903502h-1.8082759v-5.34903502c0-1.12161747-.9219549-2.02292731-2.0229273-2.02292731-1.1397172 0-2.0413099.90385512-2.0413099 2.02292731v5.34903502h-1.807993v-9.03770285h1.5000149v.77715704c.6498933-.57777723 1.5178318-.92223766 2.4219697-.92223766 2.0953262.00254527 3.7585215 1.72003969 3.7585215 3.83374845"/><path d="m7.64976482 5.36184619c.42732325-1.83655668-.96352766-3.50484247-2.77689407-3.50484247-1.57241379 0-2.83656661 1.28225254-2.83656661 2.83656661 0 1.75878442 1.54667825 3.11880923 3.3444902 2.81309353 1.10323493-.18919871 2.01529149-1.04893575 2.26897048-2.14481767zm1.84956587 3.86994791h-1.53621434v-1.1397172c-1.18892583 1.1603622-3.06168197 1.71749442-4.96045646.88321013-1.40640536-.61906723-2.45307864-1.90131978-2.73277599-3.41406103-.53874969-2.92169189 1.70957579-5.51476061 4.58205904-5.51476061 1.20985364 0 2.29527165.48699579 3.09052841 1.28225255v-1.14h1.55403125v9.04307616z" mask="url(#b)" transform="translate(56.278839 4.524932)"/></g><path d="m15.9891292 4.48901513h.0002829s-.0141405.05656165-.0316746.15271645c-.1623319.04666336-.3246638.09191268-.4872786.14479782-.2251153.06843959-.4462714.15073679-.6711039.23077152-.221156.0859737-.4462714.17223021-.6657306.27036467-.4423121.18948152-.8806648.40300174-1.3094021.64367155-.4148797.23303398-.8241032.48954105-1.2214488.76725874-.0565616-.0274324-.101811-.04694617-.101811-.04694617-4.05744972-1.55007194-7.66070946.31504838-7.66070946.31504838-.32890598 4.31593651 1.62049119 7.03683451 2.00624163 7.53005211-.095872.2661225-.18580501.5362044-.26838502.8082659-.29921111.9787993-.52432647 1.9824858-.66346812 3.0201092-.01923096.1487571-.03704788.2994939-.05458199.4502307-3.74834036 1.8512627-4.86005954 5.646832-4.86005954 5.646832 3.12955594 3.5993005 6.778065 3.8224362 6.778065 3.8224362.00395931-.0019797.00622178-.0056562.00989828-.0079187.46380551.8280625 1.00000993 1.6168147 1.60521955 2.3509849.25198214.3071297.5183875.604644.79412553.8925428-1.14056562 3.2627586.16063508 5.9777177.16063508 5.9777177 3.48419746.1309402 5.77239886-1.524902 6.25373856-1.9064103.3464401.1173654.6988191.221156 1.0531778.3130687 1.0704292.275738 2.1665939.4383527 3.2627587.4852989.2737583.0115951.5477995.0175341.819861.0158373h.1332027l.0862565-.0019797.1722302-.005939.1702506-.0079186.0036765.005939c1.5687373 2.2384272 4.2774746 2.6388836 4.5110742 2.6697097h.0180997c2.051491-2.1640486 2.1688564-4.3099975 2.1688564-4.7740858v-.0308261c0-.0393103-.0016969-.0647631-.0016969-.0647631-.0022624-.0333714-.0022624-.0647631-.005939-.1001141.430717-.3011908.8413546-.6261374 1.2310643-.9745572.8221235-.7437856 1.5404565-1.5890995 2.135485-2.5031357.0568444-.0862565.1114264-.172513.1643116-.2607492 2.3232696.1332027 3.9615777-1.4386455 3.9615777-1.4386455-.3854676-2.4211213-1.765289-3.6012801-2.0531877-3.8244157-.0528852-.0410072-.0868222-.0673084-.1069016-.0828629.0135748-.1436665.0268668-.2856363.0345026-.4278888.0175342-.2601836.0234731-.5226296.0254528-.7811164l-.0019797-.1934408-.0019796-.0981345v-.0489258c0-.0667427-.0016969-.04129-.0016969-.0667427l-.0079186-.162332-.011878-.2191763c-.0036765-.0763583-.0098982-.1408385-.0158372-.2092781-.0056562-.06646-.0115952-.1351824-.0195138-.2016423l-.0234731-.2016423-.0274324-.1996626c-.0390275-.2661225-.089933-.5302654-.1507368-.7907318-.2426494-1.0432796-.6496105-2.0336741-1.1880774-2.9242372-.538184-.8905631-1.2075911-1.6793153-1.9609923-2.3430662-.7534011-.665165-1.5989977-1.1996726-2.4858844-1.598715-.8866038-.3993252-1.8181741-.6561151-2.7460679-.7734805-.4640883-.0608038-.9256314-.0839941-1.3837807-.0783379l-.1702506.0042421-.0429868.0016969c-.011878 0-.0647631.0019796-.0588242.0019796l-.070702.0042422-.1702506.0115951c-.0641974.0039593-.1309402.0096155-.1877846.0155545-.2350137.023473-.4677649.0545819-.6985364.0978516-.9199752.1722302-1.7893277.5050955-2.5546068.962962-.7652791.4578666-1.4307269 1.0314017-1.9728702 1.681295-.5401638.6479137-.9609824 1.3662466-1.2505781 2.1100323-.2898784.7437856-.4524931 1.5110444-.4974596 2.2568097-.0115952.185805-.0155545.3718928-.0115952.556001 0 .0449665.0019797.0916298.0039593.1368792l.005939.1487571c.0056562.0902158.0135748.1778864.0214934.2661225.0370479.3778319.1057703.7398264.2075813 1.0902258.2016422.6988191.5263061 1.3308956.9256313 1.8673828.3993253.5381841.8769884.9827586 1.3837807 1.3289159.5067924.3464401 1.0489358.5953113 1.5857058.7534011.5379013.1586554 1.0724088.227095 1.5755247.2253982.0625006 0 .1250012-.0019797.1877847-.0039593.0333713 0 .0667427-.0039593.0998313-.0039593l.0998313-.005939c.0526023-.0056562.1077499-.0098983.1603522-.0155545.011878 0 .0296949-.0039593.0452494-.0059389l.048643-.005939c.0333714-.0036765.0647631-.0098983.0981344-.0135748.06646-.0079186.1230216-.0214934.1818457-.0313917.0588242-.011878.1176483-.0234731.1761896-.0390276.1156685-.0257355.227095-.0608037.3388042-.0941751.2191764-.0721161.4244952-.1603523.616522-.2582039.191744-.0978517.3679335-.2092781.5322451-.3252295.0469462-.0330886.0919127-.0684396.137162-.1035078.1761895-.1368792.2036219-.3953659.0625006-.5675961-.1233044-.1507368-.3345621-.1897644-.5031158-.095872-.0410072.0234731-.0839941.0449665-.1269809.0667427-.1467775.0701365-.2997768.1368792-.4621087.1897643-.1623319.0506227-.3306028.0938924-.5067924.1252841-.0882361.0115951-.1761895.0254527-.2664053.0330886-.0449665.0059389-.089933.0079186-.1368792.0079186-.0449665.0019796-.0938923.0056561-.1348995.0039593-.0432697 0-.0862565-.0019797-.1312231-.0019797-.0548648-.0019796-.1097296-.0059389-.1643115-.0079186s-.0274324 0-.0062218-.0019796l-.0175341-.0016969-.0370479-.0042421c-.0254528-.0016969-.0489258-.0036765-.0743786-.0076358-.0492086-.005939-.0978516-.0115952-.1467775-.0195138-.3933862-.0551476-.7927114-.1702506-1.1764822-.3447433-.3854676-.173927-.7534012-.4129-1.0862665-.7123939-.3328652-.2972315-.6224609-.6575291-.8492731-1.064773-.227095-.4049814-.3857504-.8571918-.460129-1.3308956-.0373307-.2369933-.0528851-.4813396-.0469462-.7203125.0039594-.06646.0056562-.1312231.0096155-.197683 0 .0175341.0022625-.0098983.0022625-.0115951l.0016968-.0234731.0039594-.0489258c.0019796-.0333714.0059389-.0647631.0098982-.0978517.0135748-.1292434.0333714-.2604664.0568445-.3874473.1818457-1.0316844.6985363-2.0379161 1.4971868-2.8031952.1996626-.1897643.4148797-.3679335.6439544-.5246093.2287918-.156393.4737038-.2975143.7279484-.4148797.2545274-.1173654.5209327-.2132374.7929943-.287616.2720615-.0723989.5517588-.1213247.8354155-.1467774.1411213-.011878.2839395-.0175341.4270404-.0175341.0370479 0 .06646.0019796.095872.0019796l.1153858.0036765.0723989.0019797c.029412 0 0 0 .0138576.0019796l.0291292.0019797.1156686.0079186c.3071297.02517.6145423.0684396.9160159.1368792.6049268.1348995 1.1920367.3560556 1.7398362.6595088 1.0961648.6069065 2.0297148 1.5562937 2.6032499 2.7011015.2898784.5695758.489541 1.1844009.591352 1.8184569.0231903.1583727.0429868.3190077.0565616.4796428l.0098983.1213247.005939.1213248c.0016968.04129.0016968.0800347.0036765.1213247 0 .0393104.0022625.0842769.0022625.1134061v.1037906l-.0022625.1173655c-.0036765.0786206-.0096155.2056015-.0135748.2839394-.0138576.1742099-.0274324.3501166-.0509055.5246093-.0214934.1719474-.0506227.3444604-.0822972.5166907-.0350682.1702505-.0701364.3405011-.1153857.508772-.0839941.3388042-.1937237.6696899-.3209874.9943537-.2565071.6498934-.5989878 1.2664153-1.0118879 1.8359911-.8277797 1.1371719-1.9573158 2.0670454-3.2412651 2.650196-.6419747.2895956-1.3193005.502833-2.01614.6185016-.3481369.0588241-.700516.0938923-1.052895.1057703l-.0644803.0016968h-.0568445l-.1134061.0022625h-.1744926-.0862566c.0492087 0-.0076358 0-.0056561-.0022625l-.0353511-.0016968c-.1897643-.0039593-.3775489-.0135748-.5656164-.0274324-.753684-.0568445-1.4991665-.1897644-2.2214587-.4010221-.7222923-.2098437-1.4230911-.4895411-2.0865592-.8419201-1.3249566-.7084347-2.5090747-1.6793153-3.4372513-2.8498586-.4657852-.5831506-.8727462-1.2095708-1.209288-1.8693625-.3365418-.659226-.6009675-1.3504093-.7966708-2.0568643-.1937236-.7067377-.3153312-1.4307268-.3619945-2.158958l-.0079187-.1368792-.0019796-.0333714v-.0294121l-.0019797-.0608037-.0039593-.1193451-.0019797-.0294121v-.0410072-.083994l-.0016968-.1705334v-.0330885-.011878-.0664599c0-.0879534.0036765-.1781692.0056561-.2661226.0138577-.3602977.0429869-.7302108.0899331-1.100124.0469461-.3699132.1080327-.741806.1841081-1.1117192.0763583-.3679335.1662913-.7341702.2681022-1.0922054.2056016-.7183329.4621087-1.4151724.7655619-2.0727015.6083205-1.3173208 1.4072538-2.4779658 2.3662565-3.4134955.2386902-.2350136.4872786-.4561696.7457654-.6637509.2582039-.2072984.5263061-.3993252.8023269-.5791913.2740412-.18212846.5579807-.34672285.849556-.49915649.1450806-.07833788.2935549-.14677748.4423121-.21945919.0746613-.03308857.1507367-.06645994.2251153-.09983131.0743786-.03337137.150454-.06645994.2268122-.09558919.3034532-.12924336.6168048-.2369933.9298735-.33880426.0803175-.02347309.1586554-.04892583.2369933-.07239891.0780551-.02516993.1603523-.04326966.2386901-.06645994.1586555-.04524931.3209874-.08229719.4816225-.12330439.0803175-.02149342.1623319-.03535103.2426494-.05288514.0820144-.01753411.162332-.03506822.2446292-.05090548.0822972-.01555445.1643115-.02941206.2446291-.04496651l.1233044-.02149343.1235872-.01951376c.0817316-.01187795.1643116-.02545274.246326-.03733069.0919126-.01583726.1860878-.02347308.2780004-.03704788.0763583-.00989829.1996627-.02375589.2760209-.03337137.0588241-.00593897.1156686-.01159514.1742099-.01753411l.1153857-.01187795.0585413-.00565616.0687224-.00424213c.0938924-.00565616.185805-.01159513.2796974-.01753411l.1394244-.00989829s.0506227-.00169684.0053734-.00169684l.0296949-.00197966.0585413-.00197966c.0803175-.00395932.1586554-.00791863.2389729-.01187795.317028-.00961548.6323592-.00961548.9431655 0 .6244406.02545275 1.2370032.09389234 1.8320317.20362193 1.1920368.22115604 2.313937.60492682 3.3275217 1.10606302 1.0158472.49689407 1.9259241 1.10775985 2.7169388 1.77122795.0489258.04129.0975688.0842769.1464946.1252841.0489259.0432696.0961548.083994.143101.1269809.0955892.0842768.1877847.172513.2799802.2567899.0919126.0859737.179866.173927.2700818.2599007.0859737.088519.1739271.1744927.2582039.2647085.3345622.3537931.6459341.7140908.9259142 1.0763682.5616572.7222922 1.0099082 1.4502406 1.3679434 2.1391615.0237559.0429868.0452494.0859737.0667428.1292433.0217762.0432697.0429868.0862566.0625006.1292434.0410072.0842769.0842769.1682709.1216076.252265.0390275.0842768.078055.166574.1151029.2488712.035351.0820144.0707021.1643116.1060531.2426495.1329199.322967.2542446.6283999.3540759.9199752.1645944.467482.2836567.8905631.3778318 1.2562341.0373307.1470603.1761895.244912.3269263.2313372.156393-.0138576.2757381-.1428182.2799802-.2997767.0079186-.3931035-.0019797-.8571918-.047229-1.3854776-.0588241-.6535698-.1702506-1.4112131-.3914066-2.2432349-.2174795-.8317391-.5401637-1.741816-1.0099082-2.6872439-.4717241-.9434483-1.0862664-1.9262069-1.8851997-2.87531132-.3108063-.37161003-.6515902-.73982635-1.0195237-1.09814439.5480824-2.18016869-.6674274-4.07130736-.6674274-4.07130736-2.0981543-.13094022-3.4330092.65187298-3.9282064 1.01047382-.0822972-.03563383-.1665741-.07098486-.2505681-.10605308-.3580353-.14479782-.7242719-.27998016-1.1021037-.39932523-.3778318-.11934508-.7632995-.22907468-1.1566857-.32098735-.3953659-.09191268-.7966708-.17025056-1.2058943-.23275118-.0721161-.00989829-.1428182-.01979658-.2149343-.03139171-.9123394-2.92423717-3.5410419-4.1476656-3.5410419-4.1476656-2.931873 1.84984868-3.4898537 4.45111883-3.4898537 4.45111883m17.4142 20.54375587c-.0155545-.0118779-.0274324-.0195137-.0274324-.0195137-.0138576-.0096155-.0313917-.0217763-.0509055-.0333714.0002828-.0028281.0005656-.0056562.0008484-.0082015.0082015.0065046.017817.0138576.0271496.0212107.0260184.0200793.0517539.0404415.0511883.0404415s-.0002828-.0002828-.0008484-.0005656" fill="url(#a)" mask="url(#c)" transform="translate(0 .964384)"/></g></svg>