<?xml version="1.0" standalone="no"?>
<!DOCTYPE svg PUBLIC "-//W3C//DTD SVG 20010904//EN"
 "http://www.w3.org/TR/2001/REC-SVG-20010904/DTD/svg10.dtd">
<svg version="1.0" xmlns="http://www.w3.org/2000/svg"
 width="260.000000pt" height="260.000000pt" viewBox="0 0 260.000000 260.000000"
 preserveAspectRatio="xMidYMid meet">
<metadata>
Created by potrace 1.11, written by Peter Selinger 2001-2013
</metadata>
<g transform="translate(0.000000,260.000000) scale(0.100000,-0.100000)"
fill="#000000" stroke="none">
<path d="M625 1706 c-2 -12 -3 -181 -2 -376 l2 -355 82 0 83 -1 -3 376 -2 375
-78 1 c-70 0 -78 -2 -82 -20z"/>
<path d="M231 1518 c-136 -21 -220 -123 -223 -273 -4 -171 101 -277 278 -278
103 -1 181 32 220 95 14 22 22 44 17 48 -4 5 -35 19 -68 33 l-60 25 -27 -29
c-15 -16 -31 -29 -35 -30 -79 -10 -118 2 -138 42 -8 15 -15 30 -15 34 0 3 81
5 180 5 137 0 180 3 181 13 1 22 -3 109 -6 127 -6 33 -45 99 -72 125 -58 53
-143 76 -232 63z m104 -134 c16 -6 45 -54 45 -74 0 -6 -37 -10 -100 -10 -112
0 -119 6 -74 59 21 26 33 31 69 31 24 0 51 -3 60 -6z"/>
<path d="M1059 1519 c-91 -14 -147 -64 -176 -156 -19 -62 -17 -185 3 -246 49
-147 245 -203 348 -99 20 19 37 40 38 46 0 6 4 -11 7 -39 l6 -50 80 0 80 0 0
268 c1 250 0 267 -17 268 -10 0 -38 1 -63 1 -91 0 -85 3 -85 -54 l0 -53 -25
38 c-42 60 -113 89 -196 76z m183 -171 c61 -43 55 -182 -9 -217 -52 -27 -149
-13 -178 26 -35 46 -27 150 15 188 39 36 124 37 172 3z"/>
<path d="M1767 1519 c-135 -20 -233 -127 -240 -261 -6 -116 47 -209 148 -259
57 -28 76 -32 144 -32 66 0 89 4 134 27 129 63 185 198 142 342 -37 125 -180
204 -328 183z m123 -164 c39 -20 52 -46 52 -109 1 -59 -12 -89 -46 -111 -49
-33 -150 -20 -182 23 -37 49 -24 155 23 192 31 24 110 27 153 5z"/>
<path d="M2110 912 l0 -67 245 0 245 0 0 66 0 66 -245 1 -245 1 0 -67z"/>
</g>
</svg>
