<?xml version="1.0" standalone="no"?>
<!DOCTYPE svg PUBLIC "-//W3C//DTD SVG 20010904//EN"
 "http://www.w3.org/TR/2001/REC-SVG-20010904/DTD/svg10.dtd">
<svg version="1.0" xmlns="http://www.w3.org/2000/svg"
 width="300.000000pt" height="300.000000pt" viewBox="0 0 300.000000 300.000000"
 preserveAspectRatio="xMidYMid meet">
<metadata>
Created by potrace 1.11, written by Peter Selinger 2001-2013
</metadata>
<g transform="translate(0.000000,300.000000) scale(0.100000,-0.100000)"
fill="#000000" stroke="none">
<path d="M692 2250 c-332 -60 -531 -311 -536 -680 -1 -67 2 -100 20 -189 41
-206 222 -395 434 -454 189 -53 424 -36 580 43 96 49 195 154 237 251 l11 26
-166 72 c-92 39 -170 71 -174 71 -3 0 -16 -15 -27 -33 -58 -94 -105 -120 -218
-124 -152 -4 -229 46 -267 170 -14 46 -13 47 7 47 12 1 212 1 443 1 l422 -1 4
28 c9 60 -1 232 -17 297 -55 227 -205 390 -419 457 -72 22 -255 32 -334 18z
m277 -335 c30 -15 54 -42 75 -82 16 -32 27 -89 20 -107 -3 -8 -73 -11 -247
-11 l-242 0 4 30 c3 33 35 100 60 129 59 67 238 90 330 41z"/>
<path d="M1664 915 c-3 -6 -3 -78 -2 -160 l3 -150 593 0 c327 0 597 2 601 5 8
6 9 309 1 311 -3 1 -272 2 -599 3 -411 1 -595 -2 -597 -9z"/>
</g>
</svg>
