<svg enable-background="new 0 0 400 479" height="479" viewBox="0 0 400 479" width="400" xmlns="http://www.w3.org/2000/svg" xmlns:xlink="http://www.w3.org/1999/xlink"><mask id="a" height="16.4" maskUnits="userSpaceOnUse" width="126.3" x="61.5" y="170"><path clip-rule="evenodd" d="m61.5 170h126.3v16.4h-126.3z" fill="#fff" fill-rule="evenodd"/></mask><mask id="b" height="6.6" maskUnits="userSpaceOnUse" width="58.2" x="72.5" y="199.2"><path clip-rule="evenodd" d="m62.1 305h126.3v-134.3h-126.3z" fill="#fff" fill-rule="evenodd"/></mask><mask id="c" height="6.6" maskUnits="userSpaceOnUse" width="28.2" x="85.1" y="213.4"><path clip-rule="evenodd" d="m62.1 305h126.3v-134.3h-126.3z" fill="#fff" fill-rule="evenodd"/></mask><mask id="d" height="6.6" maskUnits="userSpaceOnUse" width="40.8" x="98.9" y="227.6"><path clip-rule="evenodd" d="m62.1 305h126.3v-134.3h-126.3z" fill="#fff" fill-rule="evenodd"/></mask><mask id="e" height="6.6" maskUnits="userSpaceOnUse" width="58.2" x="98.9" y="241.8"><path clip-rule="evenodd" d="m62.1 305h126.3v-134.3h-126.3z" fill="#fff" fill-rule="evenodd"/></mask><mask id="f" height="6.6" maskUnits="userSpaceOnUse" width="31.8" x="85.1" y="256"><path clip-rule="evenodd" d="m62.1 305h126.3v-134.3h-126.3z" fill="#fff" fill-rule="evenodd"/></mask><mask id="g" height="6.6" maskUnits="userSpaceOnUse" width="58.2" x="72.5" y="270.2"><path clip-rule="evenodd" d="m62.1 305h126.3v-134.3h-126.3z" fill="#fff" fill-rule="evenodd"/></mask><mask id="h" height="6.6" maskUnits="userSpaceOnUse" width="43.8" x="72.5" y="284.4"><path clip-rule="evenodd" d="m62.1 305h126.3v-134.3h-126.3z" fill="#fff" fill-rule="evenodd"/></mask><mask id="i" height="6" maskUnits="userSpaceOnUse" width="6" x="69.5" y="176.5"><path clip-rule="evenodd" d="m62.1 305h126.3v-134.3h-126.3z" fill="#fff" fill-rule="evenodd"/></mask><mask id="j" height="6" maskUnits="userSpaceOnUse" width="6" x="79.7" y="176.5"><path clip-rule="evenodd" d="m62.1 305h126.3v-134.3h-126.3z" fill="#fff" fill-rule="evenodd"/></mask><mask id="k" height="6" maskUnits="userSpaceOnUse" width="6" x="89.9" y="176.5"><path clip-rule="evenodd" d="m62.1 305h126.3v-134.3h-126.3z" fill="#fff" fill-rule="evenodd"/></mask><mask id="l" height="16.4" maskUnits="userSpaceOnUse" width="126.3" x="149" y="261"><path clip-rule="evenodd" d="m149 261h126.3v16.4h-126.3z" fill="#fff" fill-rule="evenodd"/></mask><mask id="m" height="6.6" maskUnits="userSpaceOnUse" width="58.2" x="160" y="290.2"><path clip-rule="evenodd" d="m149 395.9h126.3v-134.3h-126.3z" fill="#fff" fill-rule="evenodd"/></mask><mask id="n" height="6.6" maskUnits="userSpaceOnUse" width="28.2" x="172.6" y="304.4"><path clip-rule="evenodd" d="m149 395.9h126.3v-134.3h-126.3z" fill="#fff" fill-rule="evenodd"/></mask><mask id="o" height="6.6" maskUnits="userSpaceOnUse" width="40.8" x="186.4" y="318.6"><path clip-rule="evenodd" d="m149 395.9h126.3v-134.3h-126.3z" fill="#fff" fill-rule="evenodd"/></mask><mask id="p" height="6.6" maskUnits="userSpaceOnUse" width="58.2" x="186.4" y="332.8"><path clip-rule="evenodd" d="m149 395.9h126.3v-134.3h-126.3z" fill="#fff" fill-rule="evenodd"/></mask><mask id="q" height="6.6" maskUnits="userSpaceOnUse" width="31.8" x="172.6" y="347"><path clip-rule="evenodd" d="m149 395.9h126.3v-134.3h-126.3z" fill="#fff" fill-rule="evenodd"/></mask><mask id="r" height="6.6" maskUnits="userSpaceOnUse" width="58.2" x="160" y="361.2"><path clip-rule="evenodd" d="m149 395.9h126.3v-134.3h-126.3z" fill="#fff" fill-rule="evenodd"/></mask><mask id="s" height="6.6" maskUnits="userSpaceOnUse" width="43.8" x="160" y="375.4"><path clip-rule="evenodd" d="m149 395.9h126.3v-134.3h-126.3z" fill="#fff" fill-rule="evenodd"/></mask><mask id="t" height="6" maskUnits="userSpaceOnUse" width="6" x="157" y="267.4"><path clip-rule="evenodd" d="m149 395.9h126.3v-134.3h-126.3z" fill="#fff" fill-rule="evenodd"/></mask><mask id="u" height="6" maskUnits="userSpaceOnUse" width="6" x="167.2" y="267.4"><path clip-rule="evenodd" d="m149 395.9h126.3v-134.3h-126.3z" fill="#fff" fill-rule="evenodd"/></mask><mask id="v" height="6" maskUnits="userSpaceOnUse" width="6" x="177.4" y="267.4"><path clip-rule="evenodd" d="m149 395.9h126.3v-134.3h-126.3z" fill="#fff" fill-rule="evenodd"/></mask><g clip-rule="evenodd" fill-rule="evenodd"><path d="m0 0h400v478h-400z" fill="#f4756d"/><path d="m128.7 378.6h-33.7v-44.3h33.7c.7 0 1.2-.6 1.2-1.2v-53.5c0-14.3 4.9-27.8 14-38.7-9.1-10.8-14-24.4-14-38.7v-55.2c0-.7-.6-1.2-1.2-1.2h-33.7v-44.3h33.7c25.1 0 45.6 20.4 45.6 45.6v55.2c0 4.3 1.7 8.3 4.7 11.4l27.3 27.3-27.3 27.1c-3 3-4.7 7.1-4.7 11.4v53.5c0 25.2-20.4 45.6-45.6 45.6" fill="#7f1a55"/><path d="m206.3 378.6v-44.3h33.7c.7 0 1.2-.6 1.2-1.2v-53.5c0-14.3 4.9-27.8 14-38.7-9.1-10.8-14-24.4-14-38.7v-55.2c0-.7-.6-1.2-1.2-1.2h-33.7v-44.3h33.7c25.1 0 45.6 20.4 45.6 45.6v55.2c0 4.3 1.7 8.3 4.7 11.4l27.3 27.3-27.3 27.3c-3 3-4.7 7.1-4.7 11.4v53.5c0 25.1-20.4 45.6-45.6 45.6h-33.7z" fill="#7f1a55"/><path d="m61.5 186.4v-6.5c0-5.5 4.4-9.9 9.9-9.9h106.5c5.5 0 9.9 4.4 9.9 9.9v6.5z" fill="#04002c" mask="url(#a)" transform="translate(0 .628195)"/><path d="m187.8 187.1v108c0 5.5-4.4 9.9-9.9 9.9h-106.5c-5.5 0-9.9-4.4-9.9-9.9v-108z" fill="#ffe4e4"/><path d="m72.5 205.8h58.1v-6.6h-58.1z" fill="#95006c" mask="url(#b)"/><path d="m85.1 220h28.2v-6.6h-28.2z" fill="#007695" mask="url(#c)"/><path d="m98.9 234.2h40.7v-6.6h-40.7z" fill="#ff4345" mask="url(#d)"/><path d="m98.9 248.4h58.1v-6.6h-58.1z" fill="#2ecccb" mask="url(#e)"/><path d="m85.1 262.6h31.8v-6.6h-31.8z" fill="#007695" mask="url(#f)"/><path d="m72.5 276.8h58.1v-6.6h-58.1z" fill="#ff4345" mask="url(#g)"/><path d="m72.5 291h43.8v-6.6h-43.8z" fill="#95006c" mask="url(#h)"/><path d="m75.5 179.5c0 1.7-1.3 3-3 3s-3-1.3-3-3 1.3-3 3-3 3 1.3 3 3" fill="#fff" mask="url(#i)"/><path d="m85.7 179.5c0 1.7-1.3 3-3 3s-3-1.3-3-3 1.3-3 3-3 3 1.3 3 3" fill="#fff" mask="url(#j)"/><path d="m95.9 179.5c0 1.7-1.3 3-3 3s-3-1.3-3-3 1.3-3 3-3 3 1.3 3 3" fill="#fff" mask="url(#k)"/><path d="m154.8 255.7h33v49.3h-45v-37.3c0-6.7 5.4-12 12-12z" fill="#e8d2c9"/><path d="m149 277.4v-6.5c0-5.5 4.4-9.9 9.9-9.9h106.5c5.5 0 9.9 4.4 9.9 9.9v6.5z" fill="#04002c" mask="url(#l)" transform="translate(0 .628195)"/><path d="m275.3 278v108c0 5.5-4.4 9.9-9.9 9.9h-106.5c-5.5 0-9.9-4.4-9.9-9.9v-108z" fill="#ffe4e4"/><path d="m160 296.8h58.1v-6.6h-58.1z" fill="#95006c" mask="url(#m)"/><path d="m172.6 311h28.2v-6.6h-28.2z" fill="#007695" mask="url(#n)"/><path d="m186.4 325.2h40.7v-6.6h-40.7z" fill="#ff4345" mask="url(#o)"/><path d="m186.4 339.4h58.1v-6.6h-58.1z" fill="#2ecccb" mask="url(#p)"/><path d="m172.6 353.6h31.8v-6.6h-31.8z" fill="#007695" mask="url(#q)"/><path d="m160 367.8h58.1v-6.6h-58.1z" fill="#ff4345" mask="url(#r)"/><path d="m160 381.9h43.8v-6.5h-43.8z" fill="#95006c" mask="url(#s)"/><path d="m163 270.4c0 1.7-1.3 3-3 3s-3-1.3-3-3 1.3-3 3-3 3 1.4 3 3" fill="#fff" mask="url(#t)"/><path d="m173.2 270.4c0 1.7-1.3 3-3 3s-3-1.3-3-3 1.3-3 3-3 3 1.4 3 3" fill="#fff" mask="url(#u)"/><path d="m183.4 270.4c0 1.7-1.3 3-3 3s-3-1.3-3-3 1.3-3 3-3c1.6 0 3 1.4 3 3" fill="#fff" mask="url(#v)"/></g><path d="m325.9 342.4-11.9 33.7h-7.6l6.9-33.7zm-16.7-34.9c0-2.3.8-4.3 2.4-5.9s3.5-2.4 5.7-2.4c2.3 0 4.3.8 5.9 2.4s2.4 3.5 2.4 5.9c0 2.3-.8 4.3-2.4 5.9s-3.5 2.4-5.9 2.4c-2.2 0-4.2-.8-5.7-2.4-1.6-1.6-2.4-3.5-2.4-5.9z" fill="#fa4244"/></svg>