<?xml version="1.0" encoding="utf-8"?>
<!-- Generator: Adobe Illustrator 24.3.0, SVG Export Plug-In . SVG Version: 6.00 Build 0)  -->
<svg version="1.1" id="Calque_1" xmlns="http://www.w3.org/2000/svg" xmlns:xlink="http://www.w3.org/1999/xlink" x="0px" y="0px"
	 width="110px" height="110px" viewBox="0 0 110 110" enable-background="new 0 0 110 110" xml:space="preserve">
<g id="fond">
</g>
<g id="compacte">
</g>
<g id="rectangle">
</g>
<g>
	<path fill="#61DAFB" d="M110,54.9c0-7.3-9.1-14.2-23.1-18.5c3.2-14.3,1.8-25.6-4.5-29.2c-1.5-0.9-3.2-1.3-5-1.3v5
		c1,0,1.9,0.2,2.6,0.6c3,1.7,4.4,8.4,3.3,17c-0.2,2.1-0.6,4.3-1.1,6.6c-4.4-1.1-9.2-1.9-14.2-2.4c-3-4.1-6.2-7.9-9.3-11.2
		C65.8,14.7,72.7,11,77.4,11V6l0,0C71.2,6,63.1,10.4,55,18C46.8,10.4,38.8,6.1,32.6,6.1v5c4.6,0,11.5,3.7,18.8,10.4
		c-3.1,3.3-6.3,7-9.3,11.2c-5.1,0.5-9.9,1.4-14.3,2.5c-0.5-2.2-0.9-4.4-1.2-6.5c-1.1-8.6,0.2-15.2,3.3-17c0.7-0.4,1.5-0.6,2.6-0.6
		v-5l0,0c-1.9,0-3.6,0.4-5.1,1.3c-6.3,3.6-7.7,14.9-4.5,29.2c-13.9,4.3-23,11.2-23,18.4c0,7.3,9.1,14.2,23.1,18.5
		c-3.2,14.3-1.8,25.6,4.5,29.2c1.5,0.9,3.2,1.3,5,1.3c6.2,0,14.2-4.4,22.4-12c8.2,7.6,16.2,11.9,22.4,11.9c1.9,0,3.6-0.4,5.1-1.3
		c6.3-3.6,7.7-14.9,4.5-29.2C100.9,69.1,110,62.2,110,54.9z M80.8,40c-0.8,2.9-1.9,5.9-3,8.9c-0.9-1.8-1.9-3.6-2.9-5.4
		c-1-1.8-2.1-3.5-3.2-5.2C74.8,38.7,77.9,39.3,80.8,40z M70.5,63.8c-1.7,3-3.5,5.9-5.4,8.6c-3.3,0.3-6.7,0.4-10.1,0.4
		c-3.4,0-6.8-0.2-10.1-0.4c-1.9-2.7-3.7-5.5-5.4-8.5C37.8,61,36.3,58,34.9,55c1.4-3,3-6,4.6-8.9c1.7-3,3.5-5.9,5.4-8.6
		C48.2,37.2,51.6,37,55,37c3.4,0,6.8,0.2,10.1,0.4c1.9,2.7,3.7,5.5,5.4,8.5c1.7,2.9,3.2,5.9,4.7,8.9C73.8,57.9,72.2,60.9,70.5,63.8z
		 M77.8,60.9c1.2,3,2.2,6,3.1,8.9c-2.9,0.7-6,1.3-9.2,1.8c1.1-1.7,2.2-3.5,3.2-5.3C75.9,64.5,76.9,62.7,77.8,60.9z M55.1,84.8
		c-2.1-2.2-4.2-4.5-6.2-7.2c2,0.1,4.1,0.2,6.2,0.2c2.1,0,4.2,0,6.2-0.2C59.2,80.3,57.1,82.7,55.1,84.8z M38.4,71.6
		c-3.2-0.5-6.3-1.1-9.2-1.8c0.8-2.9,1.9-5.9,3-8.9c0.9,1.8,1.9,3.6,2.9,5.4C36.2,68.2,37.3,69.9,38.4,71.6z M55,25
		c2.1,2.2,4.2,4.5,6.2,7.2c-2-0.1-4.1-0.2-6.2-0.2c-2.1,0-4.2,0-6.2,0.2C50.8,29.6,52.9,27.2,55,25z M38.4,38.2
		c-1.1,1.7-2.2,3.5-3.2,5.3c-1,1.8-2,3.6-2.9,5.4c-1.2-3-2.2-6-3.1-8.9C32.1,39.3,35.2,38.7,38.4,38.2z M18.1,66.3
		C10.2,62.9,5,58.4,5,54.9s5.1-8,13.1-11.3c1.9-0.8,4-1.6,6.2-2.3c1.3,4.4,3,9,5,13.6c-2.1,4.7-3.7,9.2-5,13.6
		C22.2,67.9,20,67.1,18.1,66.3z M30.2,98.3c-3-1.7-4.4-8.4-3.3-17c0.2-2.1,0.6-4.3,1.1-6.6c4.4,1.1,9.2,1.9,14.2,2.4
		c3,4.1,6.2,7.9,9.3,11.2c-7.3,6.8-14.2,10.5-18.8,10.5C31.7,98.9,30.8,98.7,30.2,98.3z M83.3,81.2c1.1,8.6-0.2,15.2-3.3,17
		c-0.7,0.4-1.5,0.6-2.6,0.6c-4.6,0-11.5-3.7-18.8-10.4c3.1-3.3,6.3-7,9.3-11.2c5.1-0.5,9.9-1.4,14.3-2.5
		C82.6,77,83.1,79.1,83.3,81.2z M91.9,66.3c-1.9,0.8-4,1.6-6.2,2.3c-1.3-4.4-3-9-5-13.6c2.1-4.7,3.7-9.2,5-13.6
		c2.2,0.7,4.3,1.5,6.3,2.3C99.9,47,105,51.4,105,54.9C105,58.4,99.9,62.9,91.9,66.3z"/>
	<path fill="#61DAFB" d="M32.6,6.1L32.6,6.1L32.6,6.1z"/>
	<circle fill="#61DAFB" cx="55" cy="54.9" r="10.2"/>
	<path fill="#61DAFB" d="M77.3,6L77.3,6L77.3,6z"/>
</g>
</svg>
