<svg xmlns="http://www.w3.org/2000/svg" xmlns:xlink="http://www.w3.org/1999/xlink" viewBox="0 0 702.01 119.42" xmlns:v="https://vecta.io/nano"><g fill="#471069"><circle cx="126.15" cy="109.21" r="6.44"/><use xlink:href="#B"/><use xlink:href="#B" x="31.92"/><path d="M105.49 117.42c2.78-1.76 4.43-4.25 5.06-7.59s-.05-6.23-2.07-8.83-4.35-4.1-7.98-4.75l-.86-.14s5.74-4.83 8.77-9.76c17.44-28.39 6.49-67.29-25.83-78.62C54.96-1.95 17.53 5.79 4.82 34.64-2.11 50.37.69 66.53 9.07 80.93c-1.29.31-2.5.83-3.68 1.55C2.54 84.23.85 86.71.22 90.04c-.63 3.34.05 6.23 2.05 8.83 2.04 2.62 4.8 4.2 8.43 4.85l85.67 15.43c1.01.18 1.78.28 2.72.28 2.55 0 4.35-.71 6.39-2zM59.13 85.93c-5.25-.17-10.43-1.05-15.03-2.43-10.48-3.15-19.65-10.3-21.39-21.86-1.48-9.8.5-20.58 8.42-27.22 7.59-6.36 20.86-8.17 30.49-7.71 7.03.34 14.12 1.74 20.28 5.12 14.01 7.7 17.37 27.19 8.52 41.03-6.61 10.34-19.75 13.45-31.29 13.07z"/><circle cx="143.96" cy="92.98" r="11.36"/><path d="M406.76 62.38v37.75c0 2.56-.83 4.7-2.5 6.42-1.67 1.71-3.78 2.57-6.33 2.57s-4.68-.86-6.34-2.57c-1.68-1.73-2.5-3.86-2.5-6.42V62.38c0-3.25-.4-6.16-1.19-8.77s-2.21-4.7-4.28-6.28c-2.06-1.57-5.01-2.35-8.85-2.35s-6.93.79-9.58 2.35c-2.66 1.58-4.65 3.67-5.98 6.28s-1.99 5.52-1.99 8.77v37.75c0 2.56-.83 4.7-2.5 6.42-1.68 1.71-3.78 2.57-6.34 2.57s-4.66-.86-6.34-2.57c-1.67-1.73-2.5-3.86-2.5-6.42V62.38c0-3.25-.39-6.16-1.18-8.77s-2.22-4.7-4.28-6.28c-2.07-1.57-5.02-2.35-8.85-2.35s-6.93.79-9.59 2.35c-2.65 1.58-4.64 3.67-5.97 6.28s-1.99 5.52-1.99 8.77v37.75c0 2.56-.83 4.7-2.52 6.42-1.67 1.71-3.78 2.57-6.33 2.57s-4.68-.86-6.34-2.57c-1.67-1.73-2.5-3.86-2.5-6.42v-60.9c0-2.56.83-4.7 2.5-6.41 1.67-1.73 3.78-2.58 6.34-2.58s4.66.86 6.33 2.58c1.68 1.71 2.52 3.85 2.52 6.41v2.41l1.47-1.9c1.57-1.92 3.49-3.72 5.75-5.38 2.25-1.67 4.77-3.02 7.52-4.06 2.74-1.03 5.75-1.54 9-1.54 7.87 0 13.66 1.9 17.4 5.68 2.82 2.87 4.94 6.38 6.3 10.53 1.17-2.13 2.9-4.41 5.2-6.85 2.46-2.61 5.43-4.81 8.92-6.63 3.5-1.82 7.4-2.73 11.73-2.73 7.08 0 12.46 1.52 16.15 4.57 3.68 3.04 6.21 7.1 7.59 12.16 1.37 5.06 2.06 10.69 2.06 16.89zm84.51-31.11c-1.67-1.67-3.78-2.5-6.34-2.5s-4.66.86-6.33 2.58c-1.67 1.71-2.5 3.85-2.5 6.41v.19c-.86-.81-1.82-1.61-2.88-2.41-2.61-1.97-5.68-3.59-9.21-4.86-3.54-1.28-7.43-1.92-11.65-1.92-6.6 0-12.59 1.75-17.99 5.24-5.41 3.49-9.72 8.31-12.91 14.45-3.2 6.15-4.79 13.25-4.79 21.31s1.59 15.02 4.79 21.16c3.19 6.15 7.54 10.96 13.06 14.46 5.5 3.49 11.65 5.22 18.43 5.22 3.74 0 7.2-.61 10.4-1.84 3.19-1.22 5.97-2.72 8.33-4.49 1.75-1.31 3.22-2.64 4.44-3.98.02 2.49.86 4.57 2.49 6.26 1.67 1.71 3.78 2.57 6.33 2.57s4.68-.86 6.34-2.57c1.67-1.73 2.5-3.86 2.5-6.42V37.76c0-2.65-.83-4.81-2.5-6.49zM474.09 82.3c-1.82 3.74-4.34 6.69-7.59 8.85s-7.03 3.24-11.35 3.24-7.97-1.07-11.21-3.24c-3.25-2.16-5.77-5.11-7.59-8.85s-2.73-7.92-2.73-12.54.91-8.94 2.73-12.68 4.34-6.69 7.59-8.85 6.98-3.25 11.21-3.25 8.11 1.09 11.35 3.25c3.25 2.16 5.77 5.11 7.59 8.85s2.73 7.96 2.73 12.68-.91 8.8-2.73 12.54zM274.26 31.27c-1.67-1.67-3.78-2.5-6.34-2.5s-4.66.86-6.33 2.58c-1.67 1.71-2.5 3.85-2.5 6.41v.19c-.86-.81-1.82-1.61-2.88-2.41-2.61-1.97-5.68-3.59-9.21-4.86-3.54-1.28-7.43-1.92-11.65-1.92-6.6 0-12.59 1.75-17.99 5.24-5.41 3.49-9.72 8.31-12.91 14.45-3.2 6.15-4.79 13.25-4.79 21.31s1.59 15.02 4.79 21.16c3.19 6.15 7.54 10.96 13.06 14.46 5.5 3.49 11.65 5.22 18.43 5.22 3.74 0 7.2-.61 10.4-1.84 3.19-1.22 5.97-2.72 8.33-4.49 1.75-1.31 3.22-2.64 4.44-3.98.02 2.49.86 4.57 2.49 6.26 1.67 1.71 3.78 2.57 6.33 2.57s4.68-.86 6.34-2.57c1.67-1.73 2.5-3.86 2.5-6.42V37.76c0-2.65-.83-4.81-2.5-6.49zM257.08 82.3c-1.82 3.74-4.34 6.69-7.59 8.85s-7.03 3.24-11.35 3.24-7.97-1.07-11.21-3.24c-3.25-2.16-5.77-5.11-7.59-8.85s-2.73-7.92-2.73-12.54.91-8.94 2.73-12.68 4.34-6.69 7.59-8.85 6.98-3.25 11.21-3.25 8.11 1.09 11.35 3.25c3.25 2.16 5.77 5.11 7.59 8.85s2.73 7.96 2.73 12.68-.91 8.8-2.73 12.54zm322.6-33.92c-3.2-6.1-7.52-10.89-12.99-14.38-5.45-3.49-11.63-5.24-18.51-5.24-3.44 0-6.71.59-9.8 1.77-3.1 1.18-5.83 2.68-8.19 4.49-2.11 1.62-3.84 3.26-5.17 4.88V9c0-2.55-.83-4.69-2.5-6.41-1.67-1.71-3.78-2.58-6.34-2.58s-4.66.87-6.34 2.58c-1.67 1.73-2.5 3.86-2.5 6.41v92.61c0 2.66.83 4.82 2.5 6.49 1.68 1.67 3.78 2.5 6.34 2.5s4.68-.86 6.34-2.57c1.67-1.73 2.5-3.86 2.5-6.42v-.9c1.04 1.05 2.24 2.09 3.61 3.12 2.61 1.97 5.62 3.59 9.08 4.87 3.44 1.27 7.12 1.91 11.05 1.91 6.69 0 12.7-1.74 18.06-5.22 5.36-3.5 9.64-8.31 12.84-14.46 3.19-6.14 4.79-13.25 4.79-21.31s-1.6-15.14-4.79-21.23zm-14.9 33.84c-1.83 3.78-4.33 6.77-7.52 8.93-3.2 2.16-6.96 3.24-11.28 3.24s-8.12-1.07-11.35-3.24c-3.25-2.16-5.78-5.14-7.6-8.93-1.82-3.78-2.72-7.98-2.72-12.61s.9-8.92 2.72-12.61c1.82-3.68 4.36-6.61 7.6-8.77s7.02-3.25 11.35-3.25 8.08 1.09 11.28 3.25c3.19 2.16 5.69 5.09 7.52 8.77 1.82 3.69 2.72 7.89 2.72 12.61s-.9 8.83-2.72 12.61zm48.74 17.92c0 2.56-.86 4.7-2.58 6.41-1.72 1.72-3.86 2.58-6.41 2.58s-4.52-.86-6.19-2.58-2.51-3.86-2.51-6.41V9c0-2.56.86-4.69 2.58-6.41s3.86-2.58 6.41-2.58 4.65.86 6.27 2.58 2.43 3.86 2.43 6.41v91.14zm85.98-68.87c-1.68-1.67-3.8-2.5-6.34-2.5s-4.68.86-6.34 2.58c-1.67 1.71-2.5 3.85-2.5 6.41v.19c-.86-.81-1.82-1.61-2.88-2.41-2.61-1.97-5.67-3.59-9.21-4.86-3.54-1.28-7.42-1.92-11.65-1.92-6.58 0-12.59 1.75-17.99 5.24-5.41 3.49-9.71 8.31-12.91 14.45-3.19 6.15-4.79 13.25-4.79 21.31s1.6 15.02 4.79 21.16c3.2 6.15 7.55 10.96 13.06 14.46 5.51 3.49 11.65 5.22 18.44 5.22 3.73 0 7.19-.61 10.39-1.84 3.19-1.22 5.97-2.72 8.33-4.49 1.74-1.31 3.22-2.63 4.44-3.97.02 2.49.86 4.56 2.49 6.25 1.67 1.71 3.78 2.57 6.34 2.57s4.66-.86 6.34-2.57c1.67-1.73 2.5-3.86 2.5-6.42V37.76c0-2.65-.83-4.81-2.5-6.49zM682.32 82.3c-1.82 3.74-4.36 6.69-7.6 8.85s-7.03 3.24-11.35 3.24-7.97-1.07-11.2-3.24c-3.25-2.16-5.78-5.11-7.6-8.85s-2.72-7.92-2.72-12.54.9-8.94 2.72-12.68 4.36-6.69 7.6-8.85 6.97-3.25 11.2-3.25 8.12 1.09 11.35 3.25c3.25 2.16 5.78 5.11 7.6 8.85s2.72 7.96 2.72 12.68-.9 8.8-2.72 12.54z"/></g><defs ><path id="B" d="M42.37 67.32c-3.26 0-5.9-2.77-5.9-6.19V49.47c0-3.42 2.64-6.19 5.9-6.19s5.9 2.77 5.9 6.19v11.66c0 3.42-2.64 6.19-5.9 6.19z"/></defs></svg>
