<?xml version="1.0" encoding="UTF-8"?>
<svg width="93px" height="61px" viewBox="0 0 93 61" version="1.1" xmlns="http://www.w3.org/2000/svg" xmlns:xlink="http://www.w3.org/1999/xlink">
    <title>card</title>
    <g id="Home" stroke="none" stroke-width="1" fill="none" fill-rule="evenodd">
        <g id="listing_etudedecas" transform="translate(-269.000000, -2875.000000)">
            <g id="un-projet-?" transform="translate(160.000000, 2560.000000)">
                <g id="card" transform="translate(109.119205, 315.370861)">
                    <polygon id="arrow" fill="#FEE3E4" points="81.4284 45.2054 87.1084 50.9414 68.1104 50.9414 68.1104 53.4714 87.1264 53.4714 81.4284 59.2054 84.9004 59.2054 91.8894 52.2384 84.9004 45.2054"></polygon>
                    <g id="inner" transform="translate(0.000000, 0.205800)">
                        <path d="M17.4663,17.6336 C17.4663,15.1486 16.8073,14.3516 14.9253,14.3516 C13.0443,14.3516 12.3843,15.1486 12.3843,17.6336 C12.3843,20.1336 13.0443,20.9436 14.9253,20.9436 C16.8073,20.9436 17.4663,20.1336 17.4663,17.6336 M19.3473,17.6476 C19.3473,20.5866 17.4523,22.5916 14.9253,22.5916 C12.3993,22.5916 10.5033,20.5866 10.5033,17.6476 C10.5033,14.6806 12.3993,12.7036 14.9253,12.7036 C17.4523,12.7036 19.3473,14.6806 19.3473,17.6476" id="Fill-14" fill="#FEE3E4"></path>
                        <path d="M45.502,31.062 L45.502,28.395 L66.643,28.395 L66.643,31.062 L45.502,31.062 Z" id="Combined-Shape" fill="#FEE3E4"></path>
                        <polygon id="Fill-20" fill="#FEE3E4" points="45.502 37.865 56.2 37.865 56.2 35.198 45.502 35.198"></polygon>
                        <path d="M15.3516,17.7254 C15.6936,17.0204 16.6806,15.6304 18.2716,15.6304 C19.6416,15.6304 21.1116,16.5574 22.0186,16.5574 C22.7036,16.5574 23.0856,15.9734 23.3076,15.5704 L25.3816,16.5774 C24.9186,17.4034 24.0326,18.6924 22.5216,18.6924 C21.1316,18.6924 19.6216,17.7664 18.7556,17.7664 C18.0506,17.7664 17.7076,18.3704 17.4466,18.7724 L15.3516,17.7254 Z" id="Fill-21" fill="#FA4244"></path>
                        <path d="M15.3516,23.9529 C15.6936,23.2479 16.6806,21.8579 18.2716,21.8579 C19.6416,21.8579 21.1116,22.7849 22.0186,22.7849 C22.7036,22.7849 23.0856,22.2009 23.3076,21.7979 L25.3816,22.8049 C24.9186,23.6309 24.0326,24.9199 22.5216,24.9199 C21.1316,24.9199 19.6216,23.9939 18.7556,23.9939 C18.0506,23.9939 17.7076,24.5979 17.4466,24.9999 L15.3516,23.9529 Z" id="Fill-22" fill="#FA4244"></path>
                        <path d="M27.3193,17.7254 C27.6613,17.0204 28.6483,15.6304 30.2393,15.6304 C31.6093,15.6304 33.0793,16.5574 33.9863,16.5574 C34.6713,16.5574 35.0533,15.9734 35.2753,15.5704 L37.3493,16.5774 C36.8863,17.4034 36.0003,18.6924 34.4893,18.6924 C33.0993,18.6924 31.5893,17.7664 30.7233,17.7664 C30.0183,17.7664 29.6753,18.3704 29.4143,18.7724 L27.3193,17.7254 Z" id="Fill-23" fill="#FA4244"></path>
                        <path d="M27.3193,23.9529 C27.6613,23.2479 28.6483,21.8579 30.2393,21.8579 C31.6093,21.8579 33.0793,22.7849 33.9863,22.7849 C34.6713,22.7849 35.0533,22.2009 35.2753,21.7979 L37.3493,22.8049 C36.8863,23.6309 36.0003,24.9199 34.4893,24.9199 C33.0993,24.9199 31.5893,23.9939 30.7233,23.9939 C30.0183,23.9939 29.6753,24.5979 29.4143,24.9999 L27.3193,23.9529 Z" id="Fill-24" fill="#FA4244"></path>
                        <polygon id="Fill-2" fill="#2ECCCB" points="7.877 3.187 19.894 3.187 19.894 0.794 7.877 0.794"></polygon>
                        <polygon id="Fill-3" fill="#2ECCCB" points="25.127 3.187 37.145 3.187 37.145 0.794 25.127 0.794"></polygon>
                        <polygon id="Fill-4" fill="#2ECCCB" points="42.378 3.187 54.396 3.187 54.396 0.794 42.378 0.794"></polygon>
                        <polygon id="Fill-5" fill="#2ECCCB" points="59.629 3.187 71.647 3.187 71.647 0.794 59.629 0.794"></polygon>
                        <polygon id="Fill-6" fill="#2ECCCB" points="0 51.472 2.394 51.472 2.394 39.454 0 39.454"></polygon>
                        <polygon id="Fill-7" fill="#2ECCCB" points="0 34.221 2.394 34.221 2.394 22.203 0 22.203"></polygon>
                        <polygon id="Fill-8" fill="#2ECCCB" points="0 16.971 2.394 16.971 2.394 4.953 0 4.953"></polygon>
                        <polygon id="Fill-9" fill="#2ECCCB" points="79.597 16.305 81.991 16.305 81.991 4.287 79.597 4.287"></polygon>
                        <polygon id="Fill-10" fill="#2ECCCB" points="79.597 33.556 81.991 33.556 81.991 21.538 79.597 21.538"></polygon>
                        <polygon id="Fill-11" fill="#2ECCCB" points="7.876 53.266 19.894 53.266 19.894 50.872 7.876 50.872"></polygon>
                        <polygon id="Fill-12" fill="#2ECCCB" points="25.127 53.266 37.145 53.266 37.145 50.872 25.127 50.872"></polygon>
                        <polygon id="Fill-13" fill="#2ECCCB" points="42.378 53.266 54.396 53.266 54.396 50.872 42.378 50.872"></polygon>
                    </g>
                </g>
            </g>
        </g>
    </g>
</svg>