<?xml version="1.0" encoding="UTF-8"?>
<svg id="Calque_2" data-name="Calque 2" xmlns="http://www.w3.org/2000/svg" viewBox="0 0 702.5 119.92">
  <g id="Calque_1-2" data-name="Calque 1">
    <g>
      <g>
        <circle class="cls-1" cx="126.15" cy="109.71" r="6.44"/>
        <path class="cls-1" d="m42.37,67.82c-3.26,0-5.9-2.77-5.9-6.19v-11.66c0-3.42,2.64-6.19,5.9-6.19s5.9,2.77,5.9,6.19v11.66c0,3.42-2.64,6.19-5.9,6.19Z"/>
        <path class="cls-1" d="m74.29,67.82c-3.26,0-5.9-2.77-5.9-6.19v-11.66c0-3.42,2.64-6.19,5.9-6.19s5.9,2.77,5.9,6.19v11.66c0,3.42-2.64,6.19-5.9,6.19Z"/>
        <path class="cls-1" d="m105.49,117.92c2.78-1.76,4.43-4.25,5.06-7.59.63-3.34-.05-6.23-2.07-8.83s-4.35-4.1-7.98-4.75l-.86-.14s5.74-4.83,8.77-9.76c17.44-28.39,6.49-67.29-25.83-78.62C54.96-1.45,17.53,6.29,4.82,35.14c-6.93,15.73-4.13,31.89,4.25,46.29-1.29.31-2.5.83-3.68,1.55-2.85,1.75-4.54,4.23-5.17,7.56-.63,3.34.05,6.23,2.05,8.83,2.04,2.62,4.8,4.2,8.43,4.85l85.67,15.43c1.01.18,1.78.28,2.72.28,2.55,0,4.35-.71,6.39-2Zm-46.36-31.49c-5.25-.17-10.43-1.05-15.03-2.43-10.48-3.15-19.65-10.3-21.39-21.86-1.48-9.8.5-20.58,8.42-27.22,7.59-6.36,20.86-8.17,30.49-7.71,7.03.34,14.12,1.74,20.28,5.12,14.01,7.7,17.37,27.19,8.52,41.03-6.61,10.34-19.75,13.45-31.29,13.07Z"/>
        <circle class="cls-1" cx="143.96" cy="93.48" r="11.36"/>
      </g>
      <path class="cls-1" d="m407.26,62.88v37.75c0,2.68-.89,4.96-2.64,6.78-1.76,1.8-4.01,2.72-6.7,2.72s-4.94-.92-6.7-2.72c-1.75-1.81-2.64-4.08-2.64-6.78v-37.75c0-3.16-.4-6.06-1.17-8.62-.76-2.5-2.14-4.52-4.1-6.02s-4.84-2.25-8.55-2.25-6.76.76-9.32,2.28c-2.56,1.52-4.51,3.56-5.79,6.07-1.28,2.53-1.93,5.4-1.93,8.54v37.75c0,2.68-.89,4.96-2.65,6.78-1.77,1.8-4.03,2.72-6.7,2.72s-4.93-.92-6.7-2.72c-1.76-1.82-2.65-4.1-2.65-6.78v-37.75c0-3.18-.39-6.08-1.16-8.62-.75-2.49-2.13-4.51-4.1-6.02-1.97-1.5-4.85-2.25-8.54-2.25s-6.76.76-9.34,2.28c-2.56,1.52-4.5,3.56-5.78,6.07-1.28,2.52-1.93,5.4-1.93,8.54v37.75c0,2.69-.89,4.97-2.66,6.78-1.76,1.8-4.01,2.72-6.69,2.72s-4.94-.92-6.7-2.72c-1.76-1.82-2.65-4.1-2.65-6.78v-60.9c0-2.68.89-4.95,2.65-6.76,1.75-1.81,4.01-2.73,6.7-2.73s4.94.92,6.69,2.73c1.77,1.8,2.66,4.08,2.66,6.76v.93c.19-.24.38-.48.59-.73,1.58-1.93,3.54-3.77,5.84-5.47,2.26-1.67,4.83-3.06,7.64-4.12,2.79-1.05,5.87-1.58,9.17-1.58,7.96,0,13.94,1.96,17.76,5.83,2.65,2.69,4.68,5.95,6.06,9.69,1.15-1.88,2.74-3.9,4.72-6,2.48-2.62,5.52-4.89,9.05-6.73,3.56-1.85,7.59-2.79,11.96-2.79,7.17,0,12.71,1.58,16.47,4.69,3.74,3.09,6.35,7.27,7.76,12.42,1.37,5.08,2.07,10.81,2.07,17.01Z"/>
      <path class="cls-1" d="m493.61,34.46c-.45-1.15-1.11-2.17-1.99-3.05-1.76-1.76-4.01-2.65-6.7-2.65s-4.93.92-6.69,2.74c-1.55,1.59-2.43,3.56-2.61,5.85-.64-.56-1.34-1.12-2.11-1.71-2.64-1.99-5.79-3.65-9.35-4.93-3.58-1.29-7.56-1.95-11.82-1.95-6.65,0-12.79,1.79-18.26,5.32-5.46,3.52-9.87,8.45-13.08,14.64-3.22,6.18-4.85,13.43-4.85,21.54s1.63,15.22,4.85,21.39c3.21,6.19,7.66,11.12,13.23,14.65,5.55,3.52,11.84,5.3,18.69,5.3,3.8,0,7.36-.63,10.59-1.87,3.21-1.23,6.06-2.77,8.45-4.56,1.4-1.05,2.64-2.12,3.71-3.2.24,2.1,1.1,3.93,2.56,5.44,1.76,1.8,4.01,2.72,6.69,2.72s4.95-.92,6.71-2.72c1.75-1.82,2.64-4.1,2.64-6.78v-62.37c0-1.39-.22-2.65-.66-3.8Zm-38.47,59.92c-4.11,0-7.79-1.06-10.93-3.15-3.16-2.1-5.65-5.01-7.42-8.65-1.78-3.66-2.69-7.8-2.69-12.32s.91-8.8,2.69-12.46c1.77-3.64,4.26-6.55,7.42-8.65,3.15-2.1,6.83-3.16,10.93-3.16s7.92,1.06,11.08,3.16c3.15,2.1,5.64,5.01,7.42,8.65,1.78,3.66,2.68,7.85,2.68,12.46s-.9,8.66-2.68,12.32c-1.78,3.64-4.27,6.55-7.42,8.65-3.14,2.09-6.87,3.15-11.08,3.15Z"/>
      <path class="cls-1" d="m276.61,34.46c-.45-1.15-1.11-2.17-1.99-3.05-1.76-1.76-4.02-2.65-6.7-2.65s-4.94.92-6.69,2.74c-1.56,1.59-2.43,3.56-2.61,5.85-.65-.56-1.35-1.13-2.12-1.71-2.64-1.99-5.78-3.65-9.34-4.93-3.59-1.29-7.56-1.95-11.82-1.95-6.65,0-12.8,1.79-18.27,5.32-5.46,3.52-9.86,8.45-13.08,14.64-3.21,6.18-4.84,13.42-4.84,21.54s1.63,15.22,4.84,21.39c3.21,6.18,7.66,11.12,13.23,14.65,5.55,3.52,11.84,5.3,18.7,5.3,3.8,0,7.36-.63,10.58-1.87,3.22-1.23,6.06-2.77,8.46-4.56,1.39-1.05,2.63-2.12,3.71-3.2.24,2.1,1.1,3.93,2.56,5.44,1.76,1.8,4.01,2.72,6.69,2.72s4.94-.92,6.7-2.72c1.76-1.82,2.65-4.1,2.65-6.78v-62.37c0-1.39-.22-2.65-.66-3.8Zm-38.47,59.92c-4.12,0-7.8-1.06-10.94-3.15-3.15-2.1-5.65-5.01-7.42-8.65-1.78-3.66-2.68-7.81-2.68-12.32s.9-8.8,2.68-12.46c1.77-3.64,4.27-6.55,7.42-8.65,3.15-2.1,6.83-3.16,10.94-3.16s7.92,1.06,11.07,3.16c3.15,2.1,5.65,5.01,7.42,8.65,1.78,3.66,2.68,7.85,2.68,12.46s-.9,8.66-2.68,12.32c-1.77,3.64-4.27,6.55-7.42,8.65-3.14,2.09-6.87,3.15-11.07,3.15Z"/>
      <path class="cls-1" d="m583.75,58.65c-.8-3.59-2.02-6.93-3.62-10-3.23-6.16-7.66-11.06-13.17-14.57-5.51-3.53-11.83-5.32-18.77-5.32-3.48,0-6.84.61-9.98,1.81-3.14,1.19-5.93,2.73-8.31,4.56-1.69,1.3-3.15,2.62-4.36,3.94V9.5c0-2.67-.89-4.95-2.65-6.76-1.76-1.82-4.02-2.74-6.7-2.74s-4.93.92-6.7,2.74c-1.76,1.81-2.65,4.09-2.65,6.76v92.61c0,2.78.89,5.09,2.65,6.85,1.77,1.75,4.02,2.64,6.7,2.64s4.94-.91,6.7-2.72c1.7-1.75,2.58-3.94,2.64-6.5.86.8,1.8,1.58,2.82,2.34,2.64,2,5.74,3.66,9.2,4.94,3.49,1.29,7.27,1.94,11.23,1.94,6.76,0,12.92-1.78,18.34-5.3,5.41-3.53,9.78-8.46,13.01-14.65,3.21-6.19,4.84-13.44,4.84-21.54,0-4.05-.41-7.88-1.22-11.46Zm-37.77,35.73c-4.22,0-7.94-1.06-11.07-3.15-3.16-2.1-5.66-5.03-7.43-8.73-1.78-3.69-2.67-7.86-2.67-12.39s.89-8.79,2.66-12.39c1.78-3.59,4.28-6.47,7.44-8.57,3.14-2.1,6.86-3.16,11.07-3.16s7.9,1.06,11,3.16c3.1,2.09,5.57,4.98,7.36,8.57,1.77,3.6,2.67,7.77,2.67,12.39s-.9,8.7-2.67,12.39c-1.79,3.7-4.27,6.64-7.35,8.73-3.1,2.09-6.8,3.15-11.01,3.15Z"/>
      <path class="cls-1" d="m614.02,9.5v91.14c0,2.68-.92,4.96-2.73,6.77-1.81,1.81-4.08,2.72-6.76,2.72s-4.8-.92-6.56-2.73c-1.75-1.8-2.65-4.08-2.65-6.76V9.5c0-2.68.92-4.96,2.73-6.77,1.81-1.81,4.09-2.73,6.77-2.73s4.92.93,6.63,2.74,2.57,4.09,2.57,6.76Z"/>
      <path class="cls-1" d="m699.86,31.41h0c-1.77-1.76-4.02-2.65-6.69-2.65s-4.95.92-6.71,2.74c-1.55,1.59-2.43,3.56-2.61,5.85-.64-.56-1.34-1.13-2.11-1.71-2.65-2-5.8-3.65-9.35-4.93-3.58-1.29-7.56-1.95-11.82-1.95-6.64,0-12.79,1.79-18.26,5.32-5.44,3.51-9.84,8.43-13.08,14.64-3.22,6.2-4.85,13.45-4.85,21.54s1.63,15.2,4.85,21.39c3.23,6.2,7.68,11.13,13.23,14.65,5.56,3.52,11.85,5.3,18.71,5.3,3.79,0,7.35-.63,10.57-1.87,3.22-1.23,6.06-2.77,8.46-4.56,1.44-1.09,2.66-2.14,3.7-3.19.25,2.1,1.11,3.92,2.56,5.43,1.76,1.8,4.02,2.72,6.71,2.72s4.93-.92,6.7-2.72c1.76-1.82,2.64-4.1,2.64-6.78v-62.37c0-2.77-.89-5.08-2.64-6.85Zm-36.5,62.97c-4.11,0-7.79-1.06-10.92-3.15-3.16-2.1-5.66-5.01-7.43-8.65-1.77-3.64-2.67-7.79-2.67-12.32s.9-8.82,2.67-12.46c1.77-3.64,4.27-6.55,7.43-8.65,3.14-2.1,6.82-3.16,10.92-3.16s7.94,1.06,11.08,3.16c3.16,2.1,5.66,5.01,7.43,8.65,1.77,3.64,2.67,7.84,2.67,12.46,0,2.27-.23,4.43-.67,6.49-.45,2.06-1.12,4.01-2,5.83-1.77,3.64-4.27,6.55-7.43,8.65-3.13,2.09-6.86,3.15-11.08,3.15Z"/>
    </g>
  </g>
</svg>
