<svg enable-background="new 0 0 628.6 327.7" height="327.7" viewBox="0 0 628.6 327.7" width="628.6" xmlns="http://www.w3.org/2000/svg" xmlns:xlink="http://www.w3.org/1999/xlink"><mask id="a" height="13.8" maskUnits="userSpaceOnUse" width="30.1" x="314.7" y="251.5"><path clip-rule="evenodd" d="m222 271.2h166.7v-151.3h-166.7z" fill="#fff" fill-rule="evenodd"/></mask><mask id="b" height="5.9" maskUnits="userSpaceOnUse" width="57.5" x="301" y="265.3"><path clip-rule="evenodd" d="m222 271.2h166.7v-151.3h-166.7z" fill="#fff" fill-rule="evenodd"/></mask><mask id="c" height="63.2" maskUnits="userSpaceOnUse" width="108.1" x="275.7" y="177"><path clip-rule="evenodd" d="m222 271.2h166.7v-151.3h-166.7z" fill="#fff" fill-rule="evenodd"/></mask><mask id="d" height="16.1" maskUnits="userSpaceOnUse" width="117.8" x="270.9" y="235.4"><path clip-rule="evenodd" d="m222 271.2h166.7v-151.3h-166.7z" fill="#fff" fill-rule="evenodd"/></mask><mask id="e" height="7.3" maskUnits="userSpaceOnUse" width="7.3" x="326.1" y="239.1"><path clip-rule="evenodd" d="m222 271.2h166.7v-151.3h-166.7z" fill="#fff" fill-rule="evenodd"/></mask><mask id="f" height="4.5" maskUnits="userSpaceOnUse" width="30.1" x="314.7" y="251.5"><path clip-rule="evenodd" d="m222 271.2h166.7v-151.3h-166.7z" fill="#fff" fill-rule="evenodd"/></mask><mask id="g" height="5.2" maskUnits="userSpaceOnUse" width="24.2" x="317.8" y="221.4"><path clip-rule="evenodd" d="m222 271.2h166.7v-151.3h-166.7z" fill="#fff" fill-rule="evenodd"/></mask><mask id="h" height="11.7" maskUnits="userSpaceOnUse" width="11.7" x="324.3" y="196.9"><path clip-rule="evenodd" d="m222 285.8h166.7v-151.3h-166.7z" fill="#fff" fill-rule="evenodd"/></mask><mask id="i" height="115.6" maskUnits="userSpaceOnUse" width="56.3" x="255.9" y="119.9"><path clip-rule="evenodd" d="m222 271.2h166.7v-151.3h-166.7z" fill="#fff" fill-rule="evenodd"/></mask><mask id="j" height="108.7" maskUnits="userSpaceOnUse" width="48.9" x="259.6" y="123.4"><path clip-rule="evenodd" d="m222 271.2h166.7v-151.3h-166.7z" fill="#fff" fill-rule="evenodd"/></mask><mask id="k" height="8.7" maskUnits="userSpaceOnUse" width="40.3" x="264" y="217"><path clip-rule="evenodd" d="m222 271.2h166.7v-151.3h-166.7z" fill="#fff" fill-rule="evenodd"/></mask><mask id="l" height="8.7" maskUnits="userSpaceOnUse" width="40.3" x="264" y="217"><path clip-rule="evenodd" d="m222 271.2h166.7v-151.3h-166.7z" fill="#fff" fill-rule="evenodd"/></mask><mask id="m" height="103.7" maskUnits="userSpaceOnUse" width="83.6" x="222" y="167.5"><path clip-rule="evenodd" d="m222 271.2h166.7v-151.3h-166.7z" fill="#fff" fill-rule="evenodd"/></mask><mask id="n" height="28.8" maskUnits="userSpaceOnUse" width="28.8" x="268.8" y="158.2"><path clip-rule="evenodd" d="m192.2 350.6h242.6v-220.2h-242.6z" fill="#fff" fill-rule="evenodd"/></mask><mask id="o" height="9.3" maskUnits="userSpaceOnUse" width="7.9" x="270.7" y="235.5"><path clip-rule="evenodd" d="m222 271.2h166.7v-151.3h-166.7z" fill="#fff" fill-rule="evenodd"/></mask><g clip-rule="evenodd" fill-rule="evenodd"><path d="m0 0h628.6v327.7h-628.6z" fill="#fa4244"/><path d="m247.3 59.1 105.9 106.2-105.9 106.2h54.1l105.9-106.2-105.9-106.2z" fill="#95006c"/><path d="m388.7 235.4v-60.2c0-1.4-1.2-2.6-2.6-2.6h-112.6c-1.4 0-2.6 1.2-2.6 2.6v60.8" fill="#04002c"/><path d="m314.7 265.3h30.2v-13.8h-30.2z" fill="#af9daa" mask="url(#a)"/><path d="m352.6 265.3h-45.6c-3.3 0-5.9 2.6-5.9 5.9h57.5c-.1-3.2-2.7-5.9-6-5.9" fill="#ccbecd" mask="url(#b)"/><path d="m383.8 240.2v-62.8l-108.1-.4v63.2z" fill="#fff" mask="url(#c)"/><path d="m270.9 236v12.9c0 1.4 1.2 2.6 2.6 2.6h112.6c1.4 0 2.6-1.2 2.6-2.6v-13.5" fill="#cfbed0" mask="url(#d)"/><path d="m333.4 242.8c0 2-1.6 3.7-3.7 3.7-2 0-3.7-1.6-3.7-3.7 0-2 1.6-3.7 3.7-3.7s3.7 1.7 3.7 3.7" fill="#04002c" mask="url(#e)"/><path d="m314.7 256h30.2v-4.5h-30.2z" fill="#020128" mask="url(#f)"/><path d="m320.4 226.6h19c1.4 0 2.6-1.2 2.6-2.6s-1.2-2.6-2.6-2.6h-19c-1.4 0-2.6 1.2-2.6 2.6s1.1 2.6 2.6 2.6" fill="#95006c" mask="url(#g)"/><path d="m336 202.7c0 3.2-2.6 5.9-5.9 5.9-3.2 0-5.9-2.6-5.9-5.9 0-3.2 2.6-5.9 5.9-5.9 3.3.1 5.9 2.7 5.9 5.9" fill="#95006c" mask="url(#h)"/><path d="m308.6 228.8c0 1.8-1.5 3.3-3.3 3.3h-42.3c-1.8 0-3.3-1.5-3.3-3.3v-102.1c0-1.8 1.5-3.3 3.3-3.3h6.8v1.1c0 1.3 1.1 2.4 2.4 2.4h23.8c1.3 0 2.4-1.1 2.4-2.4v-1.1h6.8c1.8 0 3.3 1.5 3.3 3.3v102.1zm-2.9-108.9h-43.2c-3.6 0-6.6 3-6.6 6.6v102.4c0 3.6 2.9 6.6 6.6 6.6h43.2c3.6 0 6.6-3 6.6-6.6v-102.4c0-3.6-3-6.6-6.6-6.6z" fill="#04002c" mask="url(#i)"/><path d="m308.6 228.8c0 1.8-1.5 3.3-3.3 3.3h-42.3c-1.8 0-3.3-1.5-3.3-3.3v-102.1c0-1.8 1.5-3.3 3.3-3.3h6.8v1.1c0 1.3 1.1 2.4 2.4 2.4h23.8c1.3 0 2.4-1.1 2.4-2.4v-1.1h6.8c1.8 0 3.3 1.5 3.3 3.3v102.1z" fill="#fff" mask="url(#j)"/><path d="m268.3 225.8h31.6c2.4 0 4.4-1.9 4.4-4.4s-2-4.4-4.4-4.4h-31.6c-2.4 0-4.4 2-4.4 4.4s2 4.4 4.4 4.4" fill="#ffff36" mask="url(#k)"/><path d="m268.3 225.8h31.6c2.4 0 4.4-1.9 4.4-4.4s-2-4.4-4.4-4.4h-31.6c-2.4 0-4.4 2-4.4 4.4s2 4.4 4.4 4.4" fill="#95006c" mask="url(#l)"/><path d="m222 271.2s49.2.2 49.2 0 6.8-11.4 12.6-14.7c5.8-3.2 19.5-15.2 21.8-21h-33.3s-1.5-10.1-5.5-16.2c-3.9-6.1-8.5-18.3-5.8-24.4s5.8-16.4 3.9-20.7-5.6-6.7-5.6-6.7-13.5 28-18.1 41-3.1 22.7-2.7 26.3c.3 3.6 2.4 5.8.2 10.2-2.2 4.5-16.7 26.2-16.7 26.2" fill="#ffe4e4" mask="url(#m)"/><path d="m297.6 172.6c0 8-6.5 14.4-14.4 14.4-8 0-14.4-6.5-14.4-14.4s6.5-14.4 14.4-14.4 14.4 6.5 14.4 14.4" fill="#95006c" mask="url(#n)"/><path d="m272.4 235.5s1.2 4.4-1.6 9.3c6.9-2.3 7.9-9.3 7.9-9.3z" fill="#e8d2c9" mask="url(#o)"/></g><path d="m289 181.2-5.8-5.8-5.8 5.8c-.6.6-1.7.6-2.3 0-.6-.6-.6-1.7 0-2.3l5.8-5.8-5.8-5.8c-.6-.6-.6-1.7 0-2.3.6-.6 1.7-.6 2.3 0l5.8 5.8 5.8-5.8c.6-.6 1.7-.6 2.3 0 .6.6.6 1.7 0 2.3l-5.8 5.8 5.8 5.8c.6.6.6 1.7 0 2.3-.6.7-1.7.7-2.3 0z" fill="#fa4244"/><path d="m332.3 205.7-2.1-2.1-2.1 2.1c-.2.2-.6.2-.9 0-.2-.2-.2-.6 0-.9l2.1-2.1-2.1-2.1c-.2-.2-.2-.6 0-.9.2-.2.6-.2.9 0l2.1 2.1 2.1-2.1c.2-.2.6-.2.9 0 .2.2.2.6 0 .9l-2.1 2.1 2.1 2.1c.2.2.2.6 0 .9-.3.3-.7.3-.9 0z" fill="#fa4244"/><path d="m377.1 124.4c-.1-4 2.1-6.2 6.2-6.2 3.9 0 6.1 2.2 6.2 6.2.1 3.9-2.1 6.1-6.2 6.1-3.9 0-6.1-2.2-6.2-6.1zm10.1-67.8-.4 30.9-1.2 19.9h-5l-1.2-19.9-.4-30.9z" fill="#ffe4e4"/></svg>