<?xml version="1.0" encoding="utf-8"?>
<!-- Generator: Adobe Illustrator 25.1.0, SVG Export Plug-In . SVG Version: 6.00 Build 0)  -->
<svg version="1.1" id="Calque_1" xmlns="http://www.w3.org/2000/svg" xmlns:xlink="http://www.w3.org/1999/xlink" x="0px" y="0px"
	 width="110px" height="110px" viewBox="0 0 110 110" style="enable-background:new 0 0 110 110;" xml:space="preserve">
<style type="text/css">
	.st0{fill:#E44E28;}
	.st1{fill:#EC662B;}
	.st2{fill:#EBEBEB;}
	.st3{fill:#FFFFFF;}
</style>
<polygon id="polygon3028" class="st0" points="103.2,0 94.4,99 54.7,110 15.1,99 6.3,0 "/>
<polygon id="polygon3030" class="st1" points="54.7,101.6 86.8,92.7 94.3,8.1 54.7,8.1 "/>
<polygon id="polygon3032" class="st2" points="37.5,32.4 54.7,32.4 54.7,20.3 54.7,20.3 24.3,20.3 24.6,23.5 27.6,57 54.7,57 
	54.7,44.8 38.7,44.8 "/>
<polygon id="polygon3034" class="st2" points="40.3,63 33.7,63 28.1,63 29.8,82.1 54.7,89 54.7,89 54.7,76.3 54.7,76.3 41.2,72.7 
	"/>
<polygon id="polygon3044" class="st3" points="54.7,57 69.6,57 68.2,72.7 54.7,76.3 54.7,89 79.5,82.1 79.8,80 82.6,48.1 82.9,44.8 
	79.6,44.8 54.7,44.8 "/>
<polygon id="polygon3046" class="st3" points="54.7,32.4 54.7,32.4 83.9,32.4 83.9,32.4 84,32.4 84.2,29.7 84.8,23.5 85.1,20.3 
	54.7,20.3 54.7,27.8 "/>
</svg>
