<?xml version="1.0" encoding="utf-8"?>
<!-- Generator: Adobe Illustrator 25.1.0, SVG Export Plug-In . SVG Version: 6.00 Build 0)  -->
<svg version="1.1" id="Calque_1" xmlns="http://www.w3.org/2000/svg" xmlns:xlink="http://www.w3.org/1999/xlink" x="0px" y="0px"
	 width="110px" height="110px" viewBox="0 0 110 110" style="enable-background:new 0 0 110 110;" xml:space="preserve">
<style type="text/css">
	.st0{fill:#8CC84B;}
</style>
<g>
	<path class="st0" d="M50.3,1.3c2.7-1.6,6.3-1.6,9,0C73,9,86.7,16.7,100.4,24.5c2.6,1.4,4.3,4.3,4.3,7.3v46.5c0,3.1-1.9,6-4.6,7.4
		c-13.6,7.7-27.3,15.4-40.9,23.1c-2.8,1.6-6.4,1.5-9.1-0.3c-4.1-2.4-8.2-4.7-12.3-7.1c-0.8-0.5-1.8-0.9-2.4-1.7
		c0.5-0.7,1.5-0.8,2.2-1.1c1.7-0.5,3.3-1.4,4.8-2.3c0.4-0.3,0.9-0.2,1.3,0.1c3.5,2,7,4.1,10.5,6.1c0.7,0.4,1.5-0.1,2.1-0.5
		c13.4-7.6,26.8-15.1,40.2-22.7c0.5-0.2,0.8-0.8,0.7-1.3c0-15.3,0-30.7,0-46c0.1-0.6-0.3-1.2-0.9-1.4c-13.6-7.7-27.2-15.3-40.8-23
		c-0.5-0.3-1.1-0.3-1.6,0c-13.6,7.7-27.2,15.3-40.8,23c-0.6,0.3-0.9,0.8-0.9,1.4c0,15.3,0,30.7,0,46c0,0.5,0.2,1.1,0.7,1.3
		c3.6,2.1,7.3,4.1,10.9,6.1c2,1.1,4.6,1.8,6.8,0.9c2-0.7,3.4-2.7,3.3-4.9c0-15.3,0-30.5,0-45.8c0-0.7,0.6-1.2,1.3-1.2
		c1.7,0,3.5,0,5.2,0c0.7,0,1.2,0.7,1.1,1.4c0,15.4,0,30.7,0,46.1c0,4.1-1.7,8.5-5.5,10.5c-4.7,2.4-10.4,1.9-15-0.4
		c-4-2-7.8-4.3-11.7-6.5C6.9,84.3,5,81.4,5,78.3V31.7c0-3,1.8-5.9,4.4-7.4C23.1,16.7,36.7,9,50.3,1.3z"/>
	<path class="st0" d="M62.2,33.5c5.9-0.4,12.3-0.2,17.7,2.7c4.1,2.2,6.4,7,6.5,11.6c-0.1,0.6-0.8,1-1.4,0.9c-1.7,0-3.5,0-5.2,0
		c-0.7,0-1.2-0.6-1.2-1.3c-0.5-2.2-1.7-4.4-3.8-5.4c-3.2-1.6-6.9-1.5-10.3-1.5c-2.5,0.1-5.3,0.4-7.4,1.8c-1.6,1.1-2.1,3.4-1.6,5.2
		c0.6,1.3,2.1,1.7,3.3,2.1c7.2,1.9,14.8,1.7,21.8,4.2c2.9,1,5.8,3,6.8,6c1.3,4.1,0.7,9-2.2,12.2c-2.4,2.7-5.8,4.2-9.2,5
		c-4.6,1-9.3,1-13.9,0.6c-4.3-0.5-8.9-1.6-12.2-4.6c-2.9-2.5-4.3-6.4-4.1-10.1c0-0.6,0.7-1.1,1.3-1c1.7,0,3.5,0,5.2,0
		c0.7,0,1.2,0.6,1.2,1.2c0.3,2.1,1.1,4.3,2.9,5.5c3.5,2.3,8,2.1,12,2.2c3.4-0.1,7.1-0.2,9.8-2.4c1.4-1.3,1.9-3.4,1.5-5.2
		c-0.4-1.5-2-2.2-3.4-2.7c-7.1-2.2-14.8-1.4-21.8-4c-2.8-1-5.6-2.9-6.7-5.8c-1.5-4.1-0.8-9.3,2.4-12.4
		C53.4,35.2,57.9,33.9,62.2,33.5L62.2,33.5z"/>
</g>
</svg>
