<svg version="1.1" id="Layer_1" xmlns="http://www.w3.org/2000/svg" xmlns:xlink="http://www.w3.org/1999/xlink" x="0px" y="0px"
	 width="100%" viewBox="0 0 450 158" enable-background="new 0 0 450 158" xml:space="preserve">
<path fill="#000000" opacity="0" stroke="none"
	d="
M1.000000,83.000000
	C1.000000,55.699017 1.000000,28.398031 1.000000,1.000000
	C96.687538,1.000000 192.375107,1.000000 288.632202,1.378966
	C286.528473,2.866308 283.845978,3.953132 281.183380,5.086577
	C264.798401,12.061533 252.434540,22.948326 249.047470,41.156319
	C247.158768,51.309509 246.597015,61.761967 246.166428,72.109909
	C245.976105,76.683693 244.824265,79.597839 240.950134,82.193619
	C237.191376,84.712074 233.909729,88.096336 230.872009,91.504555
	C224.941544,98.158340 219.758057,105.524315 213.478668,111.809532
	C204.650162,120.646240 190.980576,125.120934 180.394302,118.211288
	C173.442856,113.674088 167.206940,102.416344 168.842773,94.999435
	C175.386581,94.999435 182.049301,95.360298 188.659210,94.922791
	C201.608719,94.065681 213.603943,90.698433 222.873398,80.676231
	C230.880890,72.018517 229.480194,58.221478 219.526154,51.889160
	C210.916580,46.412144 201.597977,47.256783 192.398163,49.895561
	C174.880539,54.920135 161.268127,65.237404 151.527527,80.714195
	C150.826080,81.828690 148.565109,82.856697 147.320496,82.585953
	C140.342636,81.068062 133.825165,81.872925 127.817085,85.702278
	C126.663239,86.437706 126.067612,88.048943 125.214455,89.256142
	C126.465324,89.835350 127.677048,90.795006 128.973785,90.928444
	C134.855850,91.533760 140.761902,91.906036 146.966568,92.385948
	C146.845917,94.017174 146.876846,95.328506 146.635269,96.587555
	C144.938110,105.432556 147.206055,113.533752 152.822495,120.123177
	C164.050232,133.296005 179.473709,135.679001 195.398224,133.580887
	C211.579315,131.448990 223.751007,121.928215 233.554932,109.116631
	C236.980881,104.639671 241.070786,100.670784 245.570435,95.678917
	C246.422836,115.165886 247.184570,133.184631 248.028397,151.199524
	C248.150620,153.809128 248.666367,156.400299 249.000000,159.000000
	C166.449768,159.000000 83.899529,159.000000 1.000000,159.000000
	C1.000000,138.313751 1.000000,117.625534 1.334884,96.299622
	C2.327999,96.159767 3.059029,96.585815 3.632424,97.167305
	C6.902580,100.483589 10.480011,101.909332 15.193555,100.110207
	C19.986032,98.280952 20.883730,94.394989 21.889816,89.550232
	C18.674282,89.550232 15.960935,89.550232 13.247587,89.550232
	C13.129805,89.997093 13.012021,90.443954 12.894238,90.890816
	C14.546326,91.524635 16.198414,92.158463 18.163925,92.912529
	C17.162243,94.077171 16.468897,94.982857 15.674538,95.789001
	C12.829485,98.676315 9.638139,98.322388 6.809195,96.085663
	C3.400554,93.390602 3.055706,88.265442 5.643440,84.931557
	C7.930088,81.985573 12.401166,81.173698 15.438529,82.902328
	C16.588533,83.556824 18.084082,83.604156 19.422127,83.928246
	C18.555481,82.598984 17.913683,81.000763 16.749451,80.027466
	C15.854280,79.279106 14.162280,78.801758 13.066020,79.097801
	C8.990002,80.198524 5.013725,81.668594 1.000000,83.000000
M49.210407,100.959770
	C49.981331,100.692284 50.738152,100.370377 51.525520,100.166351
	C55.823772,99.052582 58.197872,96.137306 58.952896,91.925743
	C59.881031,86.748558 57.812035,82.180977 53.264091,80.455704
	C49.926594,79.189621 45.214176,79.500359 41.838772,80.880135
	C37.218884,82.768616 35.866467,87.946373 37.161831,93.034935
	C38.258423,97.342674 42.440250,100.301659 49.210407,100.959770
M28.109909,79.031136
	C26.523121,79.118759 24.936331,79.206390 23.264938,79.298683
	C23.264938,86.361557 23.264938,92.952995 23.264938,99.639633
	C29.578720,100.626289 25.595369,95.144684 27.621450,93.430824
	C30.786690,94.909767 30.954887,100.955833 36.596539,99.576210
	C34.693607,96.723373 32.984383,94.160934 31.275158,91.598488
	C31.792166,91.659203 32.309174,91.719917 32.826183,91.780624
	C33.541183,89.187309 35.291332,86.302437 34.667149,84.086311
	C34.093788,82.050606 30.962599,80.735336 28.109909,79.031136
M66.926231,100.925293
	C69.756279,99.579025 74.690689,98.623352 75.026512,96.814133
	C76.084389,91.114754 75.416374,85.095032 75.416374,79.199295
	C74.916649,79.127647 74.416916,79.056007 73.917191,78.984367
	C73.615128,80.030128 73.090050,81.067924 73.052330,82.123146
	C72.933769,85.439514 73.554169,88.896568 72.796539,92.035606
	C72.292702,94.123108 70.145218,96.987656 68.335548,97.316788
	C65.473587,97.837318 63.915031,95.288773 63.984943,92.144196
	C64.079605,87.886368 64.008484,83.624863 64.008484,79.364929
	C63.455997,79.141533 62.903511,78.918144 62.351028,78.694748
	C61.574265,79.916992 60.106216,81.156075 60.135498,82.358704
	C60.297756,89.023056 58.095394,96.597374 66.926231,100.925293
M96.263649,96.120277
	C96.263649,94.202728 96.263649,92.285179 96.263649,90.436165
	C99.172020,90.029831 101.574142,89.694221 103.976273,89.358612
	C103.976173,88.777428 103.976082,88.196243 103.975990,87.615059
	C101.415718,87.251404 98.855453,86.887741 96.082237,86.493828
	C96.165100,84.977364 96.233643,83.722916 96.297249,82.558868
	C99.451607,82.019501 102.249931,81.541008 105.048256,81.062515
	C104.917068,80.492767 104.785881,79.923012 104.654701,79.353264
	C100.937920,79.353264 97.221146,79.353264 93.312836,79.353264
	C93.312836,86.280327 93.312836,92.852158 93.312836,99.576843
	C97.275291,99.576843 100.925766,99.576843 104.576241,99.576843
	C104.661392,99.030640 104.746536,98.484436 104.831688,97.938240
	C102.184341,97.536934 99.536995,97.135628 96.263649,96.120277
M82.178398,93.047592
	C83.929184,92.302460 86.060776,91.949409 87.334122,90.712692
	C88.917015,89.175339 90.803856,86.840256 90.679733,84.974770
	C90.560455,83.182213 88.344429,80.964989 86.494263,80.005615
	C84.524559,78.984261 81.903023,79.219994 79.647644,78.917786
	C79.647644,86.376724 79.647644,93.080261 79.647644,99.783791
	C80.199768,99.864464 80.751892,99.945145 81.304016,100.025818
	C81.552536,97.979279 81.801048,95.932739 82.178398,93.047592
z"/>
<path fill="#000000" opacity="0" stroke="none"
	d="
M451.000000,76.000008
	C451.000000,103.621773 451.000000,131.243546 451.000000,159.000000
	C388.979156,159.000000 326.958252,159.000000 264.338623,158.646545
	C265.636841,155.675720 270.325958,155.748917 270.067230,150.915161
	C269.491150,140.151718 269.161804,129.369339 269.005737,118.590691
	C268.833191,106.673218 268.966309,94.751320 268.966309,81.907043
	C274.871796,80.479553 281.608063,78.851242 288.824585,77.106834
	C287.786926,87.992035 287.066132,97.964859 285.825623,107.872620
	C284.637115,117.365494 286.447052,126.369209 288.675110,135.497818
	C290.114899,141.396835 293.907806,141.568939 298.375214,140.883240
	C300.782013,140.513809 303.245544,139.785721 305.398499,138.669693
	C308.291809,137.169876 309.107697,135.170654 308.008392,131.383682
	C305.740417,123.570717 303.230652,115.380470 303.425201,107.409012
	C303.691620,96.495819 306.331207,85.633820 308.056976,74.766289
	C308.747925,70.415222 312.040619,65.940582 307.376465,61.954464
	C302.949554,58.171124 298.226868,60.652473 293.706207,61.694950
	C285.294373,63.634762 276.949127,65.863335 268.001038,68.116508
	C268.001038,61.858940 267.736145,56.205193 268.052643,50.584183
	C268.871674,36.038349 273.794891,23.248051 285.107880,13.525444
	C286.491608,12.336247 289.212646,10.849523 290.167419,11.419878
	C291.890656,12.449310 293.478546,14.814816 293.794464,16.830547
	C294.268951,19.857792 293.357727,23.076618 293.514160,26.189938
	C293.594513,27.789183 294.541077,30.591789 295.386566,30.706280
	C301.544586,31.540167 308.311218,31.609720 312.776367,27.145649
	C316.618408,23.304506 317.189423,17.145329 315.210266,11.805082
	C313.786621,7.963816 311.114929,4.585077 309.000000,1.000005
	C356.229584,1.000000 403.459167,1.000000 451.000000,1.000000
	C451.000000,20.019762 451.000000,39.041222 450.667542,58.720745
	C446.408936,52.897480 441.739105,47.270676 433.611938,45.079559
	C429.813873,44.384651 426.407898,43.776119 422.555237,43.104744
	C417.407867,43.749939 412.707184,44.457981 407.617554,45.107796
	C401.803040,47.664051 396.377472,50.278530 390.706482,52.950867
	C390.299683,53.055553 390.138245,53.102386 389.721802,53.156044
	C389.266663,53.428360 389.066559,53.693848 388.556091,54.129913
	C385.830780,54.588966 383.415863,54.877438 380.654907,54.979828
	C376.898834,54.186760 373.488831,53.579773 369.807709,52.667637
	C362.853790,53.442398 356.171021,54.522308 349.475800,55.604229
	C348.553497,49.871231 347.398590,48.874851 340.648834,50.133831
	C337.954254,50.636429 335.363129,51.926231 332.871368,53.154770
	C332.026886,53.571136 331.229248,54.846722 331.098572,55.821903
	C330.289917,61.856541 329.441254,67.902206 329.048981,73.972855
	C328.218079,86.831360 328.353638,99.793503 326.772766,112.549545
	C325.469360,123.066994 321.853973,133.101959 312.163940,139.482544
	C311.031036,140.228500 310.270508,141.540009 308.838989,143.149780
	C310.710876,143.552170 311.764618,143.948029 312.829865,143.981842
	C325.213684,144.374588 333.122559,137.533844 338.763367,127.464554
	C345.502136,115.435455 345.837799,101.902931 346.881775,88.687675
	C348.045197,73.961082 356.922974,65.502289 371.297607,66.981781
	C372.908295,68.052567 375.483795,68.187790 373.653564,71.094910
	C367.760712,80.949341 365.451233,91.294510 365.914703,102.492477
	C366.390259,113.982605 376.178925,129.861786 390.414459,132.926208
	C397.030060,134.900528 403.098236,134.315414 409.456055,132.008057
	C416.567902,129.032501 423.296844,126.071609 430.386444,123.045181
	C434.306763,121.273407 438.083466,119.895142 441.344238,117.737206
	C443.282196,116.454689 446.058319,113.138046 445.573334,112.145714
	C444.366943,109.677536 441.813660,107.071754 439.245087,106.241341
	C434.756378,104.790161 430.646942,107.195312 426.603088,109.933014
	C419.470581,112.966019 412.698181,115.933128 405.498901,118.934525
	C393.829407,120.234856 385.953552,110.382309 384.907379,100.542542
	C384.105164,92.997391 385.981110,86.042191 388.408081,78.845596
	C389.533386,78.331306 390.471252,77.591507 391.193939,77.762299
	C393.383514,78.279747 395.489716,79.149925 397.825867,80.146194
	C403.683136,82.550789 409.342987,84.691872 415.416565,86.924599
	C420.555023,87.288269 425.279724,87.560295 430.388458,87.870796
	C435.194946,85.971680 439.617401,84.034081 444.351318,81.935623
	C446.775177,79.849846 448.887604,77.924927 451.000000,76.000008
M293.754486,54.966431
	C299.357056,53.296833 305.097229,51.977398 310.518799,49.847137
	C314.875702,48.135197 313.018372,43.769611 312.625336,40.678795
	C312.484680,39.572685 308.876312,37.863926 307.193542,38.191490
	C301.960022,39.210247 296.855927,40.967133 291.768555,42.641098
	C287.441406,44.064930 288.956726,47.926785 289.215851,50.732830
	C289.352692,52.214554 291.603180,53.501095 293.754486,54.966431
z"/>
<path fill="#FFFFFF" opacity="1.000000" stroke="none"
	d="
M308.531586,1.000005
	C311.114929,4.585077 313.786621,7.963816 315.210266,11.805082
	C317.189423,17.145329 316.618408,23.304506 312.776367,27.145649
	C308.311218,31.609720 301.544586,31.540167 295.386566,30.706280
	C294.541077,30.591789 293.594513,27.789183 293.514160,26.189938
	C293.357727,23.076618 294.268951,19.857792 293.794464,16.830547
	C293.478546,14.814816 291.890656,12.449310 290.167419,11.419878
	C289.212646,10.849523 286.491608,12.336247 285.107880,13.525444
	C273.794891,23.248051 268.871674,36.038349 268.052643,50.584183
	C267.736145,56.205193 268.001038,61.858940 268.001038,68.116508
	C276.949127,65.863335 285.294373,63.634762 293.706207,61.694950
	C298.226868,60.652473 302.949554,58.171124 307.376465,61.954464
	C312.040619,65.940582 308.747925,70.415222 308.056976,74.766289
	C306.331207,85.633820 303.691620,96.495819 303.425201,107.409012
	C303.230652,115.380470 305.740417,123.570717 308.008392,131.383682
	C309.107697,135.170654 308.291809,137.169876 305.398499,138.669693
	C303.245544,139.785721 300.782013,140.513809 298.375214,140.883240
	C293.907806,141.568939 290.114899,141.396835 288.675110,135.497818
	C286.447052,126.369209 284.637115,117.365494 285.825623,107.872620
	C287.066132,97.964859 287.786926,87.992035 288.824585,77.106834
	C281.608063,78.851242 274.871796,80.479553 268.966309,81.907043
	C268.966309,94.751320 268.833191,106.673218 269.005737,118.590691
	C269.161804,129.369339 269.491150,140.151718 270.067230,150.915161
	C270.325958,155.748917 265.636841,155.675720 263.869965,158.646545
	C259.310730,159.000000 254.621490,159.000000 249.466125,159.000000
	C248.666367,156.400299 248.150620,153.809128 248.028397,151.199524
	C247.184570,133.184631 246.422836,115.165886 245.570435,95.678917
	C241.070786,100.670784 236.980881,104.639671 233.554932,109.116631
	C223.751007,121.928215 211.579315,131.448990 195.398224,133.580887
	C179.473709,135.679001 164.050232,133.296005 152.822495,120.123177
	C147.206055,113.533752 144.938110,105.432556 146.635269,96.587555
	C146.876846,95.328506 146.845917,94.017174 146.966568,92.385948
	C140.761902,91.906036 134.855850,91.533760 128.973785,90.928444
	C127.677048,90.795006 126.465324,89.835350 125.214455,89.256142
	C126.067612,88.048943 126.663239,86.437706 127.817085,85.702278
	C133.825165,81.872925 140.342636,81.068062 147.320496,82.585953
	C148.565109,82.856697 150.826080,81.828690 151.527527,80.714195
	C161.268127,65.237404 174.880539,54.920135 192.398163,49.895561
	C201.597977,47.256783 210.916580,46.412144 219.526154,51.889160
	C229.480194,58.221478 230.880890,72.018517 222.873398,80.676231
	C213.603943,90.698433 201.608719,94.065681 188.659210,94.922791
	C182.049301,95.360298 175.386581,94.999435 168.842773,94.999435
	C167.206940,102.416344 173.442856,113.674088 180.394302,118.211288
	C190.980576,125.120934 204.650162,120.646240 213.478668,111.809532
	C219.758057,105.524315 224.941544,98.158340 230.872009,91.504555
	C233.909729,88.096336 237.191376,84.712074 240.950134,82.193619
	C244.824265,79.597839 245.976105,76.683693 246.166428,72.109909
	C246.597015,61.761967 247.158768,51.309509 249.047470,41.156319
	C252.434540,22.948326 264.798401,12.061533 281.183380,5.086577
	C283.845978,3.953132 286.528473,2.866308 289.100891,1.378966
	C295.354401,1.000000 301.708801,1.000000 308.531586,1.000005
M175.847168,83.998222
	C184.813553,84.140831 193.487625,83.003769 201.763519,79.150749
	C206.104294,77.129799 207.665756,74.208664 206.392212,69.773338
	C204.654877,63.722668 200.961655,60.628113 195.929688,62.099258
	C191.645279,63.351845 187.351089,65.484383 183.829407,68.217453
	C178.610214,72.267899 173.512695,76.756088 170.993347,83.716766
	C172.695053,83.836777 173.829773,83.916801 175.847168,83.998222
z"/>
<path fill="#FFFFFF" opacity="1.000000" stroke="none"
	d="
M434.004028,45.165939
	C441.739105,47.270676 446.408936,52.897480 450.667542,59.189404
	C451.000000,64.354927 451.000000,69.709862 451.000000,75.532402
	C448.887604,77.924927 446.775177,79.849846 444.193542,81.600571
	C440.484222,69.339569 437.244110,57.252758 434.004028,45.165939
z"/>
<path fill="#FFFFFF" opacity="1.000000" stroke="none"
	d="
M1.000000,83.463181
	C5.013725,81.668594 8.990002,80.198524 13.066020,79.097801
	C14.162280,78.801758 15.854280,79.279106 16.749451,80.027466
	C17.913683,81.000763 18.555481,82.598984 19.422127,83.928246
	C18.084082,83.604156 16.588533,83.556824 15.438529,82.902328
	C12.401166,81.173698 7.930088,81.985573 5.643440,84.931557
	C3.055706,88.265442 3.400554,93.390602 6.809195,96.085663
	C9.638139,98.322388 12.829485,98.676315 15.674538,95.789001
	C16.468897,94.982857 17.162243,94.077171 18.163925,92.912529
	C16.198414,92.158463 14.546326,91.524635 12.894238,90.890816
	C13.012021,90.443954 13.129805,89.997093 13.247587,89.550232
	C15.960935,89.550232 18.674282,89.550232 21.889816,89.550232
	C20.883730,94.394989 19.986032,98.280952 15.193555,100.110207
	C10.480011,101.909332 6.902580,100.483589 3.632424,97.167305
	C3.059029,96.585815 2.327999,96.159767 1.334884,95.830963
	C1.000000,91.975456 1.000000,87.950912 1.000000,83.463181
z"/>
<path fill="#FFFFFF" opacity="1.000000" stroke="none"
	d="
M48.804726,100.972977
	C42.440250,100.301659 38.258423,97.342674 37.161831,93.034935
	C35.866467,87.946373 37.218884,82.768616 41.838772,80.880135
	C45.214176,79.500359 49.926594,79.189621 53.264091,80.455704
	C57.812035,82.180977 59.881031,86.748558 58.952896,91.925743
	C58.197872,96.137306 55.823772,99.052582 51.525520,100.166351
	C50.738152,100.370377 49.981331,100.692284 48.804726,100.972977
M45.254673,82.355095
	C41.557953,84.038231 39.346073,86.808998 40.175480,90.945328
	C40.947803,94.796974 43.762955,98.099037 47.498337,97.633423
	C50.323311,97.281288 53.743755,94.582672 55.212608,91.977432
	C58.150520,86.766571 53.422363,81.976166 45.254673,82.355095
z"/>
<path fill="#FFFFFF" opacity="1.000000" stroke="none"
	d="
M28.534107,79.066895
	C30.962599,80.735336 34.093788,82.050606 34.667149,84.086311
	C35.291332,86.302437 33.541183,89.187309 32.826183,91.780624
	C32.309174,91.719917 31.792166,91.659203 31.275158,91.598488
	C32.984383,94.160934 34.693607,96.723373 36.596539,99.576210
	C30.954887,100.955833 30.786690,94.909767 27.621450,93.430824
	C25.595369,95.144684 29.578720,100.626289 23.264938,99.639633
	C23.264938,92.952995 23.264938,86.361557 23.264938,79.298683
	C24.936331,79.206390 26.523121,79.118759 28.534107,79.066895
M27.013460,84.707825
	C27.152838,86.083389 27.292217,87.458946 27.586275,90.361084
	C29.689075,88.302940 31.387566,87.358322 31.750591,86.044655
	C32.013058,85.094887 30.624725,83.539314 29.676968,82.532082
	C29.489462,82.332825 27.954865,83.401123 27.013460,84.707825
z"/>
<path fill="#FFFFFF" opacity="1.000000" stroke="none"
	d="
M66.555359,100.796402
	C58.095394,96.597374 60.297756,89.023056 60.135498,82.358704
	C60.106216,81.156075 61.574265,79.916992 62.351028,78.694748
	C62.903511,78.918144 63.455997,79.141533 64.008484,79.364929
	C64.008484,83.624863 64.079605,87.886368 63.984943,92.144196
	C63.915031,95.288773 65.473587,97.837318 68.335548,97.316788
	C70.145218,96.987656 72.292702,94.123108 72.796539,92.035606
	C73.554169,88.896568 72.933769,85.439514 73.052330,82.123146
	C73.090050,81.067924 73.615128,80.030128 73.917191,78.984367
	C74.416916,79.056007 74.916649,79.127647 75.416374,79.199295
	C75.416374,85.095032 76.084389,91.114754 75.026512,96.814133
	C74.690689,98.623352 69.756279,99.579025 66.555359,100.796402
z"/>
<path fill="#FFFFFF" opacity="1.000000" stroke="none"
	d="
M96.576645,96.427299
	C99.536995,97.135628 102.184341,97.536934 104.831688,97.938240
	C104.746536,98.484436 104.661392,99.030640 104.576241,99.576843
	C100.925766,99.576843 97.275291,99.576843 93.312836,99.576843
	C93.312836,92.852158 93.312836,86.280327 93.312836,79.353264
	C97.221146,79.353264 100.937920,79.353264 104.654701,79.353264
	C104.785881,79.923012 104.917068,80.492767 105.048256,81.062515
	C102.249931,81.541008 99.451607,82.019501 96.297249,82.558868
	C96.233643,83.722916 96.165100,84.977364 96.082237,86.493828
	C98.855453,86.887741 101.415718,87.251404 103.975990,87.615059
	C103.976082,88.196243 103.976173,88.777428 103.976273,89.358612
	C101.574142,89.694221 99.172020,90.029831 96.263649,90.436165
	C96.263649,92.285179 96.263649,94.202728 96.576645,96.427299
z"/>
<path fill="#FFFFFF" opacity="1.000000" stroke="none"
	d="
M82.113983,93.466896
	C81.801048,95.932739 81.552536,97.979279 81.304016,100.025818
	C80.751892,99.945145 80.199768,99.864464 79.647644,99.783791
	C79.647644,93.080261 79.647644,86.376724 79.647644,78.917786
	C81.903023,79.219994 84.524559,78.984261 86.494263,80.005615
	C88.344429,80.964989 90.560455,83.182213 90.679733,84.974770
	C90.803856,86.840256 88.917015,89.175339 87.334122,90.712692
	C86.060776,91.949409 83.929184,92.302460 82.113983,93.466896
M82.142181,87.906708
	C83.734955,87.619865 85.438133,87.572891 86.861427,86.917816
	C87.368759,86.684311 87.673477,84.405182 87.246414,84.049477
	C85.991920,83.004662 84.323708,82.456589 82.040314,81.330818
	C82.040314,84.173431 82.040314,85.633751 82.142181,87.906708
z"/>
<path fill="#FFFFFF" opacity="1.000000" stroke="none"
	d="
M371.005127,66.832726
	C356.922974,65.502289 348.045197,73.961082 346.881775,88.687675
	C345.837799,101.902931 345.502136,115.435455 338.763367,127.464554
	C333.122559,137.533844 325.213684,144.374588 312.829865,143.981842
	C311.764618,143.948029 310.710876,143.552170 308.838989,143.149780
	C310.270508,141.540009 311.031036,140.228500 312.163940,139.482544
	C321.853973,133.101959 325.469360,123.066994 326.772766,112.549545
	C328.353638,99.793503 328.218079,86.831360 329.048981,73.972855
	C329.441254,67.902206 330.289917,61.856541 331.098572,55.821903
	C331.229248,54.846722 332.026886,53.571136 332.871368,53.154770
	C335.363129,51.926231 337.954254,50.636429 340.648834,50.133831
	C347.398590,48.874851 348.553497,49.871231 349.475800,55.604229
	C356.171021,54.522308 362.853790,53.442398 369.703705,52.990669
	C370.248932,58.023472 370.627045,62.428097 371.005127,66.832726
z"/>
<path fill="#FFFFFF" opacity="1.000000" stroke="none"
	d="
M390.001648,132.833908
	C376.178925,129.861786 366.390259,113.982605 365.914703,102.492477
	C365.451233,91.294510 367.760712,80.949341 373.813354,71.430069
	C376.462830,79.058777 378.900269,86.490494 380.804565,94.056404
	C384.046783,106.937805 386.953796,119.903580 390.001648,132.833908
z"/>
<path fill="#FFFFFF" opacity="1.000000" stroke="none"
	d="
M390.414459,132.926208
	C386.953796,119.903580 384.046783,106.937805 380.804565,94.056404
	C378.900269,86.490494 376.462830,79.058777 374.105408,71.231537
	C375.483795,68.187790 372.908295,68.052567 371.297607,66.981781
	C370.627045,62.428097 370.248932,58.023472 369.974823,53.295815
	C373.488831,53.579773 376.898834,54.186760 380.673950,55.385254
	C383.400116,63.663322 385.761169,71.349876 388.122223,79.036438
	C385.981110,86.042191 384.105164,92.997391 384.907379,100.542542
	C385.953552,110.382309 393.829407,120.234856 405.528870,119.352341
	C407.014893,123.831490 408.044006,127.927109 409.073181,132.022720
	C403.098236,134.315414 397.030060,134.900528 390.414459,132.926208
z"/>
<path fill="#FFFFFF" opacity="1.000000" stroke="none"
	d="
M390.951874,52.893013
	C396.377472,50.278530 401.803040,47.664051 407.711365,45.470581
	C409.129913,49.872322 410.065765,53.853046 410.678040,58.005196
	C407.004639,59.843605 403.654816,61.510586 399.516632,63.569866
	C404.318695,66.106979 408.160156,68.136566 412.020447,70.567612
	C413.027161,76.257027 414.014984,81.544991 415.002838,86.832954
	C409.342987,84.691872 403.683136,82.550789 397.795746,79.707993
	C395.362762,70.301857 393.157318,61.597431 390.951874,52.893013
z"/>
<path fill="#FFFFFF" opacity="1.000000" stroke="none"
	d="
M433.611938,45.079559
	C437.244110,57.252758 440.484222,69.339569 443.882080,81.761444
	C439.617401,84.034081 435.194946,85.971680 430.378815,87.458130
	C429.325165,82.393433 428.665192,77.779877 428.314880,73.010765
	C434.859406,69.027222 435.114136,65.497726 429.393372,60.950836
	C428.027802,59.865486 426.443542,59.055305 424.956543,57.685055
	C424.302765,52.556896 423.652344,47.862244 423.001923,43.167587
	C426.407898,43.776119 429.813873,44.384651 433.611938,45.079559
z"/>
<path fill="#FFFFFF" opacity="1.000000" stroke="none"
	d="
M409.456055,132.008057
	C408.044006,127.927109 407.014893,123.831490 405.955780,119.318054
	C412.698181,115.933128 419.470581,112.966019 426.664886,110.330582
	C428.066498,114.811737 429.046143,118.961227 430.025818,123.110718
	C423.296844,126.071609 416.567902,129.032501 409.456055,132.008057
z"/>
<path fill="#FFFFFF" opacity="1.000000" stroke="none"
	d="
M293.326935,54.921093
	C291.603180,53.501095 289.352692,52.214554 289.215851,50.732830
	C288.956726,47.926785 287.441406,44.064930 291.768555,42.641098
	C296.855927,40.967133 301.960022,39.210247 307.193542,38.191490
	C308.876312,37.863926 312.484680,39.572685 312.625336,40.678795
	C313.018372,43.769611 314.875702,48.135197 310.518799,49.847137
	C305.097229,51.977398 299.357056,53.296833 293.326935,54.921093
z"/>
<path fill="#FFFFFF" opacity="1.000000" stroke="none"
	d="
M390.706482,52.950863
	C393.157318,61.597431 395.362762,70.301857 397.598328,79.444473
	C395.489716,79.149925 393.383514,78.279747 391.193939,77.762299
	C390.471252,77.591507 389.533386,78.331306 388.408081,78.845596
	C385.761169,71.349876 383.400116,63.663322 381.020020,55.571335
	C383.415863,54.877438 385.830780,54.588966 388.743835,53.998947
	C389.492218,53.521759 389.737183,53.339031 389.976837,53.149216
	C390.138245,53.102386 390.299683,53.055553 390.706482,52.950863
z"/>
<path fill="#FFFFFF" opacity="1.000000" stroke="none"
	d="
M428.005188,73.166321
	C428.665192,77.779877 429.325165,82.393433 429.994781,87.419655
	C425.279724,87.560295 420.555023,87.288269 415.416565,86.924599
	C414.014984,81.544991 413.027161,76.257027 412.384094,70.650124
	C417.820953,71.276230 422.913086,72.221275 428.005188,73.166321
z"/>
<path fill="#FFFFFF" opacity="1.000000" stroke="none"
	d="
M430.386444,123.045181
	C429.046143,118.961227 428.066498,114.811737 427.025024,110.264687
	C430.646942,107.195312 434.756378,104.790161 439.245087,106.241341
	C441.813660,107.071754 444.366943,109.677536 445.573334,112.145714
	C446.058319,113.138046 443.282196,116.454689 441.344238,117.737206
	C438.083466,119.895142 434.306763,121.273407 430.386444,123.045181
z"/>
<path fill="#FFFFFF" opacity="1.000000" stroke="none"
	d="
M422.555237,43.104744
	C423.652344,47.862244 424.302765,52.556896 424.538025,57.640671
	C419.749146,57.964447 415.375366,57.899109 411.001617,57.833771
	C410.065765,53.853046 409.129913,49.872322 408.100281,45.528809
	C412.707184,44.457981 417.407867,43.749939 422.555237,43.104744
z"/>
<path fill="#FFFFFF" opacity="1.000000" stroke="none"
	d="
M389.721802,53.156044
	C389.737183,53.339031 389.492218,53.521759 389.054199,53.828369
	C389.066559,53.693848 389.266663,53.428360 389.721802,53.156044
z"/>
<path fill="#000000" opacity="0" stroke="none"
	d="
M175.405838,83.997528
	C173.829773,83.916801 172.695053,83.836777 170.993347,83.716766
	C173.512695,76.756088 178.610214,72.267899 183.829407,68.217453
	C187.351089,65.484383 191.645279,63.351845 195.929688,62.099258
	C200.961655,60.628113 204.654877,63.722668 206.392212,69.773338
	C207.665756,74.208664 206.104294,77.129799 201.763519,79.150749
	C193.487625,83.003769 184.813553,84.140831 175.405838,83.997528
z"/>
<path fill="#000000" opacity="0" stroke="none"
	d="
M45.637383,82.227127
	C53.422363,81.976166 58.150520,86.766571 55.212608,91.977432
	C53.743755,94.582672 50.323311,97.281288 47.498337,97.633423
	C43.762955,98.099037 40.947803,94.796974 40.175480,90.945328
	C39.346073,86.808998 41.557953,84.038231 45.637383,82.227127
z"/>
<path fill="#000000" opacity="0" stroke="none"
	d="
M27.027477,84.296341
	C27.954865,83.401123 29.489462,82.332825 29.676968,82.532082
	C30.624725,83.539314 32.013058,85.094887 31.750591,86.044655
	C31.387566,87.358322 29.689075,88.302940 27.586275,90.361084
	C27.292217,87.458946 27.152838,86.083389 27.027477,84.296341
z"/>
<path fill="#000000" opacity="0" stroke="none"
	d="
M82.091248,87.500381
	C82.040314,85.633751 82.040314,84.173431 82.040314,81.330818
	C84.323708,82.456589 85.991920,83.004662 87.246414,84.049477
	C87.673477,84.405182 87.368759,86.684311 86.861427,86.917816
	C85.438133,87.572891 83.734955,87.619865 82.091248,87.500381
z"/>
<path fill="#000000" opacity="0" stroke="none"
	d="
M410.678040,58.005196
	C415.375366,57.899109 419.749146,57.964447 424.541382,58.074173
	C426.443542,59.055305 428.027802,59.865486 429.393372,60.950836
	C435.114136,65.497726 434.859406,69.027222 428.314880,73.010765
	C422.913086,72.221275 417.820953,71.276230 412.365234,70.248672
	C408.160156,68.136566 404.318695,66.106979 399.516632,63.569866
	C403.654816,61.510586 407.004639,59.843605 410.678040,58.005196
z"/>
</svg>
