<?xml version="1.0" encoding="UTF-8"?><svg id="a" xmlns="http://www.w3.org/2000/svg" viewBox="0 0 1102.09 364.32"><defs><style>.b{fill:#ee4f38;}.c{fill:#fff;}.d{fill:#009eff;}.e{fill:#c6c6c6;}.f{fill:#28348a;}</style></defs><g><path class="f" d="M65.44,159.92c.52,.91,1.18,1.84,1.61,2.86,1.67,3.97,4.17,7.4,7.13,10.45,3.13,3.22,6.41,6.29,9.75,9.28,6.2,5.56,13.35,9.43,21.42,11.5,1.78,.46,3.68,.44,5.44,.92,4.1,1.12,8.25,.41,12.23-.14,3.59-.5,6.99-2.36,10.44-3.69,1.14-.44,2.2-1.11,3.3-1.68,4.55-2.37,8.61-5.42,12.64-8.6,9.12-7.21,15.7-16.34,21.08-26.48,2.01-3.78,2.92-7.81,3.49-12.03,.29-2.08,.02-4.64,2.19-6.17,.35-.24,.73-.6,1.11-.61,1.57-.07,3.14-.08,4.71-.02,1.86,.07,3.67,1.46,3.9,3.34,.27,2.22,.24,4.5,.2,6.74-.03,1.44-.22,2.9-.52,4.32-.29,1.37-.72,2.72-1.25,4.02-.87,2.15-1.67,4.37-2.87,6.34-2.27,3.73-3.87,7.86-6.71,11.24-.51,.6-.9,1.3-1.4,1.9-3.06,3.62-5.99,7.37-9.26,10.79-3.61,3.78-7.49,7.29-12.02,10.03-3.12,1.89-6.03,4.16-9.23,5.89-2.44,1.32-5.2,2.07-7.82,3.05-2.53,.95-5.05,1.91-7.6,2.79-.74,.26-1.6,.5-2.34,.37-1.92-.33-3.71,.13-5.43,.75-1.59,.58-3.19-.19-4.58,.18-1.7,.45-3.32,.35-4.95,.3-5.81-.17-11.33-1.77-16.67-3.96-6.03-2.47-11.33-5.94-15.82-10.78-4.41-4.76-8.27-9.81-11.48-15.47-2.11-3.72-2.95-7.7-3.75-11.75-.17-.85-.06-1.77,.03-2.65,.16-1.67,.95-2.81,3.02-3.02Z"/><path class="f" d="M132.78,133.44c-.85-1.33-1.54-2.67-1.17-4.32,.08-.38-.04-.84-.19-1.22-1.57-3.83-2.1-7.82-1.9-11.94,.08-1.66-.27-3.35-.12-4.99,.42-4.37,1.54-8.47,5.12-11.46,.89-.74,1.75-.85,2.82-.4,1,.42,2.07,.75,3.13,.94,2.07,.38,3.35,1.48,3.52,3.61,.13,1.76,.19,3.53,.12,5.29-.11,2.81-.69,5.62,.3,8.39,.14,.4,.16,.84,.22,1.26,.24,1.9,0,3.82,.66,5.72,.29,.82,.32,1.86-.29,2.91-.58,1-.54,2.4-.62,3.64-.13,2-.67,2.69-2.65,3.1-2.34,.48-4.66,.16-6.99-.1-.67-.07-1.32-.27-1.96-.41Z"/><path class="f" d="M95.16,116.96c.38,1.75,.72,3.5,1.14,5.23,1.05,4.34,2.13,8.67,3.19,13.01,.4,1.64-.98,4.01-2.57,4.6-.95,.35-1.89,.77-2.75,1.29-1.59,.95-2.97,.55-4.15-.63-1.43-1.43-2.43-3-3.03-5.09-1.42-4.87-1.97-9.79-2.13-14.8-.07-2.2-.28-4.41-.18-6.6,.07-1.57,.44-3.16,.88-4.68,.21-.75,.66-1.52,1.71-1.64,.73-.08,1.44-.4,2.13-.69,1.63-.7,3.28-.23,3.98,1.42,.62,1.45,1.02,3,1.38,4.54,.31,1.31,.45,2.66,.66,3.99l-.25,.06Z"/></g><g><path class="d" d="M400.08,85.16c-3.41,6.06-8.55,10.92-15.42,14.56-6.87,3.64-15.28,5.46-25.21,5.46h-16.81v41.24h-33.96V24.25h50.77c9.82,0,18.17,1.73,25.04,5.2,6.87,3.47,12.04,8.26,15.51,14.38,3.47,6.12,5.2,13.17,5.2,21.14,0,7.39-1.71,14.12-5.11,20.19Zm-29.55-20.19c0-8.89-4.79-13.34-14.38-13.34h-13.52v26.51h13.52c9.59,0,14.38-4.39,14.38-13.17Z"/><path class="d" d="M418.8,71.39c3.64-7.51,8.6-13.28,14.9-17.33,6.29-4.04,13.31-6.06,21.05-6.06,6.7,0,12.48,1.33,17.33,3.99,4.85,2.66,8.61,6.24,11.26,10.74v-13.52h33.96v97.21h-33.96v-13.52c-2.66,4.5-6.44,8.09-11.35,10.74-4.91,2.66-10.66,3.99-17.24,3.99-7.74,0-14.76-2.02-21.05-6.06-6.3-4.04-11.26-9.85-14.9-17.42-3.64-7.57-5.46-16.38-5.46-26.43s1.82-18.83,5.46-26.34Zm59.44,11.61c-3.41-3.58-7.6-5.37-12.56-5.37s-9.3,1.76-12.65,5.29c-3.35,3.53-5.02,8.46-5.02,14.82s1.67,11.18,5.02,14.82c3.35,3.64,7.56,5.46,12.65,5.46s9.15-1.79,12.56-5.37c3.41-3.58,5.11-8.55,5.11-14.9s-1.71-11.15-5.11-14.73Z"/><path class="d" d="M627,59.52c6.59,7.45,9.88,17.53,9.88,30.24v56.66h-33.96v-52.16c0-5.55-1.45-9.9-4.33-13.08-2.89-3.18-6.76-4.77-11.61-4.77s-9.07,1.59-11.96,4.77c-2.89,3.18-4.33,7.54-4.33,13.08v52.16h-33.96V49.21h33.96v13.86c3-4.39,7.05-7.94,12.13-10.66,5.08-2.71,10.92-4.07,17.5-4.07,11.2,0,20.1,3.73,26.69,11.18Z"/><path class="d" d="M745.87,59.52c6.59,7.45,9.88,17.53,9.88,30.24v56.66h-33.96v-52.16c0-5.55-1.45-9.9-4.33-13.08-2.89-3.18-6.76-4.77-11.61-4.77s-9.07,1.59-11.96,4.77c-2.89,3.18-4.33,7.54-4.33,13.08v52.16h-33.96V49.21h33.96v13.86c3-4.39,7.05-7.94,12.13-10.66,5.08-2.71,10.92-4.07,17.5-4.07,11.2,0,20.1,3.73,26.69,11.18Z"/><path class="d" d="M865.63,104.66h-64.29c.35,5.32,1.82,9.27,4.42,11.87,2.6,2.6,5.92,3.9,9.96,3.9,5.66,0,9.7-2.54,12.13-7.62h36.22c-1.5,6.7-4.42,12.68-8.75,17.94-4.33,5.26-9.79,9.39-16.37,12.39-6.59,3.01-13.86,4.51-21.83,4.51-9.59,0-18.11-2.02-25.56-6.06-7.45-4.04-13.29-9.82-17.5-17.33-4.22-7.51-6.32-16.35-6.32-26.51s2.08-18.97,6.24-26.43c4.16-7.45,9.96-13.2,17.42-17.24,7.45-4.04,16.03-6.06,25.73-6.06s18.08,1.97,25.47,5.89c7.39,3.93,13.17,9.56,17.33,16.9,4.16,7.34,6.24,15.97,6.24,25.91,0,2.66-.17,5.32-.52,7.97Zm-34.14-16.46c0-4.16-1.39-7.42-4.16-9.79-2.77-2.37-6.24-3.55-10.4-3.55s-7.57,1.13-10.22,3.38c-2.66,2.25-4.39,5.57-5.2,9.96h29.98Z"/><path class="d" d="M884.7,71.39c3.64-7.51,8.6-13.28,14.9-17.33,6.29-4.04,13.31-6.06,21.05-6.06,6.7,0,12.48,1.33,17.33,3.99,4.85,2.66,8.61,6.24,11.26,10.74v-13.52h33.96v97.21h-33.96v-13.52c-2.66,4.5-6.44,8.09-11.35,10.74-4.91,2.66-10.66,3.99-17.24,3.99-7.74,0-14.76-2.02-21.05-6.06-6.3-4.04-11.26-9.85-14.9-17.42-3.64-7.57-5.46-16.38-5.46-26.43s1.82-18.83,5.46-26.34Zm59.44,11.61c-3.41-3.58-7.6-5.37-12.56-5.37s-9.3,1.76-12.65,5.29c-3.35,3.53-5.02,8.46-5.02,14.82s1.67,11.18,5.02,14.82c3.35,3.64,7.56,5.46,12.65,5.46s9.15-1.79,12.56-5.37c3.41-3.58,5.11-8.55,5.11-14.9s-1.71-11.15-5.11-14.73Z"/><path class="d" d="M1102.09,49.21v97.21h-34.14v-13.86c-2.89,4.39-6.87,7.94-11.96,10.66-5.08,2.72-10.92,4.07-17.5,4.07-11.32,0-20.25-3.73-26.77-11.18-6.53-7.45-9.79-17.59-9.79-30.41V49.21h33.79v52.16c0,5.55,1.47,9.91,4.42,13.08,2.95,3.18,6.85,4.76,11.7,4.76s8.89-1.59,11.78-4.76c2.89-3.18,4.33-7.54,4.33-13.08V49.21h34.14Z"/><path class="f" d="M400.08,256.31c-3.41,6.06-8.55,10.92-15.42,14.56-6.87,3.64-15.28,5.46-25.21,5.46h-16.81v41.24h-33.96v-122.17h50.77c9.82,0,18.17,1.73,25.04,5.2,6.87,3.47,12.04,8.26,15.51,14.38,3.47,6.12,5.2,13.17,5.2,21.14,0,7.39-1.71,14.12-5.11,20.19Zm-29.55-20.19c0-8.89-4.79-13.34-14.38-13.34h-13.52v26.51h13.52c9.59,0,14.38-4.39,14.38-13.17Z"/><path class="f" d="M438.03,312.72c-7.68-4.04-13.72-9.82-18.11-17.33-4.39-7.51-6.59-16.35-6.59-26.51s2.22-18.83,6.67-26.34c4.45-7.51,10.51-13.28,18.2-17.33,7.68-4.04,16.38-6.06,26.08-6.06s18.4,2.02,26.08,6.06c7.68,4.05,13.75,9.82,18.2,17.33,4.45,7.51,6.67,16.29,6.67,26.34s-2.22,18.86-6.67,26.43c-4.45,7.57-10.54,13.37-18.28,17.42-7.74,4.04-16.46,6.06-26.17,6.06s-18.4-2.02-26.08-6.06Zm37.95-28.68c3.18-3.52,4.76-8.58,4.76-15.16s-1.59-11.61-4.76-15.08c-3.18-3.46-7.08-5.2-11.7-5.2s-8.49,1.73-11.61,5.2c-3.12,3.47-4.68,8.49-4.68,15.08s1.5,11.78,4.51,15.25c3,3.47,6.87,5.2,11.61,5.2s8.69-1.76,11.87-5.29Z"/><path class="f" d="M532.17,242.53c4.16-7.51,9.96-13.28,17.42-17.33,7.45-4.04,15.97-6.06,25.56-6.06,12.36,0,22.76,3.38,31.19,10.14,8.43,6.76,13.86,16.2,16.29,28.33h-36.04c-2.08-6.35-6.12-9.53-12.13-9.53-4.28,0-7.65,1.76-10.14,5.29-2.49,3.52-3.73,8.69-3.73,15.51s1.24,12.02,3.73,15.6c2.48,3.58,5.86,5.37,10.14,5.37,6.12,0,10.16-3.18,12.13-9.53h36.04c-2.43,12.02-7.86,21.43-16.29,28.25-8.43,6.82-18.83,10.22-31.19,10.22-9.59,0-18.11-2.02-25.56-6.06-7.45-4.04-13.26-9.82-17.42-17.33-4.16-7.51-6.24-16.35-6.24-26.51s2.08-18.83,6.24-26.34Z"/><path class="f" d="M697.49,317.57l-26.86-39.86v39.86h-33.96V189.34h33.96v69.14l26.86-38.12h40.72l-38.3,48.87,38.99,48.35h-41.42Z"/><path class="f" d="M834.77,275.81h-64.29c.35,5.32,1.82,9.27,4.42,11.87,2.6,2.6,5.92,3.9,9.96,3.9,5.66,0,9.7-2.54,12.13-7.62h36.22c-1.5,6.7-4.42,12.68-8.75,17.94-4.33,5.26-9.79,9.39-16.37,12.39-6.59,3.01-13.86,4.51-21.83,4.51-9.59,0-18.11-2.02-25.56-6.06-7.45-4.04-13.29-9.82-17.5-17.33-4.22-7.51-6.32-16.35-6.32-26.51s2.08-18.97,6.24-26.43c4.16-7.45,9.96-13.2,17.42-17.24,7.45-4.04,16.03-6.06,25.73-6.06s18.08,1.97,25.47,5.89c7.39,3.93,13.17,9.56,17.33,16.9,4.16,7.34,6.24,15.97,6.24,25.91,0,2.66-.17,5.32-.52,7.97Zm-34.14-16.46c0-4.16-1.39-7.42-4.16-9.79-2.77-2.37-6.24-3.55-10.4-3.55s-7.57,1.13-10.22,3.38c-2.66,2.25-4.39,5.57-5.2,9.96h29.98Z"/><path class="f" d="M906.51,288.63v28.94h-14.73c-24.84,0-37.26-12.3-37.26-36.91v-32.06h-11.96v-28.25h11.96v-23.57h34.14v23.57h17.68v28.25h-17.68v32.58c0,2.66,.61,4.56,1.82,5.72,1.21,1.16,3.26,1.73,6.15,1.73h9.88Z"/></g><path class="d" d="M208.92,24.25H40.19C17.99,24.25,0,42.25,0,64.45V233.18c0,22.2,17.99,40.19,40.19,40.19h27.31c5.24,0,10.27,2.08,13.98,5.79l35.68,35.68c4.09,4.09,10.71,4.09,14.8,0l35.68-35.68c3.71-3.71,8.74-5.79,13.98-5.79h27.31c22.2,0,40.19-17.99,40.19-40.19V64.45c0-22.2-17.99-40.19-40.19-40.19Zm-17.48,194.86H57.67c-1.76,0-3.18-1.42-3.18-3.18V82.59c0-1.76,1.42-3.18,3.18-3.18H191.44c1.76,0,3.18,1.42,3.18,3.18V215.93c0,1.76-1.42,3.18-3.18,3.18Z"/><ellipse class="e" cx="124.56" cy="353.66" rx="64.33" ry="10.66"/><g><circle class="b" cx="222.19" cy="50.62" r="50.62"/><path class="c" d="M208.64,35.09v-12.03h20.95v55.23h-13.46V35.09h-7.49Z"/></g></svg>