<svg version="1.1" id="Layer_1" xmlns="http://www.w3.org/2000/svg" xmlns:xlink="http://www.w3.org/1999/xlink" x="0px" y="0px"
	 width="100%" viewBox="0 0 2126 622" enable-background="new 0 0 2126 622" xml:space="preserve">
<path fill="#16171C" opacity="0" stroke="none"
	d="
M623.000000,1.000001
	C1124.277832,1.000000 1625.555664,1.000000 2126.916748,1.000000
	C2126.916748,208.254807 2126.916748,415.509674 2126.916748,623.000000
	C1625.967285,623.000000 1124.934570,623.000000 623.547485,622.539429
	C623.210388,621.246460 623.242615,620.414001 623.242615,619.581543
	C623.244995,414.879700 623.245667,210.177887 623.235168,5.476052
	C623.235046,3.984031 623.081726,2.492018 623.000000,1.000001
M1240.306763,441.227539
	C1241.119873,441.350311 1241.932739,441.579742 1242.745972,441.580322
	C1266.411499,441.596497 1290.076904,441.594696 1313.742432,441.569366
	C1314.692383,441.568359 1315.642090,441.309845 1316.488525,441.186401
	C1316.488525,358.702942 1316.488525,276.478851 1316.488525,194.288300
	C1290.807739,194.288300 1265.513428,194.288300 1239.863159,194.288300
	C1239.863159,196.466080 1239.863037,198.448837 1239.863037,200.431595
	C1239.863037,278.261139 1239.865356,356.090698 1239.850220,433.920258
	C1239.849731,435.906708 1239.658691,437.893127 1239.110229,440.085266
	C1239.292969,440.340332 1239.475586,440.595398 1240.306763,441.227539
M1135.654175,297.200623
	C1135.771729,297.467499 1135.889282,297.734375 1136.223999,298.917206
	C1136.223999,346.335876 1136.223999,393.754547 1136.223999,441.249847
	C1162.531494,441.249847 1187.913574,441.249847 1213.441528,441.249847
	C1213.525391,439.941528 1213.642578,438.962982 1213.642822,437.984406
	C1213.653198,389.667450 1213.807617,341.349640 1213.526001,293.034332
	C1213.469116,283.263214 1212.417480,273.384430 1210.700195,263.755798
	C1202.499878,217.775635 1174.069580,191.191635 1129.912598,188.921677
	C1096.922485,187.225754 1069.739258,199.166107 1049.953857,226.320831
	C1049.414551,227.061066 1048.726074,227.692520 1047.347168,229.212280
	C1046.028076,216.969727 1044.814331,205.704178 1043.593140,194.369186
	C1021.158325,194.369186 999.090942,194.369186 978.167847,194.369186
	C978.167847,276.839630 978.167847,359.035614 978.167847,441.253906
	C1004.837280,441.253906 1030.237427,441.253906 1055.901733,441.253906
	C1055.901733,438.930237 1055.901855,436.942078 1055.901855,434.953918
	C1055.901367,388.969513 1056.023315,342.984589 1055.824707,297.001038
	C1055.765991,283.404541 1060.146484,271.872681 1069.700684,262.373413
	C1087.852295,244.326172 1119.267456,248.041260 1129.519775,270.115112
	C1133.325806,278.309753 1133.915894,287.998016 1135.654175,297.200623
M2034.000366,349.512268
	C2039.605835,317.090607 2038.961548,285.025818 2025.888184,254.381973
	C2009.637817,216.291855 1982.137817,191.658112 1939.335327,189.043091
	C1904.765747,186.931046 1875.125854,198.170395 1853.398438,226.529144
	C1852.963379,227.096909 1852.327637,227.510925 1851.245605,228.480270
	C1849.982666,216.562546 1848.801636,205.417648 1847.626465,194.328705
	C1825.138794,194.328705 1803.203735,194.328705 1782.154297,194.328705
	C1782.154297,307.534393 1782.154297,420.503204 1782.154297,533.428223
	C1808.772583,533.428223 1834.029175,533.428223 1859.968628,533.428223
	C1859.968628,495.210175 1859.968628,457.267242 1859.968628,420.603821
	C1867.337646,426.094482 1874.288330,432.802521 1882.495605,437.124908
	C1918.567261,456.122345 1968.292847,447.361847 1998.963013,417.419220
	C2017.963379,398.869598 2028.691040,376.069946 2034.000366,349.512268
M869.691284,192.803726
	C848.338196,187.539200 826.771545,187.274872 805.272095,191.170166
	C760.797485,199.228088 728.051331,222.792068 711.452515,265.690155
	C699.431335,296.757935 698.495544,328.906067 707.604919,360.860840
	C718.236267,398.154327 741.995056,424.370300 778.452576,437.862823
	C815.980286,451.751434 853.633972,450.667389 890.277710,434.402954
	C919.807373,421.296112 940.263611,399.079254 951.608032,368.762360
	C959.368103,348.024536 961.541260,326.456573 960.112976,304.473511
	C956.605896,250.495636 924.636719,206.648453 869.691284,192.803726
M1551.197388,392.304993
	C1567.915283,419.081512 1592.483154,434.750061 1622.699341,441.797333
	C1656.748413,449.738556 1690.841187,447.555481 1724.688599,440.214630
	C1734.805542,438.020447 1744.631104,434.481873 1754.760498,431.509186
	C1751.189575,413.209595 1747.852661,396.109772 1744.473877,378.795410
	C1743.393066,379.007599 1742.749512,379.062561 1742.153931,379.261078
	C1720.124146,386.604736 1697.434204,389.565369 1674.297363,389.143341
	C1655.290771,388.796631 1637.155151,385.197235 1622.048706,372.586487
	C1612.698120,364.780914 1607.605957,354.641937 1606.647339,341.945404
	C1608.806763,341.945404 1610.608276,341.939178 1612.409790,341.946320
	C1661.878418,342.142059 1711.346924,342.334320 1760.815552,342.549286
	C1763.523315,342.561035 1765.775879,342.975372 1766.322388,338.882904
	C1769.465454,315.348450 1768.993896,292.017120 1762.918091,268.986816
	C1755.651001,241.440659 1741.750488,218.370529 1716.883545,203.148315
	C1697.504150,191.285217 1676.058838,187.512695 1653.696655,188.171066
	C1623.570679,189.057983 1596.381592,198.018539 1574.215332,219.123642
	C1529.673950,261.532623 1519.493286,337.705994 1551.197388,392.304993
M1359.230713,223.752228
	C1332.377319,259.532532 1339.013794,301.496857 1376.408813,325.948822
	C1387.813232,333.406036 1401.086670,338.030975 1413.580688,343.787140
	C1422.919067,348.089417 1432.671753,351.585083 1441.694092,356.451660
	C1448.827881,360.299530 1450.940308,367.543304 1449.931152,375.437469
	C1448.923828,383.315247 1443.826538,387.777069 1436.636475,390.044708
	C1433.484863,391.038696 1430.186157,391.730530 1426.902344,392.113953
	C1408.967285,394.207977 1391.779541,390.443542 1374.960693,384.791138
	C1366.873413,382.073181 1359.083740,378.469604 1350.864014,375.147705
	C1346.786743,391.414459 1342.967285,407.601807 1338.565918,423.629364
	C1337.258789,428.389862 1338.436401,430.239380 1342.728149,432.147797
	C1372.072144,445.196442 1402.864502,448.705353 1434.516724,446.320282
	C1453.963501,444.854950 1472.445923,440.041534 1489.486694,429.969421
	C1534.064453,403.621582 1537.293091,333.915131 1490.980591,306.353424
	C1480.912964,300.361969 1469.802246,296.098175 1459.085693,291.228943
	C1447.919434,286.155426 1436.006348,282.376892 1425.589600,276.092896
	C1413.163208,268.596558 1415.116211,252.256119 1428.266724,246.049973
	C1430.500854,244.995636 1432.932739,244.251755 1435.351318,243.716125
	C1445.476562,241.473648 1455.674927,242.108292 1465.561035,244.571976
	C1477.288330,247.494400 1488.772217,251.393127 1500.733154,254.980209
	C1504.878662,238.290176 1509.184814,220.953629 1513.524658,203.481522
	C1511.896118,202.633972 1510.636230,201.851532 1509.283691,201.292862
	C1480.926880,189.580307 1451.450806,185.977325 1421.212769,190.444702
	C1396.994385,194.022720 1375.667114,203.785858 1359.230713,223.752228
M1272.082886,80.361923
	C1256.151489,82.757202 1243.744873,90.219803 1237.970215,105.845467
	C1232.372314,120.992561 1234.171509,135.601807 1244.899414,147.990158
	C1256.953979,161.910431 1272.931519,164.389923 1290.060791,160.738815
	C1305.474121,157.453476 1316.131348,148.124893 1320.220093,132.744049
	C1324.467285,116.766426 1321.056274,102.244011 1308.746704,90.699730
	C1298.716797,81.293343 1286.213379,79.256027 1272.082886,80.361923
z"/>
<path fill="#E60101" opacity="0" stroke="none"
	d="
M622.531311,1.000001
	C623.081726,2.492018 623.235046,3.984031 623.235168,5.476052
	C623.245667,210.177887 623.244995,414.879700 623.242615,619.581543
	C623.242615,620.414001 623.210388,621.246460 623.096619,622.539429
	C415.715271,623.000000 208.430511,623.000000 1.072888,623.000000
	C1.072888,415.763885 1.072888,208.527710 1.072888,1.000000
	C208.020798,1.000000 415.041748,1.000000 622.531311,1.000001
M286.864807,63.350304
	C278.657532,71.341698 274.842773,81.031853 274.901428,92.515923
	C275.043549,120.347763 274.863037,148.181244 275.004456,176.013092
	C275.042511,183.500839 272.976685,189.620514 265.771271,192.759186
	C258.472961,195.938339 252.750473,193.005173 247.464020,187.683090
	C220.802689,160.842117 194.070786,134.070267 167.220657,107.418221
	C154.066925,94.361534 138.319885,89.593231 120.541229,95.711426
	C90.409653,106.080658 82.735512,144.031723 105.783134,167.060028
	C132.781494,194.035751 159.760513,221.030930 186.809479,247.955826
	C192.058578,253.180832 195.056747,258.971985 192.009521,266.312958
	C188.977478,273.617340 182.938522,275.688721 175.409134,275.643921
	C147.577560,275.478271 119.744392,275.595398 91.911850,275.569763
	C78.968605,275.557861 67.970421,279.967010 60.140690,290.461212
	C51.533070,301.998047 50.144032,314.735046 56.521648,327.689209
	C63.135845,341.123932 74.437675,348.195282 89.371727,348.343384
	C117.701485,348.624298 146.036758,348.323425 174.367706,348.535919
	C178.380035,348.566040 182.901718,349.211121 186.285370,351.147888
	C194.984436,356.127106 195.461304,367.323059 187.786453,375.006805
	C160.697098,402.127411 133.556686,429.197021 106.468315,456.318604
	C94.659164,468.142212 89.704361,482.322601 93.654869,498.702026
	C101.449028,531.017822 141.236725,541.940796 165.317307,518.473694
	C179.281113,504.865601 192.930923,490.935333 206.720367,477.148376
	C220.509811,463.361450 234.300934,449.576141 248.083099,435.781921
	C252.035675,431.825928 256.535004,429.239166 262.358185,430.389679
	C270.504883,431.999207 274.930939,437.876678 274.939240,447.077515
	C274.964905,475.576721 274.912109,504.075989 274.959381,532.575134
	C274.994507,553.758240 291.093231,570.522583 311.282013,570.525574
	C331.785828,570.528625 347.827576,553.754517 347.838867,532.262085
	C347.853760,503.929535 347.726166,475.595917 347.984711,447.265717
	C348.019043,443.502380 349.073883,439.133362 351.189545,436.122253
	C356.956482,427.914612 366.923553,428.105530 374.868378,436.036621
	C402.114777,463.235870 429.241669,490.555481 456.586517,517.655212
	C468.640991,529.601624 483.250885,533.812134 499.707550,529.253723
	C531.162659,520.540710 540.812866,481.205719 517.368225,457.485107
	C496.983398,436.860352 476.376282,416.455261 455.868286,395.952209
	C448.560852,388.646515 441.132385,381.456726 433.984497,373.998047
	C426.759460,366.458893 428.467651,354.747009 437.587769,350.426208
	C440.741364,348.932159 444.653381,348.524445 448.223633,348.505676
	C476.722076,348.355682 505.222198,348.529419 533.720642,348.381409
	C557.342041,348.258728 574.710205,325.716614 568.849976,303.094635
	C564.577820,286.602997 549.617310,275.643463 531.008667,275.596710
	C502.676300,275.525513 474.341614,275.740784 446.013306,275.395233
	C442.027161,275.346588 437.312286,273.743195 434.255524,271.243988
	C427.373260,265.617004 427.955872,256.188873 434.847137,249.288528
	C462.052094,222.047806 489.286469,194.836456 516.523376,167.627701
	C527.841980,156.320847 532.445984,142.689087 529.378479,127.057732
	C526.200134,110.861710 516.330200,99.831055 500.461304,95.150604
	C484.144806,90.338120 469.312531,94.052780 457.193390,106.018623
	C429.679840,133.184296 402.433716,160.621048 375.118805,187.987442
	C370.000793,193.115097 364.217194,195.852264 357.134735,192.830093
	C350.173340,189.859604 347.751862,184.103989 347.788330,176.704712
	C347.927948,148.372849 347.940369,120.039452 347.808594,91.707520
	C347.735504,75.987190 340.813660,63.908398 326.540771,57.185925
	C312.578888,50.609943 299.276550,52.914593 286.864807,63.350304
z"/>
<path fill="#FFFFFF" opacity="1.000000" stroke="none"
	d="
M2033.943359,349.936279
	C2028.691040,376.069946 2017.963379,398.869598 1998.963013,417.419220
	C1968.292847,447.361847 1918.567261,456.122345 1882.495605,437.124908
	C1874.288330,432.802521 1867.337646,426.094482 1859.968628,420.603821
	C1859.968628,457.267242 1859.968628,495.210175 1859.968628,533.428223
	C1834.029175,533.428223 1808.772583,533.428223 1782.154297,533.428223
	C1782.154297,420.503204 1782.154297,307.534393 1782.154297,194.328705
	C1803.203735,194.328705 1825.138794,194.328705 1847.626465,194.328705
	C1848.801636,205.417648 1849.982666,216.562546 1851.245605,228.480270
	C1852.327637,227.510925 1852.963379,227.096909 1853.398438,226.529144
	C1875.125854,198.170395 1904.765747,186.931046 1939.335327,189.043091
	C1982.137817,191.658112 2009.637817,216.291855 2025.888184,254.381973
	C2038.961548,285.025818 2039.605835,317.090607 2033.943359,349.936279
M1923.650146,251.671951
	C1916.260010,250.917053 1908.716919,248.828018 1901.508057,249.654510
	C1878.844360,252.252914 1861.551147,271.620148 1860.203247,296.042450
	C1859.333252,311.807861 1859.441406,327.702698 1860.327515,343.471191
	C1861.552612,365.265961 1876.543579,382.284332 1896.961304,386.737762
	C1917.332642,391.181061 1938.744751,382.201752 1948.526123,363.001099
	C1963.608765,333.393982 1963.246826,303.024261 1948.624878,273.209412
	C1943.645996,263.057281 1935.201782,255.917252 1923.650146,251.671951
z"/>
<path fill="#FFFFFF" opacity="1.000000" stroke="none"
	d="
M870.094482,192.892395
	C924.636719,206.648453 956.605896,250.495636 960.112976,304.473511
	C961.541260,326.456573 959.368103,348.024536 951.608032,368.762360
	C940.263611,399.079254 919.807373,421.296112 890.277710,434.402954
	C853.633972,450.667389 815.980286,451.751434 778.452576,437.862823
	C741.995056,424.370300 718.236267,398.154327 707.604919,360.860840
	C698.495544,328.906067 699.431335,296.757935 711.452515,265.690155
	C728.051331,222.792068 760.797485,199.228088 805.272095,191.170166
	C826.771545,187.274872 848.338196,187.539200 870.094482,192.892395
M781.133301,318.484833
	C781.321594,333.941345 783.442871,349.020508 789.960449,363.223969
	C800.770447,386.781555 823.724854,397.466766 846.102600,389.043579
	C860.400146,383.661835 868.543091,372.225830 873.693542,358.555298
	C880.764465,339.787476 881.811523,320.285004 879.364990,300.544556
	C877.818848,288.068634 874.520081,276.093079 867.841248,265.276855
	C862.152588,256.064178 854.594421,249.031158 844.016174,245.836456
	C823.181152,239.544128 802.762756,248.504395 791.942932,268.746216
	C783.804565,283.971588 781.428284,300.525909 781.133301,318.484833
z"/>
<path fill="#FFFFFF" opacity="1.000000" stroke="none"
	d="
M1135.972656,297.005127
	C1133.915894,287.998016 1133.325806,278.309753 1129.519775,270.115112
	C1119.267456,248.041260 1087.852295,244.326172 1069.700684,262.373413
	C1060.146484,271.872681 1055.765991,283.404541 1055.824707,297.001038
	C1056.023315,342.984589 1055.901367,388.969513 1055.901855,434.953918
	C1055.901855,436.942078 1055.901733,438.930237 1055.901733,441.253906
	C1030.237427,441.253906 1004.837280,441.253906 978.167847,441.253906
	C978.167847,359.035614 978.167847,276.839630 978.167847,194.369186
	C999.090942,194.369186 1021.158325,194.369186 1043.593140,194.369186
	C1044.814331,205.704178 1046.028076,216.969727 1047.347168,229.212280
	C1048.726074,227.692520 1049.414551,227.061066 1049.953857,226.320831
	C1069.739258,199.166107 1096.922485,187.225754 1129.912598,188.921677
	C1174.069580,191.191635 1202.499878,217.775635 1210.700195,263.755798
	C1212.417480,273.384430 1213.469116,283.263214 1213.526001,293.034332
	C1213.807617,341.349640 1213.653198,389.667450 1213.642822,437.984406
	C1213.642578,438.962982 1213.525391,439.941528 1213.441528,441.249847
	C1187.913574,441.249847 1162.531494,441.249847 1136.223999,441.249847
	C1136.223999,393.754547 1136.223999,346.335876 1136.190186,298.207336
	C1136.095215,297.333374 1136.033936,297.169250 1135.972656,297.005127
z"/>
<path fill="#FFFFFF" opacity="1.000000" stroke="none"
	d="
M1551.024170,391.985962
	C1519.493286,337.705994 1529.673950,261.532623 1574.215332,219.123642
	C1596.381592,198.018539 1623.570679,189.057983 1653.696655,188.171066
	C1676.058838,187.512695 1697.504150,191.285217 1716.883545,203.148315
	C1741.750488,218.370529 1755.651001,241.440659 1762.918091,268.986816
	C1768.993896,292.017120 1769.465454,315.348450 1766.322388,338.882904
	C1765.775879,342.975372 1763.523315,342.561035 1760.815552,342.549286
	C1711.346924,342.334320 1661.878418,342.142059 1612.409790,341.946320
	C1610.608276,341.939178 1608.806763,341.945404 1606.647339,341.945404
	C1607.605957,354.641937 1612.698120,364.780914 1622.048706,372.586487
	C1637.155151,385.197235 1655.290771,388.796631 1674.297363,389.143341
	C1697.434204,389.565369 1720.124146,386.604736 1742.153931,379.261078
	C1742.749512,379.062561 1743.393066,379.007599 1744.473877,378.795410
	C1747.852661,396.109772 1751.189575,413.209595 1754.760498,431.509186
	C1744.631104,434.481873 1734.805542,438.020447 1724.688599,440.214630
	C1690.841187,447.555481 1656.748413,449.738556 1622.699341,441.797333
	C1592.483154,434.750061 1567.915283,419.081512 1551.024170,391.985962
M1608.906738,289.144501
	C1637.608276,289.076996 1666.309937,289.009460 1695.504517,289.069916
	C1695.657593,288.996338 1695.810669,288.922729 1696.721069,288.626862
	C1696.482300,285.646240 1696.343018,282.653748 1695.989380,279.686798
	C1692.107666,247.131454 1662.440308,229.870560 1634.062134,243.898102
	C1617.934448,251.870102 1610.709961,266.386475 1607.024658,283.104828
	C1606.620728,284.937256 1607.006592,286.943848 1607.493408,289.073792
	C1607.657715,289.030518 1607.822144,288.987244 1608.906738,289.144501
z"/>
<path fill="#FFFFFF" opacity="1.000000" stroke="none"
	d="
M1359.456421,223.476257
	C1375.667114,203.785858 1396.994385,194.022720 1421.212769,190.444702
	C1451.450806,185.977325 1480.926880,189.580307 1509.283691,201.292862
	C1510.636230,201.851532 1511.896118,202.633972 1513.524658,203.481522
	C1509.184814,220.953629 1504.878662,238.290176 1500.733154,254.980209
	C1488.772217,251.393127 1477.288330,247.494400 1465.561035,244.571976
	C1455.674927,242.108292 1445.476562,241.473648 1435.351318,243.716125
	C1432.932739,244.251755 1430.500854,244.995636 1428.266724,246.049973
	C1415.116211,252.256119 1413.163208,268.596558 1425.589600,276.092896
	C1436.006348,282.376892 1447.919434,286.155426 1459.085693,291.228943
	C1469.802246,296.098175 1480.912964,300.361969 1490.980591,306.353424
	C1537.293091,333.915131 1534.064453,403.621582 1489.486694,429.969421
	C1472.445923,440.041534 1453.963501,444.854950 1434.516724,446.320282
	C1402.864502,448.705353 1372.072144,445.196442 1342.728149,432.147797
	C1338.436401,430.239380 1337.258789,428.389862 1338.565918,423.629364
	C1342.967285,407.601807 1346.786743,391.414459 1350.864014,375.147705
	C1359.083740,378.469604 1366.873413,382.073181 1374.960693,384.791138
	C1391.779541,390.443542 1408.967285,394.207977 1426.902344,392.113953
	C1430.186157,391.730530 1433.484863,391.038696 1436.636475,390.044708
	C1443.826538,387.777069 1448.923828,383.315247 1449.931152,375.437469
	C1450.940308,367.543304 1448.827881,360.299530 1441.694092,356.451660
	C1432.671753,351.585083 1422.919067,348.089417 1413.580688,343.787140
	C1401.086670,338.030975 1387.813232,333.406036 1376.408813,325.948822
	C1339.013794,301.496857 1332.377319,259.532532 1359.456421,223.476257
z"/>
<path fill="#FFFFFF" opacity="1.000000" stroke="none"
	d="
M1239.556519,439.879547
	C1239.658691,437.893127 1239.849731,435.906708 1239.850220,433.920258
	C1239.865356,356.090698 1239.863037,278.261139 1239.863037,200.431595
	C1239.863037,198.448837 1239.863159,196.466080 1239.863159,194.288300
	C1265.513428,194.288300 1290.807739,194.288300 1316.488525,194.288300
	C1316.488525,276.478851 1316.488525,358.702942 1316.488525,441.186401
	C1315.642090,441.309845 1314.692383,441.568359 1313.742432,441.569366
	C1290.076904,441.594696 1266.411499,441.596497 1242.745972,441.580322
	C1241.932739,441.579742 1241.119873,441.350311 1240.035156,440.788086
	C1239.694336,440.192291 1239.625366,440.035919 1239.556519,439.879547
z"/>
<path fill="#FFFFFF" opacity="1.000000" stroke="none"
	d="
M1272.531250,80.306244
	C1286.213379,79.256027 1298.716797,81.293343 1308.746704,90.699730
	C1321.056274,102.244011 1324.467285,116.766426 1320.220093,132.744049
	C1316.131348,148.124893 1305.474121,157.453476 1290.060791,160.738815
	C1272.931519,164.389923 1256.953979,161.910431 1244.899414,147.990158
	C1234.171509,135.601807 1232.372314,120.992561 1237.970215,105.845467
	C1243.744873,90.219803 1256.151489,82.757202 1272.531250,80.306244
z"/>
<path fill="#030409" opacity="0" stroke="none"
	d="
M1135.813477,297.102875
	C1136.033936,297.169250 1136.095215,297.333374 1136.081543,297.749390
	C1135.889282,297.734375 1135.771729,297.467499 1135.813477,297.102875
z"/>
<path fill="#090A0E" opacity="0" stroke="none"
	d="
M1239.333374,439.982422
	C1239.625366,440.035919 1239.694336,440.192291 1239.710938,440.599548
	C1239.475586,440.595398 1239.292969,440.340332 1239.333374,439.982422
z"/>
<path fill="#FFFFFF" opacity="1.000000" stroke="none"
	d="
M287.135956,63.120411
	C299.276550,52.914593 312.578888,50.609943 326.540771,57.185925
	C340.813660,63.908398 347.735504,75.987190 347.808594,91.707520
	C347.940369,120.039452 347.927948,148.372849 347.788330,176.704712
	C347.751862,184.103989 350.173340,189.859604 357.134735,192.830093
	C364.217194,195.852264 370.000793,193.115097 375.118805,187.987442
	C402.433716,160.621048 429.679840,133.184296 457.193390,106.018623
	C469.312531,94.052780 484.144806,90.338120 500.461304,95.150604
	C516.330200,99.831055 526.200134,110.861710 529.378479,127.057732
	C532.445984,142.689087 527.841980,156.320847 516.523376,167.627701
	C489.286469,194.836456 462.052094,222.047806 434.847137,249.288528
	C427.955872,256.188873 427.373260,265.617004 434.255524,271.243988
	C437.312286,273.743195 442.027161,275.346588 446.013306,275.395233
	C474.341614,275.740784 502.676300,275.525513 531.008667,275.596710
	C549.617310,275.643463 564.577820,286.602997 568.849976,303.094635
	C574.710205,325.716614 557.342041,348.258728 533.720642,348.381409
	C505.222198,348.529419 476.722076,348.355682 448.223633,348.505676
	C444.653381,348.524445 440.741364,348.932159 437.587769,350.426208
	C428.467651,354.747009 426.759460,366.458893 433.984497,373.998047
	C441.132385,381.456726 448.560852,388.646515 455.868286,395.952209
	C476.376282,416.455261 496.983398,436.860352 517.368225,457.485107
	C540.812866,481.205719 531.162659,520.540710 499.707550,529.253723
	C483.250885,533.812134 468.640991,529.601624 456.586517,517.655212
	C429.241669,490.555481 402.114777,463.235870 374.868378,436.036621
	C366.923553,428.105530 356.956482,427.914612 351.189545,436.122253
	C349.073883,439.133362 348.019043,443.502380 347.984711,447.265717
	C347.726166,475.595917 347.853760,503.929535 347.838867,532.262085
	C347.827576,553.754517 331.785828,570.528625 311.282013,570.525574
	C291.093231,570.522583 274.994507,553.758240 274.959381,532.575134
	C274.912109,504.075989 274.964905,475.576721 274.939240,447.077515
	C274.930939,437.876678 270.504883,431.999207 262.358185,430.389679
	C256.535004,429.239166 252.035675,431.825928 248.083099,435.781921
	C234.300934,449.576141 220.509811,463.361450 206.720367,477.148376
	C192.930923,490.935333 179.281113,504.865601 165.317307,518.473694
	C141.236725,541.940796 101.449028,531.017822 93.654869,498.702026
	C89.704361,482.322601 94.659164,468.142212 106.468315,456.318604
	C133.556686,429.197021 160.697098,402.127411 187.786453,375.006805
	C195.461304,367.323059 194.984436,356.127106 186.285370,351.147888
	C182.901718,349.211121 178.380035,348.566040 174.367706,348.535919
	C146.036758,348.323425 117.701485,348.624298 89.371727,348.343384
	C74.437675,348.195282 63.135845,341.123932 56.521648,327.689209
	C50.144032,314.735046 51.533070,301.998047 60.140690,290.461212
	C67.970421,279.967010 78.968605,275.557861 91.911850,275.569763
	C119.744392,275.595398 147.577560,275.478271 175.409134,275.643921
	C182.938522,275.688721 188.977478,273.617340 192.009521,266.312958
	C195.056747,258.971985 192.058578,253.180832 186.809479,247.955826
	C159.760513,221.030930 132.781494,194.035751 105.783134,167.060028
	C82.735512,144.031723 90.409653,106.080658 120.541229,95.711426
	C138.319885,89.593231 154.066925,94.361534 167.220657,107.418221
	C194.070786,134.070267 220.802689,160.842117 247.464020,187.683090
	C252.750473,193.005173 258.472961,195.938339 265.771271,192.759186
	C272.976685,189.620514 275.042511,183.500839 275.004456,176.013092
	C274.863037,148.181244 275.043549,120.347763 274.901428,92.515923
	C274.842773,81.031853 278.657532,71.341698 287.135956,63.120411
M323.095306,214.145096
	C297.964874,205.646622 274.657532,225.930161 274.998260,250.628021
	C275.568237,291.939667 275.170197,333.264893 275.142303,374.584412
	C275.135559,384.550201 278.461578,393.197723 285.250732,400.438293
	C295.409943,411.272919 310.497284,414.692993 324.135773,409.408905
	C338.241913,403.943665 347.563965,390.349701 347.584503,374.825653
	C347.639404,333.339630 347.605316,291.853455 347.600952,250.367340
	C347.599213,233.740646 339.139771,220.985367 323.095306,214.145096
z"/>
<path fill="#17181D" opacity="0" stroke="none"
	d="
M1924.019897,251.805939
	C1935.201782,255.917252 1943.645996,263.057281 1948.624878,273.209412
	C1963.246826,303.024261 1963.608765,333.393982 1948.526123,363.001099
	C1938.744751,382.201752 1917.332642,391.181061 1896.961304,386.737762
	C1876.543579,382.284332 1861.552612,365.265961 1860.327515,343.471191
	C1859.441406,327.702698 1859.333252,311.807861 1860.203247,296.042450
	C1861.551147,271.620148 1878.844360,252.252914 1901.508057,249.654510
	C1908.716919,248.828018 1916.260010,250.917053 1924.019897,251.805939
z"/>
<path fill="#17181D" opacity="0" stroke="none"
	d="
M781.133301,318.000610
	C781.428284,300.525909 783.804565,283.971588 791.942932,268.746216
	C802.762756,248.504395 823.181152,239.544128 844.016174,245.836456
	C854.594421,249.031158 862.152588,256.064178 867.841248,265.276855
	C874.520081,276.093079 877.818848,288.068634 879.364990,300.544556
	C881.811523,320.285004 880.764465,339.787476 873.693542,358.555298
	C868.543091,372.225830 860.400146,383.661835 846.102600,389.043579
	C823.724854,397.466766 800.770447,386.781555 789.960449,363.223969
	C783.442871,349.020508 781.321594,333.941345 781.133301,318.000610
z"/>
<path fill="#17181D" opacity="0" stroke="none"
	d="
M1695.011475,288.941986
	C1666.309937,289.009460 1637.608276,289.076996 1608.365723,288.888367
	C1607.558472,288.711395 1607.292358,288.790527 1607.026123,288.869629
	C1607.006592,286.943848 1606.620728,284.937256 1607.024658,283.104828
	C1610.709961,266.386475 1617.934448,251.870102 1634.062134,243.898102
	C1662.440308,229.870560 1692.107666,247.131454 1695.989380,279.686798
	C1696.343018,282.653748 1696.482300,285.646240 1696.236084,288.601685
	C1695.504639,288.698303 1695.258057,288.820160 1695.011475,288.941986
z"/>
<path fill="#000105" opacity="0" stroke="none"
	d="
M1695.258057,289.005981
	C1695.258057,288.820160 1695.504639,288.698303 1695.857422,288.712830
	C1695.810669,288.922729 1695.657593,288.996338 1695.258057,289.005981
z"/>
<path fill="#000105" opacity="0" stroke="none"
	d="
M1607.259766,288.971710
	C1607.292358,288.790527 1607.558472,288.711395 1607.905762,288.788086
	C1607.822144,288.987244 1607.657715,289.030518 1607.259766,288.971710
z"/>
<path fill="#E60203" opacity="0" stroke="none"
	d="
M323.453918,214.306870
	C339.139771,220.985367 347.599213,233.740646 347.600952,250.367340
	C347.605316,291.853455 347.639404,333.339630 347.584503,374.825653
	C347.563965,390.349701 338.241913,403.943665 324.135773,409.408905
	C310.497284,414.692993 295.409943,411.272919 285.250732,400.438293
	C278.461578,393.197723 275.135559,384.550201 275.142303,374.584412
	C275.170197,333.264893 275.568237,291.939667 274.998260,250.628021
	C274.657532,225.930161 297.964874,205.646622 323.453918,214.306870
z"/>
</svg>
