<svg fill="none" height="346" viewBox="0 0 614 346" width="614" xmlns="http://www.w3.org/2000/svg"><path clip-rule="evenodd" d="m152.53 246.706-106.6875 18.913 38.0759-114.018 65.5556 91.211c1.945 2.503 4.723 4.172 7.78 4.728l51.399 7.51c1.667.278 3.056-.278 4.445-1.391l10.836-10.291-9.725-18.357 27.784 2.782-54.178-53.124-1.667-22.529c-.278-2.225-.833-4.45-1.945-6.397l-12.78-20.86c-1.389-2.504-1.667-5.285-1.389-8.066l7.224-38.9392-46.121 20.3039-17.781-35.8795-113.356 122.6578v-184.96h283.39v253.659l-141.695 92.341zm-68.6014-95.135-.0102.03-.0128-.017zm0 0 39.1514-21.404-13.892-54.2361zm69.2974 20.737-24.932-17.848 27.478.991c.955 0 1.91.496 2.759 1.488l9.336 11.238-11.67 4.627c-1.061.331-2.016.165-2.971-.496zm262.933-19.617 19.377 28.951v-.228h23.481l-22.113-32.371c11.398-4.331 19.377-13.45 19.377-28.04v-.228c0-18.693-12.766-29.863-34.195-29.863h-41.489v90.73h19.833v-28.951zm4.104-43.77c9.802 0 15.729 4.56 15.729 12.994v.228c0 7.523-5.471 12.766-15.273 12.766h-20.289v-25.988zm62.698 72.721v-90.73h19.833v90.73zm86.624-31.003 20.289 31.004h23.252l-31.687-46.277 30.319-44.2257h-22.568l-19.149 29.4077-18.921-29.4077h-23.253l30.319 44.4537-31.687 46.049h22.569z" fill="#07162f" fill-rule="evenodd"/></svg>