<svg viewBox="0 0 392 170" xmlns="http://www.w3.org/2000/svg"><g fill="#ff4344"><path d="m110.25 98.96h-44.27c1.31 7.84 5.35 11.23 13.58 11.23 6.27 0 9.27-1.96 12.41-8.23l16.98 7.31c-4.44 11.23-14.24 17.37-29.91 17.37-20.24 0-33.83-13.32-33.83-33.43 0-20.63 13.32-34.48 33.17-34.48 19.2 0 32 13.32 32 33.43-0 2.23-0 3.93-.13 6.8zm-44.4-12.93h24.94c-.26-8.36-4.31-11.49-12.02-11.49-7.83 0-11.75 3.52-12.92 11.49z"/><path d="m120.44 33.92h19.85v91.42h-19.85z"/><path d="m220.74 60.04v65.3h-19.85v-14.63c-3.66 10.32-11.1 15.93-21.55 15.93-18.68 0-28.99-13.58-28.99-33.83 0-20.5 9.79-34.09 27.69-34.09 11.1 0 19.07 5.75 22.85 16.46v-15.14zm-19.2 32.78c0-10.97-5.09-16.06-15.93-16.06-10.45 0-15.41 5.09-15.41 16.06 0 10.71 4.96 15.8 15.41 15.8 10.84 0 15.93-5.09 15.93-15.8z"/><path d="m301.84 92.82c0 21.03-16.19 33.83-35.52 33.83s-35.52-12.8-35.52-33.83c0-21.16 16.2-34.09 35.52-34.09 19.33.01 35.52 12.93 35.52 34.09zm-19.85 0c0-10.97-4.96-16.06-15.67-16.06s-15.67 5.09-15.67 16.06c0 10.71 4.96 15.8 15.67 15.8s15.67-5.09 15.67-15.8z"/><path d="m302.19 125.36h59.96v15.85h-59.96z"/></g></svg>