<?xml version="1.0" encoding="utf-8"?>
<!-- Generator: Adobe Illustrator 25.4.1, SVG Export Plug-In . SVG Version: 6.00 Build 0)  -->
<svg version="1.1" id="Calque_1" xmlns="http://www.w3.org/2000/svg" xmlns:xlink="http://www.w3.org/1999/xlink" x="0px" y="0px"
	 viewBox="0 0 104 73" style="enable-background:new 0 0 104 73;" xml:space="preserve">
<style type="text/css">
	.st0{fill-rule:evenodd;clip-rule:evenodd;fill:#FFFFFF;}
	.st1{fill:#FFFFFF;}
</style>
<path class="st0" d="M5.9,71.7L5.3,70h-3l-0.6,1.7c0,0.1,0,0.1-0.1,0.1c0,0.1,0,0.1-0.1,0.2c-0.1,0-0.1,0-0.2,0.1
	c-0.1,0-0.1,0-0.2,0c-0.1,0-0.1,0-0.2,0s-0.1,0-0.2-0.1c0,0,0,0-0.1-0.1c-0.1,0-0.1,0-0.1-0.1c-0.1-0.1-0.1-0.1-0.1-0.2
	c0,0,0,0,0-0.1c-0.1-0.1-0.1-0.1,0-0.2c0-0.1,0-0.1,0-0.1l2.8-7.4c0-0.1,0-0.1,0-0.1c0-0.1,0-0.1,0.1-0.1c0-0.1,0-0.1,0-0.1
	c0.1,0,0.1,0,0.1-0.1c0.1,0,0.1,0,0.1,0c0.1,0,0.1,0,0.1,0c0.1-0.1,0.1-0.1,0.1-0.1c0.1,0,0.1,0,0.1,0c0.1,0,0.1,0,0.2,0
	c0.1,0.1,0.2,0.1,0.2,0.1c0.1,0.1,0.1,0.1,0.2,0.2c0.1,0.1,0.1,0.1,0.1,0.2l2.8,7.4c0,0,0,0,0,0.1c0,0.1,0,0.1,0,0.2
	c0,0.1,0,0.1,0,0.1c-0.1,0.1-0.1,0.1-0.1,0.2c-0.1,0.1-0.1,0.1-0.1,0.1C7.1,72,7,72,6.9,72c-0.1,0.1-0.1,0.1-0.1,0.1
	c-0.1,0-0.1,0-0.2,0s-0.1,0-0.2,0s-0.1,0-0.2-0.1S6.1,71.9,6,71.9C6,71.8,5.9,71.8,5.9,71.7z M2.8,68.7h2l-1-2.7L2.8,68.7z"/>
<path class="st1" d="M13.4,65.4c-0.1,0.1-0.3,0.3-0.4,0.5c-0.1,0.1-0.2,0.3-0.3,0.5c-0.1,0.2-0.1,0.4-0.2,0.6c0,0.2,0,0.4,0,0.6
	s0,0.4,0,0.6c0.1,0.2,0.1,0.4,0.2,0.6c0.1,0.2,0.2,0.4,0.3,0.5c0.1,0.2,0.3,0.4,0.4,0.5s0.3,0.3,0.5,0.4c0.1,0.1,0.3,0.1,0.5,0.2
	c0.2,0.1,0.4,0.2,0.6,0.2c0.2,0.1,0.4,0.1,0.6,0.1s0.4,0,0.5-0.1c0.2,0,0.4,0,0.6-0.1c0.1-0.1,0.3-0.1,0.5-0.2
	c0.1-0.1,0.3-0.2,0.5-0.3c0-0.1,0-0.1,0.1-0.1c0,0,0,0,0.1,0s0.1,0,0.1,0c0.1-0.1,0.1-0.1,0.2,0c0.1,0,0.1,0,0.1,0
	c0.1,0,0.1,0,0.2,0c0,0.1,0,0.1,0.1,0.1c0,0.1,0,0.1,0.1,0.1c0,0.1,0,0.1,0,0.1c0.1,0.1,0.1,0.1,0.1,0.2c0,0,0,0,0,0.1s0,0.1,0,0.2
	c0,0,0,0,0,0.1s0,0.1-0.1,0.1c0,0.1,0,0.1-0.1,0.1c0,0.1,0,0.1,0,0.1c-0.3,0.2-0.5,0.4-0.7,0.5c-0.2,0.1-0.4,0.2-0.7,0.3
	C17,72,16.7,72,16.4,72.1c-0.3,0-0.5,0-0.8,0s-0.5,0-0.8-0.1c-0.3-0.1-0.6-0.1-0.9-0.2c-0.3-0.1-0.5-0.3-0.8-0.5
	c-0.2-0.1-0.4-0.3-0.6-0.5c-0.5-0.5-0.8-1-1-1.5c-0.3-0.5-0.4-1.1-0.4-1.7c0-0.6,0.1-1.2,0.4-1.7c0.2-0.6,0.5-1.1,1-1.5
	c0.2-0.2,0.4-0.4,0.7-0.6c0.2-0.1,0.4-0.3,0.7-0.4c0.3-0.1,0.6-0.2,0.9-0.3c0.3,0,0.6,0,0.9,0c0.3,0,0.5,0,0.8,0
	c0.3,0.1,0.5,0.1,0.7,0.2c0.3,0.1,0.5,0.2,0.8,0.3c0.2,0.1,0.4,0.3,0.6,0.5c0.1,0,0.1,0,0.1,0.1c0,0,0,0,0.1,0.1c0,0,0,0,0,0.1
	c0.1,0.1,0.1,0.1,0.1,0.1c0,0.1,0,0.2-0.1,0.3c0,0.1,0,0.2-0.1,0.3c-0.1,0.1-0.1,0.1-0.2,0.2c-0.1,0-0.2,0-0.3,0c0,0.1,0,0.1-0.1,0
	c-0.1,0-0.1,0-0.1,0c-0.1,0-0.1,0-0.2,0c0-0.1,0-0.1-0.1-0.1c-0.3-0.3-0.6-0.5-1-0.6c-0.4-0.1-0.8-0.1-1.2-0.1s-0.8,0.1-1.1,0.3
	C14,64.9,13.7,65.1,13.4,65.4z"/>
<path class="st1" d="M29.5,63.5C29.5,63.6,29.5,63.6,29.5,63.5c0.1,0.2,0.1,0.2,0.1,0.2c0,0.1,0,0.1,0,0.2c0.1,0,0.1,0,0.1,0.1
	c0,0.1,0,0.1-0.1,0.1c0,0.1,0,0.1,0,0.2c0,0,0,0-0.1,0.1c0,0.1,0,0.1,0,0.1c-0.1,0-0.1,0-0.2,0.1c0,0,0,0-0.1,0.1c0,0,0,0-0.1,0
	s-0.1,0-0.1,0h-2v6.7c0,0.2-0.1,0.4-0.2,0.5c-0.1,0.1-0.3,0.2-0.5,0.2c-0.2,0-0.4-0.1-0.5-0.2c-0.1-0.1-0.2-0.3-0.2-0.5v-6.7h-2
	c-0.1,0-0.1,0-0.1,0c-0.1,0-0.1,0-0.2,0c0-0.1,0-0.1-0.1-0.1c-0.1,0-0.1,0-0.1-0.1c0,0,0,0-0.1-0.1c0-0.1,0-0.1-0.1-0.1
	c0-0.1,0-0.1,0-0.2c0,0,0,0,0-0.1c0-0.1,0-0.2,0-0.3c0.1-0.1,0.1-0.1,0.2-0.2c0.1-0.1,0.1-0.1,0.2-0.1c0.1-0.1,0.2-0.1,0.3-0.1H29
	c0,0,0,0,0.1,0s0.1,0,0.1,0.1c0.1,0,0.1,0,0.2,0C29.4,63.5,29.5,63.5,29.5,63.5z"/>
<path class="st1" d="M34.3,64c0-0.1,0-0.2,0.1-0.3c0.1-0.1,0.1-0.1,0.1-0.2c0.1-0.1,0.2-0.1,0.3-0.1c0.1-0.1,0.1-0.1,0.2-0.1
	c0.1,0,0.1,0,0.2,0c0,0,0,0,0.1,0.1c0.1,0,0.1,0,0.1,0c0.1,0.1,0.1,0.1,0.1,0.1c0.1,0.1,0.1,0.1,0.1,0.1c0.1,0.1,0.1,0.1,0.1,0.1
	c0,0.1,0,0.1,0,0.2c0.1,0,0.1,0,0,0.1v7.4c0.1,0.1,0.1,0.1,0,0.1c0,0.1,0,0.1,0,0.2c0,0,0,0-0.1,0.1c0,0,0,0-0.1,0.1
	c0,0,0,0-0.1,0.1c0,0,0,0-0.1,0c-0.1,0.1-0.1,0.1-0.1,0.1c-0.1,0-0.1,0-0.2,0c-0.1,0-0.1,0-0.2-0.1c-0.1,0-0.2,0-0.2-0.1
	c-0.1-0.1-0.1-0.1-0.2-0.2c0-0.1,0-0.2-0.1-0.3L34.3,64z"/>
<path class="st1" d="M43.6,72L43.6,72C43.6,72,43.5,72,43.6,72L43.6,72L43.6,72l-0.2-0.1v-0.1v-0.1l-3.1-7.3c0-0.1,0-0.1,0-0.1
	c0-0.1,0-0.1,0-0.2c0,0,0,0,0-0.1c0-0.1,0-0.1,0-0.1c0-0.1,0-0.1,0.1-0.2c0,0,0,0,0.1-0.1c0,0,0,0,0.1,0c0-0.1,0-0.1,0.1-0.1
	s0.1,0,0.1,0c0.1-0.1,0.1-0.1,0.2-0.1c0,0,0,0,0.1,0.1c0,0,0,0,0.1,0s0.1,0,0.1,0.1c0.1,0,0.1,0,0.1,0c0.1,0.1,0.1,0.1,0.1,0.2
	c0.1,0,0.1,0,0.1,0.1l2.4,5.8l2.5-5.8c0-0.1,0-0.1,0.1-0.1c0-0.1,0-0.1,0-0.2c0.1,0,0.1,0,0.1,0c0.1-0.1,0.1-0.1,0.2-0.1
	c0,0,0,0,0.1,0c0.1-0.1,0.1-0.1,0.1-0.1c0.1,0,0.1,0,0.2,0.1c0,0,0,0,0.1,0c0.1,0,0.1,0,0.1,0.1c0.1,0,0.1,0,0.1,0
	c0.1,0.1,0.1,0.1,0.1,0.1c0,0.1,0,0.1,0.1,0.2c0,0,0,0,0,0.1c0,0.1,0,0.1,0,0.1c0,0.1,0,0.1,0,0.2c0,0,0,0,0,0.1l-3.1,7.3l-0.1,0.1
	L44.5,72h-0.1l-0.2,0.1h-0.3h-0.1L43.6,72z"/>
<path class="st1" d="M52.6,64c0-0.1,0-0.2,0.1-0.3c0-0.1,0-0.1,0.1-0.2c0.1-0.1,0.1-0.1,0.2-0.1c0.1-0.1,0.2-0.1,0.3-0.1
	s0.1,0,0.1,0c0.1,0,0.1,0,0.2,0.1c0,0,0,0,0.1,0c0.1,0.1,0.1,0.1,0.1,0.1c0.1,0.1,0.1,0.1,0.1,0.1c0,0.1,0,0.1,0.1,0.1
	c0,0.1,0,0.1,0,0.2c0,0,0,0,0,0.1v7.4c0,0.1,0,0.1,0,0.1c0,0.1,0,0.1,0,0.2c-0.1,0-0.1,0-0.1,0.1c0,0,0,0-0.1,0.1c0,0,0,0-0.1,0.1
	c-0.1,0-0.1,0-0.1,0c-0.1,0.1-0.1,0.1-0.2,0.1c0,0,0,0-0.1,0s-0.2,0-0.3-0.1c-0.1,0-0.1,0-0.2-0.1c-0.1-0.1-0.1-0.1-0.1-0.2
	c-0.1-0.1-0.1-0.2-0.1-0.3V64z"/>
<path class="st1" d="M60.2,66.2v5.2c0,0.1,0,0.1,0,0.2c0,0,0,0,0,0.1c0,0,0,0-0.1,0.1c0,0.1,0,0.1-0.1,0.1c0,0,0,0-0.1,0.1
	c0,0,0,0-0.1,0.1c0,0,0,0-0.1,0s-0.1,0-0.2,0c-0.1,0-0.1,0-0.2,0c-0.1-0.1-0.1-0.1-0.2-0.2s-0.1-0.1-0.2-0.2c0-0.1,0-0.2,0-0.3v-7.3
	c0-0.1,0-0.1,0-0.1c0-0.1,0-0.1,0-0.2c0-0.1,0-0.1,0.1-0.1c0-0.1,0-0.1,0.1-0.1c0.1-0.1,0.1-0.1,0.1-0.1c0.1,0,0.1,0,0.2-0.1
	c0,0,0,0,0.1,0s0.1,0,0.2,0c0,0,0,0,0.1,0.1c0.1,0,0.1,0,0.1,0c0.1,0.1,0.1,0.1,0.1,0.1c0.1,0,0.1,0,0.1,0.1l4,5.6v-5.2
	c0.1-0.1,0.1-0.1,0.1-0.2c0.1-0.1,0.1-0.1,0.2-0.2c0-0.1,0.1-0.1,0.2-0.2c0.1,0,0.1,0,0.2,0s0.1,0,0.2,0c0,0,0,0,0.1,0
	s0.1,0,0.1,0.1c0.1,0,0.1,0,0.1,0.1c0.1,0,0.1,0,0.1,0.1c0,0,0,0,0.1,0.1c0,0,0,0,0,0.1c0,0.1,0,0.1,0,0.1v7.3c0,0.1,0,0.1,0,0.2
	c0,0,0,0,0,0.1c-0.1,0.1-0.1,0.1-0.1,0.1c0,0.1,0,0.1-0.1,0.1c0,0.1,0,0.1-0.1,0.1s-0.1,0-0.1,0.1c-0.1,0-0.1,0-0.2,0c0,0,0,0-0.1,0
	s-0.1,0-0.1,0c-0.1,0-0.1,0-0.2,0c0-0.1,0-0.1-0.1-0.1c0-0.1,0-0.1-0.1-0.1l-0.1-0.1L60.2,66.2z"/>
<path class="st1" d="M72.5,66.2v5.2c0,0.1,0,0.1-0.1,0.2c0,0,0,0,0,0.1c0,0,0,0-0.1,0.1c0,0.1,0,0.1,0,0.1c-0.1,0-0.1,0-0.1,0.1
	c-0.1,0-0.1,0-0.2,0.1c0,0,0,0-0.1,0s-0.1,0-0.1,0c-0.1,0-0.1,0-0.2,0c0,0,0,0-0.1,0c0-0.1,0-0.1-0.1-0.1s-0.1,0-0.1-0.1
	c0,0,0,0-0.1-0.1c0-0.1,0-0.1-0.1-0.1c0-0.1,0-0.1,0-0.1c0-0.1,0-0.1,0-0.2v-7.3c0-0.1,0-0.1,0-0.1c0-0.1,0-0.1,0-0.2
	c0.1-0.1,0.1-0.1,0.1-0.1c0.1-0.1,0.1-0.1,0.2-0.1c0-0.1,0-0.1,0.1-0.1c0,0,0,0,0.1-0.1c0.1,0,0.1,0,0.2,0c0,0,0,0,0.1,0
	s0.1,0,0.1,0.1c0.1,0,0.1,0,0.1,0c0.1,0.1,0.1,0.1,0.2,0.1c0,0,0,0,0,0.1l4.1,5.6v-5.2c0-0.1,0-0.1,0-0.2c0.1-0.1,0.1-0.1,0.2-0.2
	s0.1-0.1,0.2-0.2c0.1,0,0.2,0,0.3,0c0,0,0,0,0.1,0s0.1,0,0.1,0c0.1,0,0.1,0,0.1,0.1c0.1,0,0.1,0,0.2,0.1c0,0,0,0,0,0.1
	c0.1,0,0.1,0,0.1,0.1c0,0,0,0,0,0.1c0.1,0.1,0.1,0.1,0.1,0.1v7.3c0,0.1,0,0.1-0.1,0.2c0,0,0,0,0,0.1s0,0.1-0.1,0.1
	c0,0.1,0,0.1,0,0.1C77.6,72,77.5,72,77.4,72c0,0,0,0-0.1,0.1c0,0,0,0-0.1,0s-0.1,0-0.1,0c-0.1,0-0.1,0-0.2,0s-0.1,0-0.1,0
	C76.8,72,76.7,72,76.7,72c-0.1-0.1-0.1-0.1-0.1-0.1l-0.1-0.1L72.5,66.2z"/>
<path class="st0" d="M84.1,70.8c-0.4-0.5-0.7-1-0.9-1.5c-0.3-0.5-0.4-1.1-0.4-1.7s0.1-1.2,0.4-1.7c0.2-0.5,0.5-1,0.9-1.5
	c0.4-0.4,0.9-0.7,1.4-1c0.5-0.2,1.1-0.3,1.6-0.3c0.6,0,1.2,0.1,1.7,0.3c0.5,0.3,1,0.6,1.4,1c0.2,0.2,0.4,0.4,0.5,0.7
	c0.1,0.3,0.3,0.5,0.4,0.8c0.1,0.3,0.2,0.5,0.2,0.8c0.1,0.3,0.1,0.6,0.1,0.9c0,0.3,0,0.5-0.1,0.8c0,0.3-0.1,0.6-0.2,0.9
	c-0.1,0.3-0.3,0.5-0.4,0.8c-0.2,0.2-0.4,0.4-0.6,0.6c-0.1,0.1-0.2,0.2-0.3,0.3c-0.1,0.1-0.2,0.2-0.3,0.3c-0.1,0.1-0.2,0.1-0.3,0.2
	c-0.1,0.1-0.3,0.2-0.4,0.2c-0.1,0.1-0.3,0.1-0.4,0.2S88.2,72,88,72c-0.1,0.1-0.3,0.1-0.4,0.1c-0.1,0-0.3,0-0.5,0
	c-0.3,0-0.5,0-0.8-0.1s-0.5-0.1-0.8-0.2c-0.3-0.1-0.5-0.3-0.8-0.5C84.5,71.2,84.3,71,84.1,70.8L84.1,70.8z M84.3,67.6
	c0,0.2,0,0.4,0,0.6c0.1,0.2,0.1,0.4,0.2,0.6c0.1,0.1,0.1,0.3,0.2,0.5c0.1,0.1,0.3,0.3,0.4,0.5c0.1,0.1,0.3,0.2,0.4,0.3
	c0.1,0.1,0.3,0.2,0.5,0.3c0.2,0.1,0.4,0.1,0.5,0.2c0.2,0.1,0.4,0.1,0.6,0.1c0.2,0,0.4,0,0.6-0.1c0.1-0.1,0.3-0.1,0.5-0.2
	s0.4-0.2,0.5-0.3c0.1-0.1,0.3-0.2,0.4-0.3c0.3-0.3,0.5-0.7,0.6-1.1c0.1-0.3,0.2-0.7,0.2-1.1c0-0.4-0.1-0.8-0.2-1.2
	c-0.1-0.3-0.3-0.7-0.6-1c-0.1-0.1-0.3-0.3-0.4-0.4c-0.1-0.1-0.3-0.2-0.5-0.3c-0.2-0.1-0.4-0.1-0.5-0.1c-0.2-0.1-0.4-0.1-0.6-0.1
	s-0.4,0-0.6,0.1c-0.1,0-0.3,0-0.5,0.1c-0.2,0.1-0.4,0.2-0.5,0.3c-0.1,0.1-0.3,0.3-0.4,0.4c-0.1,0.1-0.3,0.3-0.4,0.5
	c-0.1,0.1-0.1,0.3-0.2,0.5s-0.1,0.4-0.2,0.6C84.3,67.2,84.3,67.4,84.3,67.6z"/>
<path class="st1" d="M99.4,72C99.4,72,99.4,72,99.4,72L99.4,72L99.4,72L99.4,72l-0.2-0.1v-0.1l0,0l0,0c0-0.1,0-0.1,0-0.1l0,0
	l-3.1-7.3c0-0.1,0-0.1,0-0.1c0-0.1,0-0.1,0-0.2c0,0,0,0,0-0.1c0-0.1,0-0.1,0-0.1c0-0.1,0-0.1,0.1-0.2c0,0,0,0,0.1-0.1c0,0,0,0,0.1,0
	c0-0.1,0-0.1,0.1-0.1s0.1,0,0.1,0c0.1-0.1,0.1-0.1,0.1-0.1c0.1,0,0.1,0,0.2,0.1c0,0,0,0,0.1,0s0.1,0,0.1,0.1c0.1,0,0.1,0,0.1,0
	c0.1,0.1,0.1,0.1,0.1,0.2c0.1,0,0.1,0,0.1,0.1l2.4,5.8l2.5-5.8c0-0.1,0-0.1,0-0.1c0.1-0.1,0.1-0.1,0.1-0.2c0.1,0,0.1,0,0.1,0
	c0.1-0.1,0.1-0.1,0.2-0.1c0,0,0,0,0.1,0c0.1-0.1,0.1-0.1,0.1-0.1c0.1,0,0.1,0,0.2,0.1c0,0,0,0,0.1,0c0,0,0,0,0.1,0.1
	c0.1,0,0.1,0,0.1,0c0.1,0.1,0.1,0.1,0.1,0.1c0,0.1,0,0.1,0,0.2c0.1,0,0.1,0,0.1,0.1s0,0.1,0,0.1c0,0.1,0,0.1,0,0.2c0,0,0,0-0.1,0.1
	l-3.1,7.3v0.1l-0.1,0.2h-0.1l-0.2,0.1h-0.5h-0.1L99.4,72z"/>
<path class="st1" d="M78.5,18.7c-0.2-0.5-0.5-1.1-0.8-1.6c-0.3-0.5-0.7-0.9-1.2-1.2L56.1,1.1c-0.5-0.3-1.1-0.6-1.6-0.8
	S53.4,0,52.8,0S51.6,0.1,51,0.3c-0.5,0.2-1,0.5-1.5,0.8L29,15.9c-0.5,0.3-0.9,0.7-1.2,1.2c-0.3,0.5-0.6,1.1-0.8,1.6
	c-0.2,0.6-0.3,1.2-0.3,1.8s0.1,1.2,0.3,1.7l7.8,24c0.1,0.6,0.4,1.1,0.8,1.6c0.3,0.5,0.7,0.9,1.2,1.2c0.5,0.4,1.1,0.7,1.6,0.8
	c0.6,0.2,1.2,0.3,1.7,0.3h25.3c0.5,0,1.1-0.1,1.7-0.3c0.5-0.1,1.1-0.4,1.6-0.8c0.5-0.3,0.9-0.7,1.2-1.2c0.4-0.5,0.7-1,0.8-1.6
	l7.8-24c0.2-0.5,0.3-1.1,0.3-1.7S78.7,19.3,78.5,18.7z M58.5,36l-5.1-12.8c-0.5,1.2-1.3,3.2-2.6,6.4h3.6l0.3,1.1h-4.4
	c-1,2.5-2.1,5.3-2.1,5.3h-1.3l6.4-15.9l0.7,1.5h0l0,0l0,0.1l0,0L59.8,36H58.5z M61.3,36l-8-19.9l-8,19.9H44l8.7-21.5h1.2L62.6,36
	H61.3z"/>
</svg>
