<svg version="1.1" id="Layer_1" xmlns="http://www.w3.org/2000/svg" xmlns:xlink="http://www.w3.org/1999/xlink" x="0px" y="0px"
	 width="100%" viewBox="0 0 650 650" enable-background="new 0 0 650 650" xml:space="preserve">
<path fill="#FFFFFF" opacity="1.000000" stroke="none"
	d="
M646.045776,282.603943
	C646.085144,310.477264 645.908813,337.958405 646.042297,365.437988
	C646.097961,376.894897 641.421570,385.025970 631.417969,390.677185
	C609.413513,403.107971 587.360168,415.482544 565.788452,428.637177
	C553.691406,436.014038 542.549133,436.568390 530.656250,428.284729
	C529.063477,427.473358 527.838684,426.726013 526.116455,425.614502
	C522.064392,423.253052 518.509888,421.255798 514.955322,419.258514
	C513.887085,418.848724 512.818848,418.438965 511.338043,417.592651
	C507.957001,415.421295 504.988525,413.686432 502.020050,411.951599
	C489.711182,404.729736 477.488495,397.355316 465.065643,390.335083
	C455.416504,384.882294 450.893555,376.898621 450.956696,365.855011
	C451.095642,341.548035 450.989899,317.239685 450.989075,292.029327
	C450.942444,288.749451 450.890808,286.372131 450.839172,283.994812
	C450.892609,283.551056 450.946045,283.107300 451.025452,281.959656
	C451.811005,278.470825 452.570587,275.685822 453.330170,272.900848
	C457.777130,268.828613 462.224060,264.756378 467.212585,260.355194
	C474.508759,256.020203 481.263306,252.014145 488.017853,248.008118
	C495.492065,243.763474 502.966278,239.518814 511.004395,234.999359
	C512.378784,234.151993 513.189270,233.579422 514.342529,232.964142
	C516.042358,232.055557 517.399231,231.189682 519.071960,230.235901
	C524.435303,227.272278 529.558167,224.519852 534.514221,221.494339
	C543.786255,215.834106 552.935547,215.877731 562.282166,221.349380
	C571.440125,226.710556 580.728455,231.848801 589.959595,237.084885
	C603.996948,245.281784 617.966919,253.597198 632.097534,261.630005
	C640.236023,266.256470 644.948059,272.918030 646.045776,282.603943
M597.065674,325.500000
	C597.071167,317.676819 596.955017,309.850739 597.143982,302.031982
	C597.216064,299.046295 596.380127,297.306671 593.629211,295.766998
	C580.145569,288.220154 566.705811,280.580078 553.495300,272.569305
	C549.682983,270.257538 546.992737,270.418335 543.339966,272.681976
	C534.729797,278.017639 525.824707,282.877136 517.044922,287.939575
	C511.546143,291.110199 506.058167,294.299622 499.972046,297.824219
	C511.886871,304.741852 522.960022,311.425171 534.277954,317.664459
	C544.004883,323.026672 548.671326,330.993561 548.600586,342.002808
	C548.524658,353.820038 548.587524,365.638275 548.617920,377.455994
	C548.621033,378.669891 548.816040,379.883270 548.982483,381.788879
	C564.956421,372.582397 580.344116,363.766876 595.626709,354.772766
	C596.536804,354.237152 596.982178,352.275238 597.001892,350.967346
	C597.124817,342.813080 597.064758,334.656097 597.065674,325.500000
z"/>
<path fill="#FFFFFF" opacity="1.000000" stroke="none"
	d="
M346.476868,421.545471
	C347.387482,421.905884 347.952026,422.335938 348.576721,422.457886
	C354.261505,423.567932 356.219910,426.876038 354.190033,433.047852
	C339.546539,433.047852 324.541718,433.047852 308.831421,433.052429
	C307.130737,433.019867 306.135529,432.982758 305.094116,432.701355
	C305.047852,432.457031 304.873993,431.991119 304.957672,431.560028
	C304.984955,429.084839 304.928528,427.040710 304.872131,424.996613
	C304.872131,424.996613 305.039673,424.603333 305.450500,424.384583
	C310.612030,422.447266 315.378632,420.769623 320.087585,418.943420
	C320.533447,418.770508 320.617798,417.665314 320.869995,416.992950
	C320.924347,414.291870 320.978668,411.590790 321.033722,408.014343
	C320.980103,405.091705 320.925751,403.044373 320.871399,400.997070
	C320.925201,394.639893 320.979034,388.282684 321.034271,381.040771
	C320.980438,378.436798 320.925232,376.717499 320.869995,374.998230
	C320.456573,372.674988 320.051178,370.350250 319.625183,368.029297
	C319.481689,367.247620 319.043365,366.438660 319.154968,365.705322
	C319.704926,362.090942 320.394287,358.497772 321.039368,354.007202
	C320.991150,350.409943 320.937988,347.702606 320.884827,344.995239
	C320.884827,330.198914 320.884827,315.402557 320.884827,300.066010
	C315.804138,300.066010 310.746979,300.066010 305.946014,300.066010
	C305.555573,299.249146 305.309143,298.968475 305.299835,298.680145
	C304.967102,288.350952 305.122742,287.985168 315.296997,286.390411
	C318.871765,285.830109 322.627472,285.841339 326.237061,286.211243
	C333.106415,286.915192 335.906464,289.611053 338.299744,296.264343
	C343.900482,293.211426 349.268494,288.825409 355.367706,287.223358
	C377.225403,281.482086 403.159302,292.760468 406.966309,323.752106
	C408.345367,334.978577 407.528656,345.954987 403.118744,356.560760
	C398.261322,368.242859 389.119843,375.614227 378.155884,380.660461
	C373.525604,382.791626 367.935852,382.838226 362.019318,383.877167
	C360.503082,383.995056 359.749756,384.068115 358.996429,384.141174
	C356.953522,384.066315 354.910583,383.991455 352.092285,383.856171
	C349.875824,383.608032 348.434753,383.420288 346.993652,383.232513
	C344.455017,382.690125 341.916412,382.147766 338.979279,381.520233
	C338.979279,387.987915 338.979279,394.030121 338.979614,400.996429
	C338.972809,405.582306 339.352600,409.296539 338.865326,412.893280
	C338.182190,417.935638 340.295197,420.259460 345.020508,420.834320
	C345.399902,421.046967 345.779297,421.259583 346.476868,421.545471
M365.170288,300.692688
	C356.382690,300.156403 348.221649,301.787201 341.574249,307.996765
	C340.360229,309.130829 339.085022,310.971954 339.069946,312.498871
	C338.895630,330.146210 338.958649,347.795837 338.958649,365.836090
	C343.356567,366.825317 347.496460,367.994568 351.715637,368.663879
	C368.927643,371.394318 383.306152,362.926208 387.584930,347.298889
	C390.096344,338.126587 390.149292,328.714417 386.804871,319.754425
	C383.194916,310.083008 376.757172,302.983185 365.170288,300.692688
z"/>
<path fill="#FFFFFF" opacity="1.000000" stroke="none"
	d="
M199.708710,335.989807
	C199.764313,333.291992 199.819901,330.594147 199.881958,327.146454
	C199.831451,325.344971 199.774460,324.293396 199.717468,323.241791
	C199.765732,319.111847 199.813995,314.981934 199.866943,310.059021
	C199.811996,308.507355 199.752380,307.748596 199.692780,306.989868
	C199.748550,306.547760 199.804321,306.105652 199.871552,305.004852
	C199.830154,303.894653 199.777283,303.443115 199.724396,302.991608
	C198.651001,302.261841 197.613922,300.975555 196.497665,300.902679
	C192.548691,300.644958 188.572632,300.802277 184.323212,300.802277
	C184.189056,299.650452 184.032654,298.873566 184.017761,298.093994
	C183.827316,288.131561 184.418701,287.454895 194.378922,286.125122
	C211.942200,283.780243 217.681824,288.795746 217.735168,306.517487
	C217.779770,321.333405 217.581177,336.155792 217.961761,350.963226
	C218.321350,364.954926 224.385483,370.122498 238.306030,368.817352
	C241.736984,368.495667 245.233917,367.685577 248.446213,366.442719
	C258.890564,362.401703 260.991791,359.104980 260.985474,348.063904
	C260.976562,332.452698 260.983215,316.841522 260.983215,300.841827
	C255.654938,300.841827 250.727646,300.841827 245.113342,300.841827
	C245.113342,297.396576 244.944366,294.294098 245.210052,291.229340
	C245.296616,290.230804 246.428848,288.596954 247.232956,288.500061
	C254.401062,287.636719 261.617432,286.428802 268.789734,286.596680
	C273.927521,286.716919 276.782928,291.050293 277.836792,295.947906
	C278.496368,299.013031 278.802551,302.209564 278.816650,305.349152
	C278.903076,324.660889 278.861053,343.973206 278.861755,363.285309
	C278.861816,365.082031 278.861755,366.878784 278.861755,369.086731
	C280.873779,369.086731 282.488007,369.086731 284.993896,369.089050
	C288.635010,369.091400 291.384430,369.091400 294.582306,369.091400
	C294.582306,373.002594 294.582306,376.422729 294.582306,379.842865
	C290.164246,384.258728 284.410065,383.745728 278.028351,384.092896
	C275.444519,384.056335 273.722473,384.023529 272.000397,383.990723
	C266.957672,384.009033 261.277618,377.404663 260.851379,371.142120
	C258.399048,372.652924 256.312683,373.938263 253.769348,375.692200
	C248.875946,378.405640 244.439468,380.650513 239.628235,382.882538
	C237.836227,383.264404 236.418945,383.659180 234.550125,383.995575
	C231.064056,384.012421 228.029541,384.087616 224.592773,384.067871
	C221.906631,383.586548 219.622726,383.200165 217.101822,382.547241
	C209.526505,379.943359 205.199295,374.480499 201.943420,367.905579
	C201.312454,364.888641 200.681488,361.871704 200.004852,357.964783
	C199.875687,350.046478 199.792191,343.018127 199.708710,335.989807
z"/>
<path fill="#FFFFFF" opacity="1.000000" stroke="none"
	d="
M20.095757,380.955872
	C17.431093,378.997986 14.766436,377.040100 11.809866,374.946777
	C-1.521787,355.254578 8.138486,335.817535 32.989731,332.087891
	C44.151196,330.412811 55.414085,329.413513 66.648766,328.105530
	C66.648766,324.087646 67.159431,320.207947 66.553535,316.511261
	C64.695778,305.176727 59.266941,300.363312 47.826973,300.919739
	C36.981533,301.447266 26.190769,303.098846 14.787635,304.319092
	C14.067103,301.841858 12.966978,298.059570 11.749625,293.874268
	C20.070644,289.380859 29.014280,287.296936 37.976711,286.525238
	C46.338161,285.805267 55.039948,285.953949 63.269192,287.470978
	C77.278473,290.053497 84.733566,300.229584 84.880363,315.151062
	C85.042587,331.640961 84.941444,348.133484 84.954758,364.624847
	C84.955811,365.926483 84.954903,367.228149 84.954903,368.946106
	C90.169434,368.946106 95.096107,368.946106 100.810265,368.946106
	C100.810265,371.940552 100.810265,374.529938 100.800026,377.914795
	C99.407135,379.873505 98.144531,381.830353 96.620773,382.060883
	C90.457649,382.993286 84.214104,383.394073 77.621849,383.929260
	C72.891731,383.181183 69.947891,380.772064 68.378265,376.337769
	C67.925423,374.684021 67.501274,373.338715 67.081375,372.006927
	C63.824505,374.751434 60.922276,377.197083 57.665947,379.763733
	C53.208893,381.296631 49.105942,382.708527 45.002991,384.120422
	C41.968037,384.092804 38.933083,384.065125 35.029846,384.013702
	C29.472963,382.978577 24.784361,381.967224 20.095757,380.955872
M64.513321,362.804108
	C65.352943,361.670776 66.871986,360.564545 66.918434,359.399567
	C67.161850,353.294342 67.032204,347.174255 67.032204,340.617157
	C58.932812,341.476562 51.335705,342.079010 43.807175,343.159332
	C39.422962,343.788422 34.943069,344.684448 30.877111,346.360229
	C25.848122,348.432983 23.618847,353.055695 24.124857,358.035004
	C24.626701,362.973358 27.803341,366.768127 33.196537,368.014221
	C44.004669,370.511414 54.295612,369.117950 64.513321,362.804108
z"/>
<path fill="#FFFFFF" opacity="1.000000" stroke="none"
	d="
M111.773560,375.994720
	C113.431740,374.670868 114.895874,372.873932 116.780067,372.101105
	C127.780243,367.589050 127.812683,367.670105 127.812019,355.743347
	C127.811142,340.081635 127.811699,324.419952 127.811646,308.758240
	C127.811638,307.131958 127.811638,305.505646 127.811638,303.420471
	C122.790291,303.420471 118.194962,303.420471 113.034348,303.420471
	C113.034348,300.360626 112.696678,297.692139 113.157677,295.169617
	C113.446365,293.589935 114.722298,291.181091 115.921700,290.935730
	C126.341347,288.804474 128.478271,282.584045 128.136826,272.485535
	C127.506325,253.838379 135.681366,243.341599 152.983536,237.862610
	C155.143509,237.440140 156.578934,237.128571 158.014359,236.817017
	C160.703323,236.793320 163.392303,236.769608 166.929764,236.821198
	C169.181732,236.964600 170.585205,237.032715 171.988678,237.100800
	C177.070847,239.291611 182.153000,241.482422 187.560791,243.813614
	C185.442490,247.930389 183.873596,250.979446 182.623276,253.409378
	C176.028397,252.834091 169.966644,251.778534 163.928528,251.899719
	C154.427963,252.090424 148.991943,257.149384 147.106689,266.486267
	C146.646927,268.763214 146.218231,271.082153 146.143784,273.393677
	C145.994492,278.029633 146.099442,282.673828 146.099442,287.705322
	C155.908981,287.705322 165.647842,287.705322 175.753357,287.705322
	C175.753357,292.946838 175.753357,297.812469 175.753357,303.129608
	C166.074478,303.129608 156.344818,303.129608 145.952072,303.129608
	C145.952072,305.314056 145.951828,307.067749 145.952103,308.821442
	C145.954941,326.623810 146.152405,344.429749 145.823242,362.225983
	C145.741486,366.646271 146.908051,368.915955 151.141556,369.905792
	C153.520844,370.462128 155.780457,371.530426 158.774353,372.668396
	C164.363693,374.995087 161.083572,378.753540 161.776398,381.751343
	C144.898865,381.751343 128.483063,381.751343 112.090775,381.751343
	C111.974678,379.644501 111.874123,377.819611 111.773560,375.994720
z"/>
</svg>
