<svg xmlns="http://www.w3.org/2000/svg" xmlns:xlink="http://www.w3.org/1999/xlink" width="1920" zoomAndPan="magnify" viewBox="0 0 1440 809.999993" height="1080" preserveAspectRatio="xMidYMid meet" version="1.0"><defs><g/><clipPath id="1a89267a66"><path d="M 31.371094 162.015625 L 483.480469 162.015625 L 483.480469 614.125 L 31.371094 614.125 Z M 31.371094 162.015625 " clip-rule="nonzero"/></clipPath><clipPath id="a790ea9a3a"><path d="M 257.425781 162.015625 C 132.578125 162.015625 31.371094 263.226562 31.371094 388.070312 C 31.371094 512.917969 132.578125 614.125 257.425781 614.125 C 382.273438 614.125 483.480469 512.917969 483.480469 388.070312 C 483.480469 263.226562 382.273438 162.015625 257.425781 162.015625 Z M 257.425781 162.015625 " clip-rule="nonzero"/></clipPath></defs><rect x="-144" width="1728" fill="transparent" y="-80.999999" height="971.999992" fill-opacity="1"/><rect x="-144" width="1728" fill="transparent" y="-80.999999" height="971.999992" fill-opacity="1"/><g fill="#FFFFFF" fill-opacity="1"><g transform="translate(545.793027, 346.821799)"><g><path d="M 29.578125 -89.65625 C 31.304688 -90.664062 33.921875 -91.628906 37.421875 -92.546875 C 40.929688 -93.460938 44.46875 -93.921875 48.03125 -93.921875 C 53.113281 -93.921875 57.609375 -93.179688 61.515625 -91.703125 C 65.429688 -90.234375 67.945312 -87.921875 69.0625 -84.765625 C 70.894531 -79.484375 72.878906 -73.332031 75.015625 -66.3125 C 77.148438 -59.300781 79.285156 -52.0625 81.421875 -44.59375 C 83.554688 -37.125 85.640625 -29.753906 87.671875 -22.484375 C 89.703125 -15.222656 91.476562 -8.796875 93 -3.203125 C 91.78125 -1.773438 89.953125 -0.628906 87.515625 0.234375 C 85.078125 1.097656 82.179688 1.53125 78.828125 1.53125 C 76.390625 1.53125 74.332031 1.328125 72.65625 0.921875 C 70.976562 0.515625 69.601562 -0.09375 68.53125 -0.90625 C 67.46875 -1.726562 66.601562 -2.796875 65.9375 -4.109375 C 65.28125 -5.429688 64.695312 -6.957031 64.1875 -8.6875 L 61.4375 -19.21875 L 33.84375 -19.21875 C 33.03125 -16.164062 32.21875 -13.007812 31.40625 -9.75 C 30.59375 -6.5 29.78125 -3.351562 28.96875 -0.3125 C 27.539062 0.195312 26.039062 0.628906 24.46875 0.984375 C 22.894531 1.347656 20.988281 1.53125 18.75 1.53125 C 13.570312 1.53125 9.734375 0.640625 7.234375 -1.140625 C 4.742188 -2.921875 3.5 -5.382812 3.5 -8.53125 C 3.5 -9.957031 3.703125 -11.378906 4.109375 -12.796875 C 4.515625 -14.222656 4.972656 -15.90625 5.484375 -17.84375 C 6.203125 -20.582031 7.195312 -23.984375 8.46875 -28.046875 C 9.738281 -32.117188 11.132812 -36.515625 12.65625 -41.234375 C 14.175781 -45.960938 15.800781 -50.816406 17.53125 -55.796875 C 19.257812 -60.785156 20.882812 -65.488281 22.40625 -69.90625 C 23.9375 -74.332031 25.335938 -78.269531 26.609375 -81.71875 C 27.878906 -85.175781 28.867188 -87.820312 29.578125 -89.65625 Z M 47.875 -69.984375 C 46.445312 -65.710938 44.84375 -60.957031 43.0625 -55.71875 C 41.289062 -50.488281 39.691406 -45.179688 38.265625 -39.796875 L 57.171875 -39.796875 C 55.753906 -45.285156 54.304688 -50.644531 52.828125 -55.875 C 51.359375 -61.113281 50.015625 -65.816406 48.796875 -69.984375 Z M 47.875 -69.984375 "/></g></g></g><g fill="#FFFFFF" fill-opacity="1"><g transform="translate(641.393394, 346.821799)"><g><path d="M 54.890625 -46.953125 C 54.890625 -50.109375 54 -52.421875 52.21875 -53.890625 C 50.4375 -55.367188 48.023438 -56.109375 44.984375 -56.109375 C 42.941406 -56.109375 40.929688 -55.851562 38.953125 -55.34375 C 36.972656 -54.832031 35.269531 -54.070312 33.84375 -53.0625 L 33.84375 -0.15625 C 32.832031 0.15625 31.234375 0.460938 29.046875 0.765625 C 26.859375 1.066406 24.597656 1.21875 22.265625 1.21875 C 20.023438 1.21875 18.015625 1.066406 16.234375 0.765625 C 14.453125 0.460938 12.953125 -0.144531 11.734375 -1.0625 C 10.515625 -1.976562 9.570312 -3.222656 8.90625 -4.796875 C 8.25 -6.378906 7.921875 -8.441406 7.921875 -10.984375 L 7.921875 -56.71875 C 7.921875 -59.457031 8.503906 -61.691406 9.671875 -63.421875 C 10.847656 -65.148438 12.453125 -66.726562 14.484375 -68.15625 C 17.941406 -70.59375 22.285156 -72.570312 27.515625 -74.09375 C 32.753906 -75.625 38.578125 -76.390625 44.984375 -76.390625 C 56.460938 -76.390625 65.300781 -73.875 71.5 -68.84375 C 77.707031 -63.8125 80.8125 -56.820312 80.8125 -47.875 L 80.8125 -0.15625 C 79.789062 0.15625 78.1875 0.460938 76 0.765625 C 73.820312 1.066406 71.5625 1.21875 69.21875 1.21875 C 66.976562 1.21875 64.96875 1.066406 63.1875 0.765625 C 61.414062 0.460938 59.921875 -0.144531 58.703125 -1.0625 C 57.484375 -1.976562 56.539062 -3.222656 55.875 -4.796875 C 55.21875 -6.378906 54.890625 -8.441406 54.890625 -10.984375 Z M 54.890625 -46.953125 "/></g></g></g><g fill="#FFFFFF" fill-opacity="1"><g transform="translate(730.284961, 346.821799)"><g><path d="M 70.4375 -22.109375 C 70.4375 -14.378906 67.539062 -8.328125 61.75 -3.953125 C 55.957031 0.410156 47.421875 2.59375 36.140625 2.59375 C 31.867188 2.59375 27.898438 2.285156 24.234375 1.671875 C 20.578125 1.066406 17.453125 0.128906 14.859375 -1.140625 C 12.273438 -2.410156 10.242188 -4.007812 8.765625 -5.9375 C 7.296875 -7.875 6.5625 -10.164062 6.5625 -12.8125 C 6.5625 -15.25 7.066406 -17.304688 8.078125 -18.984375 C 9.097656 -20.660156 10.316406 -22.054688 11.734375 -23.171875 C 14.679688 -21.546875 18.0625 -20.097656 21.875 -18.828125 C 25.6875 -17.554688 30.082031 -16.921875 35.0625 -16.921875 C 38.21875 -16.921875 40.632812 -17.378906 42.3125 -18.296875 C 43.988281 -19.210938 44.828125 -20.429688 44.828125 -21.953125 C 44.828125 -23.378906 44.21875 -24.5 43 -25.3125 C 41.78125 -26.125 39.742188 -26.785156 36.890625 -27.296875 L 32.328125 -28.203125 C 23.484375 -29.929688 16.898438 -32.648438 12.578125 -36.359375 C 8.253906 -40.066406 6.09375 -45.378906 6.09375 -52.296875 C 6.09375 -56.054688 6.90625 -59.460938 8.53125 -62.515625 C 10.164062 -65.566406 12.457031 -68.109375 15.40625 -70.140625 C 18.351562 -72.171875 21.882812 -73.742188 26 -74.859375 C 30.113281 -75.984375 34.660156 -76.546875 39.640625 -76.546875 C 43.398438 -76.546875 46.929688 -76.265625 50.234375 -75.703125 C 53.535156 -75.140625 56.40625 -74.296875 58.84375 -73.171875 C 61.289062 -72.054688 63.222656 -70.609375 64.640625 -68.828125 C 66.066406 -67.054688 66.78125 -64.953125 66.78125 -62.515625 C 66.78125 -60.171875 66.347656 -58.160156 65.484375 -56.484375 C 64.617188 -54.804688 63.523438 -53.410156 62.203125 -52.296875 C 61.390625 -52.804688 60.171875 -53.335938 58.546875 -53.890625 C 56.921875 -54.453125 55.140625 -54.960938 53.203125 -55.421875 C 51.273438 -55.878906 49.320312 -56.257812 47.34375 -56.5625 C 45.363281 -56.863281 43.554688 -57.015625 41.921875 -57.015625 C 38.566406 -57.015625 35.972656 -56.632812 34.140625 -55.875 C 32.316406 -55.113281 31.40625 -53.921875 31.40625 -52.296875 C 31.40625 -51.179688 31.910156 -50.265625 32.921875 -49.546875 C 33.941406 -48.835938 35.878906 -48.175781 38.734375 -47.5625 L 43.453125 -46.5 C 53.210938 -44.269531 60.148438 -41.195312 64.265625 -37.28125 C 68.378906 -33.363281 70.4375 -28.304688 70.4375 -22.109375 Z M 70.4375 -22.109375 "/></g></g></g><g fill="#FFFFFF" fill-opacity="1"><g transform="translate(805.301528, 346.821799)"><g><path d="M 39.640625 -16.46875 C 41.367188 -16.46875 43.273438 -16.644531 45.359375 -17 C 47.441406 -17.351562 48.992188 -17.835938 50.015625 -18.453125 L 50.015625 -30.640625 L 39.03125 -29.734375 C 36.1875 -29.523438 33.847656 -28.910156 32.015625 -27.890625 C 30.191406 -26.878906 29.28125 -25.359375 29.28125 -23.328125 C 29.28125 -21.296875 30.066406 -19.644531 31.640625 -18.375 C 33.210938 -17.101562 35.878906 -16.46875 39.640625 -16.46875 Z M 38.421875 -76.390625 C 43.910156 -76.390625 48.914062 -75.828125 53.4375 -74.703125 C 57.957031 -73.585938 61.816406 -71.882812 65.015625 -69.59375 C 68.222656 -67.3125 70.691406 -64.414062 72.421875 -60.90625 C 74.148438 -57.40625 75.015625 -53.265625 75.015625 -48.484375 L 75.015625 -14.328125 C 75.015625 -11.691406 74.273438 -9.535156 72.796875 -7.859375 C 71.328125 -6.179688 69.578125 -4.726562 67.546875 -3.5 C 60.941406 0.457031 51.640625 2.4375 39.640625 2.4375 C 34.253906 2.4375 29.398438 1.925781 25.078125 0.90625 C 20.753906 -0.101562 17.039062 -1.625 13.9375 -3.65625 C 10.84375 -5.6875 8.457031 -8.273438 6.78125 -11.421875 C 5.101562 -14.578125 4.265625 -18.238281 4.265625 -22.40625 C 4.265625 -29.425781 6.347656 -34.816406 10.515625 -38.578125 C 14.679688 -42.335938 21.140625 -44.675781 29.890625 -45.59375 L 49.859375 -47.71875 L 49.859375 -48.796875 C 49.859375 -51.742188 48.5625 -53.847656 45.96875 -55.109375 C 43.375 -56.378906 39.640625 -57.015625 34.765625 -57.015625 C 30.898438 -57.015625 27.132812 -56.609375 23.46875 -55.796875 C 19.8125 -54.984375 16.507812 -53.96875 13.5625 -52.75 C 12.25 -53.664062 11.132812 -55.0625 10.21875 -56.9375 C 9.300781 -58.820312 8.84375 -60.78125 8.84375 -62.8125 C 8.84375 -65.457031 9.476562 -67.566406 10.75 -69.140625 C 12.019531 -70.710938 13.976562 -72.0625 16.625 -73.1875 C 19.570312 -74.300781 23.050781 -75.113281 27.0625 -75.625 C 31.070312 -76.132812 34.859375 -76.390625 38.421875 -76.390625 Z M 38.421875 -76.390625 "/></g></g></g><g fill="#FFFFFF" fill-opacity="1"><g transform="translate(888.246654, 346.821799)"><g><path d="M 33.84375 -0.15625 C 32.832031 0.15625 31.234375 0.460938 29.046875 0.765625 C 26.859375 1.066406 24.597656 1.21875 22.265625 1.21875 C 20.023438 1.21875 18.015625 1.066406 16.234375 0.765625 C 14.453125 0.460938 12.953125 -0.144531 11.734375 -1.0625 C 10.515625 -1.976562 9.570312 -3.222656 8.90625 -4.796875 C 8.25 -6.378906 7.921875 -8.441406 7.921875 -10.984375 L 7.921875 -56.71875 C 7.921875 -59.050781 8.351562 -61.054688 9.21875 -62.734375 C 10.082031 -64.410156 11.328125 -65.910156 12.953125 -67.234375 C 14.585938 -68.554688 16.597656 -69.75 18.984375 -70.8125 C 21.367188 -71.882812 23.929688 -72.828125 26.671875 -73.640625 C 29.421875 -74.453125 32.269531 -75.085938 35.21875 -75.546875 C 38.164062 -76.003906 41.113281 -76.234375 44.0625 -76.234375 C 48.9375 -76.234375 52.796875 -75.289062 55.640625 -73.40625 C 58.492188 -71.53125 59.921875 -68.457031 59.921875 -64.1875 C 59.921875 -62.769531 59.71875 -61.375 59.3125 -60 C 58.90625 -58.625 58.394531 -57.378906 57.78125 -56.265625 C 55.644531 -56.265625 53.457031 -56.160156 51.21875 -55.953125 C 48.988281 -55.753906 46.804688 -55.453125 44.671875 -55.046875 C 42.535156 -54.640625 40.523438 -54.207031 38.640625 -53.75 C 36.765625 -53.289062 35.164062 -52.753906 33.84375 -52.140625 Z M 33.84375 -0.15625 "/></g></g></g><g fill="#FFFFFF" fill-opacity="1"><g transform="translate(950.912941, 346.821799)"><g><path d="M 39.640625 -16.46875 C 41.367188 -16.46875 43.273438 -16.644531 45.359375 -17 C 47.441406 -17.351562 48.992188 -17.835938 50.015625 -18.453125 L 50.015625 -30.640625 L 39.03125 -29.734375 C 36.1875 -29.523438 33.847656 -28.910156 32.015625 -27.890625 C 30.191406 -26.878906 29.28125 -25.359375 29.28125 -23.328125 C 29.28125 -21.296875 30.066406 -19.644531 31.640625 -18.375 C 33.210938 -17.101562 35.878906 -16.46875 39.640625 -16.46875 Z M 38.421875 -76.390625 C 43.910156 -76.390625 48.914062 -75.828125 53.4375 -74.703125 C 57.957031 -73.585938 61.816406 -71.882812 65.015625 -69.59375 C 68.222656 -67.3125 70.691406 -64.414062 72.421875 -60.90625 C 74.148438 -57.40625 75.015625 -53.265625 75.015625 -48.484375 L 75.015625 -14.328125 C 75.015625 -11.691406 74.273438 -9.535156 72.796875 -7.859375 C 71.328125 -6.179688 69.578125 -4.726562 67.546875 -3.5 C 60.941406 0.457031 51.640625 2.4375 39.640625 2.4375 C 34.253906 2.4375 29.398438 1.925781 25.078125 0.90625 C 20.753906 -0.101562 17.039062 -1.625 13.9375 -3.65625 C 10.84375 -5.6875 8.457031 -8.273438 6.78125 -11.421875 C 5.101562 -14.578125 4.265625 -18.238281 4.265625 -22.40625 C 4.265625 -29.425781 6.347656 -34.816406 10.515625 -38.578125 C 14.679688 -42.335938 21.140625 -44.675781 29.890625 -45.59375 L 49.859375 -47.71875 L 49.859375 -48.796875 C 49.859375 -51.742188 48.5625 -53.847656 45.96875 -55.109375 C 43.375 -56.378906 39.640625 -57.015625 34.765625 -57.015625 C 30.898438 -57.015625 27.132812 -56.609375 23.46875 -55.796875 C 19.8125 -54.984375 16.507812 -53.96875 13.5625 -52.75 C 12.25 -53.664062 11.132812 -55.0625 10.21875 -56.9375 C 9.300781 -58.820312 8.84375 -60.78125 8.84375 -62.8125 C 8.84375 -65.457031 9.476562 -67.566406 10.75 -69.140625 C 12.019531 -70.710938 13.976562 -72.0625 16.625 -73.1875 C 19.570312 -74.300781 23.050781 -75.113281 27.0625 -75.625 C 31.070312 -76.132812 34.859375 -76.390625 38.421875 -76.390625 Z M 38.421875 -76.390625 "/></g></g></g><g fill="#FFFFFF" fill-opacity="1"><g transform="translate(545.793027, 514.071791)"><g><path d="M 44.515625 -49.546875 C 48.785156 -49.546875 52.0625 -50.535156 54.34375 -52.515625 C 56.632812 -54.503906 57.78125 -57.53125 57.78125 -61.59375 C 57.78125 -65.457031 56.585938 -68.429688 54.203125 -70.515625 C 51.816406 -72.597656 48.335938 -73.640625 43.765625 -73.640625 C 42.128906 -73.640625 40.773438 -73.613281 39.703125 -73.5625 C 38.640625 -73.507812 37.550781 -73.382812 36.4375 -73.1875 L 36.4375 -49.546875 Z M 36.59375 -0.609375 C 35.476562 -0.304688 33.722656 -0.00390625 31.328125 0.296875 C 28.941406 0.609375 26.582031 0.765625 24.25 0.765625 C 21.90625 0.765625 19.84375 0.582031 18.0625 0.21875 C 16.289062 -0.132812 14.789062 -0.765625 13.5625 -1.671875 C 12.34375 -2.585938 11.425781 -3.859375 10.8125 -5.484375 C 10.207031 -7.109375 9.90625 -9.242188 9.90625 -11.890625 L 9.90625 -83.703125 C 9.90625 -85.835938 10.488281 -87.488281 11.65625 -88.65625 C 12.832031 -89.820312 14.4375 -90.765625 16.46875 -91.484375 C 19.925781 -92.703125 23.863281 -93.585938 28.28125 -94.140625 C 32.707031 -94.703125 37.15625 -94.984375 41.625 -94.984375 C 55.65625 -94.984375 66.378906 -91.984375 73.796875 -85.984375 C 81.210938 -79.992188 84.921875 -71.863281 84.921875 -61.59375 C 84.921875 -56.613281 84.132812 -52.113281 82.5625 -48.09375 C 80.988281 -44.082031 78.648438 -40.628906 75.546875 -37.734375 C 72.441406 -34.835938 68.523438 -32.601562 63.796875 -31.03125 C 59.078125 -29.457031 53.617188 -28.671875 47.421875 -28.671875 L 36.59375 -28.671875 Z M 36.59375 -0.609375 "/></g></g></g><g fill="#FFFFFF" fill-opacity="1"><g transform="translate(634.379643, 514.071791)"><g><path d="M 81.109375 -0.15625 C 80.097656 0.15625 78.5 0.460938 76.3125 0.765625 C 74.125 1.066406 71.863281 1.21875 69.53125 1.21875 C 67.289062 1.21875 65.28125 1.066406 63.5 0.765625 C 61.71875 0.460938 60.21875 -0.144531 59 -1.0625 C 57.78125 -1.976562 56.835938 -3.222656 56.171875 -4.796875 C 55.515625 -6.378906 55.1875 -8.441406 55.1875 -10.984375 L 55.1875 -44.828125 C 55.1875 -48.992188 54.144531 -51.914062 52.0625 -53.59375 C 49.976562 -55.269531 47.414062 -56.109375 44.375 -56.109375 C 42.332031 -56.109375 40.394531 -55.851562 38.5625 -55.34375 C 36.738281 -54.832031 35.269531 -54.222656 34.15625 -53.515625 L 34.15625 -0.15625 C 33.132812 0.15625 31.53125 0.460938 29.34375 0.765625 C 27.164062 1.066406 24.90625 1.21875 22.5625 1.21875 C 20.332031 1.21875 18.328125 1.066406 16.546875 0.765625 C 14.765625 0.460938 13.265625 -0.144531 12.046875 -1.0625 C 10.828125 -1.976562 9.882812 -3.222656 9.21875 -4.796875 C 8.5625 -6.378906 8.234375 -8.441406 8.234375 -10.984375 L 8.234375 -99.40625 C 9.347656 -99.613281 11 -99.894531 13.1875 -100.25 C 15.375 -100.601562 17.585938 -100.78125 19.828125 -100.78125 C 22.054688 -100.78125 24.0625 -100.625 25.84375 -100.3125 C 27.625 -100.007812 29.125 -99.398438 30.34375 -98.484375 C 31.5625 -97.578125 32.5 -96.332031 33.15625 -94.75 C 33.820312 -93.175781 34.15625 -91.117188 34.15625 -88.578125 L 34.15625 -73.640625 C 35.476562 -74.148438 37.484375 -74.734375 40.171875 -75.390625 C 42.867188 -76.054688 45.84375 -76.390625 49.09375 -76.390625 C 59.15625 -76.390625 67.003906 -73.875 72.640625 -68.84375 C 78.285156 -63.8125 81.109375 -56.3125 81.109375 -46.34375 Z M 81.109375 -0.15625 "/></g></g></g><g fill="#FFFFFF" fill-opacity="1"><g transform="translate(723.576148, 514.071791)"><g><path d="M 39.640625 -16.46875 C 41.367188 -16.46875 43.273438 -16.644531 45.359375 -17 C 47.441406 -17.351562 48.992188 -17.835938 50.015625 -18.453125 L 50.015625 -30.640625 L 39.03125 -29.734375 C 36.1875 -29.523438 33.847656 -28.910156 32.015625 -27.890625 C 30.191406 -26.878906 29.28125 -25.359375 29.28125 -23.328125 C 29.28125 -21.296875 30.066406 -19.644531 31.640625 -18.375 C 33.210938 -17.101562 35.878906 -16.46875 39.640625 -16.46875 Z M 38.421875 -76.390625 C 43.910156 -76.390625 48.914062 -75.828125 53.4375 -74.703125 C 57.957031 -73.585938 61.816406 -71.882812 65.015625 -69.59375 C 68.222656 -67.3125 70.691406 -64.414062 72.421875 -60.90625 C 74.148438 -57.40625 75.015625 -53.265625 75.015625 -48.484375 L 75.015625 -14.328125 C 75.015625 -11.691406 74.273438 -9.535156 72.796875 -7.859375 C 71.328125 -6.179688 69.578125 -4.726562 67.546875 -3.5 C 60.941406 0.457031 51.640625 2.4375 39.640625 2.4375 C 34.253906 2.4375 29.398438 1.925781 25.078125 0.90625 C 20.753906 -0.101562 17.039062 -1.625 13.9375 -3.65625 C 10.84375 -5.6875 8.457031 -8.273438 6.78125 -11.421875 C 5.101562 -14.578125 4.265625 -18.238281 4.265625 -22.40625 C 4.265625 -29.425781 6.347656 -34.816406 10.515625 -38.578125 C 14.679688 -42.335938 21.140625 -44.675781 29.890625 -45.59375 L 49.859375 -47.71875 L 49.859375 -48.796875 C 49.859375 -51.742188 48.5625 -53.847656 45.96875 -55.109375 C 43.375 -56.378906 39.640625 -57.015625 34.765625 -57.015625 C 30.898438 -57.015625 27.132812 -56.609375 23.46875 -55.796875 C 19.8125 -54.984375 16.507812 -53.96875 13.5625 -52.75 C 12.25 -53.664062 11.132812 -55.0625 10.21875 -56.9375 C 9.300781 -58.820312 8.84375 -60.78125 8.84375 -62.8125 C 8.84375 -65.457031 9.476562 -67.566406 10.75 -69.140625 C 12.019531 -70.710938 13.976562 -72.0625 16.625 -73.1875 C 19.570312 -74.300781 23.050781 -75.113281 27.0625 -75.625 C 31.070312 -76.132812 34.859375 -76.390625 38.421875 -76.390625 Z M 38.421875 -76.390625 "/></g></g></g><g fill="#FFFFFF" fill-opacity="1"><g transform="translate(806.521285, 514.071791)"><g><path d="M 33.84375 -0.15625 C 32.832031 0.15625 31.234375 0.460938 29.046875 0.765625 C 26.859375 1.066406 24.597656 1.21875 22.265625 1.21875 C 20.023438 1.21875 18.015625 1.066406 16.234375 0.765625 C 14.453125 0.460938 12.953125 -0.144531 11.734375 -1.0625 C 10.515625 -1.976562 9.570312 -3.222656 8.90625 -4.796875 C 8.25 -6.378906 7.921875 -8.441406 7.921875 -10.984375 L 7.921875 -56.71875 C 7.921875 -59.050781 8.351562 -61.054688 9.21875 -62.734375 C 10.082031 -64.410156 11.328125 -65.910156 12.953125 -67.234375 C 14.585938 -68.554688 16.597656 -69.75 18.984375 -70.8125 C 21.367188 -71.882812 23.929688 -72.828125 26.671875 -73.640625 C 29.421875 -74.453125 32.269531 -75.085938 35.21875 -75.546875 C 38.164062 -76.003906 41.113281 -76.234375 44.0625 -76.234375 C 48.9375 -76.234375 52.796875 -75.289062 55.640625 -73.40625 C 58.492188 -71.53125 59.921875 -68.457031 59.921875 -64.1875 C 59.921875 -62.769531 59.71875 -61.375 59.3125 -60 C 58.90625 -58.625 58.394531 -57.378906 57.78125 -56.265625 C 55.644531 -56.265625 53.457031 -56.160156 51.21875 -55.953125 C 48.988281 -55.753906 46.804688 -55.453125 44.671875 -55.046875 C 42.535156 -54.640625 40.523438 -54.207031 38.640625 -53.75 C 36.765625 -53.289062 35.164062 -52.753906 33.84375 -52.140625 Z M 33.84375 -0.15625 "/></g></g></g><g fill="#FFFFFF" fill-opacity="1"><g transform="translate(869.187549, 514.071791)"><g><path d="M 43.453125 -76.390625 C 47.617188 -76.390625 51.707031 -75.800781 55.71875 -74.625 C 59.738281 -73.457031 63.222656 -71.707031 66.171875 -69.375 C 69.222656 -71.40625 72.65625 -73.082031 76.46875 -74.40625 C 80.28125 -75.726562 84.878906 -76.390625 90.265625 -76.390625 C 94.128906 -76.390625 97.914062 -75.878906 101.625 -74.859375 C 105.332031 -73.847656 108.632812 -72.25 111.53125 -70.0625 C 114.425781 -67.875 116.738281 -64.972656 118.46875 -61.359375 C 120.195312 -57.753906 121.0625 -53.363281 121.0625 -48.1875 L 121.0625 -0.15625 C 120.039062 0.15625 118.4375 0.460938 116.25 0.765625 C 114.070312 1.066406 111.8125 1.21875 109.46875 1.21875 C 107.238281 1.21875 105.234375 1.066406 103.453125 0.765625 C 101.671875 0.460938 100.171875 -0.144531 98.953125 -1.0625 C 97.734375 -1.976562 96.789062 -3.222656 96.125 -4.796875 C 95.46875 -6.378906 95.140625 -8.441406 95.140625 -10.984375 L 95.140625 -47.421875 C 95.140625 -50.460938 94.273438 -52.671875 92.546875 -54.046875 C 90.816406 -55.421875 88.476562 -56.109375 85.53125 -56.109375 C 84.113281 -56.109375 82.585938 -55.773438 80.953125 -55.109375 C 79.328125 -54.453125 78.109375 -53.769531 77.296875 -53.0625 C 77.398438 -52.65625 77.453125 -52.269531 77.453125 -51.90625 C 77.453125 -51.550781 77.453125 -51.222656 77.453125 -50.921875 L 77.453125 -0.15625 C 76.335938 0.15625 74.6875 0.460938 72.5 0.765625 C 70.3125 1.066406 68.097656 1.21875 65.859375 1.21875 C 63.628906 1.21875 61.625 1.066406 59.84375 0.765625 C 58.0625 0.460938 56.5625 -0.144531 55.34375 -1.0625 C 54.125 -1.976562 53.179688 -3.222656 52.515625 -4.796875 C 51.859375 -6.378906 51.53125 -8.441406 51.53125 -10.984375 L 51.53125 -47.421875 C 51.53125 -50.460938 50.585938 -52.671875 48.703125 -54.046875 C 46.828125 -55.421875 44.566406 -56.109375 41.921875 -56.109375 C 40.097656 -56.109375 38.523438 -55.828125 37.203125 -55.265625 C 35.878906 -54.710938 34.757812 -54.179688 33.84375 -53.671875 L 33.84375 -0.15625 C 32.832031 0.15625 31.234375 0.460938 29.046875 0.765625 C 26.859375 1.066406 24.597656 1.21875 22.265625 1.21875 C 20.023438 1.21875 18.015625 1.066406 16.234375 0.765625 C 14.453125 0.460938 12.953125 -0.144531 11.734375 -1.0625 C 10.515625 -1.976562 9.570312 -3.222656 8.90625 -4.796875 C 8.25 -6.378906 7.921875 -8.441406 7.921875 -10.984375 L 7.921875 -57.015625 C 7.921875 -59.765625 8.503906 -61.953125 9.671875 -63.578125 C 10.847656 -65.203125 12.453125 -66.726562 14.484375 -68.15625 C 17.941406 -70.59375 22.234375 -72.570312 27.359375 -74.09375 C 32.492188 -75.625 37.859375 -76.390625 43.453125 -76.390625 Z M 43.453125 -76.390625 "/></g></g></g><g fill="#FFFFFF" fill-opacity="1"><g transform="translate(998.17942, 514.071791)"><g><path d="M 39.640625 -16.46875 C 41.367188 -16.46875 43.273438 -16.644531 45.359375 -17 C 47.441406 -17.351562 48.992188 -17.835938 50.015625 -18.453125 L 50.015625 -30.640625 L 39.03125 -29.734375 C 36.1875 -29.523438 33.847656 -28.910156 32.015625 -27.890625 C 30.191406 -26.878906 29.28125 -25.359375 29.28125 -23.328125 C 29.28125 -21.296875 30.066406 -19.644531 31.640625 -18.375 C 33.210938 -17.101562 35.878906 -16.46875 39.640625 -16.46875 Z M 38.421875 -76.390625 C 43.910156 -76.390625 48.914062 -75.828125 53.4375 -74.703125 C 57.957031 -73.585938 61.816406 -71.882812 65.015625 -69.59375 C 68.222656 -67.3125 70.691406 -64.414062 72.421875 -60.90625 C 74.148438 -57.40625 75.015625 -53.265625 75.015625 -48.484375 L 75.015625 -14.328125 C 75.015625 -11.691406 74.273438 -9.535156 72.796875 -7.859375 C 71.328125 -6.179688 69.578125 -4.726562 67.546875 -3.5 C 60.941406 0.457031 51.640625 2.4375 39.640625 2.4375 C 34.253906 2.4375 29.398438 1.925781 25.078125 0.90625 C 20.753906 -0.101562 17.039062 -1.625 13.9375 -3.65625 C 10.84375 -5.6875 8.457031 -8.273438 6.78125 -11.421875 C 5.101562 -14.578125 4.265625 -18.238281 4.265625 -22.40625 C 4.265625 -29.425781 6.347656 -34.816406 10.515625 -38.578125 C 14.679688 -42.335938 21.140625 -44.675781 29.890625 -45.59375 L 49.859375 -47.71875 L 49.859375 -48.796875 C 49.859375 -51.742188 48.5625 -53.847656 45.96875 -55.109375 C 43.375 -56.378906 39.640625 -57.015625 34.765625 -57.015625 C 30.898438 -57.015625 27.132812 -56.609375 23.46875 -55.796875 C 19.8125 -54.984375 16.507812 -53.96875 13.5625 -52.75 C 12.25 -53.664062 11.132812 -55.0625 10.21875 -56.9375 C 9.300781 -58.820312 8.84375 -60.78125 8.84375 -62.8125 C 8.84375 -65.457031 9.476562 -67.566406 10.75 -69.140625 C 12.019531 -70.710938 13.976562 -72.0625 16.625 -73.1875 C 19.570312 -74.300781 23.050781 -75.113281 27.0625 -75.625 C 31.070312 -76.132812 34.859375 -76.390625 38.421875 -76.390625 Z M 38.421875 -76.390625 "/></g></g></g><g fill="#FFFFFF" fill-opacity="1"><g transform="translate(1081.124545, 514.071791)"><g><path d="M 49.703125 -55.953125 C 47.160156 -55.953125 44.742188 -55.546875 42.453125 -54.734375 C 40.171875 -53.921875 38.191406 -52.726562 36.515625 -51.15625 C 34.835938 -49.582031 33.488281 -47.625 32.46875 -45.28125 C 31.457031 -42.945312 30.953125 -40.203125 30.953125 -37.046875 C 30.953125 -30.742188 32.753906 -26.015625 36.359375 -22.859375 C 39.972656 -19.710938 44.367188 -18.140625 49.546875 -18.140625 C 52.597656 -18.140625 55.238281 -18.492188 57.46875 -19.203125 C 59.707031 -19.921875 61.691406 -20.6875 63.421875 -21.5 C 65.453125 -20.070312 66.976562 -18.519531 68 -16.84375 C 69.019531 -15.164062 69.53125 -13.160156 69.53125 -10.828125 C 69.53125 -6.660156 67.546875 -3.429688 63.578125 -1.140625 C 59.617188 1.140625 54.128906 2.28125 47.109375 2.28125 C 40.703125 2.28125 34.90625 1.34375 29.71875 -0.53125 C 24.539062 -2.414062 20.097656 -5.054688 16.390625 -8.453125 C 12.679688 -11.859375 9.804688 -15.953125 7.765625 -20.734375 C 5.734375 -25.515625 4.71875 -30.800781 4.71875 -36.59375 C 4.71875 -43.300781 5.8125 -49.171875 8 -54.203125 C 10.1875 -59.234375 13.160156 -63.375 16.921875 -66.625 C 20.679688 -69.875 25.023438 -72.3125 29.953125 -73.9375 C 34.890625 -75.570312 40.101562 -76.390625 45.59375 -76.390625 C 52.90625 -76.390625 58.539062 -75.066406 62.5 -72.421875 C 66.46875 -69.773438 68.453125 -66.367188 68.453125 -62.203125 C 68.453125 -60.273438 67.992188 -58.472656 67.078125 -56.796875 C 66.171875 -55.117188 65.109375 -53.671875 63.890625 -52.453125 C 62.160156 -53.265625 60.070312 -54.050781 57.625 -54.8125 C 55.1875 -55.570312 52.546875 -55.953125 49.703125 -55.953125 Z M 49.703125 -55.953125 "/></g></g></g><g fill="#FFFFFF" fill-opacity="1"><g transform="translate(1155.683669, 514.071791)"><g><path d="M 39.640625 -16.46875 C 41.367188 -16.46875 43.273438 -16.644531 45.359375 -17 C 47.441406 -17.351562 48.992188 -17.835938 50.015625 -18.453125 L 50.015625 -30.640625 L 39.03125 -29.734375 C 36.1875 -29.523438 33.847656 -28.910156 32.015625 -27.890625 C 30.191406 -26.878906 29.28125 -25.359375 29.28125 -23.328125 C 29.28125 -21.296875 30.066406 -19.644531 31.640625 -18.375 C 33.210938 -17.101562 35.878906 -16.46875 39.640625 -16.46875 Z M 38.421875 -76.390625 C 43.910156 -76.390625 48.914062 -75.828125 53.4375 -74.703125 C 57.957031 -73.585938 61.816406 -71.882812 65.015625 -69.59375 C 68.222656 -67.3125 70.691406 -64.414062 72.421875 -60.90625 C 74.148438 -57.40625 75.015625 -53.265625 75.015625 -48.484375 L 75.015625 -14.328125 C 75.015625 -11.691406 74.273438 -9.535156 72.796875 -7.859375 C 71.328125 -6.179688 69.578125 -4.726562 67.546875 -3.5 C 60.941406 0.457031 51.640625 2.4375 39.640625 2.4375 C 34.253906 2.4375 29.398438 1.925781 25.078125 0.90625 C 20.753906 -0.101562 17.039062 -1.625 13.9375 -3.65625 C 10.84375 -5.6875 8.457031 -8.273438 6.78125 -11.421875 C 5.101562 -14.578125 4.265625 -18.238281 4.265625 -22.40625 C 4.265625 -29.425781 6.347656 -34.816406 10.515625 -38.578125 C 14.679688 -42.335938 21.140625 -44.675781 29.890625 -45.59375 L 49.859375 -47.71875 L 49.859375 -48.796875 C 49.859375 -51.742188 48.5625 -53.847656 45.96875 -55.109375 C 43.375 -56.378906 39.640625 -57.015625 34.765625 -57.015625 C 30.898438 -57.015625 27.132812 -56.609375 23.46875 -55.796875 C 19.8125 -54.984375 16.507812 -53.96875 13.5625 -52.75 C 12.25 -53.664062 11.132812 -55.0625 10.21875 -56.9375 C 9.300781 -58.820312 8.84375 -60.78125 8.84375 -62.8125 C 8.84375 -65.457031 9.476562 -67.566406 10.75 -69.140625 C 12.019531 -70.710938 13.976562 -72.0625 16.625 -73.1875 C 19.570312 -74.300781 23.050781 -75.113281 27.0625 -75.625 C 31.070312 -76.132812 34.859375 -76.390625 38.421875 -76.390625 Z M 38.421875 -76.390625 "/></g></g></g><g fill="#FFFFFF" fill-opacity="1"><g transform="translate(1238.628794, 514.071791)"><g><path d="M 33.84375 -0.15625 C 32.832031 0.15625 31.234375 0.460938 29.046875 0.765625 C 26.859375 1.066406 24.597656 1.21875 22.265625 1.21875 C 20.023438 1.21875 18.015625 1.066406 16.234375 0.765625 C 14.453125 0.460938 12.953125 -0.144531 11.734375 -1.0625 C 10.515625 -1.976562 9.570312 -3.222656 8.90625 -4.796875 C 8.25 -6.378906 7.921875 -8.441406 7.921875 -10.984375 L 7.921875 -56.71875 C 7.921875 -59.050781 8.351562 -61.054688 9.21875 -62.734375 C 10.082031 -64.410156 11.328125 -65.910156 12.953125 -67.234375 C 14.585938 -68.554688 16.597656 -69.75 18.984375 -70.8125 C 21.367188 -71.882812 23.929688 -72.828125 26.671875 -73.640625 C 29.421875 -74.453125 32.269531 -75.085938 35.21875 -75.546875 C 38.164062 -76.003906 41.113281 -76.234375 44.0625 -76.234375 C 48.9375 -76.234375 52.796875 -75.289062 55.640625 -73.40625 C 58.492188 -71.53125 59.921875 -68.457031 59.921875 -64.1875 C 59.921875 -62.769531 59.71875 -61.375 59.3125 -60 C 58.90625 -58.625 58.394531 -57.378906 57.78125 -56.265625 C 55.644531 -56.265625 53.457031 -56.160156 51.21875 -55.953125 C 48.988281 -55.753906 46.804688 -55.453125 44.671875 -55.046875 C 42.535156 -54.640625 40.523438 -54.207031 38.640625 -53.75 C 36.765625 -53.289062 35.164062 -52.753906 33.84375 -52.140625 Z M 33.84375 -0.15625 "/></g></g></g><g fill="#FFFFFF" fill-opacity="1"><g transform="translate(1301.295036, 514.071791)"><g><path d="M 47.109375 2.4375 C 41.109375 2.4375 35.539062 1.597656 30.40625 -0.078125 C 25.28125 -1.753906 20.8125 -4.269531 17 -7.625 C 13.1875 -10.976562 10.1875 -15.195312 8 -20.28125 C 5.8125 -25.363281 4.71875 -31.304688 4.71875 -38.109375 C 4.71875 -44.828125 5.8125 -50.597656 8 -55.421875 C 10.1875 -60.253906 13.054688 -64.21875 16.609375 -67.3125 C 20.171875 -70.414062 24.238281 -72.703125 28.8125 -74.171875 C 33.382812 -75.648438 38.0625 -76.390625 42.84375 -76.390625 C 48.226562 -76.390625 53.128906 -75.570312 57.546875 -73.9375 C 61.972656 -72.3125 65.785156 -70.078125 68.984375 -67.234375 C 72.191406 -64.390625 74.679688 -60.984375 76.453125 -57.015625 C 78.234375 -53.054688 79.125 -48.738281 79.125 -44.0625 C 79.125 -40.601562 78.160156 -37.957031 76.234375 -36.125 C 74.304688 -34.300781 71.613281 -33.132812 68.15625 -32.625 L 30.5 -26.984375 C 31.613281 -23.628906 33.894531 -21.113281 37.34375 -19.4375 C 40.800781 -17.757812 44.769531 -16.921875 49.25 -16.921875 C 53.414062 -16.921875 57.351562 -17.453125 61.0625 -18.515625 C 64.769531 -19.585938 67.796875 -20.835938 70.140625 -22.265625 C 71.765625 -21.242188 73.132812 -19.816406 74.25 -17.984375 C 75.363281 -16.160156 75.921875 -14.234375 75.921875 -12.203125 C 75.921875 -7.628906 73.789062 -4.222656 69.53125 -1.984375 C 66.269531 -0.253906 62.609375 0.910156 58.546875 1.515625 C 54.484375 2.128906 50.671875 2.4375 47.109375 2.4375 Z M 42.84375 -57.484375 C 40.40625 -57.484375 38.296875 -57.078125 36.515625 -56.265625 C 34.734375 -55.453125 33.285156 -54.410156 32.171875 -53.140625 C 31.054688 -51.867188 30.21875 -50.441406 29.65625 -48.859375 C 29.09375 -47.285156 28.765625 -45.6875 28.671875 -44.0625 L 54.734375 -48.328125 C 54.429688 -50.359375 53.3125 -52.390625 51.375 -54.421875 C 49.445312 -56.460938 46.601562 -57.484375 42.84375 -57.484375 Z M 42.84375 -57.484375 "/></g></g></g><g clip-path="url(#1a89267a66)"><g clip-path="url(#a790ea9a3a)"><path fill="#1e7695" d="M 31.371094 162.015625 L 483.480469 162.015625 L 483.480469 614.125 L 31.371094 614.125 Z M 31.371094 162.015625 " fill-opacity="1" fill-rule="nonzero"/></g></g><path stroke-linecap="butt" transform="matrix(0.524606, 0, 0, 0.524305, -239.268819, 98.600252)" fill-opacity="1" fill="#ffffff" fill-rule="nonzero" stroke-linejoin="miter" d="M 874.613451 406.93219 L 1007.957585 406.93219 L 947.793379 689.746797 Z M 874.613451 406.93219 " stroke="#ffffff" stroke-width="0.25" stroke-opacity="1" stroke-miterlimit="10"/><path stroke-linecap="butt" transform="matrix(0.524606, 0, 0, 0.524305, -239.268819, 98.600252)" fill-opacity="1" fill="#ffffff" fill-rule="nonzero" stroke-linejoin="miter" d="M 777.263596 414.918946 C 777.263596 438.722757 756.541197 458.093621 731.038424 458.093621 C 705.543097 458.093621 684.783467 438.760009 684.783467 414.918946 C 684.783467 391.077883 705.49842 371.788973 731.038424 371.788973 C 756.578427 371.788973 777.263596 391.122585 777.263596 414.918946 Z M 777.263596 414.918946 " stroke="#ffffff" stroke-width="1" stroke-opacity="1" stroke-miterlimit="10"/><path stroke-linecap="butt" transform="matrix(0.524606, 0, 0, 0.524305, -239.268819, 98.600252)" fill-opacity="1" fill="#ffffff" fill-rule="nonzero" stroke-linejoin="miter" d="M 1202.620065 412.028217 C 1202.620065 435.86928 1181.860436 455.15819 1156.357663 455.15819 C 1130.862336 455.15819 1110.102706 435.832028 1110.102706 412.028217 C 1110.102706 388.231856 1130.780429 368.898244 1156.357663 368.898244 C 1181.942343 368.898244 1202.620065 388.231856 1202.620065 412.028217 Z M 1202.620065 412.028217 " stroke="#ffffff" stroke-width="1" stroke-opacity="1" stroke-miterlimit="10"/><path stroke-linecap="butt" transform="matrix(0.524606, 0, 0, 0.524305, -239.268819, 98.600252)" fill-opacity="1" fill="#ffffff" fill-rule="nonzero" stroke-linejoin="miter" d="M 989.037134 282.593597 C 989.037134 306.42721 968.322181 325.72357 942.819408 325.72357 C 917.316635 325.72357 896.557005 306.389958 896.557005 282.593597 C 896.557005 258.789786 917.279404 239.463624 942.819408 239.463624 C 968.359411 239.463624 989.037134 258.759985 989.037134 282.593597 Z M 989.037134 282.593597 " stroke="#ffffff" stroke-width="1" stroke-opacity="1" stroke-miterlimit="10"/><path stroke-linecap="butt" transform="matrix(0.524606, 0, 0, 0.524305, -239.268819, 98.600252)" fill-opacity="1" fill="#ffffff" fill-rule="nonzero" stroke-linejoin="miter" d="M 1104.667079 514.306376 C 1102.239662 554.716978 1097.042308 601.028242 1087.168826 639.457055 C 1077.518725 676.909875 1061.591592 717.737695 1034.443239 726.253424 C 995.813053 738.322963 962.380221 695.818818 947.190248 683.458717 C 978.567966 757.440515 1036.639828 764.183065 1050.139544 766.477768 C 1066.297505 769.241841 1118.501868 779.530749 1145.910834 745.43803 C 1193.73691 681.849445 1204.95813 586.790658 1205.628276 514.269125 L 1104.696863 514.269125 L 1104.659633 514.306376 Z M 1104.667079 514.306376 " stroke="#ffffff" stroke-width="1" stroke-opacity="1" stroke-miterlimit="10"/><path stroke-linecap="butt" transform="matrix(0.524606, 0, 0, 0.524305, -239.268819, 98.600252)" fill-opacity="1" fill="#ffffff" fill-rule="nonzero" stroke-linejoin="miter" d="M 947.190248 682.423121 C 947.190248 682.423121 919.892973 744.156573 879.907603 733.092829 C 866.221736 729.29316 858.217216 724.256735 847.97143 714.660708 C 799.430532 669.39994 785.893585 584.279896 781.999293 514.269125 L 682.966627 514.269125 C 687.076855 601.236852 704.619785 710.987694 778.112447 779.709557 C 821.336855 820.090358 877.621661 840.541519 945.3883 840.541519 C 1013.162385 840.541519 1067.637797 817.929761 1112.589692 779.962869 C 1117.19136 776.088696 1133.461013 760.03323 1143.260034 748.1276 C 1141.279381 748.298957 1136.789404 760.763363 1099.127206 761.977767 C 1070.713022 762.886708 1043.862511 755.376773 1028.523617 748.231904 C 993.221822 731.75922 947.138125 682.378419 947.138125 682.378419 L 947.182802 682.40822 Z M 947.190248 682.423121 " stroke="#ffffff" stroke-width="1" stroke-opacity="1" stroke-miterlimit="10"/></svg>
