<?xml version="1.0" encoding="UTF-8"?><svg id="Calque_2" xmlns="http://www.w3.org/2000/svg" viewBox="0 0 1621.72 606.57"><defs><style>.cls-1{fill:#fff;}</style></defs><g id="Calque_1-2"><path class="cls-1" d="m562.53,0H43.92C19.67.09.04,19.75,0,44v518.66c.05,24.23,19.69,43.87,43.92,43.91h518.61c24.24-.05,43.9-19.67,44-43.91V44.03c-.09-24.27-19.73-43.93-44-44.03ZM181.39,304.15c-1.1,16.54-1.34,33.33-1.59,49.63-.12,7.3-.24,14.48-.48,21.77-.37,16.91-4.62,28.23-13.63,36.62-14.11,13.51-29.68,17-47.56,11.08-12.78-4.26-28.47-14-30.54-36.38-2.68-31-4.5-71.77,5.35-111.8,12.29-49.76,58.89-89.05,111-93.55,23.65-2.22,47.47,1.63,69.21,11.18-10.77,2.68-21.1,6.87-30.69,12.45-37.47,21.74-58.03,55-61.07,99Zm171.28-6c-1.7,15.33-1.94,30.91-2.06,45.87-.12,7.42-.12,15-.49,22.63-.13,7.45-.69,14.88-1.7,22.26-3.53,21.41-22.63,36.86-45.38,36.86h-.36c-22.51-.12-41.49-16.42-44.41-37.83-3.4-25.19-2.07-51-.36-75.31.85-12.8,2.76-25.51,5.72-38,6.08-24.45,19.46-45.5,39.9-62.89,1.22-1,2.43-2.07,3.65-3l2.43-1.83c15.01-11.11,32.16-18.98,50.37-23.11,35.87-8.13,73.51-.74,103.65,20.35,9.51,6.62,18.06,14.52,25.42,23.48-22.87-12.16-48.42-13.86-75.06-4.62-35.15,12.27-57.05,38.91-61.32,75.14Zm168.38,80.8c-.38,25.83-21.63,46.47-47.46,46.09-25.3-.37-45.72-20.79-46.09-46.09v-66.3c.1-25.8,21.03-46.67,46.83-46.71,25.75.11,46.6,20.96,46.72,46.71v66.3Z"/><path class="cls-1" d="m1337.71,222.65c0-20.75-13.65-33.05-32.87-33.05s-31.9,13.26-31.9,33.25,13.26,32.47,31.9,32.47c19.8,0,32.87-12.3,32.87-32.67m0,85.53v-45.17c-9.22,9.42-22.3,14.23-36.91,14.23-28.63,0-51.69-21.34-51.69-54.39s23.26-55,51.5-55c14.8,0,27.88,4.62,37.1,14.22v-12.1h23.83v138.18l-23.83.03Z"/><path class="cls-1" d="m1467.8,170h23.82v105.15h-23.82v-12.71c-8.07,8.84-20.18,15-36.32,15-25.57,0-42.67-16.73-42.67-44.4v-63h23.82v59.77c0,16.71,8.08,25.56,24.6,25.56,17.69,0,30.57-13.84,30.57-33.45v-51.92Z"/><path class="cls-1" d="m1540.61,212.08h57.47c-2.69-15.37-12.69-22.86-27.29-22.86-16,0-26.9,8.45-30.18,22.86m-.19,19.8c3.47,15.94,15.37,24,33.25,24,11.72,0,19.8-3.08,26.71-10.76l15.38,13.65c-10.38,10.95-24.41,18.25-43.24,18.25-33.25,0-57.27-22.87-57.27-54.58s22.48-54.38,55.73-54.38c30,0,50.74,20.94,50.74,49.58-.09,4.76-.47,9.51-1.16,14.22l-80.14.02Z"/><path class="cls-1" d="m839.26,442.15l-31.9-40.74c-9.86,4.92-16.11,14.98-16.14,26,0,12.29,8.84,23.06,24.4,23.06,8.61.05,16.96-2.89,23.64-8.32m53.24,28.06h-31.35l-9.41-11.91c-10.57,9.12-24.1,14.1-38.06,14-33.82,0-47.28-25.38-47.28-43.63.06-18.96,10.96-36.21,28.06-44.4-3.84-6.15-6-11.91-6-18.83,0-15.77,10.77-31.91,37.67-31.91,14.61,0,27.29,5.39,41,14.61l-12.11,19c-8.85-6-18.84-11.34-29.22-11.34-7.3,0-11.15,3.46-11.15,9.79,0,4,3.27,10.19,9.61,18.07l30,37.87c4.41-10.19,5.95-20.75,5.18-27.1h21.71c.77,8.64-3.08,27.48-13.26,44.4l24.61,31.38Z"/><path class="cls-1" d="m1144.23,406.39v63.76h-24v-60.48c0-16.16-6.72-24.8-21.33-24.8-15.76,0-29.4,14-29.4,32.86v52.42h-24v-60.48c0-16.16-6.74-24.8-21.53-24.8-15.57,0-29.4,14-29.4,32.86v52.42h-23.83v-105.07h23.83v13.07c9.32-9.9,22.34-15.47,35.94-15.37,16.33,0,28.44,7.49,34.58,20.75,9.17-13.19,24.3-20.96,40.36-20.75,23.84,0,38.83,16.14,38.83,43.62"/><path class="cls-1" d="m1248.56,365.08h23.82v105.07h-23.82v-12.64c-8.08,8.84-20.19,15-36.33,15-25.56,0-42.66-16.72-42.66-44.39v-63h23.82v59.73c0,16.71,8.07,25.55,24.6,25.55,17.69,0,30.57-13.83,30.57-33.44v-51.88Z"/><path class="cls-1" d="m1292.92,459.44l9.8-19.61c13.07,7.5,25.37,10.57,37.28,10.57,13.08,0,21.14-2.49,21.14-10.38,0-7.11-5.76-9.8-24.59-13.06-30.75-5.19-40.17-14.8-40.17-31.9,0-20.57,14.8-32.1,40.36-32.1,14,0,34.2,4.42,44.59,11l-9.62,20c-10-5.78-23.44-9.23-36.51-9.23-9.6,0-14.61,2.69-14.61,8.45s4.81,8.27,22.69,11.92c32.67,6.92,41.7,17.29,41.7,34,0,21.14-18.26,33.05-45.93,33.05-17.5,0-34.59-6-46.13-12.68"/><path class="cls-1" d="m1406.15,365.08h23.83v105.12h-23.83v-105.12Zm-.58-35.95h24.8v23.07h-24.8v-23.07Z"/><path class="cls-1" d="m1453.37,417.73c0-32.29,25.17-55,57.27-55,15.76,0,31.13,6,41.89,18.26l-16.9,14.21c-7.31-8.07-15.38-10.75-25.38-10.75-18.07,0-32.67,11.72-32.67,33s14.6,33.25,33.44,33.25c9.43,0,17.3-2.31,24.61-11l16.9,14.42c-10.57,12.1-25.94,18.07-41.89,18.07-32.1,0-57.27-22.5-57.27-54.59"/><path class="cls-1" d="m1201.85,170h23.83v105.15h-23.83v-105.15Zm-.58-35.94h24.78v23.09h-24.78v-23.09Z"/><path class="cls-1" d="m939.97,211.32v63.83h-24v-60.56c0-16.15-6.72-24.8-21.33-24.8-15.75,0-29.4,14-29.4,32.86v52.5h-24v-60.56c0-16.15-6.73-24.8-21.53-24.8-15.57,0-29.4,14-29.4,32.86v52.5h-23.89v-105.15h23.84v13.07c9.3-9.9,22.31-15.47,35.89-15.38,16.34,0,28.45,7.49,34.6,20.75,7.68-11.33,21.9-20.75,40.36-20.75,23.84,0,38.82,16.14,38.82,43.63"/><path class="cls-1" d="m1044.3,170h23.85v105.15h-23.83v-12.71c-8.08,8.84-20.19,15-36.33,15-25.56,0-42.66-16.73-42.66-44.4v-63h23.82v59.77c0,16.71,8.08,25.56,24.61,25.56,17.68,0,30.56-13.84,30.56-33.45l-.02-51.92Z"/><path class="cls-1" d="m1088.67,264.36l9.8-19.61c13.06,7.5,25.37,10.58,37.28,10.58,13.07,0,21.14-2.5,21.14-10.39,0-7.1-5.77-9.79-24.6-13.06-30.75-5.19-40.17-14.8-40.17-31.9,0-20.57,14.81-32.1,40.36-32.1,14,0,34.21,4.42,44.59,11l-9.62,20c-10-5.77-23.44-9.23-36.5-9.23-9.61,0-14.61,2.69-14.61,8.45s4.81,8.27,22.68,11.92c32.67,6.92,41.7,17.3,41.7,34,0,21.14-18.25,33.05-45.93,33.05-17.49,0-34.59-6-46.12-12.68"/></g></svg>