<svg version="1.1" id="Layer_1" xmlns="http://www.w3.org/2000/svg" xmlns:xlink="http://www.w3.org/1999/xlink" x="0px" y="0px"
	 width="100%" viewBox="0 0 642 120" enable-background="new 0 0 642 120" xml:space="preserve">
<path fill="#FFFFFF" opacity="0" stroke="none"
	d="
M480.000000,121.000000
	C320.000031,121.000000 160.500061,121.000000 1.000064,121.000000
	C1.000043,81.000038 1.000043,41.000072 1.000021,1.000080
	C214.999924,1.000054 428.999847,1.000054 642.999817,1.000027
	C642.999878,40.999920 642.999878,80.999840 642.999939,120.999878
	C588.833313,121.000000 534.666687,121.000000 480.000000,121.000000
M518.180603,99.659538
	C524.391235,106.219353 532.326050,108.116989 540.796509,106.880211
	C551.668091,105.292854 558.215149,97.991837 562.261230,87.685982
	C565.947449,97.883247 572.544678,104.050423 582.513672,105.905060
	C587.814636,106.891258 593.336731,106.878807 598.764038,106.954041
	C607.869690,107.080238 615.377075,103.532829 621.087097,96.371956
	C625.568237,90.752144 626.386108,77.658264 619.809265,72.043678
	C614.381592,67.410080 608.042480,65.883202 601.651489,64.018295
	C596.027954,62.377342 590.290527,61.092506 584.747375,59.223442
	C581.382690,58.088959 580.806458,54.910557 583.455627,53.311333
	C589.578735,49.615059 600.183899,49.709789 604.034241,56.675453
	C604.647522,57.784958 606.558716,58.917648 607.769531,58.818230
	C611.488647,58.512871 615.177246,57.699516 618.842346,56.917847
	C621.547913,56.340832 622.932800,54.833721 621.457153,51.953854
	C618.524109,46.229782 614.811462,40.743439 608.138306,39.792763
	C599.711365,38.592243 590.982788,37.595028 582.598694,38.498932
	C572.402832,39.598171 563.376404,47.573246 564.956726,59.942715
	C565.078857,60.898609 564.601257,61.931129 564.126709,64.310417
	C562.376587,60.672039 561.240601,58.310432 560.017761,55.202160
	C558.055847,46.157234 551.744934,41.671253 543.420837,39.139694
	C534.302979,36.366749 526.049194,37.858917 517.476929,45.198544
	C517.476929,33.928329 517.476929,24.146715 517.476929,14.356415
	C510.684998,14.356415 504.974182,14.356415 499.360901,14.356415
	C499.360901,45.055527 499.360901,75.396873 499.360901,105.775261
	C504.992889,105.775261 510.262085,105.775261 516.007019,105.775261
	C516.007019,103.607811 515.933838,101.652962 516.090271,99.716667
	C516.112305,99.443634 517.255493,99.261177 518.180603,99.659538
M236.770355,104.978516
	C244.984375,108.674194 253.822388,108.834831 262.324097,107.699974
	C267.925995,106.952217 273.544281,104.011444 278.409363,100.890083
	C281.549561,98.875374 283.340271,94.757286 286.156982,91.023438
	C286.156982,96.283371 286.156982,101.112350 286.156982,105.644669
	C292.786041,105.644669 298.863373,105.644669 305.076294,105.644669
	C305.076294,96.328339 305.076294,87.366760 305.076294,78.405190
	C308.140076,90.144173 313.060516,100.283165 325.309082,105.073090
	C336.982697,109.638168 348.428009,109.388077 359.584625,103.743126
	C370.996155,97.969200 379.779419,81.397423 374.095337,59.918491
	C370.808167,47.496964 357.478363,37.137672 342.579437,37.111691
	C337.612823,37.103024 332.323456,37.566708 327.765228,39.326283
	C323.097137,41.128262 318.470734,44.155720 315.071960,47.806618
	C311.828491,51.290676 309.596130,56.063736 308.012177,60.647793
	C306.408386,65.289276 306.143982,70.393547 305.292908,75.295105
	C305.133392,75.297768 304.973877,75.300430 304.814362,75.303093
	C304.814362,63.238731 304.814362,51.174370 304.814362,39.335899
	C298.254639,39.335899 292.178406,39.335899 285.693054,39.335899
	C285.693054,52.646973 285.693054,65.624718 285.693054,78.431862
	C283.320526,75.855316 281.513885,72.530716 278.743683,71.174911
	C273.345734,68.533005 267.415222,66.973175 261.691956,65.003754
	C256.577118,63.243694 251.112518,62.150002 246.421417,59.616028
	C242.447098,57.469238 243.348206,52.979351 247.487350,51.173080
	C254.652405,48.046345 262.675568,51.430687 265.774261,58.797459
	C271.447266,58.797459 277.073120,58.797459 282.673828,58.797459
	C283.457947,49.887760 278.731812,42.888027 270.559204,39.963951
	C261.244873,36.631386 251.678406,35.846844 242.229538,38.179119
	C234.823303,40.007206 227.191132,43.162998 225.710205,51.940289
	C223.642136,64.197701 224.056000,69.321053 236.016083,74.354843
	C241.429840,76.633400 247.512466,77.268776 253.153900,79.078911
	C257.060120,80.332268 260.975403,81.948929 264.369141,84.187729
	C265.501068,84.934456 265.958496,88.666588 265.118408,90.078659
	C262.390167,94.664635 257.539154,95.826744 252.663254,94.873039
	C247.937241,93.948647 243.237457,92.411964 241.844528,86.553741
	C241.584961,85.462097 239.392090,84.197083 238.025543,84.115471
	C233.106552,83.821678 228.159348,84.000076 223.491653,84.000076
	C222.973770,74.549904 223.090256,65.574539 221.766357,56.816921
	C221.011429,51.823105 219.194687,45.564182 215.603088,42.709293
	C207.032806,35.896950 196.748734,34.849640 186.530746,39.980789
	C183.735153,41.384651 181.191452,43.290165 178.152802,45.204464
	C178.044250,42.907158 177.956055,41.040779 177.873642,39.296444
	C171.347137,39.296444 165.268997,39.296444 158.809845,39.296444
	C158.809845,47.569424 158.809845,55.551949 158.809845,63.534473
	C152.264084,42.788647 138.403763,33.986668 117.266953,38.158237
	C103.911209,40.794132 94.394081,50.876038 91.329872,68.289055
	C90.323151,67.477539 89.220634,66.962036 88.681557,66.095863
	C83.886681,58.391655 76.503792,55.044197 68.051430,52.880062
	C59.380993,50.660095 50.954079,47.503284 42.321751,45.113510
	C38.632259,44.092117 36.786705,41.271461 37.290878,38.511559
	C37.793259,35.761482 40.053154,32.442444 42.494083,31.088566
	C53.858486,24.785231 65.968651,30.442114 68.630096,42.696320
	C75.421638,42.696320 82.178490,42.696320 89.197998,42.696320
	C88.443733,33.398811 86.413483,25.094990 78.279419,19.739676
	C64.195633,10.467173 49.081150,9.849722 33.842754,15.792982
	C17.504732,22.165119 12.700947,39.672924 19.991241,52.625729
	C24.688648,60.971703 33.355637,63.328068 41.693893,65.995148
	C50.063175,68.672157 58.636543,70.841599 66.750961,74.141968
	C72.791824,76.598969 72.727226,84.469673 67.345764,88.290085
	C59.758801,93.676224 51.763184,92.782227 43.731419,89.889160
	C36.933529,87.440544 34.802814,81.387436 33.684052,75.030327
	C27.196747,75.030327 21.202904,75.025085 15.209154,75.046272
	C14.918591,75.047302 14.628851,75.280670 14.350020,75.400970
	C12.125587,84.830383 19.179504,96.640633 26.465212,101.179100
	C40.532433,109.941963 55.294678,110.280991 70.669098,106.041153
	C80.553505,103.315315 87.434059,97.295425 90.809242,87.507210
	C91.305466,86.068115 91.552032,84.542931 92.176064,81.982979
	C98.748894,104.900070 114.957176,109.926323 132.753662,107.780479
	C147.225098,106.035553 156.370224,94.939201 156.640427,85.000237
	C151.986359,85.000237 147.335480,84.934097 142.689529,85.056084
	C141.761063,85.080467 140.498688,85.568161 139.989304,86.274323
	C136.172043,91.566185 131.098190,93.401268 124.652977,93.088959
	C116.646675,92.700996 110.873909,86.599586 111.387009,78.224106
	C127.141518,78.224106 142.898880,78.224106 159.053772,78.224106
	C159.053772,87.516411 159.053772,96.594345 159.053772,105.770653
	C165.859283,105.770653 172.263657,105.770653 179.000000,105.770653
	C179.000000,92.417526 179.125641,79.289337 178.950470,66.165161
	C178.853317,58.887417 184.132095,52.292164 192.175293,52.880859
	C199.825836,53.440815 202.992920,56.706734 202.998077,65.818443
	C203.005585,79.097176 203.000000,92.375916 203.000000,105.775902
	C209.850266,105.775902 216.255264,105.775902 223.030182,105.775902
	C223.030182,100.864113 223.030182,96.160446 223.030182,91.456779
	C226.058502,97.366905 230.107483,101.912178 236.770355,104.978516
M468.201050,104.955872
	C471.058258,103.168037 473.915497,101.380196 475.948975,100.107780
	C477.641907,102.121986 479.058563,105.440628 480.929413,105.720230
	C486.078735,106.489845 491.418335,105.986061 495.811798,105.986061
	C494.835266,99.003731 493.425690,92.465530 493.116455,85.875694
	C492.663879,76.230774 493.387024,66.529121 492.895660,56.888008
	C492.359375,46.365372 489.387146,41.541828 478.643646,39.233532
	C471.162781,37.626228 463.111298,37.566833 455.439392,38.238853
	C446.010681,39.064762 439.788208,45.065861 436.612335,53.967575
	C436.259033,54.957794 436.673737,57.238640 437.084412,57.329517
	C441.853088,58.384682 446.679962,59.203011 451.521118,59.867649
	C452.068176,59.942753 453.104736,58.809513 453.393677,58.040882
	C456.105774,50.826717 466.286530,50.727028 471.394409,53.443157
	C473.226715,54.417488 474.217285,57.623882 474.746063,59.999840
	C474.902100,60.700867 472.306976,62.531738 470.722382,63.002419
	C466.518524,64.251129 462.142395,64.906723 457.899994,66.041870
	C450.988434,67.891197 443.173248,68.526794 438.777191,74.984444
	C435.895233,79.217964 434.541229,84.491631 432.376007,89.598801
	C421.612976,89.598801 409.893921,89.598801 397.800964,89.598801
	C397.800964,64.599052 397.800964,39.998714 397.800964,15.360346
	C391.025604,15.360346 384.641418,15.360346 378.250732,15.360346
	C378.250732,45.652489 378.250732,75.583595 378.250732,105.689087
	C396.890808,105.689087 415.278961,105.689087 434.182129,105.689087
	C434.182129,102.341591 434.182129,99.298813 434.182129,96.256027
	C443.218658,108.072945 454.585510,109.339066 468.201050,104.955872
M295.500061,14.000000
	C292.396088,14.000000 289.292084,14.000000 286.289429,14.000000
	C286.289429,19.650269 286.289429,24.721661 286.289429,29.709175
	C292.654266,29.709175 298.726227,29.709175 304.706879,29.709175
	C304.706879,24.342499 304.706879,19.271034 304.706879,14.000000
	C301.769989,14.000000 299.124481,14.000000 295.500061,14.000000
z"/>
<path fill="#FFFFFF" opacity="1.000000" stroke="none"
	d="
M236.424973,104.789108
	C230.107483,101.912178 226.058502,97.366905 223.030182,91.456779
	C223.030182,96.160446 223.030182,100.864113 223.030182,105.775902
	C216.255264,105.775902 209.850266,105.775902 203.000000,105.775902
	C203.000000,92.375916 203.005585,79.097176 202.998077,65.818443
	C202.992920,56.706734 199.825836,53.440815 192.175293,52.880859
	C184.132095,52.292164 178.853317,58.887417 178.950470,66.165161
	C179.125641,79.289337 179.000000,92.417526 179.000000,105.770653
	C172.263657,105.770653 165.859283,105.770653 159.053772,105.770653
	C159.053772,96.594345 159.053772,87.516411 159.053772,78.224106
	C142.898880,78.224106 127.141518,78.224106 111.387009,78.224106
	C110.873909,86.599586 116.646675,92.700996 124.652977,93.088959
	C131.098190,93.401268 136.172043,91.566185 139.989304,86.274323
	C140.498688,85.568161 141.761063,85.080467 142.689529,85.056084
	C147.335480,84.934097 151.986359,85.000237 156.640427,85.000237
	C156.370224,94.939201 147.225098,106.035553 132.753662,107.780479
	C114.957176,109.926323 98.748894,104.900070 92.176064,81.982979
	C91.552032,84.542931 91.305466,86.068115 90.809242,87.507210
	C87.434059,97.295425 80.553505,103.315315 70.669098,106.041153
	C55.294678,110.280991 40.532433,109.941963 26.465212,101.179100
	C19.179504,96.640633 12.125587,84.830383 14.350020,75.400970
	C14.628851,75.280670 14.918591,75.047302 15.209154,75.046272
	C21.202904,75.025085 27.196747,75.030327 33.684052,75.030327
	C34.802814,81.387436 36.933529,87.440544 43.731419,89.889160
	C51.763184,92.782227 59.758801,93.676224 67.345764,88.290085
	C72.727226,84.469673 72.791824,76.598969 66.750961,74.141968
	C58.636543,70.841599 50.063175,68.672157 41.693893,65.995148
	C33.355637,63.328068 24.688648,60.971703 19.991241,52.625729
	C12.700947,39.672924 17.504732,22.165119 33.842754,15.792982
	C49.081150,9.849722 64.195633,10.467173 78.279419,19.739676
	C86.413483,25.094990 88.443733,33.398811 89.197998,42.696320
	C82.178490,42.696320 75.421638,42.696320 68.630096,42.696320
	C65.968651,30.442114 53.858486,24.785231 42.494083,31.088566
	C40.053154,32.442444 37.793259,35.761482 37.290878,38.511559
	C36.786705,41.271461 38.632259,44.092117 42.321751,45.113510
	C50.954079,47.503284 59.380993,50.660095 68.051430,52.880062
	C76.503792,55.044197 83.886681,58.391655 88.681557,66.095863
	C89.220634,66.962036 90.323151,67.477539 91.329872,68.289055
	C94.394081,50.876038 103.911209,40.794132 117.266953,38.158237
	C138.403763,33.986668 152.264084,42.788647 158.809845,63.534473
	C158.809845,55.551949 158.809845,47.569424 158.809845,39.296444
	C165.268997,39.296444 171.347137,39.296444 177.873642,39.296444
	C177.956055,41.040779 178.044250,42.907158 178.152802,45.204464
	C181.191452,43.290165 183.735153,41.384651 186.530746,39.980789
	C196.748734,34.849640 207.032806,35.896950 215.603088,42.709293
	C219.194687,45.564182 221.011429,51.823105 221.766357,56.816921
	C223.090256,65.574539 222.973770,74.549904 223.491653,84.000076
	C228.159348,84.000076 233.106552,83.821678 238.025543,84.115471
	C239.392090,84.197083 241.584961,85.462097 241.844528,86.553741
	C243.237457,92.411964 247.937241,93.948647 252.663254,94.873039
	C257.539154,95.826744 262.390167,94.664635 265.118408,90.078659
	C265.958496,88.666588 265.501068,84.934456 264.369141,84.187729
	C260.975403,81.948929 257.060120,80.332268 253.153900,79.078911
	C247.512466,77.268776 241.429840,76.633400 236.016083,74.354843
	C224.056000,69.321053 223.642136,64.197701 225.710205,51.940289
	C227.191132,43.162998 234.823303,40.007206 242.229538,38.179119
	C251.678406,35.846844 261.244873,36.631386 270.559204,39.963951
	C278.731812,42.888027 283.457947,49.887760 282.673828,58.797459
	C277.073120,58.797459 271.447266,58.797459 265.774261,58.797459
	C262.675568,51.430687 254.652405,48.046345 247.487350,51.173080
	C243.348206,52.979351 242.447098,57.469238 246.421417,59.616028
	C251.112518,62.150002 256.577118,63.243694 261.691956,65.003754
	C267.415222,66.973175 273.345734,68.533005 278.743683,71.174911
	C281.513885,72.530716 283.320526,75.855316 285.693054,78.431862
	C285.693054,65.624718 285.693054,52.646973 285.693054,39.335899
	C292.178406,39.335899 298.254639,39.335899 304.814362,39.335899
	C304.814362,51.174370 304.814362,63.238731 304.814362,75.303093
	C304.973877,75.300430 305.133392,75.297768 305.292908,75.295105
	C306.143982,70.393547 306.408386,65.289276 308.012177,60.647793
	C309.596130,56.063736 311.828491,51.290676 315.071960,47.806618
	C318.470734,44.155720 323.097137,41.128262 327.765228,39.326283
	C332.323456,37.566708 337.612823,37.103024 342.579437,37.111691
	C357.478363,37.137672 370.808167,47.496964 374.095337,59.918491
	C379.779419,81.397423 370.996155,97.969200 359.584625,103.743126
	C348.428009,109.388077 336.982697,109.638168 325.309082,105.073090
	C313.060516,100.283165 308.140076,90.144173 305.076294,78.405190
	C305.076294,87.366760 305.076294,96.328339 305.076294,105.644669
	C298.863373,105.644669 292.786041,105.644669 286.156982,105.644669
	C286.156982,101.112350 286.156982,96.283371 286.156982,91.023438
	C283.340271,94.757286 281.549561,98.875374 278.409363,100.890083
	C273.544281,104.011444 267.925995,106.952217 262.324097,107.699974
	C253.822388,108.834831 244.984375,108.674194 236.424973,104.789108
M351.964569,56.622303
	C342.357819,49.029766 331.897949,50.766182 327.696075,60.834721
	C324.114899,69.415977 324.522217,77.730972 328.608978,86.365486
	C332.662445,94.929604 347.060822,95.046623 352.323029,88.199661
	C357.341583,81.669701 358.215210,63.316475 351.964569,56.622303
M129.450119,65.000000
	C132.567062,65.000000 135.684006,65.000000 138.844940,65.000000
	C137.727463,56.483822 133.126587,52.026520 125.758949,52.000000
	C117.994362,51.972054 112.271324,56.919880 111.138863,65.000000
	C116.949379,65.000000 122.708084,65.000000 129.450119,65.000000
z"/>
<path fill="#FFFFFF" opacity="1.000000" stroke="none"
	d="
M467.815186,105.052345
	C454.585510,109.339066 443.218658,108.072945 434.182129,96.256027
	C434.182129,99.298813 434.182129,102.341591 434.182129,105.689087
	C415.278961,105.689087 396.890808,105.689087 378.250732,105.689087
	C378.250732,75.583595 378.250732,45.652489 378.250732,15.360346
	C384.641418,15.360346 391.025604,15.360346 397.800964,15.360346
	C397.800964,39.998714 397.800964,64.599052 397.800964,89.598801
	C409.893921,89.598801 421.612976,89.598801 432.376007,89.598801
	C434.541229,84.491631 435.895233,79.217964 438.777191,74.984444
	C443.173248,68.526794 450.988434,67.891197 457.899994,66.041870
	C462.142395,64.906723 466.518524,64.251129 470.722382,63.002419
	C472.306976,62.531738 474.902100,60.700867 474.746063,59.999840
	C474.217285,57.623882 473.226715,54.417488 471.394409,53.443157
	C466.286530,50.727028 456.105774,50.826717 453.393677,58.040882
	C453.104736,58.809513 452.068176,59.942753 451.521118,59.867649
	C446.679962,59.203011 441.853088,58.384682 437.084412,57.329517
	C436.673737,57.238640 436.259033,54.957794 436.612335,53.967575
	C439.788208,45.065861 446.010681,39.064762 455.439392,38.238853
	C463.111298,37.566833 471.162781,37.626228 478.643646,39.233532
	C489.387146,41.541828 492.359375,46.365372 492.895660,56.888008
	C493.387024,66.529121 492.663879,76.230774 493.116455,85.875694
	C493.425690,92.465530 494.835266,99.003731 495.811798,105.986061
	C491.418335,105.986061 486.078735,106.489845 480.929413,105.720230
	C479.058563,105.440628 477.641907,102.121986 475.948975,100.107780
	C473.915497,101.380196 471.058258,103.168037 467.815186,105.052345
M461.531067,77.980438
	C457.895081,79.122887 453.491241,79.364693 453.024170,84.515991
	C452.443176,90.923515 458.233215,95.459839 464.627197,93.715973
	C472.936737,91.449684 476.088196,85.602989 474.409973,74.676102
	C470.352783,75.756264 466.349823,76.822006 461.531067,77.980438
z"/>
<path fill="#FFFFFF" opacity="1.000000" stroke="none"
	d="
M560.104614,55.948822
	C561.240601,58.310432 562.376587,60.672039 564.126709,64.310417
	C564.601257,61.931129 565.078857,60.898609 564.956726,59.942715
	C563.376404,47.573246 572.402832,39.598171 582.598694,38.498932
	C590.982788,37.595028 599.711365,38.592243 608.138306,39.792763
	C614.811462,40.743439 618.524109,46.229782 621.457153,51.953854
	C622.932800,54.833721 621.547913,56.340832 618.842346,56.917847
	C615.177246,57.699516 611.488647,58.512871 607.769531,58.818230
	C606.558716,58.917648 604.647522,57.784958 604.034241,56.675453
	C600.183899,49.709789 589.578735,49.615059 583.455627,53.311333
	C580.806458,54.910557 581.382690,58.088959 584.747375,59.223442
	C590.290527,61.092506 596.027954,62.377342 601.651489,64.018295
	C608.042480,65.883202 614.381592,67.410080 619.809265,72.043678
	C626.386108,77.658264 625.568237,90.752144 621.087097,96.371956
	C615.377075,103.532829 607.869690,107.080238 598.764038,106.954041
	C593.336731,106.878807 587.814636,106.891258 582.513672,105.905060
	C572.544678,104.050423 565.947449,97.883247 562.261230,87.685982
	C558.215149,97.991837 551.668091,105.292854 540.796509,106.880211
	C532.326050,108.116989 524.391235,106.219353 518.447632,99.337448
	C521.219116,99.710602 523.856506,100.108116 526.203491,101.155998
	C533.722595,104.513092 540.616577,103.081673 547.524170,99.278114
	C553.915588,95.758751 557.470520,89.486900 559.185486,83.467392
	C561.141907,76.600639 559.859985,68.811691 559.988831,61.423569
	C560.020630,59.598537 560.065613,57.773735 560.104614,55.948822
M563.133484,66.527382
	C563.133484,72.949234 563.133484,79.371094 563.133484,85.926620
	C569.221008,84.988609 574.811035,84.127258 580.392212,83.267265
	C584.214844,93.766869 592.014343,95.470757 601.286682,92.622704
	C603.240967,92.022453 605.312073,89.094009 605.646912,86.972794
	C605.839722,85.751472 602.897583,83.402618 600.942322,82.616875
	C597.654846,81.295692 593.966125,81.016113 590.557983,79.943459
	C581.064270,76.955597 570.157776,76.252518 565.518311,65.067024
	C564.886597,65.346046 564.254944,65.625069 563.133484,66.527382
z"/>
<path fill="#FFFFFF" opacity="1.000000" stroke="none"
	d="
M560.061157,55.575493
	C560.065613,57.773735 560.020630,59.598537 559.988831,61.423569
	C559.859985,68.811691 561.141907,76.600639 559.185486,83.467392
	C557.470520,89.486900 553.915588,95.758751 547.524170,99.278114
	C540.616577,103.081673 533.722595,104.513092 526.203491,101.155998
	C523.856506,100.108116 521.219116,99.710602 518.297180,99.026077
	C517.255493,99.261177 516.112305,99.443634 516.090271,99.716667
	C515.933838,101.652962 516.007019,103.607811 516.007019,105.775261
	C510.262085,105.775261 504.992889,105.775261 499.360901,105.775261
	C499.360901,75.396873 499.360901,45.055527 499.360901,14.356415
	C504.974182,14.356415 510.684998,14.356415 517.476929,14.356415
	C517.476929,24.146715 517.476929,33.928329 517.476929,45.198544
	C526.049194,37.858917 534.302979,36.366749 543.420837,39.139694
	C551.744934,41.671253 558.055847,46.157234 560.061157,55.575493
M540.252930,55.738758
	C530.904236,47.513107 520.793335,53.517315 518.243042,63.041664
	C515.525879,73.189217 516.614136,83.114265 525.027405,91.682091
	C525.870850,93.005280 526.406799,94.904594 527.612915,95.548447
	C532.020264,97.901260 540.811646,95.133438 544.458557,91.337288
	C551.663879,83.837029 550.092712,65.050697 543.913574,57.174702
	C543.345825,56.451004 541.915833,56.403839 540.252930,55.738758
z"/>
<path fill="#FFFFFF" opacity="1" stroke="none"
	d="
M295.989532,14.000000
	C299.124481,14.000000 301.769989,14.000000 304.706879,14.000000
	C304.706879,19.271034 304.706879,24.342499 304.706879,29.709175
	C298.726227,29.709175 292.654266,29.709175 286.289429,29.709175
	C286.289429,24.721661 286.289429,19.650269 286.289429,14.000000
	C289.292084,14.000000 292.396088,14.000000 295.989532,14.000000
z"/>
<path fill="#FFFFFF" opacity="0" stroke="none"
	d="
M352.001282,57.009277
	C358.215210,63.316475 357.341583,81.669701 352.323029,88.199661
	C347.060822,95.046623 332.662445,94.929604 328.608978,86.365486
	C324.522217,77.730972 324.114899,69.415977 327.696075,60.834721
	C331.897949,50.766182 342.357819,49.029766 352.001282,57.009277
z"/>
<path fill="#FFFFFF" opacity="0" stroke="none"
	d="
M128.958466,65.000000
	C122.708084,65.000000 116.949379,65.000000 111.138863,65.000000
	C112.271324,56.919880 117.994362,51.972054 125.758949,52.000000
	C133.126587,52.026520 137.727463,56.483822 138.844940,65.000000
	C135.684006,65.000000 132.567062,65.000000 128.958466,65.000000
z"/>
<path fill="#FFFFFF" opacity="0" stroke="none"
	d="
M461.938965,77.934090
	C466.349823,76.822006 470.352783,75.756264 474.409973,74.676102
	C476.088196,85.602989 472.936737,91.449684 464.627197,93.715973
	C458.233215,95.459839 452.443176,90.923515 453.024170,84.515991
	C453.491241,79.364693 457.895081,79.122887 461.938965,77.934090
z"/>
<path fill="#FFFFFF" opacity="0" stroke="none"
	d="
M563.378357,66.215736
	C564.254944,65.625069 564.886597,65.346046 565.518311,65.067017
	C570.157776,76.252518 581.064270,76.955597 590.557983,79.943459
	C593.966125,81.016113 597.654846,81.295692 600.942322,82.616875
	C602.897583,83.402618 605.839722,85.751472 605.646912,86.972794
	C605.312073,89.094009 603.240967,92.022453 601.286682,92.622704
	C592.014343,95.470757 584.214844,93.766869 580.392212,83.267265
	C574.811035,84.127258 569.221008,84.988609 563.133484,85.926620
	C563.133484,79.371094 563.133484,72.949234 563.378357,66.215736
z"/>
<path fill="#FFFFFF" opacity="0" stroke="none"
	d="
M525.041565,90.884895
	C516.614136,83.114265 515.525879,73.189217 518.243042,63.041664
	C520.793335,53.517315 530.904236,47.513107 540.724365,56.207306
	C547.083923,62.257092 544.316467,69.508705 545.062439,76.122833
	C546.198181,86.193092 537.161316,95.957634 525.041565,90.884895
z"/>
<path fill="#82E83F" opacity="0" stroke="none"
	d="
M525.034485,91.283493
	C537.161316,95.957634 546.198181,86.193092 545.062439,76.122833
	C544.316467,69.508705 547.083923,62.257092 541.041016,56.359196
	C541.915833,56.403839 543.345825,56.451004 543.913574,57.174702
	C550.092712,65.050697 551.663879,83.837029 544.458557,91.337288
	C540.811646,95.133438 532.020264,97.901260 527.612915,95.548447
	C526.406799,94.904594 525.870850,93.005280 525.034485,91.283493
z"/>
</svg>
