<?xml version="1.0" encoding="UTF-8"?>
<svg width="74px" height="86px" viewBox="0 0 74 86" version="1.1" xmlns="http://www.w3.org/2000/svg" xmlns:xlink="http://www.w3.org/1999/xlink">
    <title>Group</title>
    <g id="Symbols" stroke="none" stroke-width="1" fill="none" fill-rule="evenodd">
        <g id="bloc_rejoindre" transform="translate(-595.000000, -31.000000)">
            <g id="Group" transform="translate(595.000000, 31.500000)">
                <path d="M59.0145528,15.7185066 C59.7826474,15.7185066 60.48902,15.5779178 61.1336708,15.2967404 C61.7783216,15.0155629 62.3303896,14.6315156 62.7898747,14.1445985 C63.2493599,13.6576814 63.6059752,13.0918975 63.8597207,12.4472467 C64.1134663,11.8025959 64.240339,11.1099392 64.240339,10.3692766 C64.240339,9.62861398 64.1134663,8.93252828 63.8597207,8.2810195 C63.6059752,7.62951072 63.2493599,7.06029779 62.7898747,6.5733807 C62.3303896,6.08646361 61.7783216,5.70241633 61.1336708,5.42123885 C60.48902,5.14006138 59.7826474,4.99947264 59.0145528,4.99947264 C58.2190263,4.99947264 57.4989376,5.14006138 56.8542869,5.42123885 C56.2096361,5.70241633 55.6575681,6.08646361 55.198083,6.5733807 C54.7385978,7.06029779 54.3854115,7.62951072 54.1385239,8.2810195 C53.8916364,8.93252828 53.7681926,9.62861398 53.7681926,10.3692766 C53.7681926,11.1099392 53.8984944,11.8025959 54.1590979,12.4472467 C54.4197014,13.0918975 54.7797457,13.6576814 55.2392309,14.1445985 C55.698716,14.6315156 56.250784,15.0155629 56.8954348,15.2967404 C57.5400856,15.5779178 58.2464582,15.7185066 59.0145528,15.7185066 Z M59.0145528,13.0233176 C58.6579375,13.0233176 58.3321831,12.9513088 58.0372896,12.807291 C57.7423962,12.6632733 57.4920797,12.4712497 57.28634,12.2312201 C57.0806004,11.9911906 56.9228667,11.7100131 56.8131389,11.3876877 C56.7034111,11.0653623 56.6485472,10.7258919 56.6485472,10.3692766 C56.6485472,10.0126613 56.7068401,9.6731909 56.8234259,9.3508655 C56.9400117,9.0285401 57.1046034,8.74393363 57.317201,8.4970461 C57.5297986,8.25015856 57.7801151,8.05470592 58.0681506,7.91068819 C58.356186,7.76667046 58.6716534,7.6946616 59.0145528,7.6946616 C59.3711681,7.6946616 59.6934935,7.76667046 59.981529,7.91068819 C60.2695645,8.05470592 60.516452,8.25015856 60.7221916,8.4970461 C60.9279312,8.74393363 61.0856649,9.0285401 61.1953927,9.3508655 C61.3051205,9.6731909 61.3599844,10.0126613 61.3599844,10.3692766 C61.3599844,10.7258919 61.3051205,11.0653623 61.1953927,11.3876877 C61.0856649,11.7100131 60.9279312,11.9911906 60.7221916,12.2312201 C60.516452,12.4712497 60.2695645,12.6632733 59.981529,12.807291 C59.6934935,12.9513088 59.3711681,13.0233176 59.0145528,13.0233176 Z M70.3096577,5.67841337 C70.7074209,5.67841337 71.0811812,5.60640451 71.4309386,5.46238678 C71.7806959,5.31836905 72.0858763,5.11605842 72.3464799,4.85545491 C72.6070834,4.5948514 72.809394,4.29309996 72.9534117,3.95020061 C73.0974294,3.60730125 73.1694383,3.24382793 73.1694383,2.85978065 C73.1694383,2.46201739 73.0974294,2.08825709 72.9534117,1.73849975 C72.809394,1.3887424 72.6070834,1.08356197 72.3464799,0.82295846 C72.0858763,0.562354947 71.7806959,0.360044326 71.4309386,0.216026596 C71.0811812,0.0720088652 70.7074209,0 70.3096577,0 C69.9256104,0 69.5621371,0.0720088652 69.2192377,0.216026596 C68.8763384,0.360044326 68.5745869,0.562354947 68.3139834,0.82295846 C68.0533799,1.08356197 67.8510693,1.3887424 67.7070515,1.73849975 C67.5630338,2.08825709 67.4910249,2.46201739 67.4910249,2.85978065 C67.4910249,3.24382793 67.5630338,3.60730125 67.7070515,3.95020061 C67.8510693,4.29309996 68.0533799,4.5948514 68.3139834,4.85545491 C68.5745869,5.11605842 68.8763384,5.31836905 69.2192377,5.46238678 C69.5621371,5.60640451 69.9256104,5.67841337 70.3096577,5.67841337 Z M70.3096577,3.76503495 C70.0353382,3.76503495 69.8227406,3.67245213 69.6718649,3.48728647 C69.5209891,3.30212082 69.4455513,3.09295221 69.4455513,2.85978065 C69.4455513,2.61289311 69.5209891,2.39343752 69.6718649,2.20141388 C69.8227406,2.00939024 70.0353382,1.91337842 70.3096577,1.91337842 C70.5839772,1.91337842 70.8034327,2.00939024 70.9680244,2.20141388 C71.1326161,2.39343752 71.214912,2.61289311 71.214912,2.85978065 C71.214912,3.09295221 71.1326161,3.30212082 70.9680244,3.48728647 C70.8034327,3.67245213 70.5839772,3.76503495 70.3096577,3.76503495 Z M39.1874295,41.7990868 L41.9103948,36.2042439 L44.6759065,41.7990868 L48.3348912,41.7990868 L43.8037067,33.6301907 L47.803062,26.1633092 L44.22917,26.1633092 L41.931668,31.119957 L39.6128928,26.1633092 L35.9751813,26.1633092 L40.0383562,33.7152834 L35.6135375,41.7990868 L39.1874295,41.7990868 Z M28.3168413,62.7268332 L36.4644641,47.0910556 L33.1883965,47.0910556 L25.0620467,62.7268332 L28.3168413,62.7268332 Z M58.8065938,62.7268332 L50.6589709,47.0910556 L47.4041764,47.0910556 L55.5517993,62.7268332 L58.8065938,62.7268332 Z M42.0413021,68.3642224 C42.9488191,68.3642224 43.7502151,68.5105961 44.4454901,68.8033435 C45.1407652,69.0960909 45.7226007,69.5132559 46.1909965,70.0548386 C46.6593923,70.5964213 47.0143486,71.2514436 47.2558652,72.0199056 C47.4973818,72.7883675 47.6181401,73.6409943 47.6181401,74.577786 L47.6181401,74.577786 L47.6400961,84.7214834 L44.4125561,84.7214834 L44.4125561,74.5338739 C44.4125561,73.5385327 44.2186109,72.7664114 43.8307206,72.2175101 C43.4428303,71.6686087 42.8463575,71.394158 42.0413021,71.394158 C41.2362468,71.394158 40.6397739,71.6686087 40.2518836,72.2175101 C39.8639933,72.7664114 39.6700482,73.5385327 39.6700482,74.5338739 L39.6700482,74.5338739 L39.6700482,84.7214834 L36.4644641,84.7214834 L36.4644641,74.577786 C36.4644641,73.6409943 36.5852224,72.7883675 36.826739,72.0199056 C37.0682557,71.2514436 37.4232119,70.5964213 37.8916077,70.0548386 C38.3600036,69.5132559 38.941839,69.0960909 39.6371141,68.8033435 C40.3323892,68.5105961 41.1337852,68.3642224 42.0413021,68.3642224 Z M62.0613884,68.3642224 L70.2090112,84 L66.9542167,84 L58.8065938,68.3642224 L62.0613884,68.3642224 Z" id="tepee" fill="#FA4244" fill-rule="nonzero" opacity="0.900000036"></path>
                <polygon id="arrow" fill="#1E7695" points="13.3182804 69 18.9984799 74.734957 -2.82440737e-13 74.734957 -2.82440737e-13 77.2648038 19.0166527 77.2648038 13.3182804 83 16.7904832 83 23.7793643 76.0333567 16.7904832 69"></polygon>
            </g>
        </g>
    </g>
</svg>