<?xml version="1.0" encoding="utf-8"?>
<!-- Generator: Adobe Illustrator 24.3.0, SVG Export Plug-In . SVG Version: 6.00 Build 0)  -->
<svg version="1.1" id="Calque_1" xmlns="http://www.w3.org/2000/svg" xmlns:xlink="http://www.w3.org/1999/xlink" x="0px" y="0px"
	 width="1575px" height="59.3px" viewBox="0 0 1575 59.3" style="enable-background:new 0 0 1575 59.3;" xml:space="preserve">
<path style="fill:#F4756D;" d="M50.3,16.3c4.6,3.1,5.1,9.5,2,14.7c-4.5,7.6-15.1,14-15.1,14s-10.2-6.4-14.8-14
	c-3.1-5.3-2.6-11.6,2-14.7c6.7-4.5,12.8,4.2,12.8,4.2S43.6,11.8,50.3,16.3z"/>
<circle style="fill:#F4A4A2;" cx="112.3" cy="29.9" r="2.1"/>
<circle style="fill:#F4A4A2;" cx="187.3" cy="29.9" r="22.3"/>
<circle style="fill:#F4A4A2;" cx="262.3" cy="29.9" r="27.1"/>
<circle style="fill:#F4A4A2;" cx="337.3" cy="29.9" r="28.3"/>
<path style="fill:#F4A4A2;" d="M412.3,1.3c-15.8,0-28.7,12.8-28.7,28.7s12.8,28.7,28.7,28.7S441,45.8,441,29.9S428.2,1.3,412.3,1.3z
	 M412.3,50.2c-11.2,0-20.3-9.1-20.3-20.3s9.1-20.3,20.3-20.3s20.3,9.1,20.3,20.3S423.5,50.2,412.3,50.2z"/>
<path style="fill:#F4A4A2;" d="M487.3,5c-13.8,0-25,11.2-25,25s11.2,25,25,25s25-11.2,25-25S501.1,5,487.3,5z M487.3,47.7
	c-9.8,0-17.7-7.9-17.7-17.7s7.9-17.7,17.7-17.7S505,20.2,505,30S497.1,47.7,487.3,47.7z"/>
<path style="fill:#F4A4A2;" d="M562.5,10c-11,0-20,9-20,20s9,20,20,20s20-9,20-20S573.5,10,562.5,10z M562.5,44.1
	c-7.8,0-14.1-6.3-14.1-14.1s6.3-14.1,14.1-14.1s14.1,6.3,14.1,14.1S570.3,44.1,562.5,44.1z"/>
<path style="fill:#FF4345;" d="M490.4,26.7c1.1,0.7,1.2,2.2,0.5,3.4c-1.1,1.8-3.5,3.3-3.5,3.3s-2.4-1.5-3.5-3.3
	c-0.7-1.2-0.6-2.7,0.5-3.4c1.6-1.1,3,1,3,1S488.8,25.7,490.4,26.7z"/>
<path style="fill:#FF4345;" d="M568.4,23.6c2.1,1.4,2.4,4.4,0.9,6.9c-2.1,3.5-7,6.5-7,6.5s-4.8-3-6.9-6.5c-1.5-2.4-1.2-5.4,0.9-6.9
	c3.1-2.1,5.9,2,5.9,2S565.3,21.5,568.4,23.6z"/>
<path style="fill:#FF4345;" d="M646.2,20.6c3.1,2.1,3.5,6.5,1.4,10c-3.1,5.2-10.3,9.5-10.3,9.5s-7-4.3-10-9.5
	c-2.1-3.6-1.8-7.9,1.4-10c4.5-3.1,8.7,2.9,8.7,2.9S641.6,17.6,646.2,20.6z"/>
<path style="fill:#FF4345;" d="M723.8,17.8c4.1,2.8,4.6,8.4,1.8,13.1c-4,6.8-13.5,12.4-13.5,12.4S703,37.7,699,30.9
	c-2.8-4.7-2.3-10.3,1.8-13.1c5.9-4,11.4,3.8,11.4,3.8S717.9,13.8,723.8,17.8z"/>
<path style="fill:#FF4345;" d="M800.4,16c4.6,3.1,5.2,9.6,2,14.9c-4.6,7.7-15.3,14.1-15.3,14.1s-10.3-6.4-14.9-14.1
	c-3.2-5.3-2.6-11.7,2-14.9c6.7-4.5,12.9,4.3,12.9,4.3S793.7,11.5,800.4,16z"/>
<path style="fill:#FF4345;" d="M1250.4,16.1c4.6,3.1,5.2,9.6,2,14.9c-4.6,7.7-15.3,14.1-15.3,14.1s-10.3-6.4-14.9-14.1
	c-3.2-5.3-2.6-11.7,2-14.9c6.7-4.5,12.9,4.3,12.9,4.3S1243.7,11.6,1250.4,16.1z"/>
<path style="fill:#FF4345;" d="M876.5,15c5,3.4,5.6,10.4,2.2,16.1c-5,8.3-16.5,15.3-16.5,15.3S851,39.4,846,31.1
	c-3.4-5.7-2.8-12.7,2.2-16.1c7.3-4.9,14,4.6,14,4.6S869.2,10.1,876.5,15z"/>
<path style="fill:#FF4345;" d="M1325.4,16.1c4.6,3.1,5.2,9.6,2,14.9c-4.6,7.7-15.3,14.1-15.3,14.1s-10.3-6.4-14.9-14.1
	c-3.2-5.3-2.6-11.7,2-14.9c6.7-4.5,12.9,4.3,12.9,4.3S1318.7,11.6,1325.4,16.1z"/>
<path style="fill:#FF4345;" d="M1400.4,16.1c4.6,3.1,5.2,9.6,2,14.9c-4.6,7.7-15.3,14.1-15.3,14.1s-10.3-6.4-14.9-14.1
	c-3.2-5.3-2.6-11.7,2-14.9c6.7-4.5,12.9,4.3,12.9,4.3S1393.7,11.6,1400.4,16.1z"/>
<path style="fill:#FF4345;" d="M1475.4,16.1c4.6,3.1,5.2,9.6,2,14.9c-4.6,7.7-15.3,14.1-15.3,14.1s-10.3-6.4-14.9-14.1
	c-3.2-5.3-2.6-11.7,2-14.9c6.7-4.5,12.9,4.3,12.9,4.3S1468.7,11.6,1475.4,16.1z"/>
<path style="fill:#FF4345;" d="M950.6,16.1c4.6,3.1,5.2,9.6,2,14.9c-4.6,7.7-15.3,14.1-15.3,14.1S927,38.7,922.4,31
	c-3.2-5.3-2.6-11.7,2-14.9c6.7-4.5,12.9,4.3,12.9,4.3S943.9,11.6,950.6,16.1z"/>
<path style="fill:#FF4345;" d="M1025.6,16.1c4.6,3.1,5.2,9.6,2,14.9c-4.6,7.7-15.3,14.1-15.3,14.1S1002,38.7,997.4,31
	c-3.2-5.3-2.6-11.7,2-14.9c6.7-4.5,12.9,4.3,12.9,4.3S1018.9,11.6,1025.6,16.1z"/>
<path style="fill:#FF4345;" d="M1100.6,16.1c4.6,3.1,5.2,9.6,2,14.9c-4.6,7.7-15.3,14.1-15.3,14.1s-10.3-6.4-14.9-14.1
	c-3.2-5.3-2.6-11.7,2-14.9c6.7-4.5,12.9,4.3,12.9,4.3S1093.8,11.6,1100.6,16.1z"/>
<path style="fill:#FF4345;" d="M1175.6,16.1c4.6,3.1,5.2,9.6,2,14.9c-4.6,7.7-15.3,14.1-15.3,14.1s-10.3-6.4-14.9-14.1
	c-3.2-5.3-2.6-11.7,2-14.9c6.7-4.5,12.9,4.3,12.9,4.3S1168.8,11.6,1175.6,16.1z"/>
<path style="fill:#FF4345;" d="M1550.4,16.1c4.6,3.1,5.2,9.6,2,14.9c-4.6,7.7-15.3,14.1-15.3,14.1s-10.3-6.4-14.9-14.1
	c-3.2-5.3-2.6-11.7,2-14.9c6.7-4.5,12.9,4.3,12.9,4.3S1543.7,11.6,1550.4,16.1z"/>
</svg>
