<?xml version="1.0" encoding="utf-8"?>
<!-- Generator: Adobe Illustrator 25.1.0, SVG Export Plug-In . SVG Version: 6.00 Build 0)  -->
<svg version="1.1"
	 id="svg3430" xmlns:cc="http://creativecommons.org/ns#" xmlns:dc="http://purl.org/dc/elements/1.1/" xmlns:rdf="http://www.w3.org/1999/02/22-rdf-syntax-ns#" xmlns:svg="http://www.w3.org/2000/svg"
	 xmlns="http://www.w3.org/2000/svg" xmlns:xlink="http://www.w3.org/1999/xlink" x="0px" y="0px" width="110px" height="110px"
	 viewBox="0 0 110 110" style="enable-background:new 0 0 110 110;" xml:space="preserve">
<style type="text/css">
	.st0{clip-path:url(#SVGID_2_);}
	.st1{fill:url(#path3462_1_);}
	.st2{clip-path:url(#SVGID_4_);}
	.st3{fill:#777BB3;}
	.st4{clip-path:url(#SVGID_6_);}
	.st5{fill:#FFFFFF;}
</style>
<g id="g3438" transform="matrix(1.25,0,0,-1.25,-4.4,394.29875)">
	<g id="g3440">
		<g>
			<defs>
				<path id="SVGID_1_" d="M4.1,272.3c0-12.7,19.5-22.9,43.6-22.9l0,0c24.1,0,43.6,10.3,43.6,22.9l0,0c0,12.7-19.5,22.9-43.6,22.9
					l0,0C23.6,295.2,4.1,285,4.1,272.3"/>
			</defs>
			<clipPath id="SVGID_2_">
				<use xlink:href="#SVGID_1_"  style="overflow:visible;"/>
			</clipPath>
			<g id="g3442" class="st0">
				<g id="g3448">
					<g id="g3450">
						
							<radialGradient id="path3462_1_" cx="-32.4065" cy="191.289" r="0.1576" gradientTransform="matrix(453.8224 0 0 -453.8224 14736.9902 87098.375)" gradientUnits="userSpaceOnUse">
							<stop  offset="0" style="stop-color:#AEB2D5"/>
							<stop  offset="0.3" style="stop-color:#AEB2D5"/>
							<stop  offset="0.75" style="stop-color:#484C89"/>
							<stop  offset="1" style="stop-color:#484C89"/>
						</radialGradient>
						<path id="path3462" class="st1" d="M4.1,272.3c0-12.7,19.5-22.9,43.6-22.9l0,0c24.1,0,43.6,10.3,43.6,22.9l0,0
							c0,12.7-19.5,22.9-43.6,22.9l0,0C23.6,295.2,4.1,285,4.1,272.3"/>
					</g>
				</g>
			</g>
		</g>
	</g>
	<g id="g3464">
		<g>
			<defs>
				<rect id="SVGID_3_" x="-9.1" y="240.4" width="113.5" height="63.8"/>
			</defs>
			<clipPath id="SVGID_4_">
				<use xlink:href="#SVGID_3_"  style="overflow:visible;"/>
			</clipPath>
			<g id="g3466" class="st2">
				<g id="g3472" transform="translate(288,27.3594)">
					<path id="path3474" class="st3" d="M-240.4,223.7c23.1,0,41.9,9.5,41.9,21.2c0,11.7-18.7,21.2-41.9,21.2s-41.9-9.5-41.9-21.2
						C-282.2,233.2-263.5,223.7-240.4,223.7"/>
				</g>
			</g>
		</g>
	</g>
	<g id="g3476">
		<g>
			<defs>
				<rect id="SVGID_5_" x="-9.1" y="240.4" width="113.5" height="63.8"/>
			</defs>
			<clipPath id="SVGID_6_">
				<use xlink:href="#SVGID_5_"  style="overflow:visible;"/>
			</clipPath>
			<g id="g3478" class="st4">
				<g id="g3484" transform="translate(161.7344,145.3066)">
					<path id="path3486" d="M-134,124.4c1.9,0,3.3,0.4,4.2,1c0.9,0.7,1.5,1.9,1.8,3.5c0.3,1.5,0.2,2.6-0.3,3.2
						c-0.5,0.6-1.7,0.9-3.5,0.9h-3l-1.7-8.7H-134z M-143.9,113.7c-0.1,0-0.3,0.1-0.4,0.2c-0.1,0.1-0.1,0.3-0.1,0.4l4.5,23
						c0,0.2,0.2,0.4,0.5,0.4h9.6c3,0,5.3-0.8,6.7-2.4c1.4-1.6,1.9-3.9,1.3-6.8c-0.2-1.2-0.6-2.2-1.2-3.2c-0.5-1-1.3-1.9-2.1-2.7
						c-1-1-2.2-1.7-3.5-2.1c-1.3-0.4-2.9-0.6-4.8-0.6h-3.9l-1.1-5.7c0-0.2-0.2-0.4-0.5-0.4H-143.9z"/>
				</g>
				<g id="g3488" transform="translate(159.2236,197.3071)">
					<path id="path3490" class="st5" d="M-131.9,80.6h2.6c2.1,0,2.8-0.5,3.1-0.7c0.4-0.5,0.5-1.4,0.2-2.8c-0.3-1.5-0.9-2.6-1.6-3.2
						c-0.8-0.6-2.1-0.9-3.9-0.9h-1.9L-131.9,80.6z M-127.3,86.1h-9.6c-0.5,0-0.8-0.3-0.9-0.8l-4.5-23c-0.1-0.3,0-0.6,0.2-0.8
						c0.2-0.2,0.4-0.3,0.7-0.3h5c0.5,0,0.8,0.3,0.9,0.8l1,5.3h3.5c2,0,3.7,0.2,5,0.6c1.3,0.4,2.6,1.2,3.7,2.2
						c0.9,0.8,1.7,1.8,2.2,2.8c0.6,1,1,2.1,1.2,3.4c0.6,3,0.1,5.4-1.4,7.2C-121.8,85.2-124.2,86.1-127.3,86.1 M-134.5,71.9h3
						c2,0,3.5,0.4,4.5,1.1c1,0.8,1.7,2,2,3.8c0.3,1.7,0.2,2.9-0.5,3.6c-0.6,0.7-1.9,1.1-3.8,1.1h-3.4L-134.5,71.9 M-127.3,85.1
						c2.9,0,5-0.8,6.3-2.3c1.3-1.5,1.7-3.6,1.2-6.4c-0.2-1.1-0.6-2.1-1.1-3.1c-0.5-0.9-1.2-1.8-2-2.6c-1-0.9-2.1-1.6-3.3-2
						c-1.2-0.4-2.8-0.6-4.7-0.6h-4.3l-1.2-6.1h-5l4.5,23H-127.3"/>
				</g>
				<g id="g3492" transform="translate(311.583,116.3066)">
					<path id="path3494" d="M-260.2,148.8c-0.1,0-0.3,0.1-0.4,0.2c-0.1,0.1-0.1,0.3-0.1,0.4l2,10.2c0.2,1,0.1,1.7-0.1,2
						c-0.2,0.2-0.7,0.5-2.1,0.5h-3.6l-2.5-12.8c0-0.2-0.2-0.4-0.5-0.4h-5c-0.1,0-0.3,0.1-0.4,0.2c-0.1,0.1-0.1,0.3-0.1,0.4l4.5,23
						c0,0.2,0.2,0.4,0.5,0.4h5c0.1,0,0.3-0.1,0.4-0.2c0.1-0.1,0.1-0.3,0.1-0.4l-1.1-5.5h3.8c2.9,0,4.9-0.5,6.1-1.6
						c1.2-1.1,1.5-2.8,1.1-5.2l-2.1-10.7c0-0.2-0.2-0.4-0.5-0.4H-260.2z"/>
				</g>
				<g id="g3496" transform="translate(293.6611,271.0571)">
					<path id="path3498" class="st5" d="M-245.1,18.4h-5c-0.5,0-0.8-0.3-0.9-0.8l-4.5-23c-0.1-0.3,0-0.6,0.2-0.8
						c0.2-0.2,0.4-0.3,0.7-0.3h5c0.5,0,0.8,0.3,0.9,0.8l2.4,12.4h3.2c1.5,0,1.8-0.3,1.8-0.3c0.1-0.1,0.2-0.5,0-1.5l-2-10.2
						c-0.1-0.3,0-0.6,0.2-0.8s0.4-0.3,0.7-0.3h5c0.5,0,0.8,0.3,0.9,0.8l2.1,10.7c0.5,2.5,0.1,4.4-1.2,5.6c-1.2,1.1-3.3,1.7-6.4,1.7
						h-3.3l1,5c0.1,0.3,0,0.6-0.2,0.8C-244.6,18.3-244.9,18.4-245.1,18.4 M-245.1,17.5l-1.2-6.1h4.4c2.8,0,4.7-0.5,5.8-1.5
						c1.1-1,1.4-2.5,1-4.7l-2.1-10.7h-5l2,10.2c0.2,1.2,0.1,1.9-0.2,2.4c-0.4,0.4-1.2,0.6-2.5,0.6h-4l-2.6-13.2h-5l4.5,23H-245.1"/>
				</g>
				<g id="g3500" transform="translate(409.5498,145.3066)">
					<path id="path3502" d="M-342.8,124.4c1.9,0,3.3,0.4,4.2,1c0.9,0.7,1.5,1.9,1.8,3.5c0.3,1.5,0.2,2.6-0.3,3.2
						c-0.5,0.6-1.7,0.9-3.5,0.9h-3l-1.7-8.7H-342.8z M-352.7,113.7c-0.1,0-0.3,0.1-0.4,0.2c-0.1,0.1-0.1,0.3-0.1,0.4l4.5,23
						c0,0.2,0.2,0.4,0.5,0.4h9.6c3,0,5.3-0.8,6.7-2.4c1.4-1.6,1.9-3.9,1.3-6.8c-0.2-1.2-0.6-2.2-1.2-3.2c-0.5-1-1.3-1.9-2.1-2.7
						c-1-1-2.2-1.7-3.5-2.1c-1.3-0.4-2.9-0.6-4.8-0.6h-3.9l-1.1-5.7c0-0.2-0.2-0.4-0.5-0.4H-352.7z"/>
				</g>
				<g id="g3504" transform="translate(407.0391,197.3071)">
					<path id="path3506" class="st5" d="M-340.7,80.6h2.6c2.1,0,2.8-0.5,3.1-0.7c0.4-0.5,0.5-1.4,0.2-2.8c-0.3-1.5-0.9-2.6-1.6-3.2
						c-0.8-0.6-2.1-0.9-3.9-0.9h-1.9L-340.7,80.6z M-336.1,86.1h-9.6c-0.5,0-0.8-0.3-0.9-0.8l-4.5-23c-0.1-0.3,0-0.6,0.2-0.8
						c0.2-0.2,0.4-0.3,0.7-0.3h5c0.5,0,0.8,0.3,0.9,0.8l1,5.3h3.5c2,0,3.7,0.2,5,0.6c1.3,0.4,2.6,1.2,3.7,2.2
						c0.9,0.8,1.7,1.8,2.2,2.8c0.6,1,1,2.1,1.2,3.4c0.6,3,0.1,5.4-1.4,7.2C-330.6,85.2-332.9,86.1-336.1,86.1 M-343.3,71.9h3
						c2,0,3.5,0.4,4.5,1.1c1,0.8,1.7,2,2,3.8c0.3,1.7,0.2,2.9-0.5,3.6c-0.6,0.7-1.9,1.1-3.8,1.1h-3.4L-343.3,71.9 M-336.1,85.1
						c2.9,0,5-0.8,6.3-2.3c1.3-1.5,1.7-3.6,1.2-6.4c-0.2-1.1-0.6-2.1-1.1-3.1c-0.5-0.9-1.2-1.8-2-2.6c-1-0.9-2.1-1.6-3.3-2
						c-1.2-0.4-2.8-0.6-4.7-0.6h-4.3l-1.2-6.1h-5l4.5,23H-336.1"/>
				</g>
			</g>
		</g>
	</g>
</g>
</svg>
