<svg enable-background="new 0 0 480 614.5" height="614.5" viewBox="0 0 480 614.5" width="480" xmlns="http://www.w3.org/2000/svg" xmlns:xlink="http://www.w3.org/1999/xlink"><mask id="a" height="80.6" maskUnits="userSpaceOnUse" width="65.4" x="6.3" y=".5"><circle clip-rule="evenodd" cx="41.6" cy="34.4" fill="#fff" fill-rule="evenodd" r="47.1"/></mask><mask id="b" height="8.9" maskUnits="userSpaceOnUse" width="25.1" x="15.4" y="44.8"><path clip-rule="evenodd" d="m-6.2 67.1h65.4v-80.6h-65.4z" fill="#fff" fill-rule="evenodd"/></mask><mask id="c" height="13.4" maskUnits="userSpaceOnUse" width="65.4" x="-6.2" y="53.7"><path clip-rule="evenodd" d="m-6.2 67.1h65.4v-80.6h-65.4z" fill="#fff" fill-rule="evenodd"/></mask><mask id="d" height="14.6" maskUnits="userSpaceOnUse" width="14.9" x="13.2" y="48.7"><path clip-rule="evenodd" d="m-6.2 67.1h65.4v-80.6h-65.4z" fill="#fff" fill-rule="evenodd"/></mask><mask id="e" height="14.5" maskUnits="userSpaceOnUse" width="14.9" x="28" y="48.8"><path clip-rule="evenodd" d="m-6.2 67.1h65.4v-80.6h-65.4z" fill="#fff" fill-rule="evenodd"/></mask><mask id="f" height="24" maskUnits="userSpaceOnUse" width="34.6" x="10.6" y="31.7"><path clip-rule="evenodd" d="m-6.2 67.1h65.4v-80.6h-65.4z" fill="#fff" fill-rule="evenodd"/></mask><mask id="g" height="7.8" maskUnits="userSpaceOnUse" width="14" x="10.8" y="15.6"><path clip-rule="evenodd" d="m-6.2 67.1h65.4v-80.6h-65.4z" fill="#fff" fill-rule="evenodd"/></mask><mask id="h" height="3.3" maskUnits="userSpaceOnUse" width="3.3" x="15.8" y="18.7"><path clip-rule="evenodd" d="m-6.2 67.1h65.4v-80.6h-65.4z" fill="#fff" fill-rule="evenodd"/></mask><mask id="i" height="3.7" maskUnits="userSpaceOnUse" width="10.7" x="12" y="17.3"><path clip-rule="evenodd" d="m-6.2 67.1h65.4v-80.6h-65.4z" fill="#fff" fill-rule="evenodd"/></mask><mask id="j" height="11.3" maskUnits="userSpaceOnUse" width="17.8" x="29.3" y="14.5"><path clip-rule="evenodd" d="m-6.2 67.1h65.4v-80.6h-65.4z" fill="#fff" fill-rule="evenodd"/></mask><mask id="k" height="11.8" maskUnits="userSpaceOnUse" width="29.7" x="13.2" y="53.8"><path clip-rule="evenodd" d="m-6.2 67.1h65.4v-80.6h-65.4z" fill="#fff" fill-rule="evenodd"/></mask><mask id="l" height="35.6" maskUnits="userSpaceOnUse" width="47" x="3.8" y="-13.5"><path clip-rule="evenodd" d="m-6.2 67.1h65.4v-80.6h-65.4z" fill="#fff" fill-rule="evenodd"/></mask><mask id="m" height="11.3" maskUnits="userSpaceOnUse" width="17.8" x="8.7" y="14.5"><path clip-rule="evenodd" d="m-6.2 67.1h65.4v-80.6h-65.4z" fill="#fff" fill-rule="evenodd"/></mask><mask id="n" height="79.2" maskUnits="userSpaceOnUse" width="74.6" x="-8.5" y="12.5"><circle clip-rule="evenodd" cx="29" cy="44.8" fill="#fff" fill-rule="evenodd" r="47.1"/></mask><mask id="o" height="57.3" maskUnits="userSpaceOnUse" width="74.6" x="-18.6" y="-3"><path clip-rule="evenodd" d="m-18.6-3h74.5v57.3h-74.5z" fill="#fff" fill-rule="evenodd"/></mask><mask id="p" height="79.2" maskUnits="userSpaceOnUse" width="74.6" x="4.1" y="-12.4"><circle clip-rule="evenodd" cx="41.6" cy="19.8" fill="#fff" fill-rule="evenodd" r="47.1"/></mask><mask id="q" height="57.3" maskUnits="userSpaceOnUse" width="74.6" x="-6" y="-28"><path clip-rule="evenodd" d="m-6-28h74.6v57.3h-74.6z" fill="#fff" fill-rule="evenodd"/></mask><mask id="r" height="80.6" maskUnits="userSpaceOnUse" width="65.4" x="-6.7" y="-3.8"><circle clip-rule="evenodd" cx="28.6" cy="30" fill="#fff" fill-rule="evenodd" r="47.1"/></mask><mask id="s" height="8.9" maskUnits="userSpaceOnUse" width="25.1" x="2.4" y="40.5"><path clip-rule="evenodd" d="m-19.2 62.8h65.4v-80.6h-65.4z" fill="#fff" fill-rule="evenodd"/></mask><mask id="t" height="13.4" maskUnits="userSpaceOnUse" width="65.4" x="-19.2" y="49.4"><path clip-rule="evenodd" d="m-19.2 62.8h65.4v-80.6h-65.4z" fill="#fff" fill-rule="evenodd"/></mask><mask id="u" height="14.6" maskUnits="userSpaceOnUse" width="14.9" x=".2" y="44.4"><path clip-rule="evenodd" d="m-19.2 62.8h65.4v-80.6h-65.4z" fill="#fff" fill-rule="evenodd"/></mask><mask id="v" height="14.5" maskUnits="userSpaceOnUse" width="14.9" x="15" y="44.5"><path clip-rule="evenodd" d="m-19.2 62.8h65.4v-80.6h-65.4z" fill="#fff" fill-rule="evenodd"/></mask><mask id="w" height="24" maskUnits="userSpaceOnUse" width="34.6" x="-2.4" y="27.4"><path clip-rule="evenodd" d="m-19.2 62.8h65.4v-80.6h-65.4z" fill="#fff" fill-rule="evenodd"/></mask><mask id="x" height="7.8" maskUnits="userSpaceOnUse" width="14" x="-2.2" y="11.3"><path clip-rule="evenodd" d="m-19.2 62.8h65.4v-80.6h-65.4z" fill="#fff" fill-rule="evenodd"/></mask><mask id="y" height="3.3" maskUnits="userSpaceOnUse" width="3.3" x="2.8" y="14.4"><path clip-rule="evenodd" d="m-19.2 62.8h65.4v-80.6h-65.4z" fill="#fff" fill-rule="evenodd"/></mask><mask id="z" height="3.7" maskUnits="userSpaceOnUse" width="10.7" x="-1" y="12.9"><path clip-rule="evenodd" d="m-19.2 62.8h65.4v-80.6h-65.4z" fill="#fff" fill-rule="evenodd"/></mask><mask id="A" height="11.3" maskUnits="userSpaceOnUse" width="17.8" x="16.3" y="10.2"><path clip-rule="evenodd" d="m-19.2 62.8h65.4v-80.6h-65.4z" fill="#fff" fill-rule="evenodd"/></mask><mask id="B" height="11.8" maskUnits="userSpaceOnUse" width="29.7" x=".2" y="49.5"><path clip-rule="evenodd" d="m-19.2 62.8h65.4v-80.6h-65.4z" fill="#fff" fill-rule="evenodd"/></mask><mask id="C" height="35.6" maskUnits="userSpaceOnUse" width="47" x="-9.2" y="-17.8"><path clip-rule="evenodd" d="m-19.2 62.8h65.4v-80.6h-65.4z" fill="#fff" fill-rule="evenodd"/></mask><mask id="D" height="11.3" maskUnits="userSpaceOnUse" width="17.8" x="-4.3" y="10.2"><path clip-rule="evenodd" d="m-19.2 62.8h65.4v-80.6h-65.4z" fill="#fff" fill-rule="evenodd"/></mask><g transform="translate(0 .75551)"><path clip-rule="evenodd" d="m0 104.5h480v464.9h-480z" fill="#fee3e4" fill-rule="evenodd"/><path d="m261.9 492c.7 0 1.3-.1 1.8-.3s.9-.5 1.3-.8c.3-.3.6-.7.8-1.2.2-.4.2-.9.2-1.3 0-.8-.2-1.6-.7-2.2s-1.2-1.1-2.1-1.4l-1.9-.6c-.6-.2-1-.4-1.2-.7-.3-.3-.4-.6-.4-1 0-.2 0-.4.1-.6s.2-.4.3-.6.4-.3.7-.4.6-.2 1-.2c.6 0 1.2.2 1.6.5.4.4.7.8.9 1.2l1.5-.4c-.1-.4-.3-.7-.5-1.1-.2-.3-.5-.6-.9-.9s-.7-.5-1.2-.6c-.4-.2-.9-.2-1.5-.2s-1.2.1-1.7.3-.9.4-1.2.8c-.3.3-.5.7-.7 1.1s-.2.8-.2 1.2c0 .8.2 1.5.7 2s1.2.9 2.1 1.2l1.7.5c.4.1.7.2.9.4s.4.3.6.5c.1.2.2.4.3.6s.1.4.1.6 0 .5-.1.7-.2.5-.4.7-.5.4-.8.5-.7.2-1.1.2c-.3 0-.6-.1-.9-.2s-.5-.2-.8-.4c-.2-.2-.4-.4-.6-.7s-.3-.5-.3-.8l-1.5.4c.1.4.3.9.5 1.2s.6.7.9 1c.4.3.8.5 1.2.7s1 .3 1.5.3zm10.5 0c.8 0 1.5-.2 2.1-.5s1.2-.8 1.6-1.4l-1.3-.8c-.6.8-1.4 1.2-2.5 1.2-.4 0-.8-.1-1.1-.2s-.6-.3-.8-.6-.4-.5-.5-.9c-.1-.3-.2-.7-.2-1.1s.1-.8.2-1.1.3-.7.5-.9.5-.5.8-.6c.3-.2.7-.2 1.1-.2.5 0 .9.1 1.3.4s.7.6.9 1l1.4-.5c-.3-.7-.8-1.3-1.4-1.8-.6-.4-1.4-.6-2.2-.6-.6 0-1.2.1-1.7.4-.5.2-1 .6-1.3 1-.4.4-.6.9-.8 1.4s-.3 1.1-.3 1.7.1 1.2.3 1.7.5 1 .9 1.3c.4.4.8.7 1.3.9.6.1 1.1.2 1.7.2zm8.3-.1v-5.5c.2-.5.6-.8 1-1.1s.9-.4 1.4-.4c.4 0 .7.1.9.2.3.1.5.3.6.5.2.2.3.5.4.7.1.3.1.6.1.9v4.7h1.5v-4.8c0-.6-.1-1.1-.3-1.5s-.4-.8-.7-1.1-.7-.6-1.1-.7c-.4-.2-.9-.3-1.4-.3s-.9.1-1.4.3-.8.5-1.1.9v-5.6h-1.5v12.8zm12.9-9.7 1.8-3.1h-1.8l-1.2 3.1zm-.1 9.8c.7 0 1.4-.2 2-.5s1.2-.8 1.6-1.4l-1.3-.7c-.3.4-.7.7-1.1.9s-.8.3-1.3.3c-.8 0-1.4-.2-1.8-.7-.5-.5-.7-1-.8-1.7h6.4c0-.1 0-.2 0-.3s0-.2 0-.4c0-.6-.1-1.2-.3-1.7s-.5-.9-.8-1.3c-.4-.4-.8-.6-1.3-.8s-1-.3-1.6-.3-1.1.1-1.6.3-.9.5-1.3.9-.6.8-.8 1.4c-.2.5-.3 1.1-.3 1.7s.1 1.2.3 1.7.5 1 .9 1.4.8.7 1.3.9c.6.2 1.2.3 1.8.3zm2.2-5h-4.7c0-.3.1-.6.2-.9s.3-.5.5-.7.5-.4.7-.5c.3-.1.6-.2.9-.2s.6.1.9.2.5.3.7.5.4.4.5.7.3.6.3.9zm5.5 4.9v-5.7c0-.4.1-.7.3-1s.4-.4.7-.4c.6 0 .9.4.9 1.3v5.8h1.5v-5.8c0-.4.1-.7.3-.9s.4-.3.7-.3.5.1.7.3.3.5.3 1v5.8h1.5v-5.7c0-.8-.2-1.5-.6-1.9-.4-.5-.9-.7-1.6-.7-.4 0-.8.1-1.1.3s-.5.5-.7.8c-.3-.8-.9-1.2-1.6-1.2-.4 0-.7.1-1 .3s-.5.5-.6.8v-1h-1.4v8.3h1.7zm12.7.1c.3 0 .7 0 1-.1s.6-.2.9-.3.5-.3.7-.5l.5-.5v1.3h1.4v-8.3h-1.5v1.2c-.3-.4-.7-.7-1.2-.9s-1-.3-1.6-.3-1.1.1-1.6.3-.9.5-1.3.9-.6.8-.8 1.4c-.2.5-.3 1.1-.3 1.7s.1 1.2.3 1.7.5 1 .8 1.4c.4.4.8.7 1.2.9.4 0 .9.1 1.5.1zm.2-1.4c-.4 0-.7-.1-1.1-.2-.3-.1-.6-.4-.8-.6-.2-.3-.4-.6-.6-.9-.1-.3-.2-.7-.2-1.1s.1-.8.2-1.1.3-.6.6-.9c.2-.3.5-.5.8-.6s.7-.2 1.1-.2.7.1 1.1.2c.3.1.6.3.8.6.2.2.4.5.6.9.1.3.2.7.2 1v.1c0 .4-.1.8-.2 1.2s-.3.7-.6.9-.5.5-.8.6-.7.1-1.1.1zm19.1 1.4c.7 0 1.3-.1 1.8-.4s.9-.6 1.1-1v1.3h1.4v-12.8h-1.5v5.5c-.3-.3-.7-.6-1.2-.8s-1-.3-1.6-.3-1.1.1-1.6.3-.9.5-1.3.9-.6.8-.8 1.4c-.2.5-.3 1.1-.3 1.7s.1 1.1.3 1.7c.2.5.5 1 .8 1.4s.8.7 1.2.9c.6.1 1.1.2 1.7.2zm.2-1.4c-.4 0-.7-.1-1-.2s-.6-.3-.8-.6-.4-.6-.5-.9c-.1-.4-.2-.7-.2-1.1s.1-.8.2-1.1c.1-.4.3-.7.5-.9.2-.3.5-.5.8-.6s.7-.2 1-.2c.4 0 .7.1 1.1.2.3.1.6.3.8.6.2.2.4.5.5.9.1.3.2.7.2 1.1v.1c0 .4-.1.8-.2 1.1s-.3.6-.5.9c-.2.2-.5.4-.8.6-.4 0-.7.1-1.1.1zm8.7-7.4.9-3.8h-1.4l-.5 3.8zm7.7 8.8c.7 0 1.3-.1 1.7-.4s.7-.6.9-1v1.2h1.4v-8.3h-1.5v4.2c0 .5-.1.9-.2 1.3s-.3.7-.5.9-.4.4-.7.5-.6.2-.8.2c-.7 0-1.2-.2-1.6-.6s-.5-1-.5-1.8v-4.6h-1.5v4.7c0 1.2.3 2.1.9 2.8.6.6 1.4.9 2.4.9zm8.9-.1v-5.5c.2-.5.6-.8 1-1.1s.9-.4 1.3-.4c.7 0 1.3.2 1.6.7.3.4.5 1 .5 1.7v4.7h1.5v-4.8c0-.6-.1-1.1-.3-1.5s-.4-.8-.7-1.1-.7-.6-1.1-.7c-.4-.2-.9-.2-1.3-.2-.5 0-1 .1-1.4.3s-.8.5-1.1.9v-1.2h-1.5v8.3h1.5zm12.7.1c.7 0 1.4-.2 2-.5s1.2-.8 1.6-1.4l-1.3-.7c-.3.4-.7.7-1.1.9s-.8.3-1.3.3c-.8 0-1.4-.2-1.8-.7-.5-.5-.7-1-.8-1.7h6.4c0-.1 0-.2 0-.3s0-.2 0-.4c0-.6-.1-1.2-.3-1.7s-.5-.9-.8-1.3c-.4-.4-.8-.6-1.3-.8s-1-.3-1.6-.3-1.1.1-1.6.3-.9.5-1.3.9-.6.8-.8 1.4c-.2.5-.3 1.1-.3 1.7s.1 1.2.3 1.7.5 1 .9 1.4.8.7 1.3.9c.7.2 1.2.3 1.8.3zm2.2-5h-4.7c0-.3.1-.6.2-.9s.3-.5.5-.7.5-.4.7-.5c.3-.1.6-.2.9-.2s.6.1.9.2.5.3.7.5.4.4.5.7.3.6.3.9zm-111.5 20.6 1.8-3.1h-1.8l-1.2 3.1zm-.1 9.9c.7 0 1.4-.2 2-.5s1.2-.8 1.6-1.4l-1.3-.7c-.3.4-.7.7-1.1.9s-.8.3-1.3.3c-.8 0-1.4-.2-1.8-.7-.5-.5-.7-1-.8-1.7h6.4c0-.1 0-.2 0-.3s0-.2 0-.4c0-.6-.1-1.2-.3-1.7s-.5-.9-.8-1.3c-.4-.4-.8-.6-1.3-.8s-1-.3-1.6-.3-1.1.1-1.6.3-.9.5-1.3.9-.6.8-.8 1.4c-.2.5-.3 1.1-.3 1.7s.1 1.2.3 1.7.5 1 .9 1.4.8.7 1.3.9c.6.1 1.2.3 1.8.3zm2.2-5.1h-4.7c0-.3.1-.6.2-.9s.3-.5.5-.7.5-.4.7-.5c.3-.1.6-.2.9-.2s.6.1.9.2.5.3.7.5.4.4.5.7.3.6.3.9zm12 9v-12.5h-1.5v1.2c-.4-.4-.8-.7-1.2-1-.5-.2-1-.3-1.5-.3-.6 0-1.1.1-1.6.3s-.9.5-1.2.9-.6.8-.8 1.3-.3 1.1-.3 1.7.1 1.1.3 1.7c.2.5.5 1 .8 1.4s.7.7 1.2.9 1 .3 1.5.3c.7 0 1.4-.2 1.8-.5.5-.3.8-.7 1-1.1v5.6h1.5zm-4.1-5.4c-.4 0-.7-.1-1-.2-.3-.2-.6-.4-.8-.6-.2-.3-.4-.6-.5-.9-.1-.4-.2-.7-.2-1.1s.1-.8.2-1.1.3-.6.5-.9.5-.5.8-.6.6-.2 1-.2.8.1 1.1.2.6.3.8.6c.2.2.4.5.5.9.1.3.2.7.2 1.1v.1c0 .4-.1.8-.2 1.1s-.3.6-.6.9c-.2.2-.5.4-.8.6-.3 0-.7.1-1 .1zm10.3 1.5c.7 0 1.3-.1 1.7-.4s.7-.6.9-1v1.2h1.4v-8.3h-1.5v4.2c0 .5-.1.9-.2 1.3s-.3.7-.5.9-.4.4-.7.5-.6.2-.8.2c-.7 0-1.2-.2-1.6-.6s-.5-1-.5-1.8v-4.6h-1.5v4.7c0 1.2.3 2.1.9 2.8.6.5 1.4.9 2.4.9zm11.3-10.3c.3 0 .6-.1.8-.3s.3-.5.3-.8-.1-.6-.3-.8-.5-.3-.8-.3-.5.1-.8.3c-.2.2-.3.5-.3.8s.1.5.3.8c.2.2.5.3.8.3zm4 10.1v-1.3h-3.3v-7.1h-4.8v1.3h3.3v5.8h-3.3v1.3zm3.9 4.1v-5.2c.3.4.7.7 1.2.9s1 .3 1.5.3c.6 0 1.1-.1 1.6-.4.5-.2.9-.6 1.2-.9.3-.4.6-.9.8-1.4s.3-1.1.3-1.7-.1-1.2-.3-1.7-.5-1-.8-1.3c-.3-.4-.8-.7-1.2-.9-.5-.2-1-.3-1.6-.3-1.1 0-2 .5-2.8 1.4v-1.3h-1.5v12.5zm2.6-5.4c-.3 0-.7-.1-1-.2s-.6-.3-.8-.6c-.2-.2-.4-.5-.6-.9-.1-.3-.2-.7-.2-1.1v-.1c0-.4.1-.8.2-1.1s.3-.6.5-.9.5-.5.8-.6.7-.2 1.1-.2.7.1 1 .2.6.3.8.6.4.6.5.9.2.7.2 1.1-.1.8-.2 1.1c-.1.4-.3.7-.5.9-.2.3-.5.5-.8.6-.3.2-.7.3-1 .3zm10.3 1.5c.7 0 1.4-.2 2-.5s1.2-.8 1.6-1.4l-1.3-.7c-.3.4-.7.7-1.1.9s-.8.3-1.3.3c-.8 0-1.4-.2-1.8-.7-.5-.5-.7-1-.8-1.7h6.4c0-.1 0-.2 0-.3s0-.2 0-.4c0-.6-.1-1.2-.3-1.7s-.5-.9-.8-1.3c-.4-.4-.8-.6-1.3-.8s-1-.3-1.6-.3-1.1.1-1.6.3-.9.5-1.3.9-.6.8-.8 1.4c-.2.5-.3 1.1-.3 1.7s.1 1.2.3 1.7.5 1 .9 1.4.8.7 1.3.9c.6.1 1.2.3 1.8.3zm2.2-5.1h-4.7c0-.3.1-.6.2-.9s.3-.5.5-.7.5-.4.7-.5c.3-.1.6-.2.9-.2s.6.1.9.2.5.3.7.5.4.4.5.7.3.6.3.9zm18 5.1c.4 0 .8-.1 1.1-.2s.6-.2.9-.4c.2-.2.5-.3.6-.5.2-.2.3-.4.5-.5l-1.1-.9c-.2.3-.5.6-.8.8s-.7.3-1.1.3c-.2 0-.4 0-.7-.1-.2-.1-.4-.2-.6-.3-.2-.2-.3-.4-.4-.6-.1-.3-.1-.6-.1-.9v-3.9h3.9v-1.3h-3.9v-2.4h-1.3l-.2 2.4h-2.4v1.3h2.4v3.9c0 .5.1 1 .2 1.4.2.4.4.8.6 1.1.3.3.6.5 1 .6.5.1 1 .2 1.4.2zm8.9 3.9 4.8-12.5h-1.6l-2.6 7.1-2.5-7.1h-1.6l3.1 8.3h.6l-1.7 4.2zm8.8 0v-5.2c.3.4.7.7 1.2.9s1 .3 1.5.3c.6 0 1.1-.1 1.6-.4.5-.2.9-.6 1.2-.9.3-.4.6-.9.8-1.4s.3-1.1.3-1.7-.1-1.2-.3-1.7-.5-1-.8-1.3c-.3-.4-.8-.7-1.2-.9-.5-.2-1-.3-1.6-.3-1.1 0-2 .5-2.8 1.4v-1.3h-1.5v12.5zm2.6-5.4c-.3 0-.7-.1-1-.2s-.6-.3-.8-.6c-.2-.2-.4-.5-.6-.9-.1-.3-.2-.7-.2-1.1v-.1c0-.4.1-.8.2-1.1s.3-.6.5-.9.5-.5.8-.6.7-.2 1.1-.2.7.1 1 .2.6.3.8.6.4.6.5.9.2.7.2 1.1-.1.8-.2 1.1c-.1.4-.3.7-.5.9-.2.3-.5.5-.8.6-.3.2-.6.3-1 .3zm10.4 1.5c.7 0 1.4-.2 2-.5s1.2-.8 1.6-1.4l-1.3-.7c-.3.4-.7.7-1.1.9s-.8.3-1.3.3c-.8 0-1.4-.2-1.8-.7-.5-.5-.7-1-.8-1.7h6.4c0-.1 0-.2 0-.3s0-.2 0-.4c0-.6-.1-1.2-.3-1.7s-.5-.9-.8-1.3c-.4-.4-.8-.6-1.3-.8s-1-.3-1.6-.3-1.1.1-1.6.3-.9.5-1.3.9-.6.8-.8 1.4c-.2.5-.3 1.1-.3 1.7s.1 1.2.3 1.7.5 1 .9 1.4.8.7 1.3.9c.6.1 1.1.3 1.8.3zm2.1-5.1h-4.7c0-.3.1-.6.2-.9s.3-.5.5-.7.5-.4.7-.5c.3-.1.6-.2.9-.2s.6.1.9.2.5.3.7.5.4.4.5.7c.3.3.3.6.3.9zm21.1 4.9v-1.4h-6.2v-4.3h5.1v-1.4h-5.1v-3.9h5.9v-1.4h-7.6v12.5h7.9zm10.9 0v-1.3h-3.7v-11.5h-4.6v1.3h3v10.2h-3.1v1.3zm5.5.2c.3 0 .7 0 1-.1l.9-.3s.5-.3.7-.5.4-.4.5-.5v1.3h1.4v-8.3h-1.5v1.2c-.3-.4-.7-.7-1.2-.9s-1-.3-1.6-.3-1.1.1-1.6.3-.9.5-1.3.9-.6.8-.8 1.4-.3 1.1-.3 1.7.1 1.2.3 1.7.5 1 .8 1.4c.4.4.8.7 1.2.9.4-.1 1 .1 1.5.1zm.3-1.5c-.4 0-.7-.1-1.1-.2-.3-.1-.6-.4-.8-.6s-.4-.6-.6-.9c-.1-.3-.2-.7-.2-1.1s.1-.8.2-1.1.3-.6.6-.9.5-.5.8-.6.7-.2 1.1-.2.7.1 1.1.2c.3.1.6.3.8.6.2.2.4.5.6.9.1.3.2.7.2 1v.1c0 .4-.1.8-.2 1.2s-.3.7-.6.9-.5.5-.8.6c-.4 0-.7.1-1.1.1zm10.7 1.5c.6 0 1.2-.1 1.7-.3s1-.5 1.3-.9c.4-.4.6-.8.8-1.4.2-.5.3-1.1.3-1.7s-.1-1.2-.3-1.7-.5-1-.8-1.4-.8-.7-1.3-.9-1.1-.3-1.7-.3-1.2.1-1.7.3-.9.5-1.3.9-.6.8-.8 1.4c-.2.5-.3 1.1-.3 1.7s.1 1.1.3 1.7c.2.5.5 1 .8 1.4.4.4.8.7 1.3.9.5.1 1.1.3 1.7.3zm0-1.5c-.4 0-.8-.1-1.1-.2s-.6-.4-.8-.6-.4-.6-.5-.9-.2-.7-.2-1.1.1-.8.2-1.1.3-.6.5-.9.5-.5.8-.6.7-.2 1.1-.2.8.1 1.1.2.6.4.8.6.4.6.5.9.2.7.2 1.1-.1.7-.2 1.1c-.1.3-.3.6-.5.9s-.5.5-.8.6-.7.2-1.1.2z" fill="#f4756d"/><g transform="translate(51.642857 177.537711)"><path clip-rule="evenodd" d="m-3-10.9h170.4v210.8h-170.4z" fill="#0d3a5a" fill-rule="evenodd"/><path d="m27.8 145.7c.8 0 1.6-.1 2.2-.4s1.1-.7 1.5-1.2.7-1.1.9-1.8.3-1.4.3-2.1-.1-1.5-.3-2.1c-.2-.7-.5-1.3-.9-1.8s-.9-.9-1.5-1.2-1.3-.4-2.2-.4h-2.9v11.1h2.9zm0-1.8h-1v-7.5h1c.5 0 .9.1 1.3.3s.7.5.9.8.4.7.5 1.2.2.9.2 1.4-.1 1-.2 1.4c-.1.5-.3.8-.5 1.2-.2.3-.5.6-.9.8-.4.3-.8.4-1.3.4zm10.3-6.7 1.7-2.8h-2l-1 2.8zm-.2 8.7c.6 0 1.2-.1 1.8-.4s1.1-.7 1.5-1.3l-1.6-.8c-.2.3-.5.5-.8.6s-.6.2-1 .2c-.5 0-1-.2-1.3-.5s-.5-.7-.6-1.2h5.3c0-.1 0-.2 0-.4v-.4c0-.5-.1-1-.3-1.4-.2-.5-.4-.8-.7-1.2-.3-.3-.7-.6-1.1-.8s-.9-.3-1.5-.3c-.5 0-1 .1-1.5.3-.4.2-.8.5-1.1.8s-.6.8-.7 1.2c-.2.5-.3 1-.3 1.5 0 .6.1 1.1.3 1.6s.4.9.8 1.2c.3.3.7.6 1.2.8.6.4 1.1.5 1.6.5zm1.5-4.7h-3.3c0-.4.2-.8.5-1.1s.7-.4 1.2-.4.8.1 1.1.4c.4.3.5.7.5 1.1zm8.8 4.5 2.6-7.5h-1.9l-1.8 5.5-1.7-5.5h-2l2.6 7.5zm8.4.2c.6 0 1.2-.1 1.8-.4s1.1-.7 1.5-1.3l-1.6-.8c-.2.3-.5.5-.8.6s-.6.2-1 .2c-.5 0-1-.2-1.3-.5s-.5-.7-.6-1.2h5.4c0-.1 0-.2 0-.4v-.4c0-.5-.1-1-.3-1.4-.2-.5-.4-.8-.7-1.2-.3-.3-.7-.6-1.1-.8s-.9-.3-1.5-.3-1 .1-1.5.3c-.4.2-.8.5-1.1.8s-.6.8-.7 1.2-.3 1-.3 1.5c0 .6.1 1.1.3 1.6s.4.9.8 1.2c.3.3.7.6 1.2.8.4.4 1 .5 1.5.5zm1.5-4.7h-3.3c0-.4.2-.8.5-1.1s.7-.4 1.2-.4.8.1 1.1.4.5.7.5 1.1zm11.7 4.5v-1.6h-3.1v-9.7h-4.3v1.6h2.5v8.1h-2.6v1.6zm5.3.2c.6 0 1.1-.1 1.5-.3.5-.2.9-.5 1.2-.8.3-.4.6-.8.8-1.2.2-.5.3-1 .3-1.5s-.1-1-.3-1.5-.4-.9-.8-1.2c-.3-.4-.7-.6-1.2-.8s-1-.3-1.5-.3c-.6 0-1.1.1-1.6.3s-.9.5-1.2.8c-.3.4-.6.8-.8 1.2-.2.5-.3 1-.3 1.5s.1 1 .3 1.5.4.9.8 1.2c.3.4.7.6 1.2.8.6.2 1.1.3 1.6.3zm0-1.8c-.3 0-.6-.1-.8-.2s-.4-.3-.6-.5-.3-.4-.4-.7-.1-.5-.1-.8 0-.6.1-.8c.1-.3.2-.5.4-.7s.4-.3.6-.5c.2-.1.5-.2.8-.2s.6.1.8.2.4.3.6.5.3.4.4.7.1.5.1.8 0 .6-.1.8c-.1.3-.2.5-.4.7s-.4.4-.6.5c-.2.2-.5.2-.8.2zm7.7 5.3v-4.5c.2.3.5.6.9.7.4.2.8.3 1.2.3.5 0 1-.1 1.4-.3s.8-.5 1.1-.9.5-.8.7-1.3.2-1 .2-1.5-.1-1-.2-1.5c-.2-.5-.4-.9-.7-1.2s-.7-.6-1.1-.8-.9-.3-1.4-.3-.9.1-1.2.3-.7.4-.9.8v-1h-1.8v11.2zm1.9-5.3c-.3 0-.5-.1-.8-.2-.2-.1-.4-.3-.6-.4-.2-.2-.3-.4-.4-.7s-.1-.5-.1-.8c0-.3 0-.5.1-.8s.2-.5.4-.7.4-.4.6-.5.5-.2.8-.2.5.1.8.2.4.3.6.5.3.4.4.7.1.5.1.8 0 .6-.1.8c-.1.3-.2.5-.4.7s-.4.4-.6.5-.5.1-.8.1zm7.5 5.3v-4.5c.2.3.5.6.9.7.4.2.8.3 1.2.3.5 0 1-.1 1.4-.3s.8-.5 1.1-.9.5-.8.7-1.3.2-1 .2-1.5-.1-1-.2-1.5c-.2-.5-.4-.9-.7-1.2s-.7-.6-1.1-.8-.9-.3-1.4-.3-.9.1-1.2.3-.7.4-.9.8v-1h-1.8v11.2zm1.9-5.3c-.3 0-.5-.1-.8-.2-.2-.1-.4-.3-.6-.4-.2-.2-.3-.4-.4-.7s-.1-.5-.1-.8c0-.3 0-.5.1-.8s.2-.5.4-.7.4-.4.6-.5.5-.2.8-.2.5.1.8.2c.2.1.4.3.6.5s.3.4.4.7.1.5.1.8 0 .6-.1.8c-.1.3-.2.5-.4.7s-.4.4-.6.5c-.3.1-.6.1-.8.1zm9.2 1.8c.6 0 1.2-.1 1.8-.4s1.1-.7 1.5-1.3l-1.6-.8c-.2.3-.5.5-.8.6s-.6.2-1 .2c-.5 0-1-.2-1.3-.5s-.5-.7-.6-1.2h5.3c0-.1 0-.2 0-.4v-.4c0-.5-.1-1-.3-1.4-.2-.5-.4-.8-.7-1.2s-.7-.6-1.1-.8-.9-.3-1.5-.3c-.5 0-1 .1-1.5.3-.4.2-.8.5-1.1.8s-.6.8-.7 1.2-.3 1-.3 1.5c0 .6.1 1.1.3 1.6s.4.9.8 1.2c.3.3.7.6 1.2.8.5.4 1 .5 1.6.5zm1.5-4.7h-3.3c0-.4.2-.8.5-1.1s.7-.4 1.2-.4.8.1 1.1.4.5.7.5 1.1zm7.1 4.7c.3 0 .6 0 .8-.1s.5-.2.6-.3c.2-.1.3-.2.5-.4s.2-.3.3-.4v1h1.7v-7.5h-1.8v4c0 .6-.2 1.1-.5 1.5-.3.3-.7.5-1.1.5-1 0-1.5-.6-1.5-1.8v-4.1h-1.9v4.2c0 1.1.3 1.9.8 2.5s1.2.9 2.1.9zm12.9-.2v-1.6h-2.9v-1.5c0-.4 0-.7.1-1.1.1-.3.2-.6.4-.9s.4-.5.7-.6c.3-.2.6-.2 1.1-.2.3 0 .5 0 .7.1.2 0 .4.1.6.2l.4-1.8c-.5-.1-.9-.2-1.4-.2-.6 0-1.1.1-1.5.4s-.8.7-1.1 1.3v-1.6h-3.8v1.6h2v4.4h-2v1.6h6.7zm-97.5 26.4v-4.9h4.3v-1.7h-4.3v-2.7h4.9v-1.8h-6.8v11.1zm13.5 0v-1.6h-2.9v-1.5c0-.4 0-.7.1-1.1s.2-.6.4-.9.4-.5.7-.6c.3-.2.6-.2 1.1-.2.3 0 .5 0 .7.1.2 0 .4.1.6.2l.4-1.8c-.5-.1-.9-.2-1.4-.2-.6 0-1.1.1-1.5.4-.5.3-.8.7-1.1 1.3v-1.6h-3.8v1.6h2v4.4h-2v1.6h6.7zm6.3.1c.6 0 1.1-.1 1.5-.3.5-.2.9-.5 1.2-.8.3-.4.6-.8.8-1.2.2-.5.3-1 .3-1.5s-.1-1-.3-1.5-.4-.9-.8-1.2c-.3-.4-.7-.6-1.2-.8s-1-.3-1.5-.3c-.6 0-1.1.1-1.6.3s-.9.5-1.2.8c-.3.4-.6.8-.8 1.2-.2.5-.3 1-.3 1.5s.1 1 .3 1.5.4.9.8 1.2c.3.4.7.6 1.2.8.6.2 1.1.3 1.6.3zm0-1.7c-.3 0-.6-.1-.8-.2s-.4-.3-.6-.5-.3-.4-.4-.7-.1-.5-.1-.8 0-.6.1-.8c.1-.3.2-.5.4-.7s.4-.3.6-.5c.2-.1.5-.2.8-.2s.6.1.8.2.4.3.6.5.3.4.4.7.1.5.1.8 0 .6-.1.8c-.1.3-.2.5-.4.7s-.4.4-.6.5-.5.2-.8.2zm7.8 1.6v-4.9c.2-.3.4-.5.7-.7s.6-.3 1-.3c.5 0 .9.2 1.1.5.3.3.4.7.4 1.2v4.2h1.9v-4.4c0-.5-.1-1-.2-1.4-.2-.4-.4-.7-.6-1-.3-.3-.6-.5-.9-.6-.4-.1-.7-.2-1.2-.2-.4 0-.8.1-1.2.3s-.7.4-.9.7v-.9h-1.8v7.5zm11.8.1c.4 0 .8 0 1.1-.1s.6-.2.8-.4.4-.3.6-.5.3-.3.4-.5l-1.3-1.1c-.1.2-.3.4-.6.6s-.6.3-.9.3c-.4 0-.7-.1-.9-.4s-.4-.7-.4-1.2v-2.8h3.3v-1.6h-3.3v-2.1h-1.6l-.2 2.1h-1.9v1.6h1.9v2.8c0 1 .3 1.8.8 2.4s1.2.9 2.2.9zm8.6 0c.6 0 1.2-.1 1.8-.4s1.1-.7 1.5-1.3l-1.6-.8c-.2.3-.5.5-.8.6s-.6.2-1 .2c-.5 0-1-.2-1.3-.5s-.5-.7-.6-1.2h5.3c0-.1 0-.2 0-.4v-.4c0-.5-.1-1-.3-1.4-.2-.5-.4-.8-.7-1.2-.3-.3-.7-.6-1.1-.8s-.9-.3-1.5-.3-1 .1-1.5.3c-.4.2-.8.5-1.1.8s-.6.8-.7 1.2c-.2.5-.3 1-.3 1.5 0 .6.1 1.1.3 1.6s.4.9.8 1.2c.3.3.7.6 1.2.8.5.4 1 .5 1.6.5zm1.5-4.6h-3.3c0-.4.2-.8.5-1.1s.7-.4 1.2-.4.8.1 1.1.4.5.6.5 1.1zm6.2 4.5v-4.9c.2-.3.4-.5.7-.7s.6-.3 1-.3c.5 0 .9.2 1.1.5.3.3.4.7.4 1.2v4.2h1.8v-4.4c0-.5-.1-1-.2-1.4-.2-.4-.4-.7-.6-1-.3-.3-.6-.5-.9-.6s-.7-.2-1.2-.2c-.4 0-.8.1-1.2.3s-.7.4-.9.7v-.9h-1.8v7.5zm10.3.1c.5 0 1-.1 1.4-.4.4-.2.7-.5.9-.8v1h1.7v-11.4h-1.8v4.6c-.2-.3-.5-.5-.9-.6-.4-.2-.8-.2-1.2-.2-.5 0-1 .1-1.4.3s-.8.5-1.1.8c-.3.4-.6.8-.7 1.2-.2.5-.3 1-.3 1.5s.1 1 .3 1.5.4.9.7 1.2c.3.4.7.6 1.1.8.3.4.8.5 1.3.5zm.3-1.7c-.3 0-.5-.1-.8-.2-.2-.1-.4-.3-.6-.5s-.3-.4-.4-.7-.1-.5-.1-.9c0-.3 0-.6.1-.9s.2-.5.4-.7.4-.3.6-.5c.2-.1.5-.2.8-.2.6 0 1 .2 1.4.6s.5.9.5 1.5v.1c0 .6-.2 1.1-.5 1.5-.4.7-.9.9-1.4.9z" fill="#2ecccb"/><g transform="translate(40.5 30.570543)"><circle clip-rule="evenodd" cx="41.6" cy="34.4" fill="#0a314c" fill-rule="evenodd" r="47.1"/><g mask="url(#a)"><g transform="translate(12.5 14)"><path clip-rule="evenodd" d="m19.8 42.2c-1-4.1 2-5 3.5-6s7-1.6 6.7-3.2 0-10.8.9-14.5 4.5-2.9 7.4-2.9c0 0 1.6 0 4.4.1 1.1.1 2.4.7 3.6 1.7-.4-8.2-2-17.9-2-17.9s-10.2.3-14.4.3h-4.1c-4.2 0-14.5-.2-14.5-.2s-2.6 16.7-2 24.8c.6 7.7 4 21.6 15.4 22.9-2.2-1.4-4.4-3.2-4.9-5.1" fill="#fcded6" fill-rule="evenodd"/><path clip-rule="evenodd" d="m29.3 47.4c12.7 0 16.4-14.9 17.1-23 .2-1.9.1-4.3 0-6.8-1.3-1-2.6-1.7-3.6-1.7-2.8-.1-4.4-.1-4.4-.1-2.9 0-6.6-.7-7.4 2.9-1 3.5-1.3 12.7-1 14.3s-5.3 2.2-6.7 3.2c-1.5 1-4.5 1.9-3.5 6 .5 1.9 2.7 3.7 5 5 .6.1 1.1.1 1.7.1h2.8z" fill="#efbdb4" fill-rule="evenodd"/><path d="m25.5 20.3c0-1.3 1.1-2.4 2.4-2.4s2.4 1.1 2.4 2.4" fill="none" stroke="#04002c" stroke-width="1.587"/><path clip-rule="evenodd" d="m39.1 20.4c0 .9-.7 1.6-1.6 1.6s-1.6-.7-1.6-1.6.7-1.6 1.6-1.6c.9-.1 1.6.7 1.6 1.6" fill="#012734" fill-rule="evenodd"/><path d="m32.9 20.4s1.5-2.1 4.6-2.1 4.5 1.7 4.5 1.7" fill="none" stroke="#012734" stroke-width="2.051"/><g clip-rule="evenodd" fill-rule="evenodd"><path d="m15.4 53.7h25.2v-8.9h-25.2z" fill="#fff" mask="url(#b)"/><path d="m59.2 67.1c0-7.4-6-13.4-13.4-13.4h-6-26.6-6c-7.4 0-13.4 6-13.4 13.4z" fill="#f4756c" mask="url(#c)"/><path d="m28.1 55.8s-8.3 7.8-8.3 7.4c0-.3-6.6-9.4-6.6-9.4l2.2-5.1z" fill="#f4756c" mask="url(#d)"/><path d="m28 55.8s8.3 7.8 8.3 7.4c0-.3 6.6-9.4 6.6-9.4l-2.4-5z" fill="#f4756c" mask="url(#e)"/><path d="m30.6 43.3s-.7-2.7-2.5-2.7h-.4c-1.8 0-2.5 2.7-2.5 2.7s-3.9.6-3.9-2.6 3.9-3.5 6.4-3.5h.4c2.5 0 6.4.3 6.4 3.5.1 3.2-3.9 2.6-3.9 2.6m4.5-6.7c-.9-1.8-2.9-2.9-6-2.9h-2.3c-3.1 0-5.1 1.2-6 2.9-.9 1.8-7.4.7-10.1-4.7.3 5.1 3.6 13.3 5.5 15.3s4.2 8.5 10.7 8.5h2.3c6.4 0 8.8-6.4 10.7-8.5 1.9-2 5.5-10.7 5.5-15.5-3 6.2-9.5 6.6-10.3 4.9" fill="#063a5a" mask="url(#f)"/><path d="m17.2 16c-3.3.7-5.7 1-6.1 2.5s-.4 4.7 2.5 4.8 7.6.3 8.8-.3 3.1-3.8 2.5-5.1c-.7-1.4-3-3-7.7-1.9" fill="#fcded4" mask="url(#g)"/><path d="m19.1 20.4c0 .9-.7 1.6-1.6 1.6s-1.6-.7-1.6-1.6.7-1.6 1.6-1.6c.9-.1 1.6.7 1.6 1.6" fill="#012734" mask="url(#h)"/></g><path d="m12.9 20.4s1.5-2.1 4.6-2.1 4.5 1.8 4.5 1.8" fill="none" mask="url(#i)" stroke="#012734" stroke-width="2.051"/><path d="m34.9 24.7h6.6c2.5 0 4.6-2.1 4.6-4.6s-2.1-4.6-4.6-4.6h-6.6c-2.5 0-4.6 2.1-4.6 4.6s2.1 4.6 4.6 4.6z" fill="none" mask="url(#j)" stroke="#04002c" stroke-width="2.051"/><path clip-rule="evenodd" d="m13.2 53.8 6.4 11.9 8.5-8.7 8.7 8.4 6.1-11.6-6.6 9.4-8.2-7.4-8.3 7.4z" fill="#da5455" fill-rule="evenodd" mask="url(#k)"/><path clip-rule="evenodd" d="m15.4.9c2-1 4.8-1.3 6.9-.1 2 1.2 7 .7 8.8.1s7.2 0 7.2 0 5.1 1.2 6.3 4.1c1.3 3.4 1.5 7.4 1.5 7.4l.9 8.6s4.2-10.4 3.9-16.4c-.1-3 .7-11.1-3.7-12-2.4-.5-6.1-1.2-8-3.5s-8-3.1-9.6-2.6c-1.6.4-4.5-.6-7.3.3s-6.3 3.7-6.3 3.7-4.8.1-7.6 2-5.4 7-3.9 10.2c1.3 3.3.7 4.2-.5 6.8s1.9 6.1 2.3 7.4 1 4.2 2.9 5.1c-.6-11 3.2-12.8 2.3-16s-.3-5.1.9-4.8 3-.3 3-.3" fill="#063a5a" fill-rule="evenodd" mask="url(#l)"/><path d="m14.3 24.7h6.6c2.5 0 4.6-2.1 4.6-4.6s-2.1-4.6-4.6-4.6h-6.6c-2.5 0-4.6 2.1-4.6 4.6s2.1 4.6 4.6 4.6z" fill="none" mask="url(#m)" stroke="#04002c" stroke-width="2.051"/></g></g></g></g><g transform="translate(270.642857)"><path clip-rule="evenodd" d="m-15.9-.5h170.4v210.8h-170.4z" fill="#0d3a5a" fill-rule="evenodd"/><path d="m14.9 156.2c.8 0 1.6-.1 2.2-.4s1.1-.7 1.5-1.2.7-1.1.9-1.8.3-1.4.3-2.1-.1-1.5-.3-2.1c-.2-.7-.5-1.3-.9-1.8s-.9-.9-1.5-1.2-1.3-.4-2.2-.4h-2.9v11.1h2.9zm0-1.8h-1v-7.5h1c.5 0 .9.1 1.3.3s.7.5.9.8.4.7.5 1.2.2.9.2 1.4-.1 1-.2 1.4c-.1.5-.3.8-.5 1.2-.2.3-.5.6-.9.8-.3.3-.8.4-1.3.4zm10.3-6.8 1.7-2.8h-2l-1 2.8zm-.1 8.7c.6 0 1.2-.1 1.8-.4s1.1-.7 1.5-1.3l-1.6-.8c-.2.3-.5.5-.8.6s-.6.2-1 .2c-.5 0-1-.2-1.3-.5s-.5-.7-.6-1.2h5.3c0-.1 0-.2 0-.4v-.4c0-.5-.1-1-.3-1.4-.2-.5-.4-.8-.7-1.2-.3-.3-.7-.6-1.1-.8s-.9-.3-1.5-.3-1 .1-1.5.3c-.4.2-.8.5-1.1.8s-.6.8-.7 1.2c-.2.5-.3 1-.3 1.5 0 .6.1 1.1.3 1.6s.4.9.8 1.2c.3.3.7.6 1.2.8.5.4 1 .5 1.6.5zm1.4-4.6h-3.3c0-.4.2-.8.5-1.1s.7-.4 1.2-.4.8.1 1.1.4c.4.3.5.6.5 1.1zm8.8 4.5 2.6-7.5h-1.9l-1.8 5.5-1.7-5.5h-2l2.6 7.5zm8.4.1c.6 0 1.2-.1 1.8-.4s1.1-.7 1.5-1.3l-1.6-.8c-.2.3-.5.5-.8.6s-.6.2-1 .2c-.5 0-1-.2-1.3-.5s-.5-.7-.6-1.2h5.3c0-.1 0-.2 0-.4v-.4c0-.5-.1-1-.3-1.4-.2-.5-.4-.8-.7-1.2-.3-.3-.7-.6-1.1-.8s-.9-.3-1.5-.3-1 .1-1.5.3c-.4.2-.8.5-1.1.8s-.6.8-.7 1.2c-.2.5-.3 1-.3 1.5 0 .6.1 1.1.3 1.6s.4.9.8 1.2c.3.3.7.6 1.2.8.6.4 1.1.5 1.6.5zm1.5-4.6h-3.3c0-.4.2-.8.5-1.1s.7-.4 1.2-.4.8.1 1.1.4.5.6.5 1.1zm11.7 4.5v-1.6h-3.1v-9.7h-4.3v1.6h2.5v8.1h-2.6v1.6zm5.4.1c.6 0 1.1-.1 1.5-.3.5-.2.9-.5 1.2-.8.3-.4.6-.8.8-1.2.2-.5.3-1 .3-1.5s-.1-1-.3-1.5-.4-.9-.8-1.2c-.3-.4-.7-.6-1.2-.8s-1-.3-1.5-.3c-.6 0-1.1.1-1.6.3s-.9.5-1.2.8c-.3.4-.6.8-.8 1.2-.2.5-.3 1-.3 1.5s.1 1 .3 1.5.4.9.8 1.2c.3.4.7.6 1.2.8s1 .3 1.6.3zm0-1.7c-.3 0-.6-.1-.8-.2s-.4-.3-.6-.5-.3-.4-.4-.7-.1-.5-.1-.8 0-.6.1-.8c.1-.3.2-.5.4-.7s.4-.3.6-.5c.2-.1.5-.2.8-.2s.6.1.8.2.4.3.6.5.3.4.4.7.1.5.1.8 0 .6-.1.8c-.1.3-.2.5-.4.7s-.4.4-.6.5c-.3.1-.6.2-.8.2zm7.6 5.2v-4.5c.2.3.5.6.9.7.4.2.8.3 1.2.3.5 0 1-.1 1.4-.3s.8-.5 1.1-.9.5-.8.7-1.3.2-1 .2-1.5-.1-1-.2-1.5-.4-.9-.7-1.2-.7-.6-1.1-.8-.9-.3-1.4-.3-.9.1-1.2.3c-.4.2-.7.4-.9.8v-1h-1.8v11.2zm1.9-5.2c-.3 0-.5-.1-.8-.2-.2-.1-.4-.3-.6-.4-.2-.2-.3-.4-.4-.7s-.1-.5-.1-.8v-.1c0-.3 0-.5.1-.8s.2-.5.4-.7.4-.4.6-.5.5-.2.8-.2.5.1.8.2c.2.1.4.3.6.5s.3.4.4.7.1.5.1.8 0 .6-.1.8-.2.5-.4.7-.4.4-.6.5-.5.2-.8.2zm7.5 5.2v-4.5c.2.3.5.6.9.7.4.2.8.3 1.2.3.5 0 1-.1 1.4-.3s.8-.5 1.1-.9.5-.8.7-1.3.2-1 .2-1.5-.1-1-.2-1.5c-.2-.5-.4-.9-.7-1.2s-.7-.6-1.1-.8-.9-.3-1.4-.3-.9.1-1.2.3c-.4.2-.7.4-.9.8v-1h-1.8v11.2zm1.9-5.2c-.3 0-.5-.1-.8-.2-.2-.1-.4-.3-.6-.4-.2-.2-.3-.4-.4-.7s-.1-.5-.1-.8v-.1c0-.3 0-.5.1-.8s.2-.5.4-.7.4-.4.6-.5.5-.2.8-.2.5.1.8.2c.2.1.4.3.6.5s.3.4.4.7.1.5.1.8 0 .6-.1.8c-.1.3-.2.5-.4.7s-.4.4-.6.5c-.3.1-.5.2-.8.2zm9.2 1.7c.6 0 1.2-.1 1.8-.4s1.1-.7 1.5-1.3l-1.6-.8c-.2.3-.5.5-.8.6s-.6.2-1 .2c-.5 0-1-.2-1.3-.5s-.5-.7-.6-1.2h5.3c0-.1 0-.2 0-.4v-.4c0-.5-.1-1-.3-1.4-.2-.5-.4-.8-.7-1.2-.3-.3-.7-.6-1.1-.8s-.9-.3-1.5-.3c-.5 0-1 .1-1.5.3-.4.2-.8.5-1.1.8s-.6.8-.7 1.2c-.2.5-.3 1-.3 1.5 0 .6.1 1.1.3 1.6s.4.9.8 1.2c.3.3.7.6 1.2.8.5.4 1.1.5 1.6.5zm1.5-4.6h-3.3c0-.4.2-.8.5-1.1s.7-.4 1.2-.4.8.1 1.1.4.5.6.5 1.1zm7.1 4.6c.3 0 .6 0 .8-.1s.5-.2.6-.3c.2-.1.3-.2.5-.4.1-.1.2-.3.3-.4v1h1.7v-7.5h-1.8v4c0 .6-.2 1.1-.5 1.5-.3.3-.7.5-1.1.5-1 0-1.5-.6-1.5-1.8v-4.1h-1.8v4.2c0 1.1.3 1.9.8 2.5s1.1.9 2 .9zm9.9 0c.5 0 1-.1 1.4-.2s.7-.3 1-.5.5-.5.6-.8.2-.6.2-.9c0-.6-.2-1.1-.6-1.4s-.9-.6-1.5-.7l-1.5-.4c-.2-.1-.4-.1-.6-.2s-.2-.2-.2-.4.1-.4.3-.5.5-.2.9-.2.7.1 1.1.2.7.3 1 .5l1-1.2c-.9-.7-1.9-1.1-3.2-1.1-.4 0-.8.1-1.2.2s-.7.3-.9.5c-.3.2-.5.4-.6.7s-.2.6-.2.9c0 .5.2 1 .5 1.3s.9.6 1.6.8l1.7.5c.4.1.6.3.6.6s-.1.4-.4.6c-.3.1-.6.2-1 .2s-.8-.1-1.2-.2c-.4-.2-.7-.4-.9-.7l-1.2 1.3c.8.7 1.9 1.1 3.3 1.1zm9.5 0c.6 0 1.2-.1 1.8-.4s1.1-.7 1.5-1.3l-1.6-.8c-.2.3-.5.5-.8.6s-.6.2-1 .2c-.5 0-1-.2-1.3-.5s-.5-.7-.6-1.2h5.3c0-.1 0-.2 0-.4v-.4c0-.5-.1-1-.3-1.4-.2-.5-.4-.8-.7-1.2-.3-.3-.7-.6-1.1-.8s-.9-.3-1.5-.3c-.5 0-1 .1-1.5.3-.4.2-.8.5-1.1.8s-.6.8-.7 1.2c-.2.5-.3 1-.3 1.5 0 .6.1 1.1.3 1.6s.4.9.8 1.2c.3.3.7.6 1.2.8.5.4 1.1.5 1.6.5zm1.5-4.6h-3.3c0-.4.2-.8.5-1.1s.7-.4 1.2-.4.8.1 1.1.4.5.6.5 1.1zm-103.7 30.8c.4 0 .9-.1 1.3-.2s.8-.3 1.1-.6.6-.6.8-1 .3-.9.3-1.4c0-.3 0-.6-.1-.9s-.2-.5-.3-.8-.3-.4-.5-.6-.4-.3-.6-.4c.3-.2.6-.6.8-.9.2-.4.3-.8.3-1.3 0-.4-.1-.8-.2-1.2-.2-.4-.4-.7-.7-.9-.3-.3-.6-.5-1.1-.6-.4-.1-.9-.2-1.4-.2h-3.9v11.1h4.2zm-.4-6.5h-1.8v-2.8h1.7c.5 0 .9.1 1.2.4.3.2.4.6.4 1s-.1.7-.4 1c-.2.2-.6.4-1.1.4zm.2 4.8h-2v-3.2h1.9c.6 0 1.1.1 1.4.4s.5.7.5 1.2-.2.9-.5 1.2-.8.4-1.3.4zm8.4 1.9c.3 0 .6 0 .8-.1.3-.1.5-.2.7-.3s.4-.2.5-.4c.2-.1.3-.3.3-.4v1h1.7v-7.5h-1.8v.9c-.3-.3-.6-.5-1-.7s-.8-.3-1.3-.3-1 .1-1.4.3-.8.5-1.1.8-.6.8-.8 1.2c-.2.5-.3 1-.3 1.5s.1 1.1.3 1.5c.2.5.4.9.8 1.2.3.3.7.6 1.1.8.6.4 1 .5 1.5.5zm.3-1.8c-.3 0-.5-.1-.8-.2-.2-.1-.5-.3-.6-.4s-.3-.4-.4-.7-.2-.5-.2-.9.1-.6.2-.9.2-.5.4-.7.4-.3.6-.5c.2-.1.5-.2.8-.2s.6.1.8.2.4.3.6.4c.2.2.3.4.4.7s.2.5.2.8v.1c0 .3-.1.6-.2.8-.1.3-.2.5-.4.7s-.4.3-.6.4c-.2.4-.5.4-.8.4zm9.6 1.8c.7 0 1.4-.1 2-.4s1.1-.7 1.5-1.3l-1.5-1c-.2.3-.5.6-.9.8-.3.2-.7.3-1.2.3-.3 0-.6-.1-.8-.2s-.4-.3-.6-.5-.3-.4-.4-.7-.1-.5-.1-.8 0-.6.1-.8c.1-.3.2-.5.4-.7s.4-.4.6-.5.5-.2.8-.2c.4 0 .7.1 1 .3s.6.5.7.9l1.7-.6c-.2-.4-.4-.8-.6-1s-.5-.5-.8-.7-.6-.4-1-.5-.7-.2-1.1-.2c-.6 0-1.1.1-1.6.3s-.9.5-1.2.9-.6.8-.8 1.2c-.2.5-.3 1-.3 1.5s.1 1 .3 1.5.4.9.8 1.2c.3.3.7.6 1.2.8.7.3 1.2.4 1.8.4zm7.7-.2v-3h.8l2.6 3h2.3l-3.4-3.8 3.1-3.7h-2.3l-2.5 3h-.6v-6.8h-1.8v11.4h1.8z" fill="#2ecccb"/><g transform="translate(36 30.570543)"><circle clip-rule="evenodd" cx="29" cy="44.8" fill="#0a314c" fill-rule="evenodd" r="47.1"/><g mask="url(#n)"><g transform="translate(10.15625 15)"><path clip-rule="evenodd" d="m10.8 54.1s-3.8.2-7.7-.6c-3.8-.8-1.3-2.1-2.7-3.7-1.3-1.5-5.6 0-10.2-1.3s-1.5-1.7-2.5-4.4-4.2-.6-6-3.7c-1.7-3.1 1.7-3.3 3.5-4.8 1.7-1.5-2.5-5.2-1.9-7.1s4.2-3.7 5-6.7c.8-3.1.8-4.4 3.3-5.6s3.6-2.9 4.6-5.2 1.7-4.6 3.8-5.2 4.2-1.3 5.2-3.5c1-2.1 1.7-2.7 4.4-3.5s7.9-.4 10-1.5 10.2.4 11 2.1c0 0 4.6-.6 5.8 2.5s1.5 5.6 3.1 6.5c1.5 1 3.1 1.9 3.1 3.6s1.2 4.4 3.5 5.2 4.2 2.9 5.8 5.6c1.5 2.7-.2 5.6 2.3 6.1 2.5.6-.6 1.9-.4 4.4s1.3 2.5 2.1 4.2-1.7 1.5-1.5 4.4 1.2 2.3-2.3 5-10.4-1-10.4 1.3.4 3.3-3.1 3.8c-3.5.6-11.1 1.9-11.1 1.9z" fill="#012734" fill-rule="evenodd" mask="url(#o)" transform="translate(0 .532667)"/><path clip-rule="evenodd" d="m28.6 76.7 6.7-16.6c-.9-.2-1.7-.3-2.7-.3h-6.4l-7.6-7 2.5-4h-9.8v11h-6.3c-.4 0-.7 0-1.1.1l7.2 16.8z" fill="#fcded6" fill-rule="evenodd"/><path d="m26.3 48.8h-.2l.2.1z" fill="none" stroke="#000" stroke-width=".52"/><g clip-rule="evenodd" fill-rule="evenodd"><path d="m47 76.7v-2.5c0-7-5-12.9-11.7-14.1l-6.7 16.6z" fill="#ff4345"/><path d="m-9.4 74.2v2.5h20.5l-7.1-16.8c-7.5.5-13.4 6.7-13.4 14.3" fill="#ff4345"/><path d="m26.3 59.8v-10.9l-.2-.1h-4.9l-2.5 4.1z" fill="#d3a8a0"/><path d="m19.3 42.7 1.9-.4c1.9-.4 1-8.6 1-11.9s1.8-3.8 4-4.6c2.1-.8 6.1-.6 9.5-.2-1.4-1.3-2.9-3.7-2.9-7.4-3.7 4.9-6.3 6.6-17 7.2-10.7.6-14.8 1.7-14.8 1.7s-.4 19.2 11.2 24.4c4-3 7.1-8.8 7.1-8.8" fill="#fcded6"/><path d="m37.7 27s-.9-.4-2-1.4c-3.4-.4-7.4-.6-9.5.2-2.3.8-4 1.3-4 4.6s1 11.5-1 11.9l-1.9.4s-3.1 5.8-7.1 8.8c1.8.8 4 1.3 6.5 1.3 18.1.1 19-25.8 19-25.8" fill="#efbdb4"/><path d="m3.4 26.7s10.5-1.2 12.2-1.2 1.4 6.4-5.7 7.2c-7.1.8-6.5-6-6.5-6" fill="#fcded6"/><path d="m28.8 29.9c0 .8-.7 1.5-1.5 1.5s-1.5-.7-1.5-1.5.7-1.5 1.5-1.5c.8.1 1.5.7 1.5 1.5" fill="#012734"/><path d="m11.3 29.9c0 .8-.7 1.5-1.5 1.5s-1.5-.7-1.5-1.5.7-1.5 1.5-1.5c.9.1 1.5.7 1.5 1.5" fill="#012734"/></g><path d="m5.8 29.9s1.4-1.9 4.2-1.9 4.1 1.6 4.1 1.6" fill="none" stroke="#012734" stroke-width="1.788"/><path d="m23.1 29.9s1.4-1.9 4.2-1.9 4.1 1.6 4.1 1.6" fill="none" stroke="#012734" stroke-width="1.788"/><path d="m12.2 44.2s5.8 3.2 12.9-.1" fill="none" stroke="#012734" stroke-width="1.788"/></g></g></g></g><g transform="translate(51.642857 428.584931)"><path clip-rule="evenodd" d="m-3-25.7h170.4v210.8h-170.4z" fill="#0d3a5a" fill-rule="evenodd"/><path d="m31.9 131v-1.7h-2.5v-7.6h2.4v-1.7h-6.7v1.7h2.4v7.6h-2.5v1.7zm4.4 0v-5c.2-.3.4-.5.7-.7s.6-.3 1-.3c.5 0 .9.2 1.1.5.3.3.4.7.4 1.2v4.2h1.8v-4.4c0-.5-.1-1-.2-1.4-.2-.4-.4-.7-.6-1-.3-.3-.6-.5-.9-.6-.4-.1-.7-.2-1.2-.2-.4 0-.8.1-1.2.3s-.7.4-.9.7v-.9h-1.8v7.5h1.8zm11.7.1c.4 0 .8 0 1.1-.1s.6-.2.8-.4.4-.3.6-.5.3-.3.4-.5l-1.3-1.1c-.1.2-.3.4-.6.6s-.6.3-.9.3c-.4 0-.7-.1-.9-.4s-.4-.7-.4-1.2v-2.8h3.3v-1.6h-3.3v-2.1h-1.6l-.2 2.1h-1.9v1.6h1.9v2.8c0 1 .3 1.8.8 2.4s1.2.9 2.2.9zm8.8-8.7 1.7-2.8h-2l-1 2.8zm-.2 8.7c.6 0 1.2-.1 1.8-.4s1.1-.7 1.5-1.3l-1.6-.8c-.2.3-.5.5-.8.6s-.6.2-1 .2c-.5 0-1-.2-1.3-.5s-.5-.7-.6-1.2h5.4c0-.1 0-.2 0-.4v-.4c0-.5-.1-1-.3-1.4-.2-.5-.4-.8-.7-1.2-.3-.3-.7-.6-1.1-.8s-.9-.3-1.5-.3-1 .1-1.5.3c-.4.2-.8.5-1.1.8s-.6.8-.7 1.2c-.2.5-.3 1-.3 1.5 0 .6.1 1.1.3 1.6s.4.9.8 1.2c.3.3.7.6 1.2.8.4.4 1 .5 1.5.5zm1.5-4.6h-3.3c0-.4.2-.8.5-1.1s.7-.4 1.2-.4.8.1 1.1.4c.3.2.5.6.5 1.1zm7.5 8.2c.6 0 1.1-.1 1.5-.2.5-.2.8-.4 1.2-.7.3-.3.6-.7.8-1.1s.3-.9.3-1.5v-7.8h-1.8v.9c-.2-.3-.5-.5-.9-.7s-.8-.3-1.3-.3-.9.1-1.4.3c-.4.2-.8.5-1.1.8s-.6.8-.7 1.2c-.2.5-.3 1-.3 1.5 0 .6.1 1.1.3 1.5.2.5.4.9.7 1.2s.7.6 1.1.8.9.3 1.4.3c.2 0 .4 0 .6-.1.2 0 .4-.1.6-.2s.4-.2.5-.3c.2-.1.3-.3.4-.4v1.2c0 .6-.2 1-.5 1.3s-.8.5-1.4.5c-.3 0-.7-.1-1-.3s-.6-.4-.7-.7l-1.6.9c.3.6.8 1 1.4 1.3.5.5 1.2.6 1.9.6zm0-5.3c-.3 0-.6-.1-.8-.2s-.4-.3-.6-.5-.3-.4-.4-.7-.1-.5-.1-.8 0-.6.1-.8c.1-.3.2-.5.4-.7s.4-.3.6-.5c.2-.1.5-.2.8-.2s.5 0 .7.1.4.2.6.4.3.4.4.6.2.5.2.7v.1.2c0 .3 0 .5-.1.8s-.2.5-.4.7-.4.3-.6.5-.5.3-.8.3zm12.5 1.6v-1.6h-2.9v-1.5c0-.4 0-.7.1-1.1.1-.3.2-.6.4-.9s.4-.5.7-.6c.3-.2.6-.2 1.1-.2.3 0 .5 0 .7.1.2 0 .4.1.6.2l.4-1.8c-.5-.1-.9-.2-1.4-.2-.6 0-1.1.1-1.5.4-.5.3-.8.7-1.1 1.3v-1.6h-3.8v1.6h2v4.4h-2v1.6h6.7zm5.9.1c.3 0 .6 0 .8-.1.3-.1.5-.2.7-.3s.4-.2.5-.4.3-.3.3-.4v1h1.7v-7.5h-1.8v.9c-.3-.3-.6-.5-1-.7s-.8-.3-1.3-.3-1 .1-1.4.3-.8.5-1.1.8-.6.8-.8 1.2c-.2.5-.3 1-.3 1.5 0 .6.1 1.1.3 1.5.2.5.4.9.8 1.2.3.3.7.6 1.1.8.5.4 1 .5 1.5.5zm.3-1.7c-.3 0-.5-.1-.8-.2-.2-.1-.5-.3-.6-.4-.2-.2-.3-.4-.4-.7s-.2-.5-.2-.9c0-.3.1-.6.2-.9s.2-.5.4-.7.4-.3.6-.5c.2-.1.5-.2.8-.2s.6.1.8.2.4.3.6.4c.2.2.3.4.4.7s.2.5.2.8v.1c0 .3-.1.6-.2.8-.1.3-.2.5-.4.7s-.4.3-.6.4c-.3.3-.5.4-.8.4zm10.4 1.7c.4 0 .8 0 1.1-.1s.6-.2.8-.4.4-.3.6-.5.3-.3.4-.5l-1.3-1.1c-.1.2-.3.4-.6.6s-.6.3-.9.3c-.4 0-.7-.1-.9-.4s-.4-.7-.4-1.2v-2.8h3.3v-1.6h-3.3v-2.1h-1.6l-.2 2.1h-1.9v1.6h1.9v2.8c0 1 .3 1.8.8 2.4s1.2.9 2.2.9zm11.4-.1v-1.6h-2.9v-1.5c0-.4 0-.7.1-1.1s.2-.6.4-.9.4-.5.7-.6c.3-.2.6-.2 1.1-.2.3 0 .5 0 .7.1.2 0 .4.1.6.2l.4-1.8c-.5-.1-.9-.2-1.4-.2-.6 0-1.1.1-1.5.4-.5.3-.8.7-1.1 1.3v-1.6h-3.8v1.6h2v4.4h-2v1.6h6.7zm6.7-8.8c.3 0 .6-.1.8-.3s.3-.5.3-.8-.1-.6-.3-.8-.5-.3-.8-.3-.6.1-.8.3-.3.5-.3.8.1.6.3.8.5.3.8.3zm3.6 8.8v-1.6h-2.7v-6h-4.5v1.6h2.7v4.4h-2.7v1.6zm5.5.1c.7 0 1.4-.1 2-.4s1.1-.7 1.5-1.3l-1.5-1c-.2.3-.5.6-.9.8-.3.2-.7.3-1.2.3-.3 0-.6-.1-.8-.2s-.4-.3-.6-.5-.3-.4-.4-.7-.1-.5-.1-.8 0-.6.1-.8c.1-.3.2-.5.4-.7s.4-.4.6-.5.5-.2.8-.2c.4 0 .7.1 1 .3s.6.5.7.9l1.7-.6c-.2-.4-.4-.8-.6-1-.3-.3-.5-.5-.8-.7s-.6-.4-1-.5-.7-.2-1.1-.2c-.6 0-1.1.1-1.6.3s-.9.5-1.2.9-.6.8-.8 1.2c-.2.5-.3 1-.3 1.5s.1 1 .3 1.5.4.9.8 1.2c.3.3.7.6 1.2.8.7.3 1.2.4 1.8.4zm9.4 0c.6 0 1.2-.1 1.8-.4s1.1-.7 1.5-1.3l-1.6-.8c-.2.3-.5.5-.8.6s-.6.2-1 .2c-.5 0-1-.2-1.3-.5s-.5-.7-.6-1.2h5.3c0-.1 0-.2 0-.4v-.4c0-.5-.1-1-.3-1.4-.2-.5-.4-.8-.7-1.2-.3-.3-.7-.6-1.1-.8s-.9-.3-1.5-.3c-.5 0-1 .1-1.5.3s-.8.5-1.1.8-.6.8-.7 1.2c-.2.5-.3 1-.3 1.5 0 .6.1 1.1.3 1.6s.4.9.8 1.2c.3.3.7.6 1.2.8.5.4 1 .5 1.6.5zm1.5-4.6h-3.3c0-.4.2-.8.5-1.1s.7-.4 1.2-.4.8.1 1.1.4c.3.2.5.6.5 1.1z" fill="#2ecccb"/><g transform="translate(40.5 26.415069)"><circle clip-rule="evenodd" cx="41.6" cy="19.8" fill="#0a314c" fill-rule="evenodd" r="47.1"/><g mask="url(#p)"><g transform="translate(10.15625 15)"><path clip-rule="evenodd" d="m23.5 29.1s-3.8.2-7.7-.6c-3.8-.8-1.3-2.1-2.7-3.7-1.3-1.5-5.6 0-10.2-1.3s-1.5-1.7-2.5-4.4-4.2-.6-6-3.6c-1.7-3.1 1.7-3.3 3.5-4.8 1.7-1.6-2.5-5.2-1.9-7.1s4.2-3.7 5-6.7c.8-3.1.8-4.4 3.3-5.6s3.6-2.9 4.6-5.2 1.7-4.6 3.8-5.2 4.2-1.3 5.2-3.5c1-2.1 1.7-2.7 4.4-3.5s7.9-.4 10-1.5c2.1-1.2 10.2.4 11 2.1 0 0 4.6-.6 5.8 2.5s1.5 5.6 3.1 6.5c1.5 1 3.1 1.9 3.1 3.7 0 1.7 1.2 4.4 3.5 5.2s4.2 2.9 5.8 5.6c1.5 2.7-.2 5.6 2.3 6.1 2.5.6-.6 1.9-.4 4.4s1.3 2.5 2.1 4.2-1.7 1.5-1.5 4.4 1.2 2.3-2.3 5-10.4-1-10.4 1.3.4 3.3-3.1 3.8c-3.6.8-11.3 2.1-11.3 2.1z" fill="#012734" fill-rule="evenodd" mask="url(#q)" transform="translate(0 .532667)"/><path clip-rule="evenodd" d="m41.2 51.7 6.7-16.6c-.9-.2-1.7-.3-2.7-.3h-6.4l-7.6-7 2.5-4h-9.7v11h-6.4c-.4 0-.7 0-1.1.1l7.2 16.8z" fill="#fcded6" fill-rule="evenodd"/><path d="m38.9 23.9h-.2z" fill="none" stroke="#000" stroke-width=".52"/><g clip-rule="evenodd" fill-rule="evenodd"><path d="m59.7 51.7v-2.5c0-7-5-12.9-11.7-14.1l-6.7 16.6z" fill="#ff4345"/><path d="m3.3 49.2v2.5h20.5l-7.2-16.8c-7.5.6-13.3 6.8-13.3 14.3" fill="#ff4345"/><path d="m38.9 34.9v-11h-.2-4.9l-2.5 4z" fill="#d3a8a0"/><path d="m31.9 17.7 1.9-.4c1.9-.4 1-8.6 1-11.9s1.8-3.8 4-4.6c2.1-.8 6.1-.6 9.5-.2-1.3-1.3-2.9-3.6-2.9-7.4-3.7 4.9-6.3 6.6-17 7.2s-14.8 1.8-14.8 1.8-.3 19.1 11.2 24.4c4-3 7.1-8.9 7.1-8.9" fill="#fcded6"/><path d="m50.3 2.1s-.9-.4-2-1.4c-3.4-.4-7.4-.6-9.5.2-2.3.8-4 1.3-4 4.6s1 11.5-1 11.9l-1.9.4s-3.1 5.8-7.1 8.8c1.8.8 4 1.3 6.5 1.3 18.1 0 19-25.8 19-25.8" fill="#efbdb4"/><path d="m16 1.8s10.5-1.2 12.2-1.2 1.4 6.4-5.7 7.2c-7 .8-6.5-6-6.5-6" fill="#fcded6"/><path d="m41.4 5c0 .8-.7 1.5-1.5 1.5s-1.5-.7-1.5-1.5.7-1.5 1.5-1.5 1.5.7 1.5 1.5" fill="#012734"/><path d="m23.9 5c0 .8-.7 1.5-1.5 1.5s-1.4-.7-1.4-1.5.7-1.5 1.5-1.5 1.4.7 1.4 1.5" fill="#012734"/></g><path d="m18.4 5s1.4-1.9 4.2-1.9 4.1 1.6 4.1 1.6" fill="none" stroke="#012734" stroke-width="1.788"/><path d="m35.7 5s1.4-1.9 4.2-1.9 4.1 1.6 4.1 1.6" fill="none" stroke="#012734" stroke-width="1.788"/><path d="m24.8 19.2s5.8 3.2 12.9-.1" fill="none" stroke="#012734" stroke-width="1.788"/></g></g></g></g><g transform="translate(272.642857 251.04722)"><path clip-rule="evenodd" d="m-16-15.2h170.4v210.8h-170.4z" fill="#0d3a5a" fill-rule="evenodd"/><path d="m14.3 141.4v-4.9h4.3v-1.7h-4.3v-2.7h4.9v-1.8h-6.8v11.1zm10 .1c.3 0 .6 0 .8-.1.3-.1.5-.2.7-.3s.4-.2.5-.4c.2-.1.3-.3.3-.4v1h1.7v-7.5h-1.8v.9c-.3-.3-.6-.5-1-.7s-.8-.3-1.3-.3-1 .1-1.4.3-.8.5-1.1.8-.6.8-.8 1.2c-.2.5-.3 1-.3 1.5 0 .6.1 1.1.3 1.5.2.5.4.9.8 1.2.3.3.7.6 1.1.8.6.4 1 .5 1.5.5zm.3-1.7c-.3 0-.5-.1-.8-.2-.2-.1-.5-.3-.6-.4s-.3-.4-.4-.7-.2-.5-.2-.9c0-.3.1-.6.2-.9s.2-.5.4-.7.4-.3.6-.5c.2-.1.5-.2.8-.2s.6.1.8.2.4.3.6.4c.2.2.3.4.4.7s.2.5.2.8v.1c0 .3-.1.6-.2.8-.1.3-.2.5-.4.7s-.4.3-.6.4c-.2.3-.5.4-.8.4zm9.6 1.7c.7 0 1.4-.1 2-.4s1.1-.7 1.5-1.3l-1.5-1c-.2.3-.5.6-.9.8-.3.2-.7.3-1.2.3-.3 0-.6-.1-.8-.2s-.4-.3-.6-.5-.3-.4-.4-.7-.1-.5-.1-.8 0-.6.1-.8c.1-.3.2-.5.4-.7s.4-.4.6-.5.5-.2.8-.2c.4 0 .7.1 1 .3s.6.5.7.9l1.7-.6c-.2-.4-.4-.8-.6-1s-.5-.5-.8-.7-.6-.4-1-.5-.7-.2-1.1-.2c-.6 0-1.1.1-1.6.3s-.9.5-1.2.9-.6.8-.8 1.2c-.2.5-.3 1-.3 1.5s.1 1 .3 1.5.4.9.8 1.2c.3.3.7.6 1.2.8.7.3 1.2.4 1.8.4zm9.5-8.9c.3 0 .6-.1.8-.3s.3-.5.3-.8-.1-.6-.3-.8-.5-.3-.8-.3-.6.1-.8.3-.3.5-.3.8.1.6.3.8c.3.2.5.3.8.3zm3.7 8.8v-1.6h-2.7v-6h-4.5v1.6h2.7v4.4h-2.7v1.6zm9.4 0v-1.6h-3.1v-9.8h-4.3v1.6h2.5v8.1h-2.6v1.6h7.5zm5.6-8.8c.3 0 .6-.1.8-.3s.3-.5.3-.8-.1-.6-.3-.8-.5-.3-.8-.3-.6.1-.8.3-.3.5-.3.8.1.6.3.8.5.3.8.3zm3.7 8.8v-1.6h-2.7v-6h-4.5v1.6h2.7v4.4h-2.7v1.6zm6.2.1c.4 0 .8 0 1.1-.1s.6-.2.8-.4.4-.3.6-.5.3-.3.4-.5l-1.3-1.1c-.1.2-.3.4-.6.6s-.6.3-.9.3c-.4 0-.7-.1-.9-.4s-.4-.7-.4-1.2v-2.8h3.3v-1.6h-3.3v-2.1h-1.6l-.2 2.1h-1.9v1.6h1.9v2.8c0 1 .3 1.8.8 2.4.6.7 1.3.9 2.2.9zm8 0c.3 0 .6 0 .8-.1.3-.1.5-.2.7-.3s.4-.2.5-.4c.2-.1.3-.3.3-.4v1h1.7v-7.5h-1.8v.9c-.3-.3-.6-.5-1-.7s-.8-.3-1.3-.3-1 .1-1.4.3-.8.5-1.1.8-.6.8-.8 1.2c-.2.5-.3 1-.3 1.5 0 .6.1 1.1.3 1.5.2.5.4.9.8 1.2s.7.6 1.1.8c.6.4 1 .5 1.5.5zm.3-1.7c-.3 0-.5-.1-.8-.2-.2-.1-.5-.3-.6-.4s-.3-.4-.4-.7-.2-.5-.2-.9c0-.3.1-.6.2-.9s.2-.5.4-.7.4-.3.6-.5c.2-.1.5-.2.8-.2s.6.1.8.2.4.3.6.4c.2.2.3.4.4.7s.2.5.2.8v.1c0 .3-.1.6-.2.8s-.2.5-.4.7-.4.3-.6.4c-.2.3-.5.4-.8.4zm10.4 1.7c.4 0 .8 0 1.1-.1s.6-.2.8-.4.4-.3.6-.5.3-.3.4-.5l-1.3-1.1c-.1.2-.3.4-.6.6s-.6.3-.9.3c-.4 0-.7-.1-.9-.4s-.4-.7-.4-1.2v-2.8h3.3v-1.6h-3.3v-2.1h-1.6l-.2 2.1h-1.9v1.6h1.9v2.8c0 1 .3 1.8.8 2.4.5.7 1.3.9 2.2.9zm8.6 0c.6 0 1.2-.1 1.8-.4s1.1-.7 1.5-1.3l-1.6-.8c-.2.3-.5.5-.8.6s-.6.2-1 .2c-.5 0-1-.2-1.3-.5s-.5-.7-.6-1.2h5.3c0-.1 0-.2 0-.4v-.4c0-.5-.1-1-.3-1.4s-.4-.8-.7-1.2c-.3-.3-.7-.6-1.1-.8s-.9-.3-1.5-.3-1 .1-1.5.3c-.4.2-.8.5-1.1.8s-.6.8-.7 1.2c-.2.5-.3 1-.3 1.5 0 .6.1 1.1.3 1.6s.4.9.8 1.2c.3.3.7.6 1.2.8.6.5 1.1.5 1.6.5zm1.5-4.6h-3.3c0-.4.2-.8.5-1.1s.7-.4 1.2-.4.8.1 1.1.4.5.7.5 1.1zm7.1 4.6c.3 0 .6 0 .8-.1s.5-.2.6-.3c.2-.1.3-.2.5-.4.1-.1.2-.3.3-.4v1h1.7v-7.5h-1.8v4c0 .6-.2 1.1-.5 1.5-.3.3-.7.5-1.1.5-1 0-1.5-.6-1.5-1.8v-4.1h-1.8v4.2c0 1.1.3 1.9.8 2.5.4.6 1.1.9 2 .9zm12.9-.1v-1.6h-2.9v-1.5c0-.4 0-.7.1-1.1s.2-.6.4-.9.4-.5.7-.6c.3-.2.6-.2 1.1-.2.3 0 .5 0 .7.1.2 0 .4.1.6.2l.4-1.8c-.5-.1-.9-.2-1.4-.2-.6 0-1.1.1-1.5.4-.5.3-.8.7-1.1 1.3v-1.6h-3.8v1.6h2v4.4h-2v1.6h6.7z" fill="#2ecccb"/><g transform="translate(40.5 30.570543)"><circle clip-rule="evenodd" cx="28.6" cy="30" fill="#0a314c" fill-rule="evenodd" r="47.1"/><g mask="url(#r)"><g transform="translate(12.5 14)"><path clip-rule="evenodd" d="m6.8 37.9c-1-4.1 2-5 3.5-6s7-1.6 6.7-3.2 0-10.8.9-14.5 4.5-2.9 7.4-2.9c0 0 1.6 0 4.4.1 1.1.1 2.4.7 3.6 1.7-.4-8.2-2-17.9-2-17.9s-10.2.3-14.4.3h-4.1c-4.1 0-14.4-.2-14.4-.2s-2.6 16.7-2 24.8c.6 7.7 4 21.6 15.4 22.9-2.3-1.4-4.5-3.2-5-5.1" fill="#fcded6" fill-rule="evenodd"/><path clip-rule="evenodd" d="m16.3 43c12.7 0 16.4-14.9 17.1-23 .2-1.9.1-4.3 0-6.8-1.3-1-2.6-1.7-3.6-1.7-2.8-.1-4.4-.1-4.4-.1-2.9 0-6.6-.7-7.4 2.9-1 3.6-1.3 12.8-1 14.4s-5.3 2.2-6.7 3.2c-1.5 1-4.5 1.9-3.5 6 .5 1.9 2.7 3.7 5 5 .6.1 1.1.1 1.7.1z" fill="#efbdb4" fill-rule="evenodd"/><path d="m12.5 16c0-1.3 1.1-2.4 2.4-2.4s2.4 1.1 2.4 2.4" fill="none" stroke="#04002c" stroke-width="1.587"/><path clip-rule="evenodd" d="m26.1 16.1c0 .9-.7 1.6-1.6 1.6s-1.6-.7-1.6-1.6.7-1.6 1.6-1.6c.9-.1 1.6.6 1.6 1.6" fill="#012734" fill-rule="evenodd"/><path d="m19.9 16.1s1.5-2.1 4.6-2.1 4.5 1.8 4.5 1.8" fill="none" stroke="#012734" stroke-width="2.051"/><g clip-rule="evenodd" fill-rule="evenodd"><path d="m2.4 49.4h25.2v-8.9h-25.2z" fill="#fff" mask="url(#s)"/><path d="m46.2 62.8c0-7.4-6-13.4-13.4-13.4h-6-26.6-6c-7.4 0-13.4 6-13.4 13.4z" fill="#f4756c" mask="url(#t)"/><path d="m15.1 51.5s-8.3 7.8-8.3 7.4c0-.3-6.6-9.4-6.6-9.4l2.2-5.1z" fill="#f4756c" mask="url(#u)"/><path d="m15 51.5s8.3 7.8 8.3 7.4c0-.3 6.6-9.4 6.6-9.4l-2.4-5z" fill="#f4756c" mask="url(#v)"/><path d="m17.6 38.9s-.7-2.7-2.5-2.7h-.4c-1.8 0-2.5 2.7-2.5 2.7s-3.9.6-3.9-2.6 3.9-3.5 6.4-3.5h.4c2.5 0 6.4.3 6.4 3.5.1 3.2-3.9 2.6-3.9 2.6m4.5-6.7c-.9-1.8-2.9-2.9-6-2.9h-2.3c-3.1 0-5.1 1.2-6 2.9-.9 1.8-7.5.7-10.2-4.6.3 5.1 3.6 13.3 5.5 15.3s4.2 8.5 10.7 8.5h2.3c6.4 0 8.8-6.4 10.7-8.5 1.9-2 5.5-10.7 5.5-15.5-2.9 6.2-9.4 6.6-10.2 4.8" fill="#063a5a" mask="url(#w)"/><path d="m4.2 11.6c-3.3.7-5.7 1-6.1 2.5s-.4 4.7 2.5 4.8 7.6.3 8.8-.3 3.1-3.8 2.5-5.1c-.7-1.3-3-2.9-7.7-1.9" fill="#fcded4" mask="url(#x)"/><path d="m6.1 16.1c0 .9-.7 1.6-1.6 1.6s-1.7-.7-1.7-1.6.7-1.6 1.6-1.6 1.7.6 1.7 1.6" fill="#012734" mask="url(#y)"/></g><path d="m-.1 16.1s1.5-2.1 4.6-2.1c3 0 4.5 1.7 4.5 1.7" fill="none" mask="url(#z)" stroke="#012734" stroke-width="2.051"/><path d="m21.9 20.4h6.6c2.5 0 4.6-2.1 4.6-4.6s-2.1-4.6-4.6-4.6h-6.6c-2.5 0-4.6 2.1-4.6 4.6s2.1 4.6 4.6 4.6z" fill="none" mask="url(#A)" stroke="#04002c" stroke-width="2.051"/><path clip-rule="evenodd" d="m.2 49.5 6.4 11.8 8.5-8.6 8.7 8.4 6.1-11.6-6.6 9.4-8.2-7.4-8.3 7.4z" fill="#da5455" fill-rule="evenodd" mask="url(#B)"/><path clip-rule="evenodd" d="m2.4-3.4c2-1 4.8-1.3 6.9-.1 2 1.2 7 .7 8.8.1s7.2 0 7.2 0 5.1 1.2 6.3 4.1c1.3 3.4 1.5 7.4 1.5 7.4l.9 8.6s4.2-10.4 3.9-16.4c-.1-3 .7-11.1-3.7-12-2.4-.5-6.1-1.2-8-3.5s-8-3.1-9.6-2.6c-1.6.4-4.5-.6-7.3.3s-6.3 3.7-6.3 3.7-4.8.1-7.6 2-5.4 7-3.9 10.2c1.3 3.3.7 4.2-.5 6.8s1.9 6.1 2.3 7.4 1 4.2 2.9 5.1c-.6-11 3.2-12.8 2.3-16s-.3-5.1.9-4.8c1.1.3 3-.3 3-.3" fill="#063a5a" fill-rule="evenodd" mask="url(#C)"/><path d="m1.3 20.4h6.6c2.5 0 4.6-2.1 4.6-4.6s-2.1-4.6-4.6-4.6h-6.6c-2.5 0-4.6 2.1-4.6 4.6s2.1 4.6 4.6 4.6z" fill="none" mask="url(#D)" stroke="#04002c" stroke-width="2.051"/></g></g></g></g><path clip-rule="evenodd" d="m191.6 42.7v21.2c0 2.6-1.1 5.2-2.9 7.1l-8.3 8.2 8.3 8.3c1.9 1.9 2.9 4.4 2.9 7.1v21.9c0 4 1.6 7.6 4.2 10.2s6.2 4.2 10.2 4.2h9.7v-10.3h-9.7c-2.3 0-4.1-1.8-4.1-4.1v-21.9c0-4.8-1.7-9.3-4.7-13l-1.9-2.3 1.9-2.3c3.1-3.7 4.7-8.2 4.7-13v-21.3c0-2.3 1.8-4.1 4.1-4.1h9.7v-10.3h-9.7c-4 0-7.6 1.6-10.2 4.2-2.6 2.7-4.2 6.3-4.2 10.2" fill="#7f1a55" fill-rule="evenodd"/><path d="m449.1 555.4c2.5 0 4.7-.9 6.4-2.6s2.6-3.8 2.6-6.3-.9-4.7-2.6-6.4-3.8-2.6-6.4-2.6c-2.5 0-4.5.9-6.3 2.6-1.7 1.7-2.6 3.8-2.6 6.4 0 2.5.9 4.5 2.6 6.3 1.8 1.7 3.9 2.6 6.3 2.6zm-2.9 56.4 12-32h-14.6l-6.1 32z" fill="#f4756d"/></g></svg>