<svg enable-background="new 0 0 110 110" height="110" viewBox="0 0 110 110" width="110" xmlns="http://www.w3.org/2000/svg"><path d="m110 55c0 30.4-24.6 55-55 55s-55-24.6-55-55 24.6-55 55-55 55 24.6 55 55z"/><path d="m79 20.3c-5.6.2-10.5 3.3-14.1 7.5-4 4.7-6.7 10.2-8.6 15.9-3.4-2.8-6.1-6.5-11.6-8.1-4.3-1.2-8.8-.7-12.9 2.4-2 1.5-3.3 3.7-3.9 5.7-1.7 5.4 1.7 10.2 3.3 11.9l3.4 3.6c.7.7 2.4 2.6 1.6 5.2-.9 2.9-4.4 4.8-7.9 3.7-1.6-.5-3.9-1.7-3.4-3.3.2-.7.7-1.2 1-1.8.2-.5.4-.9.4-1.1.7-2.1-.2-4.9-2.5-5.6-2.1-.7-4.3-.1-5.2 2.6-1 3.1.5 8.8 8.5 11.2 9.4 2.9 17.3-2.2 18.4-8.9.7-4.2-1.2-7.2-4.6-11.2l-2.9-3c-1.7-1.7-2.3-4.6-.5-6.8 1.5-1.9 3.6-2.7 7.1-1.7 5.1 1.4 7.3 4.9 11.1 7.7-1.7 5-2.7 10.1-3.6 14.7l-.6 3.4c-2.7 14.1-4.7 21.8-10.1 26.2-1.1.8-2.6 1.9-4.9 2-1.2 0-1.6-.8-1.6-1.2 0-.8.7-1.2 1.2-1.6.7-.4 1.8-1 1.7-3.1-.1-2.4-2.1-4.5-5-4.5-2.2.1-5.5 2.1-5.4 5.9.1 3.9 3.8 6.8 9.2 6.6 2.9-.1 9.4-1.3 15.9-8.9 7.5-8.7 9.6-18.7 11.1-26.1l1.8-9.7c1 .1 2 .2 3.2.2 9.3.2 14-4.6 14.1-8.1 0-2.1-1.4-4.2-3.4-4.2-1.4 0-3.3 1-3.7 3s3 3.7.3 5.4c-1.9 1.2-5.3 2.1-10 1.4l.9-4.8c1.8-9.1 3.9-20.2 12.2-20.5.6 0 2.8 0 2.9 1.5 0 .5-.1.6-.7 1.7-.6.9-.8 1.6-.8 2.5.1 2.3 1.8 3.8 4.4 3.7 3.4-.1 4.4-3.4 4.3-5.1-.3-3.9-4.5-6.4-10.1-6.3z" fill="#fff"/></svg>