<svg height="102" viewBox="0 0 101 102" width="101" xmlns="http://www.w3.org/2000/svg" xmlns:xlink="http://www.w3.org/1999/xlink"><defs><circle id="a" cx="50" cy="50" r="50"/><mask id="b" fill="#fff"><use fill="#fff" fill-rule="evenodd" xlink:href="#a"/></mask><mask id="c" fill="#fff"><path d="m.00018967.17566667h79.24531033v60.84526663h-79.24531033z" fill="#fff" fill-rule="evenodd"/></mask></defs><g fill="none" fill-rule="evenodd" transform="translate(.642857 1.326053)"><use fill="#0a314c" xlink:href="#a"/><g mask="url(#b)"><g transform="translate(10.15625 15)"><path d="m31.3235625 60.8169333s-4.082125.204-8.16425-.612c-4.0835417-.8167083-1.4294167-2.246125-2.8588333-3.8788333-1.4287084-1.6334167-5.9188334 0-10.81837503-1.4287083-4.89883334-1.4294167-1.63270834-1.8374167-2.65341667-4.6948334-1.02-2.858125-4.49083333-.6127083-6.32825-3.878125-1.836-3.266125 1.83741667-3.470125 3.674125-5.1035416 1.838125-1.6327084-2.65341667-5.5115417-2.04070833-7.5529584.612-2.0407083 4.49083333-3.878125 5.30683333-7.14425.81741667-3.2654166.81741667-4.6948333 3.4715417-5.9195416 2.6527083-1.2247084 3.8774166-3.062125 4.8988333-5.5115417 1.02-2.4494167 1.836-4.8988333 4.0814167-5.51154167 2.2454166-.612 4.4908333-1.42870833 5.51225-3.674125 1.02-2.24541666 1.8367083-2.85741666 4.694125-3.674125 2.8588333-.81670833 8.3689583-.408 10.614375-1.63270833 2.2454166-1.22470833 10.8190833.408 11.6365 2.24541667 0 0 4.8988333-.61270834 6.1228333 2.65341666 1.2254167 3.266125 1.6327083 5.91954167 3.2654167 6.94024997 1.6334166 1.0207084 3.266125 2.0407084 3.266125 3.878125 0 1.8374167 1.2254166 4.6948334 3.6748333 5.5115417s4.4908333 3.062125 6.1235417 5.9195417c1.6334166 2.858125-.204 5.9195416 2.4494166 6.53225 2.6534167.612-.6112916 2.0414166-.408 4.6948333.204 2.6534167 1.4287084 2.6534167 2.246125 4.4908333.8152917 1.8374167-1.838125 1.6334167-1.634125 4.6948334.2047084 3.062125 1.2247084 2.4494166-2.4494166 5.3068333-3.674125 2.858125-11.0230834-1.02-11.0230834 1.4294167 0 2.4494166.4094167 3.470125-3.2654166 4.082125-3.6734167.6127083-11.8390834 2.0414166-11.8390834 2.0414166z" fill="#012734" fill-rule="evenodd" mask="url(#c)" transform="translate(0 .532667)"/><path d="m50.167 84.8242625 7.1655-17.6403333c-.915875-.1714167-1.85725-.272-2.8234167-.272h-6.77875l-8.1139583-7.39925 2.6597917-4.2868334h-10.36575v11.6860834h-6.77875c-.380375 0-.7529584.02975-1.1269584.0566666l7.690375 17.8556667z" fill="#fcded6" fill-rule="evenodd"/><path d="m47.73005 55.2257042h-.1855833l.1855833.0602083z" fill="none" stroke="#000" stroke-width=".52"/><g fill-rule="evenodd"><path d="m69.7762167 84.8242625v-2.6449167c0-7.465125-5.361375-13.6694166-12.4425834-14.9954166l-7.1669166 17.6403333z" fill="#ff4345"/><path d="m9.864675 82.1794167v2.6449166h21.830125l-7.6896667-17.8556666c-7.902875.5787083-14.1404583 7.159125-14.1404583 15.21075" fill="#ff4345"/><path d="m47.73005 66.9122125v-11.625875l-.1855833-.0609167h-5.267875l-2.6597917 4.2868334z" fill="#d3a8a0"/><path d="m40.3050167 48.6940208 2.042125-.408c2.0407083-.4087083 1.02-9.186375 1.02-12.6557916 0-3.4708334 1.8600833-4.0169584 4.286125-4.8995417 2.250375-.818125 6.445125-.6112917 10.0725-.201875-1.445-1.404625-3.10675-3.8830833-3.10675-7.8610833-3.9787084 5.2055416-6.7355417 7.04225-18.0639167 7.65425-11.3290833.6127083-15.7172083 1.8374166-15.7172083 1.8374166s-.3690417 20.3419167 11.910625 25.9335c4.2216666-3.1846666 7.5565-9.398875 7.5565-9.398875" fill="#fcded6"/><path d="m59.8249833 32.0575375s-.986-.44625-2.0995-1.5285833c-3.627375-.4094167-7.822125-.61625-10.0725.201875-2.424625.8825833-4.2854166 1.4287083-4.2854166 4.8988333s1.0207083 12.2477917-1.0207084 12.6565l-2.042125.408s-3.3348333 6.2142083-7.5565 9.3981667c1.9557084.890375 4.218125 1.4202083 6.8687084 1.4202083 19.2900416 0 20.2080416-27.455 20.2080416-27.455" fill="#efbdb4"/><path d="m23.4301792 31.7268875s11.15625-1.2374583 12.9936666-1.2374583c1.8367084 0 1.5094584 6.8290416-6.0427916 7.64575-7.5536667.8167083-6.950875-6.4082917-6.950875-6.4082917" fill="#fcded6"/><path d="m50.3593125 35.1409125c0 .8719583-.707625 1.5795833-1.578875 1.5795833-.8726667 0-1.5795833-.707625-1.5795833-1.5795833s.7069166-1.5795833 1.5795833-1.5795833c.87125 0 1.578875.707625 1.578875 1.5795833" fill="#012734"/><path d="m31.827825 35.1409125c0 .8719583-.707625 1.5795833-1.578875 1.5795833-.8726667 0-1.5802917-.707625-1.5802917-1.5795833s.707625-1.5795833 1.5802917-1.5795833c.87125 0 1.578875.707625 1.578875 1.5795833" fill="#012734"/></g><path d="m25.9308083 35.1409125s1.4740417-2.0003333 4.422125-2.0003333c2.9487917 0 4.3172917 1.6844166 4.3172917 1.6844166" fill="none" stroke="#012734" stroke-width="1.788"/><path d="m44.3578875 35.1409125s1.4740417-2.0003333 4.422125-2.0003333 4.3172917 1.6844166 4.3172917 1.6844166" fill="none" stroke="#012734" stroke-width="1.788"/><path d="m32.7755042 50.2684333s6.1780833 3.3695417 13.7586666-.14025" fill="none" stroke="#012734" stroke-width="1.788"/></g></g></g></svg>