<svg height="103" viewBox="0 0 102 103" width="102" xmlns="http://www.w3.org/2000/svg" xmlns:xlink="http://www.w3.org/1999/xlink"><defs><circle id="a" cx="50" cy="50" r="50"/><mask id="b" fill="#fff"><use fill="#fff" fill-rule="evenodd" xlink:href="#a"/></mask><mask id="c" fill="#fff"><path d="m0 85.6327937h69.4825397v-85.6327937h-69.4825397z" fill="#fff" fill-rule="evenodd"/></mask></defs><g fill="none" fill-rule="evenodd" transform="translate(1.142857 1.863764)"><use fill="#0a314c" xlink:href="#a"/><g mask="url(#b)"><g transform="translate(12.5 14)"><path d="m27.5845 59.2519524c-1.0866032-4.3450476 2.1725238-5.2760318 3.723254-6.3626349 1.5520952-1.0866032 7.4492381-1.7070318 7.1386825-3.4140635-.309873-1.7070318 0-11.4830477.9309841-15.3632857.9316667-3.8795556 4.8105397-3.103508 7.9154127-3.103508 0 0 1.7063492 0 4.6542381.1556191 1.1200476.0586984 2.5294921.7903809 3.8577143 1.8435396-.4559365-8.7208095-2.0899365-19.0687936-2.0899365-19.0687936s-10.9390635.232746-15.3626032.232746h-4.3102381c-4.4235396 0-15.3639682-.232746-15.3639682-.232746s-2.7929524 17.690746-2.0933492 26.3030317c.6647936 8.2095873 4.2979524 22.9633651 16.3277143 24.3284445-2.4298413-1.436746-4.8262381-3.3082699-5.3279048-5.3183492" fill="#fcded6" fill-rule="evenodd"/><path d="m37.6540079 64.6833302c13.500635 0 17.4573175-15.8280953 18.1562381-24.4410635.1644921-2.0250953.1337778-4.5539048-.0061428-7.2349207-1.3282222-1.0531587-2.7369842-1.7841587-3.8570318-1.8435397-2.9478889-.1549365-4.6556031-.1549365-4.6556031-.1549365-3.1041905 0-6.982381-.7760476-7.9140477 3.103508-.9309841 3.8802381-1.2408571 13.6555714-.9309841 15.3632857.309873 1.7070317-5.5865873 2.3274603-7.1386825 3.4140635-1.5514127 1.0859206-4.8105397 2.0169047-3.723254 6.3619524.5016667 2.0100793 2.897381 3.8816031 5.3272222 5.3190317.5910794.0668889 1.1964921.1126191 1.8278413.1126191z" fill="#efbdb4" fill-rule="evenodd"/><path d="m33.6747333 35.9353048c0-1.3930635 1.1282381-2.5219842 2.5213016-2.5219842s2.5233492 1.1289207 2.5233492 2.5219842" fill="none" stroke="#04002c" stroke-width="1.587"/><path d="m48.1060794 36.0139333c0 .9644286-.7821905 1.7459365-1.7459365 1.7459365-.9644286 0-1.7459366-.7815079-1.7459366-1.7459365 0-.9644285.781508-1.7459365 1.7459366-1.7459365.963746 0 1.7459365.781508 1.7459365 1.7459365" fill="#012734" fill-rule="evenodd"/><path d="m41.4719302 36.0139333s1.6292222-2.2114285 4.8883492-2.2114285c3.2591269 0 4.7709523 1.8626508 4.7709523 1.8626508" fill="none" stroke="#012734" stroke-width="2.051"/><g fill-rule="evenodd"><path d="m22.9285556 71.4339206h26.7105079v-9.4272381h-26.7105079z" fill="#fff" mask="url(#c)"/><g fill="#f4756c"><path d="m69.4827444 85.6327254c0-7.8416984-6.3571746-14.198873-14.198873-14.198873h-6.4022222-28.2810317-6.4015397c-7.84169843 0-14.19887304 6.3571746-14.19887304 14.198873z" mask="url(#c)"/><path d="m36.4295317 73.6449397s-8.8450317 8.2635079-8.8450317 7.9140476c0-.3487778-6.983746-10.0087619-6.983746-10.0087619l2.3281428-5.469873z" mask="url(#c)"/><path d="m36.3122032 73.6449397s8.8450317 8.2635079 8.8450317 7.9140476c0-.3487778 6.9837461-10.0087619 6.9837461-10.0087619l-2.5608889-5.3538413z" mask="url(#c)"/></g><path d="m39.0677524 60.338146s-.6982381-2.8707619-2.6380159-2.8707619h-.4654921c-1.9404603 0-2.6386984 2.8707619-2.6386984 2.8707619s-4.1894285.6211111-4.1894285-2.7936349c0-3.4133809 4.1894285-3.7239365 6.8281269-3.7239365h.4654921c2.6380159 0 6.828127.3105556 6.828127 3.7239365 0 3.414746-4.1901111 2.7936349-4.1901111 2.7936349m4.7334127-7.138c-.9316667-1.8626508-3.1041905-3.1035079-6.3633175-3.1035079h-2.4817143c-3.260492 0-5.4316508 1.2408571-6.364 3.1035079-.9303016 1.8619683-7.913365.6975556-10.784127-4.9661587.3098731 5.4316508 3.8017461 14.121746 5.8186508 16.2942698 2.0175873 2.1725239 4.5013492 8.9999683 11.3294762 8.9999683h2.4817143c6.828127 0 9.3112064-6.8274444 11.3281111-8.9999683 2.0175873-2.1725238 5.8193334-11.3287936 5.8193334-16.4492063-2.9485715 6.5953809-9.8538254 6.9830635-10.784127 5.1210952" fill="#063a5a" mask="url(#c)"/><path d="m24.7903873 31.3191524c-3.499381.7658095-6.0520794 1.0859206-6.5175714 2.6380159-.4648096 1.5520952-.4648096 4.9661587 2.6380158 5.1210952 3.103508.1549365 8.0703493.3105555 9.3112064-.3105556 1.2408571-.6204285 3.2584444-4.034492 2.6380159-5.4309682-.6204286-1.3964762-3.1041905-3.103508-8.0696667-2.0175873" fill="#fcded4" mask="url(#c)"/><path d="m26.8466746 36.0139333c0 .9644286-.7821905 1.7459365-1.746619 1.7459365-.9644286 0-1.745254-.7815079-1.745254-1.7459365 0-.9644285.7808254-1.7459365 1.745254-1.7459365.9644285 0 1.746619.781508 1.746619 1.7459365" fill="#012734" mask="url(#c)"/></g><path d="m20.2119111 36.0139333s1.6305873-2.2114285 4.8883492-2.2114285c3.2598095 0 4.7716349 1.8626508 4.7716349 1.8626508" fill="none" mask="url(#c)" stroke="#012734" stroke-width="2.051"/><path d="m43.645546 40.6300857h6.9830635c2.7008095 0 4.8890318-2.1889047 4.8890318-4.8883492 0-2.6994444-2.1882223-4.8883492-4.8890318-4.8883492h-6.9830635c-2.6994444 0-4.8883492 2.1889048-4.8883492 4.8883492 0 2.6994445 2.1889048 4.8883492 4.8883492 4.8883492z" fill="none" mask="url(#c)" stroke="#04002c" stroke-width="2.051"/><path d="m20.600481 71.5500206 6.7503174 12.5696508 9.0784603-9.194492 9.1944921 8.961746 6.5175714-12.3369048-6.983746 10.0094445-8.7283175-7.9147302-8.8463968 7.9147302z" fill="#da5455" fill-rule="evenodd" mask="url(#c)"/><path d="m22.9267127 15.3355063c2.1745714-1.0859206 5.1231429-1.3964761 7.2949841-.155619 2.1732064 1.2415397 7.4492381.7767302 9.3112064.155619 1.8626508-.6211111 7.6041746 0 7.6041746 0s5.4637301 1.2558731 6.6725079 4.3450477c1.3964762 3.569 1.5520953 7.9140476 1.5520953 7.9140476l.9309841 9.1555873s4.5006666-11.0175556 4.1894286-17.3801905c-.1528889-3.1383174.7767301-11.79360316-3.8788731-12.72458729-2.5506508-.50985714-6.5175714-1.24153968-8.5351587-3.72461905-2.0175873-2.48307936-8.5351587-3.25844444-10.2421905-2.79295238-1.7070317.46549207-4.8112222-.62042857-7.7591111.30987302-2.9478889.93166667-6.6725079 3.87955555-6.6725079 3.87955555s-5.1210953.15561905-8.0703492 2.17320635c-2.9478889 2.01690477-5.7408413 7.4485556-4.1887461 10.8626191 1.5514127 3.4140634.9303016 4.3450476-.3105555 7.138-1.2415397 2.7936349 2.0175873 6.5175714 2.4830794 7.9140476.4648095 1.3971587 1.0859206 4.5006666 3.1035079 5.4316508-.7767302-11.7936032 3.2584444-13.656254 2.3267778-17.069635-.9303016-3.4140634-.309873-5.4316508.9316666-5.1210952 1.2415397.3105556 3.2570794-.3105556 3.2570794-.3105556" fill="#063a5a" fill-rule="evenodd" mask="url(#c)"/><path d="m21.7649619 40.6300857h6.982381c2.7008095 0 4.8890317-2.1889047 4.8890317-4.8883492 0-2.6994444-2.1882222-4.8883492-4.8890317-4.8883492h-6.982381c-2.6994444 0-4.8883492 2.1889048-4.8883492 4.8883492 0 2.6994445 2.1889048 4.8883492 4.8883492 4.8883492z" fill="none" mask="url(#c)" stroke="#04002c" stroke-width="2.051"/></g></g></g></svg>