<?xml version="1.0" encoding="utf-8"?>
<!-- Generator: Adobe Illustrator 25.2.0, SVG Export Plug-In . SVG Version: 6.00 Build 0)  -->
<svg version="1.1" id="Calque_1" xmlns="http://www.w3.org/2000/svg" xmlns:xlink="http://www.w3.org/1999/xlink" x="0px" y="0px"
	 width="480px" height="614.5px" viewBox="0 0 480 614.5" style="enable-background:new 0 0 480 614.5;" xml:space="preserve">
<style type="text/css">
	.st0{fill-rule:evenodd;clip-rule:evenodd;fill:#FEE3E4;}
	.st1{fill:#F4756D;}
	.st2{fill-rule:evenodd;clip-rule:evenodd;fill:#0D3A5A;}
	.st3{fill:#2ECCCB;}
	.st4{fill-rule:evenodd;clip-rule:evenodd;fill:#0A314C;}
	.st5{filter:url(#Adobe_OpacityMaskFilter);}
	.st6{fill-rule:evenodd;clip-rule:evenodd;fill:#FFFFFF;}
	.st7{mask:url(#mask-2_1_);}
	.st8{fill-rule:evenodd;clip-rule:evenodd;fill:#FCDED6;}
	.st9{fill-rule:evenodd;clip-rule:evenodd;fill:#EFBDB4;}
	.st10{fill:none;stroke:#04002C;stroke-width:1.587;}
	.st11{fill-rule:evenodd;clip-rule:evenodd;fill:#012734;}
	.st12{fill:none;stroke:#012734;stroke-width:2.051;}
	.st13{filter:url(#Adobe_OpacityMaskFilter_1_);}
	.st14{mask:url(#mask-4_1_);fill-rule:evenodd;clip-rule:evenodd;fill:#FFFFFF;}
	.st15{filter:url(#Adobe_OpacityMaskFilter_2_);}
	.st16{mask:url(#mask-4_2_);fill-rule:evenodd;clip-rule:evenodd;fill:#F4756C;}
	.st17{filter:url(#Adobe_OpacityMaskFilter_3_);}
	.st18{mask:url(#mask-4_3_);fill-rule:evenodd;clip-rule:evenodd;fill:#F4756C;}
	.st19{filter:url(#Adobe_OpacityMaskFilter_4_);}
	.st20{mask:url(#mask-4_4_);fill-rule:evenodd;clip-rule:evenodd;fill:#F4756C;}
	.st21{filter:url(#Adobe_OpacityMaskFilter_5_);}
	.st22{mask:url(#mask-4_5_);fill-rule:evenodd;clip-rule:evenodd;fill:#063A5A;}
	.st23{filter:url(#Adobe_OpacityMaskFilter_6_);}
	.st24{mask:url(#mask-4_6_);fill-rule:evenodd;clip-rule:evenodd;fill:#FCDED4;}
	.st25{filter:url(#Adobe_OpacityMaskFilter_7_);}
	.st26{mask:url(#mask-4_7_);fill-rule:evenodd;clip-rule:evenodd;fill:#012734;}
	.st27{filter:url(#Adobe_OpacityMaskFilter_8_);}
	.st28{mask:url(#mask-4_8_);fill:none;stroke:#012734;stroke-width:2.051;}
	.st29{filter:url(#Adobe_OpacityMaskFilter_9_);}
	.st30{mask:url(#mask-4_9_);fill:none;stroke:#04002C;stroke-width:2.051;}
	.st31{filter:url(#Adobe_OpacityMaskFilter_10_);}
	.st32{mask:url(#mask-4_10_);fill-rule:evenodd;clip-rule:evenodd;fill:#DA5455;}
	.st33{filter:url(#Adobe_OpacityMaskFilter_11_);}
	.st34{mask:url(#mask-4_11_);fill-rule:evenodd;clip-rule:evenodd;fill:#063A5A;}
	.st35{filter:url(#Adobe_OpacityMaskFilter_12_);}
	.st36{mask:url(#mask-4_12_);fill:none;stroke:#04002C;stroke-width:2.051;}
	.st37{filter:url(#Adobe_OpacityMaskFilter_13_);}
	.st38{mask:url(#mask-6_1_);}
	.st39{filter:url(#Adobe_OpacityMaskFilter_14_);}
	.st40{mask:url(#mask-8_1_);fill-rule:evenodd;clip-rule:evenodd;fill:#012734;}
	.st41{fill:none;stroke:#000000;stroke-width:0.52;}
	.st42{fill-rule:evenodd;clip-rule:evenodd;fill:#FF4345;}
	.st43{fill-rule:evenodd;clip-rule:evenodd;fill:#D3A8A0;}
	.st44{fill:none;stroke:#012734;stroke-width:1.788;}
	.st45{filter:url(#Adobe_OpacityMaskFilter_15_);}
	.st46{mask:url(#mask-10_1_);}
	.st47{filter:url(#Adobe_OpacityMaskFilter_16_);}
	.st48{mask:url(#mask-12_1_);fill-rule:evenodd;clip-rule:evenodd;fill:#012734;}
	.st49{filter:url(#Adobe_OpacityMaskFilter_17_);}
	.st50{mask:url(#mask-14_1_);}
	.st51{filter:url(#Adobe_OpacityMaskFilter_18_);}
	.st52{mask:url(#mask-16_1_);fill-rule:evenodd;clip-rule:evenodd;fill:#FFFFFF;}
	.st53{filter:url(#Adobe_OpacityMaskFilter_19_);}
	.st54{mask:url(#mask-16_2_);fill-rule:evenodd;clip-rule:evenodd;fill:#F4756C;}
	.st55{filter:url(#Adobe_OpacityMaskFilter_20_);}
	.st56{mask:url(#mask-16_3_);fill-rule:evenodd;clip-rule:evenodd;fill:#F4756C;}
	.st57{filter:url(#Adobe_OpacityMaskFilter_21_);}
	.st58{mask:url(#mask-16_4_);fill-rule:evenodd;clip-rule:evenodd;fill:#F4756C;}
	.st59{filter:url(#Adobe_OpacityMaskFilter_22_);}
	.st60{mask:url(#mask-16_5_);fill-rule:evenodd;clip-rule:evenodd;fill:#063A5A;}
	.st61{filter:url(#Adobe_OpacityMaskFilter_23_);}
	.st62{mask:url(#mask-16_6_);fill-rule:evenodd;clip-rule:evenodd;fill:#FCDED4;}
	.st63{filter:url(#Adobe_OpacityMaskFilter_24_);}
	.st64{mask:url(#mask-16_7_);fill-rule:evenodd;clip-rule:evenodd;fill:#012734;}
	.st65{filter:url(#Adobe_OpacityMaskFilter_25_);}
	.st66{mask:url(#mask-16_8_);fill:none;stroke:#012734;stroke-width:2.051;}
	.st67{filter:url(#Adobe_OpacityMaskFilter_26_);}
	.st68{mask:url(#mask-16_9_);fill:none;stroke:#04002C;stroke-width:2.051;}
	.st69{filter:url(#Adobe_OpacityMaskFilter_27_);}
	.st70{mask:url(#mask-16_10_);fill-rule:evenodd;clip-rule:evenodd;fill:#DA5455;}
	.st71{filter:url(#Adobe_OpacityMaskFilter_28_);}
	.st72{mask:url(#mask-16_11_);fill-rule:evenodd;clip-rule:evenodd;fill:#063A5A;}
	.st73{filter:url(#Adobe_OpacityMaskFilter_29_);}
	.st74{mask:url(#mask-16_12_);fill:none;stroke:#04002C;stroke-width:2.051;}
	.st75{fill-rule:evenodd;clip-rule:evenodd;fill:#7F1A55;}
</style>
<g id="Home">
	<g id="methodologie" transform="translate(-820.000000, -249.000000)">
		<g id="equipe_type" transform="translate(820.000000, 249.755510)">
			<rect id="Rectangle" y="104.5" class="st0" width="480" height="464.9"/>
			<path id="Schémad_x2019_uneéquipetypeElao" class="st1" d="M261.9,492c0.7,0,1.3-0.1,1.8-0.3c0.5-0.2,0.9-0.5,1.3-0.8
				c0.3-0.3,0.6-0.7,0.8-1.2c0.2-0.4,0.2-0.9,0.2-1.3c0-0.8-0.2-1.6-0.7-2.2c-0.5-0.6-1.2-1.1-2.1-1.4l0,0l-1.9-0.6
				c-0.6-0.2-1-0.4-1.2-0.7c-0.3-0.3-0.4-0.6-0.4-1c0-0.2,0-0.4,0.1-0.6c0.1-0.2,0.2-0.4,0.3-0.6s0.4-0.3,0.7-0.4
				c0.3-0.1,0.6-0.2,1-0.2c0.6,0,1.2,0.2,1.6,0.5c0.4,0.4,0.7,0.8,0.9,1.2l0,0l1.5-0.4c-0.1-0.4-0.3-0.7-0.5-1.1
				c-0.2-0.3-0.5-0.6-0.9-0.9c-0.4-0.3-0.7-0.5-1.2-0.6c-0.4-0.2-0.9-0.2-1.5-0.2c-0.6,0-1.2,0.1-1.7,0.3c-0.5,0.2-0.9,0.4-1.2,0.8
				c-0.3,0.3-0.5,0.7-0.7,1.1c-0.2,0.4-0.2,0.8-0.2,1.2c0,0.8,0.2,1.5,0.7,2c0.5,0.5,1.2,0.9,2.1,1.2l0,0l1.7,0.5
				c0.4,0.1,0.7,0.2,0.9,0.4c0.2,0.2,0.4,0.3,0.6,0.5c0.1,0.2,0.2,0.4,0.3,0.6c0.1,0.2,0.1,0.4,0.1,0.6c0,0.2,0,0.5-0.1,0.7
				c-0.1,0.2-0.2,0.5-0.4,0.7c-0.2,0.2-0.5,0.4-0.8,0.5c-0.3,0.1-0.7,0.2-1.1,0.2c-0.3,0-0.6-0.1-0.9-0.2c-0.3-0.1-0.5-0.2-0.8-0.4
				c-0.2-0.2-0.4-0.4-0.6-0.7c-0.2-0.3-0.3-0.5-0.3-0.8l0,0l-1.5,0.4c0.1,0.4,0.3,0.9,0.5,1.2s0.6,0.7,0.9,1
				c0.4,0.3,0.8,0.5,1.2,0.7S261.4,492,261.9,492z M272.4,492c0.8,0,1.5-0.2,2.1-0.5c0.6-0.3,1.2-0.8,1.6-1.4l0,0l-1.3-0.8
				c-0.6,0.8-1.4,1.2-2.5,1.2c-0.4,0-0.8-0.1-1.1-0.2s-0.6-0.3-0.8-0.6c-0.2-0.3-0.4-0.5-0.5-0.9c-0.1-0.3-0.2-0.7-0.2-1.1
				c0-0.4,0.1-0.8,0.2-1.1s0.3-0.7,0.5-0.9s0.5-0.5,0.8-0.6c0.3-0.2,0.7-0.2,1.1-0.2c0.5,0,0.9,0.1,1.3,0.4c0.4,0.3,0.7,0.6,0.9,1
				l0,0l1.4-0.5c-0.3-0.7-0.8-1.3-1.4-1.8c-0.6-0.4-1.4-0.6-2.2-0.6c-0.6,0-1.2,0.1-1.7,0.4c-0.5,0.2-1,0.6-1.3,1
				c-0.4,0.4-0.6,0.9-0.8,1.4c-0.2,0.5-0.3,1.1-0.3,1.7c0,0.6,0.1,1.2,0.3,1.7c0.2,0.5,0.5,1,0.9,1.3c0.4,0.4,0.8,0.7,1.3,0.9
				C271.3,491.9,271.8,492,272.4,492z M280.7,491.9v-5.5c0.2-0.5,0.6-0.8,1-1.1c0.4-0.3,0.9-0.4,1.4-0.4c0.4,0,0.7,0.1,0.9,0.2
				c0.3,0.1,0.5,0.3,0.6,0.5c0.2,0.2,0.3,0.5,0.4,0.7c0.1,0.3,0.1,0.6,0.1,0.9l0,0v4.7h1.5v-4.8c0-0.6-0.1-1.1-0.3-1.5
				c-0.2-0.4-0.4-0.8-0.7-1.1c-0.3-0.3-0.7-0.6-1.1-0.7c-0.4-0.2-0.9-0.3-1.4-0.3c-0.5,0-0.9,0.1-1.4,0.3c-0.5,0.2-0.8,0.5-1.1,0.9
				l0,0v-5.6h-1.5v12.8H280.7z M293.6,482.2l1.8-3.1h-1.8l-1.2,3.1H293.6z M293.5,492c0.7,0,1.4-0.2,2-0.5c0.6-0.3,1.2-0.8,1.6-1.4
				l0,0l-1.3-0.7c-0.3,0.4-0.7,0.7-1.1,0.9s-0.8,0.3-1.3,0.3c-0.8,0-1.4-0.2-1.8-0.7c-0.5-0.5-0.7-1-0.8-1.7l0,0h6.4
				c0-0.1,0-0.2,0-0.3c0-0.1,0-0.2,0-0.4c0-0.6-0.1-1.2-0.3-1.7c-0.2-0.5-0.5-0.9-0.8-1.3c-0.4-0.4-0.8-0.6-1.3-0.8
				c-0.5-0.2-1-0.3-1.6-0.3c-0.6,0-1.1,0.1-1.6,0.3c-0.5,0.2-0.9,0.5-1.3,0.9c-0.4,0.4-0.6,0.8-0.8,1.4c-0.2,0.5-0.3,1.1-0.3,1.7
				c0,0.6,0.1,1.2,0.3,1.7c0.2,0.5,0.5,1,0.9,1.4c0.4,0.4,0.8,0.7,1.3,0.9C292.3,491.9,292.9,492,293.5,492z M295.7,487H291
				c0-0.3,0.1-0.6,0.2-0.9c0.1-0.3,0.3-0.5,0.5-0.7c0.2-0.2,0.5-0.4,0.7-0.5c0.3-0.1,0.6-0.2,0.9-0.2c0.3,0,0.6,0.1,0.9,0.2
				c0.3,0.1,0.5,0.3,0.7,0.5c0.2,0.2,0.4,0.4,0.5,0.7S295.7,486.7,295.7,487L295.7,487z M301.2,491.9v-5.7c0-0.4,0.1-0.7,0.3-1
				c0.2-0.3,0.4-0.4,0.7-0.4c0.6,0,0.9,0.4,0.9,1.3l0,0v5.8h1.5v-5.8c0-0.4,0.1-0.7,0.3-0.9c0.2-0.2,0.4-0.3,0.7-0.3
				c0.3,0,0.5,0.1,0.7,0.3c0.2,0.2,0.3,0.5,0.3,1l0,0v5.8h1.5v-5.7c0-0.8-0.2-1.5-0.6-1.9c-0.4-0.5-0.9-0.7-1.6-0.7
				c-0.4,0-0.8,0.1-1.1,0.3c-0.3,0.2-0.5,0.5-0.7,0.8c-0.3-0.8-0.9-1.2-1.6-1.2c-0.4,0-0.7,0.1-1,0.3c-0.3,0.2-0.5,0.5-0.6,0.8l0,0
				v-1h-1.4v8.3H301.2z M313.9,492c0.3,0,0.7,0,1-0.1c0.3-0.1,0.6-0.2,0.9-0.3s0.5-0.3,0.7-0.5c0.2-0.2,0.4-0.4,0.5-0.5l0,0v1.3h1.4
				v-8.3h-1.5v1.2c-0.3-0.4-0.7-0.7-1.2-0.9c-0.5-0.2-1-0.3-1.6-0.3c-0.6,0-1.1,0.1-1.6,0.3c-0.5,0.2-0.9,0.5-1.3,0.9
				s-0.6,0.8-0.8,1.4c-0.2,0.5-0.3,1.1-0.3,1.7s0.1,1.2,0.3,1.7c0.2,0.5,0.5,1,0.8,1.4c0.4,0.4,0.8,0.7,1.2,0.9
				C312.8,491.9,313.3,492,313.9,492z M314.1,490.6c-0.4,0-0.7-0.1-1.1-0.2c-0.3-0.1-0.6-0.4-0.8-0.6c-0.2-0.3-0.4-0.6-0.6-0.9
				c-0.1-0.3-0.2-0.7-0.2-1.1c0-0.4,0.1-0.8,0.2-1.1c0.1-0.3,0.3-0.6,0.6-0.9c0.2-0.3,0.5-0.5,0.8-0.6c0.3-0.1,0.7-0.2,1.1-0.2
				s0.7,0.1,1.1,0.2c0.3,0.1,0.6,0.3,0.8,0.6c0.2,0.2,0.4,0.5,0.6,0.9c0.1,0.3,0.2,0.7,0.2,1l0,0v0.1c0,0.4-0.1,0.8-0.2,1.2
				c-0.1,0.4-0.3,0.7-0.6,0.9s-0.5,0.5-0.8,0.6S314.5,490.6,314.1,490.6z M333.2,492c0.7,0,1.3-0.1,1.8-0.4c0.5-0.3,0.9-0.6,1.1-1
				l0,0v1.3h1.4v-12.8H336v5.5c-0.3-0.3-0.7-0.6-1.2-0.8c-0.5-0.2-1-0.3-1.6-0.3c-0.6,0-1.1,0.1-1.6,0.3c-0.5,0.2-0.9,0.5-1.3,0.9
				c-0.4,0.4-0.6,0.8-0.8,1.4c-0.2,0.5-0.3,1.1-0.3,1.7c0,0.6,0.1,1.1,0.3,1.7c0.2,0.5,0.5,1,0.8,1.4c0.3,0.4,0.8,0.7,1.2,0.9
				C332.1,491.9,332.6,492,333.2,492z M333.4,490.6c-0.4,0-0.7-0.1-1-0.2c-0.3-0.1-0.6-0.3-0.8-0.6c-0.2-0.3-0.4-0.6-0.5-0.9
				c-0.1-0.4-0.2-0.7-0.2-1.1c0-0.4,0.1-0.8,0.2-1.1c0.1-0.4,0.3-0.7,0.5-0.9c0.2-0.3,0.5-0.5,0.8-0.6c0.3-0.1,0.7-0.2,1-0.2
				c0.4,0,0.7,0.1,1.1,0.2c0.3,0.1,0.6,0.3,0.8,0.6c0.2,0.2,0.4,0.5,0.5,0.9c0.1,0.3,0.2,0.7,0.2,1.1l0,0v0.1c0,0.4-0.1,0.8-0.2,1.1
				c-0.1,0.3-0.3,0.6-0.5,0.9c-0.2,0.2-0.5,0.4-0.8,0.6C334.1,490.5,333.8,490.6,333.4,490.6z M342.1,483.2l0.9-3.8h-1.4l-0.5,3.8
				H342.1z M349.8,492c0.7,0,1.3-0.1,1.7-0.4c0.4-0.3,0.7-0.6,0.9-1l0,0v1.2h1.4v-8.3h-1.5v4.2c0,0.5-0.1,0.9-0.2,1.3
				c-0.1,0.4-0.3,0.7-0.5,0.9c-0.2,0.2-0.4,0.4-0.7,0.5c-0.3,0.1-0.6,0.2-0.8,0.2c-0.7,0-1.2-0.2-1.6-0.6c-0.4-0.4-0.5-1-0.5-1.8
				l0,0v-4.6h-1.5v4.7c0,1.2,0.3,2.1,0.9,2.8C348,491.7,348.8,492,349.8,492z M358.7,491.9v-5.5c0.2-0.5,0.6-0.8,1-1.1
				s0.9-0.4,1.3-0.4c0.7,0,1.3,0.2,1.6,0.7c0.3,0.4,0.5,1,0.5,1.7l0,0v4.7h1.5v-4.8c0-0.6-0.1-1.1-0.3-1.5c-0.2-0.4-0.4-0.8-0.7-1.1
				c-0.3-0.3-0.7-0.6-1.1-0.7c-0.4-0.2-0.9-0.2-1.3-0.2c-0.5,0-1,0.1-1.4,0.3c-0.4,0.2-0.8,0.5-1.1,0.9l0,0v-1.2h-1.5v8.3H358.7z
				 M371.4,492c0.7,0,1.4-0.2,2-0.5c0.6-0.3,1.2-0.8,1.6-1.4l0,0l-1.3-0.7c-0.3,0.4-0.7,0.7-1.1,0.9s-0.8,0.3-1.3,0.3
				c-0.8,0-1.4-0.2-1.8-0.7c-0.5-0.5-0.7-1-0.8-1.7l0,0h6.4c0-0.1,0-0.2,0-0.3c0-0.1,0-0.2,0-0.4c0-0.6-0.1-1.2-0.3-1.7
				c-0.2-0.5-0.5-0.9-0.8-1.3c-0.4-0.4-0.8-0.6-1.3-0.8c-0.5-0.2-1-0.3-1.6-0.3c-0.6,0-1.1,0.1-1.6,0.3c-0.5,0.2-0.9,0.5-1.3,0.9
				c-0.4,0.4-0.6,0.8-0.8,1.4c-0.2,0.5-0.3,1.1-0.3,1.7c0,0.6,0.1,1.2,0.3,1.7c0.2,0.5,0.5,1,0.9,1.4c0.4,0.4,0.8,0.7,1.3,0.9
				C370.3,491.9,370.8,492,371.4,492z M373.6,487h-4.7c0-0.3,0.1-0.6,0.2-0.9c0.1-0.3,0.3-0.5,0.5-0.7c0.2-0.2,0.5-0.4,0.7-0.5
				c0.3-0.1,0.6-0.2,0.9-0.2c0.3,0,0.6,0.1,0.9,0.2c0.3,0.1,0.5,0.3,0.7,0.5c0.2,0.2,0.4,0.4,0.5,0.7S373.6,486.7,373.6,487
				L373.6,487z M262.1,507.6l1.8-3.1h-1.8l-1.2,3.1H262.1z M262,517.5c0.7,0,1.4-0.2,2-0.5c0.6-0.3,1.2-0.8,1.6-1.4l0,0l-1.3-0.7
				c-0.3,0.4-0.7,0.7-1.1,0.9c-0.4,0.2-0.8,0.3-1.3,0.3c-0.8,0-1.4-0.2-1.8-0.7c-0.5-0.5-0.7-1-0.8-1.7l0,0h6.4c0-0.1,0-0.2,0-0.3
				s0-0.2,0-0.4c0-0.6-0.1-1.2-0.3-1.7c-0.2-0.5-0.5-0.9-0.8-1.3c-0.4-0.4-0.8-0.6-1.3-0.8c-0.5-0.2-1-0.3-1.6-0.3s-1.1,0.1-1.6,0.3
				c-0.5,0.2-0.9,0.5-1.3,0.9c-0.4,0.4-0.6,0.8-0.8,1.4c-0.2,0.5-0.3,1.1-0.3,1.7c0,0.6,0.1,1.2,0.3,1.7c0.2,0.5,0.5,1,0.9,1.4
				c0.4,0.4,0.8,0.7,1.3,0.9C260.8,517.3,261.4,517.5,262,517.5z M264.2,512.4h-4.7c0-0.3,0.1-0.6,0.2-0.9c0.1-0.3,0.3-0.5,0.5-0.7
				c0.2-0.2,0.5-0.4,0.7-0.5c0.3-0.1,0.6-0.2,0.9-0.2c0.3,0,0.6,0.1,0.9,0.2c0.3,0.1,0.5,0.3,0.7,0.5c0.2,0.2,0.4,0.4,0.5,0.7
				S264.2,512.1,264.2,512.4L264.2,512.4z M276.2,521.4v-12.5h-1.5v1.2c-0.4-0.4-0.8-0.7-1.2-1c-0.5-0.2-1-0.3-1.5-0.3
				c-0.6,0-1.1,0.1-1.6,0.3c-0.5,0.2-0.9,0.5-1.2,0.9c-0.3,0.4-0.6,0.8-0.8,1.3c-0.2,0.5-0.3,1.1-0.3,1.7c0,0.6,0.1,1.1,0.3,1.7
				c0.2,0.5,0.5,1,0.8,1.4c0.3,0.4,0.7,0.7,1.2,0.9c0.5,0.2,1,0.3,1.5,0.3c0.7,0,1.4-0.2,1.8-0.5c0.5-0.3,0.8-0.7,1-1.1l0,0v5.6
				H276.2z M272.1,516c-0.4,0-0.7-0.1-1-0.2c-0.3-0.2-0.6-0.4-0.8-0.6c-0.2-0.3-0.4-0.6-0.5-0.9c-0.1-0.4-0.2-0.7-0.2-1.1
				c0-0.4,0.1-0.8,0.2-1.1c0.1-0.3,0.3-0.6,0.5-0.9c0.2-0.3,0.5-0.5,0.8-0.6c0.3-0.1,0.6-0.2,1-0.2c0.4,0,0.8,0.1,1.1,0.2
				c0.3,0.1,0.6,0.3,0.8,0.6c0.2,0.2,0.4,0.5,0.5,0.9c0.1,0.3,0.2,0.7,0.2,1.1l0,0v0.1c0,0.4-0.1,0.8-0.2,1.1
				c-0.1,0.3-0.3,0.6-0.6,0.9c-0.2,0.2-0.5,0.4-0.8,0.6C272.8,515.9,272.4,516,272.1,516z M282.4,517.5c0.7,0,1.3-0.1,1.7-0.4
				c0.4-0.3,0.7-0.6,0.9-1l0,0v1.2h1.4v-8.3h-1.5v4.2c0,0.5-0.1,0.9-0.2,1.3c-0.1,0.4-0.3,0.7-0.5,0.9c-0.2,0.2-0.4,0.4-0.7,0.5
				c-0.3,0.1-0.6,0.2-0.8,0.2c-0.7,0-1.2-0.2-1.6-0.6c-0.4-0.4-0.5-1-0.5-1.8l0,0v-4.6h-1.5v4.7c0,1.2,0.3,2.1,0.9,2.8
				C280.6,517.1,281.4,517.5,282.4,517.5z M293.7,507.2c0.3,0,0.6-0.1,0.8-0.3c0.2-0.2,0.3-0.5,0.3-0.8c0-0.3-0.1-0.6-0.3-0.8
				c-0.2-0.2-0.5-0.3-0.8-0.3c-0.3,0-0.5,0.1-0.8,0.3c-0.2,0.2-0.3,0.5-0.3,0.8c0,0.3,0.1,0.5,0.3,0.8
				C293.1,507.1,293.4,507.2,293.7,507.2z M297.7,517.3V516h-3.3v-7.1h-4.8v1.3h3.3v5.8h-3.3v1.3H297.7z M301.6,521.4v-5.2
				c0.3,0.4,0.7,0.7,1.2,0.9c0.5,0.2,1,0.3,1.5,0.3c0.6,0,1.1-0.1,1.6-0.4c0.5-0.2,0.9-0.6,1.2-0.9c0.3-0.4,0.6-0.9,0.8-1.4
				s0.3-1.1,0.3-1.7c0-0.6-0.1-1.2-0.3-1.7c-0.2-0.5-0.5-1-0.8-1.3c-0.3-0.4-0.8-0.7-1.2-0.9c-0.5-0.2-1-0.3-1.6-0.3
				c-1.1,0-2,0.5-2.8,1.4l0,0v-1.3H300v12.5H301.6z M304.2,516c-0.3,0-0.7-0.1-1-0.2s-0.6-0.3-0.8-0.6c-0.2-0.2-0.4-0.5-0.6-0.9
				c-0.1-0.3-0.2-0.7-0.2-1.1l0,0v-0.1c0-0.4,0.1-0.8,0.2-1.1c0.1-0.3,0.3-0.6,0.5-0.9c0.2-0.3,0.5-0.5,0.8-0.6
				c0.3-0.1,0.7-0.2,1.1-0.2s0.7,0.1,1,0.2c0.3,0.1,0.6,0.3,0.8,0.6c0.2,0.3,0.4,0.6,0.5,0.9c0.1,0.3,0.2,0.7,0.2,1.1
				c0,0.4-0.1,0.8-0.2,1.1c-0.1,0.4-0.3,0.7-0.5,0.9c-0.2,0.3-0.5,0.5-0.8,0.6C304.9,515.9,304.5,516,304.2,516z M314.5,517.5
				c0.7,0,1.4-0.2,2-0.5c0.6-0.3,1.2-0.8,1.6-1.4l0,0l-1.3-0.7c-0.3,0.4-0.7,0.7-1.1,0.9c-0.4,0.2-0.8,0.3-1.3,0.3
				c-0.8,0-1.4-0.2-1.8-0.7c-0.5-0.5-0.7-1-0.8-1.7l0,0h6.4c0-0.1,0-0.2,0-0.3c0-0.1,0-0.2,0-0.4c0-0.6-0.1-1.2-0.3-1.7
				c-0.2-0.5-0.5-0.9-0.8-1.3c-0.4-0.4-0.8-0.6-1.3-0.8c-0.5-0.2-1-0.3-1.6-0.3c-0.6,0-1.1,0.1-1.6,0.3c-0.5,0.2-0.9,0.5-1.3,0.9
				c-0.4,0.4-0.6,0.8-0.8,1.4c-0.2,0.5-0.3,1.1-0.3,1.7c0,0.6,0.1,1.2,0.3,1.7c0.2,0.5,0.5,1,0.9,1.4c0.4,0.4,0.8,0.7,1.3,0.9
				C313.3,517.3,313.9,517.5,314.5,517.5z M316.7,512.4H312c0-0.3,0.1-0.6,0.2-0.9c0.1-0.3,0.3-0.5,0.5-0.7c0.2-0.2,0.5-0.4,0.7-0.5
				c0.3-0.1,0.6-0.2,0.9-0.2c0.3,0,0.6,0.1,0.9,0.2c0.3,0.1,0.5,0.3,0.7,0.5c0.2,0.2,0.4,0.4,0.5,0.7S316.7,512.1,316.7,512.4
				L316.7,512.4z M334.7,517.5c0.4,0,0.8-0.1,1.1-0.2c0.3-0.1,0.6-0.2,0.9-0.4c0.2-0.2,0.5-0.3,0.6-0.5c0.2-0.2,0.3-0.4,0.5-0.5l0,0
				l-1.1-0.9c-0.2,0.3-0.5,0.6-0.8,0.8c-0.3,0.2-0.7,0.3-1.1,0.3c-0.2,0-0.4,0-0.7-0.1c-0.2-0.1-0.4-0.2-0.6-0.3
				c-0.2-0.2-0.3-0.4-0.4-0.6c-0.1-0.3-0.1-0.6-0.1-0.9l0,0v-3.9h3.9v-1.3h-3.9v-2.4h-1.3l-0.2,2.4h-2.4v1.3h2.4v3.9
				c0,0.5,0.1,1,0.2,1.4c0.2,0.4,0.4,0.8,0.6,1.1c0.3,0.3,0.6,0.5,1,0.6C333.8,517.4,334.3,517.5,334.7,517.5z M343.6,521.4
				l4.8-12.5h-1.6l-2.6,7.1l-2.5-7.1h-1.6l3.1,8.3h0.6l-1.7,4.2H343.6z M352.4,521.4v-5.2c0.3,0.4,0.7,0.7,1.2,0.9
				c0.5,0.2,1,0.3,1.5,0.3c0.6,0,1.1-0.1,1.6-0.4c0.5-0.2,0.9-0.6,1.2-0.9c0.3-0.4,0.6-0.9,0.8-1.4c0.2-0.5,0.3-1.1,0.3-1.7
				c0-0.6-0.1-1.2-0.3-1.7c-0.2-0.5-0.5-1-0.8-1.3c-0.3-0.4-0.8-0.7-1.2-0.9c-0.5-0.2-1-0.3-1.6-0.3c-1.1,0-2,0.5-2.8,1.4l0,0v-1.3
				h-1.5v12.5H352.4z M355,516c-0.3,0-0.7-0.1-1-0.2c-0.3-0.1-0.6-0.3-0.8-0.6c-0.2-0.2-0.4-0.5-0.6-0.9c-0.1-0.3-0.2-0.7-0.2-1.1
				l0,0v-0.1c0-0.4,0.1-0.8,0.2-1.1c0.1-0.3,0.3-0.6,0.5-0.9c0.2-0.3,0.5-0.5,0.8-0.6c0.3-0.1,0.7-0.2,1.1-0.2c0.4,0,0.7,0.1,1,0.2
				c0.3,0.1,0.6,0.3,0.8,0.6c0.2,0.3,0.4,0.6,0.5,0.9c0.1,0.3,0.2,0.7,0.2,1.1c0,0.4-0.1,0.8-0.2,1.1c-0.1,0.4-0.3,0.7-0.5,0.9
				c-0.2,0.3-0.5,0.5-0.8,0.6C355.7,515.9,355.4,516,355,516z M365.4,517.5c0.7,0,1.4-0.2,2-0.5c0.6-0.3,1.2-0.8,1.6-1.4l0,0
				l-1.3-0.7c-0.3,0.4-0.7,0.7-1.1,0.9c-0.4,0.2-0.8,0.3-1.3,0.3c-0.8,0-1.4-0.2-1.8-0.7c-0.5-0.5-0.7-1-0.8-1.7l0,0h6.4
				c0-0.1,0-0.2,0-0.3s0-0.2,0-0.4c0-0.6-0.1-1.2-0.3-1.7c-0.2-0.5-0.5-0.9-0.8-1.3c-0.4-0.4-0.8-0.6-1.3-0.8
				c-0.5-0.2-1-0.3-1.6-0.3c-0.6,0-1.1,0.1-1.6,0.3c-0.5,0.2-0.9,0.5-1.3,0.9c-0.4,0.4-0.6,0.8-0.8,1.4c-0.2,0.5-0.3,1.1-0.3,1.7
				c0,0.6,0.1,1.2,0.3,1.7c0.2,0.5,0.5,1,0.9,1.4s0.8,0.7,1.3,0.9C364.2,517.3,364.7,517.5,365.4,517.5z M367.5,512.4h-4.7
				c0-0.3,0.1-0.6,0.2-0.9c0.1-0.3,0.3-0.5,0.5-0.7c0.2-0.2,0.5-0.4,0.7-0.5c0.3-0.1,0.6-0.2,0.9-0.2c0.3,0,0.6,0.1,0.9,0.2
				c0.3,0.1,0.5,0.3,0.7,0.5s0.4,0.4,0.5,0.7C367.5,511.8,367.5,512.1,367.5,512.4L367.5,512.4z M388.6,517.3v-1.4h-6.2v-4.3h5.1
				v-1.4h-5.1v-3.9h5.9v-1.4h-7.6v12.5H388.6z M399.5,517.3V516h-3.7v-11.5h-4.6v1.3h3V516h-3.1v1.3H399.5z M405,517.5
				c0.3,0,0.7,0,1-0.1c0.3-0.1,0.6-0.2,0.9-0.3s0.5-0.3,0.7-0.5c0.2-0.2,0.4-0.4,0.5-0.5l0,0v1.3h1.4v-8.3h-1.5v1.2
				c-0.3-0.4-0.7-0.7-1.2-0.9c-0.5-0.2-1-0.3-1.6-0.3c-0.6,0-1.1,0.1-1.6,0.3s-0.9,0.5-1.3,0.9s-0.6,0.8-0.8,1.4s-0.3,1.1-0.3,1.7
				c0,0.6,0.1,1.2,0.3,1.7s0.5,1,0.8,1.4c0.4,0.4,0.8,0.7,1.2,0.9C403.9,517.3,404.5,517.5,405,517.5z M405.3,516
				c-0.4,0-0.7-0.1-1.1-0.2c-0.3-0.1-0.6-0.4-0.8-0.6s-0.4-0.6-0.6-0.9c-0.1-0.3-0.2-0.7-0.2-1.1c0-0.4,0.1-0.8,0.2-1.1
				c0.1-0.3,0.3-0.6,0.6-0.9s0.5-0.5,0.8-0.6c0.3-0.1,0.7-0.2,1.1-0.2c0.4,0,0.7,0.1,1.1,0.2c0.3,0.1,0.6,0.3,0.8,0.6
				c0.2,0.2,0.4,0.5,0.6,0.9c0.1,0.3,0.2,0.7,0.2,1l0,0v0.1c0,0.4-0.1,0.8-0.2,1.2s-0.3,0.7-0.6,0.9s-0.5,0.5-0.8,0.6
				C406,515.9,405.7,516,405.3,516z M416,517.5c0.6,0,1.2-0.1,1.7-0.3c0.5-0.2,1-0.5,1.3-0.9c0.4-0.4,0.6-0.8,0.8-1.4
				c0.2-0.5,0.3-1.1,0.3-1.7c0-0.6-0.1-1.2-0.3-1.7c-0.2-0.5-0.5-1-0.8-1.4s-0.8-0.7-1.3-0.9c-0.5-0.2-1.1-0.3-1.7-0.3
				c-0.6,0-1.2,0.1-1.7,0.3c-0.5,0.2-0.9,0.5-1.3,0.9s-0.6,0.8-0.8,1.4c-0.2,0.5-0.3,1.1-0.3,1.7c0,0.6,0.1,1.1,0.3,1.7
				c0.2,0.5,0.5,1,0.8,1.4c0.4,0.4,0.8,0.7,1.3,0.9C414.8,517.3,415.4,517.5,416,517.5z M416,516c-0.4,0-0.8-0.1-1.1-0.2
				c-0.3-0.1-0.6-0.4-0.8-0.6s-0.4-0.6-0.5-0.9c-0.1-0.3-0.2-0.7-0.2-1.1c0-0.4,0.1-0.8,0.2-1.1c0.1-0.3,0.3-0.6,0.5-0.9
				s0.5-0.5,0.8-0.6c0.3-0.1,0.7-0.2,1.1-0.2s0.8,0.1,1.1,0.2c0.3,0.1,0.6,0.4,0.8,0.6s0.4,0.6,0.5,0.9c0.1,0.3,0.2,0.7,0.2,1.1
				c0,0.4-0.1,0.7-0.2,1.1c-0.1,0.3-0.3,0.6-0.5,0.9s-0.5,0.5-0.8,0.6S416.4,516,416,516z"/>
			<g id="thumb_equipe" transform="translate(51.642857, 177.537711)">
				<rect id="Rectangle_1_" x="-3" y="-10.9" class="st2" width="170.4" height="210.8"/>
				<path id="DéveloppeurFrontend" class="st3" d="M27.8,145.7c0.8,0,1.6-0.1,2.2-0.4c0.6-0.3,1.1-0.7,1.5-1.2
					c0.4-0.5,0.7-1.1,0.9-1.8c0.2-0.7,0.3-1.4,0.3-2.1s-0.1-1.5-0.3-2.1c-0.2-0.7-0.5-1.3-0.9-1.8c-0.4-0.5-0.9-0.9-1.5-1.2
					c-0.6-0.3-1.3-0.4-2.2-0.4l0,0h-2.9v11.1H27.8z M27.8,143.9h-1v-7.5h1c0.5,0,0.9,0.1,1.3,0.3c0.4,0.2,0.7,0.5,0.9,0.8
					c0.2,0.3,0.4,0.7,0.5,1.2c0.1,0.5,0.2,0.9,0.2,1.4s-0.1,1-0.2,1.4c-0.1,0.5-0.3,0.8-0.5,1.2c-0.2,0.3-0.5,0.6-0.9,0.8
					C28.7,143.8,28.3,143.9,27.8,143.9L27.8,143.9z M38.1,137.2l1.7-2.8h-2l-1,2.8H38.1z M37.9,145.9c0.6,0,1.2-0.1,1.8-0.4
					c0.6-0.3,1.1-0.7,1.5-1.3l0,0l-1.6-0.8c-0.2,0.3-0.5,0.5-0.8,0.6s-0.6,0.2-1,0.2c-0.5,0-1-0.2-1.3-0.5c-0.3-0.3-0.5-0.7-0.6-1.2
					l0,0h5.3c0-0.1,0-0.2,0-0.4l0,0v-0.4c0-0.5-0.1-1-0.3-1.4c-0.2-0.5-0.4-0.8-0.7-1.2c-0.3-0.3-0.7-0.6-1.1-0.8
					c-0.4-0.2-0.9-0.3-1.5-0.3c-0.5,0-1,0.1-1.5,0.3c-0.4,0.2-0.8,0.5-1.1,0.8c-0.3,0.3-0.6,0.8-0.7,1.2c-0.2,0.5-0.3,1-0.3,1.5
					c0,0.6,0.1,1.1,0.3,1.6s0.4,0.9,0.8,1.2c0.3,0.3,0.7,0.6,1.2,0.8C36.9,145.8,37.4,145.9,37.9,145.9z M39.4,141.2h-3.3
					c0-0.4,0.2-0.8,0.5-1.1c0.3-0.3,0.7-0.4,1.2-0.4c0.5,0,0.8,0.1,1.1,0.4C39.3,140.4,39.4,140.8,39.4,141.2L39.4,141.2z
					 M48.2,145.7l2.6-7.5h-1.9l-1.8,5.5l-1.7-5.5h-2l2.6,7.5H48.2z M56.6,145.9c0.6,0,1.2-0.1,1.8-0.4c0.6-0.3,1.1-0.7,1.5-1.3l0,0
					l-1.6-0.8c-0.2,0.3-0.5,0.5-0.8,0.6c-0.3,0.1-0.6,0.2-1,0.2c-0.5,0-1-0.2-1.3-0.5c-0.3-0.3-0.5-0.7-0.6-1.2l0,0H60
					c0-0.1,0-0.2,0-0.4l0,0v-0.4c0-0.5-0.1-1-0.3-1.4c-0.2-0.5-0.4-0.8-0.7-1.2c-0.3-0.3-0.7-0.6-1.1-0.8c-0.4-0.2-0.9-0.3-1.5-0.3
					s-1,0.1-1.5,0.3c-0.4,0.2-0.8,0.5-1.1,0.8c-0.3,0.3-0.6,0.8-0.7,1.2s-0.3,1-0.3,1.5c0,0.6,0.1,1.1,0.3,1.6
					c0.2,0.5,0.4,0.9,0.8,1.2c0.3,0.3,0.7,0.6,1.2,0.8C55.5,145.8,56.1,145.9,56.6,145.9z M58.1,141.2h-3.3c0-0.4,0.2-0.8,0.5-1.1
					s0.7-0.4,1.2-0.4c0.5,0,0.8,0.1,1.1,0.4C57.9,140.4,58.1,140.8,58.1,141.2L58.1,141.2z M69.8,145.7v-1.6h-3.1v-9.7h-4.3v1.6h2.5
					v8.1h-2.6v1.6H69.8z M75.1,145.9c0.6,0,1.1-0.1,1.5-0.3c0.5-0.2,0.9-0.5,1.2-0.8c0.3-0.4,0.6-0.8,0.8-1.2c0.2-0.5,0.3-1,0.3-1.5
					c0-0.5-0.1-1-0.3-1.5c-0.2-0.5-0.4-0.9-0.8-1.2c-0.3-0.4-0.7-0.6-1.2-0.8c-0.5-0.2-1-0.3-1.5-0.3c-0.6,0-1.1,0.1-1.6,0.3
					s-0.9,0.5-1.2,0.8c-0.3,0.4-0.6,0.8-0.8,1.2c-0.2,0.5-0.3,1-0.3,1.5c0,0.5,0.1,1,0.3,1.5c0.2,0.5,0.4,0.9,0.8,1.2
					c0.3,0.4,0.7,0.6,1.2,0.8C74.1,145.8,74.6,145.9,75.1,145.9z M75.1,144.1c-0.3,0-0.6-0.1-0.8-0.2c-0.2-0.1-0.4-0.3-0.6-0.5
					c-0.2-0.2-0.3-0.4-0.4-0.7c-0.1-0.3-0.1-0.5-0.1-0.8s0-0.6,0.1-0.8c0.1-0.3,0.2-0.5,0.4-0.7c0.2-0.2,0.4-0.3,0.6-0.5
					c0.2-0.1,0.5-0.2,0.8-0.2c0.3,0,0.6,0.1,0.8,0.2c0.2,0.1,0.4,0.3,0.6,0.5c0.2,0.2,0.3,0.4,0.4,0.7c0.1,0.3,0.1,0.5,0.1,0.8
					s0,0.6-0.1,0.8c-0.1,0.3-0.2,0.5-0.4,0.7c-0.2,0.2-0.4,0.4-0.6,0.5C75.7,144.1,75.4,144.1,75.1,144.1z M82.8,149.4v-4.5
					c0.2,0.3,0.5,0.6,0.9,0.7c0.4,0.2,0.8,0.3,1.2,0.3c0.5,0,1-0.1,1.4-0.3c0.4-0.2,0.8-0.5,1.1-0.9c0.3-0.4,0.5-0.8,0.7-1.3
					c0.2-0.5,0.2-1,0.2-1.5c0-0.5-0.1-1-0.2-1.5c-0.2-0.5-0.4-0.9-0.7-1.2c-0.3-0.3-0.7-0.6-1.1-0.8s-0.9-0.3-1.4-0.3
					c-0.5,0-0.9,0.1-1.2,0.3s-0.7,0.4-0.9,0.8l0,0v-1H81v11.2H82.8z M84.7,144.1c-0.3,0-0.5-0.1-0.8-0.2c-0.2-0.1-0.4-0.3-0.6-0.4
					c-0.2-0.2-0.3-0.4-0.4-0.7c-0.1-0.3-0.1-0.5-0.1-0.8l0,0V142c0-0.3,0-0.5,0.1-0.8c0.1-0.3,0.2-0.5,0.4-0.7
					c0.2-0.2,0.4-0.4,0.6-0.5c0.2-0.1,0.5-0.2,0.8-0.2s0.5,0.1,0.8,0.2s0.4,0.3,0.6,0.5c0.2,0.2,0.3,0.4,0.4,0.7s0.1,0.5,0.1,0.8
					c0,0.3,0,0.6-0.1,0.8c-0.1,0.3-0.2,0.5-0.4,0.7c-0.2,0.2-0.4,0.4-0.6,0.5C85.3,144.1,85,144.1,84.7,144.1z M92.2,149.4v-4.5
					c0.2,0.3,0.5,0.6,0.9,0.7c0.4,0.2,0.8,0.3,1.2,0.3c0.5,0,1-0.1,1.4-0.3c0.4-0.2,0.8-0.5,1.1-0.9c0.3-0.4,0.5-0.8,0.7-1.3
					c0.2-0.5,0.2-1,0.2-1.5c0-0.5-0.1-1-0.2-1.5c-0.2-0.5-0.4-0.9-0.7-1.2c-0.3-0.3-0.7-0.6-1.1-0.8c-0.4-0.2-0.9-0.3-1.4-0.3
					c-0.5,0-0.9,0.1-1.2,0.3s-0.7,0.4-0.9,0.8l0,0v-1h-1.8v11.2H92.2z M94.1,144.1c-0.3,0-0.5-0.1-0.8-0.2c-0.2-0.1-0.4-0.3-0.6-0.4
					c-0.2-0.2-0.3-0.4-0.4-0.7s-0.1-0.5-0.1-0.8l0,0V142c0-0.3,0-0.5,0.1-0.8c0.1-0.3,0.2-0.5,0.4-0.7c0.2-0.2,0.4-0.4,0.6-0.5
					c0.2-0.1,0.5-0.2,0.8-0.2s0.5,0.1,0.8,0.2c0.2,0.1,0.4,0.3,0.6,0.5c0.2,0.2,0.3,0.4,0.4,0.7c0.1,0.3,0.1,0.5,0.1,0.8
					c0,0.3,0,0.6-0.1,0.8c-0.1,0.3-0.2,0.5-0.4,0.7c-0.2,0.2-0.4,0.4-0.6,0.5C94.6,144.1,94.3,144.1,94.1,144.1z M103.3,145.9
					c0.6,0,1.2-0.1,1.8-0.4c0.6-0.3,1.1-0.7,1.5-1.3l0,0l-1.6-0.8c-0.2,0.3-0.5,0.5-0.8,0.6c-0.3,0.1-0.6,0.2-1,0.2
					c-0.5,0-1-0.2-1.3-0.5c-0.3-0.3-0.5-0.7-0.6-1.2l0,0h5.3c0-0.1,0-0.2,0-0.4l0,0v-0.4c0-0.5-0.1-1-0.3-1.4
					c-0.2-0.5-0.4-0.8-0.7-1.2s-0.7-0.6-1.1-0.8c-0.4-0.2-0.9-0.3-1.5-0.3c-0.5,0-1,0.1-1.5,0.3c-0.4,0.2-0.8,0.5-1.1,0.8
					c-0.3,0.3-0.6,0.8-0.7,1.2s-0.3,1-0.3,1.5c0,0.6,0.1,1.1,0.3,1.6s0.4,0.9,0.8,1.2c0.3,0.3,0.7,0.6,1.2,0.8
					C102.2,145.8,102.7,145.9,103.3,145.9z M104.8,141.2h-3.3c0-0.4,0.2-0.8,0.5-1.1c0.3-0.3,0.7-0.4,1.2-0.4c0.5,0,0.8,0.1,1.1,0.4
					C104.6,140.4,104.8,140.8,104.8,141.2L104.8,141.2z M111.9,145.9c0.3,0,0.6,0,0.8-0.1s0.5-0.2,0.6-0.3c0.2-0.1,0.3-0.2,0.5-0.4
					s0.2-0.3,0.3-0.4l0,0v1h1.7v-7.5H114v4c0,0.6-0.2,1.1-0.5,1.5c-0.3,0.3-0.7,0.5-1.1,0.5c-1,0-1.5-0.6-1.5-1.8l0,0v-4.1H109v4.2
					c0,1.1,0.3,1.9,0.8,2.5C110.3,145.6,111,145.9,111.9,145.9z M124.8,145.7v-1.6h-2.9v-1.5c0-0.4,0-0.7,0.1-1.1
					c0.1-0.3,0.2-0.6,0.4-0.9c0.2-0.3,0.4-0.5,0.7-0.6c0.3-0.2,0.6-0.2,1.1-0.2c0.3,0,0.5,0,0.7,0.1c0.2,0,0.4,0.1,0.6,0.2l0,0
					l0.4-1.8c-0.5-0.1-0.9-0.2-1.4-0.2c-0.6,0-1.1,0.1-1.5,0.4s-0.8,0.7-1.1,1.3l0,0v-1.6h-3.8v1.6h2v4.4h-2v1.6H124.8z M27.3,172.1
					v-4.9h4.3v-1.7h-4.3v-2.7h4.9V161h-6.8v11.1H27.3z M40.8,172.1v-1.6h-2.9V169c0-0.4,0-0.7,0.1-1.1s0.2-0.6,0.4-0.9
					c0.2-0.3,0.4-0.5,0.7-0.6c0.3-0.2,0.6-0.2,1.1-0.2c0.3,0,0.5,0,0.7,0.1c0.2,0,0.4,0.1,0.6,0.2l0,0l0.4-1.8
					c-0.5-0.1-0.9-0.2-1.4-0.2c-0.6,0-1.1,0.1-1.5,0.4c-0.5,0.3-0.8,0.7-1.1,1.3l0,0v-1.6h-3.8v1.6h2v4.4h-2v1.6H40.8z M47.1,172.2
					c0.6,0,1.1-0.1,1.5-0.3c0.5-0.2,0.9-0.5,1.2-0.8c0.3-0.4,0.6-0.8,0.8-1.2c0.2-0.5,0.3-1,0.3-1.5c0-0.5-0.1-1-0.3-1.5
					c-0.2-0.5-0.4-0.9-0.8-1.2c-0.3-0.4-0.7-0.6-1.2-0.8c-0.5-0.2-1-0.3-1.5-0.3c-0.6,0-1.1,0.1-1.6,0.3c-0.5,0.2-0.9,0.5-1.2,0.8
					c-0.3,0.4-0.6,0.8-0.8,1.2c-0.2,0.5-0.3,1-0.3,1.5c0,0.5,0.1,1,0.3,1.5c0.2,0.5,0.4,0.9,0.8,1.2c0.3,0.4,0.7,0.6,1.2,0.8
					C46.1,172.1,46.6,172.2,47.1,172.2z M47.1,170.5c-0.3,0-0.6-0.1-0.8-0.2c-0.2-0.1-0.4-0.3-0.6-0.5c-0.2-0.2-0.3-0.4-0.4-0.7
					c-0.1-0.3-0.1-0.5-0.1-0.8c0-0.3,0-0.6,0.1-0.8c0.1-0.3,0.2-0.5,0.4-0.7c0.2-0.2,0.4-0.3,0.6-0.5c0.2-0.1,0.5-0.2,0.8-0.2
					c0.3,0,0.6,0.1,0.8,0.2c0.2,0.1,0.4,0.3,0.6,0.5c0.2,0.2,0.3,0.4,0.4,0.7c0.1,0.3,0.1,0.5,0.1,0.8c0,0.3,0,0.6-0.1,0.8
					c-0.1,0.3-0.2,0.5-0.4,0.7c-0.2,0.2-0.4,0.4-0.6,0.5C47.7,170.4,47.4,170.5,47.1,170.5z M54.9,172.1v-4.9
					c0.2-0.3,0.4-0.5,0.7-0.7c0.3-0.2,0.6-0.3,1-0.3c0.5,0,0.9,0.2,1.1,0.5c0.3,0.3,0.4,0.7,0.4,1.2l0,0v4.2H60v-4.4
					c0-0.5-0.1-1-0.2-1.4c-0.2-0.4-0.4-0.7-0.6-1c-0.3-0.3-0.6-0.5-0.9-0.6c-0.4-0.1-0.7-0.2-1.2-0.2c-0.4,0-0.8,0.1-1.2,0.3
					c-0.4,0.2-0.7,0.4-0.9,0.7l0,0v-0.9h-1.8v7.5H54.9z M66.7,172.2c0.4,0,0.8,0,1.1-0.1c0.3-0.1,0.6-0.2,0.8-0.4
					c0.2-0.2,0.4-0.3,0.6-0.5s0.3-0.3,0.4-0.5l0,0l-1.3-1.1c-0.1,0.2-0.3,0.4-0.6,0.6s-0.6,0.3-0.9,0.3c-0.4,0-0.7-0.1-0.9-0.4
					c-0.2-0.3-0.4-0.7-0.4-1.2l0,0v-2.8h3.3v-1.6h-3.3v-2.1h-1.6l-0.2,2.1h-1.9v1.6h1.9v2.8c0,1,0.3,1.8,0.8,2.4
					C65,171.9,65.7,172.2,66.7,172.2z M75.3,172.2c0.6,0,1.2-0.1,1.8-0.4c0.6-0.3,1.1-0.7,1.5-1.3l0,0l-1.6-0.8
					c-0.2,0.3-0.5,0.5-0.8,0.6c-0.3,0.1-0.6,0.2-1,0.2c-0.5,0-1-0.2-1.3-0.5c-0.3-0.3-0.5-0.7-0.6-1.2l0,0h5.3c0-0.1,0-0.2,0-0.4
					l0,0v-0.4c0-0.5-0.1-1-0.3-1.4c-0.2-0.5-0.4-0.8-0.7-1.2c-0.3-0.3-0.7-0.6-1.1-0.8c-0.4-0.2-0.9-0.3-1.5-0.3s-1,0.1-1.5,0.3
					c-0.4,0.2-0.8,0.5-1.1,0.8c-0.3,0.3-0.6,0.8-0.7,1.2c-0.2,0.5-0.3,1-0.3,1.5c0,0.6,0.1,1.1,0.3,1.6c0.2,0.5,0.4,0.9,0.8,1.2
					c0.3,0.3,0.7,0.6,1.2,0.8C74.2,172.1,74.7,172.2,75.3,172.2z M76.8,167.6h-3.3c0-0.4,0.2-0.8,0.5-1.1c0.3-0.3,0.7-0.4,1.2-0.4
					c0.5,0,0.8,0.1,1.1,0.4C76.6,166.8,76.8,167.1,76.8,167.6L76.8,167.6z M83,172.1v-4.9c0.2-0.3,0.4-0.5,0.7-0.7
					c0.3-0.2,0.6-0.3,1-0.3c0.5,0,0.9,0.2,1.1,0.5c0.3,0.3,0.4,0.7,0.4,1.2l0,0v4.2H88v-4.4c0-0.5-0.1-1-0.2-1.4
					c-0.2-0.4-0.4-0.7-0.6-1c-0.3-0.3-0.6-0.5-0.9-0.6s-0.7-0.2-1.2-0.2c-0.4,0-0.8,0.1-1.2,0.3c-0.4,0.2-0.7,0.4-0.9,0.7l0,0v-0.9
					h-1.8v7.5H83z M93.3,172.2c0.5,0,1-0.1,1.4-0.4c0.4-0.2,0.7-0.5,0.9-0.8l0,0v1h1.7v-11.4h-1.8v4.6c-0.2-0.3-0.5-0.5-0.9-0.6
					c-0.4-0.2-0.8-0.2-1.2-0.2c-0.5,0-1,0.1-1.4,0.3c-0.4,0.2-0.8,0.5-1.1,0.8c-0.3,0.4-0.6,0.8-0.7,1.2c-0.2,0.5-0.3,1-0.3,1.5
					c0,0.5,0.1,1,0.3,1.5c0.2,0.5,0.4,0.9,0.7,1.2c0.3,0.4,0.7,0.6,1.1,0.8C92.3,172.1,92.8,172.2,93.3,172.2z M93.6,170.5
					c-0.3,0-0.5-0.1-0.8-0.2c-0.2-0.1-0.4-0.3-0.6-0.5s-0.3-0.4-0.4-0.7c-0.1-0.3-0.1-0.5-0.1-0.9c0-0.3,0-0.6,0.1-0.9
					c0.1-0.3,0.2-0.5,0.4-0.7c0.2-0.2,0.4-0.3,0.6-0.5c0.2-0.1,0.5-0.2,0.8-0.2c0.6,0,1,0.2,1.4,0.6c0.4,0.4,0.5,0.9,0.5,1.5l0,0
					v0.1c0,0.6-0.2,1.1-0.5,1.5C94.6,170.3,94.1,170.5,93.6,170.5z"/>
				<g id="img" transform="translate(40.500000, 30.570543)">
					<g id="Mask">
						<circle id="path-1_1_" class="st4" cx="41.6" cy="34.4" r="47.1"/>
					</g>
					<defs>
						<filter id="Adobe_OpacityMaskFilter" filterUnits="userSpaceOnUse" x="6.3" y="0.5" width="65.4" height="80.6">
							<feColorMatrix  type="matrix" values="1 0 0 0 0  0 1 0 0 0  0 0 1 0 0  0 0 0 1 0"/>
						</filter>
					</defs>
					<mask maskUnits="userSpaceOnUse" x="6.3" y="0.5" width="65.4" height="80.6" id="mask-2_1_">
						<g class="st5">
							<circle id="path-1_2_" class="st6" cx="41.6" cy="34.4" r="47.1"/>
						</g>
					</mask>
					<g id="Group-24" class="st7">
						<g transform="translate(12.500000, 14.000000)">
							<path id="Fill-1" class="st8" d="M19.8,42.2c-1-4.1,2-5,3.5-6c1.5-1,7-1.6,6.7-3.2c-0.3-1.6,0-10.8,0.9-14.5
								c0.9-3.7,4.5-2.9,7.4-2.9c0,0,1.6,0,4.4,0.1c1.1,0.1,2.4,0.7,3.6,1.7c-0.4-8.2-2-17.9-2-17.9S34.1-0.2,29.9-0.2h-4.1
								c-4.2,0-14.5-0.2-14.5-0.2s-2.6,16.7-2,24.8c0.6,7.7,4,21.6,15.4,22.9C22.5,45.9,20.3,44.1,19.8,42.2"/>
							<path id="Fill-3" class="st9" d="M29.3,47.4c12.7,0,16.4-14.9,17.1-23c0.2-1.9,0.1-4.3,0-6.8c-1.3-1-2.6-1.7-3.6-1.7
								c-2.8-0.1-4.4-0.1-4.4-0.1c-2.9,0-6.6-0.7-7.4,2.9C30,22.2,29.7,31.4,30,33c0.3,1.6-5.3,2.2-6.7,3.2c-1.5,1-4.5,1.9-3.5,6
								c0.5,1.9,2.7,3.7,5,5c0.6,0.1,1.1,0.1,1.7,0.1H29.3z"/>
							<path id="Stroke-5" class="st10" d="M25.5,20.3c0-1.3,1.1-2.4,2.4-2.4c1.3,0,2.4,1.1,2.4,2.4"/>
							<path id="Fill-7" class="st11" d="M39.1,20.4c0,0.9-0.7,1.6-1.6,1.6c-0.9,0-1.6-0.7-1.6-1.6c0-0.9,0.7-1.6,1.6-1.6
								C38.4,18.7,39.1,19.5,39.1,20.4"/>
							<path id="Stroke-9" class="st12" d="M32.9,20.4c0,0,1.5-2.1,4.6-2.1S42,20,42,20"/>
							<g id="Clip-12">
							</g>
							<defs>
								<filter id="Adobe_OpacityMaskFilter_1_" filterUnits="userSpaceOnUse" x="15.4" y="44.8" width="25.1" height="8.9">
									<feColorMatrix  type="matrix" values="1 0 0 0 0  0 1 0 0 0  0 0 1 0 0  0 0 0 1 0"/>
								</filter>
							</defs>
							<mask maskUnits="userSpaceOnUse" x="15.4" y="44.8" width="25.1" height="8.9" id="mask-4_1_">
								<g class="st13">
									<polygon id="path-3_1_" class="st6" points="-6.2,67.1 59.2,67.1 59.2,-13.5 -6.2,-13.5 									"/>
								</g>
							</mask>
							<polygon id="Fill-11" class="st14" points="15.4,53.7 40.6,53.7 40.6,44.8 15.4,44.8 							"/>
							<defs>
								<filter id="Adobe_OpacityMaskFilter_2_" filterUnits="userSpaceOnUse" x="-6.2" y="53.7" width="65.4" height="13.4">
									<feColorMatrix  type="matrix" values="1 0 0 0 0  0 1 0 0 0  0 0 1 0 0  0 0 0 1 0"/>
								</filter>
							</defs>
							<mask maskUnits="userSpaceOnUse" x="-6.2" y="53.7" width="65.4" height="13.4" id="mask-4_2_">
								<g class="st15">
									<polygon id="path-3_2_" class="st6" points="-6.2,67.1 59.2,67.1 59.2,-13.5 -6.2,-13.5 									"/>
								</g>
							</mask>
							<path id="Fill-13" class="st16" d="M59.2,67.1L59.2,67.1c0-7.4-6-13.4-13.4-13.4h-6H13.2h-6c-7.4,0-13.4,6-13.4,13.4H59.2z"
								/>
							<defs>
								<filter id="Adobe_OpacityMaskFilter_3_" filterUnits="userSpaceOnUse" x="13.2" y="48.7" width="14.9" height="14.6">
									<feColorMatrix  type="matrix" values="1 0 0 0 0  0 1 0 0 0  0 0 1 0 0  0 0 0 1 0"/>
								</filter>
							</defs>
							<mask maskUnits="userSpaceOnUse" x="13.2" y="48.7" width="14.9" height="14.6" id="mask-4_3_">
								<g class="st17">
									<polygon id="path-3_3_" class="st6" points="-6.2,67.1 59.2,67.1 59.2,-13.5 -6.2,-13.5 									"/>
								</g>
							</mask>
							<path id="Fill-14" class="st18" d="M28.1,55.8c0,0-8.3,7.8-8.3,7.4c0-0.3-6.6-9.4-6.6-9.4l2.2-5.1L28.1,55.8z"/>
							<defs>
								<filter id="Adobe_OpacityMaskFilter_4_" filterUnits="userSpaceOnUse" x="28" y="48.8" width="14.9" height="14.5">
									<feColorMatrix  type="matrix" values="1 0 0 0 0  0 1 0 0 0  0 0 1 0 0  0 0 0 1 0"/>
								</filter>
							</defs>
							<mask maskUnits="userSpaceOnUse" x="28" y="48.8" width="14.9" height="14.5" id="mask-4_4_">
								<g class="st19">
									<polygon id="path-3_4_" class="st6" points="-6.2,67.1 59.2,67.1 59.2,-13.5 -6.2,-13.5 									"/>
								</g>
							</mask>
							<path id="Fill-15" class="st20" d="M28,55.8c0,0,8.3,7.8,8.3,7.4c0-0.3,6.6-9.4,6.6-9.4l-2.4-5L28,55.8z"/>
							<defs>
								<filter id="Adobe_OpacityMaskFilter_5_" filterUnits="userSpaceOnUse" x="10.6" y="31.7" width="34.6" height="24">
									<feColorMatrix  type="matrix" values="1 0 0 0 0  0 1 0 0 0  0 0 1 0 0  0 0 0 1 0"/>
								</filter>
							</defs>
							<mask maskUnits="userSpaceOnUse" x="10.6" y="31.7" width="34.6" height="24" id="mask-4_5_">
								<g class="st21">
									<polygon id="path-3_5_" class="st6" points="-6.2,67.1 59.2,67.1 59.2,-13.5 -6.2,-13.5 									"/>
								</g>
							</mask>
							<path id="Fill-16" class="st22" d="M30.6,43.3c0,0-0.7-2.7-2.5-2.7h-0.4c-1.8,0-2.5,2.7-2.5,2.7s-3.9,0.6-3.9-2.6
								c0-3.2,3.9-3.5,6.4-3.5h0.4c2.5,0,6.4,0.3,6.4,3.5C34.6,43.9,30.6,43.3,30.6,43.3 M35.1,36.6c-0.9-1.8-2.9-2.9-6-2.9h-2.3
								c-3.1,0-5.1,1.2-6,2.9c-0.9,1.8-7.4,0.7-10.1-4.7c0.3,5.1,3.6,13.3,5.5,15.3c1.9,2,4.2,8.5,10.7,8.5h2.3
								c6.4,0,8.8-6.4,10.7-8.5c1.9-2,5.5-10.7,5.5-15.5C42.4,37.9,35.9,38.3,35.1,36.6"/>
							<defs>
								<filter id="Adobe_OpacityMaskFilter_6_" filterUnits="userSpaceOnUse" x="10.8" y="15.6" width="14" height="7.8">
									<feColorMatrix  type="matrix" values="1 0 0 0 0  0 1 0 0 0  0 0 1 0 0  0 0 0 1 0"/>
								</filter>
							</defs>
							<mask maskUnits="userSpaceOnUse" x="10.8" y="15.6" width="14" height="7.8" id="mask-4_6_">
								<g class="st23">
									<polygon id="path-3_6_" class="st6" points="-6.2,67.1 59.2,67.1 59.2,-13.5 -6.2,-13.5 									"/>
								</g>
							</mask>
							<path id="Fill-17" class="st24" d="M17.2,16c-3.3,0.7-5.7,1-6.1,2.5c-0.4,1.5-0.4,4.7,2.5,4.8c2.9,0.1,7.6,0.3,8.8-0.3
								c1.2-0.6,3.1-3.8,2.5-5.1C24.2,16.5,21.9,14.9,17.2,16"/>
							<defs>
								<filter id="Adobe_OpacityMaskFilter_7_" filterUnits="userSpaceOnUse" x="15.8" y="18.7" width="3.3" height="3.3">
									<feColorMatrix  type="matrix" values="1 0 0 0 0  0 1 0 0 0  0 0 1 0 0  0 0 0 1 0"/>
								</filter>
							</defs>
							<mask maskUnits="userSpaceOnUse" x="15.8" y="18.7" width="3.3" height="3.3" id="mask-4_7_">
								<g class="st25">
									<polygon id="path-3_7_" class="st6" points="-6.2,67.1 59.2,67.1 59.2,-13.5 -6.2,-13.5 									"/>
								</g>
							</mask>
							<path id="Fill-18" class="st26" d="M19.1,20.4c0,0.9-0.7,1.6-1.6,1.6c-0.9,0-1.6-0.7-1.6-1.6c0-0.9,0.7-1.6,1.6-1.6
								C18.4,18.7,19.1,19.5,19.1,20.4"/>
							<defs>
								<filter id="Adobe_OpacityMaskFilter_8_" filterUnits="userSpaceOnUse" x="12" y="17.3" width="10.7" height="3.7">
									<feColorMatrix  type="matrix" values="1 0 0 0 0  0 1 0 0 0  0 0 1 0 0  0 0 0 1 0"/>
								</filter>
							</defs>
							<mask maskUnits="userSpaceOnUse" x="12" y="17.3" width="10.7" height="3.7" id="mask-4_8_">
								<g class="st27">
									<polygon id="path-3_8_" class="st6" points="-6.2,67.1 59.2,67.1 59.2,-13.5 -6.2,-13.5 									"/>
								</g>
							</mask>
							<path id="Stroke-19" class="st28" d="M12.9,20.4c0,0,1.5-2.1,4.6-2.1c3.1,0,4.5,1.8,4.5,1.8"/>
							<defs>
								<filter id="Adobe_OpacityMaskFilter_9_" filterUnits="userSpaceOnUse" x="29.3" y="14.5" width="17.8" height="11.3">
									<feColorMatrix  type="matrix" values="1 0 0 0 0  0 1 0 0 0  0 0 1 0 0  0 0 0 1 0"/>
								</filter>
							</defs>
							<mask maskUnits="userSpaceOnUse" x="29.3" y="14.5" width="17.8" height="11.3" id="mask-4_9_">
								<g class="st29">
									<polygon id="path-3_9_" class="st6" points="-6.2,67.1 59.2,67.1 59.2,-13.5 -6.2,-13.5 									"/>
								</g>
							</mask>
							<path id="Stroke-20" class="st30" d="M34.9,24.7h6.6c2.5,0,4.6-2.1,4.6-4.6s-2.1-4.6-4.6-4.6h-6.6c-2.5,0-4.6,2.1-4.6,4.6
								S32.4,24.7,34.9,24.7z"/>
							<defs>
								<filter id="Adobe_OpacityMaskFilter_10_" filterUnits="userSpaceOnUse" x="13.2" y="53.8" width="29.7" height="11.8">
									<feColorMatrix  type="matrix" values="1 0 0 0 0  0 1 0 0 0  0 0 1 0 0  0 0 0 1 0"/>
								</filter>
							</defs>
							<mask maskUnits="userSpaceOnUse" x="13.2" y="53.8" width="29.7" height="11.8" id="mask-4_10_">
								<g class="st31">
									<polygon id="path-3_10_" class="st6" points="-6.2,67.1 59.2,67.1 59.2,-13.5 -6.2,-13.5 									"/>
								</g>
							</mask>
							<polygon id="Fill-21" class="st32" points="13.2,53.8 19.6,65.7 28.1,57 36.8,65.4 42.9,53.8 36.3,63.2 28.1,55.8 19.8,63.2 
															"/>
							<defs>
								<filter id="Adobe_OpacityMaskFilter_11_" filterUnits="userSpaceOnUse" x="3.8" y="-13.5" width="47" height="35.6">
									<feColorMatrix  type="matrix" values="1 0 0 0 0  0 1 0 0 0  0 0 1 0 0  0 0 0 1 0"/>
								</filter>
							</defs>
							<mask maskUnits="userSpaceOnUse" x="3.8" y="-13.5" width="47" height="35.6" id="mask-4_11_">
								<g class="st33">
									<polygon id="path-3_11_" class="st6" points="-6.2,67.1 59.2,67.1 59.2,-13.5 -6.2,-13.5 									"/>
								</g>
							</mask>
							<path id="Fill-22" class="st34" d="M15.4,0.9c2-1,4.8-1.3,6.9-0.1c2,1.2,7,0.7,8.8,0.1c1.8-0.6,7.2,0,7.2,0s5.1,1.2,6.3,4.1
								c1.3,3.4,1.5,7.4,1.5,7.4l0.9,8.6c0,0,4.2-10.4,3.9-16.4c-0.1-3,0.7-11.1-3.7-12c-2.4-0.5-6.1-1.2-8-3.5
								c-1.9-2.3-8-3.1-9.6-2.6c-1.6,0.4-4.5-0.6-7.3,0.3c-2.8,0.9-6.3,3.7-6.3,3.7s-4.8,0.1-7.6,2c-2.8,1.9-5.4,7-3.9,10.2
								C5.8,6,5.2,6.9,4,9.5c-1.2,2.6,1.9,6.1,2.3,7.4c0.4,1.3,1,4.2,2.9,5.1C8.6,11,12.4,9.2,11.5,6c-0.9-3.2-0.3-5.1,0.9-4.8
								S15.4,0.9,15.4,0.9"/>
							<defs>
								<filter id="Adobe_OpacityMaskFilter_12_" filterUnits="userSpaceOnUse" x="8.7" y="14.5" width="17.8" height="11.3">
									<feColorMatrix  type="matrix" values="1 0 0 0 0  0 1 0 0 0  0 0 1 0 0  0 0 0 1 0"/>
								</filter>
							</defs>
							<mask maskUnits="userSpaceOnUse" x="8.7" y="14.5" width="17.8" height="11.3" id="mask-4_12_">
								<g class="st35">
									<polygon id="path-3_12_" class="st6" points="-6.2,67.1 59.2,67.1 59.2,-13.5 -6.2,-13.5 									"/>
								</g>
							</mask>
							<path id="Stroke-23" class="st36" d="M14.3,24.7h6.6c2.5,0,4.6-2.1,4.6-4.6s-2.1-4.6-4.6-4.6h-6.6c-2.5,0-4.6,2.1-4.6,4.6
								S11.8,24.7,14.3,24.7z"/>
						</g>
					</g>
				</g>
			</g>
			<g id="thumb_equipe_1_" transform="translate(270.642857, 0.000000)">
				<rect id="Rectangle-Copy-3" x="-15.9" y="-0.5" class="st2" width="170.4" height="210.8"/>
				<path id="DéveloppeuseBack" class="st3" d="M14.9,156.2c0.8,0,1.6-0.1,2.2-0.4c0.6-0.3,1.1-0.7,1.5-1.2
					c0.4-0.5,0.7-1.1,0.9-1.8c0.2-0.7,0.3-1.4,0.3-2.1s-0.1-1.5-0.3-2.1c-0.2-0.7-0.5-1.3-0.9-1.8c-0.4-0.5-0.9-0.9-1.5-1.2
					c-0.6-0.3-1.3-0.4-2.2-0.4l0,0H12v11.1H14.9z M14.9,154.4h-1v-7.5h1c0.5,0,0.9,0.1,1.3,0.3c0.4,0.2,0.7,0.5,0.9,0.8
					c0.2,0.3,0.4,0.7,0.5,1.2c0.1,0.5,0.2,0.9,0.2,1.4s-0.1,1-0.2,1.4c-0.1,0.5-0.3,0.8-0.5,1.2c-0.2,0.3-0.5,0.6-0.9,0.8
					C15.9,154.3,15.4,154.4,14.9,154.4L14.9,154.4z M25.2,147.6l1.7-2.8h-2l-1,2.8H25.2z M25.1,156.3c0.6,0,1.2-0.1,1.8-0.4
					c0.6-0.3,1.1-0.7,1.5-1.3l0,0l-1.6-0.8c-0.2,0.3-0.5,0.5-0.8,0.6c-0.3,0.1-0.6,0.2-1,0.2c-0.5,0-1-0.2-1.3-0.5
					c-0.3-0.3-0.5-0.7-0.6-1.2l0,0h5.3c0-0.1,0-0.2,0-0.4l0,0v-0.4c0-0.5-0.1-1-0.3-1.4c-0.2-0.5-0.4-0.8-0.7-1.2
					c-0.3-0.3-0.7-0.6-1.1-0.8c-0.4-0.2-0.9-0.3-1.5-0.3s-1,0.1-1.5,0.3c-0.4,0.2-0.8,0.5-1.1,0.8c-0.3,0.3-0.6,0.8-0.7,1.2
					c-0.2,0.5-0.3,1-0.3,1.5c0,0.6,0.1,1.1,0.3,1.6c0.2,0.5,0.4,0.9,0.8,1.2c0.3,0.3,0.7,0.6,1.2,0.8
					C24,156.2,24.5,156.3,25.1,156.3z M26.5,151.7h-3.3c0-0.4,0.2-0.8,0.5-1.1c0.3-0.3,0.7-0.4,1.2-0.4c0.5,0,0.8,0.1,1.1,0.4
					C26.4,150.9,26.5,151.2,26.5,151.7L26.5,151.7z M35.3,156.2l2.6-7.5H36l-1.8,5.5l-1.7-5.5h-2l2.6,7.5H35.3z M43.7,156.3
					c0.6,0,1.2-0.1,1.8-0.4c0.6-0.3,1.1-0.7,1.5-1.3l0,0l-1.6-0.8c-0.2,0.3-0.5,0.5-0.8,0.6c-0.3,0.1-0.6,0.2-1,0.2
					c-0.5,0-1-0.2-1.3-0.5c-0.3-0.3-0.5-0.7-0.6-1.2l0,0h5.3c0-0.1,0-0.2,0-0.4l0,0v-0.4c0-0.5-0.1-1-0.3-1.4
					c-0.2-0.5-0.4-0.8-0.7-1.2c-0.3-0.3-0.7-0.6-1.1-0.8c-0.4-0.2-0.9-0.3-1.5-0.3s-1,0.1-1.5,0.3c-0.4,0.2-0.8,0.5-1.1,0.8
					c-0.3,0.3-0.6,0.8-0.7,1.2c-0.2,0.5-0.3,1-0.3,1.5c0,0.6,0.1,1.1,0.3,1.6c0.2,0.5,0.4,0.9,0.8,1.2c0.3,0.3,0.7,0.6,1.2,0.8
					C42.7,156.2,43.2,156.3,43.7,156.3z M45.2,151.7h-3.3c0-0.4,0.2-0.8,0.5-1.1c0.3-0.3,0.7-0.4,1.2-0.4c0.5,0,0.8,0.1,1.1,0.4
					C45,150.9,45.2,151.2,45.2,151.7L45.2,151.7z M56.9,156.2v-1.6h-3.1v-9.7h-4.3v1.6H52v8.1h-2.6v1.6H56.9z M62.3,156.3
					c0.6,0,1.1-0.1,1.5-0.3c0.5-0.2,0.9-0.5,1.2-0.8c0.3-0.4,0.6-0.8,0.8-1.2c0.2-0.5,0.3-1,0.3-1.5c0-0.5-0.1-1-0.3-1.5
					c-0.2-0.5-0.4-0.9-0.8-1.2c-0.3-0.4-0.7-0.6-1.2-0.8c-0.5-0.2-1-0.3-1.5-0.3c-0.6,0-1.1,0.1-1.6,0.3c-0.5,0.2-0.9,0.5-1.2,0.8
					c-0.3,0.4-0.6,0.8-0.8,1.2c-0.2,0.5-0.3,1-0.3,1.5c0,0.5,0.1,1,0.3,1.5s0.4,0.9,0.8,1.2c0.3,0.4,0.7,0.6,1.2,0.8
					C61.2,156.2,61.7,156.3,62.3,156.3z M62.3,154.6c-0.3,0-0.6-0.1-0.8-0.2c-0.2-0.1-0.4-0.3-0.6-0.5c-0.2-0.2-0.3-0.4-0.4-0.7
					c-0.1-0.3-0.1-0.5-0.1-0.8c0-0.3,0-0.6,0.1-0.8c0.1-0.3,0.2-0.5,0.4-0.7c0.2-0.2,0.4-0.3,0.6-0.5c0.2-0.1,0.5-0.2,0.8-0.2
					c0.3,0,0.6,0.1,0.8,0.2c0.2,0.1,0.4,0.3,0.6,0.5c0.2,0.2,0.3,0.4,0.4,0.7c0.1,0.3,0.1,0.5,0.1,0.8c0,0.3,0,0.6-0.1,0.8
					c-0.1,0.3-0.2,0.5-0.4,0.7c-0.2,0.2-0.4,0.4-0.6,0.5C62.8,154.5,62.5,154.6,62.3,154.6z M69.9,159.8v-4.5
					c0.2,0.3,0.5,0.6,0.9,0.7c0.4,0.2,0.8,0.3,1.2,0.3c0.5,0,1-0.1,1.4-0.3c0.4-0.2,0.8-0.5,1.1-0.9c0.3-0.4,0.5-0.8,0.7-1.3
					c0.2-0.5,0.2-1,0.2-1.5c0-0.5-0.1-1-0.2-1.5s-0.4-0.9-0.7-1.2c-0.3-0.3-0.7-0.6-1.1-0.8c-0.4-0.2-0.9-0.3-1.4-0.3
					c-0.5,0-0.9,0.1-1.2,0.3c-0.4,0.2-0.7,0.4-0.9,0.8l0,0v-1h-1.8v11.2H69.9z M71.8,154.6c-0.3,0-0.5-0.1-0.8-0.2
					c-0.2-0.1-0.4-0.3-0.6-0.4c-0.2-0.2-0.3-0.4-0.4-0.7c-0.1-0.3-0.1-0.5-0.1-0.8l0,0v-0.1c0-0.3,0-0.5,0.1-0.8
					c0.1-0.3,0.2-0.5,0.4-0.7c0.2-0.2,0.4-0.4,0.6-0.5s0.5-0.2,0.8-0.2s0.5,0.1,0.8,0.2c0.2,0.1,0.4,0.3,0.6,0.5
					c0.2,0.2,0.3,0.4,0.4,0.7s0.1,0.5,0.1,0.8s0,0.6-0.1,0.8s-0.2,0.5-0.4,0.7c-0.2,0.2-0.4,0.4-0.6,0.5
					C72.4,154.5,72.1,154.6,71.8,154.6z M79.3,159.8v-4.5c0.2,0.3,0.5,0.6,0.9,0.7c0.4,0.2,0.8,0.3,1.2,0.3c0.5,0,1-0.1,1.4-0.3
					c0.4-0.2,0.8-0.5,1.1-0.9c0.3-0.4,0.5-0.8,0.7-1.3c0.2-0.5,0.2-1,0.2-1.5c0-0.5-0.1-1-0.2-1.5c-0.2-0.5-0.4-0.9-0.7-1.2
					c-0.3-0.3-0.7-0.6-1.1-0.8c-0.4-0.2-0.9-0.3-1.4-0.3c-0.5,0-0.9,0.1-1.2,0.3c-0.4,0.2-0.7,0.4-0.9,0.8l0,0v-1h-1.8v11.2H79.3z
					 M81.2,154.6c-0.3,0-0.5-0.1-0.8-0.2c-0.2-0.1-0.4-0.3-0.6-0.4c-0.2-0.2-0.3-0.4-0.4-0.7s-0.1-0.5-0.1-0.8l0,0v-0.1
					c0-0.3,0-0.5,0.1-0.8c0.1-0.3,0.2-0.5,0.4-0.7c0.2-0.2,0.4-0.4,0.6-0.5c0.2-0.1,0.5-0.2,0.8-0.2s0.5,0.1,0.8,0.2
					c0.2,0.1,0.4,0.3,0.6,0.5c0.2,0.2,0.3,0.4,0.4,0.7c0.1,0.3,0.1,0.5,0.1,0.8s0,0.6-0.1,0.8c-0.1,0.3-0.2,0.5-0.4,0.7
					c-0.2,0.2-0.4,0.4-0.6,0.5C81.7,154.5,81.5,154.6,81.2,154.6z M90.4,156.3c0.6,0,1.2-0.1,1.8-0.4c0.6-0.3,1.1-0.7,1.5-1.3l0,0
					l-1.6-0.8c-0.2,0.3-0.5,0.5-0.8,0.6c-0.3,0.1-0.6,0.2-1,0.2c-0.5,0-1-0.2-1.3-0.5c-0.3-0.3-0.5-0.7-0.6-1.2l0,0h5.3
					c0-0.1,0-0.2,0-0.4l0,0v-0.4c0-0.5-0.1-1-0.3-1.4c-0.2-0.5-0.4-0.8-0.7-1.2c-0.3-0.3-0.7-0.6-1.1-0.8c-0.4-0.2-0.9-0.3-1.5-0.3
					c-0.5,0-1,0.1-1.5,0.3c-0.4,0.2-0.8,0.5-1.1,0.8c-0.3,0.3-0.6,0.8-0.7,1.2c-0.2,0.5-0.3,1-0.3,1.5c0,0.6,0.1,1.1,0.3,1.6
					c0.2,0.5,0.4,0.9,0.8,1.2c0.3,0.3,0.7,0.6,1.2,0.8C89.3,156.2,89.9,156.3,90.4,156.3z M91.9,151.7h-3.3c0-0.4,0.2-0.8,0.5-1.1
					c0.3-0.3,0.7-0.4,1.2-0.4c0.5,0,0.8,0.1,1.1,0.4C91.7,150.9,91.9,151.2,91.9,151.7L91.9,151.7z M99,156.3c0.3,0,0.6,0,0.8-0.1
					c0.2-0.1,0.5-0.2,0.6-0.3c0.2-0.1,0.3-0.2,0.5-0.4c0.1-0.1,0.2-0.3,0.3-0.4l0,0v1h1.7v-7.5h-1.8v4c0,0.6-0.2,1.1-0.5,1.5
					c-0.3,0.3-0.7,0.5-1.1,0.5c-1,0-1.5-0.6-1.5-1.8l0,0v-4.1h-1.8v4.2c0,1.1,0.3,1.9,0.8,2.5S98.1,156.3,99,156.3z M108.9,156.3
					c0.5,0,1-0.1,1.4-0.2c0.4-0.1,0.7-0.3,1-0.5c0.3-0.2,0.5-0.5,0.6-0.8s0.2-0.6,0.2-0.9c0-0.6-0.2-1.1-0.6-1.4
					c-0.4-0.3-0.9-0.6-1.5-0.7l0,0l-1.5-0.4c-0.2-0.1-0.4-0.1-0.6-0.2s-0.2-0.2-0.2-0.4c0-0.2,0.1-0.4,0.3-0.5
					c0.2-0.1,0.5-0.2,0.9-0.2c0.4,0,0.7,0.1,1.1,0.2c0.4,0.1,0.7,0.3,1,0.5l0,0l1-1.2c-0.9-0.7-1.9-1.1-3.2-1.1
					c-0.4,0-0.8,0.1-1.2,0.2c-0.4,0.1-0.7,0.3-0.9,0.5c-0.3,0.2-0.5,0.4-0.6,0.7c-0.1,0.3-0.2,0.6-0.2,0.9c0,0.5,0.2,1,0.5,1.3
					c0.3,0.3,0.9,0.6,1.6,0.8l0,0l1.7,0.5c0.4,0.1,0.6,0.3,0.6,0.6c0,0.3-0.1,0.4-0.4,0.6c-0.3,0.1-0.6,0.2-1,0.2
					c-0.4,0-0.8-0.1-1.2-0.2c-0.4-0.2-0.7-0.4-0.9-0.7l0,0l-1.2,1.3C106.4,155.9,107.5,156.3,108.9,156.3z M118.4,156.3
					c0.6,0,1.2-0.1,1.8-0.4c0.6-0.3,1.1-0.7,1.5-1.3l0,0l-1.6-0.8c-0.2,0.3-0.5,0.5-0.8,0.6c-0.3,0.1-0.6,0.2-1,0.2
					c-0.5,0-1-0.2-1.3-0.5c-0.3-0.3-0.5-0.7-0.6-1.2l0,0h5.3c0-0.1,0-0.2,0-0.4l0,0v-0.4c0-0.5-0.1-1-0.3-1.4
					c-0.2-0.5-0.4-0.8-0.7-1.2c-0.3-0.3-0.7-0.6-1.1-0.8c-0.4-0.2-0.9-0.3-1.5-0.3c-0.5,0-1,0.1-1.5,0.3c-0.4,0.2-0.8,0.5-1.1,0.8
					c-0.3,0.3-0.6,0.8-0.7,1.2c-0.2,0.5-0.3,1-0.3,1.5c0,0.6,0.1,1.1,0.3,1.6c0.2,0.5,0.4,0.9,0.8,1.2c0.3,0.3,0.7,0.6,1.2,0.8
					C117.3,156.2,117.9,156.3,118.4,156.3z M119.9,151.7h-3.3c0-0.4,0.2-0.8,0.5-1.1c0.3-0.3,0.7-0.4,1.2-0.4c0.5,0,0.8,0.1,1.1,0.4
					C119.7,150.9,119.9,151.2,119.9,151.7L119.9,151.7z M16.2,182.5c0.4,0,0.9-0.1,1.3-0.2c0.4-0.1,0.8-0.3,1.1-0.6
					c0.3-0.3,0.6-0.6,0.8-1c0.2-0.4,0.3-0.9,0.3-1.4c0-0.3,0-0.6-0.1-0.9c-0.1-0.3-0.2-0.5-0.3-0.8s-0.3-0.4-0.5-0.6
					c-0.2-0.2-0.4-0.3-0.6-0.4c0.3-0.2,0.6-0.6,0.8-0.9c0.2-0.4,0.3-0.8,0.3-1.3c0-0.4-0.1-0.8-0.2-1.2c-0.2-0.4-0.4-0.7-0.7-0.9
					c-0.3-0.3-0.6-0.5-1.1-0.6c-0.4-0.1-0.9-0.2-1.4-0.2l0,0H12v11.1H16.2z M15.8,176H14v-2.8h1.7c0.5,0,0.9,0.1,1.2,0.4
					c0.3,0.2,0.4,0.6,0.4,1c0,0.4-0.1,0.7-0.4,1C16.7,175.8,16.3,176,15.8,176L15.8,176z M16,180.8h-2v-3.2h1.9
					c0.6,0,1.1,0.1,1.4,0.4c0.3,0.3,0.5,0.7,0.5,1.2c0,0.5-0.2,0.9-0.5,1.2S16.5,180.8,16,180.8L16,180.8z M24.4,182.7
					c0.3,0,0.6,0,0.8-0.1c0.3-0.1,0.5-0.2,0.7-0.3s0.4-0.2,0.5-0.4c0.2-0.1,0.3-0.3,0.3-0.4l0,0v1h1.7V175h-1.8v0.9
					c-0.3-0.3-0.6-0.5-1-0.7c-0.4-0.2-0.8-0.3-1.3-0.3c-0.5,0-1,0.1-1.4,0.3c-0.4,0.2-0.8,0.5-1.1,0.8c-0.3,0.3-0.6,0.8-0.8,1.2
					c-0.2,0.5-0.3,1-0.3,1.5s0.1,1.1,0.3,1.5c0.2,0.5,0.4,0.9,0.8,1.2c0.3,0.3,0.7,0.6,1.1,0.8C23.5,182.6,23.9,182.7,24.4,182.7z
					 M24.7,180.9c-0.3,0-0.5-0.1-0.8-0.2c-0.2-0.1-0.5-0.3-0.6-0.4s-0.3-0.4-0.4-0.7c-0.1-0.3-0.2-0.5-0.2-0.9s0.1-0.6,0.2-0.9
					c0.1-0.3,0.2-0.5,0.4-0.7s0.4-0.3,0.6-0.5c0.2-0.1,0.5-0.2,0.8-0.2c0.3,0,0.6,0.1,0.8,0.2c0.2,0.1,0.4,0.3,0.6,0.4
					c0.2,0.2,0.3,0.4,0.4,0.7c0.1,0.3,0.2,0.5,0.2,0.8l0,0v0.1c0,0.3-0.1,0.6-0.2,0.8c-0.1,0.3-0.2,0.5-0.4,0.7
					c-0.2,0.2-0.4,0.3-0.6,0.4C25.3,180.9,25,180.9,24.7,180.9z M34.3,182.7c0.7,0,1.4-0.1,2-0.4c0.6-0.3,1.1-0.7,1.5-1.3l0,0
					l-1.5-1c-0.2,0.3-0.5,0.6-0.9,0.8c-0.3,0.2-0.7,0.3-1.2,0.3c-0.3,0-0.6-0.1-0.8-0.2c-0.2-0.1-0.4-0.3-0.6-0.5
					c-0.2-0.2-0.3-0.4-0.4-0.7c-0.1-0.3-0.1-0.5-0.1-0.8c0-0.3,0-0.6,0.1-0.8c0.1-0.3,0.2-0.5,0.4-0.7c0.2-0.2,0.4-0.4,0.6-0.5
					c0.2-0.1,0.5-0.2,0.8-0.2c0.4,0,0.7,0.1,1,0.3c0.3,0.2,0.6,0.5,0.7,0.9l0,0l1.7-0.6c-0.2-0.4-0.4-0.8-0.6-1s-0.5-0.5-0.8-0.7
					c-0.3-0.2-0.6-0.4-1-0.5s-0.7-0.2-1.1-0.2c-0.6,0-1.1,0.1-1.6,0.3c-0.5,0.2-0.9,0.5-1.2,0.9c-0.3,0.4-0.6,0.8-0.8,1.2
					c-0.2,0.5-0.3,1-0.3,1.5c0,0.5,0.1,1,0.3,1.5c0.2,0.5,0.4,0.9,0.8,1.2c0.3,0.3,0.7,0.6,1.2,0.8
					C33.2,182.6,33.7,182.7,34.3,182.7z M42,182.5v-3h0.8l2.6,3h2.3l-3.4-3.8l3.1-3.7h-2.3l-2.5,3H42v-6.8h-1.8v11.4H42z"/>
				<g id="img_1_" transform="translate(36.000000, 30.570543)">
					<g id="Mask_1_">
						<circle id="path-5_1_" class="st4" cx="29" cy="44.8" r="47.1"/>
					</g>
					<defs>
						<filter id="Adobe_OpacityMaskFilter_13_" filterUnits="userSpaceOnUse" x="-8.5" y="12.5" width="74.6" height="79.2">
							<feColorMatrix  type="matrix" values="1 0 0 0 0  0 1 0 0 0  0 0 1 0 0  0 0 0 1 0"/>
						</filter>
					</defs>
					<mask maskUnits="userSpaceOnUse" x="-8.5" y="12.5" width="74.6" height="79.2" id="mask-6_1_">
						<g class="st37">
							<circle id="path-5_2_" class="st6" cx="29" cy="44.8" r="47.1"/>
						</g>
					</mask>
					<g id="Group-30" class="st38">
						<g transform="translate(10.156250, 15.000000)">
							<g id="Group-3" transform="translate(0.000000, 0.532667)">
								<g id="Clip-2">
								</g>
								<defs>
									<filter id="Adobe_OpacityMaskFilter_14_" filterUnits="userSpaceOnUse" x="-18.6" y="-3" width="74.6" height="57.3">
										<feColorMatrix  type="matrix" values="1 0 0 0 0  0 1 0 0 0  0 0 1 0 0  0 0 0 1 0"/>
									</filter>
								</defs>
								<mask maskUnits="userSpaceOnUse" x="-18.6" y="-3" width="74.6" height="57.3" id="mask-8_1_">
									<g class="st39">
										<polygon id="path-7_1_" class="st6" points="-18.6,-3 55.9,-3 55.9,54.3 -18.6,54.3 										"/>
									</g>
								</mask>
								<path id="Fill-1_1_" class="st40" d="M10.8,54.1c0,0-3.8,0.2-7.7-0.6c-3.8-0.8-1.3-2.1-2.7-3.7c-1.3-1.5-5.6,0-10.2-1.3
									c-4.6-1.3-1.5-1.7-2.5-4.4c-1-2.7-4.2-0.6-6-3.7c-1.7-3.1,1.7-3.3,3.5-4.8c1.7-1.5-2.5-5.2-1.9-7.1c0.6-1.9,4.2-3.7,5-6.7
									c0.8-3.1,0.8-4.4,3.3-5.6c2.5-1.2,3.6-2.9,4.6-5.2c1-2.3,1.7-4.6,3.8-5.2c2.1-0.6,4.2-1.3,5.2-3.5c1-2.1,1.7-2.7,4.4-3.5
									c2.7-0.8,7.9-0.4,10-1.5s10.2,0.4,11,2.1c0,0,4.6-0.6,5.8,2.5c1.2,3.1,1.5,5.6,3.1,6.5c1.5,1,3.1,1.9,3.1,3.6
									s1.2,4.4,3.5,5.2c2.3,0.8,4.2,2.9,5.8,5.6c1.5,2.7-0.2,5.6,2.3,6.1c2.5,0.6-0.6,1.9-0.4,4.4c0.2,2.5,1.3,2.5,2.1,4.2
									c0.8,1.7-1.7,1.5-1.5,4.4c0.2,2.9,1.2,2.3-2.3,5c-3.5,2.7-10.4-1-10.4,1.3c0,2.3,0.4,3.3-3.1,3.8
									c-3.5,0.6-11.1,1.9-11.1,1.9L10.8,54.1z"/>
							</g>
							<path id="Fill-4" class="st8" d="M28.6,76.7l6.7-16.6c-0.9-0.2-1.7-0.3-2.7-0.3h-6.4l-7.6-7l2.5-4h-9.8v11H5
								c-0.4,0-0.7,0-1.1,0.1l7.2,16.8H28.6z"/>
							<polygon id="Stroke-6" class="st41" points="26.3,48.8 26.1,48.8 26.3,48.9 							"/>
							<path id="Fill-8" class="st42" d="M47,76.7v-2.5c0-7-5-12.9-11.7-14.1l-6.7,16.6H47z"/>
							<path id="Fill-10" class="st42" d="M-9.4,74.2v2.5h20.5L4,59.9C-3.5,60.4-9.4,66.6-9.4,74.2"/>
							<polygon id="Fill-12" class="st43" points="26.3,59.8 26.3,48.9 26.1,48.8 21.2,48.8 18.7,52.9 							"/>
							<path id="Fill-14_1_" class="st8" d="M19.3,42.7l1.9-0.4c1.9-0.4,1-8.6,1-11.9c0-3.3,1.8-3.8,4-4.6c2.1-0.8,6.1-0.6,9.5-0.2
								c-1.4-1.3-2.9-3.7-2.9-7.4c-3.7,4.9-6.3,6.6-17,7.2C5.1,26,1,27.1,1,27.1S0.6,46.3,12.2,51.5C16.2,48.5,19.3,42.7,19.3,42.7"
								/>
							<path id="Fill-16_1_" class="st9" d="M37.7,27c0,0-0.9-0.4-2-1.4c-3.4-0.4-7.4-0.6-9.5,0.2c-2.3,0.8-4,1.3-4,4.6
								c0,3.3,1,11.5-1,11.9l-1.9,0.4c0,0-3.1,5.8-7.1,8.8c1.8,0.8,4,1.3,6.5,1.3C36.8,52.9,37.7,27,37.7,27"/>
							<path id="Fill-18_1_" class="st8" d="M3.4,26.7c0,0,10.5-1.2,12.2-1.2c1.7,0,1.4,6.4-5.7,7.2C2.8,33.5,3.4,26.7,3.4,26.7"/>
							<path id="Fill-20" class="st11" d="M28.8,29.9c0,0.8-0.7,1.5-1.5,1.5c-0.8,0-1.5-0.7-1.5-1.5c0-0.8,0.7-1.5,1.5-1.5
								C28.1,28.5,28.8,29.1,28.8,29.9"/>
							<path id="Fill-22_1_" class="st11" d="M11.3,29.9c0,0.8-0.7,1.5-1.5,1.5c-0.8,0-1.5-0.7-1.5-1.5c0-0.8,0.7-1.5,1.5-1.5
								C10.7,28.5,11.3,29.1,11.3,29.9"/>
							<path id="Stroke-24" class="st44" d="M5.8,29.9c0,0,1.4-1.9,4.2-1.9c2.8,0,4.1,1.6,4.1,1.6"/>
							<path id="Stroke-26" class="st44" d="M23.1,29.9c0,0,1.4-1.9,4.2-1.9c2.8,0,4.1,1.6,4.1,1.6"/>
							<path id="Stroke-28" class="st44" d="M12.2,44.2c0,0,5.8,3.2,12.9-0.1"/>
						</g>
					</g>
				</g>
			</g>
			<g id="thumb_equipe_2_" transform="translate(51.642857, 428.584931)">
				<rect id="Rectangle-Copy-5" x="-3" y="-25.7" class="st2" width="170.4" height="210.8"/>
				<path id="Intégratrice" class="st3" d="M31.9,131v-1.7h-2.5v-7.6h2.4v-1.7h-6.7v1.7h2.4v7.6H25v1.7H31.9z M36.3,131V126
					c0.2-0.3,0.4-0.5,0.7-0.7c0.3-0.2,0.6-0.3,1-0.3c0.5,0,0.9,0.2,1.1,0.5c0.3,0.3,0.4,0.7,0.4,1.2l0,0v4.2h1.8v-4.4
					c0-0.5-0.1-1-0.2-1.4c-0.2-0.4-0.4-0.7-0.6-1c-0.3-0.3-0.6-0.5-0.9-0.6c-0.4-0.1-0.7-0.2-1.2-0.2c-0.4,0-0.8,0.1-1.2,0.3
					s-0.7,0.4-0.9,0.7l0,0v-0.9h-1.8v7.5H36.3z M48,131.1c0.4,0,0.8,0,1.1-0.1c0.3-0.1,0.6-0.2,0.8-0.4c0.2-0.2,0.4-0.3,0.6-0.5
					c0.2-0.2,0.3-0.3,0.4-0.5l0,0l-1.3-1.1c-0.1,0.2-0.3,0.4-0.6,0.6c-0.3,0.2-0.6,0.3-0.9,0.3c-0.4,0-0.7-0.1-0.9-0.4
					c-0.2-0.3-0.4-0.7-0.4-1.2l0,0V125h3.3v-1.6h-3.3v-2.1h-1.6l-0.2,2.1h-1.9v1.6H45v2.8c0,1,0.3,1.8,0.8,2.4S47,131.1,48,131.1z
					 M56.8,122.4l1.7-2.8h-2l-1,2.8H56.8z M56.6,131.1c0.6,0,1.2-0.1,1.8-0.4c0.6-0.3,1.1-0.7,1.5-1.3l0,0l-1.6-0.8
					c-0.2,0.3-0.5,0.5-0.8,0.6c-0.3,0.1-0.6,0.2-1,0.2c-0.5,0-1-0.2-1.3-0.5c-0.3-0.3-0.5-0.7-0.6-1.2l0,0H60c0-0.1,0-0.2,0-0.4l0,0
					v-0.4c0-0.5-0.1-1-0.3-1.4c-0.2-0.5-0.4-0.8-0.7-1.2c-0.3-0.3-0.7-0.6-1.1-0.8c-0.4-0.2-0.9-0.3-1.5-0.3s-1,0.1-1.5,0.3
					c-0.4,0.2-0.8,0.5-1.1,0.8c-0.3,0.3-0.6,0.8-0.7,1.2c-0.2,0.5-0.3,1-0.3,1.5c0,0.6,0.1,1.1,0.3,1.6c0.2,0.5,0.4,0.9,0.8,1.2
					c0.3,0.3,0.7,0.6,1.2,0.8C55.5,131,56.1,131.1,56.6,131.1z M58.1,126.5h-3.3c0-0.4,0.2-0.8,0.5-1.1s0.7-0.4,1.2-0.4
					c0.5,0,0.8,0.1,1.1,0.4C57.9,125.6,58.1,126,58.1,126.5L58.1,126.5z M65.6,134.7c0.6,0,1.1-0.1,1.5-0.2c0.5-0.2,0.8-0.4,1.2-0.7
					c0.3-0.3,0.6-0.7,0.8-1.1c0.2-0.4,0.3-0.9,0.3-1.5l0,0v-7.8h-1.8v0.9c-0.2-0.3-0.5-0.5-0.9-0.7c-0.4-0.2-0.8-0.3-1.3-0.3
					c-0.5,0-0.9,0.1-1.4,0.3c-0.4,0.2-0.8,0.5-1.1,0.8c-0.3,0.3-0.6,0.8-0.7,1.2c-0.2,0.5-0.3,1-0.3,1.5c0,0.6,0.1,1.1,0.3,1.5
					c0.2,0.5,0.4,0.9,0.7,1.2c0.3,0.3,0.7,0.6,1.1,0.8c0.4,0.2,0.9,0.3,1.4,0.3c0.2,0,0.4,0,0.6-0.1c0.2,0,0.4-0.1,0.6-0.2
					c0.2-0.1,0.4-0.2,0.5-0.3c0.2-0.1,0.3-0.3,0.4-0.4l0,0v1.2c0,0.6-0.2,1-0.5,1.3c-0.3,0.3-0.8,0.5-1.4,0.5c-0.3,0-0.7-0.1-1-0.3
					c-0.3-0.2-0.6-0.4-0.7-0.7l0,0l-1.6,0.9c0.3,0.6,0.8,1,1.4,1.3C64.2,134.6,64.9,134.7,65.6,134.7z M65.6,129.4
					c-0.3,0-0.6-0.1-0.8-0.2s-0.4-0.3-0.6-0.5c-0.2-0.2-0.3-0.4-0.4-0.7c-0.1-0.3-0.1-0.5-0.1-0.8c0-0.3,0-0.6,0.1-0.8
					c0.1-0.3,0.2-0.5,0.4-0.7c0.2-0.2,0.4-0.3,0.6-0.5c0.2-0.1,0.5-0.2,0.8-0.2c0.3,0,0.5,0,0.7,0.1s0.4,0.2,0.6,0.4
					c0.2,0.2,0.3,0.4,0.4,0.6c0.1,0.2,0.2,0.5,0.2,0.7c0,0.1,0,0.1,0,0.1l0,0v0.2c0,0.3,0,0.5-0.1,0.8c-0.1,0.3-0.2,0.5-0.4,0.7
					c-0.2,0.2-0.4,0.3-0.6,0.5C66.2,129.3,65.9,129.4,65.6,129.4z M78.1,131v-1.6h-2.9v-1.5c0-0.4,0-0.7,0.1-1.1
					c0.1-0.3,0.2-0.6,0.4-0.9c0.2-0.3,0.4-0.5,0.7-0.6c0.3-0.2,0.6-0.2,1.1-0.2c0.3,0,0.5,0,0.7,0.1c0.2,0,0.4,0.1,0.6,0.2l0,0
					l0.4-1.8c-0.5-0.1-0.9-0.2-1.4-0.2c-0.6,0-1.1,0.1-1.5,0.4c-0.5,0.3-0.8,0.7-1.1,1.3l0,0v-1.6h-3.8v1.6h2v4.4h-2v1.6H78.1z
					 M84,131.1c0.3,0,0.6,0,0.8-0.1c0.3-0.1,0.5-0.2,0.7-0.3s0.4-0.2,0.5-0.4s0.3-0.3,0.3-0.4l0,0v1h1.7v-7.5h-1.8v0.9
					c-0.3-0.3-0.6-0.5-1-0.7c-0.4-0.2-0.8-0.3-1.3-0.3c-0.5,0-1,0.1-1.4,0.3c-0.4,0.2-0.8,0.5-1.1,0.8c-0.3,0.3-0.6,0.8-0.8,1.2
					c-0.2,0.5-0.3,1-0.3,1.5c0,0.6,0.1,1.1,0.3,1.5c0.2,0.5,0.4,0.9,0.8,1.2c0.3,0.3,0.7,0.6,1.1,0.8C83,131,83.5,131.1,84,131.1z
					 M84.3,129.4c-0.3,0-0.5-0.1-0.8-0.2c-0.2-0.1-0.5-0.3-0.6-0.4c-0.2-0.2-0.3-0.4-0.4-0.7c-0.1-0.3-0.2-0.5-0.2-0.9
					c0-0.3,0.1-0.6,0.2-0.9c0.1-0.3,0.2-0.5,0.4-0.7c0.2-0.2,0.4-0.3,0.6-0.5c0.2-0.1,0.5-0.2,0.8-0.2c0.3,0,0.6,0.1,0.8,0.2
					c0.2,0.1,0.4,0.3,0.6,0.4c0.2,0.2,0.3,0.4,0.4,0.7c0.1,0.3,0.2,0.5,0.2,0.8l0,0v0.1c0,0.3-0.1,0.6-0.2,0.8
					c-0.1,0.3-0.2,0.5-0.4,0.7c-0.2,0.2-0.4,0.3-0.6,0.4C84.8,129.3,84.6,129.4,84.3,129.4z M94.7,131.1c0.4,0,0.8,0,1.1-0.1
					c0.3-0.1,0.6-0.2,0.8-0.4s0.4-0.3,0.6-0.5s0.3-0.3,0.4-0.5l0,0l-1.3-1.1c-0.1,0.2-0.3,0.4-0.6,0.6c-0.3,0.2-0.6,0.3-0.9,0.3
					c-0.4,0-0.7-0.1-0.9-0.4c-0.2-0.3-0.4-0.7-0.4-1.2l0,0V125h3.3v-1.6h-3.3v-2.1h-1.6l-0.2,2.1h-1.9v1.6h1.9v2.8
					c0,1,0.3,1.8,0.8,2.4S93.7,131.1,94.7,131.1z M106.1,131v-1.6h-2.9v-1.5c0-0.4,0-0.7,0.1-1.1s0.2-0.6,0.4-0.9
					c0.2-0.3,0.4-0.5,0.7-0.6c0.3-0.2,0.6-0.2,1.1-0.2c0.3,0,0.5,0,0.7,0.1c0.2,0,0.4,0.1,0.6,0.2l0,0l0.4-1.8
					c-0.5-0.1-0.9-0.2-1.4-0.2c-0.6,0-1.1,0.1-1.5,0.4c-0.5,0.3-0.8,0.7-1.1,1.3l0,0v-1.6h-3.8v1.6h2v4.4h-2v1.6H106.1z
					 M112.8,122.2c0.3,0,0.6-0.1,0.8-0.3c0.2-0.2,0.3-0.5,0.3-0.8c0-0.3-0.1-0.6-0.3-0.8c-0.2-0.2-0.5-0.3-0.8-0.3
					c-0.3,0-0.6,0.1-0.8,0.3c-0.2,0.2-0.3,0.5-0.3,0.8c0,0.3,0.1,0.6,0.3,0.8C112.2,122.1,112.5,122.2,112.8,122.2z M116.4,131v-1.6
					h-2.7v-6h-4.5v1.6h2.7v4.4h-2.7v1.6H116.4z M121.9,131.1c0.7,0,1.4-0.1,2-0.4c0.6-0.3,1.1-0.7,1.5-1.3l0,0l-1.5-1
					c-0.2,0.3-0.5,0.6-0.9,0.8c-0.3,0.2-0.7,0.3-1.2,0.3c-0.3,0-0.6-0.1-0.8-0.2c-0.2-0.1-0.4-0.3-0.6-0.5s-0.3-0.4-0.4-0.7
					c-0.1-0.3-0.1-0.5-0.1-0.8c0-0.3,0-0.6,0.1-0.8c0.1-0.3,0.2-0.5,0.4-0.7c0.2-0.2,0.4-0.4,0.6-0.5c0.2-0.1,0.5-0.2,0.8-0.2
					c0.4,0,0.7,0.1,1,0.3c0.3,0.2,0.6,0.5,0.7,0.9l0,0l1.7-0.6c-0.2-0.4-0.4-0.8-0.6-1c-0.3-0.3-0.5-0.5-0.8-0.7
					c-0.3-0.2-0.6-0.4-1-0.5c-0.4-0.1-0.7-0.2-1.1-0.2c-0.6,0-1.1,0.1-1.6,0.3c-0.5,0.2-0.9,0.5-1.2,0.9c-0.3,0.4-0.6,0.8-0.8,1.2
					c-0.2,0.5-0.3,1-0.3,1.5c0,0.5,0.1,1,0.3,1.5c0.2,0.5,0.4,0.9,0.8,1.2c0.3,0.3,0.7,0.6,1.2,0.8
					C120.8,131,121.3,131.1,121.9,131.1z M131.3,131.1c0.6,0,1.2-0.1,1.8-0.4c0.6-0.3,1.1-0.7,1.5-1.3l0,0l-1.6-0.8
					c-0.2,0.3-0.5,0.5-0.8,0.6c-0.3,0.1-0.6,0.2-1,0.2c-0.5,0-1-0.2-1.3-0.5c-0.3-0.3-0.5-0.7-0.6-1.2l0,0h5.3c0-0.1,0-0.2,0-0.4
					l0,0v-0.4c0-0.5-0.1-1-0.3-1.4c-0.2-0.5-0.4-0.8-0.7-1.2c-0.3-0.3-0.7-0.6-1.1-0.8c-0.4-0.2-0.9-0.3-1.5-0.3
					c-0.5,0-1,0.1-1.5,0.3s-0.8,0.5-1.1,0.8s-0.6,0.8-0.7,1.2c-0.2,0.5-0.3,1-0.3,1.5c0,0.6,0.1,1.1,0.3,1.6
					c0.2,0.5,0.4,0.9,0.8,1.2c0.3,0.3,0.7,0.6,1.2,0.8C130.2,131,130.7,131.1,131.3,131.1z M132.8,126.5h-3.3c0-0.4,0.2-0.8,0.5-1.1
					c0.3-0.3,0.7-0.4,1.2-0.4c0.5,0,0.8,0.1,1.1,0.4C132.6,125.6,132.8,126,132.8,126.5L132.8,126.5z"/>
				<g id="img_2_" transform="translate(40.500000, 26.415069)">
					<g id="Mask_2_">
						<circle id="path-9_1_" class="st4" cx="41.6" cy="19.8" r="47.1"/>
					</g>
					<defs>
						<filter id="Adobe_OpacityMaskFilter_15_" filterUnits="userSpaceOnUse" x="4.1" y="-12.4" width="74.6" height="79.2">
							<feColorMatrix  type="matrix" values="1 0 0 0 0  0 1 0 0 0  0 0 1 0 0  0 0 0 1 0"/>
						</filter>
					</defs>
					<mask maskUnits="userSpaceOnUse" x="4.1" y="-12.4" width="74.6" height="79.2" id="mask-10_1_">
						<g class="st45">
							<circle id="path-9_2_" class="st6" cx="41.6" cy="19.8" r="47.1"/>
						</g>
					</mask>
					<g id="Group-30_1_" class="st46">
						<g transform="translate(10.156250, 15.000000)">
							<g id="Group-3_1_" transform="translate(0.000000, 0.532667)">
								<g id="Clip-2_1_">
								</g>
								<defs>
									<filter id="Adobe_OpacityMaskFilter_16_" filterUnits="userSpaceOnUse" x="-6" y="-28" width="74.6" height="57.3">
										<feColorMatrix  type="matrix" values="1 0 0 0 0  0 1 0 0 0  0 0 1 0 0  0 0 0 1 0"/>
									</filter>
								</defs>
								<mask maskUnits="userSpaceOnUse" x="-6" y="-28" width="74.6" height="57.3" id="mask-12_1_">
									<g class="st47">
										<polygon id="path-11_1_" class="st6" points="-6,-28 68.6,-28 68.6,29.3 -6,29.3 										"/>
									</g>
								</mask>
								<path id="Fill-1_2_" class="st48" d="M23.5,29.1c0,0-3.8,0.2-7.7-0.6c-3.8-0.8-1.3-2.1-2.7-3.7c-1.3-1.5-5.6,0-10.2-1.3
									c-4.6-1.3-1.5-1.7-2.5-4.4c-1-2.7-4.2-0.6-6-3.6c-1.7-3.1,1.7-3.3,3.5-4.8C-0.4,9.1-4.6,5.5-4,3.6c0.6-1.9,4.2-3.7,5-6.7
									c0.8-3.1,0.8-4.4,3.3-5.6c2.5-1.2,3.6-2.9,4.6-5.2c1-2.3,1.7-4.6,3.8-5.2c2.1-0.6,4.2-1.3,5.2-3.5c1-2.1,1.7-2.7,4.4-3.5
									c2.7-0.8,7.9-0.4,10-1.5c2.1-1.2,10.2,0.4,11,2.1c0,0,4.6-0.6,5.8,2.5c1.2,3.1,1.5,5.6,3.1,6.5c1.5,1,3.1,1.9,3.1,3.7
									c0,1.7,1.2,4.4,3.5,5.2c2.3,0.8,4.2,2.9,5.8,5.6c1.5,2.7-0.2,5.6,2.3,6.1c2.5,0.6-0.6,1.9-0.4,4.4c0.2,2.5,1.3,2.5,2.1,4.2
									c0.8,1.7-1.7,1.5-1.5,4.4c0.2,2.9,1.2,2.3-2.3,5c-3.5,2.7-10.4-1-10.4,1.3s0.4,3.3-3.1,3.8C47.7,28,40,29.3,40,29.3
									L23.5,29.1z"/>
							</g>
							<path id="Fill-4_1_" class="st8" d="M41.2,51.7l6.7-16.6c-0.9-0.2-1.7-0.3-2.7-0.3h-6.4l-7.6-7l2.5-4H24v11h-6.4
								c-0.4,0-0.7,0-1.1,0.1l7.2,16.8H41.2z"/>
							<polygon id="Stroke-6_1_" class="st41" points="38.9,23.9 38.7,23.9 38.9,23.9 							"/>
							<path id="Fill-8_1_" class="st42" d="M59.7,51.7v-2.5c0-7-5-12.9-11.7-14.1l-6.7,16.6H59.7z"/>
							<path id="Fill-10_1_" class="st42" d="M3.3,49.2v2.5h20.5l-7.2-16.8C9.1,35.5,3.3,41.7,3.3,49.2"/>
							<polygon id="Fill-12_1_" class="st43" points="38.9,34.9 38.9,23.9 38.7,23.9 33.8,23.9 31.3,27.9 							"/>
							<path id="Fill-14_2_" class="st8" d="M31.9,17.7l1.9-0.4c1.9-0.4,1-8.6,1-11.9c0-3.3,1.8-3.8,4-4.6c2.1-0.8,6.1-0.6,9.5-0.2
								C47-0.7,45.4-3,45.4-6.8c-3.7,4.9-6.3,6.6-17,7.2C17.7,1,13.6,2.2,13.6,2.2s-0.3,19.1,11.2,24.4
								C28.8,23.6,31.9,17.7,31.9,17.7"/>
							<path id="Fill-16_2_" class="st9" d="M50.3,2.1c0,0-0.9-0.4-2-1.4c-3.4-0.4-7.4-0.6-9.5,0.2c-2.3,0.8-4,1.3-4,4.6
								c0,3.3,1,11.5-1,11.9l-1.9,0.4c0,0-3.1,5.8-7.1,8.8c1.8,0.8,4,1.3,6.5,1.3C49.4,27.9,50.3,2.1,50.3,2.1"/>
							<path id="Fill-18_2_" class="st8" d="M16,1.8c0,0,10.5-1.2,12.2-1.2c1.7,0,1.4,6.4-5.7,7.2C15.5,8.6,16,1.8,16,1.8"/>
							<path id="Fill-20_1_" class="st11" d="M41.4,5c0,0.8-0.7,1.5-1.5,1.5c-0.8,0-1.5-0.7-1.5-1.5c0-0.8,0.7-1.5,1.5-1.5
								C40.7,3.5,41.4,4.2,41.4,5"/>
							<path id="Fill-22_2_" class="st11" d="M23.9,5c0,0.8-0.7,1.5-1.5,1.5C21.6,6.5,21,5.8,21,5c0-0.8,0.7-1.5,1.5-1.5
								C23.3,3.5,23.9,4.2,23.9,5"/>
							<path id="Stroke-24_1_" class="st44" d="M18.4,5c0,0,1.4-1.9,4.2-1.9c2.8,0,4.1,1.6,4.1,1.6"/>
							<path id="Stroke-26_1_" class="st44" d="M35.7,5c0,0,1.4-1.9,4.2-1.9c2.8,0,4.1,1.6,4.1,1.6"/>
							<path id="Stroke-28_1_" class="st44" d="M24.8,19.2c0,0,5.8,3.2,12.9-0.1"/>
						</g>
					</g>
				</g>
			</g>
			<g id="thumb_equipe_3_" transform="translate(272.642857, 251.047220)">
				<rect id="Rectangle-Copy-20" x="-16" y="-15.2" class="st2" width="170.4" height="210.8"/>
				<path id="Facilitateur" class="st3" d="M14.3,141.4v-4.9h4.3v-1.7h-4.3v-2.7h4.9v-1.8h-6.8v11.1H14.3z M24.3,141.5
					c0.3,0,0.6,0,0.8-0.1c0.3-0.1,0.5-0.2,0.7-0.3c0.2-0.1,0.4-0.2,0.5-0.4c0.2-0.1,0.3-0.3,0.3-0.4l0,0v1h1.7v-7.5h-1.8v0.9
					c-0.3-0.3-0.6-0.5-1-0.7c-0.4-0.2-0.8-0.3-1.3-0.3c-0.5,0-1,0.1-1.4,0.3c-0.4,0.2-0.8,0.5-1.1,0.8c-0.3,0.3-0.6,0.8-0.8,1.2
					c-0.2,0.5-0.3,1-0.3,1.5c0,0.6,0.1,1.1,0.3,1.5c0.2,0.5,0.4,0.9,0.8,1.2c0.3,0.3,0.7,0.6,1.1,0.8
					C23.4,141.4,23.8,141.5,24.3,141.5z M24.6,139.8c-0.3,0-0.5-0.1-0.8-0.2c-0.2-0.1-0.5-0.3-0.6-0.4s-0.3-0.4-0.4-0.7
					c-0.1-0.3-0.2-0.5-0.2-0.9c0-0.3,0.1-0.6,0.2-0.9c0.1-0.3,0.2-0.5,0.4-0.7c0.2-0.2,0.4-0.3,0.6-0.5c0.2-0.1,0.5-0.2,0.8-0.2
					c0.3,0,0.6,0.1,0.8,0.2c0.2,0.1,0.4,0.3,0.6,0.4c0.2,0.2,0.3,0.4,0.4,0.7c0.1,0.3,0.2,0.5,0.2,0.8l0,0v0.1
					c0,0.3-0.1,0.6-0.2,0.8c-0.1,0.3-0.2,0.5-0.4,0.7c-0.2,0.2-0.4,0.3-0.6,0.4C25.2,139.7,24.9,139.8,24.6,139.8z M34.2,141.5
					c0.7,0,1.4-0.1,2-0.4c0.6-0.3,1.1-0.7,1.5-1.3l0,0l-1.5-1c-0.2,0.3-0.5,0.6-0.9,0.8c-0.3,0.2-0.7,0.3-1.2,0.3
					c-0.3,0-0.6-0.1-0.8-0.2c-0.2-0.1-0.4-0.3-0.6-0.5c-0.2-0.2-0.3-0.4-0.4-0.7c-0.1-0.3-0.1-0.5-0.1-0.8c0-0.3,0-0.6,0.1-0.8
					c0.1-0.3,0.2-0.5,0.4-0.7c0.2-0.2,0.4-0.4,0.6-0.5c0.2-0.1,0.5-0.2,0.8-0.2c0.4,0,0.7,0.1,1,0.3c0.3,0.2,0.6,0.5,0.7,0.9l0,0
					l1.7-0.6c-0.2-0.4-0.4-0.8-0.6-1s-0.5-0.5-0.8-0.7c-0.3-0.2-0.6-0.4-1-0.5c-0.4-0.1-0.7-0.2-1.1-0.2c-0.6,0-1.1,0.1-1.6,0.3
					c-0.5,0.2-0.9,0.5-1.2,0.9c-0.3,0.4-0.6,0.8-0.8,1.2c-0.2,0.5-0.3,1-0.3,1.5c0,0.5,0.1,1,0.3,1.5c0.2,0.5,0.4,0.9,0.8,1.2
					c0.3,0.3,0.7,0.6,1.2,0.8C33.1,141.4,33.6,141.5,34.2,141.5z M43.7,132.6c0.3,0,0.6-0.1,0.8-0.3c0.2-0.2,0.3-0.5,0.3-0.8
					c0-0.3-0.1-0.6-0.3-0.8c-0.2-0.2-0.5-0.3-0.8-0.3c-0.3,0-0.6,0.1-0.8,0.3c-0.2,0.2-0.3,0.5-0.3,0.8c0,0.3,0.1,0.6,0.3,0.8
					C43.2,132.5,43.4,132.6,43.7,132.6z M47.4,141.4v-1.6h-2.7v-6h-4.5v1.6h2.7v4.4h-2.7v1.6H47.4z M56.8,141.4v-1.6h-3.1V130h-4.3
					v1.6h2.5v8.1h-2.6v1.6H56.8z M62.4,132.6c0.3,0,0.6-0.1,0.8-0.3s0.3-0.5,0.3-0.8c0-0.3-0.1-0.6-0.3-0.8
					c-0.2-0.2-0.5-0.3-0.8-0.3c-0.3,0-0.6,0.1-0.8,0.3c-0.2,0.2-0.3,0.5-0.3,0.8c0,0.3,0.1,0.6,0.3,0.8
					C61.8,132.5,62.1,132.6,62.4,132.6z M66.1,141.4v-1.6h-2.7v-6h-4.5v1.6h2.7v4.4h-2.7v1.6H66.1z M72.3,141.5c0.4,0,0.8,0,1.1-0.1
					c0.3-0.1,0.6-0.2,0.8-0.4c0.2-0.2,0.4-0.3,0.6-0.5c0.2-0.2,0.3-0.3,0.4-0.5l0,0l-1.3-1.1c-0.1,0.2-0.3,0.4-0.6,0.6
					c-0.3,0.2-0.6,0.3-0.9,0.3c-0.4,0-0.7-0.1-0.9-0.4c-0.2-0.3-0.4-0.7-0.4-1.2l0,0v-2.8h3.3v-1.6h-3.3v-2.1h-1.6l-0.2,2.1h-1.9
					v1.6h1.9v2.8c0,1,0.3,1.8,0.8,2.4C70.7,141.3,71.4,141.5,72.3,141.5z M80.3,141.5c0.3,0,0.6,0,0.8-0.1c0.3-0.1,0.5-0.2,0.7-0.3
					c0.2-0.1,0.4-0.2,0.5-0.4c0.2-0.1,0.3-0.3,0.3-0.4l0,0v1h1.7v-7.5h-1.8v0.9c-0.3-0.3-0.6-0.5-1-0.7c-0.4-0.2-0.8-0.3-1.3-0.3
					c-0.5,0-1,0.1-1.4,0.3c-0.4,0.2-0.8,0.5-1.1,0.8c-0.3,0.3-0.6,0.8-0.8,1.2c-0.2,0.5-0.3,1-0.3,1.5c0,0.6,0.1,1.1,0.3,1.5
					c0.2,0.5,0.4,0.9,0.8,1.2s0.7,0.6,1.1,0.8C79.4,141.4,79.8,141.5,80.3,141.5z M80.6,139.8c-0.3,0-0.5-0.1-0.8-0.2
					c-0.2-0.1-0.5-0.3-0.6-0.4s-0.3-0.4-0.4-0.7c-0.1-0.3-0.2-0.5-0.2-0.9c0-0.3,0.1-0.6,0.2-0.9c0.1-0.3,0.2-0.5,0.4-0.7
					c0.2-0.2,0.4-0.3,0.6-0.5c0.2-0.1,0.5-0.2,0.8-0.2c0.3,0,0.6,0.1,0.8,0.2c0.2,0.1,0.4,0.3,0.6,0.4c0.2,0.2,0.3,0.4,0.4,0.7
					s0.2,0.5,0.2,0.8l0,0v0.1c0,0.3-0.1,0.6-0.2,0.8s-0.2,0.5-0.4,0.7c-0.2,0.2-0.4,0.3-0.6,0.4C81.2,139.7,80.9,139.8,80.6,139.8z
					 M91,141.5c0.4,0,0.8,0,1.1-0.1c0.3-0.1,0.6-0.2,0.8-0.4c0.2-0.2,0.4-0.3,0.6-0.5c0.2-0.2,0.3-0.3,0.4-0.5l0,0l-1.3-1.1
					c-0.1,0.2-0.3,0.4-0.6,0.6c-0.3,0.2-0.6,0.3-0.9,0.3c-0.4,0-0.7-0.1-0.9-0.4c-0.2-0.3-0.4-0.7-0.4-1.2l0,0v-2.8h3.3v-1.6h-3.3
					v-2.1h-1.6l-0.2,2.1h-1.9v1.6H88v2.8c0,1,0.3,1.8,0.8,2.4C89.3,141.3,90.1,141.5,91,141.5z M99.6,141.5c0.6,0,1.2-0.1,1.8-0.4
					s1.1-0.7,1.5-1.3l0,0l-1.6-0.8c-0.2,0.3-0.5,0.5-0.8,0.6c-0.3,0.1-0.6,0.2-1,0.2c-0.5,0-1-0.2-1.3-0.5c-0.3-0.3-0.5-0.7-0.6-1.2
					l0,0h5.3c0-0.1,0-0.2,0-0.4l0,0v-0.4c0-0.5-0.1-1-0.3-1.4s-0.4-0.8-0.7-1.2c-0.3-0.3-0.7-0.6-1.1-0.8c-0.4-0.2-0.9-0.3-1.5-0.3
					s-1,0.1-1.5,0.3c-0.4,0.2-0.8,0.5-1.1,0.8c-0.3,0.3-0.6,0.8-0.7,1.2c-0.2,0.5-0.3,1-0.3,1.5c0,0.6,0.1,1.1,0.3,1.6
					c0.2,0.5,0.4,0.9,0.8,1.2c0.3,0.3,0.7,0.6,1.2,0.8C98.6,141.5,99.1,141.5,99.6,141.5z M101.1,136.9h-3.3c0-0.4,0.2-0.8,0.5-1.1
					c0.3-0.3,0.7-0.4,1.2-0.4c0.5,0,0.8,0.1,1.1,0.4C100.9,136.1,101.1,136.5,101.1,136.9L101.1,136.9z M108.2,141.5
					c0.3,0,0.6,0,0.8-0.1c0.2-0.1,0.5-0.2,0.6-0.3c0.2-0.1,0.3-0.2,0.5-0.4c0.1-0.1,0.2-0.3,0.3-0.4l0,0v1h1.7v-7.5h-1.8v4
					c0,0.6-0.2,1.1-0.5,1.5c-0.3,0.3-0.7,0.5-1.1,0.5c-1,0-1.5-0.6-1.5-1.8l0,0v-4.1h-1.8v4.2c0,1.1,0.3,1.9,0.8,2.5
					C106.6,141.2,107.3,141.5,108.2,141.5z M121.1,141.4v-1.6h-2.9v-1.5c0-0.4,0-0.7,0.1-1.1s0.2-0.6,0.4-0.9
					c0.2-0.3,0.4-0.5,0.7-0.6c0.3-0.2,0.6-0.2,1.1-0.2c0.3,0,0.5,0,0.7,0.1c0.2,0,0.4,0.1,0.6,0.2l0,0l0.4-1.8
					c-0.5-0.1-0.9-0.2-1.4-0.2c-0.6,0-1.1,0.1-1.5,0.4c-0.5,0.3-0.8,0.7-1.1,1.3l0,0v-1.6h-3.8v1.6h2v4.4h-2v1.6H121.1z"/>
				<g id="img_3_" transform="translate(40.500000, 30.570543)">
					<g id="Mask_3_">
						<circle id="path-13_1_" class="st4" cx="28.6" cy="30" r="47.1"/>
					</g>
					<defs>
						<filter id="Adobe_OpacityMaskFilter_17_" filterUnits="userSpaceOnUse" x="-6.7" y="-3.8" width="65.4" height="80.6">
							<feColorMatrix  type="matrix" values="1 0 0 0 0  0 1 0 0 0  0 0 1 0 0  0 0 0 1 0"/>
						</filter>
					</defs>
					<mask maskUnits="userSpaceOnUse" x="-6.7" y="-3.8" width="65.4" height="80.6" id="mask-14_1_">
						<g class="st49">
							<circle id="path-13_2_" class="st6" cx="28.6" cy="30" r="47.1"/>
						</g>
					</mask>
					<g id="Group-24_1_" class="st50">
						<g transform="translate(12.500000, 14.000000)">
							<path id="Fill-1_3_" class="st8" d="M6.8,37.9c-1-4.1,2-5,3.5-6c1.5-1,7-1.6,6.7-3.2c-0.3-1.6,0-10.8,0.9-14.5
								c0.9-3.7,4.5-2.9,7.4-2.9c0,0,1.6,0,4.4,0.1c1.1,0.1,2.4,0.7,3.6,1.7c-0.4-8.2-2-17.9-2-17.9S21.1-4.5,16.9-4.5h-4.1
								C8.7-4.5-1.6-4.7-1.6-4.7s-2.6,16.7-2,24.8c0.6,7.7,4,21.6,15.4,22.9C9.5,41.6,7.3,39.8,6.8,37.9"/>
							<path id="Fill-3_1_" class="st9" d="M16.3,43C29,43,32.7,28.1,33.4,20c0.2-1.9,0.1-4.3,0-6.8c-1.3-1-2.6-1.7-3.6-1.7
								c-2.8-0.1-4.4-0.1-4.4-0.1c-2.9,0-6.6-0.7-7.4,2.9C17,17.9,16.7,27.1,17,28.7c0.3,1.6-5.3,2.2-6.7,3.2c-1.5,1-4.5,1.9-3.5,6
								c0.5,1.9,2.7,3.7,5,5c0.6,0.1,1.1,0.1,1.7,0.1H16.3z"/>
							<path id="Stroke-5_1_" class="st10" d="M12.5,16c0-1.3,1.1-2.4,2.4-2.4c1.3,0,2.4,1.1,2.4,2.4"/>
							<path id="Fill-7_1_" class="st11" d="M26.1,16.1c0,0.9-0.7,1.6-1.6,1.6c-0.9,0-1.6-0.7-1.6-1.6c0-0.9,0.7-1.6,1.6-1.6
								C25.4,14.4,26.1,15.1,26.1,16.1"/>
							<path id="Stroke-9_1_" class="st12" d="M19.9,16.1c0,0,1.5-2.1,4.6-2.1s4.5,1.8,4.5,1.8"/>
							<g id="Clip-12_1_">
							</g>
							<defs>
								<filter id="Adobe_OpacityMaskFilter_18_" filterUnits="userSpaceOnUse" x="2.4" y="40.5" width="25.1" height="8.9">
									<feColorMatrix  type="matrix" values="1 0 0 0 0  0 1 0 0 0  0 0 1 0 0  0 0 0 1 0"/>
								</filter>
							</defs>
							<mask maskUnits="userSpaceOnUse" x="2.4" y="40.5" width="25.1" height="8.9" id="mask-16_1_">
								<g class="st51">
									<polygon id="path-15_1_" class="st6" points="-19.2,62.8 46.2,62.8 46.2,-17.8 -19.2,-17.8 									"/>
								</g>
							</mask>
							<polygon id="Fill-11_1_" class="st52" points="2.4,49.4 27.6,49.4 27.6,40.5 2.4,40.5 							"/>
							<defs>
								<filter id="Adobe_OpacityMaskFilter_19_" filterUnits="userSpaceOnUse" x="-19.2" y="49.4" width="65.4" height="13.4">
									<feColorMatrix  type="matrix" values="1 0 0 0 0  0 1 0 0 0  0 0 1 0 0  0 0 0 1 0"/>
								</filter>
							</defs>
							<mask maskUnits="userSpaceOnUse" x="-19.2" y="49.4" width="65.4" height="13.4" id="mask-16_2_">
								<g class="st53">
									<polygon id="path-15_2_" class="st6" points="-19.2,62.8 46.2,62.8 46.2,-17.8 -19.2,-17.8 									"/>
								</g>
							</mask>
							<path id="Fill-13_1_" class="st54" d="M46.2,62.8L46.2,62.8c0-7.4-6-13.4-13.4-13.4h-6H0.2h-6c-7.4,0-13.4,6-13.4,13.4H46.2z
								"/>
							<defs>
								<filter id="Adobe_OpacityMaskFilter_20_" filterUnits="userSpaceOnUse" x="0.2" y="44.4" width="14.9" height="14.6">
									<feColorMatrix  type="matrix" values="1 0 0 0 0  0 1 0 0 0  0 0 1 0 0  0 0 0 1 0"/>
								</filter>
							</defs>
							<mask maskUnits="userSpaceOnUse" x="0.2" y="44.4" width="14.9" height="14.6" id="mask-16_3_">
								<g class="st55">
									<polygon id="path-15_3_" class="st6" points="-19.2,62.8 46.2,62.8 46.2,-17.8 -19.2,-17.8 									"/>
								</g>
							</mask>
							<path id="Fill-14_3_" class="st56" d="M15.1,51.5c0,0-8.3,7.8-8.3,7.4c0-0.3-6.6-9.4-6.6-9.4l2.2-5.1L15.1,51.5z"/>
							<defs>
								<filter id="Adobe_OpacityMaskFilter_21_" filterUnits="userSpaceOnUse" x="15" y="44.5" width="14.9" height="14.5">
									<feColorMatrix  type="matrix" values="1 0 0 0 0  0 1 0 0 0  0 0 1 0 0  0 0 0 1 0"/>
								</filter>
							</defs>
							<mask maskUnits="userSpaceOnUse" x="15" y="44.5" width="14.9" height="14.5" id="mask-16_4_">
								<g class="st57">
									<polygon id="path-15_4_" class="st6" points="-19.2,62.8 46.2,62.8 46.2,-17.8 -19.2,-17.8 									"/>
								</g>
							</mask>
							<path id="Fill-15_1_" class="st58" d="M15,51.5c0,0,8.3,7.8,8.3,7.4c0-0.3,6.6-9.4,6.6-9.4l-2.4-5L15,51.5z"/>
							<defs>
								<filter id="Adobe_OpacityMaskFilter_22_" filterUnits="userSpaceOnUse" x="-2.4" y="27.4" width="34.6" height="24">
									<feColorMatrix  type="matrix" values="1 0 0 0 0  0 1 0 0 0  0 0 1 0 0  0 0 0 1 0"/>
								</filter>
							</defs>
							<mask maskUnits="userSpaceOnUse" x="-2.4" y="27.4" width="34.6" height="24" id="mask-16_5_">
								<g class="st59">
									<polygon id="path-15_5_" class="st6" points="-19.2,62.8 46.2,62.8 46.2,-17.8 -19.2,-17.8 									"/>
								</g>
							</mask>
							<path id="Fill-16_3_" class="st60" d="M17.6,38.9c0,0-0.7-2.7-2.5-2.7h-0.4c-1.8,0-2.5,2.7-2.5,2.7s-3.9,0.6-3.9-2.6
								c0-3.2,3.9-3.5,6.4-3.5h0.4c2.5,0,6.4,0.3,6.4,3.5C21.6,39.5,17.6,38.9,17.6,38.9 M22.1,32.2c-0.9-1.8-2.9-2.9-6-2.9h-2.3
								c-3.1,0-5.1,1.2-6,2.9C6.9,34,0.3,32.9-2.4,27.6c0.3,5.1,3.6,13.3,5.5,15.3c1.9,2,4.2,8.5,10.7,8.5h2.3
								c6.4,0,8.8-6.4,10.7-8.5c1.9-2,5.5-10.7,5.5-15.5C29.4,33.6,22.9,34,22.1,32.2"/>
							<defs>
								<filter id="Adobe_OpacityMaskFilter_23_" filterUnits="userSpaceOnUse" x="-2.2" y="11.3" width="14" height="7.8">
									<feColorMatrix  type="matrix" values="1 0 0 0 0  0 1 0 0 0  0 0 1 0 0  0 0 0 1 0"/>
								</filter>
							</defs>
							<mask maskUnits="userSpaceOnUse" x="-2.2" y="11.3" width="14" height="7.8" id="mask-16_6_">
								<g class="st61">
									<polygon id="path-15_6_" class="st6" points="-19.2,62.8 46.2,62.8 46.2,-17.8 -19.2,-17.8 									"/>
								</g>
							</mask>
							<path id="Fill-17_1_" class="st62" d="M4.2,11.6c-3.3,0.7-5.7,1-6.1,2.5c-0.4,1.5-0.4,4.7,2.5,4.8c2.9,0.1,7.6,0.3,8.8-0.3
								c1.2-0.6,3.1-3.8,2.5-5.1C11.2,12.2,8.9,10.6,4.2,11.6"/>
							<defs>
								<filter id="Adobe_OpacityMaskFilter_24_" filterUnits="userSpaceOnUse" x="2.8" y="14.4" width="3.3" height="3.3">
									<feColorMatrix  type="matrix" values="1 0 0 0 0  0 1 0 0 0  0 0 1 0 0  0 0 0 1 0"/>
								</filter>
							</defs>
							<mask maskUnits="userSpaceOnUse" x="2.8" y="14.4" width="3.3" height="3.3" id="mask-16_7_">
								<g class="st63">
									<polygon id="path-15_7_" class="st6" points="-19.2,62.8 46.2,62.8 46.2,-17.8 -19.2,-17.8 									"/>
								</g>
							</mask>
							<path id="Fill-18_3_" class="st64" d="M6.1,16.1c0,0.9-0.7,1.6-1.6,1.6S2.8,17,2.8,16.1c0-0.9,0.7-1.6,1.6-1.6
								S6.1,15.1,6.1,16.1"/>
							<defs>
								<filter id="Adobe_OpacityMaskFilter_25_" filterUnits="userSpaceOnUse" x="-1" y="12.9" width="10.7" height="3.7">
									<feColorMatrix  type="matrix" values="1 0 0 0 0  0 1 0 0 0  0 0 1 0 0  0 0 0 1 0"/>
								</filter>
							</defs>
							<mask maskUnits="userSpaceOnUse" x="-1" y="12.9" width="10.7" height="3.7" id="mask-16_8_">
								<g class="st65">
									<polygon id="path-15_8_" class="st6" points="-19.2,62.8 46.2,62.8 46.2,-17.8 -19.2,-17.8 									"/>
								</g>
							</mask>
							<path id="Stroke-19_1_" class="st66" d="M-0.1,16.1c0,0,1.5-2.1,4.6-2.1C7.5,14,9,15.7,9,15.7"/>
							<defs>
								<filter id="Adobe_OpacityMaskFilter_26_" filterUnits="userSpaceOnUse" x="16.3" y="10.2" width="17.8" height="11.3">
									<feColorMatrix  type="matrix" values="1 0 0 0 0  0 1 0 0 0  0 0 1 0 0  0 0 0 1 0"/>
								</filter>
							</defs>
							<mask maskUnits="userSpaceOnUse" x="16.3" y="10.2" width="17.8" height="11.3" id="mask-16_9_">
								<g class="st67">
									<polygon id="path-15_9_" class="st6" points="-19.2,62.8 46.2,62.8 46.2,-17.8 -19.2,-17.8 									"/>
								</g>
							</mask>
							<path id="Stroke-20_1_" class="st68" d="M21.9,20.4h6.6c2.5,0,4.6-2.1,4.6-4.6s-2.1-4.6-4.6-4.6h-6.6c-2.5,0-4.6,2.1-4.6,4.6
								S19.4,20.4,21.9,20.4z"/>
							<defs>
								<filter id="Adobe_OpacityMaskFilter_27_" filterUnits="userSpaceOnUse" x="0.2" y="49.5" width="29.7" height="11.8">
									<feColorMatrix  type="matrix" values="1 0 0 0 0  0 1 0 0 0  0 0 1 0 0  0 0 0 1 0"/>
								</filter>
							</defs>
							<mask maskUnits="userSpaceOnUse" x="0.2" y="49.5" width="29.7" height="11.8" id="mask-16_10_">
								<g class="st69">
									<polygon id="path-15_10_" class="st6" points="-19.2,62.8 46.2,62.8 46.2,-17.8 -19.2,-17.8 									"/>
								</g>
							</mask>
							<polygon id="Fill-21_1_" class="st70" points="0.2,49.5 6.6,61.3 15.1,52.7 23.8,61.1 29.9,49.5 23.3,58.9 15.1,51.5 
								6.8,58.9 							"/>
							<defs>
								<filter id="Adobe_OpacityMaskFilter_28_" filterUnits="userSpaceOnUse" x="-9.2" y="-17.8" width="47" height="35.6">
									<feColorMatrix  type="matrix" values="1 0 0 0 0  0 1 0 0 0  0 0 1 0 0  0 0 0 1 0"/>
								</filter>
							</defs>
							<mask maskUnits="userSpaceOnUse" x="-9.2" y="-17.8" width="47" height="35.6" id="mask-16_11_">
								<g class="st71">
									<polygon id="path-15_11_" class="st6" points="-19.2,62.8 46.2,62.8 46.2,-17.8 -19.2,-17.8 									"/>
								</g>
							</mask>
							<path id="Fill-22_3_" class="st72" d="M2.4-3.4c2-1,4.8-1.3,6.9-0.1c2,1.2,7,0.7,8.8,0.1c1.8-0.6,7.2,0,7.2,0
								s5.1,1.2,6.3,4.1c1.3,3.4,1.5,7.4,1.5,7.4l0.9,8.6c0,0,4.2-10.4,3.9-16.4c-0.1-3,0.7-11.1-3.7-12c-2.4-0.5-6.1-1.2-8-3.5
								c-1.9-2.3-8-3.1-9.6-2.6c-1.6,0.4-4.5-0.6-7.3,0.3c-2.8,0.9-6.3,3.7-6.3,3.7s-4.8,0.1-7.6,2c-2.8,1.9-5.4,7-3.9,10.2
								C-7.2,1.7-7.8,2.6-9,5.2c-1.2,2.6,1.9,6.1,2.3,7.4c0.4,1.3,1,4.2,2.9,5.1C-4.4,6.7-0.6,4.9-1.5,1.7c-0.9-3.2-0.3-5.1,0.9-4.8
								C0.5-2.8,2.4-3.4,2.4-3.4"/>
							<defs>
								<filter id="Adobe_OpacityMaskFilter_29_" filterUnits="userSpaceOnUse" x="-4.3" y="10.2" width="17.8" height="11.3">
									<feColorMatrix  type="matrix" values="1 0 0 0 0  0 1 0 0 0  0 0 1 0 0  0 0 0 1 0"/>
								</filter>
							</defs>
							<mask maskUnits="userSpaceOnUse" x="-4.3" y="10.2" width="17.8" height="11.3" id="mask-16_12_">
								<g class="st73">
									<polygon id="path-15_12_" class="st6" points="-19.2,62.8 46.2,62.8 46.2,-17.8 -19.2,-17.8 									"/>
								</g>
							</mask>
							<path id="Stroke-23_1_" class="st74" d="M1.3,20.4h6.6c2.5,0,4.6-2.1,4.6-4.6s-2.1-4.6-4.6-4.6H1.3c-2.5,0-4.6,2.1-4.6,4.6
								S-1.2,20.4,1.3,20.4z"/>
						</g>
					</g>
				</g>
			</g>
			<path id="Fill-1_4_" class="st75" d="M191.6,42.7v21.2c0,2.6-1.1,5.2-2.9,7.1l0,0l-8.3,8.2l8.3,8.3c1.9,1.9,2.9,4.4,2.9,7.1v21.9
				c0,4,1.6,7.6,4.2,10.2c2.6,2.6,6.2,4.2,10.2,4.2h9.7l0-10.3H206c-2.3,0-4.1-1.8-4.1-4.1V94.6c0-4.8-1.7-9.3-4.7-13l-1.9-2.3
				l1.9-2.3c3.1-3.7,4.7-8.2,4.7-13V42.7c0-2.3,1.8-4.1,4.1-4.1h9.7l0-10.3H206c-4,0-7.6,1.6-10.2,4.2
				C193.2,35.2,191.6,38.8,191.6,42.7"/>
			<path id="_x3B_" class="st1" d="M449.1,555.4c2.5,0,4.7-0.9,6.4-2.6c1.7-1.7,2.6-3.8,2.6-6.3c0-2.5-0.9-4.7-2.6-6.4
				c-1.7-1.7-3.8-2.6-6.4-2.6c-2.5,0-4.5,0.9-6.3,2.6c-1.7,1.7-2.6,3.8-2.6,6.4c0,2.5,0.9,4.5,2.6,6.3
				C444.6,554.5,446.7,555.4,449.1,555.4z M446.2,611.8l12-32h-14.6l-6.1,32H446.2z"/>
		</g>
	</g>
</g>
</svg>
