<?xml version="1.0" encoding="utf-8"?>
<!-- Generator: Adobe Illustrator 25.1.0, SVG Export Plug-In . SVG Version: 6.00 Build 0)  -->
<svg version="1.1" id="GraphQL_Logo" xmlns="http://www.w3.org/2000/svg" xmlns:xlink="http://www.w3.org/1999/xlink" x="0px"
	 y="0px" width="110px" height="110px" viewBox="0 0 110 110" style="enable-background:new 0 0 110 110;" xml:space="preserve">
<style type="text/css">
	.st0{fill:#E535AB;}
</style>
<g>
	<g>
		<g>
			<rect x="-9.6" y="41.4" transform="matrix(0.5 -0.866 0.866 0.5 -20.2191 52.4587)" class="st0" width="89.8" height="4.7"/>
		</g>
	</g>
	<g>
		<g>
			<rect x="9.9" y="75.2" class="st0" width="89.8" height="4.7"/>
		</g>
	</g>
	<g>
		<g>
			<rect x="33" y="62.9" transform="matrix(0.5 -0.866 0.866 0.5 -59.2364 74.9974)" class="st0" width="4.7" height="51.9"/>
		</g>
	</g>
	<g>
		<g>
			<rect x="72" y="-4.7" transform="matrix(0.5 -0.866 0.866 0.5 18.7834 74.9948)" class="st0" width="4.7" height="51.9"/>
		</g>
	</g>
	<g>
		<g>
			<rect x="9.4" y="18.9" transform="matrix(0.866 -0.5 0.5 0.866 -5.871 20.5149)" class="st0" width="51.9" height="4.7"/>
		</g>
	</g>
	<g>
		<g>
			<rect x="72" y="-1.1" transform="matrix(0.866 -0.5 0.5 0.866 -11.9064 43.0472)" class="st0" width="4.7" height="89.8"/>
		</g>
	</g>
	<g>
		<g>
			<rect x="13.5" y="29.1" class="st0" width="4.7" height="51.9"/>
		</g>
	</g>
	<g>
		<g>
			<rect x="91.5" y="29.1" class="st0" width="4.7" height="51.9"/>
		</g>
	</g>
	<g>
		<g>
			<rect x="51.8" y="86.7" transform="matrix(0.866 -0.5 0.5 0.866 -34.4277 49.0647)" class="st0" width="45.1" height="4.1"/>
		</g>
	</g>
	<path class="st0" d="M102.3,82.4c-2.7,4.7-8.7,6.3-13.4,3.6c-4.7-2.7-6.3-8.7-3.6-13.4c2.7-4.7,8.7-6.3,13.4-3.6
		C103.5,71.8,105.1,77.8,102.3,82.4"/>
	<path class="st0" d="M24.3,37.3c-2.7,4.7-8.7,6.3-13.4,3.6s-6.3-8.7-3.6-13.4S16,21.3,20.7,24C25.4,26.7,27,32.7,24.3,37.3"/>
	<path class="st0" d="M7.3,82.4c-2.7-4.7-1.1-10.7,3.6-13.4c4.7-2.7,10.7-1.1,13.4,3.6c2.7,4.7,1.1,10.7-3.6,13.4
		C16,88.7,10,87.1,7.3,82.4"/>
	<path class="st0" d="M85.4,37.3C82.7,32.7,84.3,26.7,89,24c4.7-2.7,10.7-1.1,13.4,3.6c2.7,4.7,1.1,10.7-3.6,13.4
		C94.1,43.6,88.1,42,85.4,37.3"/>
	<path class="st0" d="M54.8,109.9c-5.4,0-9.8-4.4-9.8-9.8c0-5.4,4.4-9.8,9.8-9.8s9.8,4.4,9.8,9.8C64.6,105.5,60.3,109.9,54.8,109.9"
		/>
	<path class="st0" d="M54.8,19.7c-5.4,0-9.8-4.4-9.8-9.8s4.4-9.8,9.8-9.8s9.8,4.4,9.8,9.8S60.3,19.7,54.8,19.7"/>
</g>
</svg>
