<svg version="1.1" id="Layer_1" xmlns="http://www.w3.org/2000/svg" xmlns:xlink="http://www.w3.org/1999/xlink" x="0px" y="0px"
	 width="100%" viewBox="0 0 436 134" enable-background="new 0 0 436 134" xml:space="preserve">
<path fill="#000000" opacity="0" stroke="none"
	d="
M437.000000,84.000000
	C437.000000,100.986290 437.000000,117.972588 437.000000,134.952698
	C291.666656,134.946518 146.333313,134.946518 1.000000,134.946518
	C1.000000,116.574463 1.000000,98.255890 1.357133,79.511436
	C2.766623,79.572372 3.875633,79.965202 4.862761,80.560226
	C17.857756,88.393402 32.685020,84.185440 39.196693,70.422966
	C44.036617,60.193760 41.630859,49.173130 41.651878,38.458710
	C41.653419,37.672581 39.994946,36.423527 38.922634,36.167721
	C30.384678,34.130966 22.575996,38.091133 18.753050,46.283302
	C19.179489,46.483032 19.589144,46.801258 20.034567,46.863499
	C23.547617,47.354366 28.760635,46.586174 30.166338,48.552845
	C32.017136,51.142227 30.884722,55.869102 31.016970,59.677563
	C31.045811,60.508076 31.043283,61.344700 30.979097,62.172611
	C30.528479,67.984795 26.193701,73.419075 20.449770,73.701248
	C16.252914,73.907417 11.968122,72.323517 7.722528,71.537544
	C7.785759,71.181084 7.848990,70.824615 7.912221,70.468155
	C5.608147,71.978767 3.304074,73.489388 1.000000,75.000000
	C1.000000,50.351631 1.000000,25.703264 1.000004,1.057771
	C146.333344,1.060645 291.666687,1.060645 437.000000,1.060645
	C437.000000,27.435089 437.000000,53.748886 436.740601,80.860565
	C432.303955,76.899429 429.475525,71.939262 429.772400,65.014297
	C430.030853,58.985306 427.859406,53.140064 422.610107,49.054737
	C420.746246,47.604126 419.009430,45.885494 417.572998,44.014149
	C415.215210,40.942509 413.534668,37.276237 410.883057,34.520233
	C404.993713,28.399128 397.316772,28.500923 390.408234,31.488348
	C384.184326,34.179707 378.880646,39.551010 379.233582,46.925140
	C379.596222,54.502216 377.406097,60.605618 372.964996,66.314606
	C372.221802,67.269943 371.607727,68.325722 370.564880,69.888092
	C377.724152,69.888092 384.158386,69.888092 390.538055,69.888092
	C394.758209,80.175621 402.172211,84.620346 413.019684,84.078239
	C420.994507,83.679695 429.005249,84.000023 437.000000,84.000000
M70.597984,84.000114
	C77.417496,83.998375 84.240601,83.862549 91.055191,84.044731
	C95.202461,84.155602 96.037560,82.047485 96.058586,78.463348
	C96.080254,74.769554 94.988472,72.865250 90.943665,72.990570
	C84.961685,73.175903 78.967865,72.946938 72.982246,73.060593
	C69.913925,73.118851 68.910576,71.753426 68.942596,68.836937
	C68.972977,66.069504 70.086075,64.884529 72.830444,64.992516
	C75.155319,65.084007 77.487946,65.048668 79.815247,64.992050
	C83.194084,64.909859 87.145927,65.924774 87.042374,60.203011
	C86.949265,55.058502 83.785797,54.797665 79.967850,54.989204
	C77.811111,55.097404 75.637741,54.898903 73.483810,55.031986
	C70.411674,55.221798 68.879898,54.213337 68.924057,50.824257
	C68.966217,47.587555 70.593178,46.942001 73.335701,46.978718
	C79.488747,47.061085 85.646919,46.877884 91.796677,47.041237
	C95.175728,47.130989 96.223907,45.596153 96.003311,42.514492
	C95.796730,39.628574 96.740829,36.055973 92.026581,36.038734
	C83.045486,36.005886 74.059044,35.879711 65.085152,36.143532
	C61.096828,36.260780 58.038021,38.152069 58.042542,42.868248
	C58.053543,54.344807 57.986107,65.821938 58.087132,77.297646
	C58.123672,81.448608 60.503315,83.694580 64.645683,83.952042
	C66.303101,84.055054 67.971008,83.989136 70.597984,84.000114
M164.462433,40.532013
	C164.312302,47.178989 164.102219,53.825310 164.029083,60.473133
	C163.957596,66.970581 164.054108,73.469704 164.022095,79.967819
	C164.002945,83.853767 166.590912,84.144798 169.461044,83.978989
	C171.777039,83.845184 174.578247,84.843956 175.012695,80.838150
	C175.755798,73.986435 175.911179,74.003304 182.848038,74.000626
	C184.514297,73.999985 186.180756,74.014977 187.846802,73.995941
	C196.799561,73.893646 204.671188,67.391006 205.911133,59.082691
	C207.378525,49.250263 202.090286,39.809147 192.972427,37.708290
	C187.064468,36.347023 180.785889,35.996147 174.708557,36.206932
	C171.402466,36.321602 168.169861,38.555260 164.462433,40.532013
M323.010864,62.499939
	C323.011169,67.830063 323.126221,73.163544 322.970734,78.489120
	C322.870178,81.933952 323.299377,84.128868 327.701569,84.125298
	C331.895599,84.121902 333.524536,82.693756 333.010651,78.614212
	C332.578461,75.183411 334.077881,73.748253 337.575745,73.959824
	C340.894714,74.160553 344.236908,74.050949 347.566833,73.981178
	C355.497559,73.815018 362.335297,67.883049 364.317139,59.518440
	C366.197510,51.582165 362.630188,43.079353 355.827881,39.448048
	C346.964813,34.716621 337.465027,35.607388 328.032684,36.597473
	C324.184814,37.001373 323.014221,39.973595 323.018646,43.510975
	C323.026154,49.507343 323.014496,55.503735 323.010864,62.499939
M250.000458,40.740631
	C249.995712,48.391842 250.118942,56.045925 249.947220,63.693390
	C249.799911,70.253311 246.014511,74.124603 240.300140,74.015480
	C234.627304,73.907143 231.029419,69.844604 230.991318,63.380985
	C230.945236,55.563683 230.868698,47.744122 231.008621,39.929173
	C231.081635,35.850063 228.513565,36.022633 225.708298,35.967716
	C222.826569,35.911297 220.912949,36.436882 220.968109,39.996769
	C221.107224,48.976505 220.785095,57.967777 221.091003,66.939316
	C221.407333,76.216614 231.153992,84.868820 240.597519,84.748764
	C250.234238,84.626259 259.789398,75.501686 259.935364,66.064880
	C260.066528,57.584183 259.927124,49.099602 259.970917,40.617062
	C259.984131,38.059063 259.782074,35.784653 256.383636,36.030300
	C253.660980,36.227093 249.876404,34.759377 250.000458,40.740631
M134.999390,59.514317
	C134.999390,59.347900 134.999374,59.181484 134.999374,59.015068
	C134.999481,47.530396 134.995712,47.390701 146.644913,47.074730
	C150.340820,46.974480 151.165909,45.367512 151.025711,42.157997
	C150.890457,39.061203 151.221313,35.967014 146.648865,35.994770
	C135.499832,36.062443 124.346451,35.884064 113.205261,36.187969
	C111.791367,36.226532 109.495941,38.380569 109.223503,39.853233
	C108.064110,46.120132 109.022034,46.979546 115.519791,46.998230
	C117.017479,47.002537 118.534119,47.153278 120.009262,46.971191
	C124.097450,46.466568 125.144814,48.410625 125.061615,52.193619
	C124.864082,61.175438 125.128860,70.167313 124.939140,79.149475
	C124.861359,82.831871 126.137474,84.079178 129.833099,84.101326
	C133.664185,84.124283 135.241882,83.000778 135.067642,78.979118
	C134.801361,72.833473 134.998810,66.667732 134.999390,59.514317
M285.095917,36.184315
	C277.015442,35.719067 277.014099,35.719067 277.013733,43.585457
	C277.013245,54.568104 276.977844,65.550934 277.032166,76.533310
	C277.057831,81.716881 279.027679,83.836388 284.225525,83.948700
	C291.377441,84.103218 298.535950,83.925598 305.690308,84.007904
	C309.414124,84.050743 310.045013,81.880310 310.004486,78.818649
	C309.964783,75.818062 310.039581,72.984886 305.808594,73.038788
	C300.983826,73.100250 296.153717,72.917717 291.333221,73.071175
	C288.091034,73.174400 286.916168,71.875206 286.962738,68.665871
	C287.090637,59.848362 287.065979,51.026920 286.951996,42.208973
	C286.927429,40.309143 286.273682,38.417442 285.095917,36.184315
z"/>
<path fill="#FFFFFF" opacity="1.000000" stroke="none"
	d="
M437.000000,83.625000
	C429.005249,84.000023 420.994507,83.679695 413.019684,84.078239
	C402.172211,84.620346 394.758209,80.175621 390.538055,69.888092
	C384.158386,69.888092 377.724152,69.888092 370.564880,69.888092
	C371.607727,68.325722 372.221802,67.269943 372.964996,66.314606
	C377.406097,60.605618 379.596222,54.502216 379.233582,46.925140
	C378.880646,39.551010 384.184326,34.179707 390.408234,31.488348
	C397.316772,28.500923 404.993713,28.399128 410.883057,34.520233
	C413.534668,37.276237 415.215210,40.942509 417.572998,44.014149
	C419.009430,45.885494 420.746246,47.604126 422.610107,49.054737
	C427.859406,53.140064 430.030853,58.985306 429.772400,65.014297
	C429.475525,71.939262 432.303955,76.899429 436.740601,81.329224
	C437.000000,81.750000 437.000000,82.500000 437.000000,83.625000
M413.981110,62.378147
	C408.994171,65.460892 404.007263,68.543640 399.083405,71.587387
	C405.403259,80.502869 415.601959,75.870346 424.277252,77.072533
	C421.259827,69.618378 425.477295,60.483570 418.580750,54.302917
	C417.134277,56.745159 415.673645,59.211319 413.981110,62.378147
M398.466370,47.936306
	C402.113434,46.271263 405.760529,44.606224 409.385376,42.951324
	C409.105469,42.654160 408.663422,42.164898 408.200470,41.696285
	C403.340363,36.776829 398.932770,35.718559 393.713867,37.727745
	C387.480438,40.127525 385.874969,44.842304 385.899017,50.991188
	C385.914429,54.926743 384.970367,58.866051 384.458649,62.786423
	C385.558685,62.786423 387.633423,62.786423 389.673492,62.786423
	C390.727570,56.818329 392.867004,51.681721 398.466370,47.936306
M402.349030,62.003834
	C407.847260,60.667107 409.775299,56.424812 411.214874,51.565540
	C403.791199,50.453793 397.118652,55.965378 397.419952,63.224953
	C398.864258,62.815434 400.207977,62.434441 402.349030,62.003834
z"/>
<path fill="#FFFFFF" opacity="1.000000" stroke="none"
	d="
M1.000000,75.399994
	C3.304074,73.489388 5.608147,71.978767 7.912221,70.468155
	C7.848990,70.824615 7.785759,71.181084 7.722528,71.537544
	C11.968122,72.323517 16.252914,73.907417 20.449770,73.701248
	C26.193701,73.419075 30.528479,67.984795 30.979097,62.172611
	C31.043283,61.344700 31.045811,60.508076 31.016970,59.677563
	C30.884722,55.869102 32.017136,51.142227 30.166338,48.552845
	C28.760635,46.586174 23.547617,47.354366 20.034567,46.863499
	C19.589144,46.801258 19.179489,46.483032 18.753050,46.283302
	C22.575996,38.091133 30.384678,34.130966 38.922634,36.167721
	C39.994946,36.423527 41.653419,37.672581 41.651878,38.458710
	C41.630859,49.173130 44.036617,60.193760 39.196693,70.422966
	C32.685020,84.185440 17.857756,88.393402 4.862761,80.560226
	C3.875633,79.965202 2.766623,79.572372 1.357133,79.042778
	C1.000000,77.933327 1.000000,76.866661 1.000000,75.399994
z"/>
<path fill="#FFFFFF" opacity="1.000000" stroke="none"
	d="
M70.116058,84.000114
	C67.971008,83.989136 66.303101,84.055054 64.645683,83.952042
	C60.503315,83.694580 58.123672,81.448608 58.087132,77.297646
	C57.986107,65.821938 58.053543,54.344807 58.042542,42.868248
	C58.038021,38.152069 61.096828,36.260780 65.085152,36.143532
	C74.059044,35.879711 83.045486,36.005886 92.026581,36.038734
	C96.740829,36.055973 95.796730,39.628574 96.003311,42.514492
	C96.223907,45.596153 95.175728,47.130989 91.796677,47.041237
	C85.646919,46.877884 79.488747,47.061085 73.335701,46.978718
	C70.593178,46.942001 68.966217,47.587555 68.924057,50.824257
	C68.879898,54.213337 70.411674,55.221798 73.483810,55.031986
	C75.637741,54.898903 77.811111,55.097404 79.967850,54.989204
	C83.785797,54.797665 86.949265,55.058502 87.042374,60.203011
	C87.145927,65.924774 83.194084,64.909859 79.815247,64.992050
	C77.487946,65.048668 75.155319,65.084007 72.830444,64.992516
	C70.086075,64.884529 68.972977,66.069504 68.942596,68.836937
	C68.910576,71.753426 69.913925,73.118851 72.982246,73.060593
	C78.967865,72.946938 84.961685,73.175903 90.943665,72.990570
	C94.988472,72.865250 96.080254,74.769554 96.058586,78.463348
	C96.037560,82.047485 95.202461,84.155602 91.055191,84.044731
	C84.240601,83.862549 77.417496,83.998375 70.116058,84.000114
z"/>
<path fill="#FFFFFF" opacity="1.000000" stroke="none"
	d="
M164.683273,40.182594
	C168.169861,38.555260 171.402466,36.321602 174.708557,36.206932
	C180.785889,35.996147 187.064468,36.347023 192.972427,37.708290
	C202.090286,39.809147 207.378525,49.250263 205.911133,59.082691
	C204.671188,67.391006 196.799561,73.893646 187.846802,73.995941
	C186.180756,74.014977 184.514297,73.999985 182.848038,74.000626
	C175.911179,74.003304 175.755798,73.986435 175.012695,80.838150
	C174.578247,84.843956 171.777039,83.845184 169.461044,83.978989
	C166.590912,84.144798 164.002945,83.853767 164.022095,79.967819
	C164.054108,73.469704 163.957596,66.970581 164.029083,60.473133
	C164.102219,53.825310 164.312302,47.178989 164.683273,40.182594
M192.055862,48.074177
	C188.310669,47.716122 184.553650,47.450871 180.823288,46.976292
	C176.261658,46.395958 174.724548,48.202293 174.906906,52.810776
	C175.414658,65.643425 172.821701,63.882454 186.360504,63.989494
	C190.512466,64.022324 193.761566,62.399727 195.325668,58.269001
	C196.789917,54.401993 195.956894,51.131641 192.055862,48.074177
z"/>
<path fill="#FFFFFF" opacity="1.000000" stroke="none"
	d="
M323.010895,62.000031
	C323.014496,55.503735 323.026154,49.507343 323.018646,43.510975
	C323.014221,39.973595 324.184814,37.001373 328.032684,36.597473
	C337.465027,35.607388 346.964813,34.716621 355.827881,39.448048
	C362.630188,43.079353 366.197510,51.582165 364.317139,59.518440
	C362.335297,67.883049 355.497559,73.815018 347.566833,73.981178
	C344.236908,74.050949 340.894714,74.160553 337.575745,73.959824
	C334.077881,73.748253 332.578461,75.183411 333.010651,78.614212
	C333.524536,82.693756 331.895599,84.121902 327.701569,84.125298
	C323.299377,84.128868 322.870178,81.933952 322.970734,78.489120
	C323.126221,73.163544 323.011169,67.830063 323.010895,62.000031
M354.497528,56.973373
	C354.483521,50.547909 351.536652,47.251999 345.505737,47.020496
	C343.185059,46.931412 340.833069,47.219116 338.539490,46.953754
	C334.087189,46.438629 332.775726,48.299541 332.925842,52.626507
	C333.387238,65.925201 330.930145,63.773098 344.724823,64.020355
	C349.374237,64.103691 352.757568,62.331097 354.497528,56.973373
z"/>
<path fill="#FFFFFF" opacity="1.000000" stroke="none"
	d="
M250.004761,40.276909
	C249.876404,34.759377 253.660980,36.227093 256.383636,36.030300
	C259.782074,35.784653 259.984131,38.059063 259.970917,40.617062
	C259.927124,49.099602 260.066528,57.584183 259.935364,66.064880
	C259.789398,75.501686 250.234238,84.626259 240.597519,84.748764
	C231.153992,84.868820 221.407333,76.216614 221.091003,66.939316
	C220.785095,57.967777 221.107224,48.976505 220.968109,39.996769
	C220.912949,36.436882 222.826569,35.911297 225.708298,35.967716
	C228.513565,36.022633 231.081635,35.850063 231.008621,39.929173
	C230.868698,47.744122 230.945236,55.563683 230.991318,63.380985
	C231.029419,69.844604 234.627304,73.907143 240.300140,74.015480
	C246.014511,74.124603 249.799911,70.253311 249.947220,63.693390
	C250.118942,56.045925 249.995712,48.391842 250.004761,40.276909
z"/>
<path fill="#FFFFFF" opacity="1.000000" stroke="none"
	d="
M134.999390,60.012421
	C134.998810,66.667732 134.801361,72.833473 135.067642,78.979118
	C135.241882,83.000778 133.664185,84.124283 129.833099,84.101326
	C126.137474,84.079178 124.861359,82.831871 124.939140,79.149475
	C125.128860,70.167313 124.864082,61.175438 125.061615,52.193619
	C125.144814,48.410625 124.097450,46.466568 120.009262,46.971191
	C118.534119,47.153278 117.017479,47.002537 115.519791,46.998230
	C109.022034,46.979546 108.064110,46.120132 109.223503,39.853233
	C109.495941,38.380569 111.791367,36.226532 113.205261,36.187969
	C124.346451,35.884064 135.499832,36.062443 146.648865,35.994770
	C151.221313,35.967014 150.890457,39.061203 151.025711,42.157997
	C151.165909,45.367512 150.340820,46.974480 146.644913,47.074730
	C134.995712,47.390701 134.999481,47.530396 134.999374,59.015068
	C134.999374,59.181484 134.999390,59.347900 134.999390,60.012421
z"/>
<path fill="#FFFFFF" opacity="1.000000" stroke="none"
	d="
M285.502808,36.353157
	C286.273682,38.417442 286.927429,40.309143 286.951996,42.208973
	C287.065979,51.026920 287.090637,59.848362 286.962738,68.665871
	C286.916168,71.875206 288.091034,73.174400 291.333221,73.071175
	C296.153717,72.917717 300.983826,73.100250 305.808594,73.038788
	C310.039581,72.984886 309.964783,75.818062 310.004486,78.818649
	C310.045013,81.880310 309.414124,84.050743 305.690308,84.007904
	C298.535950,83.925598 291.377441,84.103218 284.225525,83.948700
	C279.027679,83.836388 277.057831,81.716881 277.032166,76.533310
	C276.977844,65.550934 277.013245,54.568104 277.013733,43.585457
	C277.014099,35.719067 277.015442,35.719067 285.502808,36.353157
z"/>
<path fill="#000000" opacity="0" stroke="none"
	d="
M414.097046,62.027809
	C415.673645,59.211319 417.134277,56.745159 418.580750,54.302917
	C425.477295,60.483570 421.259827,69.618378 424.277252,77.072533
	C415.601959,75.870346 405.403259,80.502869 399.083405,71.587387
	C404.007263,68.543640 408.994171,65.460892 414.097046,62.027809
z"/>
<path fill="#010100" opacity="0" stroke="none"
	d="
M398.093628,47.989639
	C392.867004,51.681721 390.727570,56.818329 389.673492,62.786423
	C387.633423,62.786423 385.558685,62.786423 384.458649,62.786423
	C384.970367,58.866051 385.914429,54.926743 385.899017,50.991188
	C385.874969,44.842304 387.480438,40.127525 393.713867,37.727745
	C398.932770,35.718559 403.340363,36.776829 408.200470,41.696285
	C408.663422,42.164898 409.105469,42.654160 409.385376,42.951324
	C405.760529,44.606224 402.113434,46.271263 398.093628,47.989639
z"/>
<path fill="#010100" opacity="0" stroke="none"
	d="
M401.950348,62.028641
	C400.207977,62.434441 398.864258,62.815434 397.419952,63.224953
	C397.118652,55.965378 403.791199,50.453793 411.214874,51.565540
	C409.775299,56.424812 407.847260,60.667107 401.950348,62.028641
z"/>
<path fill="#000000" opacity="0" stroke="none"
	d="
M192.403046,48.282417
	C195.956894,51.131641 196.789917,54.401993 195.325668,58.269001
	C193.761566,62.399727 190.512466,64.022324 186.360504,63.989494
	C172.821701,63.882454 175.414658,65.643425 174.906906,52.810776
	C174.724548,48.202293 176.261658,46.395958 180.823288,46.976292
	C184.553650,47.450871 188.310669,47.716122 192.403046,48.282417
z"/>
<path fill="#000000" opacity="0" stroke="none"
	d="
M354.371643,57.329735
	C352.757568,62.331097 349.374237,64.103691 344.724823,64.020355
	C330.930145,63.773098 333.387238,65.925201 332.925842,52.626507
	C332.775726,48.299541 334.087189,46.438629 338.539490,46.953754
	C340.833069,47.219116 343.185059,46.931412 345.505737,47.020496
	C351.536652,47.251999 354.483521,50.547909 354.371643,57.329735
z"/>
</svg>
