<svg version="1.1" id="Layer_1" xmlns="http://www.w3.org/2000/svg" xmlns:xlink="http://www.w3.org/1999/xlink" x="0px" y="0px"
	 width="100%" viewBox="0 0 309 135" enable-background="new 0 0 309 135" xml:space="preserve">
<path fill="#FFFFFF" opacity="0" stroke="none"
	d="
M196.000000,136.000000
	C130.666672,136.000000 65.833351,136.000000 1.000017,136.000000
	C1.000012,91.000015 1.000012,46.000027 1.000006,1.000030
	C103.999977,1.000020 206.999954,1.000020 309.999939,1.000010
	C309.999969,45.999969 309.999969,90.999939 310.000000,135.999954
	C272.166656,136.000000 234.333328,136.000000 196.000000,136.000000
M255.836319,88.089455
	C261.533295,87.392914 267.229889,86.138779 272.927338,86.134804
	C280.825287,86.129303 288.723907,87.063248 297.743042,87.670410
	C296.563416,85.312469 295.878662,81.726364 293.731598,80.207764
	C290.986938,78.266495 287.113647,77.398499 283.638458,77.101761
	C267.428558,75.717606 252.179184,80.750107 236.757797,84.603905
	C229.694016,86.369141 222.563568,87.867638 214.026611,89.814804
	C215.448929,86.749161 216.083084,85.144859 216.911072,83.647728
	C218.568314,80.651115 220.321030,77.706947 222.053375,74.752289
	C225.773636,68.407036 221.257706,62.766026 215.137360,62.103813
	C208.194794,61.352631 201.086426,61.776451 195.057297,65.601242
	C188.446915,69.794762 182.390854,74.855583 176.029358,79.450005
	C170.954254,83.115372 166.081070,87.265541 158.807922,87.269554
	C161.224854,82.687454 163.942261,78.375122 167.153992,74.469223
	C170.401245,70.520073 174.138062,66.973480 178.386154,62.483490
	C170.291718,61.295731 164.821854,62.723099 160.655167,67.849983
	C157.443436,71.801826 154.468506,75.970375 151.012558,79.693825
	C145.744980,85.369148 138.883423,87.889969 129.831665,89.322533
	C131.593521,86.751686 132.416748,85.284622 133.489883,84.031593
	C137.666351,79.154968 142.185104,74.545609 146.054779,69.441284
	C148.581573,66.108299 147.262665,62.481758 143.365021,62.333191
	C136.146164,62.058029 128.735001,62.048885 121.690331,63.410629
	C115.423218,64.622063 109.717239,73.710815 110.591927,79.567322
	C117.533394,75.533768 122.526756,66.676071 132.323166,70.740868
	C128.941559,74.603104 125.091171,78.125198 122.409668,82.383377
	C120.732506,85.046684 119.802414,89.053993 120.487427,92.005592
	C120.902229,93.792900 124.916328,95.419441 127.534019,95.889687
	C134.363129,97.116478 140.510529,94.546524 146.272751,91.033325
	C148.343933,95.921928 151.363693,97.700150 156.204544,96.306381
	C162.493652,94.495659 168.664566,92.274368 174.384201,90.394814
	C176.377762,92.115242 178.325333,94.970322 180.930435,95.827904
	C189.347992,98.598900 196.320419,94.179222 203.202896,89.992912
	C205.934189,94.356331 209.474792,97.553619 214.765915,96.566498
	C228.227234,94.055130 241.621857,91.186172 255.836319,88.089455
M17.910482,74.413185
	C16.931322,76.309830 15.741436,78.129517 15.015158,80.118500
	C13.295711,84.827377 12.472822,89.899681 15.763161,94.017960
	C19.011850,98.084114 24.152678,97.614693 28.644337,96.582321
	C33.762974,95.405846 38.688766,93.390312 44.119038,91.600822
	C43.285755,93.056877 42.613373,94.231781 41.721455,95.790291
	C46.464504,97.952408 50.191223,96.769463 53.636772,93.854683
	C60.286682,88.229179 66.713890,82.311722 73.646820,77.061150
	C77.316216,74.282173 81.854240,72.650146 86.000122,70.500320
	C86.213326,70.896599 86.426537,71.292885 86.639740,71.689163
	C83.313492,75.749825 79.780388,79.662498 76.732765,83.922485
	C74.654701,86.827232 72.525864,90.679123 75.281319,93.766388
	C77.032089,95.727989 81.050804,97.326973 83.457497,96.721901
	C89.994751,95.078384 96.481400,92.686440 102.460335,89.576500
	C105.992020,87.739502 109.787186,84.555664 107.240746,78.634071
	C100.690758,81.908997 95.376572,88.187508 86.235306,87.774567
	C87.872879,85.468124 88.849808,83.992386 89.927094,82.593956
	C92.924934,78.702431 96.420837,75.107574 98.861130,70.897675
	C101.378571,66.554680 101.155876,61.034206 93.954483,62.065777
	C90.138580,62.612396 86.360901,63.647297 82.675331,64.808792
	C79.973671,65.660210 77.449966,67.076302 74.031761,68.605385
	C75.496399,66.015839 76.404518,64.410248 77.449890,62.561985
	C70.225548,60.838085 65.194351,63.063511 61.298634,68.375076
	C54.261913,77.969223 44.829987,84.292892 33.659050,87.998985
	C31.555777,88.696770 29.026793,88.111389 26.694252,88.118111
	C26.923849,85.795395 26.340609,82.894501 27.514833,81.243706
	C35.191322,70.451645 43.053123,59.776180 51.257675,49.380928
	C55.820213,43.600151 61.161400,38.433929 66.176056,32.964123
	C62.676182,30.406610 54.491695,31.171146 51.087826,34.450794
	C38.719334,46.367920 26.752256,58.645832 17.910482,74.413185
M185.445480,54.040222
	C189.445923,50.831673 193.446350,47.623119 197.897552,44.053032
	C193.019135,40.374268 188.856232,42.404686 185.665817,44.028149
	C179.901459,46.961372 174.819229,51.153046 171.779526,57.007500
	C172.191040,57.678082 172.602570,58.348663 173.014099,59.019241
	C176.979889,57.534927 180.945694,56.050617 185.445480,54.040222
M66.939674,26.976463
	C73.207779,24.057997 79.127312,20.710699 83.201065,14.454095
	C71.672394,11.543673 62.196198,20.263714 59.657284,26.995079
	C61.877014,26.995079 63.996838,26.995079 66.939674,26.976463
z"/>
<path fill="#FFFFFF" opacity="1.000000" stroke="none"
	d="
M255.439743,88.274902
	C241.621857,91.186172 228.227234,94.055130 214.765915,96.566498
	C209.474792,97.553619 205.934189,94.356331 203.202896,89.992912
	C196.320419,94.179222 189.347992,98.598900 180.930435,95.827904
	C178.325333,94.970322 176.377762,92.115242 174.384201,90.394814
	C168.664566,92.274368 162.493652,94.495659 156.204544,96.306381
	C151.363693,97.700150 148.343933,95.921928 146.272751,91.033325
	C140.510529,94.546524 134.363129,97.116478 127.534019,95.889687
	C124.916328,95.419441 120.902229,93.792900 120.487427,92.005592
	C119.802414,89.053993 120.732506,85.046684 122.409668,82.383377
	C125.091171,78.125198 128.941559,74.603104 132.323166,70.740868
	C122.526756,66.676071 117.533394,75.533768 110.591927,79.567322
	C109.717239,73.710815 115.423218,64.622063 121.690331,63.410629
	C128.735001,62.048885 136.146164,62.058029 143.365021,62.333191
	C147.262665,62.481758 148.581573,66.108299 146.054779,69.441284
	C142.185104,74.545609 137.666351,79.154968 133.489883,84.031593
	C132.416748,85.284622 131.593521,86.751686 129.831665,89.322533
	C138.883423,87.889969 145.744980,85.369148 151.012558,79.693825
	C154.468506,75.970375 157.443436,71.801826 160.655167,67.849983
	C164.821854,62.723099 170.291718,61.295731 178.386154,62.483490
	C174.138062,66.973480 170.401245,70.520073 167.153992,74.469223
	C163.942261,78.375122 161.224854,82.687454 158.807922,87.269554
	C166.081070,87.265541 170.954254,83.115372 176.029358,79.450005
	C182.390854,74.855583 188.446915,69.794762 195.057297,65.601242
	C201.086426,61.776451 208.194794,61.352631 215.137360,62.103813
	C221.257706,62.766026 225.773636,68.407036 222.053375,74.752289
	C220.321030,77.706947 218.568314,80.651115 216.911072,83.647728
	C216.083084,85.144859 215.448929,86.749161 214.026611,89.814804
	C222.563568,87.867638 229.694016,86.369141 236.757797,84.603905
	C252.179184,80.750107 267.428558,75.717606 283.638458,77.101761
	C287.113647,77.398499 290.986938,78.266495 293.731598,80.207764
	C295.878662,81.726364 296.563416,85.312469 297.743042,87.670410
	C288.723907,87.063248 280.825287,86.129303 272.927338,86.134804
	C267.229889,86.138779 261.533295,87.392914 255.439743,88.274902
M196.568069,74.955910
	C192.706909,78.967926 188.043015,82.445259 186.936142,88.592079
	C194.969559,89.296089 210.211731,76.926987 211.581467,68.809418
	C205.749054,68.264053 201.647812,71.977654 196.568069,74.955910
z"/>
<path fill="#FFFFFF" opacity="1.000000" stroke="none"
	d="
M17.991142,74.044907
	C26.752256,58.645832 38.719334,46.367920 51.087826,34.450794
	C54.491695,31.171146 62.676182,30.406610 66.176056,32.964123
	C61.161400,38.433929 55.820213,43.600151 51.257675,49.380928
	C43.053123,59.776180 35.191322,70.451645 27.514833,81.243706
	C26.340609,82.894501 26.923849,85.795395 26.694252,88.118111
	C29.026793,88.111389 31.555777,88.696770 33.659050,87.998985
	C44.829987,84.292892 54.261913,77.969223 61.298634,68.375076
	C65.194351,63.063511 70.225548,60.838085 77.449890,62.561985
	C76.404518,64.410248 75.496399,66.015839 74.031761,68.605385
	C77.449966,67.076302 79.973671,65.660210 82.675331,64.808792
	C86.360901,63.647297 90.138580,62.612396 93.954483,62.065777
	C101.155876,61.034206 101.378571,66.554680 98.861130,70.897675
	C96.420837,75.107574 92.924934,78.702431 89.927094,82.593956
	C88.849808,83.992386 87.872879,85.468124 86.235306,87.774567
	C95.376572,88.187508 100.690758,81.908997 107.240746,78.634071
	C109.787186,84.555664 105.992020,87.739502 102.460335,89.576500
	C96.481400,92.686440 89.994751,95.078384 83.457497,96.721901
	C81.050804,97.326973 77.032089,95.727989 75.281319,93.766388
	C72.525864,90.679123 74.654701,86.827232 76.732765,83.922485
	C79.780388,79.662498 83.313492,75.749825 86.639740,71.689163
	C86.426537,71.292885 86.213326,70.896599 86.000122,70.500320
	C81.854240,72.650146 77.316216,74.282173 73.646820,77.061150
	C66.713890,82.311722 60.286682,88.229179 53.636772,93.854683
	C50.191223,96.769463 46.464504,97.952408 41.721455,95.790291
	C42.613373,94.231781 43.285755,93.056877 44.119038,91.600822
	C38.688766,93.390312 33.762974,95.405846 28.644337,96.582321
	C24.152678,97.614693 19.011850,98.084114 15.763161,94.017960
	C12.472822,89.899681 13.295711,84.827377 15.015158,80.118500
	C15.741436,78.129517 16.931322,76.309830 17.991142,74.044907
M73.297928,68.356705
	C73.541702,68.653549 73.785477,68.950394 74.029251,69.247231
	C73.996368,68.834358 73.963478,68.421486 73.297928,68.356705
z"/>
<path fill="#FFFFFF" opacity="1.000000" stroke="none"
	d="
M185.178482,54.303261
	C180.945694,56.050617 176.979889,57.534927 173.014099,59.019241
	C172.602570,58.348663 172.191040,57.678082 171.779526,57.007500
	C174.819229,51.153046 179.901459,46.961372 185.665817,44.028149
	C188.856232,42.404686 193.019135,40.374268 197.897552,44.053032
	C193.446350,47.623119 189.445923,50.831673 185.178482,54.303261
z"/>
<path fill="#FFFFFF" opacity="1.000000" stroke="none"
	d="
M66.528168,26.985771
	C63.996838,26.995079 61.877014,26.995079 59.657284,26.995079
	C62.196198,20.263714 71.672394,11.543673 83.201065,14.454095
	C79.127312,20.710699 73.207779,24.057997 66.528168,26.985771
z"/>
<path fill="#FFFFFF" opacity="0" stroke="none"
	d="
M196.826431,74.699387
	C201.647812,71.977654 205.749054,68.264053 211.581467,68.809418
	C210.211731,76.926987 194.969559,89.296089 186.936142,88.592079
	C188.043015,82.445259 192.706909,78.967926 196.826431,74.699387
z"/>
<path fill="#FFFFFF" opacity="0" stroke="none"
	d="
M73.614258,68.182663
	C73.963478,68.421486 73.996368,68.834358 74.029251,69.247231
	C73.785477,68.950394 73.541702,68.653549 73.614258,68.182663
z"/>
</svg>
