<?xml version="1.0" encoding="utf-8"?>
<!-- Generator: Adobe Illustrator 25.1.0, SVG Export Plug-In . SVG Version: 6.00 Build 0)  -->
<svg version="1.1" id="Calque_1" xmlns="http://www.w3.org/2000/svg" xmlns:xlink="http://www.w3.org/1999/xlink" x="0px" y="0px"
	 width="110px" height="110px" viewBox="0 0 110 110" style="enable-background:new 0 0 110 110;" xml:space="preserve">
<style type="text/css">
	.st0{fill:#F7DF1E;}
</style>
<rect class="st0" width="110" height="110"/>
<path d="M73.9,85.9c2.2,3.6,5.1,6.3,10.2,6.3c4.3,0,7-2.1,7-5.1c0-3.5-2.8-4.8-7.5-6.9L81,79.1C73.5,76,68.6,72,68.6,63.6
	c0-7.8,5.9-13.7,15.1-13.7c6.6,0,11.3,2.3,14.7,8.3l-8,5.2c-1.8-3.2-3.7-4.4-6.7-4.4c-3,0-4.9,1.9-4.9,4.4c0,3.1,1.9,4.4,6.4,6.3
	l2.6,1.1c8.8,3.8,13.7,7.6,13.7,16.2c0,9.3-7.3,14.4-17.1,14.4c-9.6,0-15.8-4.6-18.8-10.6L73.9,85.9z M37.4,86.8
	c1.6,2.9,3.1,5.3,6.7,5.3c3.4,0,5.5-1.3,5.5-6.5V50.5h10.3v35.3c0,10.7-6.3,15.6-15.4,15.6c-8.3,0-13.1-4.3-15.5-9.4L37.4,86.8z"/>
</svg>
