<svg version="1.1" id="Layer_1" xmlns="http://www.w3.org/2000/svg" xmlns:xlink="http://www.w3.org/1999/xlink" x="0px" y="0px"
	 width="100%" viewBox="0 0 400 400" enable-background="new 0 0 400 400" xml:space="preserve">
<path fill="#FFFFFF" opacity="1.000000" stroke="none"
	d="
M190.519348,98.953903
	C205.325775,101.899071 206.380051,103.394554 204.082047,116.884804
	C201.125824,134.238983 198.249451,151.606827 195.359024,168.972153
	C194.268890,175.521469 193.213669,182.076828 192.186569,188.636322
	C191.751480,191.414932 190.616074,193.276993 187.419754,193.275314
	C173.768875,193.268112 160.117538,193.273697 146.467285,193.385666
	C142.311798,193.419739 142.668411,190.642441 142.668304,187.949646
	C142.667343,162.977112 142.635468,138.004501 142.691895,113.032082
	C142.702316,108.419220 142.205811,103.767288 143.155426,98.879692
	C158.891281,98.879692 174.482971,98.879692 190.519348,98.953903
M165.349243,166.422760
	C165.575211,169.514267 164.817535,172.690109 165.907776,175.655258
	C172.097916,175.655258 178.072113,175.964508 183.998978,175.567352
	C189.797195,175.178818 193.388397,171.042572 193.674194,165.429749
	C194.028671,158.468277 191.987823,155.830917 185.269226,154.023315
	C182.630066,153.313248 180.002747,153.384232 177.354752,153.370392
	C165.351273,153.307632 165.351196,153.321274 165.349243,166.422760
M182.484207,137.275513
	C188.846542,135.439423 191.858948,131.733475 191.602310,126.058090
	C191.323547,119.893959 188.266830,116.916130 180.942368,115.946037
	C178.159653,115.577454 175.331787,115.431976 172.522415,115.405243
	C165.366226,115.337151 165.365768,115.386879 165.350616,122.496086
	C165.316544,138.504120 165.316528,138.504120 182.484207,137.275513
z"/>
<path fill="#FFFFFF" opacity="1.000000" stroke="none"
	d="
M196.725998,191.891266
	C200.721542,167.381836 204.718765,143.313492 208.598007,119.226151
	C209.006653,116.688728 209.320358,114.714478 212.547531,114.676857
	C221.059540,114.577637 229.488281,114.667236 237.612625,117.873100
	C247.663071,121.838997 253.864731,128.917877 254.905960,139.694870
	C256.010559,151.127655 252.102081,160.641190 242.308044,167.265137
	C240.953506,168.181244 239.499924,168.950897 238.079391,169.795975
	C248.056503,181.989182 254.869705,195.891418 263.946625,210.109207
	C254.993423,210.264969 247.751343,210.776581 240.518509,209.813492
	C237.298706,209.384750 235.415329,207.067657 233.864075,204.314117
	C229.210709,196.054153 224.411530,187.876434 219.686127,179.656891
	C218.495590,177.586014 217.194382,175.798721 214.540619,175.394333
	C209.470367,174.621658 208.289429,175.521469 208.267914,180.694397
	C208.233978,188.851059 208.124100,197.010910 208.309799,205.163406
	C208.399124,209.085770 206.877792,210.715759 203.019653,210.315689
	C202.031570,210.213211 201.023605,210.309845 200.024918,210.300781
	C193.871796,210.244904 193.670731,210.038589 194.635818,204.108353
	C195.276138,200.173782 196.004669,196.253540 196.725998,191.891266
M209.402710,132.782166
	C207.063629,140.749924 208.619980,148.872940 208.505325,156.925690
	C208.486374,158.257782 209.847107,158.745209 211.097549,158.755569
	C214.914963,158.787231 218.758545,159.215012 222.516815,158.147308
	C228.691086,156.393234 232.664047,151.179306 232.633972,144.884003
	C232.603439,138.493790 229.122513,134.628403 222.093369,132.938019
	C218.134995,131.986099 214.171448,132.171143 209.402710,132.782166
z"/>
<path fill="#FFFFFF" opacity="1.000000" stroke="none"
	d="
M48.838417,240.663177
	C50.147167,240.689713 50.988079,240.638321 51.807831,240.746811
	C58.079933,241.576874 64.047783,243.005981 66.795250,249.682434
	C69.164459,255.439682 68.050705,259.873657 62.773979,266.554016
	C62.636143,267.490967 63.180595,268.089417 63.789619,268.680450
	C72.602608,277.233398 70.406586,289.728119 58.833374,294.331696
	C48.960396,298.258942 38.438297,295.906189 28.196936,296.073944
	C26.033607,296.109375 25.873716,293.957367 25.870615,292.290405
	C25.840940,276.325653 25.872795,260.360779 25.850700,244.396011
	C25.846821,241.592834 27.254740,240.620529 29.901201,240.649857
	C36.053673,240.718063 42.207504,240.663849 48.838417,240.663177
M51.701916,284.483459
	C54.300896,283.165833 55.993080,281.188385 55.405365,278.148132
	C54.925510,275.665863 53.069836,273.808228 50.687935,273.582794
	C47.164673,273.249298 43.456581,272.273926 40.066551,274.345795
	C39.821560,274.495514 39.704983,274.888794 39.575413,275.189026
	C36.907417,281.371429 40.035698,286.055450 46.604755,285.618317
	C48.070316,285.520782 49.511272,285.053345 51.701916,284.483459
M50.006657,262.721649
	C50.693756,262.264679 51.501854,261.919922 52.047291,261.331604
	C54.598911,258.579468 54.359585,254.694824 51.586563,252.643707
	C48.884285,250.644928 40.896561,250.467453 39.962490,252.634155
	C38.694416,255.575638 38.837292,258.953339 39.749008,261.887085
	C40.648251,264.780670 43.720512,263.402222 45.882702,263.572906
	C46.995018,263.660675 48.147400,263.240814 50.006657,262.721649
z"/>
<path fill="#FFFFFF" opacity="1.000000" stroke="none"
	d="
M257.752991,295.169922
	C237.657837,300.662811 221.259720,291.500366 218.504044,273.007172
	C216.145477,257.178894 224.777985,242.537979 242.715439,240.088379
	C258.688965,237.906998 273.439331,247.724396 275.516785,263.383240
	C277.453644,277.982239 272.146454,288.367249 257.752991,295.169922
M235.511398,257.098511
	C232.525574,261.058319 232.092804,265.627625 232.342941,270.360901
	C232.772888,278.496643 237.645599,284.156525 244.771225,284.794220
	C253.730133,285.596008 259.124268,281.832794 261.297668,273.264618
	C263.236206,265.622253 260.384888,256.791290 254.984619,253.712265
	C248.283112,249.891312 241.892242,250.840210 235.511398,257.098511
z"/>
<path fill="#FFFFFF" opacity="1.000000" stroke="none"
	d="
M167.852829,272.416687
	C164.459702,288.322754 154.813187,296.164429 138.870285,296.289581
	C133.042633,296.335327 127.211403,296.197327 121.387642,296.356628
	C118.479126,296.436249 117.207901,295.681030 117.256516,292.451080
	C117.491982,276.804230 117.598518,261.153809 117.543137,245.505402
	C117.530113,241.825409 118.771065,240.459305 122.455025,240.610306
	C127.774345,240.828339 133.109589,240.645889 138.438019,240.655548
	C157.836197,240.690689 168.999985,252.552902 167.852829,272.416687
M137.446411,251.358368
	C134.749054,251.503311 131.333328,250.556061 131.319031,255.044220
	C131.291000,263.849396 131.300369,272.655182 131.384216,281.459869
	C131.407043,283.855865 132.352509,285.405029 135.211670,285.642090
	C145.126129,286.464020 152.951904,280.636322 153.689011,271.636017
	C154.742844,258.768280 149.731308,252.167297 137.446411,251.358368
z"/>
<path fill="#FFFFFF" opacity="1.000000" stroke="none"
	d="
M206.832367,243.952026
	C217.109573,252.099487 216.370193,262.309235 204.850784,272.900665
	C209.278473,280.267456 214.746063,287.156372 218.126221,295.605957
	C213.482101,296.766632 209.350037,296.353302 205.262604,296.087219
	C203.079727,295.945129 201.909866,294.160095 200.896164,292.357849
	C198.531067,288.153076 196.109818,283.979828 193.711823,279.793549
	C192.601135,277.854614 191.338699,275.811249 188.736343,276.577942
	C186.401993,277.265625 187.149612,279.609772 187.071304,281.317291
	C186.911133,284.808411 186.858795,288.311310 186.944580,291.804871
	C187.020706,294.904114 185.879898,296.578674 182.583939,296.300964
	C182.088135,296.259186 181.585342,296.298859 181.085800,296.303101
	C172.785599,296.373627 172.780716,296.373749 172.785568,288.203491
	C172.793884,274.215454 172.943497,260.225494 172.742523,246.240494
	C172.678955,241.817749 174.252884,240.337463 178.569809,240.588287
	C183.714798,240.887222 188.890289,240.656067 194.052536,240.664932
	C198.456528,240.672501 202.634567,241.607452 206.832367,243.952026
M198.542282,253.862305
	C195.807220,251.089859 192.190506,250.338974 188.947128,251.662109
	C185.498825,253.068817 187.425598,256.897614 187.006622,259.656769
	C186.836456,260.777313 187.010422,261.962585 187.118790,263.109833
	C187.257004,264.572968 187.973831,265.634735 189.546661,265.763702
	C192.889694,266.037811 196.170868,266.127472 198.536102,263.032532
	C200.667557,260.243439 201.265228,257.442535 198.542282,253.862305
z"/>
<path fill="#FFFFFF" opacity="1.000000" stroke="none"
	d="
M355.516541,251.554779
	C356.464264,250.154694 357.214020,249.054626 357.973419,247.961258
	C363.382538,240.173401 367.961365,238.683655 378.506836,241.660995
	C372.609009,249.863663 366.833771,257.895813 361.035919,265.959473
	C367.412262,275.664764 374.237732,284.965027 379.679962,295.310852
	C369.466888,298.144714 365.191498,296.741516 359.817963,288.931427
	C356.895844,284.684296 354.176422,280.297974 351.350952,275.984009
	C350.064880,274.020508 348.342041,272.694427 345.911469,273.495148
	C343.544159,274.274994 344.279938,276.511658 344.244141,278.220520
	C344.146484,282.879242 344.146149,287.542053 344.218842,292.201538
	C344.265137,295.167328 342.937500,296.196136 339.998535,296.335236
	C329.913422,296.812531 329.976196,296.908142 330.022247,286.928497
	C330.082947,273.779022 330.001190,260.628845 330.059082,247.479355
	C330.089417,240.590591 330.183044,240.938858 338.083313,240.530045
	C343.553528,240.246994 344.492706,242.675980 344.312744,247.314728
	C344.127991,252.077225 343.774719,256.905853 344.779785,262.166809
	C351.200012,261.362793 352.070007,255.343369 355.516541,251.554779
z"/>
<path fill="#FFFFFF" opacity="1.000000" stroke="none"
	d="
M91.589005,251.426620
	C87.278008,253.992157 88.890160,257.796234 89.439468,260.922943
	C89.922371,263.671692 92.979012,262.633606 95.013405,262.797791
	C96.669418,262.931396 98.344635,262.813416 100.010971,262.835114
	C105.547127,262.907227 106.935234,264.686401 106.119049,270.282440
	C105.829124,272.270172 105.000504,273.315582 102.952568,273.310425
	C100.286232,273.303711 97.594025,273.571625 94.959114,273.289764
	C90.357483,272.797546 88.771149,274.616211 88.862473,279.210510
	C88.951332,283.681366 90.004631,286.160797 95.099777,285.714966
	C99.068756,285.367676 103.094482,285.717316 107.092575,285.637115
	C109.704559,285.584717 111.965981,285.808441 111.341957,289.306213
	C110.854950,292.036011 112.887306,296.259094 107.489197,296.268219
	C97.823387,296.284576 88.157471,296.251709 78.491730,296.282501
	C75.967827,296.290527 74.824104,295.057526 74.826630,292.624237
	C74.843437,276.459137 74.865799,260.294037 74.886292,244.128922
	C74.889519,241.587296 76.253853,240.646576 78.686432,240.658508
	C88.352234,240.705948 98.018730,240.733917 107.684212,240.663605
	C111.562874,240.635406 111.276268,243.266754 111.269745,245.802795
	C111.262886,248.471588 111.706635,251.376923 107.520325,251.318542
	C102.355659,251.246521 97.188591,251.347290 91.589005,251.426620
z"/>
<path fill="#FFFFFF" opacity="1.000000" stroke="none"
	d="
M312.196442,240.437363
	C315.481781,240.809784 318.292755,241.628693 320.602570,243.182205
	C322.765900,244.637207 326.951996,245.296753 325.022339,249.590286
	C322.586426,255.010223 319.712067,256.085175 314.905151,253.668091
	C306.991394,249.688751 299.556366,251.137772 295.408295,257.467804
	C290.493744,264.967499 291.333282,277.079773 297.108887,282.001709
	C301.243500,285.525208 309.083008,286.410980 313.981140,283.031433
	C318.376740,279.998627 320.883514,281.842255 323.663940,285.026855
	C325.331970,286.937378 325.246918,288.504608 323.529236,290.212524
	C319.712067,294.007904 315.116913,295.890869 309.768280,296.500000
	C298.506622,297.782593 288.570465,295.427338 282.471527,285.196838
	C275.795471,273.998322 275.684875,262.166748 283.136932,251.281357
	C289.942657,241.340057 300.227478,238.763168 312.196442,240.437363
z"/>
</svg>
