<svg width="140" height="61" viewBox="0 0 140 61" fill="none" xmlns="http://www.w3.org/2000/svg">
<rect x="57.9019" y="41.27" width="82.0962" height="19.5213" rx="2.8" fill="#FFCA28"/>
<path d="M130.53 52.6478L132.697 46.9569H134.421L129.737 58.0031H128.303L129.722 54.3261L126.502 46.9569H128.196L130.53 52.6478Z" fill="#25241D"/>
<path d="M123.911 54.5851V50.2828C123.911 48.6656 123.164 48.1011 122.355 48.1011C121.562 48.1011 119.899 48.6351 119.899 51.0456V54.5851H118.419V46.9569H119.899V48.4825C120.219 47.3993 121.211 46.7891 122.462 46.7891C124.11 46.7891 125.391 47.8265 125.391 50.2828V54.5851H123.911Z" fill="#25241D"/>
<path d="M108.051 50.771C108.051 48.5893 109.546 46.7891 111.835 46.7891C112.857 46.7891 113.864 47.14 114.596 48.1774V46.9569H116.076V54.5851H114.596V53.3646C113.864 54.402 112.857 54.7529 111.835 54.7529C109.546 54.7529 108.051 52.9527 108.051 50.771ZM114.627 50.771C114.612 49.2301 113.559 48.1011 112.018 48.1011C110.431 48.1011 109.531 49.3216 109.531 50.771C109.531 52.2204 110.431 53.4409 112.018 53.4409C113.559 53.4409 114.612 52.3119 114.627 50.771Z" fill="#25241D"/>
<path d="M106.837 50.7712C106.837 52.953 105.342 54.7534 103.054 54.7534C102.031 54.7534 101.024 54.4024 100.292 53.3649V58.0031H98.812V46.9569H100.292V48.1775C101.024 47.14 102.031 46.7891 103.054 46.7891C105.342 46.7891 106.837 48.5894 106.837 50.7712ZM100.261 50.7712C100.277 52.3122 101.329 53.4412 102.87 53.4412C104.457 53.4412 105.357 52.2207 105.357 50.7712C105.357 49.3218 104.457 48.1012 102.87 48.1012C101.329 48.1012 100.277 49.2302 100.261 50.7712Z" fill="#25241D"/>
<path d="M89.8907 54.5855V50.283C89.8907 48.6657 89.1431 48.1012 88.3345 48.1012C87.5411 48.1012 86.1679 48.6352 86.1679 51.0458V54.5855H84.688V46.9569H86.1679V48.4826C86.4883 47.3689 87.4801 46.7891 88.6091 46.7891C89.3414 46.7891 90.44 47.0332 91.035 48.3911C91.6605 47.0637 92.7133 46.7891 93.6287 46.7891C95.4291 46.7891 96.5734 47.8266 96.5734 50.283V54.5855H95.0934V50.283C95.0934 48.6657 94.3458 48.1012 93.5372 48.1012C92.8201 48.1012 91.4469 48.5437 91.3707 50.878V54.5855H89.8907Z" fill="#25241D"/>
<path d="M74.916 50.7708C74.916 48.5739 76.7163 46.7889 78.9132 46.7889C81.1254 46.7889 82.9256 48.5892 82.9256 50.7708C82.9256 52.9678 81.1254 54.7527 78.9132 54.7527C76.7163 54.7527 74.916 52.983 74.916 50.7708ZM76.3959 50.7861C76.3959 52.2507 77.5249 53.4407 78.9132 53.4407C80.3168 53.4407 81.4457 52.2507 81.4457 50.7861C81.4457 49.3062 80.3168 48.101 78.9132 48.101C77.5249 48.101 76.3959 49.3062 76.3959 50.7861Z" fill="#25241D"/>
<path d="M67.0342 50.8624C67.0342 48.6197 68.5446 46.7889 71.3212 46.7889C72.0078 46.7889 73.0299 46.9567 74.0521 47.7196L73.3503 48.7265C72.5417 48.1162 71.5806 48.101 71.3822 48.101C69.7346 48.101 68.514 49.1994 68.514 50.7708C68.514 52.3422 69.7346 53.4407 71.3822 53.4407C71.5806 53.4407 72.5417 53.4254 73.3503 52.8152L74.0521 53.8221C73.0299 54.5849 72.0078 54.7527 71.3212 54.7527C68.6208 54.7527 67.0342 53.0288 67.0342 50.8624Z" fill="#25241D"/>
<path d="M63.4795 53.6396C63.4795 53.0139 63.9678 52.5103 64.5935 52.5103C65.2192 52.5103 65.7228 53.0139 65.7228 53.6396C65.7228 54.2652 65.2192 54.7536 64.5935 54.7536C63.9678 54.7536 63.4795 54.2652 63.4795 53.6396Z" fill="#25241D"/>
<path fill-rule="evenodd" clip-rule="evenodd" d="M114.742 0H121.39V10.9683C123.344 9.63106 125.704 8.88858 128.168 8.88858C134.46 8.88858 139.998 13.7125 139.998 20.8144C139.998 27.9609 134.46 32.7849 128.168 32.7849C125.704 32.7849 123.344 32.0424 121.39 30.7024V32.105H114.742V0ZM126.84 26.8997C127.269 27.0098 127.714 27.0676 128.168 27.0676C129.096 27.0676 129.983 26.8281 130.77 26.3968C132.827 25.3926 134.244 23.2802 134.244 20.8367C134.244 18.4009 132.836 16.294 130.789 15.286C129.997 14.8493 129.103 14.6058 128.168 14.6058C127.714 14.6058 127.268 14.6637 126.838 14.774C124.009 15.3416 121.877 17.8402 121.877 20.8367C121.877 23.8337 124.009 26.3327 126.84 26.8997Z" fill="#25241D"/>
<path d="M86.9565 20.8145C86.9565 13.6679 92.8971 8.88866 99.5523 8.88866C106.252 8.88866 112.148 13.7126 112.148 20.8145C112.148 27.961 106.252 32.7849 99.5523 32.7849C92.8971 32.7849 86.9565 28.0057 86.9565 20.8145ZM93.4331 20.8145C93.4331 24.4324 96.2917 27.0677 99.5523 27.0677C102.858 27.0677 105.672 24.3877 105.672 20.8145C105.672 17.2859 102.858 14.6059 99.5523 14.6059C96.2917 14.6059 93.4331 17.2412 93.4331 20.8145Z" fill="#25241D"/>
<path d="M84.2988 0.98262V18.4917C84.2988 28.0502 79.6089 32.7848 71.301 32.7848C62.3678 32.7848 59.2412 26.7549 59.2412 21.7969C59.2412 19.9656 59.8219 18.0003 60.8045 16.571H67.1918C66.0751 18.3577 65.8071 20.2783 65.8071 21.3056C65.8071 23.9856 67.2811 26.9782 71.2117 26.9782C75.7676 26.9782 77.3756 24.0302 77.3756 18.4917V0.98262H84.2988Z" fill="#25241D"/>
<path d="M47.9609 23.7176L53.4102 9.37984H60.7354L44.4323 45.883H37.7324L44.4323 30.3728L35.0078 9.37984H42.5117L47.9609 23.7176Z" fill="#25241D"/>
<path d="M24.7003 14.3826C21.797 14.3826 20.9037 16.9285 20.9037 20.0105V32.2936H14.2931V19.9658C14.2931 16.8392 13.3998 14.3826 10.4518 14.3826C7.54854 14.3826 6.65522 16.9285 6.65522 20.0105V32.2936H0V9.37998H6.65522V12.5066C8.1292 10.2286 10.2732 8.88866 12.7745 8.88866C16.2584 8.88866 18.6257 10.4073 19.787 12.7299C21.529 9.37998 24.8343 8.88866 27.0229 8.88866C33.4548 8.88866 35.1968 14.0252 35.1968 19.8318V32.2936H28.5415V19.9658C28.5415 16.8392 27.6482 14.3826 24.7003 14.3826Z" fill="#25241D"/>
</svg>
