<?xml version="1.0" encoding="utf-8"?>
<!-- Generator: Adobe Illustrator 25.1.0, SVG Export Plug-In . SVG Version: 6.00 Build 0)  -->
<svg version="1.1" id="Calque_1" xmlns="http://www.w3.org/2000/svg" xmlns:xlink="http://www.w3.org/1999/xlink" x="0px" y="0px"
	 width="110px" height="110px" viewBox="0 0 110 110" style="enable-background:new 0 0 110 110;" xml:space="preserve">
<style type="text/css">
	.st0{fill:#FFFFFF;}
</style>
<g id="fond">
</g>
<g id="compacte">
</g>
<g id="rectangle">
</g>
<path class="st0" d="M55,0C24.6,0,0,24.6,0,55c0,30.4,24.6,55,55,55s55-24.6,55-55C110,24.6,85.4,0,55,0z M11.2,43
	c-0.9-0.9-0.9-2.4,0-3.4l7.2-7.2c0.9-0.9,2.4-0.9,3.4,0l16.4,16.4l29.3-29.3c0.9-0.9,2.4-0.9,3.4,0l7.2,7.2c0.9,0.9,0.9,2.4,0,3.4
	L48.8,59.4H27.6L11.2,43z M91.6,77.6c-0.9,0.9-2.4,0.9-3.4,0L71.8,61.2L42.5,90.5c-0.9,0.9-2.4,0.9-3.4,0l-7.2-7.2
	c-0.9-0.9-0.9-2.4,0-3.4l29.3-29.3h21.2L98.8,67c0.9,0.9,0.9,2.4,0,3.4L91.6,77.6z"/>
</svg>
