<svg version="1.1" id="Layer_1" xmlns="http://www.w3.org/2000/svg" xmlns:xlink="http://www.w3.org/1999/xlink" x="0px" y="0px"
	 width="100%" viewBox="0 0 288 186" enable-background="new 0 0 288 186" xml:space="preserve">
<path fill="#000000" opacity="0" stroke="none"
	d="
M203.000000,187.000000
	C135.666672,187.000000 68.333328,187.000000 1.000000,187.000000
	C1.000000,184.303207 1.000000,181.642654 1.441225,178.486755
	C8.841782,177.938705 8.798179,177.937164 9.034231,171.264084
	C9.092150,169.626785 9.536602,168.003143 9.803348,166.373230
	C10.330112,166.235931 10.856875,166.098618 11.383639,165.961319
	C13.048822,168.500931 14.947413,170.920517 16.328295,173.606308
	C18.837147,178.486008 22.608015,178.692505 27.756212,177.172806
	C26.355242,175.052216 25.235943,173.290619 24.049170,171.575699
	C21.614542,168.057602 19.648180,165.145187 24.011841,160.973709
	C27.664814,157.481613 26.555552,152.206680 24.578852,147.809494
	C22.889780,144.052139 19.460865,142.903000 15.474501,142.981033
	C10.651391,143.075439 5.824981,143.001236 1.000000,143.000000
	C1.000000,95.731659 1.000000,48.463314 1.000000,1.000000
	C59.687416,1.000000 118.375053,1.000000 177.803375,1.307330
	C174.711288,3.812340 170.878525,6.010020 166.698135,8.259716
	C162.575409,10.270273 158.800293,12.228815 154.681900,14.248304
	C151.200226,15.924775 148.061829,17.540298 144.563217,19.080009
	C138.482544,16.294668 132.762085,13.585135 126.870590,10.567105
	C121.395988,7.698832 116.092415,5.139058 110.191422,2.290943
	C110.191422,4.792173 110.191422,6.394903 110.118561,8.461413
	C110.034973,16.134233 109.915131,23.346083 110.100655,30.550066
	C110.140297,32.089825 111.288124,33.601048 111.714134,35.435516
	C111.024551,38.185349 110.546272,40.625076 110.047501,43.528587
	C110.022919,52.434410 109.840561,60.883141 110.157158,69.313133
	C110.224785,71.113617 111.679314,73.573830 113.226418,74.476860
	C118.395027,77.493767 123.895569,79.942024 129.584503,82.781143
	C135.269592,85.580612 140.639160,88.207062 146.331955,90.992188
	C152.739609,94.112892 158.824036,97.074913 165.099792,100.346497
	C171.310654,103.421028 177.330185,106.185997 183.828735,109.171005
	C183.828735,105.822090 183.828735,102.898788 183.898438,99.513000
	C183.977722,92.893761 184.036713,86.736351 183.953674,80.580841
	C183.937775,79.402298 183.712280,77.529236 182.989426,77.169167
	C177.755920,74.562263 172.369858,72.261665 166.885803,69.548492
	C157.188660,64.463287 147.637817,59.693684 138.244659,54.632721
	C140.277832,53.207958 142.153305,52.074558 144.352234,50.944267
	C145.100601,51.015743 145.525528,51.084110 146.116531,51.459232
	C152.175537,54.550579 158.068481,57.335167 164.131042,60.429367
	C170.629990,63.839451 176.959320,66.939919 183.824951,70.303116
	C183.824951,63.849785 183.824951,58.004021 183.896332,51.749718
	C183.537964,45.344238 186.626663,38.078163 178.317749,34.938354
	C178.744308,34.595066 178.930084,34.323578 179.492310,34.006447
	C183.030777,33.136921 184.329285,31.262083 184.082260,27.855341
	C183.748367,23.250353 183.907135,18.609642 183.912354,13.525256
	C183.980133,9.044169 183.990067,5.022085 184.000000,1.000000
	C218.937393,1.000000 253.874802,1.000000 289.000000,1.000000
	C289.000000,47.354057 289.000000,93.708374 288.600037,140.558960
	C284.460052,140.975601 283.983185,143.418121 283.994629,146.365189
	C284.029358,155.315506 284.120239,164.268188 283.951080,173.215469
	C283.880127,176.969391 285.453735,178.369919 289.000000,178.000000
	C289.000000,180.985336 289.000000,183.970688 289.000000,187.000000
	C262.312439,187.000000 235.624878,187.000000 208.468658,186.551636
	C208.000000,183.165955 208.000000,180.228653 208.000000,176.947571
	C209.520432,177.202332 210.312180,177.305984 211.091156,177.470200
	C216.227905,178.553162 221.094818,178.590164 224.504166,173.684402
	C227.782150,168.967636 227.754013,161.845200 224.426254,157.199127
	C220.954391,152.351822 216.096100,152.444672 210.963837,153.575439
	C209.870361,153.816360 208.547546,154.249451 207.635208,153.866974
	C203.588150,152.170303 202.999374,154.385315 203.003845,157.585983
	C203.017532,167.390625 203.003342,177.195328 203.000000,187.000000
M85.925453,143.085617
	C84.954781,144.540451 83.191574,145.970093 83.144386,147.454300
	C82.874634,155.938782 83.078590,164.436981 82.981987,172.928940
	C82.941078,176.525269 84.464592,178.133316 88.065628,178.008087
	C91.392349,177.892365 94.792870,178.373993 98.035294,177.835815
	C100.685516,177.395935 103.601906,176.373444 105.608139,174.674057
	C110.474693,170.551910 110.035469,166.285706 104.683228,158.564270
	C110.121567,149.203644 106.619598,143.041245 95.831993,143.003281
	C92.834564,142.992722 89.837013,143.017670 85.925453,143.085617
M52.363544,174.203323
	C57.859280,178.294250 63.868679,178.879990 70.347664,177.068436
	C75.168259,175.720581 77.322380,173.100479 77.123100,167.752548
	C76.746712,157.651810 77.045357,157.653000 66.923424,157.994797
	C64.522049,158.075882 62.115448,157.943665 62.051449,161.417084
	C61.996265,164.412033 63.809380,164.824020 66.229485,165.104568
	C67.437164,165.244568 68.528046,166.392044 69.671768,167.083817
	C68.570152,168.094040 67.634834,169.530807 66.336685,170.036880
	C61.913445,171.761261 58.362221,169.824722 56.047760,166.219559
	C53.434551,162.149063 53.416676,157.525650 56.236649,153.545837
	C58.987480,149.663635 63.302864,148.814224 67.376030,150.893570
	C71.637123,153.068832 74.438011,152.542389 76.952576,147.964462
	C71.470604,143.542679 65.793114,140.616226 58.634403,142.672195
	C45.427681,146.465103 41.849819,162.722839 52.363544,174.203323
M117.123970,143.125809
	C115.235054,143.125809 113.346138,143.125809 110.703712,143.125809
	C112.241524,146.202011 113.168037,148.703842 114.623550,150.846283
	C119.122192,157.468033 122.267044,164.369888 121.053780,172.690674
	C120.645348,175.491776 121.054504,178.024033 125.039856,178.010635
	C129.076508,177.997055 129.196152,175.394547 128.968552,172.616333
	C128.435211,166.106247 129.601334,160.179840 133.535248,154.733139
	C136.006470,151.311584 137.786575,147.390900 139.912521,143.630875
	C130.423553,140.195511 128.906326,148.107712 125.607590,153.293182
	C122.809471,149.682159 120.333183,146.486465 117.123970,143.125809
M156.981232,147.100861
	C161.422012,146.656784 165.164993,147.477097 167.581879,151.868256
	C168.050476,152.719666 170.218277,152.635849 171.602280,152.983444
	C171.709763,151.656403 172.422775,149.660400 171.821609,149.116211
	C168.970261,146.535187 166.074677,143.158661 162.619431,142.247513
	C152.267975,139.517822 144.339584,145.703400 142.220932,157.158600
	C140.877548,164.421921 145.245621,173.532318 151.529846,176.574020
	C157.977524,179.694824 165.837479,178.264069 170.598083,172.726486
	C171.601776,171.558990 172.364227,168.726837 171.691467,167.855118
	C169.848785,165.467422 168.538528,167.642029 167.115524,169.144775
	C162.757874,173.746582 156.311600,174.164413 151.880569,170.327972
	C144.774277,164.175217 147.182190,151.259506 156.981232,147.100861
M190.784256,153.220566
	C186.294159,152.883408 181.664825,152.173370 178.369324,156.325928
	C177.788193,157.058212 177.934570,158.367874 177.744995,159.410889
	C178.932419,159.606369 180.217758,160.176392 181.281387,159.898331
	C182.490311,159.582260 183.412445,158.285995 184.615021,157.806351
	C187.857895,156.512939 190.344467,157.114929 191.491379,161.317780
	C188.156982,161.859848 185.009003,162.006607 182.109543,162.932007
	C178.166565,164.190491 175.371704,166.845276 176.216415,171.465332
	C177.018677,175.853088 180.032715,177.934601 184.405914,177.957825
	C187.791183,177.975800 191.205383,178.021729 194.545044,177.584198
	C195.463654,177.463867 196.798477,175.682892 196.849152,174.612167
	C197.068756,169.970917 197.483139,165.195206 196.618408,160.700867
	C196.109360,158.055099 193.336472,155.844910 190.784256,153.220566
M269.132538,157.303772
	C270.378113,158.270416 271.623718,159.237061 273.910980,161.012115
	C269.182434,161.831528 265.873291,162.020737 262.836365,163.029510
	C259.125397,164.262207 256.462158,166.873917 257.173920,171.253906
	C257.887329,175.643875 260.791809,177.809250 265.178223,177.950363
	C266.495697,177.992752 267.819885,177.763824 269.143097,177.709122
	C270.724396,177.643738 272.365326,177.349640 273.878174,177.657333
	C276.781891,178.247940 277.962280,177.110596 277.966278,174.343063
	C277.972260,170.190109 278.116364,166.029510 277.912323,161.886429
	C277.734406,158.274094 276.779938,154.651459 272.770355,153.615585
	C268.399231,152.486328 263.783173,151.998596 260.116791,155.578278
	C259.249939,156.424652 259.175171,158.082352 258.736023,159.366821
	C260.171173,159.406158 261.683746,159.750732 263.022705,159.410965
	C264.882385,158.939102 266.611786,157.953812 269.132538,157.303772
M40.001144,173.206650
	C39.997520,164.556656 39.955429,155.906403 40.011993,147.256790
	C40.030758,144.386917 38.966251,142.958710 35.915367,142.992722
	C33.117817,143.023895 32.050392,144.320892 32.059956,146.968719
	C32.091789,155.784836 31.907284,164.607208 32.229851,173.411652
	C32.286301,174.952377 34.110195,177.205002 35.613941,177.743546
	C38.206196,178.671936 40.100891,177.244415 40.001144,173.206650
M251.875641,158.755081
	C254.698898,157.041168 256.722137,155.383652 252.605011,152.651611
	C251.626129,152.002014 251.610138,150.031525 250.884689,148.829483
	C250.285477,147.836624 249.292801,147.081238 248.474487,146.220627
	C247.671036,147.098267 246.810211,147.930847 246.077576,148.864090
	C244.980148,150.261963 244.220612,152.050613 242.870544,153.096008
	C240.706161,154.771988 240.262177,156.718216 242.749069,157.576920
	C246.313965,158.807816 245.986221,161.283432 245.998749,163.923447
	C246.014542,167.252014 245.802841,170.601120 246.122772,173.899307
	C246.252258,175.234131 247.526215,176.457947 248.279388,177.732285
	C249.179520,176.443527 250.733536,175.216324 250.861664,173.854904
	C251.311737,169.072235 251.271423,164.243423 251.875641,158.755081
M236.996048,172.260376
	C236.989044,167.131866 237.137405,161.995041 236.863892,156.880798
	C236.796967,155.629669 235.348801,154.452408 234.535675,153.241180
	C233.699310,154.427048 232.201202,155.580139 232.140579,156.804428
	C231.870850,162.250763 231.830902,167.727127 232.119888,173.170776
	C232.203186,174.740128 233.661530,176.236496 234.489487,177.766327
	C235.323669,176.238144 236.157852,174.709961 236.996048,172.260376
M232.101532,147.400879
	C233.669067,147.432678 235.302933,147.715195 236.760071,147.329712
	C237.151169,147.226227 237.488113,144.779205 236.971039,143.968796
	C236.427429,143.116791 234.047638,142.302231 233.827744,142.573181
	C232.850952,143.776611 232.361221,145.375351 232.101532,147.400879
z"/>
<path fill="#FFFFFF" opacity="1.000000" stroke="none"
	d="
M1.000000,143.468658
	C5.824981,143.001236 10.651391,143.075439 15.474501,142.981033
	C19.460865,142.903000 22.889780,144.052139 24.578852,147.809494
	C26.555552,152.206680 27.664814,157.481613 24.011841,160.973709
	C19.648180,165.145187 21.614542,168.057602 24.049170,171.575699
	C25.235943,173.290619 26.355242,175.052216 27.756212,177.172806
	C22.608015,178.692505 18.837147,178.486008 16.328295,173.606308
	C14.947413,170.920517 13.048822,168.500931 11.383639,165.961319
	C10.856875,166.098618 10.330112,166.235931 9.803348,166.373230
	C9.536602,168.003143 9.092150,169.626785 9.034231,171.264084
	C8.798179,177.937164 8.841782,177.938705 1.441225,177.995712
	C1.000000,166.645767 1.000000,155.291550 1.000000,143.468658
M10.829572,150.275345
	C10.349013,152.652008 9.692657,155.018280 9.550680,157.414993
	C9.525257,157.844162 12.020792,159.117966 12.670945,158.760941
	C14.588850,157.707748 17.414892,156.194458 17.626360,154.567566
	C18.138813,150.625061 14.956845,149.873413 10.829572,150.275345
z"/>
<path fill="#FFFFFF" opacity="1.000000" stroke="none"
	d="
M203.416656,187.000000
	C203.003342,177.195328 203.017532,167.390625 203.003845,157.585983
	C202.999374,154.385315 203.588150,152.170303 207.635208,153.866974
	C208.547546,154.249451 209.870361,153.816360 210.963837,153.575439
	C216.096100,152.444672 220.954391,152.351822 224.426254,157.199127
	C227.754013,161.845200 227.782150,168.967636 224.504166,173.684402
	C221.094818,178.590164 216.227905,178.553162 211.091156,177.470200
	C210.312180,177.305984 209.520432,177.202332 208.000000,176.947571
	C208.000000,180.228653 208.000000,183.165955 208.000000,186.551636
	C206.611115,187.000000 205.222214,187.000000 203.416656,187.000000
M221.502075,163.128326
	C219.505463,158.165070 216.544891,156.478729 212.547028,158.027496
	C208.888290,159.444855 207.345078,164.021484 208.693771,168.570786
	C210.008270,173.004822 213.226227,173.684082 216.880463,172.650055
	C221.158554,171.439499 221.647720,167.662262 221.502075,163.128326
z"/>
<path fill="#FFFFFF" opacity="1.000000" stroke="none"
	d="
M289.000000,177.531342
	C285.453735,178.369919 283.880127,176.969391 283.951080,173.215469
	C284.120239,164.268188 284.029358,155.315506 283.994629,146.365189
	C283.983185,143.418121 284.460052,140.975601 288.600037,141.027618
	C289.000000,153.020889 289.000000,165.041794 289.000000,177.531342
z"/>
<path fill="#FFFFFF" opacity="1.000000" stroke="none"
	d="
M167.045746,8.207698
	C170.878525,6.010020 174.711288,3.812340 178.272034,1.307330
	C179.714355,1.000000 181.428711,1.000000 183.571533,1.000000
	C183.990067,5.022085 183.980133,9.044169 183.596497,13.334326
	C182.817230,12.395081 182.157043,11.210112 182.048782,9.976696
	C181.493835,3.655074 180.953049,3.310238 175.446198,6.304112
	C174.580505,6.774756 173.808990,7.418615 172.668121,8.054935
	C170.576797,8.154224 168.811264,8.180960 167.045746,8.207698
z"/>
<path fill="#FFFFFF" opacity="1.000000" stroke="none"
	d="
M86.382484,143.055969
	C89.837013,143.017670 92.834564,142.992722 95.831993,143.003281
	C106.619598,143.041245 110.121567,149.203644 104.683228,158.564270
	C110.035469,166.285706 110.474693,170.551910 105.608139,174.674057
	C103.601906,176.373444 100.685516,177.395935 98.035294,177.835815
	C94.792870,178.373993 91.392349,177.892365 88.065628,178.008087
	C84.464592,178.133316 82.941078,176.525269 82.981987,172.928940
	C83.078590,164.436981 82.874634,155.938782 83.144386,147.454300
	C83.191574,145.970093 84.954781,144.540451 86.382484,143.055969
M97.667267,163.497131
	C91.104004,162.573395 90.177330,163.567444 91.867020,169.983353
	C93.439514,169.983353 95.143280,170.276230 96.681717,169.897507
	C98.100174,169.548294 99.341103,168.477966 100.660225,167.725266
	C99.901726,166.428650 99.143227,165.132034 97.667267,163.497131
M94.482712,155.951645
	C95.901176,154.952591 97.319649,153.953552 98.738121,152.954514
	C97.784386,152.009903 96.857117,150.327332 95.870758,150.291962
	C94.354729,150.237564 92.798096,151.314713 91.258698,151.911728
	C92.067429,153.242142 92.876160,154.572540 94.482712,155.951645
z"/>
<path fill="#FFFFFF" opacity="1.000000" stroke="none"
	d="
M52.052353,174.005707
	C41.849819,162.722839 45.427681,146.465103 58.634403,142.672195
	C65.793114,140.616226 71.470604,143.542679 76.952576,147.964462
	C74.438011,152.542389 71.637123,153.068832 67.376030,150.893570
	C63.302864,148.814224 58.987480,149.663635 56.236649,153.545837
	C53.416676,157.525650 53.434551,162.149063 56.047760,166.219559
	C58.362221,169.824722 61.913445,171.761261 66.336685,170.036880
	C67.634834,169.530807 68.570152,168.094040 69.671768,167.083817
	C68.528046,166.392044 67.437164,165.244568 66.229485,165.104568
	C63.809380,164.824020 61.996265,164.412033 62.051449,161.417084
	C62.115448,157.943665 64.522049,158.075882 66.923424,157.994797
	C77.045357,157.653000 76.746712,157.651810 77.123100,167.752548
	C77.322380,173.100479 75.168259,175.720581 70.347664,177.068436
	C63.868679,178.879990 57.859280,178.294250 52.052353,174.005707
z"/>
<path fill="#FFFFFF" opacity="1.000000" stroke="none"
	d="
M117.490433,143.208282
	C120.333183,146.486465 122.809471,149.682159 125.607590,153.293182
	C128.906326,148.107712 130.423553,140.195511 139.912521,143.630875
	C137.786575,147.390900 136.006470,151.311584 133.535248,154.733139
	C129.601334,160.179840 128.435211,166.106247 128.968552,172.616333
	C129.196152,175.394547 129.076508,177.997055 125.039856,178.010635
	C121.054504,178.024033 120.645348,175.491776 121.053780,172.690674
	C122.267044,164.369888 119.122192,157.468033 114.623550,150.846283
	C113.168037,148.703842 112.241524,146.202011 110.703712,143.125809
	C113.346138,143.125809 115.235054,143.125809 117.490433,143.208282
z"/>
<path fill="#FFFFFF" opacity="1.000000" stroke="none"
	d="
M156.584381,147.163422
	C147.182190,151.259506 144.774277,164.175217 151.880569,170.327972
	C156.311600,174.164413 162.757874,173.746582 167.115524,169.144775
	C168.538528,167.642029 169.848785,165.467422 171.691467,167.855118
	C172.364227,168.726837 171.601776,171.558990 170.598083,172.726486
	C165.837479,178.264069 157.977524,179.694824 151.529846,176.574020
	C145.245621,173.532318 140.877548,164.421921 142.220932,157.158600
	C144.339584,145.703400 152.267975,139.517822 162.619431,142.247513
	C166.074677,143.158661 168.970261,146.535187 171.821609,149.116211
	C172.422775,149.660400 171.709763,151.656403 171.602264,152.983444
	C170.218277,152.635849 168.050476,152.719666 167.581879,151.868256
	C165.164993,147.477097 161.422012,146.656784 156.584381,147.163422
z"/>
<path fill="#FFFFFF" opacity="1.000000" stroke="none"
	d="
M145.950470,51.152477
	C145.525528,51.084110 145.100601,51.015743 144.212708,50.639130
	C139.835220,48.170353 135.920685,46.009823 131.993851,43.474998
	C131.676895,41.828979 131.675812,40.368057 131.019699,39.315407
	C125.700310,30.781103 120.291908,22.301319 114.801926,13.875752
	C114.241211,13.015205 112.966461,12.619912 112.019928,11.608083
	C112.013786,10.139023 112.010757,9.070605 112.124817,7.732097
	C113.550255,7.504798 115.009758,7.187065 116.137764,7.659986
	C119.164223,8.928831 122.048828,10.536024 125.022446,12.376757
	C125.658020,14.259254 126.057343,15.898995 126.898491,17.267084
	C130.869354,23.725460 135.092590,30.031389 138.963562,36.547493
	C141.541473,40.886940 143.678329,45.488388 145.997086,50.267548
	C145.971207,50.759178 145.960831,50.955830 145.950470,51.152477
z"/>
<path fill="#FFFFFF" opacity="1.000000" stroke="none"
	d="
M191.183014,153.329697
	C193.336472,155.844910 196.109360,158.055099 196.618408,160.700867
	C197.483139,165.195206 197.068756,169.970917 196.849152,174.612167
	C196.798477,175.682892 195.463654,177.463867 194.545044,177.584198
	C191.205383,178.021729 187.791183,177.975800 184.405914,177.957825
	C180.032715,177.934601 177.018677,175.853088 176.216415,171.465332
	C175.371704,166.845276 178.166565,164.190491 182.109543,162.932007
	C185.009003,162.006607 188.156982,161.859848 191.491379,161.317780
	C190.344467,157.114929 187.857895,156.512939 184.615021,157.806351
	C183.412445,158.285995 182.490311,159.582260 181.281387,159.898331
	C180.217758,160.176392 178.932419,159.606369 177.744995,159.410889
	C177.934570,158.367874 177.788193,157.058212 178.369324,156.325928
	C181.664825,152.173370 186.294159,152.883408 191.183014,153.329697
M188.183395,167.011505
	C187.024231,167.034256 185.607040,166.645782 184.765060,167.174057
	C183.430801,168.011200 181.838013,169.349777 181.604233,170.693573
	C181.458069,171.533813 183.889648,173.840454 184.669159,173.632446
	C186.986008,173.014297 189.057648,171.477127 191.225128,170.299164
	C190.479904,169.215256 189.734665,168.131348 188.183395,167.011505
z"/>
<path fill="#FFFFFF" opacity="1.000000" stroke="none"
	d="
M268.764771,157.246033
	C266.611786,157.953812 264.882385,158.939102 263.022705,159.410965
	C261.683746,159.750732 260.171173,159.406158 258.736023,159.366821
	C259.175171,158.082352 259.249939,156.424652 260.116791,155.578278
	C263.783173,151.998596 268.399231,152.486328 272.770355,153.615585
	C276.779938,154.651459 277.734406,158.274094 277.912323,161.886429
	C278.116364,166.029510 277.972260,170.190109 277.966278,174.343063
	C277.962280,177.110596 276.781891,178.247940 273.878174,177.657333
	C272.365326,177.349640 270.724396,177.643738 269.143097,177.709122
	C267.819885,177.763824 266.495697,177.992752 265.178223,177.950363
	C260.791809,177.809250 257.887329,175.643875 257.173920,171.253906
	C256.462158,166.873917 259.125397,164.262207 262.836365,163.029510
	C265.873291,162.020737 269.182434,161.831528 273.910980,161.012115
	C271.623718,159.237061 270.378113,158.270416 268.764771,157.246033
M272.501190,168.447250
	C270.193573,167.996933 267.861481,167.134872 265.588654,167.269928
	C264.451202,167.337509 263.421844,169.224213 262.343597,170.288147
	C263.519073,171.475998 264.557465,173.463989 265.897095,173.693451
	C269.190643,174.257538 271.676575,172.658386 272.501190,168.447250
z"/>
<path fill="#FFFFFF" opacity="1.000000" stroke="none"
	d="
M39.992725,173.662323
	C40.100891,177.244415 38.206196,178.671936 35.613941,177.743546
	C34.110195,177.205002 32.286301,174.952377 32.229851,173.411652
	C31.907284,164.607208 32.091789,155.784836 32.059956,146.968719
	C32.050392,144.320892 33.117817,143.023895 35.915367,142.992722
	C38.966251,142.958710 40.030758,144.386917 40.011993,147.256790
	C39.955429,155.906403 39.997520,164.556656 39.992725,173.662323
z"/>
<path fill="#FFFFFF" opacity="1.000000" stroke="none"
	d="
M251.646439,159.093597
	C251.271423,164.243423 251.311737,169.072235 250.861664,173.854904
	C250.733536,175.216324 249.179520,176.443527 248.279388,177.732269
	C247.526215,176.457947 246.252258,175.234131 246.122772,173.899307
	C245.802841,170.601120 246.014542,167.252014 245.998749,163.923447
	C245.986221,161.283432 246.313965,158.807816 242.749069,157.576920
	C240.262177,156.718216 240.706161,154.771988 242.870544,153.096008
	C244.220612,152.050613 244.980148,150.261963 246.077576,148.864090
	C246.810211,147.930847 247.671036,147.098267 248.474487,146.220627
	C249.292801,147.081238 250.285477,147.836624 250.884689,148.829483
	C251.610138,150.031525 251.626129,152.002014 252.605011,152.651611
	C256.722137,155.383652 254.698898,157.041168 251.646439,159.093597
z"/>
<path fill="#FFFFFF" opacity="1.000000" stroke="none"
	d="
M110.067993,43.064804
	C110.546272,40.625076 111.024551,38.185349 112.060249,35.399231
	C113.082306,35.045635 113.546944,35.038425 114.308960,35.212639
	C119.750771,38.220448 124.895210,41.046829 130.001251,44.274380
	C129.639847,46.800613 129.316849,48.925674 128.643219,50.972103
	C125.207863,49.531086 122.123161,48.168697 118.779968,46.598923
	C116.702271,45.575912 114.883072,44.760288 112.817032,43.723640
	C111.736115,43.356678 110.902054,43.210743 110.067993,43.064804
z"/>
<path fill="#FFFFFF" opacity="1.000000" stroke="none"
	d="
M179.115860,34.052094
	C178.930084,34.323578 178.744308,34.595066 178.053345,34.956440
	C177.372116,35.061714 177.196091,35.077095 176.679260,35.012108
	C174.494888,34.020844 172.651321,33.109947 171.040344,31.831703
	C171.513245,26.643972 171.753571,21.823595 172.245605,16.878901
	C172.999039,16.502308 173.500763,16.250032 174.319626,16.156052
	C182.308243,20.646582 183.034409,21.584585 181.858490,27.933887
	C181.462997,30.069355 180.058945,32.018040 179.115860,34.052094
z"/>
<path fill="#FFFFFF" opacity="1.000000" stroke="none"
	d="
M144.923431,19.155823
	C148.061829,17.540298 151.200226,15.924775 154.809875,14.500106
	C156.696732,14.543398 158.116455,14.252517 159.526718,14.292830
	C160.691711,14.326132 161.845505,14.750967 162.998901,15.429884
	C162.660080,19.903343 162.326630,23.949230 161.648712,27.920279
	C159.532074,27.177723 157.759888,26.510006 155.724075,25.632610
	C152.309601,23.979029 149.158768,22.535126 145.772888,21.060844
	C145.537857,21.030464 145.067032,20.975836 145.035812,20.673130
	C144.977539,19.965559 144.950485,19.560692 144.923431,19.155823
z"/>
<path fill="#FFFFFF" opacity="1.000000" stroke="none"
	d="
M179.492310,34.006451
	C180.058945,32.018040 181.462997,30.069355 181.858490,27.933887
	C183.034409,21.584585 182.308243,20.646582 174.318848,15.731715
	C173.665268,12.760181 173.329605,10.371281 172.993927,7.982381
	C173.808990,7.418615 174.580505,6.774756 175.446198,6.304112
	C180.953049,3.310238 181.493835,3.655074 182.048782,9.976696
	C182.157043,11.210112 182.817230,12.395081 183.538666,13.793327
	C183.907135,18.609642 183.748367,23.250353 184.082260,27.855341
	C184.329285,31.262083 183.030777,33.136921 179.492310,34.006451
z"/>
<path fill="#FFFFFF" opacity="1.000000" stroke="none"
	d="
M236.994049,172.721069
	C236.157852,174.709961 235.323669,176.238144 234.489471,177.766327
	C233.661530,176.236496 232.203186,174.740128 232.119888,173.170776
	C231.830902,167.727127 231.870850,162.250763 232.140579,156.804428
	C232.201202,155.580139 233.699310,154.427048 234.535675,153.241180
	C235.348801,154.452408 236.796967,155.629669 236.863892,156.880798
	C237.137405,161.995041 236.989044,167.131866 236.994049,172.721069
z"/>
<path fill="#FFFFFF" opacity="1.000000" stroke="none"
	d="
M110.047501,43.528587
	C110.902054,43.210743 111.736115,43.356678 112.604424,44.075108
	C112.434914,48.099369 112.231171,51.551144 112.021614,55.470123
	C110.396378,66.364975 112.565834,74.653809 124.142456,77.816269
	C125.522667,78.193314 126.718079,79.246819 128.311142,80.050026
	C129.418137,80.408737 130.213135,80.704193 130.726532,81.276367
	C130.052917,81.904762 129.660934,82.256439 129.268951,82.608116
	C123.895569,79.942024 118.395027,77.493767 113.226418,74.476860
	C111.679314,73.573830 110.224785,71.113617 110.157158,69.313133
	C109.840561,60.883141 110.022919,52.434410 110.047501,43.528587
z"/>
<path fill="#FFFFFF" opacity="1.000000" stroke="none"
	d="
M128.993866,51.050735
	C129.316849,48.925674 129.639847,46.800613 130.328796,44.293571
	C131.131912,43.890823 131.569031,43.870060 132.006165,43.849297
	C135.920685,46.009823 139.835220,48.170353 143.889267,50.636017
	C142.153305,52.074558 140.277832,53.207958 137.899994,54.680878
	C136.934250,55.003338 136.470871,54.986286 135.743835,54.791512
	C134.319397,54.112350 133.158600,53.610912 131.757233,52.923523
	C130.675735,52.175293 129.834808,51.613014 128.993866,51.050735
z"/>
<path fill="#FFFFFF" opacity="1.000000" stroke="none"
	d="
M172.668121,8.054935
	C173.329605,10.371281 173.665268,12.760181 174.001709,15.573420
	C173.500763,16.250032 172.999039,16.502308 171.864716,16.845585
	C168.489502,16.291828 165.746887,15.647069 163.004272,15.002310
	C161.845505,14.750967 160.691711,14.326132 159.526718,14.292830
	C158.116455,14.252517 156.696732,14.543398 155.153137,14.439158
	C158.800293,12.228815 162.575409,10.270273 166.698135,8.259714
	C168.811264,8.180960 170.576797,8.154224 172.668121,8.054935
z"/>
<path fill="#FFFFFF" opacity="1.000000" stroke="none"
	d="
M167.032089,69.864105
	C172.369858,72.261665 177.755920,74.562263 182.989426,77.169167
	C183.712280,77.529236 183.937775,79.402298 183.953674,80.580841
	C184.036713,86.736351 183.977722,92.893761 183.671051,99.388344
	C182.914673,99.485741 182.455368,99.245316 181.996674,98.566833
	C181.990448,96.085648 181.983627,94.042511 181.982117,91.537170
	C182.021606,77.422844 181.995743,77.386833 168.808685,72.787849
	C168.066589,72.052895 167.518463,71.526260 166.985626,70.715744
	C167.011292,70.242607 167.021698,70.053352 167.032089,69.864105
z"/>
<path fill="#FFFFFF" opacity="1.000000" stroke="none"
	d="
M183.824951,52.158253
	C183.824951,58.004021 183.824951,63.849785 183.824951,70.303116
	C176.959320,66.939919 170.629990,63.839451 164.144333,60.146263
	C163.995819,59.364807 164.003632,59.176071 164.384430,58.991829
	C165.503967,59.004524 166.250488,59.012730 167.247894,59.249825
	C170.666107,60.987404 173.833450,62.496090 177.234543,64.224014
	C178.687576,65.028740 179.906845,65.614227 181.984406,66.611847
	C181.984406,62.094929 181.984406,58.554710 181.988464,54.640167
	C181.995834,53.517891 181.999130,52.769939 182.457947,52.057465
	C183.217300,52.114716 183.521133,52.136482 183.824951,52.158253
z"/>
<path fill="#FFFFFF" opacity="1.000000" stroke="none"
	d="
M166.885803,69.548500
	C167.021698,70.053352 167.011292,70.242607 166.640625,70.637527
	C163.851929,69.893806 161.423492,68.944405 158.745575,67.764145
	C154.330734,65.359985 150.165405,63.186665 145.649384,60.933632
	C142.201630,58.892353 139.104553,56.930790 136.007477,54.969231
	C136.470871,54.986286 136.934250,55.003338 137.742310,54.972237
	C147.637817,59.693684 157.188660,64.463287 166.885803,69.548500
z"/>
<path fill="#FFFFFF" opacity="1.000000" stroke="none"
	d="
M114.011589,35.031219
	C113.546944,35.038425 113.082306,35.045635 112.271545,35.089134
	C111.288124,33.601048 110.140297,32.089825 110.100655,30.550066
	C109.915131,23.346083 110.034973,16.134233 110.421219,8.462461
	C111.200401,8.000547 111.604065,8.001368 112.007729,8.002188
	C112.010757,9.070605 112.013786,10.139023 112.014648,12.075520
	C112.678856,20.306139 113.345222,27.668680 114.011589,35.031219
z"/>
<path fill="#FFFFFF" opacity="1.000000" stroke="none"
	d="
M181.996063,99.004883
	C182.455368,99.245316 182.914673,99.485741 183.601349,99.850830
	C183.828735,102.898788 183.828735,105.822090 183.828735,109.171005
	C177.330185,106.185997 171.310654,103.421028 165.300125,100.188065
	C165.545059,99.475044 165.781021,99.230011 166.366379,99.067001
	C171.142792,101.098984 175.569778,103.048943 180.317871,104.832222
	C181.091324,102.778656 181.543686,100.891769 181.996063,99.004883
z"/>
<path fill="#FFFFFF" opacity="1.000000" stroke="none"
	d="
M166.016968,98.984978
	C165.781021,99.230011 165.545059,99.475044 165.108780,99.878510
	C158.824036,97.074913 152.739609,94.112892 146.332245,90.684952
	C146.010696,89.809380 146.012115,89.399727 146.339371,89.061920
	C148.445709,89.426163 150.226212,89.718567 152.313248,90.140884
	C157.076950,92.847733 161.534103,95.424667 165.997406,98.247452
	C166.003555,98.493286 166.016968,98.984978 166.016968,98.984978
z"/>
<path fill="#FFFFFF" opacity="1.000000" stroke="none"
	d="
M112.124817,7.732096
	C111.604065,8.001368 111.200401,8.000547 110.494080,7.998680
	C110.191422,6.394903 110.191422,4.792173 110.191422,2.290943
	C116.092415,5.139058 121.395988,7.698832 126.861877,10.920986
	C127.015610,12.055169 127.007042,12.526972 126.747437,12.875154
	C125.994179,12.503971 125.491974,12.256409 124.989761,12.008845
	C122.048828,10.536024 119.164223,8.928831 116.137764,7.659986
	C115.009758,7.187065 113.550255,7.504798 112.124817,7.732096
z"/>
<path fill="#FFFFFF" opacity="1.000000" stroke="none"
	d="
M146.013535,88.990082
	C146.012115,89.399727 146.010696,89.809380 146.009003,90.526260
	C140.639160,88.207062 135.269592,85.580612 129.584503,82.781143
	C129.660934,82.256439 130.052917,81.904762 131.037170,81.430130
	C134.420074,82.538170 137.210739,83.769142 140.241730,85.224594
	C142.325897,86.629410 144.169724,87.809746 146.013535,88.990082
z"/>
<path fill="#FFFFFF" opacity="1.000000" stroke="none"
	d="
M183.896332,51.749718
	C183.521133,52.136482 183.217300,52.114716 182.456116,51.592548
	C181.899139,45.598248 183.364136,39.607967 177.200897,36.028507
	C177.020325,35.923630 177.075043,35.413601 177.020065,35.092480
	C177.196091,35.077095 177.372116,35.061714 177.812561,35.028244
	C186.626663,38.078163 183.537964,45.344238 183.896332,51.749718
z"/>
<path fill="#FFFFFF" opacity="1.000000" stroke="none"
	d="
M126.998474,12.998775
	C127.007042,12.526972 127.015610,12.055169 127.032898,11.229486
	C132.762085,13.585135 138.482544,16.294668 144.563232,19.080011
	C144.950485,19.560692 144.977539,19.965559 144.680664,20.603697
	C141.903671,19.890188 139.450607,18.943407 136.744934,17.764858
	C133.327698,16.021648 130.163086,14.510212 126.998474,12.998775
z"/>
<path fill="#FFFFFF" opacity="1.000000" stroke="none"
	d="
M231.898438,147.115997
	C232.361221,145.375351 232.850952,143.776611 233.827744,142.573181
	C234.047638,142.302231 236.427429,143.116791 236.971039,143.968796
	C237.488113,144.779205 237.151169,147.226227 236.760071,147.329712
	C235.302933,147.715195 233.669067,147.432678 231.898438,147.115997
z"/>
<path fill="#FFFFFF" opacity="1.000000" stroke="none"
	d="
M164.011444,58.987335
	C164.003632,59.176071 163.995819,59.364807 163.974701,59.836655
	C158.068481,57.335167 152.175537,54.550579 146.116531,51.459232
	C145.960831,50.955830 145.971207,50.759178 146.346619,50.352108
	C150.473724,51.760208 154.235764,53.378727 158.238571,55.221905
	C160.323364,56.626823 162.167404,57.807079 164.011444,58.987335
z"/>
<path fill="#000000" opacity="0" stroke="none"
	d="
M11.229477,150.191864
	C14.956845,149.873413 18.138813,150.625061 17.626360,154.567566
	C17.414892,156.194458 14.588850,157.707748 12.670945,158.760941
	C12.020792,159.117966 9.525257,157.844162 9.550680,157.414993
	C9.692657,155.018280 10.349013,152.652008 11.229477,150.191864
z"/>
<path fill="#000000" opacity="0" stroke="none"
	d="
M221.604507,163.501007
	C221.647720,167.662262 221.158554,171.439499 216.880463,172.650055
	C213.226227,173.684082 210.008270,173.004822 208.693771,168.570786
	C207.345078,164.021484 208.888290,159.444855 212.547028,158.027496
	C216.544891,156.478729 219.505463,158.165070 221.604507,163.501007
z"/>
<path fill="#000000" opacity="0" stroke="none"
	d="
M98.026001,163.666275
	C99.143227,165.132034 99.901726,166.428650 100.660225,167.725266
	C99.341103,168.477966 98.100174,169.548294 96.681717,169.897507
	C95.143280,170.276230 93.439514,169.983353 91.867020,169.983353
	C90.177330,163.567444 91.104004,162.573395 98.026001,163.666275
z"/>
<path fill="#000000" opacity="0" stroke="none"
	d="
M94.083801,155.927307
	C92.876160,154.572540 92.067429,153.242142 91.258698,151.911728
	C92.798096,151.314713 94.354729,150.237564 95.870758,150.291962
	C96.857117,150.327332 97.784386,152.009903 98.738121,152.954514
	C97.319649,153.953552 95.901176,154.952591 94.083801,155.927307
z"/>
<path fill="#FFFFFF" opacity="1.000000" stroke="none"
	d="
M157.997818,54.997246
	C154.235764,53.378727 150.473724,51.760208 146.362137,50.057133
	C143.678329,45.488388 141.541473,40.886940 138.963562,36.547493
	C135.092590,30.031389 130.869354,23.725460 126.898491,17.267084
	C126.057343,15.898995 125.658020,14.259254 125.022446,12.376759
	C125.491974,12.256409 125.994179,12.503971 126.747437,12.875154
	C130.163086,14.510212 133.327698,16.021648 136.775208,18.134094
	C138.297546,21.215071 139.396942,23.777555 140.801010,26.160534
	C146.482300,35.802811 152.257355,45.389832 157.997818,54.997246
z"/>
<path fill="#FFFFFF" opacity="1.000000" stroke="none"
	d="
M114.308960,35.212643
	C113.345222,27.668680 112.678856,20.306139 112.017769,12.476162
	C112.966461,12.619912 114.241211,13.015205 114.801926,13.875752
	C120.291908,22.301319 125.700310,30.781103 131.019699,39.315407
	C131.675812,40.368057 131.676895,41.828979 131.993851,43.475002
	C131.569031,43.870060 131.131912,43.890823 130.367218,43.892399
	C124.895210,41.046829 119.750771,38.220448 114.308960,35.212643
z"/>
<path fill="#000000" opacity="0" stroke="none"
	d="
M188.586411,167.029480
	C189.734665,168.131348 190.479904,169.215256 191.225128,170.299164
	C189.057648,171.477127 186.986008,173.014297 184.669159,173.632446
	C183.889648,173.840454 181.458069,171.533813 181.604233,170.693573
	C181.838013,169.349777 183.430801,168.011200 184.765060,167.174057
	C185.607040,166.645782 187.024231,167.034256 188.586411,167.029480
z"/>
<path fill="#000000" opacity="0" stroke="none"
	d="
M272.531952,168.811127
	C271.676575,172.658386 269.190643,174.257538 265.897095,173.693451
	C264.557465,173.463989 263.519073,171.475998 262.343597,170.288147
	C263.421844,169.224213 264.451202,167.337509 265.588654,167.269928
	C267.861481,167.134872 270.193573,167.996933 272.531952,168.811127
z"/>
<path fill="#FFFFFF" opacity="1.000000" stroke="none"
	d="
M146.339371,89.061920
	C144.169724,87.809746 142.325897,86.629410 140.164200,84.875381
	C136.041092,77.909828 132.088333,71.600037 128.473862,65.102058
	C125.139961,59.108479 122.169182,52.912914 119.038467,46.806313
	C122.123161,48.168697 125.207863,49.531086 128.643219,50.972103
	C129.834808,51.613014 130.675735,52.175293 131.768173,53.302696
	C132.769379,56.033512 133.150986,58.428596 134.332809,60.324993
	C139.321442,68.329895 144.611679,76.146408 149.639160,84.127846
	C150.747696,85.887726 151.233917,88.039604 152.006714,90.010971
	C150.226212,89.718567 148.445709,89.426163 146.339371,89.061920
z"/>
<path fill="#FFFFFF" opacity="1.000000" stroke="none"
	d="
M118.779968,46.598923
	C122.169182,52.912914 125.139961,59.108479 128.473862,65.102058
	C132.088333,71.600037 136.041092,77.909828 139.923859,84.650909
	C137.210739,83.769142 134.420074,82.538170 131.318787,81.153419
	C130.213135,80.704193 129.418137,80.408737 128.281555,79.682518
	C123.575157,71.777809 119.252586,64.278427 114.788498,56.864243
	C114.269447,56.002178 112.966782,55.611916 112.027420,55.002914
	C112.231171,51.551144 112.434914,48.099369 112.851273,44.296127
	C114.883072,44.760288 116.702271,45.575912 118.779968,46.598923
z"/>
<path fill="#FFFFFF" opacity="1.000000" stroke="none"
	d="
M176.679260,35.012108
	C177.075043,35.413601 177.020325,35.923630 177.200897,36.028507
	C183.364136,39.607967 181.899139,45.598248 182.000580,51.557068
	C181.999130,52.769939 181.995834,53.517891 181.662003,54.544350
	C176.233597,46.783699 171.135712,38.744541 166.382904,30.810188
	C168.087906,31.343014 169.447845,31.771034 170.807770,32.199055
	C172.651321,33.109947 174.494888,34.020844 176.679260,35.012108
z"/>
<path fill="#FFFFFF" opacity="1.000000" stroke="none"
	d="
M171.040344,31.831703
	C169.447845,31.771034 168.087906,31.343014 166.152924,30.619850
	C164.382980,29.548176 163.188065,28.771646 161.993164,27.995117
	C162.326630,23.949230 162.660080,19.903343 162.998901,15.429882
	C165.746887,15.647069 168.489502,16.291828 171.613007,16.969902
	C171.753571,21.823595 171.513245,26.643972 171.040344,31.831703
z"/>
<path fill="#FFFFFF" opacity="1.000000" stroke="none"
	d="
M177.000793,64.004776
	C173.833450,62.496090 170.666107,60.987404 167.217163,58.883575
	C163.543213,52.400333 160.101593,46.539917 156.771759,40.616673
	C153.129944,34.138470 149.591446,27.602188 146.007919,21.091223
	C149.158768,22.535126 152.309601,23.979029 155.755249,26.020330
	C156.746155,28.460863 157.171204,30.471256 158.186859,32.117210
	C161.923050,38.172104 166.007553,44.014801 169.662857,50.115967
	C172.349976,54.601105 174.571686,59.365067 177.000793,64.004776
z"/>
<path fill="#FFFFFF" opacity="1.000000" stroke="none"
	d="
M177.234543,64.224014
	C174.571686,59.365067 172.349976,54.601105 169.662857,50.115967
	C166.007553,44.014801 161.923050,38.172104 158.186859,32.117210
	C157.171204,30.471256 156.746155,28.460863 156.018875,26.230011
	C157.759888,26.510006 159.532074,27.177723 161.648712,27.920280
	C163.188065,28.771646 164.382980,29.548176 165.807846,30.515043
	C171.135712,38.744541 176.233597,46.783699 181.657944,54.918671
	C181.984406,58.554710 181.984406,62.094929 181.984406,66.611847
	C179.906845,65.614227 178.687576,65.028740 177.234543,64.224014
z"/>
<path fill="#FFFFFF" opacity="1.000000" stroke="none"
	d="
M145.772888,21.060844
	C149.591446,27.602188 153.129944,34.138470 156.771759,40.616673
	C160.101593,46.539917 163.543213,52.400333 166.966309,58.654686
	C166.250488,59.012730 165.503967,59.004524 164.384430,58.991829
	C162.167404,57.807079 160.323364,56.626823 158.238571,55.221905
	C152.257355,45.389832 146.482300,35.802811 140.801010,26.160534
	C139.396942,23.777555 138.297546,21.215071 137.027832,18.365866
	C139.450607,18.943407 141.903671,19.890188 144.711884,20.906403
	C145.067032,20.975836 145.537857,21.030464 145.772888,21.060844
z"/>
<path fill="#FFFFFF" opacity="1.000000" stroke="none"
	d="
M112.021606,55.470123
	C112.966782,55.611916 114.269447,56.002178 114.788498,56.864243
	C119.252586,64.278427 123.575157,71.777809 127.969566,79.619263
	C126.718079,79.246819 125.522667,78.193314 124.142456,77.816269
	C112.565834,74.653809 110.396378,66.364975 112.021606,55.470123
z"/>
<path fill="#FFFFFF" opacity="1.000000" stroke="none"
	d="
M152.313248,90.140884
	C151.233917,88.039604 150.747696,85.887726 149.639160,84.127846
	C144.611679,76.146408 139.321442,68.329895 134.332809,60.324993
	C133.150986,58.428596 132.769379,56.033512 132.008728,53.488647
	C133.158600,53.610912 134.319397,54.112350 135.743835,54.791512
	C139.104553,56.930790 142.201630,58.892353 145.679749,61.303947
	C149.444183,67.771645 152.872269,73.764740 156.198425,79.813889
	C159.515884,85.847229 162.731171,91.936737 165.991272,98.001617
	C161.534103,95.424667 157.076950,92.847733 152.313248,90.140884
z"/>
<path fill="#FFFFFF" opacity="1.000000" stroke="none"
	d="
M181.996674,98.566833
	C181.543686,100.891769 181.091324,102.778656 180.241852,104.485168
	C174.768997,96.007156 169.595078,87.767296 164.662994,79.385117
	C162.517654,75.739059 160.869202,71.800636 158.995071,67.995003
	C161.423492,68.944405 163.851929,69.893806 166.625351,70.921417
	C167.518463,71.526260 168.066589,72.052895 168.883743,73.134781
	C171.561157,77.810066 173.797058,82.045425 176.445190,86.005112
	C177.938324,88.237762 180.110519,90.016289 181.976807,91.999374
	C181.983627,94.042511 181.990448,96.085648 181.996674,98.566833
z"/>
<path fill="#FFFFFF" opacity="1.000000" stroke="none"
	d="
M181.982117,91.537170
	C180.110519,90.016289 177.938324,88.237762 176.445190,86.005112
	C173.797058,82.045425 171.561157,77.810066 169.077713,73.343109
	C181.995743,77.386833 182.021606,77.422844 181.982117,91.537170
z"/>
<path fill="#FFFFFF" opacity="1.000000" stroke="none"
	d="
M158.745575,67.764145
	C160.869202,71.800636 162.517654,75.739059 164.662994,79.385117
	C169.595078,87.767296 174.768997,96.007156 179.920776,104.651840
	C175.569778,103.048943 171.142792,101.098984 166.366379,99.067001
	C166.016968,98.984978 166.003555,98.493286 165.997406,98.247452
	C162.731171,91.936737 159.515884,85.847229 156.198425,79.813889
	C152.872269,73.764740 149.444183,67.771645 146.030426,61.383667
	C150.165405,63.186665 154.330734,65.359985 158.745575,67.764145
z"/>
</svg>
