<svg height="41" viewBox="0 0 158 41" width="158" xmlns="http://www.w3.org/2000/svg"><g fill="none" transform="translate(0 .461836)"><g fill="#000" transform="translate(50.07874 .629921)"><path d="m.15748032 30.7086614 1.9527559-4.5354331c2.11023622 1.5748032 4.91338583 2.3937008 7.68503937 2.3937008 2.04724411 0 3.33858271-.7874015 3.33858271-1.9842519-.0314961-3.3385827-12.25196854-.7244095-12.34645672-9.1023622-.03149607-4.2519685 3.74803149-7.52755909 9.1023622-7.52755909 3.18110232 0 6.36220472.78740159 8.62992122 2.58267719l-1.8267716 4.6299212c-2.0787402-1.3228346-4.6614173-2.2677165-7.11811025-2.2677165-1.66929134 0-2.77165354.7874016-2.77165354 1.7952756.03149606 3.2755905 12.34645669 1.4803149 12.47244099 9.4803149 0 4.3464567-3.6850394 7.4015748-8.976378 7.4015748-3.87401575 0-7.43307087-.9133858-10.14173228-2.8661417m74.92913388-6.1732283c-.976378 1.7007874-2.8031496 2.8661417-4.9133859 2.8661417-3.1181102 0-5.6377952-2.519685-5.6377952-5.6377953 0-3.1181102 2.519685-5.6377952 5.6377952-5.6377952 2.1102363 0 3.9370079 1.1653543 4.9133859 2.8661417l5.3858267-2.992126c-2.015748-3.5905512-5.8897637-6.04724409-10.2992126-6.04724409-6.519685 0-11.8110236 5.29133859-11.8110236 11.81102359 0 6.5196851 5.2913386 11.8110236 11.8110236 11.8110236 4.4409449 0 8.2834646-2.4251968 10.2992126-6.047244zm-53.1023622-24.37795278h6.7401574v32.97637798h-6.7401574zm61.1338582 0v32.97637798h6.7401575v-9.8897638l8 9.8897638h8.6299213l-10.1732284-11.7480315 9.4173224-10.9606299h-8.251968l-7.6220473 9.1023622v-19.37007878z"/><path d="m48.7559055 24.5984252c-.9763779 1.6062992-2.992126 2.8031496-5.2598425 2.8031496-3.1181102 0-5.6377953-2.519685-5.6377953-5.6377953 0-3.1181102 2.5196851-5.6377952 5.6377953-5.6377952 2.2677165 0 4.2834646 1.2598425 5.2598425 2.8976377zm0-14.1732283v2.6771653c-1.1023622-1.8582677-3.8425197-3.14960629-6.7086614-3.14960629-5.9212598 0-10.5826772 5.22834649-10.5826772 11.77952759s4.6614174 11.8425196 10.5826772 11.8425196c2.8661417 0 5.6062992-1.2913385 6.7086614-3.1496062v2.6771653h6.7401575v-22.6771653z"/></g><path d="m8.56692913 25.1968504c0 2.2992126-1.85826771 4.1574803-4.15748031 4.1574803s-4.15748032-1.8582677-4.15748032-4.1574803 1.85826772-4.1574803 4.15748032-4.1574803h4.15748031zm2.07874017 0c0-2.2992126 1.8582677-4.1574803 4.1574803-4.1574803s4.1574803 1.8582677 4.1574803 4.1574803v10.3937008c0 2.2992126-1.8582677 4.1574803-4.1574803 4.1574803s-4.1574803-1.8582677-4.1574803-4.1574803z" fill="#e01e5a"/><path d="m14.8031496 8.50393701c-2.2992126 0-4.1574803-1.85826772-4.1574803-4.15748032s1.8582677-4.15748031 4.1574803-4.15748031 4.1574803 1.85826771 4.1574803 4.15748031v4.15748032zm0 2.11023619c2.2992126 0 4.1574803 1.8582677 4.1574803 4.1574803s-1.8582677 4.1574804-4.1574803 4.1574804h-10.42519684c-2.2992126 0-4.15748032-1.8582678-4.15748032-4.1574804s1.85826772-4.1574803 4.15748032-4.1574803z" fill="#36c5f0"/><path d="m31.4645669 14.7716535c0-2.2992126 1.8582677-4.1574803 4.1574803-4.1574803s4.1574804 1.8582677 4.1574804 4.1574803-1.8582678 4.1574804-4.1574804 4.1574804h-4.1574803zm-2.0787401 0c0 2.2992126-1.8582677 4.1574804-4.1574803 4.1574804s-4.1574804-1.8582678-4.1574804-4.1574804v-10.42519681c0-2.2992126 1.8582678-4.15748031 4.1574804-4.15748031s4.1574803 1.85826771 4.1574803 4.15748031z" fill="#2eb67d"/><path d="m25.2283465 31.4330709c2.2992126 0 4.1574803 1.8582677 4.1574803 4.1574803s-1.8582677 4.1574803-4.1574803 4.1574803-4.1574804-1.8582677-4.1574804-4.1574803v-4.1574803zm0-2.0787402c-2.2992126 0-4.1574804-1.8582677-4.1574804-4.1574803s1.8582678-4.1574803 4.1574804-4.1574803h10.4251968c2.2992126 0 4.1574803 1.8582677 4.1574803 4.1574803s-1.8582677 4.1574803-4.1574803 4.1574803z" fill="#ecb22e"/></g></svg>