<svg height="418" viewBox="0 0 400 418" width="400" xmlns="http://www.w3.org/2000/svg" xmlns:xlink="http://www.w3.org/1999/xlink"><mask id="a" fill="#fff"><path d="m0 219.037151h233.998015v-218.80521486h-233.998015z" fill="#fff" fill-rule="evenodd"/></mask><g fill="none" fill-rule="evenodd"><path d="m0 .02582h400v417h-400z" fill="#0d3a5a"/><g transform="translate(48 74.52582)"><path d="m128.033368.3712413-127.76179753 267.0596487h56.70871773l127.7599948-267.0596487z" fill="#00cbcb"/><path d="m233.191349.3712413-127.761797 267.0596487h53.195629l127.761797-267.0596487z" fill="#00cbcb"/><g transform="translate(26.329825 47.43089)"><path d="m231.917076 174.251855v-75.3817036c0-1.7984879-1.457954-3.2579166-3.256442-3.2579166h-140.8908874c-1.7984879 0-3.2579166 1.4594287-3.2579166 3.2579166v76.0878306" fill="#04002c"/><path d="m139.347431 211.632393h37.732865v-17.280225h-37.732865z" fill="#af9daa" mask="url(#a)"/><path d="m186.778568 211.632246h-57.128525c-4.089349 0-7.404758 3.315409-7.404758 7.404758h71.938041c0-4.089349-3.315409-7.404758-7.404758-7.404758" fill="#ccbecd" mask="url(#a)"/><path d="m225.854845 180.247158v-78.6293l-135.2801944-.529228v79.158528z" fill="#fff" mask="url(#a)"/><path d="m84.5122723 174.957245v16.137743c0 1.798488 1.4579545 3.257917 3.2564424 3.257917h140.8908873c1.798488 0 3.257916-1.459429 3.257916-3.257917v-16.843871" fill="#cfbed0" mask="url(#a)"/><path d="m162.798828 183.420752c0 2.531151-2.052045 4.58467-4.58467 4.58467-2.53115 0-4.58467-2.053519-4.58467-4.58467 0-2.53115 2.05352-4.58467 4.58467-4.58467 2.532625 0 4.58467 2.05352 4.58467 4.58467" fill="#04002c" mask="url(#a)"/><path d="m139.347431 199.995292h37.732865v-5.643124h-37.732865z" fill="#020128" mask="url(#a)"/><path d="m16.9077025 40.9530924v-5.7286262c0-4.8220113 3.9080257-8.7300371 8.7285629-8.7300371h93.9768886c4.820537 0 8.730037 3.9080258 8.730037 8.7300371v5.7286262z" fill="#04002c" mask="url(#a)"/><path d="m128.342896 40.9530924v95.3006936c0 4.820537-3.908026 8.728563-8.730037 8.728563h-93.9754143c-4.8220113 0-8.730037-3.908026-8.730037-8.728563v-95.3006936z" fill="#ffe4e4" mask="url(#a)"/><path d="m26.6043531 57.5285169h51.3099748v-5.8185506h-51.3099748z" fill="#95006c" mask="url(#a)"/><path d="m37.7137012 70.0471719h24.8618837v-5.8185506h-24.8618837z" fill="#007695" mask="url(#a)"/><path d="m49.8800295 82.5643527h35.9697576v-5.8185506h-35.9697576z" fill="#ff4345" mask="url(#a)"/><path d="m49.8785553 95.0844818h51.3099747v-5.8185505h-51.3099747z" fill="#95006c" mask="url(#a)"/><path d="m37.712227 107.603137h28.0357726v-5.818551h-28.0357726z" fill="#007695" mask="url(#a)"/><path d="m26.6043531 120.121792h51.3099748v-5.818551h-51.3099748z" fill="#ff4345" mask="url(#a)"/><path d="m26.6058273 132.640447h38.6144193v-5.818551h-38.6144193z" fill="#95006c" mask="url(#a)"/><g fill="#fff"><path d="m29.2503416 34.2531353c0 1.4609029-1.1837589 2.6446617-2.6446617 2.6446617-1.4609029 0-2.6446617-1.1837588-2.6446617-2.6446617 0-1.4609028 1.1837588-2.6446616 2.6446617-2.6446616 1.4609028 0 2.6446617 1.1837588 2.6446617 2.6446616" mask="url(#a)"/><path d="m38.2421913 34.2531353c0 1.4609029-1.1837588 2.6446617-2.6446617 2.6446617s-2.6446617-1.1837588-2.6446617-2.6446617c0-1.4609028 1.1837588-2.6446616 2.6446617-2.6446616s2.6446617 1.1837588 2.6446617 2.6446616" mask="url(#a)"/><path d="m47.2347781 34.2531353c0 1.4609029-1.1837588 2.6446617-2.6446617 2.6446617-1.4609028 0-2.6446617-1.1837588-2.6446617-2.6446617 0-1.4609028 1.1837589-2.6446616 2.6446617-2.6446616 1.4609029 0 2.6446617 1.1837588 2.6446617 2.6446616" mask="url(#a)"/></g></g></g></g></svg>