<svg height="41" viewBox="0 0 146 41" width="146" xmlns="http://www.w3.org/2000/svg" xmlns:xlink="http://www.w3.org/1999/xlink"><mask id="a" fill="#fff"><path d="m0 .24h28.6007677v39.3559192h-28.6007677z" fill="#fff" fill-rule="evenodd"/></mask><mask id="b" fill="#fff"><path d="m.12226263.04945455h24.19410097v37.89131315h-24.19410097z" fill="#fff" fill-rule="evenodd"/></mask><g fill="#100f0f" fill-rule="evenodd" transform="translate(0 .711836)"><path d="m28.0294545 17.0848081h-12.2294949c-.3151515 0-.5713131.2561616-.5713131.5717172v5.9789899c0 .3155555.2561616.5721212.5713131.5721212h4.7709091v7.4286868s-1.0711111.3648485-4.0323232.3648485c-3.4941415 0-8.37494954-1.2763636-8.37494954-12.0092929 0-10.73494951 5.08242424-12.14747476 9.85373734-12.14747476 4.130101 0 5.909899.72727273 7.0416162 1.07757576.3559596.10868687.6848485-.24525253.6848485-.56080808l1.3644444-5.7769697c0-.14787879-.050101-.32565657-.2181818-.44646465-.460202-.3280808-3.2650505-1.89777777-10.3515151-1.89777777-8.16444449 0-16.5385859 3.47353535-16.5385859 20.170505 0 16.6973738 9.58787878 19.1854546 17.6674747 19.1854546 6.689697 0 10.7478788-2.8585859 10.7478788-2.8585859.1672728-.0921212.1854546-.3260606.1854546-.4331313v-18.6476767c0-.3155556-.2557576-.5717172-.5713132-.5717172" mask="url(#a)" transform="translate(0 .16396)"/><path d="m91.0530101 2.40460606c0-.3179798-.2521212-.57494949-.5676768-.57494949h-6.8856565c-.3147475 0-.570101.25696969-.570101.57494949 0 .00161616.0016161 13.30707074.0016161 13.30707074h-10.7329293v-13.30707074c0-.3179798-.2533333-.57494949-.5680808-.57494949h-6.8856565c-.3131314 0-.5684849.25696969-.5684849.57494949v36.03151514c0 .3175758.2553535.5765657.5684849.5765657h6.8856565c.3147475 0 .5680808-.2589899.5680808-.5765657v-15.4121212h10.7329293s-.0185858 15.4109091-.0185858 15.4121212c0 .3175758.2553535.5765657.570505.5765657h6.9018182c.3151515 0 .5672727-.2589899.5680808-.5765657z"/><path d="m41.0230303 7.13276768c0-2.47959596-1.9878788-4.48282829-4.440404-4.48282829-2.450101 0-4.439192 2.00323233-4.439192 4.48282829 0 2.47676767 1.989091 4.48606062 4.439192 4.48606062 2.4525252 0 4.440404-2.00929295 4.440404-4.48606062"/><path d="m40.5306263 30.8352323v-16.6323232c0-.3155556-.2545455-.5737374-.569697-.5737374h-6.8638384c-.3151515 0-.5967677.3248485-.5967677.6404041v23.8290909c0 .700202.4363637.9086868 1.0012122.9086868h6.1842424c.6783838 0 .8448485-.3333333.8448485-.92z"/><path d="m117.221737 13.6834343h-6.832727c-.313535 0-.568485.2581819-.568485.5761617v17.6670707s-1.736161 1.270303-4.2 1.270303c-2.463838 0-3.117576-1.1179798-3.117576-3.5305051v-15.4068686c0-.3179798-.254545-.5761617-.56808-.5761617h-6.9349498c-.3127273 0-.5692929.2581819-.5692929.5761617v16.5733333c0 7.1656566 3.9935353 8.9187879 9.4872727 8.9187879 4.507475 0 8.141414-2.490101 8.141414-2.490101s.172525 1.3123232.251313 1.4678787c.07798.1551516.28202.3119192.502627.3119192l4.411717-.0193939c.312727 0 .569293-.2585859.569293-.5753535l-.002425-24.1870707c0-.3179798-.255353-.5761617-.570101-.5761617"/><path d="m11.9901414 31.3949091c-2.370101-.0723232-3.97777776-1.1474748-3.97777776-1.1474748v-11.410505s1.58585858-.9721212 3.53171716-1.1458586c2.4606061-.220202 4.8315152.5228283 4.8315152 6.3927273 0 6.1894949-1.069899 7.4113131-4.3854546 7.3111111m2.6949495-20.3010101c-3.8808081 0-6.52040403 1.7317172-6.52040403 1.7317172v-12.20121216c0-.3179798-.25454546-.57494949-.56808081-.57494949h-6.90545454c-.3139394 0-.56888889.25696969-.56888889.57494949v36.03151516c0 .3179798.25494949.5765656.57010101.5765656h4.79070707c.21575757 0 .3789899-.1115151.49979798-.3062626.11919192-.1935353.29090909-1.6610101.29090909-1.6610101s2.82343434 2.6755556 8.16848482 2.6755556c6.2755556 0 9.8743435-3.1830303 9.8743435-14.289293 0-11.1062626-5.7478788-12.5575757-9.6315152-12.5575757" mask="url(#b)" transform="translate(121.212121 1.780121)"/><path d="m60.3205253 13.6260202h-5.1652526s-.0076767-6.82222222-.0076767-6.82383838c0-.25818182-.1329293-.38747475-.4319192-.38747475h-7.0383839c-.2735353 0-.420606.12080808-.420606.38383838v7.05131315s-3.5272728.8513131-3.7660606.920404c-.2371718.0686869-.4121212.2876768-.4121212.5490909v4.4311111c0 .3183839.2545454.5757576.5692929.5757576h3.6088889v10.660202c0 7.9175758 5.5543434 8.6953536 9.3018182 8.6953536 1.7123232 0 3.760808-.549899 4.0989898-.6747475.2044445-.0751515.3236364-.2868687.3236364-.5163636l.0052525-4.8747475c0-.3179798-.2682828-.5753535-.570505-.5753535-.3010101 0-1.0711111.1228282-1.8638384.1228282-2.5369697 0-3.3967677-1.1797979-3.3967677-2.7070707 0-1.5256565-.000404-10.130101-.000404-10.130101h5.1656566c.3147474 0 .570101-.2573737.570101-.5757576v-5.550303c0-.3179798-.2553536-.5741414-.570101-.5741414"/></g></svg>