<?xml version="1.0" encoding="UTF-8"?>
<svg width="110px" height="42px" viewBox="0 0 110 42" version="1.1" xmlns="http://www.w3.org/2000/svg" xmlns:xlink="http://www.w3.org/1999/xlink">
    <title>logo_grafana</title>
    <defs>
        <polygon id="path-1" points="0.189705767 0.0464653932 9.49924584 0.0464653932 9.49924584 9.37497987 0.189705767 9.37497987"></polygon>
        <path d="M15.9891292,4.48901513 L15.9894121,4.48901513 C15.9894121,4.48901513 15.9752716,4.54557678 15.9577375,4.64173158 L15.9577375,4.64173158 C15.7954056,4.68839494 15.6330737,4.73364426 15.4704589,4.7865294 L15.4704589,4.7865294 C15.2453436,4.85496899 15.0241875,4.93726619 14.799355,5.01730092 L14.799355,5.01730092 C14.578199,5.10327462 14.3530836,5.18953113 14.1336244,5.28766559 L14.1336244,5.28766559 C13.6913123,5.47714711 13.2529596,5.69066733 12.8242223,5.93133714 L12.8242223,5.93133714 C12.4093426,6.16437112 12.0001191,6.42087819 11.6027735,6.69859588 L11.6027735,6.69859588 C11.5462119,6.67116348 11.5009625,6.65164971 11.5009625,6.65164971 L11.5009625,6.65164971 C7.44351278,5.10157777 3.84025304,6.96669809 3.84025304,6.96669809 L3.84025304,6.96669809 C3.51134706,11.2826346 5.46074423,14.0035326 5.84649467,14.4967502 L5.84649467,14.4967502 C5.75062267,14.7628727 5.66068966,15.0329546 5.57810965,15.3050161 L5.57810965,15.3050161 C5.27889854,16.2838154 5.05378318,17.2875019 4.91464153,18.3251253 L4.91464153,18.3251253 C4.89541057,18.4738824 4.87759365,18.6246192 4.86005954,18.775356 L4.86005954,18.775356 C1.11171918,20.6266187 0,24.422188 0,24.422188 L0,24.422188 C3.12955594,28.0214885 6.778065,28.2446242 6.778065,28.2446242 L6.778065,28.2446242 C6.78202431,28.2426445 6.78428678,28.238968 6.78796328,28.2367055 L6.78796328,28.2367055 C7.25176879,29.064768 7.78797321,29.8535202 8.39318283,30.5876904 L8.39318283,30.5876904 C8.64516497,30.8948201 8.91157033,31.1923344 9.18730836,31.4802332 L9.18730836,31.4802332 C8.04674274,34.7429918 9.34794344,37.4579509 9.34794344,37.4579509 L9.34794344,37.4579509 C12.8321409,37.5888911 15.1203423,35.9330489 15.601682,35.5515406 L15.601682,35.5515406 C15.9481221,35.668906 16.3005011,35.7726966 16.6548598,35.8646093 L16.6548598,35.8646093 C17.725289,36.1403473 18.8214537,36.302962 19.9176185,36.3499082 L19.9176185,36.3499082 C20.1913768,36.3615033 20.465418,36.3674423 20.7374795,36.3657455 L20.7374795,36.3657455 L20.8706822,36.3657455 L20.9569387,36.3637658 L21.1291689,36.3578268 L21.2994195,36.3499082 L21.303096,36.3558472 C22.8718333,38.5942744 25.5805706,38.9947308 25.8141702,39.0255569 L25.8141702,39.0255569 L25.8322699,39.0255569 C27.8837609,36.8615083 28.0011263,34.7155594 28.0011263,34.2514711 L28.0011263,34.2514711 L28.0011263,34.220645 C28.0011263,34.1813347 27.9994294,34.1558819 27.9994294,34.1558819 L27.9994294,34.1558819 C27.997167,34.1225105 27.997167,34.0911188 27.9934904,34.0557678 L27.9934904,34.0557678 C28.4242074,33.754577 28.834845,33.4296304 29.2245547,33.0812106 L29.2245547,33.0812106 C30.0466782,32.337425 30.7650112,31.4921111 31.3600397,30.5780749 L31.3600397,30.5780749 C31.4168841,30.4918184 31.4714661,30.4055619 31.5243513,30.3173257 L31.5243513,30.3173257 C33.8476209,30.4505284 35.485929,28.8786802 35.485929,28.8786802 L35.485929,28.8786802 C35.1004614,26.4575589 33.72064,25.2774001 33.4327413,25.0542645 L33.4327413,25.0542645 C33.3798561,25.0132573 33.3459191,24.9869561 33.3258397,24.9714016 L33.3258397,24.9714016 C33.3394145,24.8277351 33.3527065,24.6857653 33.3603423,24.5435128 L33.3603423,24.5435128 C33.3778765,24.2833292 33.3838154,24.0208832 33.3857951,23.7623964 L33.3857951,23.7623964 L33.3838154,23.5689556 L33.3818358,23.4708211 L33.3818358,23.4218953 C33.3818358,23.3551526 33.3801389,23.3806053 33.3801389,23.3551526 L33.3801389,23.3551526 L33.3722203,23.1928206 L33.3603423,22.9736443 C33.3566658,22.897286 33.3504441,22.8328058 33.3445051,22.7643662 L33.3445051,22.7643662 C33.3388489,22.6979062 33.3329099,22.6291838 33.3249913,22.5627239 L33.3249913,22.5627239 L33.3015182,22.3610816 L33.2740858,22.161419 C33.2350583,21.8952965 33.1841528,21.6311536 33.123349,21.3706872 L33.123349,21.3706872 C32.8806996,20.3274076 32.4737385,19.3370131 31.9352716,18.44645 L31.9352716,18.44645 C31.3970876,17.5558869 30.7276805,16.7671347 29.9742793,16.1033838 L29.9742793,16.1033838 C29.2208782,15.4382188 28.3752816,14.9037112 27.4883949,14.5046688 L27.4883949,14.5046688 C26.6017911,14.1053436 25.6702208,13.8485537 24.742327,13.7311883 L24.742327,13.7311883 C24.2782387,13.6703845 23.8166956,13.6471942 23.3585463,13.6528504 L23.3585463,13.6528504 L23.1882957,13.6570925 L23.1453089,13.6587894 C23.1334309,13.6587894 23.0805458,13.660769 23.0864847,13.660769 L23.0864847,13.660769 L23.0157827,13.6650112 L22.8455321,13.6766063 C22.7813347,13.6805656 22.7145919,13.6862218 22.6577475,13.6921608 L22.6577475,13.6921608 C22.4227338,13.7156338 22.1899826,13.7467427 21.9592111,13.7900124 L21.9592111,13.7900124 C21.0392359,13.9622426 20.1698834,14.2951079 19.4046043,14.7529744 L19.4046043,14.7529744 C18.6393252,15.210841 17.9738774,15.7843761 17.4317341,16.4342694 L17.4317341,16.4342694 C16.8915703,17.0821831 16.4707517,17.800516 16.181156,18.5443017 L16.181156,18.5443017 C15.8912776,19.2880873 15.7286629,20.0553461 15.6836964,20.8011114 L15.6836964,20.8011114 C15.6721012,20.9869164 15.6681419,21.1730042 15.6721012,21.3571124 L15.6721012,21.3571124 C15.6721012,21.4020789 15.6740809,21.4487422 15.6760605,21.4939916 L15.6760605,21.4939916 L15.6819995,21.6427487 C15.6876557,21.7329645 15.6955743,21.8206351 15.7034929,21.9088712 L15.7034929,21.9088712 C15.7405408,22.2867031 15.8092632,22.6486976 15.9110742,22.999097 L15.9110742,22.999097 C16.1127164,23.6979161 16.4373803,24.3299926 16.8367055,24.8664798 L16.8367055,24.8664798 C17.2360308,25.4046639 17.7136939,25.8492384 18.2204862,26.1953957 L18.2204862,26.1953957 C18.7272786,26.5418358 19.269422,26.790707 19.806192,26.9487968 L19.806192,26.9487968 C20.3440933,27.1074522 20.8786008,27.1758918 21.3817167,27.174195 L21.3817167,27.174195 C21.4442173,27.174195 21.5067179,27.1722153 21.5695014,27.1702357 L21.5695014,27.1702357 C21.6028727,27.1702357 21.6362441,27.1662764 21.6693327,27.1662764 L21.6693327,27.1662764 L21.769164,27.1603374 C21.8217663,27.1546812 21.8769139,27.1504391 21.9295162,27.1447829 L21.9295162,27.1447829 C21.9413942,27.1447829 21.9592111,27.1408236 21.9747656,27.138844 L21.9747656,27.138844 L22.0234086,27.132905 C22.05678,27.1292285 22.0881717,27.1230067 22.121543,27.1193302 L22.121543,27.1193302 C22.188003,27.1114116 22.2445646,27.0978368 22.3033887,27.0879385 L22.3033887,27.0879385 C22.3622129,27.0760605 22.421037,27.0644654 22.4795783,27.0489109 L22.4795783,27.0489109 C22.5952468,27.0231754 22.7066733,26.9881072 22.8183825,26.9547358 L22.8183825,26.9547358 C23.0375589,26.8826197 23.2428777,26.7943835 23.4349045,26.6965319 L23.4349045,26.6965319 C23.6266485,26.5986802 23.802838,26.4872538 23.9671496,26.3713024 L23.9671496,26.3713024 C24.0140958,26.3382138 24.0590623,26.3028628 24.1043116,26.2677946 L24.1043116,26.2677946 C24.2805011,26.1309154 24.3079335,25.8724287 24.1668122,25.7001985 L24.1668122,25.7001985 C24.0435078,25.5494617 23.8322501,25.5104341 23.6636964,25.6043265 L23.6636964,25.6043265 C23.6226892,25.6277996 23.5797023,25.649293 23.5367155,25.6710692 L23.5367155,25.6710692 C23.389938,25.7412057 23.2369387,25.8079484 23.0746068,25.8608335 L23.0746068,25.8608335 C22.9122749,25.9114562 22.744004,25.9547259 22.5678144,25.9861176 L22.5678144,25.9861176 C22.4795783,25.9977127 22.3916249,26.0115703 22.3014091,26.0192062 L22.3014091,26.0192062 C22.2564426,26.0251451 22.2114761,26.0271248 22.1645299,26.0271248 L22.1645299,26.0271248 C22.1195634,26.0291044 22.0706376,26.0327809 22.0296304,26.0310841 L22.0296304,26.0310841 C21.9863607,26.0310841 21.9433739,26.0291044 21.8984073,26.0291044 L21.8984073,26.0291044 C21.8435425,26.0271248 21.7886777,26.0231655 21.7340958,26.0211858 L21.7340958,26.0211858 C21.7340958,26.0211858 21.7066634,26.0211858 21.727874,26.0192062 L21.727874,26.0192062 L21.7103399,26.0175093 L21.673292,26.0132672 C21.6478392,26.0115703 21.6243662,26.0095907 21.5989134,26.0056314 L21.5989134,26.0056314 C21.5497048,25.9996924 21.5010618,25.9940362 21.4521359,25.9861176 L21.4521359,25.9861176 C21.0587497,25.93097 20.6594245,25.815867 20.2756537,25.6413743 L20.2756537,25.6413743 C19.8901861,25.4674473 19.5222525,25.2284743 19.1893872,24.9289804 L19.1893872,24.9289804 C18.856522,24.6317489 18.5669263,24.2714513 18.3401141,23.8642074 L18.3401141,23.8642074 C18.1130191,23.459226 17.9543637,23.0070156 17.8799851,22.5333118 L17.8799851,22.5333118 C17.8426544,22.2963185 17.8271,22.0519722 17.8330389,21.8129993 L17.8330389,21.8129993 C17.8369983,21.7465393 17.8386951,21.6817762 17.8426544,21.6153163 L17.8426544,21.6153163 C17.8426544,21.6328504 17.8449169,21.605418 17.8449169,21.6037212 L17.8449169,21.6037212 L17.8466137,21.5802481 L17.8505731,21.5313223 C17.8525527,21.4979509 17.856512,21.4665592 17.8604713,21.4334706 L17.8604713,21.4334706 C17.8740461,21.3042272 17.8938427,21.1730042 17.9173158,21.0460233 L17.9173158,21.0460233 C18.0991615,20.0143389 18.6158521,19.0081072 19.4145026,18.2428281 L19.4145026,18.2428281 C19.6141652,18.0530638 19.8293823,17.8748946 20.058457,17.7182188 L20.058457,17.7182188 C20.2872488,17.5618258 20.5321608,17.4207045 20.7864054,17.3033391 L20.7864054,17.3033391 C21.0409328,17.1859737 21.3073381,17.0901017 21.5793997,17.0157231 L21.5793997,17.0157231 C21.8514612,16.9433242 22.1311585,16.8943984 22.4148152,16.8689457 L22.4148152,16.8689457 C22.5559365,16.8570677 22.6987547,16.8514116 22.8418556,16.8514116 L22.8418556,16.8514116 C22.8789035,16.8514116 22.9083156,16.8533912 22.9377276,16.8533912 L22.9377276,16.8533912 L23.0531134,16.8570677 L23.1255123,16.8590474 C23.1549243,16.8590474 23.1255123,16.8590474 23.1393699,16.861027 L23.1393699,16.861027 L23.1684991,16.8630067 L23.2841677,16.8709253 C23.5912974,16.8960953 23.89871,16.9393649 24.2001836,17.0078045 L24.2001836,17.0078045 C24.8051104,17.142704 25.3922203,17.3638601 25.9400198,17.6673133 L25.9400198,17.6673133 C27.0361846,18.2742198 27.9697346,19.223607 28.5432697,20.3684148 L28.5432697,20.3684148 C28.8331481,20.9379906 29.0328107,21.5528157 29.1346217,22.1868717 L29.1346217,22.1868717 C29.157812,22.3452444 29.1776085,22.5058794 29.1911833,22.6665145 L29.1911833,22.6665145 L29.2010816,22.7878392 L29.2070206,22.909164 C29.2087174,22.950454 29.2087174,22.9891987 29.2106971,23.0304887 L29.2106971,23.0304887 C29.2106971,23.0697991 29.2129596,23.1147656 29.2129596,23.1438948 L29.2129596,23.1438948 L29.2129596,23.2476854 L29.2106971,23.3650509 C29.2070206,23.4436715 29.2010816,23.5706524 29.1971223,23.6489903 L29.1971223,23.6489903 C29.1832647,23.8232002 29.1696899,23.9991069 29.1462168,24.1735996 L29.1462168,24.1735996 C29.1247234,24.345547 29.0955941,24.51806 29.0639196,24.6902903 L29.0639196,24.6902903 C29.0288514,24.8605408 28.9937832,25.0307914 28.9485339,25.1990623 L28.9485339,25.1990623 C28.8645398,25.5378665 28.7548102,25.8687522 28.6275465,26.193416 L28.6275465,26.193416 C28.3710394,26.8433094 28.0285587,27.4598313 27.6156586,28.0294071 L27.6156586,28.0294071 C26.7878789,29.166579 25.6583428,30.0964525 24.3743935,30.6796031 L24.3743935,30.6796031 C23.7324188,30.9691987 23.055093,31.1824361 22.3582535,31.2981047 L22.3582535,31.2981047 C22.0101166,31.3569288 21.6577375,31.391997 21.3053585,31.403875 L21.3053585,31.403875 L21.2408782,31.4055718 L21.1840337,31.4055718 L21.0706276,31.4078343 L20.896135,31.4078343 L20.8098784,31.4078343 C20.8590871,31.4078343 20.8022426,31.4078343 20.8042223,31.4055718 L20.8042223,31.4055718 L20.7688712,31.403875 C20.5791069,31.3999157 20.3913223,31.3903002 20.2032548,31.3764426 L20.2032548,31.3764426 C19.4495708,31.3195981 18.7040883,31.1866782 17.9817961,30.9754205 L17.9817961,30.9754205 C17.2595038,30.7655768 16.558705,30.4858794 15.8952369,30.1335004 L15.8952369,30.1335004 C14.5702803,29.4250657 13.3861622,28.4541851 12.4579856,27.2836418 L12.4579856,27.2836418 C11.9922004,26.7004912 11.5852394,26.074071 11.2486976,25.4142793 L11.2486976,25.4142793 C10.9121558,24.7550533 10.6477301,24.06387 10.4520268,23.357415 L10.4520268,23.357415 C10.2583032,22.6506773 10.1366956,21.9266882 10.0900323,21.198457 L10.0900323,21.198457 L10.0821136,21.0615778 L10.080134,21.0282064 L10.080134,20.9987943 L10.0781543,20.9379906 L10.074195,20.8186455 L10.0722153,20.7892334 L10.0722153,20.7482262 L10.0722153,20.6642322 L10.0705185,20.4936988 L10.0705185,20.4606103 L10.0705185,20.4487323 L10.0705185,20.3822724 C10.0705185,20.294319 10.074195,20.2041032 10.0761746,20.1161498 L10.0761746,20.1161498 C10.0900323,19.7558521 10.1191615,19.385939 10.1661077,19.0160258 L10.1661077,19.0160258 C10.2130538,18.6461126 10.2741404,18.2742198 10.3502158,17.9043066 L10.3502158,17.9043066 C10.4265741,17.5363731 10.5165071,17.1701364 10.618318,16.8121012 L10.618318,16.8121012 C10.8239196,16.0937683 11.0804267,15.3969288 11.3838799,14.7393997 L11.3838799,14.7393997 C11.9922004,13.4220789 12.7911337,12.2614339 13.7501364,11.3259042 L13.7501364,11.3259042 C13.9888266,11.0908906 14.237415,10.8697346 14.4959018,10.6621533 L14.4959018,10.6621533 C14.7541057,10.4548549 15.0222079,10.2628281 15.2982287,10.082962 L15.2982287,10.082962 C15.5722699,9.90083354 15.8562094,9.73623915 16.1477847,9.58380551 L16.1477847,9.58380551 C16.2928653,9.50546763 16.4413396,9.43702803 16.5900968,9.36434632 L16.5900968,9.36434632 C16.6647581,9.33125775 16.7408335,9.29788638 16.8152121,9.26451501 L16.8152121,9.26451501 C16.8895907,9.23114364 16.9656661,9.19805507 17.0420243,9.16892582 L17.0420243,9.16892582 C17.3454775,9.03968246 17.6588291,8.93193252 17.9718978,8.83012156 L17.9718978,8.83012156 C18.0522153,8.80664847 18.1305532,8.78119573 18.2088911,8.75772265 L18.2088911,8.75772265 C18.2869462,8.73255272 18.3692434,8.71445299 18.4475812,8.69126271 L18.4475812,8.69126271 C18.6062367,8.6460134 18.7685686,8.60896552 18.9292037,8.56795832 L18.9292037,8.56795832 C19.0095212,8.5464649 19.0915356,8.53260729 19.1718531,8.51507318 L19.1718531,8.51507318 C19.2538675,8.49753907 19.3341851,8.48000496 19.4164823,8.4641677 L19.4164823,8.4641677 C19.4987795,8.44861325 19.5807938,8.43475564 19.6611114,8.41920119 L19.6611114,8.41920119 L19.7844158,8.39770776 L19.908003,8.378194 C19.9897346,8.36631605 20.0723146,8.35274126 20.154329,8.34086331 L20.154329,8.34086331 C20.2462416,8.32502605 20.3404168,8.31739023 20.4323294,8.30381543 L20.4323294,8.30381543 C20.5086877,8.29391714 20.6319921,8.28005954 20.7083503,8.27044406 L20.7083503,8.27044406 C20.7671744,8.26450509 20.8240189,8.25884892 20.8825602,8.25290995 L20.8825602,8.25290995 L20.9979459,8.241032 L21.0564872,8.23537584 L21.1252096,8.23113371 C21.219102,8.22547755 21.3110146,8.21953858 21.404907,8.2135996 L21.404907,8.2135996 L21.5443314,8.20370131 C21.5443314,8.20370131 21.5949541,8.20200447 21.5497048,8.20200447 L21.5497048,8.20200447 L21.5793997,8.20002481 L21.637941,8.19804515 C21.7182585,8.19408583 21.7965964,8.19012652 21.8769139,8.1861672 L21.8769139,8.1861672 C22.1939419,8.17655172 22.5092731,8.17655172 22.8200794,8.1861672 L22.8200794,8.1861672 C23.44452,8.21161995 24.0570826,8.28005954 24.6521111,8.38978913 L24.6521111,8.38978913 C25.8441479,8.61094517 26.9660481,8.99471595 27.9796328,9.49585215 L27.9796328,9.49585215 C28.99548,9.99274622 29.9055569,10.603612 30.6965716,11.2670801 L30.6965716,11.2670801 C30.7454974,11.3083701 30.7941404,11.351357 30.8430662,11.3923642 L30.8430662,11.3923642 C30.8919921,11.4356338 30.939221,11.4763582 30.9861672,11.5193451 L30.9861672,11.5193451 C31.0817564,11.6036219 31.1739519,11.6918581 31.2661474,11.776135 L31.2661474,11.776135 C31.35806,11.8621087 31.4460134,11.950062 31.5362292,12.0360357 L31.5362292,12.0360357 C31.6222029,12.1245547 31.7101563,12.2105284 31.7944331,12.3007442 L31.7944331,12.3007442 C32.1289953,12.6545373 32.4403672,13.014835 32.7203473,13.3771124 L32.7203473,13.3771124 C33.2820045,14.0994046 33.7302555,14.827353 34.0882907,15.5162739 L34.0882907,15.5162739 C34.1120466,15.5592607 34.1335401,15.6022476 34.1550335,15.6455172 L34.1550335,15.6455172 C34.1768097,15.6887869 34.1980203,15.7317738 34.2175341,15.7747606 L34.2175341,15.7747606 C34.2585413,15.8590375 34.301811,15.9430315 34.3391417,16.0270256 L34.3391417,16.0270256 C34.3781692,16.1113024 34.4171967,16.1935996 34.4542446,16.2758968 L34.4542446,16.2758968 C34.4895956,16.3579112 34.5249467,16.4402084 34.5602977,16.5185463 L34.5602977,16.5185463 C34.6932176,16.8415133 34.8145423,17.1469462 34.9143736,17.4385215 L34.9143736,17.4385215 C35.078968,17.9060035 35.1980303,18.3290846 35.2922054,18.6947556 L35.2922054,18.6947556 C35.3295361,18.8418159 35.4683949,18.9396676 35.6191317,18.9260928 L35.6191317,18.9260928 C35.7755247,18.9122352 35.8948698,18.7832746 35.8991119,18.6263161 L35.8991119,18.6263161 C35.9070305,18.2332126 35.8971322,17.7691243 35.8518829,17.2408385 L35.8518829,17.2408385 C35.7930588,16.5872687 35.6816323,15.8296254 35.4604763,14.9976036 L35.4604763,14.9976036 C35.2429968,14.1658645 34.9203126,13.2557876 34.4505681,12.3103597 L34.4505681,12.3103597 C33.978844,11.3669114 33.3643017,10.3841528 32.5653684,9.43504838 L32.5653684,9.43504838 C32.2545621,9.06343835 31.9137782,8.69522203 31.5458447,8.33690399 L31.5458447,8.33690399 C32.0939271,6.1567353 30.8784173,4.26559663 30.8784173,4.26559663 L30.8784173,4.26559663 C28.780263,4.13465641 27.4454081,4.91746961 26.9502109,5.27607045 L26.9502109,5.27607045 C26.8679137,5.24043662 26.7836368,5.20508559 26.6996428,5.17001737 L26.6996428,5.17001737 C26.3416075,5.02521955 25.9753709,4.89003721 25.5975391,4.77069214 L25.5975391,4.77069214 C25.2197073,4.65134706 24.8342396,4.54161746 24.4408534,4.44970479 L24.4408534,4.44970479 C24.0454875,4.35779211 23.6441826,4.27945423 23.2349591,4.21695361 L23.2349591,4.21695361 C23.162843,4.20705532 23.0921409,4.19715703 23.0200248,4.1855619 L23.0200248,4.1855619 C22.1076854,1.26132473 19.4789829,0.0378963036 19.4789829,0.0378963036 L19.4789829,0.0378963036 C16.5471099,1.88774498 15.9891292,4.48901513 15.9891292,4.48901513 M33.4033292,25.032771 C33.3877747,25.0208931 33.3758968,25.0132573 33.3758968,25.0132573 L33.3758968,25.0132573 C33.3620392,25.0036418 33.3445051,24.991481 33.3249913,24.9798859 L33.3249913,24.9798859 C33.3252741,24.9770578 33.3255569,24.9742297 33.3258397,24.9716844 L33.3258397,24.9716844 C33.3340412,24.978189 33.3436567,24.985542 33.3529893,24.9928951 L33.3529893,24.9928951 C33.3790077,25.0129744 33.4047432,25.0333366 33.4041776,25.0333366 L33.4041776,25.0333366 C33.4041776,25.0333366 33.4038948,25.0330538 33.4033292,25.032771" id="path-3"></path>
        <linearGradient x1="50.0045261%" y1="122.495827%" x2="50.0045261%" y2="31.1172039%" id="linearGradient-5">
            <stop stop-color="#FFF200" offset="0%"></stop>
            <stop stop-color="#F05928" offset="100%"></stop>
        </linearGradient>
    </defs>
    <g id="Home" stroke="none" stroke-width="1" fill="none" fill-rule="evenodd">
        <g id="methodologie" transform="translate(-1040.000000, -7950.000000)">
            <g id="logo_grafana" transform="translate(1040.000000, 7950.711836)">
                <g id="Group-16" transform="translate(42.986852, 12.696110)">
                    <path d="M13.2457197,7.34040089 C13.1034671,11.0084237 10.2100561,13.8656353 6.61443215,13.8656353 C2.81971124,13.8656353 -0.00130091789,10.7932066 -0.00130091789,7.08926718 C-0.00130091789,3.34884545 3.05274522,0.27641677 6.77506723,0.27641677 C8.45636219,0.27641677 10.1011749,0.999274622 11.4923086,2.29962689 L10.4068906,3.63617862 C9.33957231,2.71422377 8.05731977,2.08214736 6.77506723,2.08214736 C4.04483652,2.08214736 1.80414686,4.32283701 1.80414686,7.08926718 C1.80414686,9.88935153 3.91813843,12.0599047 6.61188688,12.0599047 C9.03385661,12.0599047 10.9326311,10.2881111 11.3107457,8.01150484 L5.81917539,8.01150484 L5.81917539,6.40289159 L13.2485478,6.40289159 L13.2485478,7.34040089 L13.2457197,7.34040089 Z" id="Fill-1" fill="#414042"></path>
                    <path d="M19.5533897,6.45453237 L18.5403706,6.45453237 C17.4215812,6.45453237 16.5174433,7.36121558 16.5174433,8.47745969 L16.5174433,13.7540958 L14.7094503,13.7540958 L14.7094503,4.71639295 L16.1910826,4.71639295 L16.1910826,5.47545026 C16.6780784,4.98845448 17.4552354,4.71639295 18.3228911,4.71639295 L20.2734195,4.71639295 L19.5533897,6.45453237 Z" id="Fill-3" fill="#414042"></path>
                    <path d="M27.5523944,9.88677797 C27.9797177,8.05022129 26.5888668,6.3819355 24.7755004,6.3819355 C23.2030866,6.3819355 21.9389338,7.66418804 21.9389338,9.21850211 C21.9389338,10.9772865 23.4853292,12.3373113 25.283424,12.0315956 C26.3892042,11.8423969 27.2987155,10.9826599 27.5523944,9.88677797 L27.5523944,9.88677797 Z M29.4016775,13.7567259 L27.865746,13.7567259 L27.865746,12.6170087 C26.6768201,13.7773709 24.8037812,14.3345031 22.9050067,13.5002188 C21.4988841,12.8811516 20.4522109,11.598899 20.1722307,10.0861578 C19.6337638,7.16446589 21.8820893,4.57139717 24.7545726,4.57139717 C25.9644262,4.57139717 27.0498442,5.05839295 27.845101,5.85364971 L27.845101,4.71364971 L29.3991322,4.71364971 L29.3991322,13.7567259 L29.4016775,13.7567259 Z" id="Fill-5" fill="#414042"></path>
                    <path d="M33.0439648,4.21389928 L33.0439648,4.71899479 L35.916448,4.71899479 L35.916448,6.30950831 L33.0439648,6.30950831 L33.0439648,13.7566976 L31.2540714,13.7566976 L31.2540714,4.26819846 C31.2540714,2.27892533 32.6814046,1.10555396 34.4712979,1.10555396 L36.6393059,1.10555396 L35.916448,2.80466584 L34.4738432,2.80466584 C33.6785865,2.80466584 33.0439648,3.43674225 33.0439648,4.21389928" id="Fill-7" fill="#414042"></path>
                    <path d="M43.648708,9.88677797 C44.0763141,8.05022129 42.6851804,6.3819355 40.8720968,6.3819355 C39.2994001,6.3819355 38.0352473,7.66418804 38.0352473,9.21850211 C38.0352473,10.9772865 39.5819256,12.3373113 41.3797375,12.0315956 C42.4829725,11.8423969 43.395029,10.9826599 43.648708,9.88677797 L43.648708,9.88677797 Z M45.4954458,13.7567259 L43.9597971,13.7567259 L43.9597971,12.6170087 C42.7708712,13.7773709 40.8975495,14.3345031 38.9990578,13.5002188 C37.5926524,12.8811516 36.5459792,11.598899 36.2662818,10.0861578 C35.7272493,7.16446589 37.9758576,4.57139717 40.8486237,4.57139717 C42.0581945,4.57139717 43.1436125,5.05839295 43.9388693,5.85364971 L43.9388693,4.71364971 L45.4929005,4.71364971 L45.4929005,13.7567259 L45.4954458,13.7567259 Z" id="Fill-9" fill="#414042"></path>
                    <path d="M55.1499534,8.40506078 L55.1499534,13.7540958 L53.3416775,13.7540958 L53.3416775,8.40506078 C53.3416775,7.28344331 52.4197226,6.38213347 51.3187502,6.38213347 C50.179033,6.38213347 49.2774403,7.28598859 49.2774403,8.40506078 L49.2774403,13.7540958 L47.4694473,13.7540958 L47.4694473,4.71639295 L48.9694622,4.71639295 L48.9694622,5.49354999 C49.6193555,4.91577276 50.487294,4.57131233 51.3914319,4.57131233 C53.4867581,4.5738576 55.1499534,6.29135202 55.1499534,8.40506078" id="Fill-11" fill="#414042"></path>
                    <g id="Group-15" transform="translate(56.278839, 4.524932)">
                        <mask id="mask-2" fill="white">
                            <use xlink:href="#path-1"></use>
                        </mask>
                        <g id="Clip-14"></g>
                        <path d="M7.64976482,5.36184619 C8.07708807,3.52528951 6.68623716,1.85700372 4.87287075,1.85700372 C3.30045696,1.85700372 2.03630414,3.13925626 2.03630414,4.69357033 C2.03630414,6.45235475 3.58298239,7.81237956 5.38079434,7.50666386 C6.48402927,7.31746515 7.39608583,6.45772811 7.64976482,5.36184619 L7.64976482,5.36184619 Z M9.49933069,9.2317941 L7.96311635,9.2317941 L7.96311635,8.0920769 C6.77419052,9.2524391 4.90143438,9.80957132 3.00265989,8.97528703 C1.59625453,8.3562198 0.549581245,7.07396725 0.2698839,5.561226 C-0.26886579,2.63953411 1.97945969,0.0464653932 4.85194294,0.0464653932 C6.06179658,0.0464653932 7.14721459,0.533461176 7.94247135,1.32871794 L7.94247135,0.188717936 L9.4965026,0.188717936 L9.4965026,9.2317941 L9.49933069,9.2317941 Z" id="Fill-13" fill="#414042" mask="url(#mask-2)"></path>
                    </g>
                </g>
                <g id="Group-19" transform="translate(0.000000, 0.252548)">
                    <mask id="mask-4" fill="white">
                        <use xlink:href="#path-3"></use>
                    </mask>
                    <g id="Clip-18"></g>
                    <path d="M15.9891292,4.48901513 L15.9894121,4.48901513 C15.9894121,4.48901513 15.9752716,4.54557678 15.9577375,4.64173158 L15.9577375,4.64173158 C15.7954056,4.68839494 15.6330737,4.73364426 15.4704589,4.7865294 L15.4704589,4.7865294 C15.2453436,4.85496899 15.0241875,4.93726619 14.799355,5.01730092 L14.799355,5.01730092 C14.578199,5.10327462 14.3530836,5.18953113 14.1336244,5.28766559 L14.1336244,5.28766559 C13.6913123,5.47714711 13.2529596,5.69066733 12.8242223,5.93133714 L12.8242223,5.93133714 C12.4093426,6.16437112 12.0001191,6.42087819 11.6027735,6.69859588 L11.6027735,6.69859588 C11.5462119,6.67116348 11.5009625,6.65164971 11.5009625,6.65164971 L11.5009625,6.65164971 C7.44351278,5.10157777 3.84025304,6.96669809 3.84025304,6.96669809 L3.84025304,6.96669809 C3.51134706,11.2826346 5.46074423,14.0035326 5.84649467,14.4967502 L5.84649467,14.4967502 C5.75062267,14.7628727 5.66068966,15.0329546 5.57810965,15.3050161 L5.57810965,15.3050161 C5.27889854,16.2838154 5.05378318,17.2875019 4.91464153,18.3251253 L4.91464153,18.3251253 C4.89541057,18.4738824 4.87759365,18.6246192 4.86005954,18.775356 L4.86005954,18.775356 C1.11171918,20.6266187 0,24.422188 0,24.422188 L0,24.422188 C3.12955594,28.0214885 6.778065,28.2446242 6.778065,28.2446242 L6.778065,28.2446242 C6.78202431,28.2426445 6.78428678,28.238968 6.78796328,28.2367055 L6.78796328,28.2367055 C7.25176879,29.064768 7.78797321,29.8535202 8.39318283,30.5876904 L8.39318283,30.5876904 C8.64516497,30.8948201 8.91157033,31.1923344 9.18730836,31.4802332 L9.18730836,31.4802332 C8.04674274,34.7429918 9.34794344,37.4579509 9.34794344,37.4579509 L9.34794344,37.4579509 C12.8321409,37.5888911 15.1203423,35.9330489 15.601682,35.5515406 L15.601682,35.5515406 C15.9481221,35.668906 16.3005011,35.7726966 16.6548598,35.8646093 L16.6548598,35.8646093 C17.725289,36.1403473 18.8214537,36.302962 19.9176185,36.3499082 L19.9176185,36.3499082 C20.1913768,36.3615033 20.465418,36.3674423 20.7374795,36.3657455 L20.7374795,36.3657455 L20.8706822,36.3657455 L20.9569387,36.3637658 L21.1291689,36.3578268 L21.2994195,36.3499082 L21.303096,36.3558472 C22.8718333,38.5942744 25.5805706,38.9947308 25.8141702,39.0255569 L25.8141702,39.0255569 L25.8322699,39.0255569 C27.8837609,36.8615083 28.0011263,34.7155594 28.0011263,34.2514711 L28.0011263,34.2514711 L28.0011263,34.220645 C28.0011263,34.1813347 27.9994294,34.1558819 27.9994294,34.1558819 L27.9994294,34.1558819 C27.997167,34.1225105 27.997167,34.0911188 27.9934904,34.0557678 L27.9934904,34.0557678 C28.4242074,33.754577 28.834845,33.4296304 29.2245547,33.0812106 L29.2245547,33.0812106 C30.0466782,32.337425 30.7650112,31.4921111 31.3600397,30.5780749 L31.3600397,30.5780749 C31.4168841,30.4918184 31.4714661,30.4055619 31.5243513,30.3173257 L31.5243513,30.3173257 C33.8476209,30.4505284 35.485929,28.8786802 35.485929,28.8786802 L35.485929,28.8786802 C35.1004614,26.4575589 33.72064,25.2774001 33.4327413,25.0542645 L33.4327413,25.0542645 C33.3798561,25.0132573 33.3459191,24.9869561 33.3258397,24.9714016 L33.3258397,24.9714016 C33.3394145,24.8277351 33.3527065,24.6857653 33.3603423,24.5435128 L33.3603423,24.5435128 C33.3778765,24.2833292 33.3838154,24.0208832 33.3857951,23.7623964 L33.3857951,23.7623964 L33.3838154,23.5689556 L33.3818358,23.4708211 L33.3818358,23.4218953 C33.3818358,23.3551526 33.3801389,23.3806053 33.3801389,23.3551526 L33.3801389,23.3551526 L33.3722203,23.1928206 L33.3603423,22.9736443 C33.3566658,22.897286 33.3504441,22.8328058 33.3445051,22.7643662 L33.3445051,22.7643662 C33.3388489,22.6979062 33.3329099,22.6291838 33.3249913,22.5627239 L33.3249913,22.5627239 L33.3015182,22.3610816 L33.2740858,22.161419 C33.2350583,21.8952965 33.1841528,21.6311536 33.123349,21.3706872 L33.123349,21.3706872 C32.8806996,20.3274076 32.4737385,19.3370131 31.9352716,18.44645 L31.9352716,18.44645 C31.3970876,17.5558869 30.7276805,16.7671347 29.9742793,16.1033838 L29.9742793,16.1033838 C29.2208782,15.4382188 28.3752816,14.9037112 27.4883949,14.5046688 L27.4883949,14.5046688 C26.6017911,14.1053436 25.6702208,13.8485537 24.742327,13.7311883 L24.742327,13.7311883 C24.2782387,13.6703845 23.8166956,13.6471942 23.3585463,13.6528504 L23.3585463,13.6528504 L23.1882957,13.6570925 L23.1453089,13.6587894 C23.1334309,13.6587894 23.0805458,13.660769 23.0864847,13.660769 L23.0864847,13.660769 L23.0157827,13.6650112 L22.8455321,13.6766063 C22.7813347,13.6805656 22.7145919,13.6862218 22.6577475,13.6921608 L22.6577475,13.6921608 C22.4227338,13.7156338 22.1899826,13.7467427 21.9592111,13.7900124 L21.9592111,13.7900124 C21.0392359,13.9622426 20.1698834,14.2951079 19.4046043,14.7529744 L19.4046043,14.7529744 C18.6393252,15.210841 17.9738774,15.7843761 17.4317341,16.4342694 L17.4317341,16.4342694 C16.8915703,17.0821831 16.4707517,17.800516 16.181156,18.5443017 L16.181156,18.5443017 C15.8912776,19.2880873 15.7286629,20.0553461 15.6836964,20.8011114 L15.6836964,20.8011114 C15.6721012,20.9869164 15.6681419,21.1730042 15.6721012,21.3571124 L15.6721012,21.3571124 C15.6721012,21.4020789 15.6740809,21.4487422 15.6760605,21.4939916 L15.6760605,21.4939916 L15.6819995,21.6427487 C15.6876557,21.7329645 15.6955743,21.8206351 15.7034929,21.9088712 L15.7034929,21.9088712 C15.7405408,22.2867031 15.8092632,22.6486976 15.9110742,22.999097 L15.9110742,22.999097 C16.1127164,23.6979161 16.4373803,24.3299926 16.8367055,24.8664798 L16.8367055,24.8664798 C17.2360308,25.4046639 17.7136939,25.8492384 18.2204862,26.1953957 L18.2204862,26.1953957 C18.7272786,26.5418358 19.269422,26.790707 19.806192,26.9487968 L19.806192,26.9487968 C20.3440933,27.1074522 20.8786008,27.1758918 21.3817167,27.174195 L21.3817167,27.174195 C21.4442173,27.174195 21.5067179,27.1722153 21.5695014,27.1702357 L21.5695014,27.1702357 C21.6028727,27.1702357 21.6362441,27.1662764 21.6693327,27.1662764 L21.6693327,27.1662764 L21.769164,27.1603374 C21.8217663,27.1546812 21.8769139,27.1504391 21.9295162,27.1447829 L21.9295162,27.1447829 C21.9413942,27.1447829 21.9592111,27.1408236 21.9747656,27.138844 L21.9747656,27.138844 L22.0234086,27.132905 C22.05678,27.1292285 22.0881717,27.1230067 22.121543,27.1193302 L22.121543,27.1193302 C22.188003,27.1114116 22.2445646,27.0978368 22.3033887,27.0879385 L22.3033887,27.0879385 C22.3622129,27.0760605 22.421037,27.0644654 22.4795783,27.0489109 L22.4795783,27.0489109 C22.5952468,27.0231754 22.7066733,26.9881072 22.8183825,26.9547358 L22.8183825,26.9547358 C23.0375589,26.8826197 23.2428777,26.7943835 23.4349045,26.6965319 L23.4349045,26.6965319 C23.6266485,26.5986802 23.802838,26.4872538 23.9671496,26.3713024 L23.9671496,26.3713024 C24.0140958,26.3382138 24.0590623,26.3028628 24.1043116,26.2677946 L24.1043116,26.2677946 C24.2805011,26.1309154 24.3079335,25.8724287 24.1668122,25.7001985 L24.1668122,25.7001985 C24.0435078,25.5494617 23.8322501,25.5104341 23.6636964,25.6043265 L23.6636964,25.6043265 C23.6226892,25.6277996 23.5797023,25.649293 23.5367155,25.6710692 L23.5367155,25.6710692 C23.389938,25.7412057 23.2369387,25.8079484 23.0746068,25.8608335 L23.0746068,25.8608335 C22.9122749,25.9114562 22.744004,25.9547259 22.5678144,25.9861176 L22.5678144,25.9861176 C22.4795783,25.9977127 22.3916249,26.0115703 22.3014091,26.0192062 L22.3014091,26.0192062 C22.2564426,26.0251451 22.2114761,26.0271248 22.1645299,26.0271248 L22.1645299,26.0271248 C22.1195634,26.0291044 22.0706376,26.0327809 22.0296304,26.0310841 L22.0296304,26.0310841 C21.9863607,26.0310841 21.9433739,26.0291044 21.8984073,26.0291044 L21.8984073,26.0291044 C21.8435425,26.0271248 21.7886777,26.0231655 21.7340958,26.0211858 L21.7340958,26.0211858 C21.7340958,26.0211858 21.7066634,26.0211858 21.727874,26.0192062 L21.727874,26.0192062 L21.7103399,26.0175093 L21.673292,26.0132672 C21.6478392,26.0115703 21.6243662,26.0095907 21.5989134,26.0056314 L21.5989134,26.0056314 C21.5497048,25.9996924 21.5010618,25.9940362 21.4521359,25.9861176 L21.4521359,25.9861176 C21.0587497,25.93097 20.6594245,25.815867 20.2756537,25.6413743 L20.2756537,25.6413743 C19.8901861,25.4674473 19.5222525,25.2284743 19.1893872,24.9289804 L19.1893872,24.9289804 C18.856522,24.6317489 18.5669263,24.2714513 18.3401141,23.8642074 L18.3401141,23.8642074 C18.1130191,23.459226 17.9543637,23.0070156 17.8799851,22.5333118 L17.8799851,22.5333118 C17.8426544,22.2963185 17.8271,22.0519722 17.8330389,21.8129993 L17.8330389,21.8129993 C17.8369983,21.7465393 17.8386951,21.6817762 17.8426544,21.6153163 L17.8426544,21.6153163 C17.8426544,21.6328504 17.8449169,21.605418 17.8449169,21.6037212 L17.8449169,21.6037212 L17.8466137,21.5802481 L17.8505731,21.5313223 C17.8525527,21.4979509 17.856512,21.4665592 17.8604713,21.4334706 L17.8604713,21.4334706 C17.8740461,21.3042272 17.8938427,21.1730042 17.9173158,21.0460233 L17.9173158,21.0460233 C18.0991615,20.0143389 18.6158521,19.0081072 19.4145026,18.2428281 L19.4145026,18.2428281 C19.6141652,18.0530638 19.8293823,17.8748946 20.058457,17.7182188 L20.058457,17.7182188 C20.2872488,17.5618258 20.5321608,17.4207045 20.7864054,17.3033391 L20.7864054,17.3033391 C21.0409328,17.1859737 21.3073381,17.0901017 21.5793997,17.0157231 L21.5793997,17.0157231 C21.8514612,16.9433242 22.1311585,16.8943984 22.4148152,16.8689457 L22.4148152,16.8689457 C22.5559365,16.8570677 22.6987547,16.8514116 22.8418556,16.8514116 L22.8418556,16.8514116 C22.8789035,16.8514116 22.9083156,16.8533912 22.9377276,16.8533912 L22.9377276,16.8533912 L23.0531134,16.8570677 L23.1255123,16.8590474 C23.1549243,16.8590474 23.1255123,16.8590474 23.1393699,16.861027 L23.1393699,16.861027 L23.1684991,16.8630067 L23.2841677,16.8709253 C23.5912974,16.8960953 23.89871,16.9393649 24.2001836,17.0078045 L24.2001836,17.0078045 C24.8051104,17.142704 25.3922203,17.3638601 25.9400198,17.6673133 L25.9400198,17.6673133 C27.0361846,18.2742198 27.9697346,19.223607 28.5432697,20.3684148 L28.5432697,20.3684148 C28.8331481,20.9379906 29.0328107,21.5528157 29.1346217,22.1868717 L29.1346217,22.1868717 C29.157812,22.3452444 29.1776085,22.5058794 29.1911833,22.6665145 L29.1911833,22.6665145 L29.2010816,22.7878392 L29.2070206,22.909164 C29.2087174,22.950454 29.2087174,22.9891987 29.2106971,23.0304887 L29.2106971,23.0304887 C29.2106971,23.0697991 29.2129596,23.1147656 29.2129596,23.1438948 L29.2129596,23.1438948 L29.2129596,23.2476854 L29.2106971,23.3650509 C29.2070206,23.4436715 29.2010816,23.5706524 29.1971223,23.6489903 L29.1971223,23.6489903 C29.1832647,23.8232002 29.1696899,23.9991069 29.1462168,24.1735996 L29.1462168,24.1735996 C29.1247234,24.345547 29.0955941,24.51806 29.0639196,24.6902903 L29.0639196,24.6902903 C29.0288514,24.8605408 28.9937832,25.0307914 28.9485339,25.1990623 L28.9485339,25.1990623 C28.8645398,25.5378665 28.7548102,25.8687522 28.6275465,26.193416 L28.6275465,26.193416 C28.3710394,26.8433094 28.0285587,27.4598313 27.6156586,28.0294071 L27.6156586,28.0294071 C26.7878789,29.166579 25.6583428,30.0964525 24.3743935,30.6796031 L24.3743935,30.6796031 C23.7324188,30.9691987 23.055093,31.1824361 22.3582535,31.2981047 L22.3582535,31.2981047 C22.0101166,31.3569288 21.6577375,31.391997 21.3053585,31.403875 L21.3053585,31.403875 L21.2408782,31.4055718 L21.1840337,31.4055718 L21.0706276,31.4078343 L20.896135,31.4078343 L20.8098784,31.4078343 C20.8590871,31.4078343 20.8022426,31.4078343 20.8042223,31.4055718 L20.8042223,31.4055718 L20.7688712,31.403875 C20.5791069,31.3999157 20.3913223,31.3903002 20.2032548,31.3764426 L20.2032548,31.3764426 C19.4495708,31.3195981 18.7040883,31.1866782 17.9817961,30.9754205 L17.9817961,30.9754205 C17.2595038,30.7655768 16.558705,30.4858794 15.8952369,30.1335004 L15.8952369,30.1335004 C14.5702803,29.4250657 13.3861622,28.4541851 12.4579856,27.2836418 L12.4579856,27.2836418 C11.9922004,26.7004912 11.5852394,26.074071 11.2486976,25.4142793 L11.2486976,25.4142793 C10.9121558,24.7550533 10.6477301,24.06387 10.4520268,23.357415 L10.4520268,23.357415 C10.2583032,22.6506773 10.1366956,21.9266882 10.0900323,21.198457 L10.0900323,21.198457 L10.0821136,21.0615778 L10.080134,21.0282064 L10.080134,20.9987943 L10.0781543,20.9379906 L10.074195,20.8186455 L10.0722153,20.7892334 L10.0722153,20.7482262 L10.0722153,20.6642322 L10.0705185,20.4936988 L10.0705185,20.4606103 L10.0705185,20.4487323 L10.0705185,20.3822724 C10.0705185,20.294319 10.074195,20.2041032 10.0761746,20.1161498 L10.0761746,20.1161498 C10.0900323,19.7558521 10.1191615,19.385939 10.1661077,19.0160258 L10.1661077,19.0160258 C10.2130538,18.6461126 10.2741404,18.2742198 10.3502158,17.9043066 L10.3502158,17.9043066 C10.4265741,17.5363731 10.5165071,17.1701364 10.618318,16.8121012 L10.618318,16.8121012 C10.8239196,16.0937683 11.0804267,15.3969288 11.3838799,14.7393997 L11.3838799,14.7393997 C11.9922004,13.4220789 12.7911337,12.2614339 13.7501364,11.3259042 L13.7501364,11.3259042 C13.9888266,11.0908906 14.237415,10.8697346 14.4959018,10.6621533 L14.4959018,10.6621533 C14.7541057,10.4548549 15.0222079,10.2628281 15.2982287,10.082962 L15.2982287,10.082962 C15.5722699,9.90083354 15.8562094,9.73623915 16.1477847,9.58380551 L16.1477847,9.58380551 C16.2928653,9.50546763 16.4413396,9.43702803 16.5900968,9.36434632 L16.5900968,9.36434632 C16.6647581,9.33125775 16.7408335,9.29788638 16.8152121,9.26451501 L16.8152121,9.26451501 C16.8895907,9.23114364 16.9656661,9.19805507 17.0420243,9.16892582 L17.0420243,9.16892582 C17.3454775,9.03968246 17.6588291,8.93193252 17.9718978,8.83012156 L17.9718978,8.83012156 C18.0522153,8.80664847 18.1305532,8.78119573 18.2088911,8.75772265 L18.2088911,8.75772265 C18.2869462,8.73255272 18.3692434,8.71445299 18.4475812,8.69126271 L18.4475812,8.69126271 C18.6062367,8.6460134 18.7685686,8.60896552 18.9292037,8.56795832 L18.9292037,8.56795832 C19.0095212,8.5464649 19.0915356,8.53260729 19.1718531,8.51507318 L19.1718531,8.51507318 C19.2538675,8.49753907 19.3341851,8.48000496 19.4164823,8.4641677 L19.4164823,8.4641677 C19.4987795,8.44861325 19.5807938,8.43475564 19.6611114,8.41920119 L19.6611114,8.41920119 L19.7844158,8.39770776 L19.908003,8.378194 C19.9897346,8.36631605 20.0723146,8.35274126 20.154329,8.34086331 L20.154329,8.34086331 C20.2462416,8.32502605 20.3404168,8.31739023 20.4323294,8.30381543 L20.4323294,8.30381543 C20.5086877,8.29391714 20.6319921,8.28005954 20.7083503,8.27044406 L20.7083503,8.27044406 C20.7671744,8.26450509 20.8240189,8.25884892 20.8825602,8.25290995 L20.8825602,8.25290995 L20.9979459,8.241032 L21.0564872,8.23537584 L21.1252096,8.23113371 C21.219102,8.22547755 21.3110146,8.21953858 21.404907,8.2135996 L21.404907,8.2135996 L21.5443314,8.20370131 C21.5443314,8.20370131 21.5949541,8.20200447 21.5497048,8.20200447 L21.5497048,8.20200447 L21.5793997,8.20002481 L21.637941,8.19804515 C21.7182585,8.19408583 21.7965964,8.19012652 21.8769139,8.1861672 L21.8769139,8.1861672 C22.1939419,8.17655172 22.5092731,8.17655172 22.8200794,8.1861672 L22.8200794,8.1861672 C23.44452,8.21161995 24.0570826,8.28005954 24.6521111,8.38978913 L24.6521111,8.38978913 C25.8441479,8.61094517 26.9660481,8.99471595 27.9796328,9.49585215 L27.9796328,9.49585215 C28.99548,9.99274622 29.9055569,10.603612 30.6965716,11.2670801 L30.6965716,11.2670801 C30.7454974,11.3083701 30.7941404,11.351357 30.8430662,11.3923642 L30.8430662,11.3923642 C30.8919921,11.4356338 30.939221,11.4763582 30.9861672,11.5193451 L30.9861672,11.5193451 C31.0817564,11.6036219 31.1739519,11.6918581 31.2661474,11.776135 L31.2661474,11.776135 C31.35806,11.8621087 31.4460134,11.950062 31.5362292,12.0360357 L31.5362292,12.0360357 C31.6222029,12.1245547 31.7101563,12.2105284 31.7944331,12.3007442 L31.7944331,12.3007442 C32.1289953,12.6545373 32.4403672,13.014835 32.7203473,13.3771124 L32.7203473,13.3771124 C33.2820045,14.0994046 33.7302555,14.827353 34.0882907,15.5162739 L34.0882907,15.5162739 C34.1120466,15.5592607 34.1335401,15.6022476 34.1550335,15.6455172 L34.1550335,15.6455172 C34.1768097,15.6887869 34.1980203,15.7317738 34.2175341,15.7747606 L34.2175341,15.7747606 C34.2585413,15.8590375 34.301811,15.9430315 34.3391417,16.0270256 L34.3391417,16.0270256 C34.3781692,16.1113024 34.4171967,16.1935996 34.4542446,16.2758968 L34.4542446,16.2758968 C34.4895956,16.3579112 34.5249467,16.4402084 34.5602977,16.5185463 L34.5602977,16.5185463 C34.6932176,16.8415133 34.8145423,17.1469462 34.9143736,17.4385215 L34.9143736,17.4385215 C35.078968,17.9060035 35.1980303,18.3290846 35.2922054,18.6947556 L35.2922054,18.6947556 C35.3295361,18.8418159 35.4683949,18.9396676 35.6191317,18.9260928 L35.6191317,18.9260928 C35.7755247,18.9122352 35.8948698,18.7832746 35.8991119,18.6263161 L35.8991119,18.6263161 C35.9070305,18.2332126 35.8971322,17.7691243 35.8518829,17.2408385 L35.8518829,17.2408385 C35.7930588,16.5872687 35.6816323,15.8296254 35.4604763,14.9976036 L35.4604763,14.9976036 C35.2429968,14.1658645 34.9203126,13.2557876 34.4505681,12.3103597 L34.4505681,12.3103597 C33.978844,11.3669114 33.3643017,10.3841528 32.5653684,9.43504838 L32.5653684,9.43504838 C32.2545621,9.06343835 31.9137782,8.69522203 31.5458447,8.33690399 L31.5458447,8.33690399 C32.0939271,6.1567353 30.8784173,4.26559663 30.8784173,4.26559663 L30.8784173,4.26559663 C28.780263,4.13465641 27.4454081,4.91746961 26.9502109,5.27607045 L26.9502109,5.27607045 C26.8679137,5.24043662 26.7836368,5.20508559 26.6996428,5.17001737 L26.6996428,5.17001737 C26.3416075,5.02521955 25.9753709,4.89003721 25.5975391,4.77069214 L25.5975391,4.77069214 C25.2197073,4.65134706 24.8342396,4.54161746 24.4408534,4.44970479 L24.4408534,4.44970479 C24.0454875,4.35779211 23.6441826,4.27945423 23.2349591,4.21695361 L23.2349591,4.21695361 C23.162843,4.20705532 23.0921409,4.19715703 23.0200248,4.1855619 L23.0200248,4.1855619 C22.1076854,1.26132473 19.4789829,0.0378963036 19.4789829,0.0378963036 L19.4789829,0.0378963036 C16.5471099,1.88774498 15.9891292,4.48901513 15.9891292,4.48901513 M33.4033292,25.032771 C33.3877747,25.0208931 33.3758968,25.0132573 33.3758968,25.0132573 L33.3758968,25.0132573 C33.3620392,25.0036418 33.3445051,24.991481 33.3249913,24.9798859 L33.3249913,24.9798859 C33.3252741,24.9770578 33.3255569,24.9742297 33.3258397,24.9716844 L33.3258397,24.9716844 C33.3340412,24.978189 33.3436567,24.985542 33.3529893,24.9928951 L33.3529893,24.9928951 C33.3790077,25.0129744 33.4047432,25.0333366 33.4041776,25.0333366 L33.4041776,25.0333366 C33.4041776,25.0333366 33.4038948,25.0330538 33.4033292,25.032771" id="Fill-17" fill="url(#linearGradient-5)" mask="url(#mask-4)"></path>
                </g>
            </g>
        </g>
    </g>
</svg>