<svg height="32" viewBox="0 0 117 32" width="117" xmlns="http://www.w3.org/2000/svg" xmlns:xlink="http://www.w3.org/1999/xlink"><linearGradient id="a" x1="50.000097%" x2="50.000097%" y1="100%" y2="-.000194%"><stop offset="0" stop-color="#0079bf"/><stop offset="1" stop-color="#0079bf"/></linearGradient><mask id="b" fill="#fff"><path d="m3.87235659 0c-2.13875969 0-3.87235659 1.7335969-3.87235659 3.87235659v23.23269771c0 2.1387597 1.7335969 3.8723566 3.87235659 3.8723566h23.23293801c2.1385194 0 3.8721163-1.7335969 3.8721163-3.8723566v-23.23269771c0-2.13875969-1.7335969-3.87235659-3.8721163-3.87235659zm13.62990701 15.7210853v-9.83541088c0-1.02660465.8321938-1.85855814 1.8585581-1.85855814h5.7309147c1.0266047 0 1.8585582.83195349 1.8585582 1.85855814v9.83541088c0 1.0263643-.8319535 1.8585581-1.8585582 1.8585581h-5.7309147c-1.0263643 0-1.8585581-.8321938-1.8585581-1.8585581zm-13.47514732 7.7442325v-17.57964338c0-1.02660465.83195349-1.85855814 1.85879845-1.85855814h5.73067437c1.0263644 0 1.8587985.83195349 1.8587985 1.85855814v17.57964338c0 1.0266047-.8324341 1.8587985-1.8587985 1.8587985h-5.73067437c-1.02684496 0-1.85879845-.8321938-1.85879845-1.8587985z" fill="#fff" fill-rule="evenodd"/></mask><g fill="none" fill-rule="evenodd"><path d="m3.87235659 0c-2.13875969 0-3.87235659 1.7335969-3.87235659 3.87235659v23.23269771c0 2.1387597 1.7335969 3.8723566 3.87235659 3.8723566h23.23293801c2.1385194 0 3.8721163-1.7335969 3.8721163-3.8723566v-23.23269771c0-2.13875969-1.7335969-3.87235659-3.8721163-3.87235659zm13.62990701 15.7210853v-9.83541088c0-1.02660465.8321938-1.85855814 1.8585581-1.85855814h5.7309147c1.0266047 0 1.8585582.83195349 1.8585582 1.85855814v9.83541088c0 1.0263643-.8319535 1.8585581-1.8585582 1.8585581h-5.7309147c-1.0263643 0-1.8585581-.8321938-1.8585581-1.8585581zm-13.47514732 7.7442325v-17.57964338c0-1.02660465.83195349-1.85855814 1.85879845-1.85855814h5.73067437c1.0263644 0 1.8587985.83195349 1.8587985 1.85855814v17.57964338c0 1.0266047-.8324341 1.8587985-1.8587985 1.8587985h-5.73067437c-1.02684496 0-1.85879845-.8321938-1.85879845-1.8587985z" fill="url(#a)" mask="url(#b)" transform="translate(85.5 .711836)"/><g fill-rule="nonzero" transform="translate(0 .711836)"><path d="m6.12549647 29.7075962c-2.21612642.004788-4.26342565-1.1832173-5.35884667-3.1096888-1.0796307-1.9146163-1.01488966-4.2686728.16834073-6.1210561l11.03567027-17.3297433c1.1499155-1.89616493 3.2311057-3.02697469 5.4476932-2.95999123 2.2149741.05307973 4.2296892 1.29496623 5.2723382 3.24991138 1.028749 1.9452707.9001554 4.28567451-.3320053 6.11170385l-11.0286561 17.3297433c-1.1366668 1.7712416-3.09996306 2.8384421-5.20453433 2.8291209z" fill="#f62b54"/><path d="m25.0544767 29.7075558c-2.2258386 0-4.2739842-1.1900964-5.3494944-3.1026342-1.0772364-1.9094238-1.0124858-4.2575334.1683407-6.1046897l11.0146277-17.28999612c1.1333142-1.92337601 3.2206756-3.08073378 5.4523693-3.02311901 2.2445432.04909938 4.2786603 1.30464069 5.3074093 3.26861591 1.0217347 1.96397522.8720985 4.31840742-.3974712 6.13976063l-11.0122896 17.28999619c-1.1330708 1.7635703-3.0873048 2.8275128-5.1834918 2.8220663z" fill="#fc0"/><ellipse cx="43.560269" cy="24.290237" fill="#00ca72" rx="5.6815" ry="5.562258"/></g></g></svg>